<?xml version="1.0" encoding="ISO-8859-1" standalone="no"?>
<!DOCTYPE svg PUBLIC "-//W3C//DTD SVG 1.1//EN" "http://www.w3.org/Graphics/SVG/1.1/DTD/svg11.dtd">
<svg version="1.1" baseProfile="full" id="body" width="8in" height="8in" viewBox="0 0 1 1" preserveAspectRatio="none" xmlns="http://www.w3.org/2000/svg" xmlns:xlink="http://www.w3.org/1999/xlink" xmlns:ev="http://www.w3.org/2001/xml-events">
<title>SVG drawing</title>
<desc>This was produced by version 4.4 of GNU libplot, a free library for exporting 2-D vector graphics.</desc>
<rect id="background" x="0" y="0" width="1" height="1" stroke="none" fill="white"/>
<g id="content" transform="translate(0,1) scale(0.0016667,-0.0033333) " xml:space="preserve" stroke="black" stroke-linecap="butt" stroke-linejoin="miter" stroke-miterlimit="10.433" stroke-dasharray="none" stroke-dashoffset="0" stroke-opacity="1" fill="none" fill-rule="evenodd" fill-opacity="1" font-style="normal" font-variant="normal" font-weight="normal" font-stretch="normal" font-size-adjust="none" letter-spacing="normal" word-spacing="normal" text-anchor="start">
<line x1="206.35" y1="279.76" x2="206.35" y2="271.72" stroke-width="0.54389" stroke-linecap="round" />
<polyline points="206.35,279.76 209.8,279.76 210.95,279.38 211.33,279 211.72,278.23 211.72,277.08 211.33,276.32 210.95,275.93 209.8,275.55 206.35,275.55 " stroke-width="0.54389" stroke-linecap="round" stroke-linejoin="round" />
<polygon points="215.93,277.08 215.16,276.7 214.4,275.93 214.02,274.79 214.02,274.02 214.4,272.87 215.16,272.1 215.93,271.72 217.08,271.72 217.85,272.1 218.61,272.87 218.99,274.02 218.99,274.79 218.61,275.93 217.85,276.7 217.08,277.08 " stroke-width="0.54389" stroke-linejoin="round" />
<line x1="221.68" y1="277.08" x2="221.68" y2="269.04" stroke-width="0.54389" stroke-linecap="round" />
<polyline points="221.68,275.93 222.44,276.7 223.21,277.08 224.36,277.08 225.12,276.7 225.89,275.93 226.27,274.79 226.27,274.02 225.89,272.87 225.12,272.1 224.36,271.72 223.21,271.72 222.44,272.1 221.68,272.87 " stroke-width="0.54389" stroke-linecap="round" stroke-linejoin="round" />
<polyline points="228.95,277.08 228.95,273.25 229.34,272.1 230.1,271.72 231.25,271.72 232.02,272.1 233.17,273.25 " stroke-width="0.54389" stroke-linecap="round" stroke-linejoin="round" />
<line x1="233.17" y1="277.08" x2="233.17" y2="271.72" stroke-width="0.54389" stroke-linecap="round" />
<line x1="236.23" y1="279.76" x2="236.23" y2="271.72" stroke-width="0.54389" stroke-linecap="round" />
<line x1="243.51" y1="277.08" x2="243.51" y2="271.72" stroke-width="0.54389" stroke-linecap="round" />
<polyline points="243.51,275.93 242.74,276.7 241.98,277.08 240.83,277.08 240.06,276.7 239.29,275.93 238.91,274.79 238.91,274.02 239.29,272.87 240.06,272.1 240.83,271.72 241.98,271.72 242.74,272.1 243.51,272.87 " stroke-width="0.54389" stroke-linecap="round" stroke-linejoin="round" />
<polyline points="246.96,279.76 246.96,273.25 247.34,272.1 248.1,271.72 248.87,271.72 " stroke-width="0.54389" stroke-linecap="round" stroke-linejoin="round" />
<line x1="245.81" y1="277.08" x2="248.49" y2="277.08" stroke-width="0.54389" stroke-linecap="round" />
<polygon points="250.79,279.76 251.17,279.38 251.55,279.76 251.17,280.15 " stroke-width="0.54389" stroke-linejoin="round" />
<line x1="251.17" y1="277.08" x2="251.17" y2="271.72" stroke-width="0.54389" stroke-linecap="round" />
<polyline points="255.76,277.08 255,276.7 254.23,275.93 253.85,274.79 253.85,274.02 254.23,272.87 255,272.1 255.76,271.72 256.91,271.72 257.68,272.1 258.45,272.87 258.83,274.02 258.83,274.79 258.45,275.93 257.68,276.7 256.91,277.08 255.76,277.08 " stroke-width="0.54389" stroke-linecap="round" stroke-linejoin="round" />
<line x1="261.51" y1="277.08" x2="261.51" y2="271.72" stroke-width="0.54389" stroke-linecap="round" />
<polyline points="261.51,275.55 262.66,276.7 263.43,277.08 264.57,277.08 265.34,276.7 265.72,275.55 265.72,271.72 " stroke-width="0.54389" stroke-linecap="round" stroke-linejoin="round" />
<polyline points="269.17,279 268.79,279.38 269.17,279.76 269.55,279.38 269.55,278.62 269.17,277.85 268.79,277.47 " stroke-width="0.54389" stroke-linecap="round" stroke-linejoin="round" />
<polyline points="276.45,275.93 276.07,276.7 274.92,277.08 273.77,277.08 272.62,276.7 272.23,275.93 272.62,275.17 273.38,274.79 275.3,274.4 276.07,274.02 276.45,273.25 276.45,272.87 276.07,272.1 274.92,271.72 273.77,271.72 272.62,272.1 272.23,272.87 " stroke-width="0.54389" stroke-linecap="round" stroke-linejoin="round" />
<line x1="289.47" y1="277.08" x2="289.47" y2="271.72" stroke-width="0.54389" stroke-linecap="round" />
<polyline points="289.47,275.93 288.7,276.7 287.94,277.08 286.79,277.08 286.02,276.7 285.26,275.93 284.87,274.79 284.87,274.02 285.26,272.87 286.02,272.1 286.79,271.72 287.94,271.72 288.7,272.1 289.47,272.87 " stroke-width="0.54389" stroke-linecap="round" stroke-linejoin="round" />
<line x1="291.77" y1="277.08" x2="294.07" y2="271.72" stroke-width="0.54389" stroke-linecap="round" />
<line x1="296.37" y1="277.08" x2="294.07" y2="271.72" stroke-width="0.54389" stroke-linecap="round" />
<polyline points="298.28,274.79 302.88,274.79 302.88,275.55 302.49,276.32 302.11,276.7 301.34,277.08 300.2,277.08 299.43,276.7 298.66,275.93 298.28,274.79 298.28,274.02 298.66,272.87 299.43,272.1 300.2,271.72 301.34,271.72 302.11,272.1 302.88,272.87 " stroke-width="0.54389" stroke-linecap="round" stroke-linejoin="round" />
<line x1="305.56" y1="277.08" x2="305.56" y2="271.72" stroke-width="0.54389" stroke-linecap="round" />
<polyline points="305.56,274.79 305.94,275.93 306.71,276.7 307.47,277.08 308.62,277.08 " stroke-width="0.54389" stroke-linecap="round" stroke-linejoin="round" />
<line x1="314.75" y1="277.08" x2="314.75" y2="271.72" stroke-width="0.54389" stroke-linecap="round" />
<polyline points="314.75,275.93 313.98,276.7 313.22,277.08 312.07,277.08 311.3,276.7 310.54,275.93 310.15,274.79 310.15,274.02 310.54,272.87 311.3,272.1 312.07,271.72 313.22,271.72 313.98,272.1 314.75,272.87 " stroke-width="0.54389" stroke-linecap="round" stroke-linejoin="round" />
<polyline points="322.03,277.08 322.03,270.96 321.64,269.81 321.26,269.42 320.5,269.04 319.35,269.04 318.58,269.42 " stroke-width="0.54389" stroke-linecap="round" stroke-linejoin="round" />
<polyline points="322.03,275.93 321.26,276.7 320.5,277.08 319.35,277.08 318.58,276.7 317.81,275.93 317.43,274.79 317.43,274.02 317.81,272.87 318.58,272.1 319.35,271.72 320.5,271.72 321.26,272.1 322.03,272.87 " stroke-width="0.54389" stroke-linecap="round" stroke-linejoin="round" />
<polyline points="324.71,274.79 329.31,274.79 329.31,275.55 328.92,276.32 328.54,276.7 327.77,277.08 326.62,277.08 325.86,276.7 325.09,275.93 324.71,274.79 324.71,274.02 325.09,272.87 325.86,272.1 326.62,271.72 327.77,271.72 328.54,272.1 329.31,272.87 " stroke-width="0.54389" stroke-linecap="round" stroke-linejoin="round" />
<line x1="342.33" y1="277.08" x2="342.33" y2="271.72" stroke-width="0.54389" stroke-linecap="round" />
<polyline points="342.33,275.93 341.56,276.7 340.8,277.08 339.65,277.08 338.88,276.7 338.11,275.93 337.73,274.79 337.73,274.02 338.11,272.87 338.88,272.1 339.65,271.72 340.8,271.72 341.56,272.1 342.33,272.87 " stroke-width="0.54389" stroke-linecap="round" stroke-linejoin="round" />
<line x1="345.39" y1="277.08" x2="345.39" y2="271.72" stroke-width="0.54389" stroke-linecap="round" />
<polyline points="345.39,275.55 346.54,276.7 347.31,277.08 348.46,277.08 349.22,276.7 349.61,275.55 349.61,271.72 " stroke-width="0.54389" stroke-linecap="round" stroke-linejoin="round" />
<line x1="356.88" y1="279.76" x2="356.88" y2="271.72" stroke-width="0.54389" stroke-linecap="round" />
<polyline points="356.88,275.93 356.12,276.7 355.35,277.08 354.2,277.08 353.44,276.7 352.67,275.93 352.29,274.79 352.29,274.02 352.67,272.87 353.44,272.1 354.2,271.72 355.35,271.72 356.12,272.1 356.88,272.87 " stroke-width="0.54389" stroke-linecap="round" stroke-linejoin="round" />
<line x1="366.08" y1="279.76" x2="366.08" y2="271.72" stroke-width="0.54389" stroke-linecap="round" />
<polyline points="366.08,275.93 366.84,276.7 367.61,277.08 368.76,277.08 369.52,276.7 370.29,275.93 370.67,274.79 370.67,274.02 370.29,272.87 369.52,272.1 368.76,271.72 367.61,271.72 366.84,272.1 366.08,272.87 " stroke-width="0.54389" stroke-linecap="round" stroke-linejoin="round" />
<polyline points="372.97,274.79 377.57,274.79 377.57,275.55 377.18,276.32 376.8,276.7 376.03,277.08 374.88,277.08 374.12,276.7 373.35,275.93 372.97,274.79 372.97,274.02 373.35,272.87 374.12,272.1 374.88,271.72 376.03,271.72 376.8,272.1 377.57,272.87 " stroke-width="0.54389" stroke-linecap="round" stroke-linejoin="round" />
<polyline points="384.08,275.93 383.69,276.7 382.55,277.08 381.4,277.08 380.25,276.7 379.86,275.93 380.25,275.17 381.01,274.79 382.93,274.4 383.69,274.02 384.08,273.25 384.08,272.87 383.69,272.1 382.55,271.72 381.4,271.72 380.25,272.1 379.86,272.87 " stroke-width="0.54389" stroke-linecap="round" stroke-linejoin="round" />
<polyline points="387.14,279.76 387.14,273.25 387.52,272.1 388.29,271.72 389.06,271.72 " stroke-width="0.54389" stroke-linecap="round" stroke-linejoin="round" />
<line x1="385.99" y1="277.08" x2="388.67" y2="277.08" stroke-width="0.54389" stroke-linecap="round" />
<polyline points="399.78,279.76 399.02,279.76 398.25,279.38 397.87,278.23 397.87,271.72 " stroke-width="0.54389" stroke-linecap="round" stroke-linejoin="round" />
<line x1="396.72" y1="277.08" x2="399.4" y2="277.08" stroke-width="0.54389" stroke-linecap="round" />
<polygon points="401.7,279.76 402.08,279.38 402.46,279.76 402.08,280.15 " stroke-width="0.54389" stroke-linejoin="round" />
<line x1="402.08" y1="277.08" x2="402.08" y2="271.72" stroke-width="0.54389" stroke-linecap="round" />
<polyline points="405.53,279.76 405.53,273.25 405.91,272.1 406.68,271.72 407.44,271.72 " stroke-width="0.54389" stroke-linecap="round" stroke-linejoin="round" />
<line x1="404.38" y1="277.08" x2="407.06" y2="277.08" stroke-width="0.54389" stroke-linecap="round" />
<line x1="409.74" y1="277.08" x2="409.74" y2="271.72" stroke-width="0.54389" stroke-linecap="round" />
<polyline points="409.74,275.55 410.89,276.7 411.66,277.08 412.8,277.08 413.57,276.7 413.95,275.55 413.95,271.72 " stroke-width="0.54389" stroke-linecap="round" stroke-linejoin="round" />
<polyline points="416.63,274.79 421.23,274.79 421.23,275.55 420.85,276.32 420.46,276.7 419.7,277.08 418.55,277.08 417.78,276.7 417.02,275.93 416.63,274.79 416.63,274.02 417.02,272.87 417.78,272.1 418.55,271.72 419.7,271.72 420.46,272.1 421.23,272.87 " stroke-width="0.54389" stroke-linecap="round" stroke-linejoin="round" />
<polyline points="427.74,275.93 427.36,276.7 426.21,277.08 425.06,277.08 423.91,276.7 423.53,275.93 423.91,275.17 424.68,274.79 426.59,274.4 427.36,274.02 427.74,273.25 427.74,272.87 427.36,272.1 426.21,271.72 425.06,271.72 423.91,272.1 423.53,272.87 " stroke-width="0.54389" stroke-linecap="round" stroke-linejoin="round" />
<polyline points="434.25,275.93 433.87,276.7 432.72,277.08 431.57,277.08 430.42,276.7 430.04,275.93 430.42,275.17 431.19,274.79 433.1,274.4 433.87,274.02 434.25,273.25 434.25,272.87 433.87,272.1 432.72,271.72 431.57,271.72 430.42,272.1 430.04,272.87 " stroke-width="0.54389" stroke-linecap="round" stroke-linejoin="round" />
<polyline points="92.942,190.77 95.225,203.61 97.509,203.61 99.792,203.61 102.07,203.61 104.36,203.61 106.64,203.61 108.92,203.61 111.21,203.61 113.49,203.61 115.77,203.61 118.06,203.61 120.34,190.77 122.62,190.77 124.91,216.46 127.19,229.3 129.47,216.46 131.76,190.77 134.04,190.77 136.32,190.77 138.6,203.61 140.89,177.92 143.17,190.77 145.45,203.61 147.74,203.61 150.02,216.46 152.3,229.3 154.59,216.46 156.87,216.46 159.15,216.46 161.44,203.61 163.72,203.61 166,216.46 168.29,203.61 170.57,203.61 172.85,190.77 175.13,229.3 177.42,229.3 179.7,229.3 181.98,216.46 184.27,216.46 186.55,190.77 188.83,203.61 191.12,216.46 193.4,190.77 195.68,203.61 197.97,216.46 200.25,203.61 202.53,203.61 204.82,203.61 207.1,203.61 209.38,242.15 211.66,216.46 213.95,203.61 216.23,216.46 218.51,203.61 220.8,216.46 223.08,216.46 225.36,203.61 227.65,242.15 229.93,190.77 232.21,242.15 234.5,229.3 236.78,203.61 239.06,190.77 241.35,229.3 243.63,229.3 245.91,229.3 248.19,203.61 250.48,242.15 252.76,216.46 255.04,242.15 257.33,229.3 259.61,229.3 261.89,203.61 264.18,203.61 266.46,216.46 268.74,229.3 271.03,203.61 273.31,203.61 275.59,190.77 277.87,216.46 280.16,216.46 282.44,242.15 284.72,229.3 287.01,203.61 289.29,216.46 291.57,229.3 293.86,216.46 296.14,203.61 298.42,203.61 300.71,216.46 302.99,216.46 305.27,229.3 307.56,216.46 309.84,203.61 312.12,203.61 314.4,190.77 316.69,229.3 318.97,203.61 321.25,203.61 323.54,229.3 325.82,216.46 328.1,190.77 330.39,216.46 332.67,229.3 334.95,229.3 337.24,203.61 339.52,229.3 341.8,242.15 344.09,216.46 346.37,190.77 348.65,216.46 350.93,242.15 353.22,203.61 355.5,242.15 357.78,216.46 360.07,203.61 362.35,229.3 364.63,229.3 366.92,229.3 369.2,216.46 371.48,216.46 373.77,229.3 376.05,216.46 378.33,216.46 380.62,216.46 382.9,216.46 385.18,242.15 387.46,242.15 389.75,242.15 392.03,216.46 394.31,216.46 396.6,229.3 398.88,229.3 401.16,203.61 403.45,242.15 405.73,229.3 408.01,229.3 410.3,216.46 412.58,216.46 414.86,216.46 417.15,203.61 419.43,203.61 421.71,203.61 423.99,254.99 426.28,190.77 428.56,216.46 430.84,242.15 433.13,242.15 435.41,242.15 437.69,254.99 439.98,216.46 442.26,216.46 444.54,229.3 446.83,242.15 449.11,229.3 451.39,242.15 453.68,242.15 455.96,216.46 458.24,229.3 460.52,203.61 462.81,216.46 465.09,242.15 467.37,203.61 469.66,229.3 471.94,229.3 474.22,254.99 476.51,242.15 478.79,216.46 481.07,203.61 483.36,229.3 485.64,216.46 487.92,242.15 490.2,242.15 492.49,203.61 494.77,242.15 497.05,216.46 499.34,229.3 501.62,242.15 503.9,229.3 506.19,229.3 508.47,229.3 510.75,216.46 513.04,229.3 515.32,242.15 517.6,242.15 519.89,242.15 522.17,216.46 524.45,203.61 526.73,242.15 529.02,216.46 531.3,242.15 533.58,216.46 535.87,229.3 538.15,216.46 540.43,229.3 542.72,216.46 545,216.46 547.28,254.99 " stroke="red" stroke-width="0.42132" />
<polyline points="92.942,75.427 95.225,68.106 97.509,70.675 99.792,74.015 102.07,77.097 104.36,78.382 106.64,77.996 108.92,68.748 111.21,66.051 113.49,72.602 115.77,71.189 118.06,81.464 120.34,71.446 122.62,73.115 124.91,69.391 127.19,75.171 129.47,76.969 131.76,81.593 134.04,67.978 136.32,74.271 138.6,68.62 140.89,71.831 143.17,69.262 145.45,77.354 147.74,77.354 150.02,68.106 152.3,71.703 154.59,78.253 156.87,91.868 159.15,73.758 161.44,73.244 163.72,81.079 166,75.042 168.29,82.62 170.57,76.712 172.85,77.868 175.13,66.95 177.42,67.207 179.7,89.428 181.98,87.116 184.27,76.84 186.55,66.693 188.83,76.969 191.12,75.556 193.4,62.069 195.68,80.822 197.97,82.62 200.25,81.721 202.53,66.18 204.82,80.694 207.1,77.996 209.38,81.85 211.66,76.455 213.95,72.73 216.23,89.042 218.51,76.327 220.8,76.84 223.08,81.85 225.36,71.574 227.65,82.106 229.93,79.281 232.21,89.428 234.5,80.565 236.78,72.987 239.06,84.033 241.35,75.042 243.63,77.354 245.91,72.602 248.19,72.216 250.48,86.73 252.76,90.198 255.04,86.987 257.33,78.767 259.61,82.62 261.89,77.868 264.18,83.648 266.46,81.336 268.74,71.189 271.03,83.006 273.31,71.703 275.59,80.437 277.87,78.125 280.16,86.859 282.44,89.685 284.72,70.804 287.01,81.593 289.29,73.372 291.57,72.859 293.86,74.015 296.14,90.327 298.42,78.382 300.71,78.638 302.99,90.84 305.27,81.207 307.56,77.483 309.84,73.886 312.12,73.372 314.4,80.822 316.69,74.4 318.97,76.455 321.25,71.831 323.54,73.115 325.82,78.382 328.1,80.95 330.39,79.024 332.67,75.556 334.95,74.143 337.24,80.822 339.52,78.895 341.8,79.152 344.09,91.226 346.37,73.115 348.65,81.978 350.93,80.051 353.22,78.638 355.5,78.382 357.78,75.556 360.07,78.895 362.35,83.391 364.63,80.18 366.92,86.73 369.2,88.657 371.48,76.712 373.77,81.978 376.05,82.235 378.33,79.923 380.62,72.73 382.9,86.088 385.18,74.528 387.46,85.703 389.75,78.638 392.03,78.382 394.31,74.271 396.6,66.308 398.88,71.831 401.16,74.528 403.45,80.051 405.73,78.767 408.01,76.969 410.3,81.464 412.58,75.941 414.86,80.18 417.15,74.914 419.43,66.693 421.71,75.299 423.99,81.85 426.28,79.923 428.56,76.07 430.84,82.749 433.13,80.437 435.41,90.07 437.69,81.207 439.98,76.455 442.26,74.528 444.54,93.538 446.83,86.217 449.11,85.061 451.39,84.29 453.68,90.84 455.96,83.648 458.24,88.785 460.52,74.143 462.81,92.125 465.09,87.244 467.37,77.611 469.66,82.62 471.94,79.409 474.22,94.18 476.51,85.831 478.79,82.235 481.07,81.593 483.36,93.024 485.64,83.648 487.92,96.235 490.2,89.171 492.49,79.923 494.77,89.685 497.05,78.125 499.34,91.74 501.62,98.29 503.9,93.795 506.19,85.831 508.47,88.529 510.75,83.648 513.04,84.675 515.32,74.785 517.6,79.538 519.89,87.116 522.17,88.529 524.45,79.024 526.73,94.052 529.02,87.629 531.3,93.024 533.58,89.813 535.87,88.4 538.15,71.446 540.43,83.391 542.72,83.519 545,95.978 547.28,88.4 " stroke="blue" stroke-width="0.42132" />
<line x1="570" y1="55.904" x2="566.84" y2="55.904" stroke-width="0.70588" />
<line x1="570" y1="62.326" x2="566.84" y2="62.326" stroke-width="0.70588" />
<line x1="570" y1="68.748" x2="566.84" y2="68.748" stroke-width="0.70588" />
<line x1="570" y1="75.171" x2="566.84" y2="75.171" stroke-width="0.70588" />
<line x1="570" y1="81.593" x2="566.84" y2="81.593" stroke-width="0.70588" />
<line x1="570" y1="88.015" x2="566.84" y2="88.015" stroke-width="0.70588" />
<line x1="570" y1="94.437" x2="566.84" y2="94.437" stroke-width="0.70588" />
<line x1="570" y1="100.86" x2="566.84" y2="100.86" stroke-width="0.70588" />
<line x1="570" y1="107.28" x2="566.84" y2="107.28" stroke-width="0.70588" />
<line x1="570" y1="113.7" x2="566.84" y2="113.7" stroke-width="0.70588" />
<line x1="570" y1="120.13" x2="566.84" y2="120.13" stroke-width="0.70588" />
<line x1="570" y1="126.55" x2="566.84" y2="126.55" stroke-width="0.70588" />
<line x1="570" y1="132.97" x2="566.84" y2="132.97" stroke-width="0.70588" />
<line x1="570" y1="139.39" x2="566.84" y2="139.39" stroke-width="0.70588" />
<line x1="570" y1="145.81" x2="566.84" y2="145.81" stroke-width="0.70588" />
<line x1="570" y1="152.24" x2="566.84" y2="152.24" stroke-width="0.70588" />
<line x1="570" y1="158.66" x2="566.84" y2="158.66" stroke-width="0.70588" />
<line x1="570" y1="165.08" x2="566.84" y2="165.08" stroke-width="0.70588" />
<line x1="570" y1="171.5" x2="566.84" y2="171.5" stroke-width="0.70588" />
<line x1="570" y1="177.92" x2="566.84" y2="177.92" stroke-width="0.70588" />
<line x1="570" y1="184.35" x2="566.84" y2="184.35" stroke-width="0.70588" />
<line x1="570" y1="190.77" x2="566.84" y2="190.77" stroke-width="0.70588" />
<line x1="570" y1="197.19" x2="566.84" y2="197.19" stroke-width="0.70588" />
<line x1="570" y1="203.61" x2="566.84" y2="203.61" stroke-width="0.70588" />
<line x1="570" y1="210.03" x2="566.84" y2="210.03" stroke-width="0.70588" />
<line x1="570" y1="216.46" x2="566.84" y2="216.46" stroke-width="0.70588" />
<line x1="570" y1="222.88" x2="566.84" y2="222.88" stroke-width="0.70588" />
<line x1="570" y1="229.3" x2="566.84" y2="229.3" stroke-width="0.70588" />
<line x1="570" y1="235.72" x2="566.84" y2="235.72" stroke-width="0.70588" />
<line x1="570" y1="242.15" x2="566.84" y2="242.15" stroke-width="0.70588" />
<line x1="570" y1="248.57" x2="566.84" y2="248.57" stroke-width="0.70588" />
<line x1="570" y1="254.99" x2="566.84" y2="254.99" stroke-width="0.70588" />
<line x1="570" y1="261.41" x2="566.84" y2="261.41" stroke-width="0.70588" />
<line x1="570" y1="62.326" x2="563.68" y2="62.326" stroke-width="0.70588" />
<line x1="570" y1="88.015" x2="563.68" y2="88.015" stroke-width="0.70588" />
<line x1="570" y1="113.7" x2="563.68" y2="113.7" stroke-width="0.70588" />
<line x1="570" y1="139.39" x2="563.68" y2="139.39" stroke-width="0.70588" />
<line x1="570" y1="165.08" x2="563.68" y2="165.08" stroke-width="0.70588" />
<line x1="570" y1="190.77" x2="563.68" y2="190.77" stroke-width="0.70588" />
<line x1="570" y1="216.46" x2="563.68" y2="216.46" stroke-width="0.70588" />
<line x1="570" y1="242.15" x2="563.68" y2="242.15" stroke-width="0.70588" />
<line x1="570" y1="52.423" x2="570" y2="264.64" stroke-width="0.70588" />
<line x1="92.942" y1="264.64" x2="92.942" y2="261.48" stroke-width="0.70588" />
<line x1="115.77" y1="264.64" x2="115.77" y2="261.48" stroke-width="0.70588" />
<line x1="138.6" y1="264.64" x2="138.6" y2="261.48" stroke-width="0.70588" />
<line x1="161.44" y1="264.64" x2="161.44" y2="261.48" stroke-width="0.70588" />
<line x1="184.27" y1="264.64" x2="184.27" y2="261.48" stroke-width="0.70588" />
<line x1="207.1" y1="264.64" x2="207.1" y2="261.48" stroke-width="0.70588" />
<line x1="229.93" y1="264.64" x2="229.93" y2="261.48" stroke-width="0.70588" />
<line x1="252.76" y1="264.64" x2="252.76" y2="261.48" stroke-width="0.70588" />
<line x1="275.59" y1="264.64" x2="275.59" y2="261.48" stroke-width="0.70588" />
<line x1="298.42" y1="264.64" x2="298.42" y2="261.48" stroke-width="0.70588" />
<line x1="321.25" y1="264.64" x2="321.25" y2="261.48" stroke-width="0.70588" />
<line x1="344.09" y1="264.64" x2="344.09" y2="261.48" stroke-width="0.70588" />
<line x1="366.92" y1="264.64" x2="366.92" y2="261.48" stroke-width="0.70588" />
<line x1="389.75" y1="264.64" x2="389.75" y2="261.48" stroke-width="0.70588" />
<line x1="412.58" y1="264.64" x2="412.58" y2="261.48" stroke-width="0.70588" />
<line x1="435.41" y1="264.64" x2="435.41" y2="261.48" stroke-width="0.70588" />
<line x1="458.24" y1="264.64" x2="458.24" y2="261.48" stroke-width="0.70588" />
<line x1="481.07" y1="264.64" x2="481.07" y2="261.48" stroke-width="0.70588" />
<line x1="503.9" y1="264.64" x2="503.9" y2="261.48" stroke-width="0.70588" />
<line x1="526.73" y1="264.64" x2="526.73" y2="261.48" stroke-width="0.70588" />
<line x1="549.57" y1="264.64" x2="549.57" y2="261.48" stroke-width="0.70588" />
<line x1="92.942" y1="264.64" x2="92.942" y2="258.32" stroke-width="0.70588" />
<line x1="207.1" y1="264.64" x2="207.1" y2="258.32" stroke-width="0.70588" />
<line x1="321.25" y1="264.64" x2="321.25" y2="258.32" stroke-width="0.70588" />
<line x1="435.41" y1="264.64" x2="435.41" y2="258.32" stroke-width="0.70588" />
<line x1="549.57" y1="264.64" x2="549.57" y2="258.32" stroke-width="0.70588" />
<line x1="70.225" y1="264.64" x2="570" y2="264.64" stroke-width="0.70588" />
<line x1="70.225" y1="55.904" x2="73.385" y2="55.904" stroke-width="0.70588" />
<line x1="70.225" y1="62.326" x2="73.385" y2="62.326" stroke-width="0.70588" />
<line x1="70.225" y1="68.748" x2="73.385" y2="68.748" stroke-width="0.70588" />
<line x1="70.225" y1="75.171" x2="73.385" y2="75.171" stroke-width="0.70588" />
<line x1="70.225" y1="81.593" x2="73.385" y2="81.593" stroke-width="0.70588" />
<line x1="70.225" y1="88.015" x2="73.385" y2="88.015" stroke-width="0.70588" />
<line x1="70.225" y1="94.437" x2="73.385" y2="94.437" stroke-width="0.70588" />
<line x1="70.225" y1="100.86" x2="73.385" y2="100.86" stroke-width="0.70588" />
<line x1="70.225" y1="107.28" x2="73.385" y2="107.28" stroke-width="0.70588" />
<line x1="70.225" y1="113.7" x2="73.385" y2="113.7" stroke-width="0.70588" />
<line x1="70.225" y1="120.13" x2="73.385" y2="120.13" stroke-width="0.70588" />
<line x1="70.225" y1="126.55" x2="73.385" y2="126.55" stroke-width="0.70588" />
<line x1="70.225" y1="132.97" x2="73.385" y2="132.97" stroke-width="0.70588" />
<line x1="70.225" y1="139.39" x2="73.385" y2="139.39" stroke-width="0.70588" />
<line x1="70.225" y1="145.81" x2="73.385" y2="145.81" stroke-width="0.70588" />
<line x1="70.225" y1="152.24" x2="73.385" y2="152.24" stroke-width="0.70588" />
<line x1="70.225" y1="158.66" x2="73.385" y2="158.66" stroke-width="0.70588" />
<line x1="70.225" y1="165.08" x2="73.385" y2="165.08" stroke-width="0.70588" />
<line x1="70.225" y1="171.5" x2="73.385" y2="171.5" stroke-width="0.70588" />
<line x1="70.225" y1="177.92" x2="73.385" y2="177.92" stroke-width="0.70588" />
<line x1="70.225" y1="184.35" x2="73.385" y2="184.35" stroke-width="0.70588" />
<line x1="70.225" y1="190.77" x2="73.385" y2="190.77" stroke-width="0.70588" />
<line x1="70.225" y1="197.19" x2="73.385" y2="197.19" stroke-width="0.70588" />
<line x1="70.225" y1="203.61" x2="73.385" y2="203.61" stroke-width="0.70588" />
<line x1="70.225" y1="210.03" x2="73.385" y2="210.03" stroke-width="0.70588" />
<line x1="70.225" y1="216.46" x2="73.385" y2="216.46" stroke-width="0.70588" />
<line x1="70.225" y1="222.88" x2="73.385" y2="222.88" stroke-width="0.70588" />
<line x1="70.225" y1="229.3" x2="73.385" y2="229.3" stroke-width="0.70588" />
<line x1="70.225" y1="235.72" x2="73.385" y2="235.72" stroke-width="0.70588" />
<line x1="70.225" y1="242.15" x2="73.385" y2="242.15" stroke-width="0.70588" />
<line x1="70.225" y1="248.57" x2="73.385" y2="248.57" stroke-width="0.70588" />
<line x1="70.225" y1="254.99" x2="73.385" y2="254.99" stroke-width="0.70588" />
<line x1="70.225" y1="261.41" x2="73.385" y2="261.41" stroke-width="0.70588" />
<line x1="70.225" y1="62.326" x2="76.545" y2="62.326" stroke-width="0.70588" />
<line x1="70.225" y1="88.015" x2="76.545" y2="88.015" stroke-width="0.70588" />
<line x1="70.225" y1="113.7" x2="76.545" y2="113.7" stroke-width="0.70588" />
<line x1="70.225" y1="139.39" x2="76.545" y2="139.39" stroke-width="0.70588" />
<line x1="70.225" y1="165.08" x2="76.545" y2="165.08" stroke-width="0.70588" />
<line x1="70.225" y1="190.77" x2="76.545" y2="190.77" stroke-width="0.70588" />
<line x1="70.225" y1="216.46" x2="76.545" y2="216.46" stroke-width="0.70588" />
<line x1="70.225" y1="242.15" x2="76.545" y2="242.15" stroke-width="0.70588" />
<line x1="70.225" y1="52.423" x2="70.225" y2="264.64" stroke-width="0.70588" />
<polygon points="59.309,66.923 58.16,66.54 57.777,65.774 57.777,65.008 58.16,64.241 58.926,63.858 60.458,63.475 61.607,63.092 62.373,62.326 62.756,61.56 62.756,60.411 62.373,59.645 61.99,59.262 60.841,58.879 59.309,58.879 58.16,59.262 57.777,59.645 57.394,60.411 57.394,61.56 57.777,62.326 58.543,63.092 59.692,63.475 61.224,63.858 61.99,64.241 62.373,65.008 62.373,65.774 61.99,66.54 60.841,66.923 " stroke-width="0.54389" stroke-linejoin="round" />
<polyline points="50.883,91.079 51.649,91.462 52.798,92.611 52.798,84.568 " stroke-width="0.54389" stroke-linecap="round" stroke-linejoin="round" />
<polygon points="59.692,92.611 58.543,92.228 57.777,91.079 57.394,89.164 57.394,88.015 57.777,86.1 58.543,84.951 59.692,84.568 60.458,84.568 61.607,84.951 62.373,86.1 62.756,88.015 62.756,89.164 62.373,91.079 61.607,92.228 60.458,92.611 " stroke-width="0.54389" stroke-linejoin="round" />
<polyline points="50.883,116.77 51.649,117.15 52.798,118.3 52.798,110.26 " stroke-width="0.54389" stroke-linecap="round" stroke-linejoin="round" />
<polyline points="57.777,116.38 57.777,116.77 58.16,117.53 58.543,117.92 59.309,118.3 60.841,118.3 61.607,117.92 61.99,117.53 62.373,116.77 62.373,116 61.99,115.24 61.224,114.09 57.394,110.26 62.756,110.26 " stroke-width="0.54389" stroke-linecap="round" stroke-linejoin="round" />
<polyline points="50.883,142.46 51.649,142.84 52.798,143.99 52.798,135.94 " stroke-width="0.54389" stroke-linecap="round" stroke-linejoin="round" />
<polyline points="61.224,143.99 57.394,138.63 63.139,138.63 " stroke-width="0.54389" stroke-linecap="round" stroke-linejoin="round" />
<line x1="61.224" y1="143.99" x2="61.224" y2="135.94" stroke-width="0.54389" stroke-linecap="round" />
<polyline points="50.883,168.14 51.649,168.53 52.798,169.68 52.798,161.63 " stroke-width="0.54389" stroke-linecap="round" stroke-linejoin="round" />
<polyline points="62.373,168.53 61.99,169.29 60.841,169.68 60.075,169.68 58.926,169.29 58.16,168.14 57.777,166.23 57.777,164.31 58.16,162.78 58.926,162.02 60.075,161.63 60.458,161.63 61.607,162.02 62.373,162.78 62.756,163.93 62.756,164.31 62.373,165.46 61.607,166.23 60.458,166.61 60.075,166.61 58.926,166.23 58.16,165.46 57.777,164.31 " stroke-width="0.54389" stroke-linecap="round" stroke-linejoin="round" />
<polyline points="50.883,193.83 51.649,194.22 52.798,195.36 52.798,187.32 " stroke-width="0.54389" stroke-linecap="round" stroke-linejoin="round" />
<polygon points="59.309,195.36 58.16,194.98 57.777,194.22 57.777,193.45 58.16,192.68 58.926,192.3 60.458,191.92 61.607,191.53 62.373,190.77 62.756,190 62.756,188.85 62.373,188.09 61.99,187.7 60.841,187.32 59.309,187.32 58.16,187.7 57.777,188.09 57.394,188.85 57.394,190 57.777,190.77 58.543,191.53 59.692,191.92 61.224,192.3 61.99,192.68 62.373,193.45 62.373,194.22 61.99,194.98 60.841,195.36 " stroke-width="0.54389" stroke-linejoin="round" />
<polyline points="50.117,219.14 50.117,219.52 50.5,220.29 50.883,220.67 51.649,221.05 53.181,221.05 53.947,220.67 54.33,220.29 54.713,219.52 54.713,218.75 54.33,217.99 53.564,216.84 49.734,213.01 55.096,213.01 " stroke-width="0.54389" stroke-linecap="round" stroke-linejoin="round" />
<polygon points="59.692,221.05 58.543,220.67 57.777,219.52 57.394,217.61 57.394,216.46 57.777,214.54 58.543,213.39 59.692,213.01 60.458,213.01 61.607,213.39 62.373,214.54 62.756,216.46 62.756,217.61 62.373,219.52 61.607,220.67 60.458,221.05 " stroke-width="0.54389" stroke-linejoin="round" />
<polyline points="50.117,244.83 50.117,245.21 50.5,245.98 50.883,246.36 51.649,246.74 53.181,246.74 53.947,246.36 54.33,245.98 54.713,245.21 54.713,244.44 54.33,243.68 53.564,242.53 49.734,238.7 55.096,238.7 " stroke-width="0.54389" stroke-linecap="round" stroke-linejoin="round" />
<polyline points="57.777,244.83 57.777,245.21 58.16,245.98 58.543,246.36 59.309,246.74 60.841,246.74 61.607,246.36 61.99,245.98 62.373,245.21 62.373,244.44 61.99,243.68 61.224,242.53 57.394,238.7 62.756,238.7 " stroke-width="0.54389" stroke-linecap="round" stroke-linejoin="round" />
<line x1="33.455" y1="139.19" x2="41.499" y2="139.19" stroke-width="0.54389" stroke-linecap="round" />
<line x1="33.455" y1="139.19" x2="33.455" y2="144.17" stroke-width="0.54389" stroke-linecap="round" />
<line x1="37.285" y1="139.19" x2="37.285" y2="142.25" stroke-width="0.54389" stroke-linecap="round" />
<polygon points="33.455,145.7 33.838,146.08 33.455,146.46 33.072,146.08 " stroke-width="0.54389" stroke-linejoin="round" />
<line x1="36.136" y1="146.08" x2="41.499" y2="146.08" stroke-width="0.54389" stroke-linecap="round" />
<polyline points="33.455,149.53 39.966,149.53 41.116,149.91 41.499,150.68 41.499,151.44 " stroke-width="0.54389" stroke-linecap="round" stroke-linejoin="round" />
<line x1="36.136" y1="148.38" x2="36.136" y2="151.06" stroke-width="0.54389" stroke-linecap="round" />
<line x1="36.136" y1="153.74" x2="41.499" y2="153.74" stroke-width="0.54389" stroke-linecap="round" />
<polyline points="37.668,153.74 36.519,154.89 36.136,155.66 36.136,156.81 36.519,157.57 37.668,157.95 41.499,157.95 " stroke-width="0.54389" stroke-linecap="round" stroke-linejoin="round" />
<polyline points="38.434,160.64 38.434,165.23 37.668,165.23 36.902,164.85 36.519,164.47 36.136,163.7 36.136,162.55 36.519,161.79 37.285,161.02 38.434,160.64 39.2,160.64 40.349,161.02 41.116,161.79 41.499,162.55 41.499,163.7 41.116,164.47 40.349,165.23 " stroke-width="0.54389" stroke-linecap="round" stroke-linejoin="round" />
<polyline points="37.285,171.74 36.519,171.36 36.136,170.21 36.136,169.06 36.519,167.91 37.285,167.53 38.051,167.91 38.434,168.68 38.817,170.59 39.2,171.36 39.966,171.74 40.349,171.74 41.116,171.36 41.499,170.21 41.499,169.06 41.116,167.91 40.349,167.53 " stroke-width="0.54389" stroke-linecap="round" stroke-linejoin="round" />
<polyline points="37.285,178.26 36.519,177.87 36.136,176.72 36.136,175.57 36.519,174.42 37.285,174.04 38.051,174.42 38.434,175.19 38.817,177.11 39.2,177.87 39.966,178.26 40.349,178.26 41.116,177.87 41.499,176.72 41.499,175.57 41.116,174.42 40.349,174.04 " stroke-width="0.54389" stroke-linecap="round" stroke-linejoin="round" />
<line x1="92.942" y1="52.423" x2="92.942" y2="55.583" stroke-width="0.70588" />
<line x1="115.77" y1="52.423" x2="115.77" y2="55.583" stroke-width="0.70588" />
<line x1="138.6" y1="52.423" x2="138.6" y2="55.583" stroke-width="0.70588" />
<line x1="161.44" y1="52.423" x2="161.44" y2="55.583" stroke-width="0.70588" />
<line x1="184.27" y1="52.423" x2="184.27" y2="55.583" stroke-width="0.70588" />
<line x1="207.1" y1="52.423" x2="207.1" y2="55.583" stroke-width="0.70588" />
<line x1="229.93" y1="52.423" x2="229.93" y2="55.583" stroke-width="0.70588" />
<line x1="252.76" y1="52.423" x2="252.76" y2="55.583" stroke-width="0.70588" />
<line x1="275.59" y1="52.423" x2="275.59" y2="55.583" stroke-width="0.70588" />
<line x1="298.42" y1="52.423" x2="298.42" y2="55.583" stroke-width="0.70588" />
<line x1="321.25" y1="52.423" x2="321.25" y2="55.583" stroke-width="0.70588" />
<line x1="344.09" y1="52.423" x2="344.09" y2="55.583" stroke-width="0.70588" />
<line x1="366.92" y1="52.423" x2="366.92" y2="55.583" stroke-width="0.70588" />
<line x1="389.75" y1="52.423" x2="389.75" y2="55.583" stroke-width="0.70588" />
<line x1="412.58" y1="52.423" x2="412.58" y2="55.583" stroke-width="0.70588" />
<line x1="435.41" y1="52.423" x2="435.41" y2="55.583" stroke-width="0.70588" />
<line x1="458.24" y1="52.423" x2="458.24" y2="55.583" stroke-width="0.70588" />
<line x1="481.07" y1="52.423" x2="481.07" y2="55.583" stroke-width="0.70588" />
<line x1="503.9" y1="52.423" x2="503.9" y2="55.583" stroke-width="0.70588" />
<line x1="526.73" y1="52.423" x2="526.73" y2="55.583" stroke-width="0.70588" />
<line x1="549.57" y1="52.423" x2="549.57" y2="55.583" stroke-width="0.70588" />
<line x1="92.942" y1="52.423" x2="92.942" y2="58.743" stroke-width="0.70588" />
<line x1="207.1" y1="52.423" x2="207.1" y2="58.743" stroke-width="0.70588" />
<line x1="321.25" y1="52.423" x2="321.25" y2="58.743" stroke-width="0.70588" />
<line x1="435.41" y1="52.423" x2="435.41" y2="58.743" stroke-width="0.70588" />
<line x1="549.57" y1="52.423" x2="549.57" y2="58.743" stroke-width="0.70588" />
<line x1="70.225" y1="52.423" x2="570" y2="52.423" stroke-width="0.70588" />
<polygon points="92.559,44.38 91.41,43.997 90.644,42.848 90.261,40.933 90.261,39.784 90.644,37.869 91.41,36.72 92.559,36.337 93.325,36.337 94.474,36.72 95.24,37.869 95.623,39.784 95.623,40.933 95.24,42.848 94.474,43.997 93.325,44.38 " stroke-width="0.54389" stroke-linejoin="round" />
<polyline points="205.18,44.38 201.35,44.38 200.97,40.933 201.35,41.316 202.5,41.699 203.65,41.699 204.8,41.316 205.57,40.55 205.95,39.401 205.95,38.635 205.57,37.486 204.8,36.72 203.65,36.337 202.5,36.337 201.35,36.72 200.97,37.103 200.59,37.869 " stroke-width="0.54389" stroke-linecap="round" stroke-linejoin="round" />
<polygon points="210.55,44.38 209.4,43.997 208.63,42.848 208.25,40.933 208.25,39.784 208.63,37.869 209.4,36.72 210.55,36.337 211.31,36.337 212.46,36.72 213.23,37.869 213.61,39.784 213.61,40.933 213.23,42.848 212.46,43.997 211.31,44.38 " stroke-width="0.54389" stroke-linejoin="round" />
<polyline points="312.06,42.848 312.83,43.231 313.98,44.38 313.98,36.337 " stroke-width="0.54389" stroke-linecap="round" stroke-linejoin="round" />
<polygon points="320.87,44.38 319.72,43.997 318.96,42.848 318.57,40.933 318.57,39.784 318.96,37.869 319.72,36.72 320.87,36.337 321.64,36.337 322.79,36.72 323.55,37.869 323.94,39.784 323.94,40.933 323.55,42.848 322.79,43.997 321.64,44.38 " stroke-width="0.54389" stroke-linejoin="round" />
<polygon points="328.53,44.38 327.38,43.997 326.62,42.848 326.23,40.933 326.23,39.784 326.62,37.869 327.38,36.72 328.53,36.337 329.3,36.337 330.45,36.72 331.21,37.869 331.6,39.784 331.6,40.933 331.21,42.848 330.45,43.997 329.3,44.38 " stroke-width="0.54389" stroke-linejoin="round" />
<polyline points="426.22,42.848 426.98,43.231 428.13,44.38 428.13,36.337 " stroke-width="0.54389" stroke-linecap="round" stroke-linejoin="round" />
<polyline points="437.33,44.38 433.5,44.38 433.11,40.933 433.5,41.316 434.64,41.699 435.79,41.699 436.94,41.316 437.71,40.55 438.09,39.401 438.09,38.635 437.71,37.486 436.94,36.72 435.79,36.337 434.64,36.337 433.5,36.72 433.11,37.103 432.73,37.869 " stroke-width="0.54389" stroke-linecap="round" stroke-linejoin="round" />
<polygon points="442.69,44.38 441.54,43.997 440.77,42.848 440.39,40.933 440.39,39.784 440.77,37.869 441.54,36.72 442.69,36.337 443.45,36.337 444.6,36.72 445.37,37.869 445.75,39.784 445.75,40.933 445.37,42.848 444.6,43.997 443.45,44.38 " stroke-width="0.54389" stroke-linejoin="round" />
<polyline points="539.61,42.465 539.61,42.848 539.99,43.614 540.37,43.997 541.14,44.38 542.67,44.38 543.44,43.997 543.82,43.614 544.2,42.848 544.2,42.082 543.82,41.316 543.05,40.167 539.22,36.337 544.59,36.337 " stroke-width="0.54389" stroke-linecap="round" stroke-linejoin="round" />
<polygon points="549.18,44.38 548.03,43.997 547.27,42.848 546.88,40.933 546.88,39.784 547.27,37.869 548.03,36.72 549.18,36.337 549.95,36.337 551.1,36.72 551.86,37.869 552.25,39.784 552.25,40.933 551.86,42.848 551.1,43.997 549.95,44.38 " stroke-width="0.54389" stroke-linejoin="round" />
<polygon points="556.84,44.38 555.69,43.997 554.93,42.848 554.55,40.933 554.55,39.784 554.93,37.869 555.69,36.72 556.84,36.337 557.61,36.337 558.76,36.72 559.52,37.869 559.91,39.784 559.91,40.933 559.52,42.848 558.76,43.997 557.61,44.38 " stroke-width="0.54389" stroke-linejoin="round" />
<polyline points="291.96,25.612 291.58,26.378 290.81,27.144 290.05,27.527 288.51,27.527 287.75,27.144 286.98,26.378 286.6,25.612 286.22,24.463 286.22,22.548 286.6,21.399 286.98,20.633 287.75,19.867 288.51,19.484 290.05,19.484 290.81,19.867 291.58,20.633 291.96,21.399 291.96,22.548 " stroke-width="0.54389" stroke-linecap="round" stroke-linejoin="round" />
<line x1="290.05" y1="22.548" x2="291.96" y2="22.548" stroke-width="0.54389" stroke-linecap="round" />
<polyline points="294.26,22.548 298.85,22.548 298.85,23.314 298.47,24.08 298.09,24.463 297.32,24.846 296.17,24.846 295.41,24.463 294.64,23.697 294.26,22.548 294.26,21.782 294.64,20.633 295.41,19.867 296.17,19.484 297.32,19.484 298.09,19.867 298.85,20.633 " stroke-width="0.54389" stroke-linecap="round" stroke-linejoin="round" />
<line x1="301.54" y1="24.846" x2="301.54" y2="19.484" stroke-width="0.54389" stroke-linecap="round" />
<polyline points="301.54,23.314 302.69,24.463 303.45,24.846 304.6,24.846 305.37,24.463 305.75,23.314 305.75,19.484 " stroke-width="0.54389" stroke-linecap="round" stroke-linejoin="round" />
<polyline points="308.43,22.548 313.03,22.548 313.03,23.314 312.64,24.08 312.26,24.463 311.49,24.846 310.35,24.846 309.58,24.463 308.81,23.697 308.43,22.548 308.43,21.782 308.81,20.633 309.58,19.867 310.35,19.484 311.49,19.484 312.26,19.867 313.03,20.633 " stroke-width="0.54389" stroke-linecap="round" stroke-linejoin="round" />
<line x1="315.71" y1="24.846" x2="315.71" y2="19.484" stroke-width="0.54389" stroke-linecap="round" />
<polyline points="315.71,22.548 316.09,23.697 316.86,24.463 317.62,24.846 318.77,24.846 " stroke-width="0.54389" stroke-linecap="round" stroke-linejoin="round" />
<line x1="324.9" y1="24.846" x2="324.9" y2="19.484" stroke-width="0.54389" stroke-linecap="round" />
<polyline points="324.9,23.697 324.13,24.463 323.37,24.846 322.22,24.846 321.45,24.463 320.69,23.697 320.3,22.548 320.3,21.782 320.69,20.633 321.45,19.867 322.22,19.484 323.37,19.484 324.13,19.867 324.9,20.633 " stroke-width="0.54389" stroke-linecap="round" stroke-linejoin="round" />
<polyline points="328.35,27.527 328.35,21.016 328.73,19.867 329.5,19.484 330.26,19.484 " stroke-width="0.54389" stroke-linecap="round" stroke-linejoin="round" />
<line x1="327.2" y1="24.846" x2="329.88" y2="24.846" stroke-width="0.54389" stroke-linecap="round" />
<polygon points="332.18,27.527 332.56,27.144 332.94,27.527 332.56,27.91 " stroke-width="0.54389" stroke-linejoin="round" />
<line x1="332.56" y1="24.846" x2="332.56" y2="19.484" stroke-width="0.54389" stroke-linecap="round" />
<polygon points="337.16,24.846 336.39,24.463 335.63,23.697 335.24,22.548 335.24,21.782 335.63,20.633 336.39,19.867 337.16,19.484 338.31,19.484 339.07,19.867 339.84,20.633 340.22,21.782 340.22,22.548 339.84,23.697 339.07,24.463 338.31,24.846 " stroke-width="0.54389" stroke-linejoin="round" />
<line x1="342.9" y1="24.846" x2="342.9" y2="19.484" stroke-width="0.54389" stroke-linecap="round" />
<polyline points="342.9,23.314 344.05,24.463 344.82,24.846 345.97,24.846 346.73,24.463 347.12,23.314 347.12,19.484 " stroke-width="0.54389" stroke-linecap="round" stroke-linejoin="round" />
<polyline points="354.01,23.697 353.63,24.463 352.48,24.846 351.33,24.846 350.18,24.463 349.8,23.697 350.18,22.931 350.95,22.548 352.86,22.165 353.63,21.782 354.01,21.016 354.01,20.633 353.63,19.867 352.48,19.484 351.33,19.484 350.18,19.867 349.8,20.633 " stroke-width="0.54389" stroke-linecap="round" stroke-linejoin="round" />
</g>
</svg>
