<?xml version="1.0" encoding="ISO-8859-1" standalone="no"?>
<!DOCTYPE svg PUBLIC "-//W3C//DTD SVG 1.1//EN" "http://www.w3.org/Graphics/SVG/1.1/DTD/svg11.dtd">
<svg version="1.1" baseProfile="full" id="body" width="8in" height="8in" viewBox="0 0 1 1" preserveAspectRatio="none" xmlns="http://www.w3.org/2000/svg" xmlns:xlink="http://www.w3.org/1999/xlink" xmlns:ev="http://www.w3.org/2001/xml-events">
<title>SVG drawing</title>
<desc>This was produced by version 4.4 of GNU libplot, a free library for exporting 2-D vector graphics.</desc>
<rect id="background" x="0" y="0" width="1" height="1" stroke="none" fill="white"/>
<g id="content" transform="translate(0,1) scale(0.0016667,-0.0033333) " xml:space="preserve" stroke="black" stroke-linecap="butt" stroke-linejoin="miter" stroke-miterlimit="10.433" stroke-dasharray="none" stroke-dashoffset="0" stroke-opacity="1" fill="none" fill-rule="evenodd" fill-opacity="1" font-style="normal" font-variant="normal" font-weight="normal" font-stretch="normal" font-size-adjust="none" letter-spacing="normal" word-spacing="normal" text-anchor="start">
<line x1="206.35" y1="279.76" x2="206.35" y2="271.72" stroke-width="0.54389" stroke-linecap="round" />
<polyline points="206.35,279.76 209.8,279.76 210.95,279.38 211.33,279 211.72,278.23 211.72,277.08 211.33,276.32 210.95,275.93 209.8,275.55 206.35,275.55 " stroke-width="0.54389" stroke-linecap="round" stroke-linejoin="round" />
<polygon points="215.93,277.08 215.16,276.7 214.4,275.93 214.02,274.79 214.02,274.02 214.4,272.87 215.16,272.1 215.93,271.72 217.08,271.72 217.85,272.1 218.61,272.87 218.99,274.02 218.99,274.79 218.61,275.93 217.85,276.7 217.08,277.08 " stroke-width="0.54389" stroke-linejoin="round" />
<line x1="221.68" y1="277.08" x2="221.68" y2="269.04" stroke-width="0.54389" stroke-linecap="round" />
<polyline points="221.68,275.93 222.44,276.7 223.21,277.08 224.36,277.08 225.12,276.7 225.89,275.93 226.27,274.79 226.27,274.02 225.89,272.87 225.12,272.1 224.36,271.72 223.21,271.72 222.44,272.1 221.68,272.87 " stroke-width="0.54389" stroke-linecap="round" stroke-linejoin="round" />
<polyline points="228.95,277.08 228.95,273.25 229.34,272.1 230.1,271.72 231.25,271.72 232.02,272.1 233.17,273.25 " stroke-width="0.54389" stroke-linecap="round" stroke-linejoin="round" />
<line x1="233.17" y1="277.08" x2="233.17" y2="271.72" stroke-width="0.54389" stroke-linecap="round" />
<line x1="236.23" y1="279.76" x2="236.23" y2="271.72" stroke-width="0.54389" stroke-linecap="round" />
<line x1="243.51" y1="277.08" x2="243.51" y2="271.72" stroke-width="0.54389" stroke-linecap="round" />
<polyline points="243.51,275.93 242.74,276.7 241.98,277.08 240.83,277.08 240.06,276.7 239.29,275.93 238.91,274.79 238.91,274.02 239.29,272.87 240.06,272.1 240.83,271.72 241.98,271.72 242.74,272.1 243.51,272.87 " stroke-width="0.54389" stroke-linecap="round" stroke-linejoin="round" />
<polyline points="246.96,279.76 246.96,273.25 247.34,272.1 248.1,271.72 248.87,271.72 " stroke-width="0.54389" stroke-linecap="round" stroke-linejoin="round" />
<line x1="245.81" y1="277.08" x2="248.49" y2="277.08" stroke-width="0.54389" stroke-linecap="round" />
<polygon points="250.79,279.76 251.17,279.38 251.55,279.76 251.17,280.15 " stroke-width="0.54389" stroke-linejoin="round" />
<line x1="251.17" y1="277.08" x2="251.17" y2="271.72" stroke-width="0.54389" stroke-linecap="round" />
<polyline points="255.76,277.08 255,276.7 254.23,275.93 253.85,274.79 253.85,274.02 254.23,272.87 255,272.1 255.76,271.72 256.91,271.72 257.68,272.1 258.45,272.87 258.83,274.02 258.83,274.79 258.45,275.93 257.68,276.7 256.91,277.08 255.76,277.08 " stroke-width="0.54389" stroke-linecap="round" stroke-linejoin="round" />
<line x1="261.51" y1="277.08" x2="261.51" y2="271.72" stroke-width="0.54389" stroke-linecap="round" />
<polyline points="261.51,275.55 262.66,276.7 263.43,277.08 264.57,277.08 265.34,276.7 265.72,275.55 265.72,271.72 " stroke-width="0.54389" stroke-linecap="round" stroke-linejoin="round" />
<polyline points="269.17,279 268.79,279.38 269.17,279.76 269.55,279.38 269.55,278.62 269.17,277.85 268.79,277.47 " stroke-width="0.54389" stroke-linecap="round" stroke-linejoin="round" />
<polyline points="276.45,275.93 276.07,276.7 274.92,277.08 273.77,277.08 272.62,276.7 272.23,275.93 272.62,275.17 273.38,274.79 275.3,274.4 276.07,274.02 276.45,273.25 276.45,272.87 276.07,272.1 274.92,271.72 273.77,271.72 272.62,272.1 272.23,272.87 " stroke-width="0.54389" stroke-linecap="round" stroke-linejoin="round" />
<line x1="289.47" y1="277.08" x2="289.47" y2="271.72" stroke-width="0.54389" stroke-linecap="round" />
<polyline points="289.47,275.93 288.7,276.7 287.94,277.08 286.79,277.08 286.02,276.7 285.26,275.93 284.87,274.79 284.87,274.02 285.26,272.87 286.02,272.1 286.79,271.72 287.94,271.72 288.7,272.1 289.47,272.87 " stroke-width="0.54389" stroke-linecap="round" stroke-linejoin="round" />
<line x1="291.77" y1="277.08" x2="294.07" y2="271.72" stroke-width="0.54389" stroke-linecap="round" />
<line x1="296.37" y1="277.08" x2="294.07" y2="271.72" stroke-width="0.54389" stroke-linecap="round" />
<polyline points="298.28,274.79 302.88,274.79 302.88,275.55 302.49,276.32 302.11,276.7 301.34,277.08 300.2,277.08 299.43,276.7 298.66,275.93 298.28,274.79 298.28,274.02 298.66,272.87 299.43,272.1 300.2,271.72 301.34,271.72 302.11,272.1 302.88,272.87 " stroke-width="0.54389" stroke-linecap="round" stroke-linejoin="round" />
<line x1="305.56" y1="277.08" x2="305.56" y2="271.72" stroke-width="0.54389" stroke-linecap="round" />
<polyline points="305.56,274.79 305.94,275.93 306.71,276.7 307.47,277.08 308.62,277.08 " stroke-width="0.54389" stroke-linecap="round" stroke-linejoin="round" />
<line x1="314.75" y1="277.08" x2="314.75" y2="271.72" stroke-width="0.54389" stroke-linecap="round" />
<polyline points="314.75,275.93 313.98,276.7 313.22,277.08 312.07,277.08 311.3,276.7 310.54,275.93 310.15,274.79 310.15,274.02 310.54,272.87 311.3,272.1 312.07,271.72 313.22,271.72 313.98,272.1 314.75,272.87 " stroke-width="0.54389" stroke-linecap="round" stroke-linejoin="round" />
<polyline points="322.03,277.08 322.03,270.96 321.64,269.81 321.26,269.42 320.5,269.04 319.35,269.04 318.58,269.42 " stroke-width="0.54389" stroke-linecap="round" stroke-linejoin="round" />
<polyline points="322.03,275.93 321.26,276.7 320.5,277.08 319.35,277.08 318.58,276.7 317.81,275.93 317.43,274.79 317.43,274.02 317.81,272.87 318.58,272.1 319.35,271.72 320.5,271.72 321.26,272.1 322.03,272.87 " stroke-width="0.54389" stroke-linecap="round" stroke-linejoin="round" />
<polyline points="324.71,274.79 329.31,274.79 329.31,275.55 328.92,276.32 328.54,276.7 327.77,277.08 326.62,277.08 325.86,276.7 325.09,275.93 324.71,274.79 324.71,274.02 325.09,272.87 325.86,272.1 326.62,271.72 327.77,271.72 328.54,272.1 329.31,272.87 " stroke-width="0.54389" stroke-linecap="round" stroke-linejoin="round" />
<line x1="342.33" y1="277.08" x2="342.33" y2="271.72" stroke-width="0.54389" stroke-linecap="round" />
<polyline points="342.33,275.93 341.56,276.7 340.8,277.08 339.65,277.08 338.88,276.7 338.11,275.93 337.73,274.79 337.73,274.02 338.11,272.87 338.88,272.1 339.65,271.72 340.8,271.72 341.56,272.1 342.33,272.87 " stroke-width="0.54389" stroke-linecap="round" stroke-linejoin="round" />
<line x1="345.39" y1="277.08" x2="345.39" y2="271.72" stroke-width="0.54389" stroke-linecap="round" />
<polyline points="345.39,275.55 346.54,276.7 347.31,277.08 348.46,277.08 349.22,276.7 349.61,275.55 349.61,271.72 " stroke-width="0.54389" stroke-linecap="round" stroke-linejoin="round" />
<line x1="356.88" y1="279.76" x2="356.88" y2="271.72" stroke-width="0.54389" stroke-linecap="round" />
<polyline points="356.88,275.93 356.12,276.7 355.35,277.08 354.2,277.08 353.44,276.7 352.67,275.93 352.29,274.79 352.29,274.02 352.67,272.87 353.44,272.1 354.2,271.72 355.35,271.72 356.12,272.1 356.88,272.87 " stroke-width="0.54389" stroke-linecap="round" stroke-linejoin="round" />
<line x1="366.08" y1="279.76" x2="366.08" y2="271.72" stroke-width="0.54389" stroke-linecap="round" />
<polyline points="366.08,275.93 366.84,276.7 367.61,277.08 368.76,277.08 369.52,276.7 370.29,275.93 370.67,274.79 370.67,274.02 370.29,272.87 369.52,272.1 368.76,271.72 367.61,271.72 366.84,272.1 366.08,272.87 " stroke-width="0.54389" stroke-linecap="round" stroke-linejoin="round" />
<polyline points="372.97,274.79 377.57,274.79 377.57,275.55 377.18,276.32 376.8,276.7 376.03,277.08 374.88,277.08 374.12,276.7 373.35,275.93 372.97,274.79 372.97,274.02 373.35,272.87 374.12,272.1 374.88,271.72 376.03,271.72 376.8,272.1 377.57,272.87 " stroke-width="0.54389" stroke-linecap="round" stroke-linejoin="round" />
<polyline points="384.08,275.93 383.69,276.7 382.55,277.08 381.4,277.08 380.25,276.7 379.86,275.93 380.25,275.17 381.01,274.79 382.93,274.4 383.69,274.02 384.08,273.25 384.08,272.87 383.69,272.1 382.55,271.72 381.4,271.72 380.25,272.1 379.86,272.87 " stroke-width="0.54389" stroke-linecap="round" stroke-linejoin="round" />
<polyline points="387.14,279.76 387.14,273.25 387.52,272.1 388.29,271.72 389.06,271.72 " stroke-width="0.54389" stroke-linecap="round" stroke-linejoin="round" />
<line x1="385.99" y1="277.08" x2="388.67" y2="277.08" stroke-width="0.54389" stroke-linecap="round" />
<polyline points="399.78,279.76 399.02,279.76 398.25,279.38 397.87,278.23 397.87,271.72 " stroke-width="0.54389" stroke-linecap="round" stroke-linejoin="round" />
<line x1="396.72" y1="277.08" x2="399.4" y2="277.08" stroke-width="0.54389" stroke-linecap="round" />
<polygon points="401.7,279.76 402.08,279.38 402.46,279.76 402.08,280.15 " stroke-width="0.54389" stroke-linejoin="round" />
<line x1="402.08" y1="277.08" x2="402.08" y2="271.72" stroke-width="0.54389" stroke-linecap="round" />
<polyline points="405.53,279.76 405.53,273.25 405.91,272.1 406.68,271.72 407.44,271.72 " stroke-width="0.54389" stroke-linecap="round" stroke-linejoin="round" />
<line x1="404.38" y1="277.08" x2="407.06" y2="277.08" stroke-width="0.54389" stroke-linecap="round" />
<line x1="409.74" y1="277.08" x2="409.74" y2="271.72" stroke-width="0.54389" stroke-linecap="round" />
<polyline points="409.74,275.55 410.89,276.7 411.66,277.08 412.8,277.08 413.57,276.7 413.95,275.55 413.95,271.72 " stroke-width="0.54389" stroke-linecap="round" stroke-linejoin="round" />
<polyline points="416.63,274.79 421.23,274.79 421.23,275.55 420.85,276.32 420.46,276.7 419.7,277.08 418.55,277.08 417.78,276.7 417.02,275.93 416.63,274.79 416.63,274.02 417.02,272.87 417.78,272.1 418.55,271.72 419.7,271.72 420.46,272.1 421.23,272.87 " stroke-width="0.54389" stroke-linecap="round" stroke-linejoin="round" />
<polyline points="427.74,275.93 427.36,276.7 426.21,277.08 425.06,277.08 423.91,276.7 423.53,275.93 423.91,275.17 424.68,274.79 426.59,274.4 427.36,274.02 427.74,273.25 427.74,272.87 427.36,272.1 426.21,271.72 425.06,271.72 423.91,272.1 423.53,272.87 " stroke-width="0.54389" stroke-linecap="round" stroke-linejoin="round" />
<polyline points="434.25,275.93 433.87,276.7 432.72,277.08 431.57,277.08 430.42,276.7 430.04,275.93 430.42,275.17 431.19,274.79 433.1,274.4 433.87,274.02 434.25,273.25 434.25,272.87 433.87,272.1 432.72,271.72 431.57,271.72 430.42,272.1 430.04,272.87 " stroke-width="0.54389" stroke-linecap="round" stroke-linejoin="round" />
<polyline points="92.942,217.01 93.853,204.35 94.763,217.01 95.674,204.35 96.584,179.04 97.495,191.7 98.405,191.7 99.316,204.35 100.23,191.7 101.14,229.67 102.05,204.35 102.96,204.35 103.87,191.7 104.78,204.35 105.69,229.67 106.6,204.35 107.51,191.7 108.42,204.35 109.33,217.01 110.24,217.01 111.15,204.35 112.06,204.35 112.97,204.35 113.88,204.35 114.79,204.35 115.7,191.7 116.62,217.01 117.53,204.35 118.44,191.7 119.35,204.35 120.26,191.7 121.17,217.01 122.08,179.04 122.99,204.35 123.9,217.01 124.81,217.01 125.72,217.01 126.63,204.35 127.54,217.01 128.45,254.99 129.36,179.04 130.27,204.35 131.18,217.01 132.09,204.35 133,191.7 133.91,204.35 134.83,191.7 135.74,217.01 136.65,179.04 137.56,191.7 138.47,217.01 139.38,204.35 140.29,217.01 141.2,217.01 142.11,191.7 143.02,204.35 143.93,217.01 144.84,191.7 145.75,204.35 146.66,191.7 147.57,204.35 148.48,204.35 149.39,217.01 150.3,204.35 151.21,204.35 152.12,217.01 153.04,191.7 153.95,191.7 154.86,179.04 155.77,191.7 156.68,191.7 157.59,204.35 158.5,204.35 159.41,217.01 160.32,191.7 161.23,217.01 162.14,217.01 163.05,179.04 163.96,217.01 164.87,217.01 165.78,204.35 166.69,204.35 167.6,204.35 168.51,204.35 169.42,191.7 170.33,179.04 171.25,191.7 172.16,204.35 173.07,191.7 173.98,217.01 174.89,179.04 175.8,217.01 176.71,204.35 177.62,179.04 178.53,217.01 179.44,204.35 180.35,191.7 181.26,204.35 182.17,204.35 183.08,217.01 183.99,191.7 184.9,204.35 185.81,204.35 186.72,204.35 187.63,217.01 188.55,204.35 189.46,204.35 190.37,179.04 191.28,191.7 192.19,204.35 193.1,217.01 194.01,204.35 194.92,217.01 195.83,204.35 196.74,217.01 197.65,204.35 198.56,179.04 199.47,217.01 200.38,191.7 201.29,204.35 202.2,217.01 203.11,204.35 204.02,191.7 204.93,191.7 205.84,204.35 206.76,191.7 207.67,204.35 208.58,166.38 209.49,204.35 210.4,191.7 211.31,217.01 212.22,204.35 213.13,204.35 214.04,179.04 214.95,179.04 215.86,217.01 216.77,217.01 217.68,204.35 218.59,204.35 219.5,217.01 220.41,179.04 221.32,204.35 222.23,179.04 223.14,217.01 224.05,217.01 224.97,204.35 225.88,204.35 226.79,191.7 227.7,179.04 228.61,217.01 229.52,217.01 230.43,217.01 231.34,191.7 232.25,204.35 233.16,191.7 234.07,204.35 234.98,217.01 235.89,204.35 236.8,191.7 237.71,191.7 238.62,204.35 239.53,204.35 240.44,204.35 241.35,191.7 242.26,217.01 243.18,204.35 244.09,179.04 245,204.35 245.91,204.35 246.82,217.01 247.73,217.01 248.64,204.35 249.55,191.7 250.46,179.04 251.37,191.7 252.28,204.35 253.19,204.35 254.1,217.01 255.01,204.35 255.92,191.7 256.83,217.01 257.74,217.01 258.65,191.7 259.56,204.35 260.47,217.01 261.39,179.04 262.3,217.01 263.21,204.35 264.12,217.01 265.03,179.04 265.94,217.01 266.85,217.01 267.76,204.35 268.67,191.7 269.58,179.04 270.49,204.35 271.4,217.01 272.31,204.35 273.22,191.7 274.13,191.7 275.04,204.35 275.95,204.35 276.86,191.7 277.77,217.01 278.68,191.7 279.6,191.7 280.51,191.7 281.42,204.35 282.33,204.35 283.24,217.01 284.15,217.01 285.06,204.35 285.97,179.04 286.88,191.7 287.79,217.01 288.7,179.04 289.61,191.7 290.52,204.35 291.43,204.35 292.34,204.35 293.25,217.01 294.16,204.35 295.07,191.7 295.98,204.35 296.89,204.35 297.81,204.35 298.72,204.35 299.63,217.01 300.54,217.01 301.45,204.35 302.36,191.7 303.27,191.7 304.18,204.35 305.09,191.7 306,204.35 306.91,204.35 307.82,217.01 308.73,191.7 309.64,204.35 310.55,217.01 311.46,204.35 312.37,191.7 313.28,204.35 314.19,191.7 315.1,204.35 316.02,229.67 316.93,204.35 317.84,217.01 318.75,191.7 319.66,204.35 320.57,217.01 321.48,204.35 322.39,204.35 323.3,191.7 324.21,191.7 325.12,191.7 326.03,204.35 326.94,204.35 327.85,217.01 328.76,179.04 329.67,179.04 330.58,217.01 331.49,191.7 332.4,191.7 333.31,191.7 334.23,204.35 335.14,204.35 336.05,217.01 336.96,217.01 337.87,179.04 338.78,179.04 339.69,217.01 340.6,217.01 341.51,204.35 342.42,204.35 343.33,191.7 344.24,204.35 345.15,217.01 346.06,191.7 346.97,191.7 347.88,204.35 348.79,204.35 349.7,217.01 350.61,179.04 351.52,204.35 352.44,204.35 353.35,191.7 354.26,204.35 355.17,191.7 356.08,204.35 356.99,204.35 357.9,204.35 358.81,217.01 359.72,217.01 360.63,217.01 361.54,204.35 362.45,179.04 363.36,204.35 364.27,204.35 365.18,191.7 366.09,191.7 367,191.7 367.91,191.7 368.82,204.35 369.74,204.35 370.65,204.35 371.56,204.35 372.47,217.01 373.38,191.7 374.29,217.01 375.2,217.01 376.11,217.01 377.02,204.35 377.93,204.35 378.84,191.7 379.75,204.35 380.66,204.35 381.57,191.7 382.48,204.35 383.39,204.35 384.3,204.35 385.21,204.35 386.12,217.01 387.03,204.35 387.95,217.01 388.86,204.35 389.77,204.35 390.68,204.35 391.59,204.35 392.5,217.01 393.41,217.01 394.32,179.04 395.23,217.01 396.14,204.35 397.05,191.7 397.96,191.7 398.87,191.7 399.78,191.7 400.69,217.01 401.6,179.04 402.51,217.01 403.42,204.35 404.33,204.35 405.24,217.01 406.16,191.7 407.07,217.01 407.98,204.35 408.89,191.7 409.8,191.7 410.71,204.35 411.62,191.7 412.53,204.35 413.44,204.35 414.35,191.7 415.26,204.35 416.17,204.35 417.08,191.7 417.99,204.35 418.9,217.01 419.81,179.04 420.72,204.35 421.63,204.35 422.54,204.35 423.45,217.01 424.37,204.35 425.28,191.7 426.19,204.35 427.1,217.01 428.01,217.01 428.92,217.01 429.83,204.35 430.74,204.35 431.65,204.35 432.56,217.01 433.47,179.04 434.38,191.7 435.29,204.35 436.2,217.01 437.11,191.7 438.02,179.04 438.93,204.35 439.84,179.04 440.75,204.35 441.66,191.7 442.58,217.01 443.49,217.01 444.4,204.35 445.31,204.35 446.22,204.35 447.13,204.35 448.04,191.7 448.95,204.35 449.86,191.7 450.77,191.7 451.68,179.04 452.59,204.35 453.5,204.35 454.41,217.01 455.32,217.01 456.23,217.01 457.14,204.35 458.05,191.7 458.96,191.7 459.87,179.04 460.79,191.7 461.7,204.35 462.61,191.7 463.52,217.01 464.43,217.01 465.34,191.7 466.25,204.35 467.16,191.7 468.07,217.01 468.98,217.01 469.89,204.35 470.8,191.7 471.71,191.7 472.62,204.35 473.53,217.01 474.44,204.35 475.35,191.7 476.26,217.01 477.17,217.01 478.08,204.35 479,191.7 479.91,204.35 480.82,191.7 481.73,204.35 482.64,204.35 483.55,179.04 484.46,191.7 485.37,204.35 486.28,217.01 487.19,204.35 488.1,204.35 489.01,217.01 489.92,204.35 490.83,191.7 491.74,191.7 492.65,217.01 493.56,204.35 494.47,217.01 495.38,204.35 496.29,191.7 497.21,191.7 498.12,217.01 499.03,217.01 499.94,217.01 500.85,179.04 501.76,204.35 502.67,204.35 503.58,217.01 504.49,204.35 505.4,191.7 506.31,204.35 507.22,217.01 508.13,191.7 509.04,179.04 509.95,179.04 510.86,204.35 511.77,217.01 512.68,204.35 513.59,217.01 514.5,191.7 515.42,166.38 516.33,204.35 517.24,217.01 518.15,191.7 519.06,204.35 519.97,191.7 520.88,217.01 521.79,204.35 522.7,191.7 523.61,191.7 524.52,191.7 525.43,179.04 526.34,204.35 527.25,217.01 528.16,229.67 529.07,191.7 529.98,204.35 530.89,179.04 531.8,191.7 532.71,191.7 533.63,217.01 534.54,204.35 535.45,204.35 536.36,204.35 537.27,217.01 538.18,204.35 539.09,204.35 540,217.01 540.91,204.35 541.82,217.01 542.73,217.01 543.64,204.35 544.55,204.35 545.46,204.35 546.37,191.7 547.28,217.01 " stroke="red" stroke-width="0.42132" />
<polyline points="92.942,84.855 93.853,74.349 94.763,72.956 95.674,86.881 96.584,70.677 97.495,73.589 98.405,76.247 99.316,76.247 100.23,79.918 101.14,85.108 102.05,76.88 102.96,79.792 103.87,69.158 104.78,72.956 105.69,68.146 106.6,75.868 107.51,80.931 108.42,73.842 109.33,73.083 110.24,90.425 111.15,77.007 112.06,76.88 112.97,72.829 113.88,66.88 114.79,85.235 115.7,82.197 116.62,80.551 117.53,74.349 118.44,86.374 119.35,77.26 120.26,72.576 121.17,67.386 122.08,71.564 122.99,75.235 123.9,80.551 124.81,69.032 125.72,74.222 126.63,76.5 127.54,86.248 128.45,76.88 129.36,72.703 130.27,77.26 131.18,75.488 132.09,77.387 133,78.652 133.91,73.462 134.83,77.513 135.74,83.589 136.65,72.703 137.56,76.5 138.47,80.045 139.38,77.133 140.29,85.362 141.2,77.766 142.11,81.058 143.02,68.525 143.93,87.514 144.84,74.855 145.75,78.399 146.66,76.88 147.57,77.007 148.48,69.412 149.39,70.804 150.3,72.829 151.21,80.931 152.12,69.665 153.04,77.893 153.95,75.488 154.86,74.095 155.77,75.488 156.68,76.121 157.59,84.349 158.5,77.766 159.41,85.995 160.32,78.273 161.23,93.21 162.14,77.26 163.05,77.893 163.96,71.943 164.87,82.324 165.78,89.159 166.69,75.994 167.6,79.918 168.51,82.45 169.42,73.969 170.33,72.829 171.25,81.184 172.16,79.285 173.07,69.538 173.98,85.488 174.89,74.475 175.8,78.526 176.71,64.981 177.62,74.475 178.53,77.133 179.44,80.551 180.35,79.159 181.26,73.716 182.17,82.324 183.08,80.045 183.99,78.526 184.9,83.083 185.81,76.121 186.72,73.716 187.63,79.665 188.55,74.981 189.46,70.931 190.37,78.526 191.28,75.741 192.19,84.349 193.1,82.577 194.01,77.133 194.92,82.703 195.83,79.032 196.74,84.729 197.65,91.691 198.56,75.741 199.47,70.298 200.38,75.741 201.29,78.906 202.2,89.919 203.11,82.45 204.02,80.425 204.93,74.855 205.84,81.184 206.76,75.741 207.67,85.362 208.58,68.525 209.49,77.893 210.4,80.045 211.31,77.513 212.22,77.766 213.13,81.058 214.04,80.425 214.95,77.007 215.86,84.096 216.77,75.868 217.68,70.045 218.59,70.298 219.5,78.273 220.41,78.273 221.32,79.285 222.23,73.589 223.14,76.5 224.05,77.766 224.97,88.653 225.88,84.096 226.79,66.5 227.7,74.349 228.61,81.944 229.52,77.893 230.43,84.349 231.34,73.842 232.25,75.361 233.16,76.374 234.07,88.906 234.98,77.26 235.89,80.931 236.8,85.235 237.71,77.26 238.62,80.931 239.53,76.754 240.44,83.463 241.35,73.589 242.26,89.033 243.18,71.057 244.09,80.172 245,76.121 245.91,76.247 246.82,79.792 247.73,66.88 248.64,84.729 249.55,75.868 250.46,80.172 251.37,82.83 252.28,80.678 253.19,75.488 254.1,90.045 255.01,68.019 255.92,77.64 256.83,78.906 257.74,79.412 258.65,79.665 259.56,75.614 260.47,66.88 261.39,81.817 262.3,72.197 263.21,78.652 264.12,69.791 265.03,77.26 265.94,72.829 266.85,73.842 267.76,76.247 268.67,71.31 269.58,81.817 270.49,82.83 271.4,76.121 272.31,67.513 273.22,67.513 274.13,74.981 275.04,82.197 275.95,85.362 276.86,76.5 277.77,80.172 278.68,81.311 279.6,77.766 280.51,67.513 281.42,80.172 282.33,80.298 283.24,78.146 284.15,83.083 285.06,86.628 285.97,78.652 286.88,73.462 287.79,75.741 288.7,73.969 289.61,67.639 290.52,75.741 291.43,69.412 292.34,77.133 293.25,82.956 294.16,78.146 295.07,70.931 295.98,85.488 296.89,74.728 297.81,78.146 298.72,80.804 299.63,77.513 300.54,83.463 301.45,75.614 302.36,75.108 303.27,79.918 304.18,88.4 305.09,70.677 306,84.349 306.91,71.69 307.82,81.184 308.73,74.222 309.64,74.728 310.55,86.754 311.46,75.361 312.37,73.462 313.28,74.475 314.19,74.602 315.1,79.539 316.02,82.83 316.93,72.956 317.84,78.399 318.75,73.336 319.66,80.678 320.57,69.918 321.48,86.501 322.39,84.222 323.3,82.956 324.21,73.969 325.12,64.095 326.03,77.007 326.94,81.058 327.85,70.804 328.76,68.019 329.67,71.184 330.58,75.108 331.49,68.779 332.4,77.893 333.31,79.032 334.23,83.969 335.14,75.868 336.05,73.589 336.96,80.045 337.87,75.108 338.78,72.323 339.69,78.779 340.6,74.855 341.51,86.121 342.42,67.513 343.33,87.514 344.24,84.349 345.15,86.374 346.06,72.703 346.97,73.716 347.88,82.83 348.79,76.627 349.7,78.652 350.61,75.614 351.52,68.525 352.44,68.272 353.35,80.678 354.26,77.007 355.17,73.462 356.08,77.64 356.99,78.906 357.9,76.627 358.81,75.868 359.72,87.514 360.63,87.387 361.54,84.096 362.45,73.842 363.36,80.551 364.27,75.994 365.18,71.69 366.09,74.981 367,74.602 367.91,69.412 368.82,80.678 369.74,77.766 370.65,75.235 371.56,76.121 372.47,77.893 373.38,80.551 374.29,77.766 375.2,78.526 376.11,72.956 377.02,77.766 377.93,78.906 378.84,78.02 379.75,79.285 380.66,83.716 381.57,71.817 382.48,72.197 383.39,75.361 384.3,76.374 385.21,71.437 386.12,94.349 387.03,79.665 387.95,78.652 388.86,76.374 389.77,71.817 390.68,80.298 391.59,70.677 392.5,78.652 393.41,69.918 394.32,74.475 395.23,79.159 396.14,75.868 397.05,79.285 397.96,75.741 398.87,73.969 399.78,71.817 400.69,77.26 401.6,69.538 402.51,85.488 403.42,77.766 404.33,76.121 405.24,71.817 406.16,87.134 407.07,81.564 407.98,80.678 408.89,62.069 409.8,84.602 410.71,82.703 411.62,75.868 412.53,81.311 413.44,70.298 414.35,82.45 415.26,87.64 416.17,71.184 417.08,79.792 417.99,89.412 418.9,81.058 419.81,70.171 420.72,77.64 421.63,69.791 422.54,81.691 423.45,80.045 424.37,74.222 425.28,69.538 426.19,77.007 427.1,76.754 428.01,87.767 428.92,86.374 429.83,80.425 430.74,75.741 431.65,89.539 432.56,83.083 433.47,75.235 434.38,67.893 435.29,76.121 436.2,81.437 437.11,66.88 438.02,67.133 438.93,81.058 439.84,76.88 440.75,80.551 441.66,80.298 442.58,83.21 443.49,80.551 444.4,84.222 445.31,78.02 446.22,80.298 447.13,80.045 448.04,84.222 448.95,71.69 449.86,75.741 450.77,72.197 451.68,75.108 452.59,81.437 453.5,77.893 454.41,86.881 455.32,85.741 456.23,81.311 457.14,77.133 458.05,76.627 458.96,83.083 459.87,80.425 460.79,80.425 461.7,74.222 462.61,72.703 463.52,84.096 464.43,85.868 465.34,80.678 466.25,73.589 467.16,70.171 468.07,72.323 468.98,78.146 469.89,81.437 470.8,72.576 471.71,69.412 472.62,81.817 473.53,63.209 474.44,81.437 475.35,68.272 476.26,82.197 477.17,71.31 478.08,68.525 479,88.02 479.91,85.108 480.82,74.728 481.73,79.792 482.64,76.88 483.55,77.766 484.46,69.032 485.37,83.589 486.28,81.817 487.19,82.577 488.1,81.691 489.01,74.602 489.92,89.666 490.83,85.362 491.74,76.5 492.65,86.754 493.56,73.589 494.47,80.298 495.38,85.235 496.29,76.754 497.21,78.273 498.12,87.767 499.03,86.628 499.94,79.159 500.85,79.539 501.76,72.197 502.67,69.665 503.58,86.628 504.49,83.21 505.4,80.931 506.31,84.855 507.22,81.311 508.13,81.564 509.04,72.323 509.95,75.614 510.86,81.817 511.77,82.577 512.68,67.513 513.59,83.716 514.5,80.298 515.42,73.083 516.33,74.222 517.24,82.703 518.15,68.652 519.06,73.589 519.97,74.475 520.88,73.589 521.79,81.691 522.7,78.906 523.61,78.146 524.52,76.627 525.43,70.171 526.34,84.982 527.25,69.918 528.16,73.589 529.07,70.677 529.98,83.336 530.89,77.007 531.8,71.564 532.71,73.083 533.63,68.399 534.54,74.602 535.45,81.311 536.36,80.931 537.27,80.551 538.18,75.614 539.09,78.779 540,79.918 540.91,75.235 541.82,78.399 542.73,79.285 543.64,88.653 544.55,74.095 545.46,83.716 546.37,64.981 547.28,72.703 " stroke="blue" stroke-width="0.42132" />
<line x1="570" y1="52.449" x2="566.84" y2="52.449" stroke-width="0.70588" />
<line x1="570" y1="58.778" x2="566.84" y2="58.778" stroke-width="0.70588" />
<line x1="570" y1="65.108" x2="566.84" y2="65.108" stroke-width="0.70588" />
<line x1="570" y1="71.437" x2="566.84" y2="71.437" stroke-width="0.70588" />
<line x1="570" y1="77.766" x2="566.84" y2="77.766" stroke-width="0.70588" />
<line x1="570" y1="84.096" x2="566.84" y2="84.096" stroke-width="0.70588" />
<line x1="570" y1="90.425" x2="566.84" y2="90.425" stroke-width="0.70588" />
<line x1="570" y1="96.755" x2="566.84" y2="96.755" stroke-width="0.70588" />
<line x1="570" y1="103.08" x2="566.84" y2="103.08" stroke-width="0.70588" />
<line x1="570" y1="109.41" x2="566.84" y2="109.41" stroke-width="0.70588" />
<line x1="570" y1="115.74" x2="566.84" y2="115.74" stroke-width="0.70588" />
<line x1="570" y1="122.07" x2="566.84" y2="122.07" stroke-width="0.70588" />
<line x1="570" y1="128.4" x2="566.84" y2="128.4" stroke-width="0.70588" />
<line x1="570" y1="134.73" x2="566.84" y2="134.73" stroke-width="0.70588" />
<line x1="570" y1="141.06" x2="566.84" y2="141.06" stroke-width="0.70588" />
<line x1="570" y1="147.39" x2="566.84" y2="147.39" stroke-width="0.70588" />
<line x1="570" y1="153.72" x2="566.84" y2="153.72" stroke-width="0.70588" />
<line x1="570" y1="160.05" x2="566.84" y2="160.05" stroke-width="0.70588" />
<line x1="570" y1="166.38" x2="566.84" y2="166.38" stroke-width="0.70588" />
<line x1="570" y1="172.71" x2="566.84" y2="172.71" stroke-width="0.70588" />
<line x1="570" y1="179.04" x2="566.84" y2="179.04" stroke-width="0.70588" />
<line x1="570" y1="185.37" x2="566.84" y2="185.37" stroke-width="0.70588" />
<line x1="570" y1="191.7" x2="566.84" y2="191.7" stroke-width="0.70588" />
<line x1="570" y1="198.02" x2="566.84" y2="198.02" stroke-width="0.70588" />
<line x1="570" y1="204.35" x2="566.84" y2="204.35" stroke-width="0.70588" />
<line x1="570" y1="210.68" x2="566.84" y2="210.68" stroke-width="0.70588" />
<line x1="570" y1="217.01" x2="566.84" y2="217.01" stroke-width="0.70588" />
<line x1="570" y1="223.34" x2="566.84" y2="223.34" stroke-width="0.70588" />
<line x1="570" y1="229.67" x2="566.84" y2="229.67" stroke-width="0.70588" />
<line x1="570" y1="236" x2="566.84" y2="236" stroke-width="0.70588" />
<line x1="570" y1="242.33" x2="566.84" y2="242.33" stroke-width="0.70588" />
<line x1="570" y1="248.66" x2="566.84" y2="248.66" stroke-width="0.70588" />
<line x1="570" y1="254.99" x2="566.84" y2="254.99" stroke-width="0.70588" />
<line x1="570" y1="261.32" x2="566.84" y2="261.32" stroke-width="0.70588" />
<line x1="570" y1="65.108" x2="563.68" y2="65.108" stroke-width="0.70588" />
<line x1="570" y1="90.425" x2="563.68" y2="90.425" stroke-width="0.70588" />
<line x1="570" y1="115.74" x2="563.68" y2="115.74" stroke-width="0.70588" />
<line x1="570" y1="141.06" x2="563.68" y2="141.06" stroke-width="0.70588" />
<line x1="570" y1="166.38" x2="563.68" y2="166.38" stroke-width="0.70588" />
<line x1="570" y1="191.7" x2="563.68" y2="191.7" stroke-width="0.70588" />
<line x1="570" y1="217.01" x2="563.68" y2="217.01" stroke-width="0.70588" />
<line x1="570" y1="242.33" x2="563.68" y2="242.33" stroke-width="0.70588" />
<line x1="570" y1="52.423" x2="570" y2="264.64" stroke-width="0.70588" />
<line x1="74.732" y1="264.64" x2="74.732" y2="261.48" stroke-width="0.70588" />
<line x1="92.942" y1="264.64" x2="92.942" y2="261.48" stroke-width="0.70588" />
<line x1="111.15" y1="264.64" x2="111.15" y2="261.48" stroke-width="0.70588" />
<line x1="129.36" y1="264.64" x2="129.36" y2="261.48" stroke-width="0.70588" />
<line x1="147.57" y1="264.64" x2="147.57" y2="261.48" stroke-width="0.70588" />
<line x1="165.78" y1="264.64" x2="165.78" y2="261.48" stroke-width="0.70588" />
<line x1="183.99" y1="264.64" x2="183.99" y2="261.48" stroke-width="0.70588" />
<line x1="202.2" y1="264.64" x2="202.2" y2="261.48" stroke-width="0.70588" />
<line x1="220.41" y1="264.64" x2="220.41" y2="261.48" stroke-width="0.70588" />
<line x1="238.62" y1="264.64" x2="238.62" y2="261.48" stroke-width="0.70588" />
<line x1="256.83" y1="264.64" x2="256.83" y2="261.48" stroke-width="0.70588" />
<line x1="275.04" y1="264.64" x2="275.04" y2="261.48" stroke-width="0.70588" />
<line x1="293.25" y1="264.64" x2="293.25" y2="261.48" stroke-width="0.70588" />
<line x1="311.46" y1="264.64" x2="311.46" y2="261.48" stroke-width="0.70588" />
<line x1="329.67" y1="264.64" x2="329.67" y2="261.48" stroke-width="0.70588" />
<line x1="347.88" y1="264.64" x2="347.88" y2="261.48" stroke-width="0.70588" />
<line x1="366.09" y1="264.64" x2="366.09" y2="261.48" stroke-width="0.70588" />
<line x1="384.3" y1="264.64" x2="384.3" y2="261.48" stroke-width="0.70588" />
<line x1="402.51" y1="264.64" x2="402.51" y2="261.48" stroke-width="0.70588" />
<line x1="420.72" y1="264.64" x2="420.72" y2="261.48" stroke-width="0.70588" />
<line x1="438.93" y1="264.64" x2="438.93" y2="261.48" stroke-width="0.70588" />
<line x1="457.14" y1="264.64" x2="457.14" y2="261.48" stroke-width="0.70588" />
<line x1="475.35" y1="264.64" x2="475.35" y2="261.48" stroke-width="0.70588" />
<line x1="493.56" y1="264.64" x2="493.56" y2="261.48" stroke-width="0.70588" />
<line x1="511.77" y1="264.64" x2="511.77" y2="261.48" stroke-width="0.70588" />
<line x1="529.98" y1="264.64" x2="529.98" y2="261.48" stroke-width="0.70588" />
<line x1="548.19" y1="264.64" x2="548.19" y2="261.48" stroke-width="0.70588" />
<line x1="566.4" y1="264.64" x2="566.4" y2="261.48" stroke-width="0.70588" />
<line x1="92.942" y1="264.64" x2="92.942" y2="258.32" stroke-width="0.70588" />
<line x1="183.99" y1="264.64" x2="183.99" y2="258.32" stroke-width="0.70588" />
<line x1="275.04" y1="264.64" x2="275.04" y2="258.32" stroke-width="0.70588" />
<line x1="366.09" y1="264.64" x2="366.09" y2="258.32" stroke-width="0.70588" />
<line x1="457.14" y1="264.64" x2="457.14" y2="258.32" stroke-width="0.70588" />
<line x1="548.19" y1="264.64" x2="548.19" y2="258.32" stroke-width="0.70588" />
<line x1="70.225" y1="264.64" x2="570" y2="264.64" stroke-width="0.70588" />
<line x1="70.225" y1="52.449" x2="73.385" y2="52.449" stroke-width="0.70588" />
<line x1="70.225" y1="58.778" x2="73.385" y2="58.778" stroke-width="0.70588" />
<line x1="70.225" y1="65.108" x2="73.385" y2="65.108" stroke-width="0.70588" />
<line x1="70.225" y1="71.437" x2="73.385" y2="71.437" stroke-width="0.70588" />
<line x1="70.225" y1="77.766" x2="73.385" y2="77.766" stroke-width="0.70588" />
<line x1="70.225" y1="84.096" x2="73.385" y2="84.096" stroke-width="0.70588" />
<line x1="70.225" y1="90.425" x2="73.385" y2="90.425" stroke-width="0.70588" />
<line x1="70.225" y1="96.755" x2="73.385" y2="96.755" stroke-width="0.70588" />
<line x1="70.225" y1="103.08" x2="73.385" y2="103.08" stroke-width="0.70588" />
<line x1="70.225" y1="109.41" x2="73.385" y2="109.41" stroke-width="0.70588" />
<line x1="70.225" y1="115.74" x2="73.385" y2="115.74" stroke-width="0.70588" />
<line x1="70.225" y1="122.07" x2="73.385" y2="122.07" stroke-width="0.70588" />
<line x1="70.225" y1="128.4" x2="73.385" y2="128.4" stroke-width="0.70588" />
<line x1="70.225" y1="134.73" x2="73.385" y2="134.73" stroke-width="0.70588" />
<line x1="70.225" y1="141.06" x2="73.385" y2="141.06" stroke-width="0.70588" />
<line x1="70.225" y1="147.39" x2="73.385" y2="147.39" stroke-width="0.70588" />
<line x1="70.225" y1="153.72" x2="73.385" y2="153.72" stroke-width="0.70588" />
<line x1="70.225" y1="160.05" x2="73.385" y2="160.05" stroke-width="0.70588" />
<line x1="70.225" y1="166.38" x2="73.385" y2="166.38" stroke-width="0.70588" />
<line x1="70.225" y1="172.71" x2="73.385" y2="172.71" stroke-width="0.70588" />
<line x1="70.225" y1="179.04" x2="73.385" y2="179.04" stroke-width="0.70588" />
<line x1="70.225" y1="185.37" x2="73.385" y2="185.37" stroke-width="0.70588" />
<line x1="70.225" y1="191.7" x2="73.385" y2="191.7" stroke-width="0.70588" />
<line x1="70.225" y1="198.02" x2="73.385" y2="198.02" stroke-width="0.70588" />
<line x1="70.225" y1="204.35" x2="73.385" y2="204.35" stroke-width="0.70588" />
<line x1="70.225" y1="210.68" x2="73.385" y2="210.68" stroke-width="0.70588" />
<line x1="70.225" y1="217.01" x2="73.385" y2="217.01" stroke-width="0.70588" />
<line x1="70.225" y1="223.34" x2="73.385" y2="223.34" stroke-width="0.70588" />
<line x1="70.225" y1="229.67" x2="73.385" y2="229.67" stroke-width="0.70588" />
<line x1="70.225" y1="236" x2="73.385" y2="236" stroke-width="0.70588" />
<line x1="70.225" y1="242.33" x2="73.385" y2="242.33" stroke-width="0.70588" />
<line x1="70.225" y1="248.66" x2="73.385" y2="248.66" stroke-width="0.70588" />
<line x1="70.225" y1="254.99" x2="73.385" y2="254.99" stroke-width="0.70588" />
<line x1="70.225" y1="261.32" x2="73.385" y2="261.32" stroke-width="0.70588" />
<line x1="70.225" y1="65.108" x2="76.545" y2="65.108" stroke-width="0.70588" />
<line x1="70.225" y1="90.425" x2="76.545" y2="90.425" stroke-width="0.70588" />
<line x1="70.225" y1="115.74" x2="76.545" y2="115.74" stroke-width="0.70588" />
<line x1="70.225" y1="141.06" x2="76.545" y2="141.06" stroke-width="0.70588" />
<line x1="70.225" y1="166.38" x2="76.545" y2="166.38" stroke-width="0.70588" />
<line x1="70.225" y1="191.7" x2="76.545" y2="191.7" stroke-width="0.70588" />
<line x1="70.225" y1="217.01" x2="76.545" y2="217.01" stroke-width="0.70588" />
<line x1="70.225" y1="242.33" x2="76.545" y2="242.33" stroke-width="0.70588" />
<line x1="70.225" y1="52.423" x2="70.225" y2="264.64" stroke-width="0.70588" />
<polygon points="59.309,69.704 58.16,69.321 57.777,68.555 57.777,67.789 58.16,67.023 58.926,66.64 60.458,66.257 61.607,65.874 62.373,65.108 62.756,64.342 62.756,63.192 62.373,62.426 61.99,62.043 60.841,61.66 59.309,61.66 58.16,62.043 57.777,62.426 57.394,63.192 57.394,64.342 57.777,65.108 58.543,65.874 59.692,66.257 61.224,66.64 61.99,67.023 62.373,67.789 62.373,68.555 61.99,69.321 60.841,69.704 " stroke-width="0.54389" stroke-linejoin="round" />
<polyline points="50.883,93.489 51.649,93.872 52.798,95.021 52.798,86.978 " stroke-width="0.54389" stroke-linecap="round" stroke-linejoin="round" />
<polygon points="59.692,95.021 58.543,94.638 57.777,93.489 57.394,91.574 57.394,90.425 57.777,88.51 58.543,87.361 59.692,86.978 60.458,86.978 61.607,87.361 62.373,88.51 62.756,90.425 62.756,91.574 62.373,93.489 61.607,94.638 60.458,95.021 " stroke-width="0.54389" stroke-linejoin="round" />
<polyline points="50.883,118.81 51.649,119.19 52.798,120.34 52.798,112.3 " stroke-width="0.54389" stroke-linecap="round" stroke-linejoin="round" />
<polyline points="57.777,118.42 57.777,118.81 58.16,119.57 58.543,119.96 59.309,120.34 60.841,120.34 61.607,119.96 61.99,119.57 62.373,118.81 62.373,118.04 61.99,117.27 61.224,116.13 57.394,112.3 62.756,112.3 " stroke-width="0.54389" stroke-linecap="round" stroke-linejoin="round" />
<polyline points="50.883,144.12 51.649,144.51 52.798,145.66 52.798,137.61 " stroke-width="0.54389" stroke-linecap="round" stroke-linejoin="round" />
<polyline points="61.224,145.66 57.394,140.29 63.139,140.29 " stroke-width="0.54389" stroke-linecap="round" stroke-linejoin="round" />
<line x1="61.224" y1="145.66" x2="61.224" y2="137.61" stroke-width="0.54389" stroke-linecap="round" />
<polyline points="50.883,169.44 51.649,169.83 52.798,170.97 52.798,162.93 " stroke-width="0.54389" stroke-linecap="round" stroke-linejoin="round" />
<polyline points="62.373,169.83 61.99,170.59 60.841,170.97 60.075,170.97 58.926,170.59 58.16,169.44 57.777,167.53 57.777,165.61 58.16,164.08 58.926,163.31 60.075,162.93 60.458,162.93 61.607,163.31 62.373,164.08 62.756,165.23 62.756,165.61 62.373,166.76 61.607,167.53 60.458,167.91 60.075,167.91 58.926,167.53 58.16,166.76 57.777,165.61 " stroke-width="0.54389" stroke-linecap="round" stroke-linejoin="round" />
<polyline points="50.883,194.76 51.649,195.14 52.798,196.29 52.798,188.25 " stroke-width="0.54389" stroke-linecap="round" stroke-linejoin="round" />
<polygon points="59.309,196.29 58.16,195.91 57.777,195.14 57.777,194.38 58.16,193.61 58.926,193.23 60.458,192.84 61.607,192.46 62.373,191.7 62.756,190.93 62.756,189.78 62.373,189.01 61.99,188.63 60.841,188.25 59.309,188.25 58.16,188.63 57.777,189.01 57.394,189.78 57.394,190.93 57.777,191.7 58.543,192.46 59.692,192.84 61.224,193.23 61.99,193.61 62.373,194.38 62.373,195.14 61.99,195.91 60.841,196.29 " stroke-width="0.54389" stroke-linejoin="round" />
<polyline points="50.117,219.69 50.117,220.08 50.5,220.84 50.883,221.23 51.649,221.61 53.181,221.61 53.947,221.23 54.33,220.84 54.713,220.08 54.713,219.31 54.33,218.55 53.564,217.4 49.734,213.57 55.096,213.57 " stroke-width="0.54389" stroke-linecap="round" stroke-linejoin="round" />
<polygon points="59.692,221.61 58.543,221.23 57.777,220.08 57.394,218.16 57.394,217.01 57.777,215.1 58.543,213.95 59.692,213.57 60.458,213.57 61.607,213.95 62.373,215.1 62.756,217.01 62.756,218.16 62.373,220.08 61.607,221.23 60.458,221.61 " stroke-width="0.54389" stroke-linejoin="round" />
<polyline points="50.117,245.01 50.117,245.39 50.5,246.16 50.883,246.54 51.649,246.93 53.181,246.93 53.947,246.54 54.33,246.16 54.713,245.39 54.713,244.63 54.33,243.86 53.564,242.71 49.734,238.88 55.096,238.88 " stroke-width="0.54389" stroke-linecap="round" stroke-linejoin="round" />
<polyline points="57.777,245.01 57.777,245.39 58.16,246.16 58.543,246.54 59.309,246.93 60.841,246.93 61.607,246.54 61.99,246.16 62.373,245.39 62.373,244.63 61.99,243.86 61.224,242.71 57.394,238.88 62.756,238.88 " stroke-width="0.54389" stroke-linecap="round" stroke-linejoin="round" />
<line x1="33.455" y1="139.19" x2="41.499" y2="139.19" stroke-width="0.54389" stroke-linecap="round" />
<line x1="33.455" y1="139.19" x2="33.455" y2="144.17" stroke-width="0.54389" stroke-linecap="round" />
<line x1="37.285" y1="139.19" x2="37.285" y2="142.25" stroke-width="0.54389" stroke-linecap="round" />
<polygon points="33.455,145.7 33.838,146.08 33.455,146.46 33.072,146.08 " stroke-width="0.54389" stroke-linejoin="round" />
<line x1="36.136" y1="146.08" x2="41.499" y2="146.08" stroke-width="0.54389" stroke-linecap="round" />
<polyline points="33.455,149.53 39.966,149.53 41.116,149.91 41.499,150.68 41.499,151.44 " stroke-width="0.54389" stroke-linecap="round" stroke-linejoin="round" />
<line x1="36.136" y1="148.38" x2="36.136" y2="151.06" stroke-width="0.54389" stroke-linecap="round" />
<line x1="36.136" y1="153.74" x2="41.499" y2="153.74" stroke-width="0.54389" stroke-linecap="round" />
<polyline points="37.668,153.74 36.519,154.89 36.136,155.66 36.136,156.81 36.519,157.57 37.668,157.95 41.499,157.95 " stroke-width="0.54389" stroke-linecap="round" stroke-linejoin="round" />
<polyline points="38.434,160.64 38.434,165.23 37.668,165.23 36.902,164.85 36.519,164.47 36.136,163.7 36.136,162.55 36.519,161.79 37.285,161.02 38.434,160.64 39.2,160.64 40.349,161.02 41.116,161.79 41.499,162.55 41.499,163.7 41.116,164.47 40.349,165.23 " stroke-width="0.54389" stroke-linecap="round" stroke-linejoin="round" />
<polyline points="37.285,171.74 36.519,171.36 36.136,170.21 36.136,169.06 36.519,167.91 37.285,167.53 38.051,167.91 38.434,168.68 38.817,170.59 39.2,171.36 39.966,171.74 40.349,171.74 41.116,171.36 41.499,170.21 41.499,169.06 41.116,167.91 40.349,167.53 " stroke-width="0.54389" stroke-linecap="round" stroke-linejoin="round" />
<polyline points="37.285,178.26 36.519,177.87 36.136,176.72 36.136,175.57 36.519,174.42 37.285,174.04 38.051,174.42 38.434,175.19 38.817,177.11 39.2,177.87 39.966,178.26 40.349,178.26 41.116,177.87 41.499,176.72 41.499,175.57 41.116,174.42 40.349,174.04 " stroke-width="0.54389" stroke-linecap="round" stroke-linejoin="round" />
<line x1="74.732" y1="52.423" x2="74.732" y2="55.583" stroke-width="0.70588" />
<line x1="92.942" y1="52.423" x2="92.942" y2="55.583" stroke-width="0.70588" />
<line x1="111.15" y1="52.423" x2="111.15" y2="55.583" stroke-width="0.70588" />
<line x1="129.36" y1="52.423" x2="129.36" y2="55.583" stroke-width="0.70588" />
<line x1="147.57" y1="52.423" x2="147.57" y2="55.583" stroke-width="0.70588" />
<line x1="165.78" y1="52.423" x2="165.78" y2="55.583" stroke-width="0.70588" />
<line x1="183.99" y1="52.423" x2="183.99" y2="55.583" stroke-width="0.70588" />
<line x1="202.2" y1="52.423" x2="202.2" y2="55.583" stroke-width="0.70588" />
<line x1="220.41" y1="52.423" x2="220.41" y2="55.583" stroke-width="0.70588" />
<line x1="238.62" y1="52.423" x2="238.62" y2="55.583" stroke-width="0.70588" />
<line x1="256.83" y1="52.423" x2="256.83" y2="55.583" stroke-width="0.70588" />
<line x1="275.04" y1="52.423" x2="275.04" y2="55.583" stroke-width="0.70588" />
<line x1="293.25" y1="52.423" x2="293.25" y2="55.583" stroke-width="0.70588" />
<line x1="311.46" y1="52.423" x2="311.46" y2="55.583" stroke-width="0.70588" />
<line x1="329.67" y1="52.423" x2="329.67" y2="55.583" stroke-width="0.70588" />
<line x1="347.88" y1="52.423" x2="347.88" y2="55.583" stroke-width="0.70588" />
<line x1="366.09" y1="52.423" x2="366.09" y2="55.583" stroke-width="0.70588" />
<line x1="384.3" y1="52.423" x2="384.3" y2="55.583" stroke-width="0.70588" />
<line x1="402.51" y1="52.423" x2="402.51" y2="55.583" stroke-width="0.70588" />
<line x1="420.72" y1="52.423" x2="420.72" y2="55.583" stroke-width="0.70588" />
<line x1="438.93" y1="52.423" x2="438.93" y2="55.583" stroke-width="0.70588" />
<line x1="457.14" y1="52.423" x2="457.14" y2="55.583" stroke-width="0.70588" />
<line x1="475.35" y1="52.423" x2="475.35" y2="55.583" stroke-width="0.70588" />
<line x1="493.56" y1="52.423" x2="493.56" y2="55.583" stroke-width="0.70588" />
<line x1="511.77" y1="52.423" x2="511.77" y2="55.583" stroke-width="0.70588" />
<line x1="529.98" y1="52.423" x2="529.98" y2="55.583" stroke-width="0.70588" />
<line x1="548.19" y1="52.423" x2="548.19" y2="55.583" stroke-width="0.70588" />
<line x1="566.4" y1="52.423" x2="566.4" y2="55.583" stroke-width="0.70588" />
<line x1="92.942" y1="52.423" x2="92.942" y2="58.743" stroke-width="0.70588" />
<line x1="183.99" y1="52.423" x2="183.99" y2="58.743" stroke-width="0.70588" />
<line x1="275.04" y1="52.423" x2="275.04" y2="58.743" stroke-width="0.70588" />
<line x1="366.09" y1="52.423" x2="366.09" y2="58.743" stroke-width="0.70588" />
<line x1="457.14" y1="52.423" x2="457.14" y2="58.743" stroke-width="0.70588" />
<line x1="548.19" y1="52.423" x2="548.19" y2="58.743" stroke-width="0.70588" />
<line x1="70.225" y1="52.423" x2="570" y2="52.423" stroke-width="0.70588" />
<polygon points="92.559,44.38 91.41,43.997 90.644,42.848 90.261,40.933 90.261,39.784 90.644,37.869 91.41,36.72 92.559,36.337 93.325,36.337 94.474,36.72 95.24,37.869 95.623,39.784 95.623,40.933 95.24,42.848 94.474,43.997 93.325,44.38 " stroke-width="0.54389" stroke-linejoin="round" />
<polyline points="174.8,42.848 175.57,43.231 176.72,44.38 176.72,36.337 " stroke-width="0.54389" stroke-linecap="round" stroke-linejoin="round" />
<polygon points="183.61,44.38 182.46,43.997 181.69,42.848 181.31,40.933 181.31,39.784 181.69,37.869 182.46,36.72 183.61,36.337 184.38,36.337 185.52,36.72 186.29,37.869 186.67,39.784 186.67,40.933 186.29,42.848 185.52,43.997 184.38,44.38 " stroke-width="0.54389" stroke-linejoin="round" />
<polygon points="191.27,44.38 190.12,43.997 189.35,42.848 188.97,40.933 188.97,39.784 189.35,37.869 190.12,36.72 191.27,36.337 192.04,36.337 193.19,36.72 193.95,37.869 194.33,39.784 194.33,40.933 193.95,42.848 193.19,43.997 192.04,44.38 " stroke-width="0.54389" stroke-linejoin="round" />
<polyline points="265.08,42.465 265.08,42.848 265.47,43.614 265.85,43.997 266.62,44.38 268.15,44.38 268.91,43.997 269.3,43.614 269.68,42.848 269.68,42.082 269.3,41.316 268.53,40.167 264.7,36.337 270.06,36.337 " stroke-width="0.54389" stroke-linecap="round" stroke-linejoin="round" />
<polygon points="274.66,44.38 273.51,43.997 272.74,42.848 272.36,40.933 272.36,39.784 272.74,37.869 273.51,36.72 274.66,36.337 275.43,36.337 276.57,36.72 277.34,37.869 277.72,39.784 277.72,40.933 277.34,42.848 276.57,43.997 275.43,44.38 " stroke-width="0.54389" stroke-linejoin="round" />
<polygon points="282.32,44.38 281.17,43.997 280.41,42.848 280.02,40.933 280.02,39.784 280.41,37.869 281.17,36.72 282.32,36.337 283.09,36.337 284.24,36.72 285,37.869 285.38,39.784 285.38,40.933 285,42.848 284.24,43.997 283.09,44.38 " stroke-width="0.54389" stroke-linejoin="round" />
<polyline points="356.52,44.38 360.73,44.38 358.43,41.316 359.58,41.316 360.35,40.933 360.73,40.55 361.11,39.401 361.11,38.635 360.73,37.486 359.96,36.72 358.82,36.337 357.67,36.337 356.52,36.72 356.13,37.103 355.75,37.869 " stroke-width="0.54389" stroke-linecap="round" stroke-linejoin="round" />
<polygon points="365.71,44.38 364.56,43.997 363.79,42.848 363.41,40.933 363.41,39.784 363.79,37.869 364.56,36.72 365.71,36.337 366.48,36.337 367.63,36.72 368.39,37.869 368.77,39.784 368.77,40.933 368.39,42.848 367.63,43.997 366.48,44.38 " stroke-width="0.54389" stroke-linejoin="round" />
<polygon points="373.37,44.38 372.22,43.997 371.46,42.848 371.07,40.933 371.07,39.784 371.46,37.869 372.22,36.72 373.37,36.337 374.14,36.337 375.29,36.72 376.05,37.869 376.43,39.784 376.43,40.933 376.05,42.848 375.29,43.997 374.14,44.38 " stroke-width="0.54389" stroke-linejoin="round" />
<polyline points="450.63,44.38 446.8,39.018 452.55,39.018 " stroke-width="0.54389" stroke-linecap="round" stroke-linejoin="round" />
<line x1="450.63" y1="44.38" x2="450.63" y2="36.337" stroke-width="0.54389" stroke-linecap="round" />
<polygon points="456.76,44.38 455.61,43.997 454.85,42.848 454.46,40.933 454.46,39.784 454.85,37.869 455.61,36.72 456.76,36.337 457.53,36.337 458.68,36.72 459.44,37.869 459.82,39.784 459.82,40.933 459.44,42.848 458.68,43.997 457.53,44.38 " stroke-width="0.54389" stroke-linejoin="round" />
<polygon points="464.42,44.38 463.27,43.997 462.51,42.848 462.12,40.933 462.12,39.784 462.51,37.869 463.27,36.72 464.42,36.337 465.19,36.337 466.34,36.72 467.1,37.869 467.48,39.784 467.48,40.933 467.1,42.848 466.34,43.997 465.19,44.38 " stroke-width="0.54389" stroke-linejoin="round" />
<polyline points="542.45,44.38 538.62,44.38 538.23,40.933 538.62,41.316 539.77,41.699 540.92,41.699 542.07,41.316 542.83,40.55 543.21,39.401 543.21,38.635 542.83,37.486 542.07,36.72 540.92,36.337 539.77,36.337 538.62,36.72 538.23,37.103 537.85,37.869 " stroke-width="0.54389" stroke-linecap="round" stroke-linejoin="round" />
<polygon points="547.81,44.38 546.66,43.997 545.9,42.848 545.51,40.933 545.51,39.784 545.9,37.869 546.66,36.72 547.81,36.337 548.58,36.337 549.73,36.72 550.49,37.869 550.87,39.784 550.87,40.933 550.49,42.848 549.73,43.997 548.58,44.38 " stroke-width="0.54389" stroke-linejoin="round" />
<polygon points="555.47,44.38 554.32,43.997 553.56,42.848 553.17,40.933 553.17,39.784 553.56,37.869 554.32,36.72 555.47,36.337 556.24,36.337 557.39,36.72 558.15,37.869 558.54,39.784 558.54,40.933 558.15,42.848 557.39,43.997 556.24,44.38 " stroke-width="0.54389" stroke-linejoin="round" />
<polyline points="291.96,25.612 291.58,26.378 290.81,27.144 290.05,27.527 288.51,27.527 287.75,27.144 286.98,26.378 286.6,25.612 286.22,24.463 286.22,22.548 286.6,21.399 286.98,20.633 287.75,19.867 288.51,19.484 290.05,19.484 290.81,19.867 291.58,20.633 291.96,21.399 291.96,22.548 " stroke-width="0.54389" stroke-linecap="round" stroke-linejoin="round" />
<line x1="290.05" y1="22.548" x2="291.96" y2="22.548" stroke-width="0.54389" stroke-linecap="round" />
<polyline points="294.26,22.548 298.85,22.548 298.85,23.314 298.47,24.08 298.09,24.463 297.32,24.846 296.17,24.846 295.41,24.463 294.64,23.697 294.26,22.548 294.26,21.782 294.64,20.633 295.41,19.867 296.17,19.484 297.32,19.484 298.09,19.867 298.85,20.633 " stroke-width="0.54389" stroke-linecap="round" stroke-linejoin="round" />
<line x1="301.54" y1="24.846" x2="301.54" y2="19.484" stroke-width="0.54389" stroke-linecap="round" />
<polyline points="301.54,23.314 302.69,24.463 303.45,24.846 304.6,24.846 305.37,24.463 305.75,23.314 305.75,19.484 " stroke-width="0.54389" stroke-linecap="round" stroke-linejoin="round" />
<polyline points="308.43,22.548 313.03,22.548 313.03,23.314 312.64,24.08 312.26,24.463 311.49,24.846 310.35,24.846 309.58,24.463 308.81,23.697 308.43,22.548 308.43,21.782 308.81,20.633 309.58,19.867 310.35,19.484 311.49,19.484 312.26,19.867 313.03,20.633 " stroke-width="0.54389" stroke-linecap="round" stroke-linejoin="round" />
<line x1="315.71" y1="24.846" x2="315.71" y2="19.484" stroke-width="0.54389" stroke-linecap="round" />
<polyline points="315.71,22.548 316.09,23.697 316.86,24.463 317.62,24.846 318.77,24.846 " stroke-width="0.54389" stroke-linecap="round" stroke-linejoin="round" />
<line x1="324.9" y1="24.846" x2="324.9" y2="19.484" stroke-width="0.54389" stroke-linecap="round" />
<polyline points="324.9,23.697 324.13,24.463 323.37,24.846 322.22,24.846 321.45,24.463 320.69,23.697 320.3,22.548 320.3,21.782 320.69,20.633 321.45,19.867 322.22,19.484 323.37,19.484 324.13,19.867 324.9,20.633 " stroke-width="0.54389" stroke-linecap="round" stroke-linejoin="round" />
<polyline points="328.35,27.527 328.35,21.016 328.73,19.867 329.5,19.484 330.26,19.484 " stroke-width="0.54389" stroke-linecap="round" stroke-linejoin="round" />
<line x1="327.2" y1="24.846" x2="329.88" y2="24.846" stroke-width="0.54389" stroke-linecap="round" />
<polygon points="332.18,27.527 332.56,27.144 332.94,27.527 332.56,27.91 " stroke-width="0.54389" stroke-linejoin="round" />
<line x1="332.56" y1="24.846" x2="332.56" y2="19.484" stroke-width="0.54389" stroke-linecap="round" />
<polygon points="337.16,24.846 336.39,24.463 335.63,23.697 335.24,22.548 335.24,21.782 335.63,20.633 336.39,19.867 337.16,19.484 338.31,19.484 339.07,19.867 339.84,20.633 340.22,21.782 340.22,22.548 339.84,23.697 339.07,24.463 338.31,24.846 " stroke-width="0.54389" stroke-linejoin="round" />
<line x1="342.9" y1="24.846" x2="342.9" y2="19.484" stroke-width="0.54389" stroke-linecap="round" />
<polyline points="342.9,23.314 344.05,24.463 344.82,24.846 345.97,24.846 346.73,24.463 347.12,23.314 347.12,19.484 " stroke-width="0.54389" stroke-linecap="round" stroke-linejoin="round" />
<polyline points="354.01,23.697 353.63,24.463 352.48,24.846 351.33,24.846 350.18,24.463 349.8,23.697 350.18,22.931 350.95,22.548 352.86,22.165 353.63,21.782 354.01,21.016 354.01,20.633 353.63,19.867 352.48,19.484 351.33,19.484 350.18,19.867 349.8,20.633 " stroke-width="0.54389" stroke-linecap="round" stroke-linejoin="round" />
</g>
</svg>
