<?xml version="1.0" encoding="ISO-8859-1" standalone="no"?>
<!DOCTYPE svg PUBLIC "-//W3C//DTD SVG 1.1//EN" "http://www.w3.org/Graphics/SVG/1.1/DTD/svg11.dtd">
<svg version="1.1" baseProfile="full" id="body" width="8in" height="8in" viewBox="0 0 1 1" preserveAspectRatio="none" xmlns="http://www.w3.org/2000/svg" xmlns:xlink="http://www.w3.org/1999/xlink" xmlns:ev="http://www.w3.org/2001/xml-events">
<title>SVG drawing</title>
<desc>This was produced by version 4.4 of GNU libplot, a free library for exporting 2-D vector graphics.</desc>
<rect id="background" x="0" y="0" width="1" height="1" stroke="none" fill="white"/>
<g id="content" transform="translate(0,1) scale(0.0016667,-0.0033333) " xml:space="preserve" stroke="black" stroke-linecap="butt" stroke-linejoin="miter" stroke-miterlimit="10.433" stroke-dasharray="none" stroke-dashoffset="0" stroke-opacity="1" fill="none" fill-rule="evenodd" fill-opacity="1" font-style="normal" font-variant="normal" font-weight="normal" font-stretch="normal" font-size-adjust="none" letter-spacing="normal" word-spacing="normal" text-anchor="start">
<line x1="206.35" y1="279.76" x2="206.35" y2="271.72" stroke-width="0.54389" stroke-linecap="round" />
<polyline points="206.35,279.76 209.8,279.76 210.95,279.38 211.33,279 211.72,278.23 211.72,277.08 211.33,276.32 210.95,275.93 209.8,275.55 206.35,275.55 " stroke-width="0.54389" stroke-linecap="round" stroke-linejoin="round" />
<polygon points="215.93,277.08 215.16,276.7 214.4,275.93 214.02,274.79 214.02,274.02 214.4,272.87 215.16,272.1 215.93,271.72 217.08,271.72 217.85,272.1 218.61,272.87 218.99,274.02 218.99,274.79 218.61,275.93 217.85,276.7 217.08,277.08 " stroke-width="0.54389" stroke-linejoin="round" />
<line x1="221.68" y1="277.08" x2="221.68" y2="269.04" stroke-width="0.54389" stroke-linecap="round" />
<polyline points="221.68,275.93 222.44,276.7 223.21,277.08 224.36,277.08 225.12,276.7 225.89,275.93 226.27,274.79 226.27,274.02 225.89,272.87 225.12,272.1 224.36,271.72 223.21,271.72 222.44,272.1 221.68,272.87 " stroke-width="0.54389" stroke-linecap="round" stroke-linejoin="round" />
<polyline points="228.95,277.08 228.95,273.25 229.34,272.1 230.1,271.72 231.25,271.72 232.02,272.1 233.17,273.25 " stroke-width="0.54389" stroke-linecap="round" stroke-linejoin="round" />
<line x1="233.17" y1="277.08" x2="233.17" y2="271.72" stroke-width="0.54389" stroke-linecap="round" />
<line x1="236.23" y1="279.76" x2="236.23" y2="271.72" stroke-width="0.54389" stroke-linecap="round" />
<line x1="243.51" y1="277.08" x2="243.51" y2="271.72" stroke-width="0.54389" stroke-linecap="round" />
<polyline points="243.51,275.93 242.74,276.7 241.98,277.08 240.83,277.08 240.06,276.7 239.29,275.93 238.91,274.79 238.91,274.02 239.29,272.87 240.06,272.1 240.83,271.72 241.98,271.72 242.74,272.1 243.51,272.87 " stroke-width="0.54389" stroke-linecap="round" stroke-linejoin="round" />
<polyline points="246.96,279.76 246.96,273.25 247.34,272.1 248.1,271.72 248.87,271.72 " stroke-width="0.54389" stroke-linecap="round" stroke-linejoin="round" />
<line x1="245.81" y1="277.08" x2="248.49" y2="277.08" stroke-width="0.54389" stroke-linecap="round" />
<polygon points="250.79,279.76 251.17,279.38 251.55,279.76 251.17,280.15 " stroke-width="0.54389" stroke-linejoin="round" />
<line x1="251.17" y1="277.08" x2="251.17" y2="271.72" stroke-width="0.54389" stroke-linecap="round" />
<polyline points="255.76,277.08 255,276.7 254.23,275.93 253.85,274.79 253.85,274.02 254.23,272.87 255,272.1 255.76,271.72 256.91,271.72 257.68,272.1 258.45,272.87 258.83,274.02 258.83,274.79 258.45,275.93 257.68,276.7 256.91,277.08 255.76,277.08 " stroke-width="0.54389" stroke-linecap="round" stroke-linejoin="round" />
<line x1="261.51" y1="277.08" x2="261.51" y2="271.72" stroke-width="0.54389" stroke-linecap="round" />
<polyline points="261.51,275.55 262.66,276.7 263.43,277.08 264.57,277.08 265.34,276.7 265.72,275.55 265.72,271.72 " stroke-width="0.54389" stroke-linecap="round" stroke-linejoin="round" />
<polyline points="269.17,279 268.79,279.38 269.17,279.76 269.55,279.38 269.55,278.62 269.17,277.85 268.79,277.47 " stroke-width="0.54389" stroke-linecap="round" stroke-linejoin="round" />
<polyline points="276.45,275.93 276.07,276.7 274.92,277.08 273.77,277.08 272.62,276.7 272.23,275.93 272.62,275.17 273.38,274.79 275.3,274.4 276.07,274.02 276.45,273.25 276.45,272.87 276.07,272.1 274.92,271.72 273.77,271.72 272.62,272.1 272.23,272.87 " stroke-width="0.54389" stroke-linecap="round" stroke-linejoin="round" />
<line x1="289.47" y1="277.08" x2="289.47" y2="271.72" stroke-width="0.54389" stroke-linecap="round" />
<polyline points="289.47,275.93 288.7,276.7 287.94,277.08 286.79,277.08 286.02,276.7 285.26,275.93 284.87,274.79 284.87,274.02 285.26,272.87 286.02,272.1 286.79,271.72 287.94,271.72 288.7,272.1 289.47,272.87 " stroke-width="0.54389" stroke-linecap="round" stroke-linejoin="round" />
<line x1="291.77" y1="277.08" x2="294.07" y2="271.72" stroke-width="0.54389" stroke-linecap="round" />
<line x1="296.37" y1="277.08" x2="294.07" y2="271.72" stroke-width="0.54389" stroke-linecap="round" />
<polyline points="298.28,274.79 302.88,274.79 302.88,275.55 302.49,276.32 302.11,276.7 301.34,277.08 300.2,277.08 299.43,276.7 298.66,275.93 298.28,274.79 298.28,274.02 298.66,272.87 299.43,272.1 300.2,271.72 301.34,271.72 302.11,272.1 302.88,272.87 " stroke-width="0.54389" stroke-linecap="round" stroke-linejoin="round" />
<line x1="305.56" y1="277.08" x2="305.56" y2="271.72" stroke-width="0.54389" stroke-linecap="round" />
<polyline points="305.56,274.79 305.94,275.93 306.71,276.7 307.47,277.08 308.62,277.08 " stroke-width="0.54389" stroke-linecap="round" stroke-linejoin="round" />
<line x1="314.75" y1="277.08" x2="314.75" y2="271.72" stroke-width="0.54389" stroke-linecap="round" />
<polyline points="314.75,275.93 313.98,276.7 313.22,277.08 312.07,277.08 311.3,276.7 310.54,275.93 310.15,274.79 310.15,274.02 310.54,272.87 311.3,272.1 312.07,271.72 313.22,271.72 313.98,272.1 314.75,272.87 " stroke-width="0.54389" stroke-linecap="round" stroke-linejoin="round" />
<polyline points="322.03,277.08 322.03,270.96 321.64,269.81 321.26,269.42 320.5,269.04 319.35,269.04 318.58,269.42 " stroke-width="0.54389" stroke-linecap="round" stroke-linejoin="round" />
<polyline points="322.03,275.93 321.26,276.7 320.5,277.08 319.35,277.08 318.58,276.7 317.81,275.93 317.43,274.79 317.43,274.02 317.81,272.87 318.58,272.1 319.35,271.72 320.5,271.72 321.26,272.1 322.03,272.87 " stroke-width="0.54389" stroke-linecap="round" stroke-linejoin="round" />
<polyline points="324.71,274.79 329.31,274.79 329.31,275.55 328.92,276.32 328.54,276.7 327.77,277.08 326.62,277.08 325.86,276.7 325.09,275.93 324.71,274.79 324.71,274.02 325.09,272.87 325.86,272.1 326.62,271.72 327.77,271.72 328.54,272.1 329.31,272.87 " stroke-width="0.54389" stroke-linecap="round" stroke-linejoin="round" />
<line x1="342.33" y1="277.08" x2="342.33" y2="271.72" stroke-width="0.54389" stroke-linecap="round" />
<polyline points="342.33,275.93 341.56,276.7 340.8,277.08 339.65,277.08 338.88,276.7 338.11,275.93 337.73,274.79 337.73,274.02 338.11,272.87 338.88,272.1 339.65,271.72 340.8,271.72 341.56,272.1 342.33,272.87 " stroke-width="0.54389" stroke-linecap="round" stroke-linejoin="round" />
<line x1="345.39" y1="277.08" x2="345.39" y2="271.72" stroke-width="0.54389" stroke-linecap="round" />
<polyline points="345.39,275.55 346.54,276.7 347.31,277.08 348.46,277.08 349.22,276.7 349.61,275.55 349.61,271.72 " stroke-width="0.54389" stroke-linecap="round" stroke-linejoin="round" />
<line x1="356.88" y1="279.76" x2="356.88" y2="271.72" stroke-width="0.54389" stroke-linecap="round" />
<polyline points="356.88,275.93 356.12,276.7 355.35,277.08 354.2,277.08 353.44,276.7 352.67,275.93 352.29,274.79 352.29,274.02 352.67,272.87 353.44,272.1 354.2,271.72 355.35,271.72 356.12,272.1 356.88,272.87 " stroke-width="0.54389" stroke-linecap="round" stroke-linejoin="round" />
<line x1="366.08" y1="279.76" x2="366.08" y2="271.72" stroke-width="0.54389" stroke-linecap="round" />
<polyline points="366.08,275.93 366.84,276.7 367.61,277.08 368.76,277.08 369.52,276.7 370.29,275.93 370.67,274.79 370.67,274.02 370.29,272.87 369.52,272.1 368.76,271.72 367.61,271.72 366.84,272.1 366.08,272.87 " stroke-width="0.54389" stroke-linecap="round" stroke-linejoin="round" />
<polyline points="372.97,274.79 377.57,274.79 377.57,275.55 377.18,276.32 376.8,276.7 376.03,277.08 374.88,277.08 374.12,276.7 373.35,275.93 372.97,274.79 372.97,274.02 373.35,272.87 374.12,272.1 374.88,271.72 376.03,271.72 376.8,272.1 377.57,272.87 " stroke-width="0.54389" stroke-linecap="round" stroke-linejoin="round" />
<polyline points="384.08,275.93 383.69,276.7 382.55,277.08 381.4,277.08 380.25,276.7 379.86,275.93 380.25,275.17 381.01,274.79 382.93,274.4 383.69,274.02 384.08,273.25 384.08,272.87 383.69,272.1 382.55,271.72 381.4,271.72 380.25,272.1 379.86,272.87 " stroke-width="0.54389" stroke-linecap="round" stroke-linejoin="round" />
<polyline points="387.14,279.76 387.14,273.25 387.52,272.1 388.29,271.72 389.06,271.72 " stroke-width="0.54389" stroke-linecap="round" stroke-linejoin="round" />
<line x1="385.99" y1="277.08" x2="388.67" y2="277.08" stroke-width="0.54389" stroke-linecap="round" />
<polyline points="399.78,279.76 399.02,279.76 398.25,279.38 397.87,278.23 397.87,271.72 " stroke-width="0.54389" stroke-linecap="round" stroke-linejoin="round" />
<line x1="396.72" y1="277.08" x2="399.4" y2="277.08" stroke-width="0.54389" stroke-linecap="round" />
<polygon points="401.7,279.76 402.08,279.38 402.46,279.76 402.08,280.15 " stroke-width="0.54389" stroke-linejoin="round" />
<line x1="402.08" y1="277.08" x2="402.08" y2="271.72" stroke-width="0.54389" stroke-linecap="round" />
<polyline points="405.53,279.76 405.53,273.25 405.91,272.1 406.68,271.72 407.44,271.72 " stroke-width="0.54389" stroke-linecap="round" stroke-linejoin="round" />
<line x1="404.38" y1="277.08" x2="407.06" y2="277.08" stroke-width="0.54389" stroke-linecap="round" />
<line x1="409.74" y1="277.08" x2="409.74" y2="271.72" stroke-width="0.54389" stroke-linecap="round" />
<polyline points="409.74,275.55 410.89,276.7 411.66,277.08 412.8,277.08 413.57,276.7 413.95,275.55 413.95,271.72 " stroke-width="0.54389" stroke-linecap="round" stroke-linejoin="round" />
<polyline points="416.63,274.79 421.23,274.79 421.23,275.55 420.85,276.32 420.46,276.7 419.7,277.08 418.55,277.08 417.78,276.7 417.02,275.93 416.63,274.79 416.63,274.02 417.02,272.87 417.78,272.1 418.55,271.72 419.7,271.72 420.46,272.1 421.23,272.87 " stroke-width="0.54389" stroke-linecap="round" stroke-linejoin="round" />
<polyline points="427.74,275.93 427.36,276.7 426.21,277.08 425.06,277.08 423.91,276.7 423.53,275.93 423.91,275.17 424.68,274.79 426.59,274.4 427.36,274.02 427.74,273.25 427.74,272.87 427.36,272.1 426.21,271.72 425.06,271.72 423.91,272.1 423.53,272.87 " stroke-width="0.54389" stroke-linecap="round" stroke-linejoin="round" />
<polyline points="434.25,275.93 433.87,276.7 432.72,277.08 431.57,277.08 430.42,276.7 430.04,275.93 430.42,275.17 431.19,274.79 433.1,274.4 433.87,274.02 434.25,273.25 434.25,272.87 433.87,272.1 432.72,271.72 431.57,271.72 430.42,272.1 430.04,272.87 " stroke-width="0.54389" stroke-linecap="round" stroke-linejoin="round" />
<polyline points="92.942,177.86 93.853,158.58 94.763,177.86 95.674,158.58 96.584,158.58 97.495,177.86 98.405,177.86 99.316,168.22 100.23,168.22 101.14,177.86 102.05,158.58 102.96,177.86 103.87,158.58 104.78,168.22 105.69,177.86 106.6,168.22 107.51,168.22 108.42,168.22 109.33,168.22 110.24,148.94 111.15,168.22 112.06,168.22 112.97,158.58 113.88,177.86 114.79,168.22 115.7,168.22 116.62,177.86 117.53,177.86 118.44,168.22 119.35,168.22 120.26,168.22 121.17,168.22 122.08,168.22 122.99,177.86 123.9,168.22 124.81,168.22 125.72,168.22 126.63,177.86 127.54,168.22 128.45,168.22 129.36,168.22 130.27,177.86 131.18,168.22 132.09,168.22 133,168.22 133.91,168.22 134.83,168.22 135.74,168.22 136.65,177.86 137.56,158.58 138.47,168.22 139.38,168.22 140.29,168.22 141.2,158.58 142.11,158.58 143.02,158.58 143.93,168.22 144.84,148.94 145.75,197.14 146.66,177.86 147.57,177.86 148.48,168.22 149.39,168.22 150.3,177.86 151.21,177.86 152.12,158.58 153.04,177.86 153.95,168.22 154.86,158.58 155.77,177.86 156.68,187.5 157.59,168.22 158.5,177.86 159.41,177.86 160.32,168.22 161.23,168.22 162.14,168.22 163.05,168.22 163.96,177.86 164.87,177.86 165.78,168.22 166.69,177.86 167.6,177.86 168.51,177.86 169.42,177.86 170.33,168.22 171.25,168.22 172.16,148.94 173.07,148.94 173.98,168.22 174.89,158.58 175.8,168.22 176.71,168.22 177.62,168.22 178.53,177.86 179.44,197.14 180.35,177.86 181.26,187.5 182.17,168.22 183.08,177.86 183.99,168.22 184.9,177.86 185.81,197.14 186.72,177.86 187.63,177.86 188.55,177.86 189.46,168.22 190.37,158.58 191.28,168.22 192.19,197.14 193.1,187.5 194.01,177.86 194.92,187.5 195.83,206.78 196.74,177.86 197.65,187.5 198.56,177.86 199.47,168.22 200.38,187.5 201.29,168.22 202.2,187.5 203.11,158.58 204.02,168.22 204.93,168.22 205.84,158.58 206.76,187.5 207.67,158.58 208.58,168.22 209.49,148.94 210.4,187.5 211.31,177.86 212.22,158.58 213.13,197.14 214.04,168.22 214.95,187.5 215.86,177.86 216.77,187.5 217.68,206.78 218.59,216.42 219.5,197.14 220.41,197.14 221.32,216.42 222.23,206.78 223.14,197.14 224.05,197.14 224.97,177.86 225.88,177.86 226.79,177.86 227.7,187.5 228.61,197.14 229.52,177.86 230.43,187.5 231.34,187.5 232.25,148.94 233.16,177.86 234.07,168.22 234.98,168.22 235.89,158.58 236.8,168.22 237.71,168.22 238.62,197.14 239.53,177.86 240.44,168.22 241.35,177.86 242.26,168.22 243.18,158.58 244.09,177.86 245,197.14 245.91,177.86 246.82,177.86 247.73,168.22 248.64,206.78 249.55,197.14 250.46,197.14 251.37,168.22 252.28,177.86 253.19,177.86 254.1,197.14 255.01,158.58 255.92,148.94 256.83,187.5 257.74,177.86 258.65,168.22 259.56,177.86 260.47,177.86 261.39,177.86 262.3,168.22 263.21,187.5 264.12,177.86 265.03,168.22 265.94,177.86 266.85,168.22 267.76,168.22 268.67,168.22 269.58,177.86 270.49,177.86 271.4,168.22 272.31,177.86 273.22,168.22 274.13,158.58 275.04,148.94 275.95,177.86 276.86,168.22 277.77,216.42 278.68,187.5 279.6,168.22 280.51,187.5 281.42,197.14 282.33,168.22 283.24,177.86 284.15,168.22 285.06,177.86 285.97,187.5 286.88,168.22 287.79,187.5 288.7,187.5 289.61,177.86 290.52,197.14 291.43,177.86 292.34,187.5 293.25,177.86 294.16,187.5 295.07,158.58 295.98,177.86 296.89,197.14 297.81,197.14 298.72,177.86 299.63,168.22 300.54,168.22 301.45,177.86 302.36,177.86 303.27,168.22 304.18,168.22 305.09,158.58 306,177.86 306.91,187.5 307.82,168.22 308.73,197.14 309.64,168.22 310.55,177.86 311.46,187.5 312.37,168.22 313.28,168.22 314.19,177.86 315.1,168.22 316.02,187.5 316.93,168.22 317.84,197.14 318.75,177.86 319.66,177.86 320.57,177.86 321.48,206.78 322.39,187.5 323.3,187.5 324.21,187.5 325.12,187.5 326.03,206.78 326.94,197.14 327.85,206.78 328.76,177.86 329.67,206.78 330.58,177.86 331.49,206.78 332.4,168.22 333.31,168.22 334.23,187.5 335.14,168.22 336.05,216.42 336.96,187.5 337.87,177.86 338.78,187.5 339.69,216.42 340.6,187.5 341.51,187.5 342.42,197.14 343.33,177.86 344.24,187.5 345.15,187.5 346.06,187.5 346.97,177.86 347.88,168.22 348.79,177.86 349.7,177.86 350.61,197.14 351.52,187.5 352.44,197.14 353.35,177.86 354.26,177.86 355.17,187.5 356.08,177.86 356.99,158.58 357.9,177.86 358.81,197.14 359.72,177.86 360.63,168.22 361.54,197.14 362.45,187.5 363.36,187.5 364.27,158.58 365.18,197.14 366.09,177.86 367,177.86 367.91,197.14 368.82,197.14 369.74,177.86 370.65,197.14 371.56,226.07 372.47,197.14 373.38,177.86 374.29,187.5 375.2,168.22 376.11,216.42 377.02,206.78 377.93,177.86 378.84,187.5 379.75,187.5 380.66,168.22 381.57,197.14 382.48,187.5 383.39,177.86 384.3,177.86 385.21,168.22 386.12,197.14 387.03,168.22 387.95,177.86 388.86,187.5 389.77,177.86 390.68,168.22 391.59,177.86 392.5,177.86 393.41,216.42 394.32,197.14 395.23,187.5 396.14,187.5 397.05,216.42 397.96,168.22 398.87,177.86 399.78,177.86 400.69,158.58 401.6,226.07 402.51,158.58 403.42,216.42 404.33,197.14 405.24,168.22 406.16,187.5 407.07,177.86 407.98,187.5 408.89,177.86 409.8,187.5 410.71,197.14 411.62,206.78 412.53,168.22 413.44,197.14 414.35,177.86 415.26,168.22 416.17,168.22 417.08,168.22 417.99,197.14 418.9,187.5 419.81,187.5 420.72,168.22 421.63,187.5 422.54,197.14 423.45,168.22 424.37,187.5 425.28,235.71 426.19,168.22 427.1,177.86 428.01,177.86 428.92,168.22 429.83,168.22 430.74,168.22 431.65,168.22 432.56,197.14 433.47,158.58 434.38,148.94 435.29,168.22 436.2,168.22 437.11,177.86 438.02,177.86 438.93,216.42 439.84,158.58 440.75,168.22 441.66,187.5 442.58,177.86 443.49,177.86 444.4,187.5 445.31,148.94 446.22,187.5 447.13,177.86 448.04,177.86 448.95,148.94 449.86,177.86 450.77,168.22 451.68,168.22 452.59,187.5 453.5,177.86 454.41,148.94 455.32,168.22 456.23,168.22 457.14,177.86 458.05,158.58 458.96,158.58 459.87,177.86 460.79,177.86 461.7,158.58 462.61,158.58 463.52,158.58 464.43,168.22 465.34,187.5 466.25,197.14 467.16,197.14 468.07,177.86 468.98,177.86 469.89,197.14 470.8,187.5 471.71,187.5 472.62,168.22 473.53,206.78 474.44,187.5 475.35,177.86 476.26,197.14 477.17,187.5 478.08,177.86 479,187.5 479.91,187.5 480.82,158.58 481.73,177.86 482.64,187.5 483.55,158.58 484.46,197.14 485.37,206.78 486.28,177.86 487.19,197.14 488.1,206.78 489.01,206.78 489.92,235.71 490.83,235.71 491.74,254.99 492.65,197.14 493.56,187.5 494.47,168.22 495.38,187.5 496.29,177.86 497.21,168.22 498.12,187.5 499.03,168.22 499.94,168.22 500.85,177.86 501.76,206.78 502.67,168.22 503.58,168.22 504.49,187.5 505.4,245.35 506.31,216.42 507.22,216.42 508.13,187.5 509.04,168.22 509.95,177.86 510.86,197.14 511.77,168.22 512.68,168.22 513.59,177.86 514.5,187.5 515.42,187.5 516.33,158.58 517.24,197.14 518.15,197.14 519.06,197.14 519.97,177.86 520.88,177.86 521.79,197.14 522.7,168.22 523.61,187.5 524.52,197.14 525.43,168.22 526.34,197.14 527.25,168.22 528.16,177.86 529.07,187.5 529.98,206.78 530.89,197.14 531.8,187.5 532.71,187.5 533.63,177.86 534.54,197.14 535.45,206.78 536.36,197.14 537.27,187.5 538.18,216.42 539.09,197.14 540,168.22 540.91,177.86 541.82,197.14 542.73,216.42 543.64,158.58 544.55,177.86 545.46,177.86 546.37,187.5 547.28,168.22 " stroke="red" stroke-width="0.42132" />
<polyline points="92.942,68.915 93.853,69.879 94.763,73.06 95.674,71.325 96.584,72 97.495,69.3 98.405,68.722 99.316,67.469 100.23,70.554 101.14,74.121 102.05,74.121 102.96,75.664 103.87,79.424 104.78,70.361 105.69,78.074 106.6,74.989 107.51,72.578 108.42,68.433 109.33,70.361 110.24,70.843 111.15,80.966 112.06,70.264 112.97,72.578 113.88,74.217 114.79,73.639 115.7,68.433 116.62,72.578 117.53,71.518 118.44,75.471 119.35,80.195 120.26,76.146 121.17,63.419 122.08,74.989 122.99,76.628 123.9,72.096 124.81,80.966 125.72,67.565 126.63,71.807 127.54,69.3 128.45,64.769 129.36,64.962 130.27,68.722 131.18,71.036 132.09,70.554 133,83.473 133.91,79.327 134.83,66.504 135.74,78.363 136.65,67.469 137.56,72.771 138.47,73.639 139.38,69.59 140.29,72.578 141.2,73.446 142.11,76.049 143.02,68.625 143.93,72.675 144.84,68.722 145.75,72.193 146.66,69.686 147.57,73.928 148.48,76.338 149.39,78.652 150.3,69.011 151.21,73.157 152.12,69.204 153.04,73.639 153.95,70.554 154.86,76.146 155.77,68.336 156.68,72.675 157.59,74.989 158.5,72.482 159.41,81.93 160.32,68.047 161.23,70.168 162.14,77.977 163.05,70.072 163.96,68.625 164.87,76.049 165.78,76.242 166.69,70.747 167.6,75.664 168.51,69.397 169.42,78.942 170.33,74.217 171.25,73.157 172.16,67.854 173.07,69.397 173.98,71.614 174.89,62.648 175.8,74.989 176.71,66.986 177.62,64.962 178.53,75.181 179.44,71.325 180.35,73.639 181.26,70.264 182.17,67.854 183.08,76.724 183.99,78.942 184.9,74.796 185.81,74.121 186.72,71.036 187.63,74.796 188.55,68.818 189.46,72.289 190.37,69.108 191.28,79.038 192.19,77.977 193.1,78.652 194.01,76.146 194.92,66.119 195.83,72.482 196.74,75.76 197.65,76.435 198.56,70.168 199.47,71.711 200.38,70.747 201.29,79.327 202.2,71.711 203.11,74.989 204.02,83.28 204.93,69.493 205.84,65.733 206.76,74.603 207.67,71.518 208.58,67.469 209.49,71.518 210.4,81.063 211.31,81.448 212.22,80.002 213.13,79.327 214.04,71.036 214.95,72.482 215.86,81.255 216.77,75.374 217.68,78.074 218.59,78.942 219.5,79.52 220.41,77.399 221.32,78.17 222.23,74.025 223.14,80.581 224.05,73.542 224.97,75.567 225.88,73.832 226.79,73.446 227.7,68.818 228.61,79.906 229.52,79.52 230.43,73.928 231.34,74.41 232.25,74.507 233.16,68.529 234.07,70.457 234.98,69.493 235.89,66.022 236.8,71.036 237.71,72.964 238.62,75.567 239.53,77.881 240.44,73.06 241.35,67.179 242.26,76.435 243.18,72.482 244.09,68.433 245,74.892 245.91,72.386 246.82,76.435 247.73,75.664 248.64,81.93 249.55,73.446 250.46,70.747 251.37,74.892 252.28,77.11 253.19,79.231 254.1,75.856 255.01,70.554 255.92,74.025 256.83,75.278 257.74,76.338 258.65,71.903 259.56,76.435 260.47,76.242 261.39,72.964 262.3,76.917 263.21,80.002 264.12,70.65 265.03,73.157 265.94,73.542 266.85,73.735 267.76,67.469 268.67,78.267 269.58,71.229 270.49,78.652 271.4,75.856 272.31,77.495 273.22,76.049 274.13,68.047 275.04,70.747 275.95,74.314 276.86,79.906 277.77,68.529 278.68,73.157 279.6,62.069 280.51,82.605 281.42,78.845 282.33,71.036 283.24,73.253 284.15,75.471 285.06,79.906 285.97,70.072 286.88,77.495 287.79,72.771 288.7,69.397 289.61,78.942 290.52,68.24 291.43,70.747 292.34,81.834 293.25,73.639 294.16,72.482 295.07,77.881 295.98,77.206 296.89,70.361 297.81,80.484 298.72,71.614 299.63,75.567 300.54,77.592 301.45,69.782 302.36,78.749 303.27,75.471 304.18,69.686 305.09,77.303 306,81.448 306.91,68.818 307.82,69.59 308.73,76.917 309.64,74.989 310.55,78.17 311.46,72.482 312.37,68.625 313.28,64.962 314.19,68.433 315.1,78.074 316.02,78.459 316.93,70.843 317.84,82.412 318.75,70.168 319.66,76.628 320.57,68.722 321.48,77.592 322.39,74.507 323.3,78.845 324.21,73.446 325.12,77.303 326.03,81.737 326.94,75.567 327.85,82.509 328.76,79.713 329.67,81.159 330.58,79.906 331.49,74.314 332.4,70.457 333.31,79.713 334.23,81.545 335.14,73.832 336.05,78.17 336.96,76.82 337.87,72.771 338.78,78.459 339.69,79.424 340.6,80.388 341.51,72.868 342.42,84.533 343.33,80.002 344.24,76.435 345.15,77.977 346.06,73.832 346.97,74.41 347.88,76.82 348.79,78.459 349.7,76.531 350.61,66.794 351.52,75.374 352.44,83.473 353.35,69.493 354.26,76.628 355.17,72.578 356.08,72.482 356.99,73.157 357.9,76.049 358.81,76.435 359.72,74.892 360.63,75.181 361.54,79.231 362.45,79.616 363.36,79.809 364.27,64.673 365.18,78.942 366.09,77.11 367,79.231 367.91,77.303 368.82,74.314 369.74,74.121 370.65,77.785 371.56,75.856 372.47,66.408 373.38,76.049 374.29,75.085 375.2,66.89 376.11,76.435 377.02,75.953 377.93,78.845 378.84,78.749 379.75,74.603 380.66,73.253 381.57,75.76 382.48,69.879 383.39,73.735 384.3,77.013 385.21,69.879 386.12,65.058 387.03,72 387.95,71.229 388.86,70.939 389.77,69.3 390.68,72.675 391.59,72.096 392.5,69.59 393.41,79.424 394.32,78.845 395.23,74.507 396.14,68.047 397.05,70.747 397.96,71.229 398.87,77.303 399.78,74.603 400.69,79.134 401.6,71.614 402.51,69.879 403.42,80.291 404.33,73.832 405.24,72.096 406.16,79.327 407.07,68.336 407.98,75.953 408.89,77.303 409.8,74.314 410.71,76.242 411.62,79.809 412.53,77.495 413.44,74.025 414.35,71.229 415.26,75.953 416.17,69.3 417.08,70.361 417.99,75.76 418.9,77.785 419.81,75.567 420.72,71.807 421.63,74.507 422.54,74.989 423.45,67.951 424.37,73.253 425.28,79.906 426.19,73.735 427.1,72.289 428.01,72.964 428.92,69.011 429.83,70.457 430.74,71.421 431.65,85.498 432.56,63.323 433.47,74.507 434.38,72.578 435.29,75.085 436.2,68.143 437.11,68.915 438.02,76.724 438.93,81.737 439.84,70.361 440.75,76.724 441.66,77.013 442.58,82.027 443.49,68.433 444.4,77.592 445.31,63.419 446.22,78.459 447.13,70.457 448.04,71.518 448.95,71.711 449.86,73.735 450.77,82.702 451.68,74.507 452.59,71.421 453.5,75.76 454.41,70.554 455.32,70.168 456.23,71.711 457.14,72.868 458.05,71.614 458.96,76.82 459.87,76.82 460.79,68.915 461.7,69.686 462.61,66.022 463.52,64.48 464.43,72.289 465.34,67.276 466.25,72.771 467.16,75.856 468.07,77.11 468.98,72.386 469.89,78.074 470.8,82.22 471.71,70.554 472.62,77.303 473.53,70.65 474.44,78.363 475.35,72.482 476.26,77.495 477.17,68.143 478.08,72.675 479,77.303 479.91,74.989 480.82,65.926 481.73,66.504 482.64,75.953 483.55,77.495 484.46,72.771 485.37,74.989 486.28,74.217 487.19,75.085 488.1,76.146 489.01,69.011 489.92,74.507 490.83,78.942 491.74,73.35 492.65,74.025 493.56,75.664 494.47,73.735 495.38,70.072 496.29,79.906 497.21,77.592 498.12,68.433 499.03,71.421 499.94,74.41 500.85,69.879 501.76,68.625 502.67,72 503.58,76.531 504.49,72.386 505.4,83.184 506.31,72.386 507.22,69.204 508.13,64.287 509.04,77.592 509.95,69.975 510.86,72.482 511.77,72.096 512.68,71.807 513.59,78.652 514.5,75.567 515.42,76.049 516.33,72.193 517.24,72.964 518.15,71.711 519.06,72.193 519.97,74.314 520.88,74.025 521.79,76.242 522.7,72.771 523.61,80.484 524.52,79.52 525.43,76.917 526.34,79.038 527.25,67.276 528.16,70.939 529.07,78.267 529.98,81.93 530.89,77.206 531.8,69.686 532.71,80.581 533.63,75.181 534.54,74.603 535.45,72.675 536.36,85.015 537.27,75.181 538.18,84.726 539.09,70.747 540,75.664 540.91,74.507 541.82,83.955 542.73,68.047 543.64,83.184 544.55,80.484 545.46,77.399 546.37,76.049 547.28,68.818 " stroke="blue" stroke-width="0.42132" />
<line x1="570" y1="52.525" x2="566.84" y2="52.525" stroke-width="0.70588" />
<line x1="570" y1="62.166" x2="566.84" y2="62.166" stroke-width="0.70588" />
<line x1="570" y1="71.807" x2="566.84" y2="71.807" stroke-width="0.70588" />
<line x1="570" y1="81.448" x2="566.84" y2="81.448" stroke-width="0.70588" />
<line x1="570" y1="91.089" x2="566.84" y2="91.089" stroke-width="0.70588" />
<line x1="570" y1="100.73" x2="566.84" y2="100.73" stroke-width="0.70588" />
<line x1="570" y1="110.37" x2="566.84" y2="110.37" stroke-width="0.70588" />
<line x1="570" y1="120.01" x2="566.84" y2="120.01" stroke-width="0.70588" />
<line x1="570" y1="129.65" x2="566.84" y2="129.65" stroke-width="0.70588" />
<line x1="570" y1="139.3" x2="566.84" y2="139.3" stroke-width="0.70588" />
<line x1="570" y1="148.94" x2="566.84" y2="148.94" stroke-width="0.70588" />
<line x1="570" y1="158.58" x2="566.84" y2="158.58" stroke-width="0.70588" />
<line x1="570" y1="168.22" x2="566.84" y2="168.22" stroke-width="0.70588" />
<line x1="570" y1="177.86" x2="566.84" y2="177.86" stroke-width="0.70588" />
<line x1="570" y1="187.5" x2="566.84" y2="187.5" stroke-width="0.70588" />
<line x1="570" y1="197.14" x2="566.84" y2="197.14" stroke-width="0.70588" />
<line x1="570" y1="206.78" x2="566.84" y2="206.78" stroke-width="0.70588" />
<line x1="570" y1="216.42" x2="566.84" y2="216.42" stroke-width="0.70588" />
<line x1="570" y1="226.07" x2="566.84" y2="226.07" stroke-width="0.70588" />
<line x1="570" y1="235.71" x2="566.84" y2="235.71" stroke-width="0.70588" />
<line x1="570" y1="245.35" x2="566.84" y2="245.35" stroke-width="0.70588" />
<line x1="570" y1="254.99" x2="566.84" y2="254.99" stroke-width="0.70588" />
<line x1="570" y1="264.63" x2="566.84" y2="264.63" stroke-width="0.70588" />
<line x1="570" y1="81.448" x2="563.68" y2="81.448" stroke-width="0.70588" />
<line x1="570" y1="129.65" x2="563.68" y2="129.65" stroke-width="0.70588" />
<line x1="570" y1="177.86" x2="563.68" y2="177.86" stroke-width="0.70588" />
<line x1="570" y1="226.07" x2="563.68" y2="226.07" stroke-width="0.70588" />
<line x1="570" y1="52.423" x2="570" y2="264.64" stroke-width="0.70588" />
<line x1="74.732" y1="264.64" x2="74.732" y2="261.48" stroke-width="0.70588" />
<line x1="92.942" y1="264.64" x2="92.942" y2="261.48" stroke-width="0.70588" />
<line x1="111.15" y1="264.64" x2="111.15" y2="261.48" stroke-width="0.70588" />
<line x1="129.36" y1="264.64" x2="129.36" y2="261.48" stroke-width="0.70588" />
<line x1="147.57" y1="264.64" x2="147.57" y2="261.48" stroke-width="0.70588" />
<line x1="165.78" y1="264.64" x2="165.78" y2="261.48" stroke-width="0.70588" />
<line x1="183.99" y1="264.64" x2="183.99" y2="261.48" stroke-width="0.70588" />
<line x1="202.2" y1="264.64" x2="202.2" y2="261.48" stroke-width="0.70588" />
<line x1="220.41" y1="264.64" x2="220.41" y2="261.48" stroke-width="0.70588" />
<line x1="238.62" y1="264.64" x2="238.62" y2="261.48" stroke-width="0.70588" />
<line x1="256.83" y1="264.64" x2="256.83" y2="261.48" stroke-width="0.70588" />
<line x1="275.04" y1="264.64" x2="275.04" y2="261.48" stroke-width="0.70588" />
<line x1="293.25" y1="264.64" x2="293.25" y2="261.48" stroke-width="0.70588" />
<line x1="311.46" y1="264.64" x2="311.46" y2="261.48" stroke-width="0.70588" />
<line x1="329.67" y1="264.64" x2="329.67" y2="261.48" stroke-width="0.70588" />
<line x1="347.88" y1="264.64" x2="347.88" y2="261.48" stroke-width="0.70588" />
<line x1="366.09" y1="264.64" x2="366.09" y2="261.48" stroke-width="0.70588" />
<line x1="384.3" y1="264.64" x2="384.3" y2="261.48" stroke-width="0.70588" />
<line x1="402.51" y1="264.64" x2="402.51" y2="261.48" stroke-width="0.70588" />
<line x1="420.72" y1="264.64" x2="420.72" y2="261.48" stroke-width="0.70588" />
<line x1="438.93" y1="264.64" x2="438.93" y2="261.48" stroke-width="0.70588" />
<line x1="457.14" y1="264.64" x2="457.14" y2="261.48" stroke-width="0.70588" />
<line x1="475.35" y1="264.64" x2="475.35" y2="261.48" stroke-width="0.70588" />
<line x1="493.56" y1="264.64" x2="493.56" y2="261.48" stroke-width="0.70588" />
<line x1="511.77" y1="264.64" x2="511.77" y2="261.48" stroke-width="0.70588" />
<line x1="529.98" y1="264.64" x2="529.98" y2="261.48" stroke-width="0.70588" />
<line x1="548.19" y1="264.64" x2="548.19" y2="261.48" stroke-width="0.70588" />
<line x1="566.4" y1="264.64" x2="566.4" y2="261.48" stroke-width="0.70588" />
<line x1="92.942" y1="264.64" x2="92.942" y2="258.32" stroke-width="0.70588" />
<line x1="183.99" y1="264.64" x2="183.99" y2="258.32" stroke-width="0.70588" />
<line x1="275.04" y1="264.64" x2="275.04" y2="258.32" stroke-width="0.70588" />
<line x1="366.09" y1="264.64" x2="366.09" y2="258.32" stroke-width="0.70588" />
<line x1="457.14" y1="264.64" x2="457.14" y2="258.32" stroke-width="0.70588" />
<line x1="548.19" y1="264.64" x2="548.19" y2="258.32" stroke-width="0.70588" />
<line x1="70.225" y1="264.64" x2="570" y2="264.64" stroke-width="0.70588" />
<line x1="70.225" y1="52.525" x2="73.385" y2="52.525" stroke-width="0.70588" />
<line x1="70.225" y1="62.166" x2="73.385" y2="62.166" stroke-width="0.70588" />
<line x1="70.225" y1="71.807" x2="73.385" y2="71.807" stroke-width="0.70588" />
<line x1="70.225" y1="81.448" x2="73.385" y2="81.448" stroke-width="0.70588" />
<line x1="70.225" y1="91.089" x2="73.385" y2="91.089" stroke-width="0.70588" />
<line x1="70.225" y1="100.73" x2="73.385" y2="100.73" stroke-width="0.70588" />
<line x1="70.225" y1="110.37" x2="73.385" y2="110.37" stroke-width="0.70588" />
<line x1="70.225" y1="120.01" x2="73.385" y2="120.01" stroke-width="0.70588" />
<line x1="70.225" y1="129.65" x2="73.385" y2="129.65" stroke-width="0.70588" />
<line x1="70.225" y1="139.3" x2="73.385" y2="139.3" stroke-width="0.70588" />
<line x1="70.225" y1="148.94" x2="73.385" y2="148.94" stroke-width="0.70588" />
<line x1="70.225" y1="158.58" x2="73.385" y2="158.58" stroke-width="0.70588" />
<line x1="70.225" y1="168.22" x2="73.385" y2="168.22" stroke-width="0.70588" />
<line x1="70.225" y1="177.86" x2="73.385" y2="177.86" stroke-width="0.70588" />
<line x1="70.225" y1="187.5" x2="73.385" y2="187.5" stroke-width="0.70588" />
<line x1="70.225" y1="197.14" x2="73.385" y2="197.14" stroke-width="0.70588" />
<line x1="70.225" y1="206.78" x2="73.385" y2="206.78" stroke-width="0.70588" />
<line x1="70.225" y1="216.42" x2="73.385" y2="216.42" stroke-width="0.70588" />
<line x1="70.225" y1="226.07" x2="73.385" y2="226.07" stroke-width="0.70588" />
<line x1="70.225" y1="235.71" x2="73.385" y2="235.71" stroke-width="0.70588" />
<line x1="70.225" y1="245.35" x2="73.385" y2="245.35" stroke-width="0.70588" />
<line x1="70.225" y1="254.99" x2="73.385" y2="254.99" stroke-width="0.70588" />
<line x1="70.225" y1="264.63" x2="73.385" y2="264.63" stroke-width="0.70588" />
<line x1="70.225" y1="81.448" x2="76.545" y2="81.448" stroke-width="0.70588" />
<line x1="70.225" y1="129.65" x2="76.545" y2="129.65" stroke-width="0.70588" />
<line x1="70.225" y1="177.86" x2="76.545" y2="177.86" stroke-width="0.70588" />
<line x1="70.225" y1="226.07" x2="76.545" y2="226.07" stroke-width="0.70588" />
<line x1="70.225" y1="52.423" x2="70.225" y2="264.64" stroke-width="0.70588" />
<polyline points="50.883,84.512 51.649,84.895 52.798,86.045 52.798,78.001 " stroke-width="0.54389" stroke-linecap="round" stroke-linejoin="round" />
<polygon points="59.692,86.045 58.543,85.661 57.777,84.512 57.394,82.597 57.394,81.448 57.777,79.533 58.543,78.384 59.692,78.001 60.458,78.001 61.607,78.384 62.373,79.533 62.756,81.448 62.756,82.597 62.373,84.512 61.607,85.661 60.458,86.045 " stroke-width="0.54389" stroke-linejoin="round" />
<polyline points="50.883,132.72 51.649,133.1 52.798,134.25 52.798,126.21 " stroke-width="0.54389" stroke-linecap="round" stroke-linejoin="round" />
<polyline points="61.99,134.25 58.16,134.25 57.777,130.8 58.16,131.19 59.309,131.57 60.458,131.57 61.607,131.19 62.373,130.42 62.756,129.27 62.756,128.51 62.373,127.36 61.607,126.59 60.458,126.21 59.309,126.21 58.16,126.59 57.777,126.97 57.394,127.74 " stroke-width="0.54389" stroke-linecap="round" stroke-linejoin="round" />
<polyline points="50.117,180.54 50.117,180.92 50.5,181.69 50.883,182.07 51.649,182.46 53.181,182.46 53.947,182.07 54.33,181.69 54.713,180.92 54.713,180.16 54.33,179.39 53.564,178.24 49.734,174.41 55.096,174.41 " stroke-width="0.54389" stroke-linecap="round" stroke-linejoin="round" />
<polygon points="59.692,182.46 58.543,182.07 57.777,180.92 57.394,179.01 57.394,177.86 57.777,175.94 58.543,174.8 59.692,174.41 60.458,174.41 61.607,174.8 62.373,175.94 62.756,177.86 62.756,179.01 62.373,180.92 61.607,182.07 60.458,182.46 " stroke-width="0.54389" stroke-linejoin="round" />
<polyline points="50.117,228.75 50.117,229.13 50.5,229.9 50.883,230.28 51.649,230.66 53.181,230.66 53.947,230.28 54.33,229.9 54.713,229.13 54.713,228.36 54.33,227.6 53.564,226.45 49.734,222.62 55.096,222.62 " stroke-width="0.54389" stroke-linecap="round" stroke-linejoin="round" />
<polyline points="61.99,230.66 58.16,230.66 57.777,227.21 58.16,227.6 59.309,227.98 60.458,227.98 61.607,227.6 62.373,226.83 62.756,225.68 62.756,224.92 62.373,223.77 61.607,223 60.458,222.62 59.309,222.62 58.16,223 57.777,223.38 57.394,224.15 " stroke-width="0.54389" stroke-linecap="round" stroke-linejoin="round" />
<line x1="33.455" y1="139.19" x2="41.499" y2="139.19" stroke-width="0.54389" stroke-linecap="round" />
<line x1="33.455" y1="139.19" x2="33.455" y2="144.17" stroke-width="0.54389" stroke-linecap="round" />
<line x1="37.285" y1="139.19" x2="37.285" y2="142.25" stroke-width="0.54389" stroke-linecap="round" />
<polygon points="33.455,145.7 33.838,146.08 33.455,146.46 33.072,146.08 " stroke-width="0.54389" stroke-linejoin="round" />
<line x1="36.136" y1="146.08" x2="41.499" y2="146.08" stroke-width="0.54389" stroke-linecap="round" />
<polyline points="33.455,149.53 39.966,149.53 41.116,149.91 41.499,150.68 41.499,151.44 " stroke-width="0.54389" stroke-linecap="round" stroke-linejoin="round" />
<line x1="36.136" y1="148.38" x2="36.136" y2="151.06" stroke-width="0.54389" stroke-linecap="round" />
<line x1="36.136" y1="153.74" x2="41.499" y2="153.74" stroke-width="0.54389" stroke-linecap="round" />
<polyline points="37.668,153.74 36.519,154.89 36.136,155.66 36.136,156.81 36.519,157.57 37.668,157.95 41.499,157.95 " stroke-width="0.54389" stroke-linecap="round" stroke-linejoin="round" />
<polyline points="38.434,160.64 38.434,165.23 37.668,165.23 36.902,164.85 36.519,164.47 36.136,163.7 36.136,162.55 36.519,161.79 37.285,161.02 38.434,160.64 39.2,160.64 40.349,161.02 41.116,161.79 41.499,162.55 41.499,163.7 41.116,164.47 40.349,165.23 " stroke-width="0.54389" stroke-linecap="round" stroke-linejoin="round" />
<polyline points="37.285,171.74 36.519,171.36 36.136,170.21 36.136,169.06 36.519,167.91 37.285,167.53 38.051,167.91 38.434,168.68 38.817,170.59 39.2,171.36 39.966,171.74 40.349,171.74 41.116,171.36 41.499,170.21 41.499,169.06 41.116,167.91 40.349,167.53 " stroke-width="0.54389" stroke-linecap="round" stroke-linejoin="round" />
<polyline points="37.285,178.26 36.519,177.87 36.136,176.72 36.136,175.57 36.519,174.42 37.285,174.04 38.051,174.42 38.434,175.19 38.817,177.11 39.2,177.87 39.966,178.26 40.349,178.26 41.116,177.87 41.499,176.72 41.499,175.57 41.116,174.42 40.349,174.04 " stroke-width="0.54389" stroke-linecap="round" stroke-linejoin="round" />
<line x1="74.732" y1="52.423" x2="74.732" y2="55.583" stroke-width="0.70588" />
<line x1="92.942" y1="52.423" x2="92.942" y2="55.583" stroke-width="0.70588" />
<line x1="111.15" y1="52.423" x2="111.15" y2="55.583" stroke-width="0.70588" />
<line x1="129.36" y1="52.423" x2="129.36" y2="55.583" stroke-width="0.70588" />
<line x1="147.57" y1="52.423" x2="147.57" y2="55.583" stroke-width="0.70588" />
<line x1="165.78" y1="52.423" x2="165.78" y2="55.583" stroke-width="0.70588" />
<line x1="183.99" y1="52.423" x2="183.99" y2="55.583" stroke-width="0.70588" />
<line x1="202.2" y1="52.423" x2="202.2" y2="55.583" stroke-width="0.70588" />
<line x1="220.41" y1="52.423" x2="220.41" y2="55.583" stroke-width="0.70588" />
<line x1="238.62" y1="52.423" x2="238.62" y2="55.583" stroke-width="0.70588" />
<line x1="256.83" y1="52.423" x2="256.83" y2="55.583" stroke-width="0.70588" />
<line x1="275.04" y1="52.423" x2="275.04" y2="55.583" stroke-width="0.70588" />
<line x1="293.25" y1="52.423" x2="293.25" y2="55.583" stroke-width="0.70588" />
<line x1="311.46" y1="52.423" x2="311.46" y2="55.583" stroke-width="0.70588" />
<line x1="329.67" y1="52.423" x2="329.67" y2="55.583" stroke-width="0.70588" />
<line x1="347.88" y1="52.423" x2="347.88" y2="55.583" stroke-width="0.70588" />
<line x1="366.09" y1="52.423" x2="366.09" y2="55.583" stroke-width="0.70588" />
<line x1="384.3" y1="52.423" x2="384.3" y2="55.583" stroke-width="0.70588" />
<line x1="402.51" y1="52.423" x2="402.51" y2="55.583" stroke-width="0.70588" />
<line x1="420.72" y1="52.423" x2="420.72" y2="55.583" stroke-width="0.70588" />
<line x1="438.93" y1="52.423" x2="438.93" y2="55.583" stroke-width="0.70588" />
<line x1="457.14" y1="52.423" x2="457.14" y2="55.583" stroke-width="0.70588" />
<line x1="475.35" y1="52.423" x2="475.35" y2="55.583" stroke-width="0.70588" />
<line x1="493.56" y1="52.423" x2="493.56" y2="55.583" stroke-width="0.70588" />
<line x1="511.77" y1="52.423" x2="511.77" y2="55.583" stroke-width="0.70588" />
<line x1="529.98" y1="52.423" x2="529.98" y2="55.583" stroke-width="0.70588" />
<line x1="548.19" y1="52.423" x2="548.19" y2="55.583" stroke-width="0.70588" />
<line x1="566.4" y1="52.423" x2="566.4" y2="55.583" stroke-width="0.70588" />
<line x1="92.942" y1="52.423" x2="92.942" y2="58.743" stroke-width="0.70588" />
<line x1="183.99" y1="52.423" x2="183.99" y2="58.743" stroke-width="0.70588" />
<line x1="275.04" y1="52.423" x2="275.04" y2="58.743" stroke-width="0.70588" />
<line x1="366.09" y1="52.423" x2="366.09" y2="58.743" stroke-width="0.70588" />
<line x1="457.14" y1="52.423" x2="457.14" y2="58.743" stroke-width="0.70588" />
<line x1="548.19" y1="52.423" x2="548.19" y2="58.743" stroke-width="0.70588" />
<line x1="70.225" y1="52.423" x2="570" y2="52.423" stroke-width="0.70588" />
<polygon points="92.559,44.38 91.41,43.997 90.644,42.848 90.261,40.933 90.261,39.784 90.644,37.869 91.41,36.72 92.559,36.337 93.325,36.337 94.474,36.72 95.24,37.869 95.623,39.784 95.623,40.933 95.24,42.848 94.474,43.997 93.325,44.38 " stroke-width="0.54389" stroke-linejoin="round" />
<polyline points="174.8,42.848 175.57,43.231 176.72,44.38 176.72,36.337 " stroke-width="0.54389" stroke-linecap="round" stroke-linejoin="round" />
<polygon points="183.61,44.38 182.46,43.997 181.69,42.848 181.31,40.933 181.31,39.784 181.69,37.869 182.46,36.72 183.61,36.337 184.38,36.337 185.52,36.72 186.29,37.869 186.67,39.784 186.67,40.933 186.29,42.848 185.52,43.997 184.38,44.38 " stroke-width="0.54389" stroke-linejoin="round" />
<polygon points="191.27,44.38 190.12,43.997 189.35,42.848 188.97,40.933 188.97,39.784 189.35,37.869 190.12,36.72 191.27,36.337 192.04,36.337 193.19,36.72 193.95,37.869 194.33,39.784 194.33,40.933 193.95,42.848 193.19,43.997 192.04,44.38 " stroke-width="0.54389" stroke-linejoin="round" />
<polyline points="265.08,42.465 265.08,42.848 265.47,43.614 265.85,43.997 266.62,44.38 268.15,44.38 268.91,43.997 269.3,43.614 269.68,42.848 269.68,42.082 269.3,41.316 268.53,40.167 264.7,36.337 270.06,36.337 " stroke-width="0.54389" stroke-linecap="round" stroke-linejoin="round" />
<polygon points="274.66,44.38 273.51,43.997 272.74,42.848 272.36,40.933 272.36,39.784 272.74,37.869 273.51,36.72 274.66,36.337 275.43,36.337 276.57,36.72 277.34,37.869 277.72,39.784 277.72,40.933 277.34,42.848 276.57,43.997 275.43,44.38 " stroke-width="0.54389" stroke-linejoin="round" />
<polygon points="282.32,44.38 281.17,43.997 280.41,42.848 280.02,40.933 280.02,39.784 280.41,37.869 281.17,36.72 282.32,36.337 283.09,36.337 284.24,36.72 285,37.869 285.38,39.784 285.38,40.933 285,42.848 284.24,43.997 283.09,44.38 " stroke-width="0.54389" stroke-linejoin="round" />
<polyline points="356.52,44.38 360.73,44.38 358.43,41.316 359.58,41.316 360.35,40.933 360.73,40.55 361.11,39.401 361.11,38.635 360.73,37.486 359.96,36.72 358.82,36.337 357.67,36.337 356.52,36.72 356.13,37.103 355.75,37.869 " stroke-width="0.54389" stroke-linecap="round" stroke-linejoin="round" />
<polygon points="365.71,44.38 364.56,43.997 363.79,42.848 363.41,40.933 363.41,39.784 363.79,37.869 364.56,36.72 365.71,36.337 366.48,36.337 367.63,36.72 368.39,37.869 368.77,39.784 368.77,40.933 368.39,42.848 367.63,43.997 366.48,44.38 " stroke-width="0.54389" stroke-linejoin="round" />
<polygon points="373.37,44.38 372.22,43.997 371.46,42.848 371.07,40.933 371.07,39.784 371.46,37.869 372.22,36.72 373.37,36.337 374.14,36.337 375.29,36.72 376.05,37.869 376.43,39.784 376.43,40.933 376.05,42.848 375.29,43.997 374.14,44.38 " stroke-width="0.54389" stroke-linejoin="round" />
<polyline points="450.63,44.38 446.8,39.018 452.55,39.018 " stroke-width="0.54389" stroke-linecap="round" stroke-linejoin="round" />
<line x1="450.63" y1="44.38" x2="450.63" y2="36.337" stroke-width="0.54389" stroke-linecap="round" />
<polygon points="456.76,44.38 455.61,43.997 454.85,42.848 454.46,40.933 454.46,39.784 454.85,37.869 455.61,36.72 456.76,36.337 457.53,36.337 458.68,36.72 459.44,37.869 459.82,39.784 459.82,40.933 459.44,42.848 458.68,43.997 457.53,44.38 " stroke-width="0.54389" stroke-linejoin="round" />
<polygon points="464.42,44.38 463.27,43.997 462.51,42.848 462.12,40.933 462.12,39.784 462.51,37.869 463.27,36.72 464.42,36.337 465.19,36.337 466.34,36.72 467.1,37.869 467.48,39.784 467.48,40.933 467.1,42.848 466.34,43.997 465.19,44.38 " stroke-width="0.54389" stroke-linejoin="round" />
<polyline points="542.45,44.38 538.62,44.38 538.23,40.933 538.62,41.316 539.77,41.699 540.92,41.699 542.07,41.316 542.83,40.55 543.21,39.401 543.21,38.635 542.83,37.486 542.07,36.72 540.92,36.337 539.77,36.337 538.62,36.72 538.23,37.103 537.85,37.869 " stroke-width="0.54389" stroke-linecap="round" stroke-linejoin="round" />
<polygon points="547.81,44.38 546.66,43.997 545.9,42.848 545.51,40.933 545.51,39.784 545.9,37.869 546.66,36.72 547.81,36.337 548.58,36.337 549.73,36.72 550.49,37.869 550.87,39.784 550.87,40.933 550.49,42.848 549.73,43.997 548.58,44.38 " stroke-width="0.54389" stroke-linejoin="round" />
<polygon points="555.47,44.38 554.32,43.997 553.56,42.848 553.17,40.933 553.17,39.784 553.56,37.869 554.32,36.72 555.47,36.337 556.24,36.337 557.39,36.72 558.15,37.869 558.54,39.784 558.54,40.933 558.15,42.848 557.39,43.997 556.24,44.38 " stroke-width="0.54389" stroke-linejoin="round" />
<polyline points="291.96,25.612 291.58,26.378 290.81,27.144 290.05,27.527 288.51,27.527 287.75,27.144 286.98,26.378 286.6,25.612 286.22,24.463 286.22,22.548 286.6,21.399 286.98,20.633 287.75,19.867 288.51,19.484 290.05,19.484 290.81,19.867 291.58,20.633 291.96,21.399 291.96,22.548 " stroke-width="0.54389" stroke-linecap="round" stroke-linejoin="round" />
<line x1="290.05" y1="22.548" x2="291.96" y2="22.548" stroke-width="0.54389" stroke-linecap="round" />
<polyline points="294.26,22.548 298.85,22.548 298.85,23.314 298.47,24.08 298.09,24.463 297.32,24.846 296.17,24.846 295.41,24.463 294.64,23.697 294.26,22.548 294.26,21.782 294.64,20.633 295.41,19.867 296.17,19.484 297.32,19.484 298.09,19.867 298.85,20.633 " stroke-width="0.54389" stroke-linecap="round" stroke-linejoin="round" />
<line x1="301.54" y1="24.846" x2="301.54" y2="19.484" stroke-width="0.54389" stroke-linecap="round" />
<polyline points="301.54,23.314 302.69,24.463 303.45,24.846 304.6,24.846 305.37,24.463 305.75,23.314 305.75,19.484 " stroke-width="0.54389" stroke-linecap="round" stroke-linejoin="round" />
<polyline points="308.43,22.548 313.03,22.548 313.03,23.314 312.64,24.08 312.26,24.463 311.49,24.846 310.35,24.846 309.58,24.463 308.81,23.697 308.43,22.548 308.43,21.782 308.81,20.633 309.58,19.867 310.35,19.484 311.49,19.484 312.26,19.867 313.03,20.633 " stroke-width="0.54389" stroke-linecap="round" stroke-linejoin="round" />
<line x1="315.71" y1="24.846" x2="315.71" y2="19.484" stroke-width="0.54389" stroke-linecap="round" />
<polyline points="315.71,22.548 316.09,23.697 316.86,24.463 317.62,24.846 318.77,24.846 " stroke-width="0.54389" stroke-linecap="round" stroke-linejoin="round" />
<line x1="324.9" y1="24.846" x2="324.9" y2="19.484" stroke-width="0.54389" stroke-linecap="round" />
<polyline points="324.9,23.697 324.13,24.463 323.37,24.846 322.22,24.846 321.45,24.463 320.69,23.697 320.3,22.548 320.3,21.782 320.69,20.633 321.45,19.867 322.22,19.484 323.37,19.484 324.13,19.867 324.9,20.633 " stroke-width="0.54389" stroke-linecap="round" stroke-linejoin="round" />
<polyline points="328.35,27.527 328.35,21.016 328.73,19.867 329.5,19.484 330.26,19.484 " stroke-width="0.54389" stroke-linecap="round" stroke-linejoin="round" />
<line x1="327.2" y1="24.846" x2="329.88" y2="24.846" stroke-width="0.54389" stroke-linecap="round" />
<polygon points="332.18,27.527 332.56,27.144 332.94,27.527 332.56,27.91 " stroke-width="0.54389" stroke-linejoin="round" />
<line x1="332.56" y1="24.846" x2="332.56" y2="19.484" stroke-width="0.54389" stroke-linecap="round" />
<polygon points="337.16,24.846 336.39,24.463 335.63,23.697 335.24,22.548 335.24,21.782 335.63,20.633 336.39,19.867 337.16,19.484 338.31,19.484 339.07,19.867 339.84,20.633 340.22,21.782 340.22,22.548 339.84,23.697 339.07,24.463 338.31,24.846 " stroke-width="0.54389" stroke-linejoin="round" />
<line x1="342.9" y1="24.846" x2="342.9" y2="19.484" stroke-width="0.54389" stroke-linecap="round" />
<polyline points="342.9,23.314 344.05,24.463 344.82,24.846 345.97,24.846 346.73,24.463 347.12,23.314 347.12,19.484 " stroke-width="0.54389" stroke-linecap="round" stroke-linejoin="round" />
<polyline points="354.01,23.697 353.63,24.463 352.48,24.846 351.33,24.846 350.18,24.463 349.8,23.697 350.18,22.931 350.95,22.548 352.86,22.165 353.63,21.782 354.01,21.016 354.01,20.633 353.63,19.867 352.48,19.484 351.33,19.484 350.18,19.867 349.8,20.633 " stroke-width="0.54389" stroke-linecap="round" stroke-linejoin="round" />
</g>
</svg>
