<?xml version="1.0" encoding="ISO-8859-1" standalone="no"?>
<!DOCTYPE svg PUBLIC "-//W3C//DTD SVG 1.1//EN" "http://www.w3.org/Graphics/SVG/1.1/DTD/svg11.dtd">
<svg version="1.1" baseProfile="full" id="body" width="8in" height="8in" viewBox="0 0 1 1" preserveAspectRatio="none" xmlns="http://www.w3.org/2000/svg" xmlns:xlink="http://www.w3.org/1999/xlink" xmlns:ev="http://www.w3.org/2001/xml-events">
<title>SVG drawing</title>
<desc>This was produced by version 4.4 of GNU libplot, a free library for exporting 2-D vector graphics.</desc>
<rect id="background" x="0" y="0" width="1" height="1" stroke="none" fill="white"/>
<g id="content" transform="translate(0,1) scale(0.0016667,-0.0033333) " xml:space="preserve" stroke="black" stroke-linecap="butt" stroke-linejoin="miter" stroke-miterlimit="10.433" stroke-dasharray="none" stroke-dashoffset="0" stroke-opacity="1" fill="none" fill-rule="evenodd" fill-opacity="1" font-style="normal" font-variant="normal" font-weight="normal" font-stretch="normal" font-size-adjust="none" letter-spacing="normal" word-spacing="normal" text-anchor="start">
<line x1="206.35" y1="279.76" x2="206.35" y2="271.72" stroke-width="0.54389" stroke-linecap="round" />
<polyline points="206.35,279.76 209.8,279.76 210.95,279.38 211.33,279 211.72,278.23 211.72,277.08 211.33,276.32 210.95,275.93 209.8,275.55 206.35,275.55 " stroke-width="0.54389" stroke-linecap="round" stroke-linejoin="round" />
<polygon points="215.93,277.08 215.16,276.7 214.4,275.93 214.02,274.79 214.02,274.02 214.4,272.87 215.16,272.1 215.93,271.72 217.08,271.72 217.85,272.1 218.61,272.87 218.99,274.02 218.99,274.79 218.61,275.93 217.85,276.7 217.08,277.08 " stroke-width="0.54389" stroke-linejoin="round" />
<line x1="221.68" y1="277.08" x2="221.68" y2="269.04" stroke-width="0.54389" stroke-linecap="round" />
<polyline points="221.68,275.93 222.44,276.7 223.21,277.08 224.36,277.08 225.12,276.7 225.89,275.93 226.27,274.79 226.27,274.02 225.89,272.87 225.12,272.1 224.36,271.72 223.21,271.72 222.44,272.1 221.68,272.87 " stroke-width="0.54389" stroke-linecap="round" stroke-linejoin="round" />
<polyline points="228.95,277.08 228.95,273.25 229.34,272.1 230.1,271.72 231.25,271.72 232.02,272.1 233.17,273.25 " stroke-width="0.54389" stroke-linecap="round" stroke-linejoin="round" />
<line x1="233.17" y1="277.08" x2="233.17" y2="271.72" stroke-width="0.54389" stroke-linecap="round" />
<line x1="236.23" y1="279.76" x2="236.23" y2="271.72" stroke-width="0.54389" stroke-linecap="round" />
<line x1="243.51" y1="277.08" x2="243.51" y2="271.72" stroke-width="0.54389" stroke-linecap="round" />
<polyline points="243.51,275.93 242.74,276.7 241.98,277.08 240.83,277.08 240.06,276.7 239.29,275.93 238.91,274.79 238.91,274.02 239.29,272.87 240.06,272.1 240.83,271.72 241.98,271.72 242.74,272.1 243.51,272.87 " stroke-width="0.54389" stroke-linecap="round" stroke-linejoin="round" />
<polyline points="246.96,279.76 246.96,273.25 247.34,272.1 248.1,271.72 248.87,271.72 " stroke-width="0.54389" stroke-linecap="round" stroke-linejoin="round" />
<line x1="245.81" y1="277.08" x2="248.49" y2="277.08" stroke-width="0.54389" stroke-linecap="round" />
<polygon points="250.79,279.76 251.17,279.38 251.55,279.76 251.17,280.15 " stroke-width="0.54389" stroke-linejoin="round" />
<line x1="251.17" y1="277.08" x2="251.17" y2="271.72" stroke-width="0.54389" stroke-linecap="round" />
<polygon points="255.76,277.08 255,276.7 254.23,275.93 253.85,274.79 253.85,274.02 254.23,272.87 255,272.1 255.76,271.72 256.91,271.72 257.68,272.1 258.45,272.87 258.83,274.02 258.83,274.79 258.45,275.93 257.68,276.7 256.91,277.08 " stroke-width="0.54389" stroke-linejoin="round" />
<line x1="261.51" y1="277.08" x2="261.51" y2="271.72" stroke-width="0.54389" stroke-linecap="round" />
<polyline points="261.51,275.55 262.66,276.7 263.43,277.08 264.57,277.08 265.34,276.7 265.72,275.55 265.72,271.72 " stroke-width="0.54389" stroke-linecap="round" stroke-linejoin="round" />
<polyline points="269.17,279 268.79,279.38 269.17,279.76 269.55,279.38 269.55,278.62 269.17,277.85 268.79,277.47 " stroke-width="0.54389" stroke-linecap="round" stroke-linejoin="round" />
<polyline points="276.45,275.93 276.07,276.7 274.92,277.08 273.77,277.08 272.62,276.7 272.23,275.93 272.62,275.17 273.38,274.79 275.3,274.4 276.07,274.02 276.45,273.25 276.45,272.87 276.07,272.1 274.92,271.72 273.77,271.72 272.62,272.1 272.23,272.87 " stroke-width="0.54389" stroke-linecap="round" stroke-linejoin="round" />
<line x1="289.47" y1="277.08" x2="289.47" y2="271.72" stroke-width="0.54389" stroke-linecap="round" />
<polyline points="289.47,275.93 288.7,276.7 287.94,277.08 286.79,277.08 286.02,276.7 285.26,275.93 284.87,274.79 284.87,274.02 285.26,272.87 286.02,272.1 286.79,271.72 287.94,271.72 288.7,272.1 289.47,272.87 " stroke-width="0.54389" stroke-linecap="round" stroke-linejoin="round" />
<line x1="291.77" y1="277.08" x2="294.07" y2="271.72" stroke-width="0.54389" stroke-linecap="round" />
<line x1="296.37" y1="277.08" x2="294.07" y2="271.72" stroke-width="0.54389" stroke-linecap="round" />
<polyline points="298.28,274.79 302.88,274.79 302.88,275.55 302.49,276.32 302.11,276.7 301.34,277.08 300.2,277.08 299.43,276.7 298.66,275.93 298.28,274.79 298.28,274.02 298.66,272.87 299.43,272.1 300.2,271.72 301.34,271.72 302.11,272.1 302.88,272.87 " stroke-width="0.54389" stroke-linecap="round" stroke-linejoin="round" />
<line x1="305.56" y1="277.08" x2="305.56" y2="271.72" stroke-width="0.54389" stroke-linecap="round" />
<polyline points="305.56,274.79 305.94,275.93 306.71,276.7 307.47,277.08 308.62,277.08 " stroke-width="0.54389" stroke-linecap="round" stroke-linejoin="round" />
<line x1="314.75" y1="277.08" x2="314.75" y2="271.72" stroke-width="0.54389" stroke-linecap="round" />
<polyline points="314.75,275.93 313.98,276.7 313.22,277.08 312.07,277.08 311.3,276.7 310.54,275.93 310.15,274.79 310.15,274.02 310.54,272.87 311.3,272.1 312.07,271.72 313.22,271.72 313.98,272.1 314.75,272.87 " stroke-width="0.54389" stroke-linecap="round" stroke-linejoin="round" />
<polyline points="322.03,277.08 322.03,270.96 321.64,269.81 321.26,269.42 320.5,269.04 319.35,269.04 318.58,269.42 " stroke-width="0.54389" stroke-linecap="round" stroke-linejoin="round" />
<polyline points="322.03,275.93 321.26,276.7 320.5,277.08 319.35,277.08 318.58,276.7 317.81,275.93 317.43,274.79 317.43,274.02 317.81,272.87 318.58,272.1 319.35,271.72 320.5,271.72 321.26,272.1 322.03,272.87 " stroke-width="0.54389" stroke-linecap="round" stroke-linejoin="round" />
<polyline points="324.71,274.79 329.31,274.79 329.31,275.55 328.92,276.32 328.54,276.7 327.77,277.08 326.62,277.08 325.86,276.7 325.09,275.93 324.71,274.79 324.71,274.02 325.09,272.87 325.86,272.1 326.62,271.72 327.77,271.72 328.54,272.1 329.31,272.87 " stroke-width="0.54389" stroke-linecap="round" stroke-linejoin="round" />
<line x1="342.33" y1="277.08" x2="342.33" y2="271.72" stroke-width="0.54389" stroke-linecap="round" />
<polyline points="342.33,275.93 341.56,276.7 340.8,277.08 339.65,277.08 338.88,276.7 338.11,275.93 337.73,274.79 337.73,274.02 338.11,272.87 338.88,272.1 339.65,271.72 340.8,271.72 341.56,272.1 342.33,272.87 " stroke-width="0.54389" stroke-linecap="round" stroke-linejoin="round" />
<line x1="345.39" y1="277.08" x2="345.39" y2="271.72" stroke-width="0.54389" stroke-linecap="round" />
<polyline points="345.39,275.55 346.54,276.7 347.31,277.08 348.46,277.08 349.22,276.7 349.61,275.55 349.61,271.72 " stroke-width="0.54389" stroke-linecap="round" stroke-linejoin="round" />
<line x1="356.88" y1="279.76" x2="356.88" y2="271.72" stroke-width="0.54389" stroke-linecap="round" />
<polyline points="356.88,275.93 356.12,276.7 355.35,277.08 354.2,277.08 353.44,276.7 352.67,275.93 352.29,274.79 352.29,274.02 352.67,272.87 353.44,272.1 354.2,271.72 355.35,271.72 356.12,272.1 356.88,272.87 " stroke-width="0.54389" stroke-linecap="round" stroke-linejoin="round" />
<line x1="366.08" y1="279.76" x2="366.08" y2="271.72" stroke-width="0.54389" stroke-linecap="round" />
<polyline points="366.08,275.93 366.84,276.7 367.61,277.08 368.76,277.08 369.52,276.7 370.29,275.93 370.67,274.79 370.67,274.02 370.29,272.87 369.52,272.1 368.76,271.72 367.61,271.72 366.84,272.1 366.08,272.87 " stroke-width="0.54389" stroke-linecap="round" stroke-linejoin="round" />
<polyline points="372.97,274.79 377.57,274.79 377.57,275.55 377.18,276.32 376.8,276.7 376.03,277.08 374.88,277.08 374.12,276.7 373.35,275.93 372.97,274.79 372.97,274.02 373.35,272.87 374.12,272.1 374.88,271.72 376.03,271.72 376.8,272.1 377.57,272.87 " stroke-width="0.54389" stroke-linecap="round" stroke-linejoin="round" />
<polyline points="384.08,275.93 383.69,276.7 382.55,277.08 381.4,277.08 380.25,276.7 379.86,275.93 380.25,275.17 381.01,274.79 382.93,274.4 383.69,274.02 384.08,273.25 384.08,272.87 383.69,272.1 382.55,271.72 381.4,271.72 380.25,272.1 379.86,272.87 " stroke-width="0.54389" stroke-linecap="round" stroke-linejoin="round" />
<polyline points="387.14,279.76 387.14,273.25 387.52,272.1 388.29,271.72 389.06,271.72 " stroke-width="0.54389" stroke-linecap="round" stroke-linejoin="round" />
<line x1="385.99" y1="277.08" x2="388.67" y2="277.08" stroke-width="0.54389" stroke-linecap="round" />
<polyline points="399.78,279.76 399.02,279.76 398.25,279.38 397.87,278.23 397.87,271.72 " stroke-width="0.54389" stroke-linecap="round" stroke-linejoin="round" />
<line x1="396.72" y1="277.08" x2="399.4" y2="277.08" stroke-width="0.54389" stroke-linecap="round" />
<polygon points="401.7,279.76 402.08,279.38 402.46,279.76 402.08,280.15 " stroke-width="0.54389" stroke-linejoin="round" />
<line x1="402.08" y1="277.08" x2="402.08" y2="271.72" stroke-width="0.54389" stroke-linecap="round" />
<polyline points="405.53,279.76 405.53,273.25 405.91,272.1 406.68,271.72 407.44,271.72 " stroke-width="0.54389" stroke-linecap="round" stroke-linejoin="round" />
<line x1="404.38" y1="277.08" x2="407.06" y2="277.08" stroke-width="0.54389" stroke-linecap="round" />
<line x1="409.74" y1="277.08" x2="409.74" y2="271.72" stroke-width="0.54389" stroke-linecap="round" />
<polyline points="409.74,275.55 410.89,276.7 411.66,277.08 412.8,277.08 413.57,276.7 413.95,275.55 413.95,271.72 " stroke-width="0.54389" stroke-linecap="round" stroke-linejoin="round" />
<polyline points="416.63,274.79 421.23,274.79 421.23,275.55 420.85,276.32 420.46,276.7 419.7,277.08 418.55,277.08 417.78,276.7 417.02,275.93 416.63,274.79 416.63,274.02 417.02,272.87 417.78,272.1 418.55,271.72 419.7,271.72 420.46,272.1 421.23,272.87 " stroke-width="0.54389" stroke-linecap="round" stroke-linejoin="round" />
<polyline points="427.74,275.93 427.36,276.7 426.21,277.08 425.06,277.08 423.91,276.7 423.53,275.93 423.91,275.17 424.68,274.79 426.59,274.4 427.36,274.02 427.74,273.25 427.74,272.87 427.36,272.1 426.21,271.72 425.06,271.72 423.91,272.1 423.53,272.87 " stroke-width="0.54389" stroke-linecap="round" stroke-linejoin="round" />
<polyline points="434.25,275.93 433.87,276.7 432.72,277.08 431.57,277.08 430.42,276.7 430.04,275.93 430.42,275.17 431.19,274.79 433.1,274.4 433.87,274.02 434.25,273.25 434.25,272.87 433.87,272.1 432.72,271.72 431.57,271.72 430.42,272.1 430.04,272.87 " stroke-width="0.54389" stroke-linecap="round" stroke-linejoin="round" />
<polyline points="92.942,164.27 93.853,164.27 94.763,174.35 95.674,184.43 96.584,174.35 97.495,174.35 98.405,164.27 99.316,164.27 100.23,174.35 101.14,174.35 102.05,194.51 102.96,164.27 103.87,204.59 104.78,184.43 105.69,194.51 106.6,214.67 107.51,184.43 108.42,174.35 109.33,174.35 110.24,204.59 111.15,164.27 112.06,174.35 112.97,184.43 113.88,164.27 114.79,164.27 115.7,184.43 116.62,184.43 117.53,194.51 118.44,174.35 119.35,184.43 120.26,164.27 121.17,184.43 122.08,184.43 122.99,184.43 123.9,194.51 124.81,164.27 125.72,164.27 126.63,204.59 127.54,174.35 128.45,184.43 129.36,174.35 130.27,164.27 131.18,164.27 132.09,174.35 133,194.51 133.91,194.51 134.83,174.35 135.74,164.27 136.65,174.35 137.56,164.27 138.47,184.43 139.38,184.43 140.29,174.35 141.2,174.35 142.11,204.59 143.02,194.51 143.93,214.67 144.84,174.35 145.75,184.43 146.66,184.43 147.57,164.27 148.48,184.43 149.39,164.27 150.3,174.35 151.21,194.51 152.12,174.35 153.04,164.27 153.95,164.27 154.86,184.43 155.77,164.27 156.68,164.27 157.59,184.43 158.5,174.35 159.41,164.27 160.32,164.27 161.23,184.43 162.14,174.35 163.05,144.12 163.96,154.2 164.87,184.43 165.78,184.43 166.69,184.43 167.6,174.35 168.51,184.43 169.42,184.43 170.33,194.51 171.25,174.35 172.16,184.43 173.07,154.2 173.98,174.35 174.89,154.2 175.8,174.35 176.71,184.43 177.62,174.35 178.53,174.35 179.44,164.27 180.35,184.43 181.26,184.43 182.17,174.35 183.08,174.35 183.99,184.43 184.9,174.35 185.81,184.43 186.72,154.2 187.63,174.35 188.55,154.2 189.46,174.35 190.37,164.27 191.28,174.35 192.19,164.27 193.1,184.43 194.01,164.27 194.92,174.35 195.83,184.43 196.74,164.27 197.65,184.43 198.56,174.35 199.47,174.35 200.38,174.35 201.29,184.43 202.2,174.35 203.11,164.27 204.02,154.2 204.93,174.35 205.84,184.43 206.76,184.43 207.67,184.43 208.58,184.43 209.49,164.27 210.4,184.43 211.31,174.35 212.22,164.27 213.13,174.35 214.04,164.27 214.95,164.27 215.86,184.43 216.77,174.35 217.68,184.43 218.59,174.35 219.5,174.35 220.41,164.27 221.32,194.51 222.23,184.43 223.14,184.43 224.05,164.27 224.97,194.51 225.88,184.43 226.79,204.59 227.7,164.27 228.61,194.51 229.52,174.35 230.43,174.35 231.34,194.51 232.25,174.35 233.16,194.51 234.07,184.43 234.98,194.51 235.89,184.43 236.8,184.43 237.71,174.35 238.62,184.43 239.53,194.51 240.44,184.43 241.35,174.35 242.26,184.43 243.18,184.43 244.09,174.35 245,174.35 245.91,184.43 246.82,184.43 247.73,154.2 248.64,164.27 249.55,164.27 250.46,184.43 251.37,174.35 252.28,184.43 253.19,174.35 254.1,184.43 255.01,174.35 255.92,164.27 256.83,184.43 257.74,174.35 258.65,174.35 259.56,184.43 260.47,184.43 261.39,174.35 262.3,174.35 263.21,164.27 264.12,184.43 265.03,174.35 265.94,184.43 266.85,194.51 267.76,184.43 268.67,194.51 269.58,184.43 270.49,194.51 271.4,174.35 272.31,174.35 273.22,204.59 274.13,184.43 275.04,174.35 275.95,154.2 276.86,174.35 277.77,184.43 278.68,174.35 279.6,164.27 280.51,174.35 281.42,184.43 282.33,194.51 283.24,204.59 284.15,214.67 285.06,184.43 285.97,194.51 286.88,174.35 287.79,204.59 288.7,194.51 289.61,184.43 290.52,174.35 291.43,174.35 292.34,184.43 293.25,184.43 294.16,194.51 295.07,184.43 295.98,184.43 296.89,204.59 297.81,174.35 298.72,184.43 299.63,194.51 300.54,194.51 301.45,184.43 302.36,194.51 303.27,194.51 304.18,174.35 305.09,194.51 306,194.51 306.91,164.27 307.82,174.35 308.73,204.59 309.64,184.43 310.55,184.43 311.46,184.43 312.37,194.51 313.28,194.51 314.19,174.35 315.1,194.51 316.02,194.51 316.93,194.51 317.84,194.51 318.75,174.35 319.66,204.59 320.57,184.43 321.48,174.35 322.39,184.43 323.3,184.43 324.21,194.51 325.12,164.27 326.03,184.43 326.94,174.35 327.85,174.35 328.76,174.35 329.67,194.51 330.58,194.51 331.49,184.43 332.4,204.59 333.31,184.43 334.23,174.35 335.14,194.51 336.05,154.2 336.96,174.35 337.87,184.43 338.78,184.43 339.69,194.51 340.6,174.35 341.51,184.43 342.42,194.51 343.33,174.35 344.24,174.35 345.15,184.43 346.06,184.43 346.97,184.43 347.88,174.35 348.79,174.35 349.7,184.43 350.61,184.43 351.52,184.43 352.44,184.43 353.35,204.59 354.26,164.27 355.17,174.35 356.08,184.43 356.99,194.51 357.9,184.43 358.81,204.59 359.72,174.35 360.63,184.43 361.54,194.51 362.45,184.43 363.36,174.35 364.27,184.43 365.18,194.51 366.09,164.27 367,174.35 367.91,174.35 368.82,184.43 369.74,194.51 370.65,174.35 371.56,184.43 372.47,194.51 373.38,194.51 374.29,184.43 375.2,204.59 376.11,194.51 377.02,184.43 377.93,194.51 378.84,234.83 379.75,214.67 380.66,214.67 381.57,204.59 382.48,204.59 383.39,194.51 384.3,204.59 385.21,204.59 386.12,184.43 387.03,214.67 387.95,184.43 388.86,234.83 389.77,224.75 390.68,214.67 391.59,214.67 392.5,224.75 393.41,194.51 394.32,224.75 395.23,204.59 396.14,224.75 397.05,224.75 397.96,224.75 398.87,204.59 399.78,204.59 400.69,204.59 401.6,244.91 402.51,194.51 403.42,204.59 404.33,214.67 405.24,214.67 406.16,214.67 407.07,214.67 407.98,224.75 408.89,244.91 409.8,234.83 410.71,204.59 411.62,224.75 412.53,214.67 413.44,214.67 414.35,234.83 415.26,234.83 416.17,224.75 417.08,224.75 417.99,204.59 418.9,204.59 419.81,234.83 420.72,214.67 421.63,214.67 422.54,204.59 423.45,224.75 424.37,234.83 425.28,234.83 426.19,234.83 427.1,234.83 428.01,224.75 428.92,214.67 429.83,204.59 430.74,234.83 431.65,234.83 432.56,224.75 433.47,224.75 434.38,214.67 435.29,214.67 436.2,224.75 437.11,234.83 438.02,224.75 438.93,224.75 439.84,244.91 440.75,224.75 441.66,234.83 442.58,224.75 443.49,224.75 444.4,244.91 445.31,224.75 446.22,244.91 447.13,224.75 448.04,224.75 448.95,224.75 449.86,224.75 450.77,224.75 451.68,234.83 452.59,234.83 453.5,204.59 454.41,234.83 455.32,214.67 456.23,184.43 457.14,234.83 458.05,204.59 458.96,244.91 459.87,234.83 460.79,224.75 461.7,234.83 462.61,214.67 463.52,234.83 464.43,224.75 465.34,224.75 466.25,224.75 467.16,234.83 468.07,224.75 468.98,224.75 469.89,234.83 470.8,224.75 471.71,224.75 472.62,224.75 473.53,224.75 474.44,234.83 475.35,234.83 476.26,204.59 477.17,214.67 478.08,214.67 479,234.83 479.91,204.59 480.82,194.51 481.73,214.67 482.64,234.83 483.55,214.67 484.46,214.67 485.37,224.75 486.28,224.75 487.19,224.75 488.1,224.75 489.01,214.67 489.92,224.75 490.83,204.59 491.74,224.75 492.65,224.75 493.56,224.75 494.47,204.59 495.38,224.75 496.29,214.67 497.21,214.67 498.12,214.67 499.03,224.75 499.94,224.75 500.85,214.67 501.76,224.75 502.67,234.83 503.58,214.67 504.49,234.83 505.4,204.59 506.31,214.67 507.22,194.51 508.13,224.75 509.04,224.75 509.95,234.83 510.86,214.67 511.77,224.75 512.68,204.59 513.59,224.75 514.5,224.75 515.42,204.59 516.33,244.91 517.24,204.59 518.15,244.91 519.06,204.59 519.97,234.83 520.88,224.75 521.79,214.67 522.7,224.75 523.61,224.75 524.52,234.83 525.43,224.75 526.34,234.83 527.25,234.83 528.16,224.75 529.07,224.75 529.98,234.83 530.89,244.91 531.8,224.75 532.71,214.67 533.63,224.75 534.54,214.67 535.45,224.75 536.36,214.67 537.27,244.91 538.18,214.67 539.09,244.91 540,234.83 540.91,244.91 541.82,204.59 542.73,234.83 543.64,234.83 544.55,224.75 545.46,254.99 546.37,204.59 547.28,224.75 " stroke="red" stroke-width="0.42132" />
<polyline points="92.942,77.088 93.853,76.281 94.763,75.173 95.674,82.631 96.584,70.637 97.495,67.512 98.405,77.39 99.316,71.746 100.23,81.926 101.14,73.56 102.05,73.258 102.96,73.862 103.87,69.629 104.78,78.197 105.69,66 106.6,76.886 107.51,77.088 108.42,76.483 109.33,77.289 110.24,77.793 111.15,74.064 112.06,76.987 112.97,71.847 113.88,80.212 114.79,76.785 115.7,78.701 116.62,82.531 117.53,77.592 118.44,77.995 119.35,79.406 120.26,72.552 121.17,69.125 122.08,74.467 122.99,76.685 123.9,76.886 124.81,70.234 125.72,79.305 126.63,77.693 127.54,70.839 128.45,73.056 129.36,66.504 130.27,74.87 131.18,76.08 132.09,76.181 133,74.568 133.91,76.382 134.83,71.645 135.74,72.955 136.65,80.313 137.56,76.483 138.47,69.73 139.38,68.218 140.29,78.902 141.2,74.266 142.11,71.242 143.02,73.963 143.93,66.908 144.84,72.653 145.75,75.777 146.66,67.916 147.57,66.303 148.48,70.939 149.39,70.032 150.3,72.854 151.21,65.295 152.12,82.934 153.04,65.9 153.95,76.382 154.86,81.724 155.77,77.088 156.68,68.52 157.59,69.73 158.5,85.857 159.41,74.467 160.32,72.149 161.23,75.072 162.14,71.746 163.05,64.489 163.96,74.87 164.87,75.677 165.78,68.722 166.69,72.552 167.6,84.446 168.51,71.847 169.42,76.08 170.33,77.793 171.25,73.56 172.16,73.258 173.07,72.048 173.98,72.35 174.89,69.831 175.8,73.459 176.71,77.894 177.62,81.926 178.53,75.374 179.44,72.854 180.35,83.841 181.26,79.708 182.17,79.91 183.08,77.491 183.99,74.77 184.9,76.584 185.81,76.08 186.72,73.56 187.63,72.25 188.55,70.335 189.46,70.637 190.37,67.714 191.28,74.568 192.19,69.226 193.1,67.311 194.01,73.056 194.92,71.343 195.83,68.016 196.74,78.6 197.65,78.297 198.56,63.985 199.47,79.608 200.38,77.995 201.29,76.382 202.2,73.56 203.11,67.512 204.02,68.42 204.93,76.987 205.84,72.451 206.76,77.592 207.67,70.536 208.58,75.777 209.49,70.939 210.4,74.669 211.31,73.056 212.22,73.661 213.13,78.096 214.04,72.35 214.95,71.645 215.86,81.523 216.77,74.366 217.68,76.987 218.59,67.512 219.5,70.435 220.41,62.069 221.32,74.669 222.23,76.483 223.14,81.624 224.05,63.38 224.97,73.056 225.88,84.647 226.79,80.011 227.7,71.746 228.61,81.22 229.52,74.266 230.43,72.854 231.34,66.101 232.25,78.499 233.16,79.305 234.07,78.297 234.98,77.995 235.89,72.653 236.8,77.189 237.71,66.605 238.62,81.019 239.53,69.73 240.44,87.974 241.35,70.637 242.26,77.189 243.18,70.536 244.09,81.523 245,74.165 245.91,80.616 246.82,81.321 247.73,69.024 248.64,68.016 249.55,71.443 250.46,76.886 251.37,74.87 252.28,82.531 253.19,75.576 254.1,81.724 255.01,75.374 255.92,75.777 256.83,70.939 257.74,76.987 258.65,77.793 259.56,84.95 260.47,69.528 261.39,73.56 262.3,73.056 263.21,71.544 264.12,76.584 265.03,73.459 265.94,71.544 266.85,80.918 267.76,71.343 268.67,76.382 269.58,74.87 270.49,71.947 271.4,73.056 272.31,76.886 273.22,74.165 274.13,65.396 275.04,67.412 275.95,71.847 276.86,74.064 277.77,82.128 278.68,77.491 279.6,73.358 280.51,66.908 281.42,78.197 282.33,67.613 283.24,74.971 284.15,78.902 285.06,64.489 285.97,74.77 286.88,77.592 287.79,76.281 288.7,65.799 289.61,67.008 290.52,73.963 291.43,72.451 292.34,73.459 293.25,75.677 294.16,75.777 295.07,78.801 295.98,80.716 296.89,81.523 297.81,74.467 298.72,74.467 299.63,77.39 300.54,71.847 301.45,77.491 302.36,79.708 303.27,87.268 304.18,76.483 305.09,81.22 306,73.862 306.91,72.854 307.82,81.019 308.73,83.841 309.64,81.724 310.55,74.77 311.46,72.955 312.37,82.934 313.28,69.327 314.19,71.343 315.1,79.708 316.02,72.35 316.93,87.167 317.84,74.87 318.75,74.87 319.66,82.531 320.57,78.499 321.48,68.923 322.39,81.422 323.3,75.878 324.21,76.382 325.12,71.343 326.03,84.446 326.94,75.777 327.85,71.645 328.76,82.732 329.67,73.762 330.58,79.204 331.49,67.916 332.4,79.204 333.31,79.406 334.23,78.197 335.14,71.04 336.05,69.024 336.96,73.258 337.87,72.149 338.78,73.358 339.69,76.08 340.6,69.831 341.51,85.353 342.42,74.064 343.33,78.197 344.24,75.777 345.15,79.104 346.06,72.854 346.97,75.475 347.88,78.902 348.79,74.064 349.7,77.894 350.61,79.406 351.52,78.398 352.44,80.716 353.35,75.677 354.26,70.234 355.17,77.793 356.08,66.202 356.99,73.963 357.9,78.902 358.81,82.128 359.72,70.839 360.63,69.73 361.54,76.886 362.45,78.398 363.36,77.592 364.27,66.807 365.18,69.125 366.09,65.597 367,77.088 367.91,77.995 368.82,75.777 369.74,89.082 370.65,72.149 371.56,83.539 372.47,74.568 373.38,83.035 374.29,79.708 375.2,79.809 376.11,72.35 377.02,77.592 377.93,80.918 378.84,83.438 379.75,78.701 380.66,90.393 381.57,80.414 382.48,83.337 383.39,80.918 384.3,71.544 385.21,86.865 386.12,84.95 387.03,83.236 387.95,80.716 388.86,78.801 389.77,83.841 390.68,77.693 391.59,81.019 392.5,82.027 393.41,81.019 394.32,89.284 395.23,74.467 396.14,86.764 397.05,84.647 397.96,89.687 398.87,94.324 399.78,83.438 400.69,88.276 401.6,92.509 402.51,80.112 403.42,94.626 404.33,85.857 405.24,81.019 406.16,86.865 407.07,84.849 407.98,92.61 408.89,96.239 409.8,91.602 410.71,90.493 411.62,101.68 412.53,92.711 413.44,84.345 414.35,92.408 415.26,88.478 416.17,82.631 417.08,85.555 417.99,89.385 418.9,82.631 419.81,106.92 420.72,80.414 421.63,92.509 422.54,101.58 423.45,92.61 424.37,85.756 425.28,81.523 426.19,97.65 427.1,87.772 428.01,94.324 428.92,90.897 429.83,84.446 430.74,84.547 431.65,85.857 432.56,91.501 433.47,93.92 434.38,85.655 435.29,92.207 436.2,89.989 437.11,102.79 438.02,92.61 438.93,93.92 439.84,87.268 440.75,92.61 441.66,90.594 442.58,97.247 443.49,93.416 444.4,96.944 445.31,91.501 446.22,87.873 447.13,90.09 448.04,92.61 448.95,93.114 449.86,97.448 450.77,89.788 451.68,99.363 452.59,98.355 453.5,83.539 454.41,98.456 455.32,87.974 456.23,86.663 457.14,89.183 458.05,93.013 458.96,91.703 459.87,82.027 460.79,99.867 461.7,93.82 462.61,96.339 463.52,95.029 464.43,82.228 465.34,105.21 466.25,87.974 467.16,95.936 468.07,93.92 468.98,92.61 469.89,83.539 470.8,92.912 471.71,95.634 472.62,84.345 473.53,86.562 474.44,90.997 475.35,98.557 476.26,81.12 477.17,91.199 478.08,89.989 479,95.231 479.91,87.57 480.82,87.167 481.73,80.112 482.64,87.47 483.55,81.624 484.46,82.228 485.37,93.82 486.28,93.719 487.19,87.772 488.1,94.021 489.01,72.854 489.92,90.493 490.83,94.828 491.74,92.912 492.65,86.663 493.56,84.849 494.47,89.385 495.38,77.693 496.29,87.974 497.21,88.881 498.12,85.655 499.03,81.422 499.94,103.9 500.85,91.905 501.76,86.562 502.67,92.207 503.58,91.905 504.49,91.199 505.4,81.321 506.31,93.517 507.22,89.788 508.13,90.191 509.04,95.634 509.95,92.711 510.86,95.835 511.77,88.377 512.68,81.321 513.59,93.82 514.5,87.167 515.42,80.918 516.33,89.989 517.24,87.369 518.15,87.671 519.06,82.631 519.97,88.78 520.88,100.37 521.79,87.369 522.7,94.828 523.61,88.175 524.52,91.602 525.43,85.555 526.34,94.828 527.25,101.08 528.16,88.578 529.07,94.928 529.98,88.881 530.89,88.679 531.8,84.849 532.71,83.135 533.63,94.928 534.54,89.082 535.45,99.565 536.36,83.035 537.27,95.835 538.18,83.942 539.09,83.942 540,103.5 540.91,92.711 541.82,87.268 542.73,91.804 543.64,104.81 544.55,98.759 545.46,94.424 546.37,80.716 547.28,92.408 " stroke="blue" stroke-width="0.42132" />
<line x1="570" y1="53.401" x2="566.84" y2="53.401" stroke-width="0.70588" />
<line x1="570" y1="63.481" x2="566.84" y2="63.481" stroke-width="0.70588" />
<line x1="570" y1="73.56" x2="566.84" y2="73.56" stroke-width="0.70588" />
<line x1="570" y1="83.639" x2="566.84" y2="83.639" stroke-width="0.70588" />
<line x1="570" y1="93.719" x2="566.84" y2="93.719" stroke-width="0.70588" />
<line x1="570" y1="103.8" x2="566.84" y2="103.8" stroke-width="0.70588" />
<line x1="570" y1="113.88" x2="566.84" y2="113.88" stroke-width="0.70588" />
<line x1="570" y1="123.96" x2="566.84" y2="123.96" stroke-width="0.70588" />
<line x1="570" y1="134.04" x2="566.84" y2="134.04" stroke-width="0.70588" />
<line x1="570" y1="144.12" x2="566.84" y2="144.12" stroke-width="0.70588" />
<line x1="570" y1="154.2" x2="566.84" y2="154.2" stroke-width="0.70588" />
<line x1="570" y1="164.27" x2="566.84" y2="164.27" stroke-width="0.70588" />
<line x1="570" y1="174.35" x2="566.84" y2="174.35" stroke-width="0.70588" />
<line x1="570" y1="184.43" x2="566.84" y2="184.43" stroke-width="0.70588" />
<line x1="570" y1="194.51" x2="566.84" y2="194.51" stroke-width="0.70588" />
<line x1="570" y1="204.59" x2="566.84" y2="204.59" stroke-width="0.70588" />
<line x1="570" y1="214.67" x2="566.84" y2="214.67" stroke-width="0.70588" />
<line x1="570" y1="224.75" x2="566.84" y2="224.75" stroke-width="0.70588" />
<line x1="570" y1="234.83" x2="566.84" y2="234.83" stroke-width="0.70588" />
<line x1="570" y1="244.91" x2="566.84" y2="244.91" stroke-width="0.70588" />
<line x1="570" y1="254.99" x2="566.84" y2="254.99" stroke-width="0.70588" />
<line x1="570" y1="83.639" x2="563.68" y2="83.639" stroke-width="0.70588" />
<line x1="570" y1="134.04" x2="563.68" y2="134.04" stroke-width="0.70588" />
<line x1="570" y1="184.43" x2="563.68" y2="184.43" stroke-width="0.70588" />
<line x1="570" y1="234.83" x2="563.68" y2="234.83" stroke-width="0.70588" />
<line x1="570" y1="52.423" x2="570" y2="264.64" stroke-width="0.70588" />
<line x1="74.732" y1="264.64" x2="74.732" y2="261.48" stroke-width="0.70588" />
<line x1="92.942" y1="264.64" x2="92.942" y2="261.48" stroke-width="0.70588" />
<line x1="111.15" y1="264.64" x2="111.15" y2="261.48" stroke-width="0.70588" />
<line x1="129.36" y1="264.64" x2="129.36" y2="261.48" stroke-width="0.70588" />
<line x1="147.57" y1="264.64" x2="147.57" y2="261.48" stroke-width="0.70588" />
<line x1="165.78" y1="264.64" x2="165.78" y2="261.48" stroke-width="0.70588" />
<line x1="183.99" y1="264.64" x2="183.99" y2="261.48" stroke-width="0.70588" />
<line x1="202.2" y1="264.64" x2="202.2" y2="261.48" stroke-width="0.70588" />
<line x1="220.41" y1="264.64" x2="220.41" y2="261.48" stroke-width="0.70588" />
<line x1="238.62" y1="264.64" x2="238.62" y2="261.48" stroke-width="0.70588" />
<line x1="256.83" y1="264.64" x2="256.83" y2="261.48" stroke-width="0.70588" />
<line x1="275.04" y1="264.64" x2="275.04" y2="261.48" stroke-width="0.70588" />
<line x1="293.25" y1="264.64" x2="293.25" y2="261.48" stroke-width="0.70588" />
<line x1="311.46" y1="264.64" x2="311.46" y2="261.48" stroke-width="0.70588" />
<line x1="329.67" y1="264.64" x2="329.67" y2="261.48" stroke-width="0.70588" />
<line x1="347.88" y1="264.64" x2="347.88" y2="261.48" stroke-width="0.70588" />
<line x1="366.09" y1="264.64" x2="366.09" y2="261.48" stroke-width="0.70588" />
<line x1="384.3" y1="264.64" x2="384.3" y2="261.48" stroke-width="0.70588" />
<line x1="402.51" y1="264.64" x2="402.51" y2="261.48" stroke-width="0.70588" />
<line x1="420.72" y1="264.64" x2="420.72" y2="261.48" stroke-width="0.70588" />
<line x1="438.93" y1="264.64" x2="438.93" y2="261.48" stroke-width="0.70588" />
<line x1="457.14" y1="264.64" x2="457.14" y2="261.48" stroke-width="0.70588" />
<line x1="475.35" y1="264.64" x2="475.35" y2="261.48" stroke-width="0.70588" />
<line x1="493.56" y1="264.64" x2="493.56" y2="261.48" stroke-width="0.70588" />
<line x1="511.77" y1="264.64" x2="511.77" y2="261.48" stroke-width="0.70588" />
<line x1="529.98" y1="264.64" x2="529.98" y2="261.48" stroke-width="0.70588" />
<line x1="548.19" y1="264.64" x2="548.19" y2="261.48" stroke-width="0.70588" />
<line x1="566.4" y1="264.64" x2="566.4" y2="261.48" stroke-width="0.70588" />
<line x1="92.942" y1="264.64" x2="92.942" y2="258.32" stroke-width="0.70588" />
<line x1="183.99" y1="264.64" x2="183.99" y2="258.32" stroke-width="0.70588" />
<line x1="275.04" y1="264.64" x2="275.04" y2="258.32" stroke-width="0.70588" />
<line x1="366.09" y1="264.64" x2="366.09" y2="258.32" stroke-width="0.70588" />
<line x1="457.14" y1="264.64" x2="457.14" y2="258.32" stroke-width="0.70588" />
<line x1="548.19" y1="264.64" x2="548.19" y2="258.32" stroke-width="0.70588" />
<line x1="70.225" y1="264.64" x2="570" y2="264.64" stroke-width="0.70588" />
<line x1="70.225" y1="53.401" x2="73.385" y2="53.401" stroke-width="0.70588" />
<line x1="70.225" y1="63.481" x2="73.385" y2="63.481" stroke-width="0.70588" />
<line x1="70.225" y1="73.56" x2="73.385" y2="73.56" stroke-width="0.70588" />
<line x1="70.225" y1="83.639" x2="73.385" y2="83.639" stroke-width="0.70588" />
<line x1="70.225" y1="93.719" x2="73.385" y2="93.719" stroke-width="0.70588" />
<line x1="70.225" y1="103.8" x2="73.385" y2="103.8" stroke-width="0.70588" />
<line x1="70.225" y1="113.88" x2="73.385" y2="113.88" stroke-width="0.70588" />
<line x1="70.225" y1="123.96" x2="73.385" y2="123.96" stroke-width="0.70588" />
<line x1="70.225" y1="134.04" x2="73.385" y2="134.04" stroke-width="0.70588" />
<line x1="70.225" y1="144.12" x2="73.385" y2="144.12" stroke-width="0.70588" />
<line x1="70.225" y1="154.2" x2="73.385" y2="154.2" stroke-width="0.70588" />
<line x1="70.225" y1="164.27" x2="73.385" y2="164.27" stroke-width="0.70588" />
<line x1="70.225" y1="174.35" x2="73.385" y2="174.35" stroke-width="0.70588" />
<line x1="70.225" y1="184.43" x2="73.385" y2="184.43" stroke-width="0.70588" />
<line x1="70.225" y1="194.51" x2="73.385" y2="194.51" stroke-width="0.70588" />
<line x1="70.225" y1="204.59" x2="73.385" y2="204.59" stroke-width="0.70588" />
<line x1="70.225" y1="214.67" x2="73.385" y2="214.67" stroke-width="0.70588" />
<line x1="70.225" y1="224.75" x2="73.385" y2="224.75" stroke-width="0.70588" />
<line x1="70.225" y1="234.83" x2="73.385" y2="234.83" stroke-width="0.70588" />
<line x1="70.225" y1="244.91" x2="73.385" y2="244.91" stroke-width="0.70588" />
<line x1="70.225" y1="254.99" x2="73.385" y2="254.99" stroke-width="0.70588" />
<line x1="70.225" y1="83.639" x2="76.545" y2="83.639" stroke-width="0.70588" />
<line x1="70.225" y1="134.04" x2="76.545" y2="134.04" stroke-width="0.70588" />
<line x1="70.225" y1="184.43" x2="76.545" y2="184.43" stroke-width="0.70588" />
<line x1="70.225" y1="234.83" x2="76.545" y2="234.83" stroke-width="0.70588" />
<line x1="70.225" y1="52.423" x2="70.225" y2="264.64" stroke-width="0.70588" />
<polyline points="50.883,86.704 51.649,87.087 52.798,88.236 52.798,80.192 " stroke-width="0.54389" stroke-linecap="round" stroke-linejoin="round" />
<polygon points="59.692,88.236 58.543,87.853 57.777,86.704 57.394,84.788 57.394,83.639 57.777,81.724 58.543,80.575 59.692,80.192 60.458,80.192 61.607,80.575 62.373,81.724 62.756,83.639 62.756,84.788 62.373,86.704 61.607,87.853 60.458,88.236 " stroke-width="0.54389" stroke-linejoin="round" />
<polyline points="50.883,137.1 51.649,137.48 52.798,138.63 52.798,130.59 " stroke-width="0.54389" stroke-linecap="round" stroke-linejoin="round" />
<polyline points="61.99,138.63 58.16,138.63 57.777,135.19 58.16,135.57 59.309,135.95 60.458,135.95 61.607,135.57 62.373,134.8 62.756,133.65 62.756,132.89 62.373,131.74 61.607,130.97 60.458,130.59 59.309,130.59 58.16,130.97 57.777,131.36 57.394,132.12 " stroke-width="0.54389" stroke-linecap="round" stroke-linejoin="round" />
<polyline points="50.117,187.11 50.117,187.5 50.5,188.26 50.883,188.65 51.649,189.03 53.181,189.03 53.947,188.65 54.33,188.26 54.713,187.5 54.713,186.73 54.33,185.97 53.564,184.82 49.734,180.99 55.096,180.99 " stroke-width="0.54389" stroke-linecap="round" stroke-linejoin="round" />
<polygon points="59.692,189.03 58.543,188.65 57.777,187.5 57.394,185.58 57.394,184.43 57.777,182.52 58.543,181.37 59.692,180.99 60.458,180.99 61.607,181.37 62.373,182.52 62.756,184.43 62.756,185.58 62.373,187.5 61.607,188.65 60.458,189.03 " stroke-width="0.54389" stroke-linejoin="round" />
<polyline points="50.117,237.51 50.117,237.89 50.5,238.66 50.883,239.04 51.649,239.43 53.181,239.43 53.947,239.04 54.33,238.66 54.713,237.89 54.713,237.13 54.33,236.36 53.564,235.21 49.734,231.38 55.096,231.38 " stroke-width="0.54389" stroke-linecap="round" stroke-linejoin="round" />
<polyline points="61.99,239.43 58.16,239.43 57.777,235.98 58.16,236.36 59.309,236.75 60.458,236.75 61.607,236.36 62.373,235.6 62.756,234.45 62.756,233.68 62.373,232.53 61.607,231.77 60.458,231.38 59.309,231.38 58.16,231.77 57.777,232.15 57.394,232.92 " stroke-width="0.54389" stroke-linecap="round" stroke-linejoin="round" />
<line x1="33.455" y1="139.19" x2="41.499" y2="139.19" stroke-width="0.54389" stroke-linecap="round" />
<line x1="33.455" y1="139.19" x2="33.455" y2="144.17" stroke-width="0.54389" stroke-linecap="round" />
<line x1="37.285" y1="139.19" x2="37.285" y2="142.25" stroke-width="0.54389" stroke-linecap="round" />
<polygon points="33.455,145.7 33.838,146.08 33.455,146.46 33.072,146.08 " stroke-width="0.54389" stroke-linejoin="round" />
<line x1="36.136" y1="146.08" x2="41.499" y2="146.08" stroke-width="0.54389" stroke-linecap="round" />
<polyline points="33.455,149.53 39.966,149.53 41.116,149.91 41.499,150.68 41.499,151.44 " stroke-width="0.54389" stroke-linecap="round" stroke-linejoin="round" />
<line x1="36.136" y1="148.38" x2="36.136" y2="151.06" stroke-width="0.54389" stroke-linecap="round" />
<line x1="36.136" y1="153.74" x2="41.499" y2="153.74" stroke-width="0.54389" stroke-linecap="round" />
<polyline points="37.668,153.74 36.519,154.89 36.136,155.66 36.136,156.81 36.519,157.57 37.668,157.95 41.499,157.95 " stroke-width="0.54389" stroke-linecap="round" stroke-linejoin="round" />
<polyline points="38.434,160.64 38.434,165.23 37.668,165.23 36.902,164.85 36.519,164.47 36.136,163.7 36.136,162.55 36.519,161.79 37.285,161.02 38.434,160.64 39.2,160.64 40.349,161.02 41.116,161.79 41.499,162.55 41.499,163.7 41.116,164.47 40.349,165.23 " stroke-width="0.54389" stroke-linecap="round" stroke-linejoin="round" />
<polyline points="37.285,171.74 36.519,171.36 36.136,170.21 36.136,169.06 36.519,167.91 37.285,167.53 38.051,167.91 38.434,168.68 38.817,170.59 39.2,171.36 39.966,171.74 40.349,171.74 41.116,171.36 41.499,170.21 41.499,169.06 41.116,167.91 40.349,167.53 " stroke-width="0.54389" stroke-linecap="round" stroke-linejoin="round" />
<polyline points="37.285,178.26 36.519,177.87 36.136,176.72 36.136,175.57 36.519,174.42 37.285,174.04 38.051,174.42 38.434,175.19 38.817,177.11 39.2,177.87 39.966,178.26 40.349,178.26 41.116,177.87 41.499,176.72 41.499,175.57 41.116,174.42 40.349,174.04 " stroke-width="0.54389" stroke-linecap="round" stroke-linejoin="round" />
<line x1="74.732" y1="52.423" x2="74.732" y2="55.583" stroke-width="0.70588" />
<line x1="92.942" y1="52.423" x2="92.942" y2="55.583" stroke-width="0.70588" />
<line x1="111.15" y1="52.423" x2="111.15" y2="55.583" stroke-width="0.70588" />
<line x1="129.36" y1="52.423" x2="129.36" y2="55.583" stroke-width="0.70588" />
<line x1="147.57" y1="52.423" x2="147.57" y2="55.583" stroke-width="0.70588" />
<line x1="165.78" y1="52.423" x2="165.78" y2="55.583" stroke-width="0.70588" />
<line x1="183.99" y1="52.423" x2="183.99" y2="55.583" stroke-width="0.70588" />
<line x1="202.2" y1="52.423" x2="202.2" y2="55.583" stroke-width="0.70588" />
<line x1="220.41" y1="52.423" x2="220.41" y2="55.583" stroke-width="0.70588" />
<line x1="238.62" y1="52.423" x2="238.62" y2="55.583" stroke-width="0.70588" />
<line x1="256.83" y1="52.423" x2="256.83" y2="55.583" stroke-width="0.70588" />
<line x1="275.04" y1="52.423" x2="275.04" y2="55.583" stroke-width="0.70588" />
<line x1="293.25" y1="52.423" x2="293.25" y2="55.583" stroke-width="0.70588" />
<line x1="311.46" y1="52.423" x2="311.46" y2="55.583" stroke-width="0.70588" />
<line x1="329.67" y1="52.423" x2="329.67" y2="55.583" stroke-width="0.70588" />
<line x1="347.88" y1="52.423" x2="347.88" y2="55.583" stroke-width="0.70588" />
<line x1="366.09" y1="52.423" x2="366.09" y2="55.583" stroke-width="0.70588" />
<line x1="384.3" y1="52.423" x2="384.3" y2="55.583" stroke-width="0.70588" />
<line x1="402.51" y1="52.423" x2="402.51" y2="55.583" stroke-width="0.70588" />
<line x1="420.72" y1="52.423" x2="420.72" y2="55.583" stroke-width="0.70588" />
<line x1="438.93" y1="52.423" x2="438.93" y2="55.583" stroke-width="0.70588" />
<line x1="457.14" y1="52.423" x2="457.14" y2="55.583" stroke-width="0.70588" />
<line x1="475.35" y1="52.423" x2="475.35" y2="55.583" stroke-width="0.70588" />
<line x1="493.56" y1="52.423" x2="493.56" y2="55.583" stroke-width="0.70588" />
<line x1="511.77" y1="52.423" x2="511.77" y2="55.583" stroke-width="0.70588" />
<line x1="529.98" y1="52.423" x2="529.98" y2="55.583" stroke-width="0.70588" />
<line x1="548.19" y1="52.423" x2="548.19" y2="55.583" stroke-width="0.70588" />
<line x1="566.4" y1="52.423" x2="566.4" y2="55.583" stroke-width="0.70588" />
<line x1="92.942" y1="52.423" x2="92.942" y2="58.743" stroke-width="0.70588" />
<line x1="183.99" y1="52.423" x2="183.99" y2="58.743" stroke-width="0.70588" />
<line x1="275.04" y1="52.423" x2="275.04" y2="58.743" stroke-width="0.70588" />
<line x1="366.09" y1="52.423" x2="366.09" y2="58.743" stroke-width="0.70588" />
<line x1="457.14" y1="52.423" x2="457.14" y2="58.743" stroke-width="0.70588" />
<line x1="548.19" y1="52.423" x2="548.19" y2="58.743" stroke-width="0.70588" />
<line x1="70.225" y1="52.423" x2="570" y2="52.423" stroke-width="0.70588" />
<polygon points="92.559,44.38 91.41,43.997 90.644,42.848 90.261,40.933 90.261,39.784 90.644,37.869 91.41,36.72 92.559,36.337 93.325,36.337 94.474,36.72 95.24,37.869 95.623,39.784 95.623,40.933 95.24,42.848 94.474,43.997 93.325,44.38 " stroke-width="0.54389" stroke-linejoin="round" />
<polyline points="174.8,42.848 175.57,43.231 176.72,44.38 176.72,36.337 " stroke-width="0.54389" stroke-linecap="round" stroke-linejoin="round" />
<polygon points="183.61,44.38 182.46,43.997 181.69,42.848 181.31,40.933 181.31,39.784 181.69,37.869 182.46,36.72 183.61,36.337 184.38,36.337 185.52,36.72 186.29,37.869 186.67,39.784 186.67,40.933 186.29,42.848 185.52,43.997 184.38,44.38 " stroke-width="0.54389" stroke-linejoin="round" />
<polygon points="191.27,44.38 190.12,43.997 189.35,42.848 188.97,40.933 188.97,39.784 189.35,37.869 190.12,36.72 191.27,36.337 192.04,36.337 193.19,36.72 193.95,37.869 194.33,39.784 194.33,40.933 193.95,42.848 193.19,43.997 192.04,44.38 " stroke-width="0.54389" stroke-linejoin="round" />
<polyline points="265.08,42.465 265.08,42.848 265.47,43.614 265.85,43.997 266.62,44.38 268.15,44.38 268.91,43.997 269.3,43.614 269.68,42.848 269.68,42.082 269.3,41.316 268.53,40.167 264.7,36.337 270.06,36.337 " stroke-width="0.54389" stroke-linecap="round" stroke-linejoin="round" />
<polygon points="274.66,44.38 273.51,43.997 272.74,42.848 272.36,40.933 272.36,39.784 272.74,37.869 273.51,36.72 274.66,36.337 275.43,36.337 276.57,36.72 277.34,37.869 277.72,39.784 277.72,40.933 277.34,42.848 276.57,43.997 275.43,44.38 " stroke-width="0.54389" stroke-linejoin="round" />
<polygon points="282.32,44.38 281.17,43.997 280.41,42.848 280.02,40.933 280.02,39.784 280.41,37.869 281.17,36.72 282.32,36.337 283.09,36.337 284.24,36.72 285,37.869 285.38,39.784 285.38,40.933 285,42.848 284.24,43.997 283.09,44.38 " stroke-width="0.54389" stroke-linejoin="round" />
<polyline points="356.52,44.38 360.73,44.38 358.43,41.316 359.58,41.316 360.35,40.933 360.73,40.55 361.11,39.401 361.11,38.635 360.73,37.486 359.96,36.72 358.82,36.337 357.67,36.337 356.52,36.72 356.13,37.103 355.75,37.869 " stroke-width="0.54389" stroke-linecap="round" stroke-linejoin="round" />
<polygon points="365.71,44.38 364.56,43.997 363.79,42.848 363.41,40.933 363.41,39.784 363.79,37.869 364.56,36.72 365.71,36.337 366.48,36.337 367.63,36.72 368.39,37.869 368.77,39.784 368.77,40.933 368.39,42.848 367.63,43.997 366.48,44.38 " stroke-width="0.54389" stroke-linejoin="round" />
<polygon points="373.37,44.38 372.22,43.997 371.46,42.848 371.07,40.933 371.07,39.784 371.46,37.869 372.22,36.72 373.37,36.337 374.14,36.337 375.29,36.72 376.05,37.869 376.43,39.784 376.43,40.933 376.05,42.848 375.29,43.997 374.14,44.38 " stroke-width="0.54389" stroke-linejoin="round" />
<polyline points="450.63,44.38 446.8,39.018 452.55,39.018 " stroke-width="0.54389" stroke-linecap="round" stroke-linejoin="round" />
<line x1="450.63" y1="44.38" x2="450.63" y2="36.337" stroke-width="0.54389" stroke-linecap="round" />
<polygon points="456.76,44.38 455.61,43.997 454.85,42.848 454.46,40.933 454.46,39.784 454.85,37.869 455.61,36.72 456.76,36.337 457.53,36.337 458.68,36.72 459.44,37.869 459.82,39.784 459.82,40.933 459.44,42.848 458.68,43.997 457.53,44.38 " stroke-width="0.54389" stroke-linejoin="round" />
<polygon points="464.42,44.38 463.27,43.997 462.51,42.848 462.12,40.933 462.12,39.784 462.51,37.869 463.27,36.72 464.42,36.337 465.19,36.337 466.34,36.72 467.1,37.869 467.48,39.784 467.48,40.933 467.1,42.848 466.34,43.997 465.19,44.38 " stroke-width="0.54389" stroke-linejoin="round" />
<polyline points="542.45,44.38 538.62,44.38 538.23,40.933 538.62,41.316 539.77,41.699 540.92,41.699 542.07,41.316 542.83,40.55 543.21,39.401 543.21,38.635 542.83,37.486 542.07,36.72 540.92,36.337 539.77,36.337 538.62,36.72 538.23,37.103 537.85,37.869 " stroke-width="0.54389" stroke-linecap="round" stroke-linejoin="round" />
<polygon points="547.81,44.38 546.66,43.997 545.9,42.848 545.51,40.933 545.51,39.784 545.9,37.869 546.66,36.72 547.81,36.337 548.58,36.337 549.73,36.72 550.49,37.869 550.87,39.784 550.87,40.933 550.49,42.848 549.73,43.997 548.58,44.38 " stroke-width="0.54389" stroke-linejoin="round" />
<polygon points="555.47,44.38 554.32,43.997 553.56,42.848 553.17,40.933 553.17,39.784 553.56,37.869 554.32,36.72 555.47,36.337 556.24,36.337 557.39,36.72 558.15,37.869 558.54,39.784 558.54,40.933 558.15,42.848 557.39,43.997 556.24,44.38 " stroke-width="0.54389" stroke-linejoin="round" />
<polyline points="291.96,25.612 291.58,26.378 290.81,27.144 290.05,27.527 288.51,27.527 287.75,27.144 286.98,26.378 286.6,25.612 286.22,24.463 286.22,22.548 286.6,21.399 286.98,20.633 287.75,19.867 288.51,19.484 290.05,19.484 290.81,19.867 291.58,20.633 291.96,21.399 291.96,22.548 " stroke-width="0.54389" stroke-linecap="round" stroke-linejoin="round" />
<line x1="290.05" y1="22.548" x2="291.96" y2="22.548" stroke-width="0.54389" stroke-linecap="round" />
<polyline points="294.26,22.548 298.85,22.548 298.85,23.314 298.47,24.08 298.09,24.463 297.32,24.846 296.17,24.846 295.41,24.463 294.64,23.697 294.26,22.548 294.26,21.782 294.64,20.633 295.41,19.867 296.17,19.484 297.32,19.484 298.09,19.867 298.85,20.633 " stroke-width="0.54389" stroke-linecap="round" stroke-linejoin="round" />
<line x1="301.54" y1="24.846" x2="301.54" y2="19.484" stroke-width="0.54389" stroke-linecap="round" />
<polyline points="301.54,23.314 302.69,24.463 303.45,24.846 304.6,24.846 305.37,24.463 305.75,23.314 305.75,19.484 " stroke-width="0.54389" stroke-linecap="round" stroke-linejoin="round" />
<polyline points="308.43,22.548 313.03,22.548 313.03,23.314 312.64,24.08 312.26,24.463 311.49,24.846 310.35,24.846 309.58,24.463 308.81,23.697 308.43,22.548 308.43,21.782 308.81,20.633 309.58,19.867 310.35,19.484 311.49,19.484 312.26,19.867 313.03,20.633 " stroke-width="0.54389" stroke-linecap="round" stroke-linejoin="round" />
<line x1="315.71" y1="24.846" x2="315.71" y2="19.484" stroke-width="0.54389" stroke-linecap="round" />
<polyline points="315.71,22.548 316.09,23.697 316.86,24.463 317.62,24.846 318.77,24.846 " stroke-width="0.54389" stroke-linecap="round" stroke-linejoin="round" />
<line x1="324.9" y1="24.846" x2="324.9" y2="19.484" stroke-width="0.54389" stroke-linecap="round" />
<polyline points="324.9,23.697 324.13,24.463 323.37,24.846 322.22,24.846 321.45,24.463 320.69,23.697 320.3,22.548 320.3,21.782 320.69,20.633 321.45,19.867 322.22,19.484 323.37,19.484 324.13,19.867 324.9,20.633 " stroke-width="0.54389" stroke-linecap="round" stroke-linejoin="round" />
<polyline points="328.35,27.527 328.35,21.016 328.73,19.867 329.5,19.484 330.26,19.484 " stroke-width="0.54389" stroke-linecap="round" stroke-linejoin="round" />
<line x1="327.2" y1="24.846" x2="329.88" y2="24.846" stroke-width="0.54389" stroke-linecap="round" />
<polygon points="332.18,27.527 332.56,27.144 332.94,27.527 332.56,27.91 " stroke-width="0.54389" stroke-linejoin="round" />
<line x1="332.56" y1="24.846" x2="332.56" y2="19.484" stroke-width="0.54389" stroke-linecap="round" />
<polygon points="337.16,24.846 336.39,24.463 335.63,23.697 335.24,22.548 335.24,21.782 335.63,20.633 336.39,19.867 337.16,19.484 338.31,19.484 339.07,19.867 339.84,20.633 340.22,21.782 340.22,22.548 339.84,23.697 339.07,24.463 338.31,24.846 " stroke-width="0.54389" stroke-linejoin="round" />
<line x1="342.9" y1="24.846" x2="342.9" y2="19.484" stroke-width="0.54389" stroke-linecap="round" />
<polyline points="342.9,23.314 344.05,24.463 344.82,24.846 345.97,24.846 346.73,24.463 347.12,23.314 347.12,19.484 " stroke-width="0.54389" stroke-linecap="round" stroke-linejoin="round" />
<polyline points="354.01,23.697 353.63,24.463 352.48,24.846 351.33,24.846 350.18,24.463 349.8,23.697 350.18,22.931 350.95,22.548 352.86,22.165 353.63,21.782 354.01,21.016 354.01,20.633 353.63,19.867 352.48,19.484 351.33,19.484 350.18,19.867 349.8,20.633 " stroke-width="0.54389" stroke-linecap="round" stroke-linejoin="round" />
</g>
</svg>
