<?xml version="1.0" encoding="ISO-8859-1" standalone="no"?>
<!DOCTYPE svg PUBLIC "-//W3C//DTD SVG 1.1//EN" "http://www.w3.org/Graphics/SVG/1.1/DTD/svg11.dtd">
<svg version="1.1" baseProfile="full" id="body" width="8in" height="8in" viewBox="0 0 1 1" preserveAspectRatio="none" xmlns="http://www.w3.org/2000/svg" xmlns:xlink="http://www.w3.org/1999/xlink" xmlns:ev="http://www.w3.org/2001/xml-events">
<title>SVG drawing</title>
<desc>This was produced by version 4.4 of GNU libplot, a free library for exporting 2-D vector graphics.</desc>
<rect id="background" x="0" y="0" width="1" height="1" stroke="none" fill="white"/>
<g id="content" transform="translate(0,1) scale(0.0016667,-0.0033333) " xml:space="preserve" stroke="black" stroke-linecap="butt" stroke-linejoin="miter" stroke-miterlimit="10.433" stroke-dasharray="none" stroke-dashoffset="0" stroke-opacity="1" fill="none" fill-rule="evenodd" fill-opacity="1" font-style="normal" font-variant="normal" font-weight="normal" font-stretch="normal" font-size-adjust="none" letter-spacing="normal" word-spacing="normal" text-anchor="start">
<line x1="218.28" y1="279.63" x2="218.28" y2="271.66" stroke-width="0.5389" stroke-linecap="round" />
<polyline points="218.28,279.63 221.7,279.63 222.84,279.25 223.22,278.87 223.59,278.11 223.59,276.97 223.22,276.21 222.84,275.83 221.7,275.45 218.28,275.45 " stroke-width="0.5389" stroke-linecap="round" stroke-linejoin="round" />
<polygon points="227.77,276.97 227.01,276.59 226.25,275.83 225.87,274.69 225.87,273.93 226.25,272.79 227.01,272.04 227.77,271.66 228.91,271.66 229.67,272.04 230.43,272.79 230.81,273.93 230.81,274.69 230.43,275.83 229.67,276.59 228.91,276.97 " stroke-width="0.5389" stroke-linejoin="round" />
<line x1="233.46" y1="276.97" x2="233.46" y2="269" stroke-width="0.5389" stroke-linecap="round" />
<polyline points="233.46,275.83 234.22,276.59 234.98,276.97 236.12,276.97 236.88,276.59 237.64,275.83 238.02,274.69 238.02,273.93 237.64,272.79 236.88,272.04 236.12,271.66 234.98,271.66 234.22,272.04 233.46,272.79 " stroke-width="0.5389" stroke-linecap="round" stroke-linejoin="round" />
<polyline points="240.67,276.97 240.67,273.17 241.05,272.04 241.81,271.66 242.95,271.66 243.71,272.04 244.85,273.17 " stroke-width="0.5389" stroke-linecap="round" stroke-linejoin="round" />
<line x1="244.85" y1="276.97" x2="244.85" y2="271.66" stroke-width="0.5389" stroke-linecap="round" />
<line x1="247.88" y1="279.63" x2="247.88" y2="271.66" stroke-width="0.5389" stroke-linecap="round" />
<line x1="255.09" y1="276.97" x2="255.09" y2="271.66" stroke-width="0.5389" stroke-linecap="round" />
<polyline points="255.09,275.83 254.33,276.59 253.58,276.97 252.44,276.97 251.68,276.59 250.92,275.83 250.54,274.69 250.54,273.93 250.92,272.79 251.68,272.04 252.44,271.66 253.58,271.66 254.33,272.04 255.09,272.79 " stroke-width="0.5389" stroke-linecap="round" stroke-linejoin="round" />
<polyline points="258.51,279.63 258.51,273.17 258.89,272.04 259.65,271.66 260.41,271.66 " stroke-width="0.5389" stroke-linecap="round" stroke-linejoin="round" />
<line x1="257.37" y1="276.97" x2="260.03" y2="276.97" stroke-width="0.5389" stroke-linecap="round" />
<polygon points="262.3,279.63 262.68,279.25 263.06,279.63 262.68,280.01 " stroke-width="0.5389" stroke-linejoin="round" />
<line x1="262.68" y1="276.97" x2="262.68" y2="271.66" stroke-width="0.5389" stroke-linecap="round" />
<polygon points="267.24,276.97 266.48,276.59 265.72,275.83 265.34,274.69 265.34,273.93 265.72,272.79 266.48,272.04 267.24,271.66 268.38,271.66 269.14,272.04 269.89,272.79 270.27,273.93 270.27,274.69 269.89,275.83 269.14,276.59 268.38,276.97 " stroke-width="0.5389" stroke-linejoin="round" />
<line x1="272.93" y1="276.97" x2="272.93" y2="271.66" stroke-width="0.5389" stroke-linecap="round" />
<polyline points="272.93,275.45 274.07,276.59 274.83,276.97 275.97,276.97 276.73,276.59 277.11,275.45 277.11,271.66 " stroke-width="0.5389" stroke-linecap="round" stroke-linejoin="round" />
<polyline points="280.52,278.87 280.14,279.25 280.52,279.63 280.9,279.25 280.9,278.49 280.52,277.73 280.14,277.35 " stroke-width="0.5389" stroke-linecap="round" stroke-linejoin="round" />
<polyline points="287.73,275.83 287.35,276.59 286.21,276.97 285.07,276.97 283.94,276.59 283.56,275.83 283.94,275.07 284.7,274.69 286.59,274.31 287.35,273.93 287.73,273.17 287.73,272.79 287.35,272.04 286.21,271.66 285.07,271.66 283.94,272.04 283.56,272.79 " stroke-width="0.5389" stroke-linecap="round" stroke-linejoin="round" />
<line x1="300.63" y1="276.97" x2="300.63" y2="271.66" stroke-width="0.5389" stroke-linecap="round" />
<polyline points="300.63,275.83 299.88,276.59 299.12,276.97 297.98,276.97 297.22,276.59 296.46,275.83 296.08,274.69 296.08,273.93 296.46,272.79 297.22,272.04 297.98,271.66 299.12,271.66 299.88,272.04 300.63,272.79 " stroke-width="0.5389" stroke-linecap="round" stroke-linejoin="round" />
<line x1="302.91" y1="276.97" x2="305.19" y2="271.66" stroke-width="0.5389" stroke-linecap="round" />
<line x1="307.47" y1="276.97" x2="305.19" y2="271.66" stroke-width="0.5389" stroke-linecap="round" />
<polyline points="309.36,274.69 313.92,274.69 313.92,275.45 313.54,276.21 313.16,276.59 312.4,276.97 311.26,276.97 310.5,276.59 309.74,275.83 309.36,274.69 309.36,273.93 309.74,272.79 310.5,272.04 311.26,271.66 312.4,271.66 313.16,272.04 313.92,272.79 " stroke-width="0.5389" stroke-linecap="round" stroke-linejoin="round" />
<line x1="316.57" y1="276.97" x2="316.57" y2="271.66" stroke-width="0.5389" stroke-linecap="round" />
<polyline points="316.57,274.69 316.95,275.83 317.71,276.59 318.47,276.97 319.61,276.97 " stroke-width="0.5389" stroke-linecap="round" stroke-linejoin="round" />
<line x1="325.68" y1="276.97" x2="325.68" y2="271.66" stroke-width="0.5389" stroke-linecap="round" />
<polyline points="325.68,275.83 324.92,276.59 324.16,276.97 323.03,276.97 322.27,276.59 321.51,275.83 321.13,274.69 321.13,273.93 321.51,272.79 322.27,272.04 323.03,271.66 324.16,271.66 324.92,272.04 325.68,272.79 " stroke-width="0.5389" stroke-linecap="round" stroke-linejoin="round" />
<polyline points="332.89,276.97 332.89,270.9 332.51,269.76 332.13,269.38 331.37,269 330.24,269 329.48,269.38 " stroke-width="0.5389" stroke-linecap="round" stroke-linejoin="round" />
<polyline points="332.89,275.83 332.13,276.59 331.37,276.97 330.24,276.97 329.48,276.59 328.72,275.83 328.34,274.69 328.34,273.93 328.72,272.79 329.48,272.04 330.24,271.66 331.37,271.66 332.13,272.04 332.89,272.79 " stroke-width="0.5389" stroke-linecap="round" stroke-linejoin="round" />
<polyline points="335.55,274.69 340.1,274.69 340.1,275.45 339.72,276.21 339.34,276.59 338.59,276.97 337.45,276.97 336.69,276.59 335.93,275.83 335.55,274.69 335.55,273.93 335.93,272.79 336.69,272.04 337.45,271.66 338.59,271.66 339.34,272.04 340.1,272.79 " stroke-width="0.5389" stroke-linecap="round" stroke-linejoin="round" />
<line x1="353.01" y1="276.97" x2="353.01" y2="271.66" stroke-width="0.5389" stroke-linecap="round" />
<polyline points="353.01,275.83 352.25,276.59 351.49,276.97 350.35,276.97 349.59,276.59 348.83,275.83 348.45,274.69 348.45,273.93 348.83,272.79 349.59,272.04 350.35,271.66 351.49,271.66 352.25,272.04 353.01,272.79 " stroke-width="0.5389" stroke-linecap="round" stroke-linejoin="round" />
<line x1="356.04" y1="276.97" x2="356.04" y2="271.66" stroke-width="0.5389" stroke-linecap="round" />
<polyline points="356.04,275.45 357.18,276.59 357.94,276.97 359.08,276.97 359.84,276.59 360.22,275.45 360.22,271.66 " stroke-width="0.5389" stroke-linecap="round" stroke-linejoin="round" />
<line x1="367.43" y1="279.63" x2="367.43" y2="271.66" stroke-width="0.5389" stroke-linecap="round" />
<polyline points="367.43,275.83 366.67,276.59 365.91,276.97 364.77,276.97 364.01,276.59 363.25,275.83 362.87,274.69 362.87,273.93 363.25,272.79 364.01,272.04 364.77,271.66 365.91,271.66 366.67,272.04 367.43,272.79 " stroke-width="0.5389" stroke-linecap="round" stroke-linejoin="round" />
<line x1="376.54" y1="279.63" x2="376.54" y2="271.66" stroke-width="0.5389" stroke-linecap="round" />
<polyline points="376.54,275.83 377.3,276.59 378.05,276.97 379.19,276.97 379.95,276.59 380.71,275.83 381.09,274.69 381.09,273.93 380.71,272.79 379.95,272.04 379.19,271.66 378.05,271.66 377.3,272.04 376.54,272.79 " stroke-width="0.5389" stroke-linecap="round" stroke-linejoin="round" />
<polyline points="383.37,274.69 387.92,274.69 387.92,275.45 387.54,276.21 387.16,276.59 386.4,276.97 385.26,276.97 384.51,276.59 383.75,275.83 383.37,274.69 383.37,273.93 383.75,272.79 384.51,272.04 385.26,271.66 386.4,271.66 387.16,272.04 387.92,272.79 " stroke-width="0.5389" stroke-linecap="round" stroke-linejoin="round" />
<polyline points="394.37,275.83 393.99,276.59 392.85,276.97 391.72,276.97 390.58,276.59 390.2,275.83 390.58,275.07 391.34,274.69 393.23,274.31 393.99,273.93 394.37,273.17 394.37,272.79 393.99,272.04 392.85,271.66 391.72,271.66 390.58,272.04 390.2,272.79 " stroke-width="0.5389" stroke-linecap="round" stroke-linejoin="round" />
<polyline points="397.41,279.63 397.41,273.17 397.79,272.04 398.55,271.66 399.31,271.66 " stroke-width="0.5389" stroke-linecap="round" stroke-linejoin="round" />
<line x1="396.27" y1="276.97" x2="398.93" y2="276.97" stroke-width="0.5389" stroke-linecap="round" />
<polyline points="409.93,279.63 409.17,279.63 408.41,279.25 408.04,278.11 408.04,271.66 " stroke-width="0.5389" stroke-linecap="round" stroke-linejoin="round" />
<line x1="406.9" y1="276.97" x2="409.55" y2="276.97" stroke-width="0.5389" stroke-linecap="round" />
<polygon points="411.83,279.63 412.21,279.25 412.59,279.63 412.21,280.01 " stroke-width="0.5389" stroke-linejoin="round" />
<line x1="412.21" y1="276.97" x2="412.21" y2="271.66" stroke-width="0.5389" stroke-linecap="round" />
<polyline points="415.63,279.63 415.63,273.17 416,272.04 416.76,271.66 417.52,271.66 " stroke-width="0.5389" stroke-linecap="round" stroke-linejoin="round" />
<line x1="414.49" y1="276.97" x2="417.14" y2="276.97" stroke-width="0.5389" stroke-linecap="round" />
<line x1="419.8" y1="276.97" x2="419.8" y2="271.66" stroke-width="0.5389" stroke-linecap="round" />
<polyline points="419.8,275.45 420.94,276.59 421.7,276.97 422.84,276.97 423.59,276.59 423.97,275.45 423.97,271.66 " stroke-width="0.5389" stroke-linecap="round" stroke-linejoin="round" />
<polyline points="426.63,274.69 431.19,274.69 431.19,275.45 430.81,276.21 430.43,276.59 429.67,276.97 428.53,276.97 427.77,276.59 427.01,275.83 426.63,274.69 426.63,273.93 427.01,272.79 427.77,272.04 428.53,271.66 429.67,271.66 430.43,272.04 431.19,272.79 " stroke-width="0.5389" stroke-linecap="round" stroke-linejoin="round" />
<polyline points="437.64,275.83 437.26,276.59 436.12,276.97 434.98,276.97 433.84,276.59 433.46,275.83 433.84,275.07 434.6,274.69 436.5,274.31 437.26,273.93 437.64,273.17 437.64,272.79 437.26,272.04 436.12,271.66 434.98,271.66 433.84,272.04 433.46,272.79 " stroke-width="0.5389" stroke-linecap="round" stroke-linejoin="round" />
<polyline points="444.09,275.83 443.71,276.59 442.57,276.97 441.43,276.97 440.29,276.59 439.91,275.83 440.29,275.07 441.05,274.69 442.95,274.31 443.71,273.93 444.09,273.17 444.09,272.79 443.71,272.04 442.57,271.66 441.43,271.66 440.29,272.04 439.91,272.79 " stroke-width="0.5389" stroke-linecap="round" stroke-linejoin="round" />
<polyline points="113.72,61.004 123.37,61.072 133.03,61.086 142.69,61.194 152.35,61.092 162,61.142 171.66,61.136 181.32,61.249 190.97,61.109 200.63,61.326 210.29,61.103 219.94,61.053 229.6,61.09 239.26,61.307 248.91,61.262 258.57,61.061 268.23,61.185 277.88,61.499 287.54,61.179 297.2,61.358 306.85,61.185 316.51,61.328 326.17,61.127 335.82,61.658 345.48,61.15 355.14,61.173 364.79,61.592 374.45,61.369 384.11,61.35 393.76,61.136 403.42,61.53 413.08,61.247 422.73,61.175 432.39,61.152 442.05,61.338 451.7,61.519 461.36,61.323 471.02,61.587 480.67,61.903 490.33,61.358 499.99,61.761 509.65,61.474 519.3,61.332 528.96,61.695 538.62,61.416 548.27,254.93 " stroke="red" stroke-width="0.41746" />
<polyline points="113.72,60.818 123.37,60.833 133.03,60.84 142.69,60.837 152.35,60.835 162,60.839 171.66,60.844 181.32,60.851 190.97,60.851 200.63,60.861 210.29,60.873 219.94,60.846 229.6,60.864 239.26,60.872 248.91,60.869 258.57,60.851 268.23,60.866 277.88,60.862 287.54,60.859 297.2,60.864 306.85,60.853 316.51,60.869 326.17,60.86 335.82,60.874 345.48,60.86 355.14,60.861 364.79,60.882 374.45,60.869 384.11,60.88 393.76,60.871 403.42,60.879 413.08,60.892 422.73,60.877 432.39,60.87 442.05,60.872 451.7,60.888 461.36,60.889 471.02,60.898 480.67,60.89 490.33,60.899 499.99,60.882 509.65,60.875 519.3,60.877 528.96,60.894 538.62,60.912 548.27,62.845 " stroke="blue" stroke-width="0.41746" />
<line x1="570" y1="60.795" x2="566.87" y2="60.795" stroke-width="0.70588" />
<line x1="570" y1="70.501" x2="566.87" y2="70.501" stroke-width="0.70588" />
<line x1="570" y1="80.208" x2="566.87" y2="80.208" stroke-width="0.70588" />
<line x1="570" y1="89.915" x2="566.87" y2="89.915" stroke-width="0.70588" />
<line x1="570" y1="99.622" x2="566.87" y2="99.622" stroke-width="0.70588" />
<line x1="570" y1="109.33" x2="566.87" y2="109.33" stroke-width="0.70588" />
<line x1="570" y1="119.04" x2="566.87" y2="119.04" stroke-width="0.70588" />
<line x1="570" y1="128.74" x2="566.87" y2="128.74" stroke-width="0.70588" />
<line x1="570" y1="138.45" x2="566.87" y2="138.45" stroke-width="0.70588" />
<line x1="570" y1="148.16" x2="566.87" y2="148.16" stroke-width="0.70588" />
<line x1="570" y1="157.86" x2="566.87" y2="157.86" stroke-width="0.70588" />
<line x1="570" y1="167.57" x2="566.87" y2="167.57" stroke-width="0.70588" />
<line x1="570" y1="177.28" x2="566.87" y2="177.28" stroke-width="0.70588" />
<line x1="570" y1="186.98" x2="566.87" y2="186.98" stroke-width="0.70588" />
<line x1="570" y1="196.69" x2="566.87" y2="196.69" stroke-width="0.70588" />
<line x1="570" y1="206.4" x2="566.87" y2="206.4" stroke-width="0.70588" />
<line x1="570" y1="216.1" x2="566.87" y2="216.1" stroke-width="0.70588" />
<line x1="570" y1="225.81" x2="566.87" y2="225.81" stroke-width="0.70588" />
<line x1="570" y1="235.52" x2="566.87" y2="235.52" stroke-width="0.70588" />
<line x1="570" y1="245.22" x2="566.87" y2="245.22" stroke-width="0.70588" />
<line x1="570" y1="254.93" x2="566.87" y2="254.93" stroke-width="0.70588" />
<line x1="570" y1="60.795" x2="563.74" y2="60.795" stroke-width="0.70588" />
<line x1="570" y1="99.622" x2="563.74" y2="99.622" stroke-width="0.70588" />
<line x1="570" y1="138.45" x2="563.74" y2="138.45" stroke-width="0.70588" />
<line x1="570" y1="177.28" x2="563.74" y2="177.28" stroke-width="0.70588" />
<line x1="570" y1="216.1" x2="563.74" y2="216.1" stroke-width="0.70588" />
<line x1="570" y1="254.93" x2="563.74" y2="254.93" stroke-width="0.70588" />
<line x1="570" y1="51.113" x2="570" y2="264.64" stroke-width="0.70588" />
<line x1="94.405" y1="264.64" x2="94.405" y2="261.5" stroke-width="0.70588" />
<line x1="113.72" y1="264.64" x2="113.72" y2="261.5" stroke-width="0.70588" />
<line x1="133.03" y1="264.64" x2="133.03" y2="261.5" stroke-width="0.70588" />
<line x1="152.35" y1="264.64" x2="152.35" y2="261.5" stroke-width="0.70588" />
<line x1="171.66" y1="264.64" x2="171.66" y2="261.5" stroke-width="0.70588" />
<line x1="190.97" y1="264.64" x2="190.97" y2="261.5" stroke-width="0.70588" />
<line x1="210.29" y1="264.64" x2="210.29" y2="261.5" stroke-width="0.70588" />
<line x1="229.6" y1="264.64" x2="229.6" y2="261.5" stroke-width="0.70588" />
<line x1="248.91" y1="264.64" x2="248.91" y2="261.5" stroke-width="0.70588" />
<line x1="268.23" y1="264.64" x2="268.23" y2="261.5" stroke-width="0.70588" />
<line x1="287.54" y1="264.64" x2="287.54" y2="261.5" stroke-width="0.70588" />
<line x1="306.85" y1="264.64" x2="306.85" y2="261.5" stroke-width="0.70588" />
<line x1="326.17" y1="264.64" x2="326.17" y2="261.5" stroke-width="0.70588" />
<line x1="345.48" y1="264.64" x2="345.48" y2="261.5" stroke-width="0.70588" />
<line x1="364.79" y1="264.64" x2="364.79" y2="261.5" stroke-width="0.70588" />
<line x1="384.11" y1="264.64" x2="384.11" y2="261.5" stroke-width="0.70588" />
<line x1="403.42" y1="264.64" x2="403.42" y2="261.5" stroke-width="0.70588" />
<line x1="422.73" y1="264.64" x2="422.73" y2="261.5" stroke-width="0.70588" />
<line x1="442.05" y1="264.64" x2="442.05" y2="261.5" stroke-width="0.70588" />
<line x1="461.36" y1="264.64" x2="461.36" y2="261.5" stroke-width="0.70588" />
<line x1="480.67" y1="264.64" x2="480.67" y2="261.5" stroke-width="0.70588" />
<line x1="499.99" y1="264.64" x2="499.99" y2="261.5" stroke-width="0.70588" />
<line x1="519.3" y1="264.64" x2="519.3" y2="261.5" stroke-width="0.70588" />
<line x1="538.62" y1="264.64" x2="538.62" y2="261.5" stroke-width="0.70588" />
<line x1="557.93" y1="264.64" x2="557.93" y2="261.5" stroke-width="0.70588" />
<line x1="113.72" y1="264.64" x2="113.72" y2="258.37" stroke-width="0.70588" />
<line x1="210.29" y1="264.64" x2="210.29" y2="258.37" stroke-width="0.70588" />
<line x1="306.85" y1="264.64" x2="306.85" y2="258.37" stroke-width="0.70588" />
<line x1="403.42" y1="264.64" x2="403.42" y2="258.37" stroke-width="0.70588" />
<line x1="499.99" y1="264.64" x2="499.99" y2="258.37" stroke-width="0.70588" />
<line x1="91.99" y1="264.64" x2="570" y2="264.64" stroke-width="0.70588" />
<line x1="91.99" y1="60.795" x2="95.121" y2="60.795" stroke-width="0.70588" />
<line x1="91.99" y1="70.501" x2="95.121" y2="70.501" stroke-width="0.70588" />
<line x1="91.99" y1="80.208" x2="95.121" y2="80.208" stroke-width="0.70588" />
<line x1="91.99" y1="89.915" x2="95.121" y2="89.915" stroke-width="0.70588" />
<line x1="91.99" y1="99.622" x2="95.121" y2="99.622" stroke-width="0.70588" />
<line x1="91.99" y1="109.33" x2="95.121" y2="109.33" stroke-width="0.70588" />
<line x1="91.99" y1="119.04" x2="95.121" y2="119.04" stroke-width="0.70588" />
<line x1="91.99" y1="128.74" x2="95.121" y2="128.74" stroke-width="0.70588" />
<line x1="91.99" y1="138.45" x2="95.121" y2="138.45" stroke-width="0.70588" />
<line x1="91.99" y1="148.16" x2="95.121" y2="148.16" stroke-width="0.70588" />
<line x1="91.99" y1="157.86" x2="95.121" y2="157.86" stroke-width="0.70588" />
<line x1="91.99" y1="167.57" x2="95.121" y2="167.57" stroke-width="0.70588" />
<line x1="91.99" y1="177.28" x2="95.121" y2="177.28" stroke-width="0.70588" />
<line x1="91.99" y1="186.98" x2="95.121" y2="186.98" stroke-width="0.70588" />
<line x1="91.99" y1="196.69" x2="95.121" y2="196.69" stroke-width="0.70588" />
<line x1="91.99" y1="206.4" x2="95.121" y2="206.4" stroke-width="0.70588" />
<line x1="91.99" y1="216.1" x2="95.121" y2="216.1" stroke-width="0.70588" />
<line x1="91.99" y1="225.81" x2="95.121" y2="225.81" stroke-width="0.70588" />
<line x1="91.99" y1="235.52" x2="95.121" y2="235.52" stroke-width="0.70588" />
<line x1="91.99" y1="245.22" x2="95.121" y2="245.22" stroke-width="0.70588" />
<line x1="91.99" y1="254.93" x2="95.121" y2="254.93" stroke-width="0.70588" />
<line x1="91.99" y1="60.795" x2="98.252" y2="60.795" stroke-width="0.70588" />
<line x1="91.99" y1="99.622" x2="98.252" y2="99.622" stroke-width="0.70588" />
<line x1="91.99" y1="138.45" x2="98.252" y2="138.45" stroke-width="0.70588" />
<line x1="91.99" y1="177.28" x2="98.252" y2="177.28" stroke-width="0.70588" />
<line x1="91.99" y1="216.1" x2="98.252" y2="216.1" stroke-width="0.70588" />
<line x1="91.99" y1="254.93" x2="98.252" y2="254.93" stroke-width="0.70588" />
<line x1="91.99" y1="51.113" x2="91.99" y2="264.64" stroke-width="0.70588" />
<polygon points="81.554,65.349 80.415,64.969 79.656,63.831 79.277,61.933 79.277,60.795 79.656,58.897 80.415,57.758 81.554,57.379 82.313,57.379 83.451,57.758 84.21,58.897 84.59,60.795 84.59,61.933 84.21,63.831 83.451,64.969 82.313,65.349 " stroke-width="0.5389" stroke-linejoin="round" />
<polyline points="49.296,102.28 49.296,102.66 49.675,103.42 50.055,103.8 50.814,104.18 52.332,104.18 53.091,103.8 53.47,103.42 53.85,102.66 53.85,101.9 53.47,101.14 52.711,100 48.916,96.206 54.229,96.206 " stroke-width="0.5389" stroke-linecap="round" stroke-linejoin="round" />
<polygon points="58.783,104.18 57.645,103.8 56.886,102.66 56.506,100.76 56.506,99.622 56.886,97.724 57.645,96.586 58.783,96.206 59.542,96.206 60.681,96.586 61.44,97.724 61.819,99.622 61.819,100.76 61.44,102.66 60.681,103.8 59.542,104.18 " stroke-width="0.5389" stroke-linejoin="round" />
<polygon points="66.374,104.18 65.235,103.8 64.476,102.66 64.097,100.76 64.097,99.622 64.476,97.724 65.235,96.586 66.374,96.206 67.133,96.206 68.271,96.586 69.03,97.724 69.41,99.622 69.41,100.76 69.03,102.66 68.271,103.8 67.133,104.18 " stroke-width="0.5389" stroke-linejoin="round" />
<polygon points="73.964,104.18 72.825,103.8 72.066,102.66 71.687,100.76 71.687,99.622 72.066,97.724 72.825,96.586 73.964,96.206 74.723,96.206 75.861,96.586 76.62,97.724 77,99.622 77,100.76 76.62,102.66 75.861,103.8 74.723,104.18 " stroke-width="0.5389" stroke-linejoin="round" />
<polygon points="81.554,104.18 80.415,103.8 79.656,102.66 79.277,100.76 79.277,99.622 79.656,97.724 80.415,96.586 81.554,96.206 82.313,96.206 83.451,96.586 84.21,97.724 84.59,99.622 84.59,100.76 84.21,102.66 83.451,103.8 82.313,104.18 " stroke-width="0.5389" stroke-linejoin="round" />
<polyline points="52.711,143 48.916,137.69 54.609,137.69 " stroke-width="0.5389" stroke-linecap="round" stroke-linejoin="round" />
<line x1="52.711" y1="143" x2="52.711" y2="135.03" stroke-width="0.5389" stroke-linecap="round" />
<polygon points="58.783,143 57.645,142.62 56.886,141.48 56.506,139.59 56.506,138.45 56.886,136.55 57.645,135.41 58.783,135.03 59.542,135.03 60.681,135.41 61.44,136.55 61.819,138.45 61.819,139.59 61.44,141.48 60.681,142.62 59.542,143 " stroke-width="0.5389" stroke-linejoin="round" />
<polygon points="66.374,143 65.235,142.62 64.476,141.48 64.097,139.59 64.097,138.45 64.476,136.55 65.235,135.41 66.374,135.03 67.133,135.03 68.271,135.41 69.03,136.55 69.41,138.45 69.41,139.59 69.03,141.48 68.271,142.62 67.133,143 " stroke-width="0.5389" stroke-linejoin="round" />
<polygon points="73.964,143 72.825,142.62 72.066,141.48 71.687,139.59 71.687,138.45 72.066,136.55 72.825,135.41 73.964,135.03 74.723,135.03 75.861,135.41 76.62,136.55 77,138.45 77,139.59 76.62,141.48 75.861,142.62 74.723,143 " stroke-width="0.5389" stroke-linejoin="round" />
<polygon points="81.554,143 80.415,142.62 79.656,141.48 79.277,139.59 79.277,138.45 79.656,136.55 80.415,135.41 81.554,135.03 82.313,135.03 83.451,135.41 84.21,136.55 84.59,138.45 84.59,139.59 84.21,141.48 83.451,142.62 82.313,143 " stroke-width="0.5389" stroke-linejoin="round" />
<polyline points="53.85,180.69 53.47,181.45 52.332,181.83 51.573,181.83 50.434,181.45 49.675,180.31 49.296,178.41 49.296,176.52 49.675,175 50.434,174.24 51.573,173.86 51.952,173.86 53.091,174.24 53.85,175 54.229,176.14 54.229,176.52 53.85,177.66 53.091,178.41 51.952,178.79 51.573,178.79 50.434,178.41 49.675,177.66 49.296,176.52 " stroke-width="0.5389" stroke-linecap="round" stroke-linejoin="round" />
<polygon points="58.783,181.83 57.645,181.45 56.886,180.31 56.506,178.41 56.506,177.28 56.886,175.38 57.645,174.24 58.783,173.86 59.542,173.86 60.681,174.24 61.44,175.38 61.819,177.28 61.819,178.41 61.44,180.31 60.681,181.45 59.542,181.83 " stroke-width="0.5389" stroke-linejoin="round" />
<polygon points="66.374,181.83 65.235,181.45 64.476,180.31 64.097,178.41 64.097,177.28 64.476,175.38 65.235,174.24 66.374,173.86 67.133,173.86 68.271,174.24 69.03,175.38 69.41,177.28 69.41,178.41 69.03,180.31 68.271,181.45 67.133,181.83 " stroke-width="0.5389" stroke-linejoin="round" />
<polygon points="73.964,181.83 72.825,181.45 72.066,180.31 71.687,178.41 71.687,177.28 72.066,175.38 72.825,174.24 73.964,173.86 74.723,173.86 75.861,174.24 76.62,175.38 77,177.28 77,178.41 76.62,180.31 75.861,181.45 74.723,181.83 " stroke-width="0.5389" stroke-linejoin="round" />
<polygon points="81.554,181.83 80.415,181.45 79.656,180.31 79.277,178.41 79.277,177.28 79.656,175.38 80.415,174.24 81.554,173.86 82.313,173.86 83.451,174.24 84.21,175.38 84.59,177.28 84.59,178.41 84.21,180.31 83.451,181.45 82.313,181.83 " stroke-width="0.5389" stroke-linejoin="round" />
<polyline points="50.814,220.66 49.675,220.28 49.296,219.52 49.296,218.76 49.675,218 50.434,217.62 51.952,217.24 53.091,216.86 53.85,216.1 54.229,215.34 54.229,214.21 53.85,213.45 53.47,213.07 52.332,212.69 50.814,212.69 49.675,213.07 49.296,213.45 48.916,214.21 48.916,215.34 49.296,216.1 50.055,216.86 51.193,217.24 52.711,217.62 53.47,218 53.85,218.76 53.85,219.52 53.47,220.28 52.332,220.66 50.814,220.66 " stroke-width="0.5389" stroke-linecap="round" stroke-linejoin="round" />
<polygon points="58.783,220.66 57.645,220.28 56.886,219.14 56.506,217.24 56.506,216.1 56.886,214.21 57.645,213.07 58.783,212.69 59.542,212.69 60.681,213.07 61.44,214.21 61.819,216.1 61.819,217.24 61.44,219.14 60.681,220.28 59.542,220.66 " stroke-width="0.5389" stroke-linejoin="round" />
<polygon points="66.374,220.66 65.235,220.28 64.476,219.14 64.097,217.24 64.097,216.1 64.476,214.21 65.235,213.07 66.374,212.69 67.133,212.69 68.271,213.07 69.03,214.21 69.41,216.1 69.41,217.24 69.03,219.14 68.271,220.28 67.133,220.66 " stroke-width="0.5389" stroke-linejoin="round" />
<polygon points="73.964,220.66 72.825,220.28 72.066,219.14 71.687,217.24 71.687,216.1 72.066,214.21 72.825,213.07 73.964,212.69 74.723,212.69 75.861,213.07 76.62,214.21 77,216.1 77,217.24 76.62,219.14 75.861,220.28 74.723,220.66 " stroke-width="0.5389" stroke-linejoin="round" />
<polygon points="81.554,220.66 80.415,220.28 79.656,219.14 79.277,217.24 79.277,216.1 79.656,214.21 80.415,213.07 81.554,212.69 82.313,212.69 83.451,213.07 84.21,214.21 84.59,216.1 84.59,217.24 84.21,219.14 83.451,220.28 82.313,220.66 " stroke-width="0.5389" stroke-linejoin="round" />
<polyline points="68.271,257.97 69.03,258.35 70.169,259.48 70.169,251.51 " stroke-width="0.5389" stroke-linecap="round" stroke-linejoin="round" />
<polygon points="77,259.48 75.861,259.1 75.102,257.97 74.723,256.07 74.723,254.93 75.102,253.03 75.861,251.89 77,251.51 77.759,251.51 78.897,251.89 79.656,253.03 80.036,254.93 80.036,256.07 79.656,257.97 78.897,259.1 77.759,259.48 " stroke-width="0.5389" stroke-linejoin="round" />
<polyline points="84.59,261.23 82.313,261.23 82.085,259.18 82.313,259.41 82.996,259.64 83.679,259.64 84.362,259.41 84.818,258.95 85.045,258.27 85.045,257.81 84.818,257.13 84.362,256.68 83.679,256.45 82.996,256.45 82.313,256.68 82.085,256.9 81.857,257.36 " stroke-width="0.5389" stroke-linecap="round" stroke-linejoin="round" />
<line x1="32.787" y1="138.71" x2="40.757" y2="138.71" stroke-width="0.5389" stroke-linecap="round" />
<line x1="32.787" y1="138.71" x2="32.787" y2="143.64" stroke-width="0.5389" stroke-linecap="round" />
<line x1="36.582" y1="138.71" x2="36.582" y2="141.74" stroke-width="0.5389" stroke-linecap="round" />
<polygon points="32.787,145.16 33.167,145.54 32.787,145.92 32.408,145.54 " stroke-width="0.5389" stroke-linejoin="round" />
<line x1="35.444" y1="145.54" x2="40.757" y2="145.54" stroke-width="0.5389" stroke-linecap="round" />
<polyline points="32.787,148.96 39.239,148.96 40.377,149.34 40.757,150.09 40.757,150.85 " stroke-width="0.5389" stroke-linecap="round" stroke-linejoin="round" />
<line x1="35.444" y1="147.82" x2="35.444" y2="150.47" stroke-width="0.5389" stroke-linecap="round" />
<line x1="35.444" y1="153.13" x2="40.757" y2="153.13" stroke-width="0.5389" stroke-linecap="round" />
<polyline points="36.962,153.13 35.823,154.27 35.444,155.03 35.444,156.17 35.823,156.93 36.962,157.3 40.757,157.3 " stroke-width="0.5389" stroke-linecap="round" stroke-linejoin="round" />
<polyline points="37.721,159.96 37.721,164.52 36.962,164.52 36.203,164.14 35.823,163.76 35.444,163 35.444,161.86 35.823,161.1 36.582,160.34 37.721,159.96 38.48,159.96 39.618,160.34 40.377,161.1 40.757,161.86 40.757,163 40.377,163.76 39.618,164.52 " stroke-width="0.5389" stroke-linecap="round" stroke-linejoin="round" />
<polyline points="36.582,170.97 35.823,170.59 35.444,169.45 35.444,168.31 35.823,167.17 36.582,166.79 37.341,167.17 37.721,167.93 38.1,169.83 38.48,170.59 39.239,170.97 39.618,170.97 40.377,170.59 40.757,169.45 40.757,168.31 40.377,167.17 39.618,166.79 " stroke-width="0.5389" stroke-linecap="round" stroke-linejoin="round" />
<polyline points="36.582,177.42 35.823,177.04 35.444,175.9 35.444,174.76 35.823,173.62 36.582,173.24 37.341,173.62 37.721,174.38 38.1,176.28 38.48,177.04 39.239,177.42 39.618,177.42 40.377,177.04 40.757,175.9 40.757,174.76 40.377,173.62 39.618,173.24 " stroke-width="0.5389" stroke-linecap="round" stroke-linejoin="round" />
<line x1="94.405" y1="51.113" x2="94.405" y2="54.244" stroke-width="0.70588" />
<line x1="113.72" y1="51.113" x2="113.72" y2="54.244" stroke-width="0.70588" />
<line x1="133.03" y1="51.113" x2="133.03" y2="54.244" stroke-width="0.70588" />
<line x1="152.35" y1="51.113" x2="152.35" y2="54.244" stroke-width="0.70588" />
<line x1="171.66" y1="51.113" x2="171.66" y2="54.244" stroke-width="0.70588" />
<line x1="190.97" y1="51.113" x2="190.97" y2="54.244" stroke-width="0.70588" />
<line x1="210.29" y1="51.113" x2="210.29" y2="54.244" stroke-width="0.70588" />
<line x1="229.6" y1="51.113" x2="229.6" y2="54.244" stroke-width="0.70588" />
<line x1="248.91" y1="51.113" x2="248.91" y2="54.244" stroke-width="0.70588" />
<line x1="268.23" y1="51.113" x2="268.23" y2="54.244" stroke-width="0.70588" />
<line x1="287.54" y1="51.113" x2="287.54" y2="54.244" stroke-width="0.70588" />
<line x1="306.85" y1="51.113" x2="306.85" y2="54.244" stroke-width="0.70588" />
<line x1="326.17" y1="51.113" x2="326.17" y2="54.244" stroke-width="0.70588" />
<line x1="345.48" y1="51.113" x2="345.48" y2="54.244" stroke-width="0.70588" />
<line x1="364.79" y1="51.113" x2="364.79" y2="54.244" stroke-width="0.70588" />
<line x1="384.11" y1="51.113" x2="384.11" y2="54.244" stroke-width="0.70588" />
<line x1="403.42" y1="51.113" x2="403.42" y2="54.244" stroke-width="0.70588" />
<line x1="422.73" y1="51.113" x2="422.73" y2="54.244" stroke-width="0.70588" />
<line x1="442.05" y1="51.113" x2="442.05" y2="54.244" stroke-width="0.70588" />
<line x1="461.36" y1="51.113" x2="461.36" y2="54.244" stroke-width="0.70588" />
<line x1="480.67" y1="51.113" x2="480.67" y2="54.244" stroke-width="0.70588" />
<line x1="499.99" y1="51.113" x2="499.99" y2="54.244" stroke-width="0.70588" />
<line x1="519.3" y1="51.113" x2="519.3" y2="54.244" stroke-width="0.70588" />
<line x1="538.62" y1="51.113" x2="538.62" y2="54.244" stroke-width="0.70588" />
<line x1="557.93" y1="51.113" x2="557.93" y2="54.244" stroke-width="0.70588" />
<line x1="113.72" y1="51.113" x2="113.72" y2="57.375" stroke-width="0.70588" />
<line x1="210.29" y1="51.113" x2="210.29" y2="57.375" stroke-width="0.70588" />
<line x1="306.85" y1="51.113" x2="306.85" y2="57.375" stroke-width="0.70588" />
<line x1="403.42" y1="51.113" x2="403.42" y2="57.375" stroke-width="0.70588" />
<line x1="499.99" y1="51.113" x2="499.99" y2="57.375" stroke-width="0.70588" />
<line x1="91.99" y1="51.113" x2="570" y2="51.113" stroke-width="0.70588" />
<polygon points="113.34,43.143 112.2,42.764 111.44,41.625 111.06,39.728 111.06,38.589 111.44,36.691 112.2,35.553 113.34,35.173 114.1,35.173 115.24,35.553 116,36.691 116.37,38.589 116.37,39.728 116,41.625 115.24,42.764 114.1,43.143 " stroke-width="0.5389" stroke-linejoin="round" />
<polyline points="204.97,41.625 205.73,42.005 206.87,43.143 206.87,35.173 " stroke-width="0.5389" stroke-linecap="round" stroke-linejoin="round" />
<polygon points="213.7,43.143 212.56,42.764 211.8,41.625 211.42,39.728 211.42,38.589 211.8,36.691 212.56,35.553 213.7,35.173 214.46,35.173 215.6,35.553 216.36,36.691 216.74,38.589 216.74,39.728 216.36,41.625 215.6,42.764 214.46,43.143 " stroke-width="0.5389" stroke-linejoin="round" />
<polyline points="300.78,41.246 300.78,41.625 301.16,42.384 301.54,42.764 302.3,43.143 303.82,43.143 304.58,42.764 304.96,42.384 305.34,41.625 305.34,40.866 304.96,40.107 304.2,38.969 300.4,35.173 305.71,35.173 " stroke-width="0.5389" stroke-linecap="round" stroke-linejoin="round" />
<polygon points="310.27,43.143 309.13,42.764 308.37,41.625 307.99,39.728 307.99,38.589 308.37,36.691 309.13,35.553 310.27,35.173 311.03,35.173 312.17,35.553 312.93,36.691 313.3,38.589 313.3,39.728 312.93,41.625 312.17,42.764 311.03,43.143 " stroke-width="0.5389" stroke-linejoin="round" />
<polyline points="397.73,43.143 401.9,43.143 399.63,40.107 400.76,40.107 401.52,39.728 401.9,39.348 402.28,38.209 402.28,37.45 401.9,36.312 401.14,35.553 400.01,35.173 398.87,35.173 397.73,35.553 397.35,35.932 396.97,36.691 " stroke-width="0.5389" stroke-linecap="round" stroke-linejoin="round" />
<polygon points="406.84,43.143 405.7,42.764 404.94,41.625 404.56,39.728 404.56,38.589 404.94,36.691 405.7,35.553 406.84,35.173 407.6,35.173 408.73,35.553 409.49,36.691 409.87,38.589 409.87,39.728 409.49,41.625 408.73,42.764 407.6,43.143 " stroke-width="0.5389" stroke-linejoin="round" />
<polyline points="497.33,43.143 493.54,37.83 499.23,37.83 " stroke-width="0.5389" stroke-linecap="round" stroke-linejoin="round" />
<line x1="497.33" y1="43.143" x2="497.33" y2="35.173" stroke-width="0.5389" stroke-linecap="round" />
<polygon points="503.4,43.143 502.27,42.764 501.51,41.625 501.13,39.728 501.13,38.589 501.51,36.691 502.27,35.553 503.4,35.173 504.16,35.173 505.3,35.553 506.06,36.691 506.44,38.589 506.44,39.728 506.06,41.625 505.3,42.764 504.16,43.143 " stroke-width="0.5389" stroke-linejoin="round" />
<polyline points="303.1,24.547 302.72,25.306 301.96,26.065 301.2,26.445 299.69,26.445 298.93,26.065 298.17,25.306 297.79,24.547 297.41,23.409 297.41,21.511 297.79,20.373 298.17,19.614 298.93,18.855 299.69,18.475 301.2,18.475 301.96,18.855 302.72,19.614 303.1,20.373 303.1,21.511 " stroke-width="0.5389" stroke-linecap="round" stroke-linejoin="round" />
<line x1="301.2" y1="21.511" x2="303.1" y2="21.511" stroke-width="0.5389" stroke-linecap="round" />
<polyline points="305.38,21.511 309.93,21.511 309.93,22.27 309.55,23.029 309.17,23.409 308.41,23.788 307.28,23.788 306.52,23.409 305.76,22.65 305.38,21.511 305.38,20.752 305.76,19.614 306.52,18.855 307.28,18.475 308.41,18.475 309.17,18.855 309.93,19.614 " stroke-width="0.5389" stroke-linecap="round" stroke-linejoin="round" />
<line x1="312.59" y1="23.788" x2="312.59" y2="18.475" stroke-width="0.5389" stroke-linecap="round" />
<polyline points="312.59,22.27 313.73,23.409 314.49,23.788 315.63,23.788 316.38,23.409 316.76,22.27 316.76,18.475 " stroke-width="0.5389" stroke-linecap="round" stroke-linejoin="round" />
<polyline points="319.42,21.511 323.97,21.511 323.97,22.27 323.59,23.029 323.22,23.409 322.46,23.788 321.32,23.788 320.56,23.409 319.8,22.65 319.42,21.511 319.42,20.752 319.8,19.614 320.56,18.855 321.32,18.475 322.46,18.475 323.22,18.855 323.97,19.614 " stroke-width="0.5389" stroke-linecap="round" stroke-linejoin="round" />
<line x1="326.63" y1="23.788" x2="326.63" y2="18.475" stroke-width="0.5389" stroke-linecap="round" />
<polyline points="326.63,21.511 327.01,22.65 327.77,23.409 328.53,23.788 329.67,23.788 " stroke-width="0.5389" stroke-linecap="round" stroke-linejoin="round" />
<line x1="335.74" y1="23.788" x2="335.74" y2="18.475" stroke-width="0.5389" stroke-linecap="round" />
<polyline points="335.74,22.65 334.98,23.409 334.22,23.788 333.08,23.788 332.32,23.409 331.56,22.65 331.18,21.511 331.18,20.752 331.56,19.614 332.32,18.855 333.08,18.475 334.22,18.475 334.98,18.855 335.74,19.614 " stroke-width="0.5389" stroke-linecap="round" stroke-linejoin="round" />
<polyline points="339.15,26.445 339.15,19.993 339.53,18.855 340.29,18.475 341.05,18.475 " stroke-width="0.5389" stroke-linecap="round" stroke-linejoin="round" />
<line x1="338.02" y1="23.788" x2="340.67" y2="23.788" stroke-width="0.5389" stroke-linecap="round" />
<polygon points="342.95,26.445 343.33,26.065 343.71,26.445 343.33,26.824 " stroke-width="0.5389" stroke-linejoin="round" />
<line x1="343.33" y1="23.788" x2="343.33" y2="18.475" stroke-width="0.5389" stroke-linecap="round" />
<polygon points="347.88,23.788 347.12,23.409 346.37,22.65 345.99,21.511 345.99,20.752 346.37,19.614 347.12,18.855 347.88,18.475 349.02,18.475 349.78,18.855 350.54,19.614 350.92,20.752 350.92,21.511 350.54,22.65 349.78,23.409 349.02,23.788 " stroke-width="0.5389" stroke-linejoin="round" />
<line x1="353.58" y1="23.788" x2="353.58" y2="18.475" stroke-width="0.5389" stroke-linecap="round" />
<polyline points="353.58,22.27 354.71,23.409 355.47,23.788 356.61,23.788 357.37,23.409 357.75,22.27 357.75,18.475 " stroke-width="0.5389" stroke-linecap="round" stroke-linejoin="round" />
<polyline points="364.58,22.65 364.2,23.409 363.06,23.788 361.93,23.788 360.79,23.409 360.41,22.65 360.79,21.891 361.55,21.511 363.44,21.132 364.2,20.752 364.58,19.993 364.58,19.614 364.2,18.855 363.06,18.475 361.93,18.475 360.79,18.855 360.41,19.614 " stroke-width="0.5389" stroke-linecap="round" stroke-linejoin="round" />
</g>
</svg>
