<?xml version="1.0" encoding="ISO-8859-1" standalone="no"?>
<!DOCTYPE svg PUBLIC "-//W3C//DTD SVG 1.1//EN" "http://www.w3.org/Graphics/SVG/1.1/DTD/svg11.dtd">
<svg version="1.1" baseProfile="full" id="body" width="8in" height="8in" viewBox="0 0 1 1" preserveAspectRatio="none" xmlns="http://www.w3.org/2000/svg" xmlns:xlink="http://www.w3.org/1999/xlink" xmlns:ev="http://www.w3.org/2001/xml-events">
<title>SVG drawing</title>
<desc>This was produced by version 4.4 of GNU libplot, a free library for exporting 2-D vector graphics.</desc>
<rect id="background" x="0" y="0" width="1" height="1" stroke="none" fill="white"/>
<g id="content" transform="translate(0,1) scale(0.0016667,-0.0033333) " xml:space="preserve" stroke="black" stroke-linecap="butt" stroke-linejoin="miter" stroke-miterlimit="10.433" stroke-dasharray="none" stroke-dashoffset="0" stroke-opacity="1" fill="none" fill-rule="evenodd" fill-opacity="1" font-style="normal" font-variant="normal" font-weight="normal" font-stretch="normal" font-size-adjust="none" letter-spacing="normal" word-spacing="normal" text-anchor="start">
<line x1="210.41" y1="279.72" x2="210.41" y2="271.7" stroke-width="0.54225" stroke-linecap="round" />
<polyline points="210.41,279.72 213.85,279.72 215,279.34 215.38,278.96 215.76,278.19 215.76,277.05 215.38,276.28 215,275.9 213.85,275.52 210.41,275.52 " stroke-width="0.54225" stroke-linecap="round" stroke-linejoin="round" />
<polygon points="219.96,277.05 219.2,276.66 218.43,275.9 218.05,274.75 218.05,273.99 218.43,272.85 219.2,272.08 219.96,271.7 221.11,271.7 221.87,272.08 222.63,272.85 223.01,273.99 223.01,274.75 222.63,275.9 221.87,276.66 221.11,277.05 " stroke-width="0.54225" stroke-linejoin="round" />
<line x1="225.69" y1="277.05" x2="225.69" y2="269.03" stroke-width="0.54225" stroke-linecap="round" />
<polyline points="225.69,275.9 226.45,276.66 227.22,277.05 228.36,277.05 229.12,276.66 229.89,275.9 230.27,274.75 230.27,273.99 229.89,272.85 229.12,272.08 228.36,271.7 227.22,271.7 226.45,272.08 225.69,272.85 " stroke-width="0.54225" stroke-linecap="round" stroke-linejoin="round" />
<polyline points="232.94,277.05 232.94,273.23 233.33,272.08 234.09,271.7 235.23,271.7 236,272.08 237.14,273.23 " stroke-width="0.54225" stroke-linecap="round" stroke-linejoin="round" />
<line x1="237.14" y1="277.05" x2="237.14" y2="271.7" stroke-width="0.54225" stroke-linecap="round" />
<line x1="240.2" y1="279.72" x2="240.2" y2="271.7" stroke-width="0.54225" stroke-linecap="round" />
<line x1="247.45" y1="277.05" x2="247.45" y2="271.7" stroke-width="0.54225" stroke-linecap="round" />
<polyline points="247.45,275.9 246.69,276.66 245.93,277.05 244.78,277.05 244.02,276.66 243.25,275.9 242.87,274.75 242.87,273.99 243.25,272.85 244.02,272.08 244.78,271.7 245.93,271.7 246.69,272.08 247.45,272.85 " stroke-width="0.54225" stroke-linecap="round" stroke-linejoin="round" />
<polyline points="250.89,279.72 250.89,273.23 251.27,272.08 252.04,271.7 252.8,271.7 " stroke-width="0.54225" stroke-linecap="round" stroke-linejoin="round" />
<line x1="249.75" y1="277.05" x2="252.42" y2="277.05" stroke-width="0.54225" stroke-linecap="round" />
<polygon points="254.71,279.72 255.09,279.34 255.47,279.72 255.09,280.1 " stroke-width="0.54225" stroke-linejoin="round" />
<line x1="255.09" y1="277.05" x2="255.09" y2="271.7" stroke-width="0.54225" stroke-linecap="round" />
<polygon points="259.67,277.05 258.91,276.66 258.15,275.9 257.76,274.75 257.76,273.99 258.15,272.85 258.91,272.08 259.67,271.7 260.82,271.7 261.58,272.08 262.35,272.85 262.73,273.99 262.73,274.75 262.35,275.9 261.58,276.66 260.82,277.05 " stroke-width="0.54225" stroke-linejoin="round" />
<line x1="265.4" y1="277.05" x2="265.4" y2="271.7" stroke-width="0.54225" stroke-linecap="round" />
<polyline points="265.4,275.52 266.55,276.66 267.31,277.05 268.46,277.05 269.22,276.66 269.6,275.52 269.6,271.7 " stroke-width="0.54225" stroke-linecap="round" stroke-linejoin="round" />
<polyline points="273.04,278.96 272.66,279.34 273.04,279.72 273.42,279.34 273.42,278.57 273.04,277.81 272.66,277.43 " stroke-width="0.54225" stroke-linecap="round" stroke-linejoin="round" />
<polyline points="280.29,275.9 279.91,276.66 278.77,277.05 277.62,277.05 276.48,276.66 276.09,275.9 276.48,275.14 277.24,274.75 279.15,274.37 279.91,273.99 280.29,273.23 280.29,272.85 279.91,272.08 278.77,271.7 277.62,271.7 276.48,272.08 276.09,272.85 " stroke-width="0.54225" stroke-linecap="round" stroke-linejoin="round" />
<line x1="293.28" y1="277.05" x2="293.28" y2="271.7" stroke-width="0.54225" stroke-linecap="round" />
<polyline points="293.28,275.9 292.51,276.66 291.75,277.05 290.61,277.05 289.84,276.66 289.08,275.9 288.7,274.75 288.7,273.99 289.08,272.85 289.84,272.08 290.61,271.7 291.75,271.7 292.51,272.08 293.28,272.85 " stroke-width="0.54225" stroke-linecap="round" stroke-linejoin="round" />
<line x1="295.57" y1="277.05" x2="297.86" y2="271.7" stroke-width="0.54225" stroke-linecap="round" />
<line x1="300.15" y1="277.05" x2="297.86" y2="271.7" stroke-width="0.54225" stroke-linecap="round" />
<polyline points="302.06,274.75 306.64,274.75 306.64,275.52 306.26,276.28 305.88,276.66 305.12,277.05 303.97,277.05 303.21,276.66 302.44,275.9 302.06,274.75 302.06,273.99 302.44,272.85 303.21,272.08 303.97,271.7 305.12,271.7 305.88,272.08 306.64,272.85 " stroke-width="0.54225" stroke-linecap="round" stroke-linejoin="round" />
<line x1="309.32" y1="277.05" x2="309.32" y2="271.7" stroke-width="0.54225" stroke-linecap="round" />
<polyline points="309.32,274.75 309.7,275.9 310.46,276.66 311.23,277.05 312.37,277.05 " stroke-width="0.54225" stroke-linecap="round" stroke-linejoin="round" />
<line x1="318.48" y1="277.05" x2="318.48" y2="271.7" stroke-width="0.54225" stroke-linecap="round" />
<polyline points="318.48,275.9 317.72,276.66 316.95,277.05 315.81,277.05 315.04,276.66 314.28,275.9 313.9,274.75 313.9,273.99 314.28,272.85 315.04,272.08 315.81,271.7 316.95,271.7 317.72,272.08 318.48,272.85 " stroke-width="0.54225" stroke-linecap="round" stroke-linejoin="round" />
<polyline points="325.74,277.05 325.74,270.94 325.36,269.79 324.97,269.41 324.21,269.03 323.06,269.03 322.3,269.41 " stroke-width="0.54225" stroke-linecap="round" stroke-linejoin="round" />
<polyline points="325.74,275.9 324.97,276.66 324.21,277.05 323.06,277.05 322.3,276.66 321.54,275.9 321.15,274.75 321.15,273.99 321.54,272.85 322.3,272.08 323.06,271.7 324.21,271.7 324.97,272.08 325.74,272.85 " stroke-width="0.54225" stroke-linecap="round" stroke-linejoin="round" />
<polyline points="328.41,274.75 332.99,274.75 332.99,275.52 332.61,276.28 332.23,276.66 331.47,277.05 330.32,277.05 329.56,276.66 328.79,275.9 328.41,274.75 328.41,273.99 328.79,272.85 329.56,272.08 330.32,271.7 331.47,271.7 332.23,272.08 332.99,272.85 " stroke-width="0.54225" stroke-linecap="round" stroke-linejoin="round" />
<line x1="345.98" y1="277.05" x2="345.98" y2="271.7" stroke-width="0.54225" stroke-linecap="round" />
<polyline points="345.98,275.9 345.21,276.66 344.45,277.05 343.3,277.05 342.54,276.66 341.78,275.9 341.39,274.75 341.39,273.99 341.78,272.85 342.54,272.08 343.3,271.7 344.45,271.7 345.21,272.08 345.98,272.85 " stroke-width="0.54225" stroke-linecap="round" stroke-linejoin="round" />
<line x1="349.03" y1="277.05" x2="349.03" y2="271.7" stroke-width="0.54225" stroke-linecap="round" />
<polyline points="349.03,275.52 350.18,276.66 350.94,277.05 352.09,277.05 352.85,276.66 353.23,275.52 353.23,271.7 " stroke-width="0.54225" stroke-linecap="round" stroke-linejoin="round" />
<line x1="360.49" y1="279.72" x2="360.49" y2="271.7" stroke-width="0.54225" stroke-linecap="round" />
<polyline points="360.49,275.9 359.72,276.66 358.96,277.05 357.81,277.05 357.05,276.66 356.29,275.9 355.9,274.75 355.9,273.99 356.29,272.85 357.05,272.08 357.81,271.7 358.96,271.7 359.72,272.08 360.49,272.85 " stroke-width="0.54225" stroke-linecap="round" stroke-linejoin="round" />
<line x1="369.65" y1="279.72" x2="369.65" y2="271.7" stroke-width="0.54225" stroke-linecap="round" />
<polyline points="369.65,275.9 370.42,276.66 371.18,277.05 372.32,277.05 373.09,276.66 373.85,275.9 374.23,274.75 374.23,273.99 373.85,272.85 373.09,272.08 372.32,271.7 371.18,271.7 370.42,272.08 369.65,272.85 " stroke-width="0.54225" stroke-linecap="round" stroke-linejoin="round" />
<polyline points="376.53,274.75 381.11,274.75 381.11,275.52 380.73,276.28 380.34,276.66 379.58,277.05 378.43,277.05 377.67,276.66 376.91,275.9 376.53,274.75 376.53,273.99 376.91,272.85 377.67,272.08 378.43,271.7 379.58,271.7 380.34,272.08 381.11,272.85 " stroke-width="0.54225" stroke-linecap="round" stroke-linejoin="round" />
<polyline points="387.6,275.9 387.22,276.66 386.07,277.05 384.93,277.05 383.78,276.66 383.4,275.9 383.78,275.14 384.54,274.75 386.45,274.37 387.22,273.99 387.6,273.23 387.6,272.85 387.22,272.08 386.07,271.7 384.93,271.7 383.78,272.08 383.4,272.85 " stroke-width="0.54225" stroke-linecap="round" stroke-linejoin="round" />
<polyline points="390.65,279.72 390.65,273.23 391.04,272.08 391.8,271.7 392.56,271.7 " stroke-width="0.54225" stroke-linecap="round" stroke-linejoin="round" />
<line x1="389.51" y1="277.05" x2="392.18" y2="277.05" stroke-width="0.54225" stroke-linecap="round" />
<polyline points="403.26,279.72 402.49,279.72 401.73,279.34 401.35,278.19 401.35,271.7 " stroke-width="0.54225" stroke-linecap="round" stroke-linejoin="round" />
<line x1="400.2" y1="277.05" x2="402.87" y2="277.05" stroke-width="0.54225" stroke-linecap="round" />
<polygon points="405.17,279.72 405.55,279.34 405.93,279.72 405.55,280.1 " stroke-width="0.54225" stroke-linejoin="round" />
<line x1="405.55" y1="277.05" x2="405.55" y2="271.7" stroke-width="0.54225" stroke-linecap="round" />
<polyline points="408.98,279.72 408.98,273.23 409.37,272.08 410.13,271.7 410.89,271.7 " stroke-width="0.54225" stroke-linecap="round" stroke-linejoin="round" />
<line x1="407.84" y1="277.05" x2="410.51" y2="277.05" stroke-width="0.54225" stroke-linecap="round" />
<line x1="413.18" y1="277.05" x2="413.18" y2="271.7" stroke-width="0.54225" stroke-linecap="round" />
<polyline points="413.18,275.52 414.33,276.66 415.09,277.05 416.24,277.05 417,276.66 417.39,275.52 417.39,271.7 " stroke-width="0.54225" stroke-linecap="round" stroke-linejoin="round" />
<polyline points="420.06,274.75 424.64,274.75 424.64,275.52 424.26,276.28 423.88,276.66 423.11,277.05 421.97,277.05 421.2,276.66 420.44,275.9 420.06,274.75 420.06,273.99 420.44,272.85 421.2,272.08 421.97,271.7 423.11,271.7 423.88,272.08 424.64,272.85 " stroke-width="0.54225" stroke-linecap="round" stroke-linejoin="round" />
<polyline points="431.13,275.9 430.75,276.66 429.6,277.05 428.46,277.05 427.31,276.66 426.93,275.9 427.31,275.14 428.08,274.75 429.99,274.37 430.75,273.99 431.13,273.23 431.13,272.85 430.75,272.08 429.6,271.7 428.46,271.7 427.31,272.08 426.93,272.85 " stroke-width="0.54225" stroke-linecap="round" stroke-linejoin="round" />
<polyline points="437.62,275.9 437.24,276.66 436.1,277.05 434.95,277.05 433.81,276.66 433.42,275.9 433.81,275.14 434.57,274.75 436.48,274.37 437.24,273.99 437.62,273.23 437.62,272.85 437.24,272.08 436.1,271.7 434.95,271.7 433.81,272.08 433.42,272.85 " stroke-width="0.54225" stroke-linecap="round" stroke-linejoin="round" />
<polyline points="100.03,66.963 102.28,66.462 104.53,65.96 106.78,67.464 109.03,66.462 111.28,66.963 113.53,66.963 115.78,66.963 118.03,67.464 120.28,66.963 122.53,67.464 124.78,67.464 127.02,66.462 129.27,66.462 131.52,67.464 133.77,82.505 136.02,69.971 138.27,71.475 140.52,87.518 142.77,75.486 145.02,94.036 147.27,117.1 149.52,74.985 151.77,123.11 154.01,103.56 156.26,104.06 158.51,111.58 160.76,108.07 163.01,129.13 165.26,97.545 167.51,84.009 169.76,109.58 172.01,87.518 174.26,89.022 176.51,144.17 178.76,115.59 181,115.09 183.25,116.6 185.5,101.05 187.75,127.12 190,197.31 192.25,139.66 194.5,132.64 196.75,166.73 199,129.63 201.25,217.87 203.5,184.28 205.75,172.25 208,180.27 210.24,181.27 212.49,169.24 214.74,156.7 216.99,135.15 219.24,166.73 221.49,180.77 223.74,156.2 225.99,177.76 228.24,140.66 230.49,208.34 232.74,213.36 234.99,190.8 237.23,192.3 239.48,173.25 241.73,198.32 243.98,210.35 246.23,159.21 248.48,157.21 250.73,214.36 252.98,204.83 255.23,222.38 257.48,183.78 259.73,191.8 261.98,165.73 264.22,187.79 266.47,172.75 268.72,215.36 270.97,176.26 273.22,164.73 275.47,235.92 277.72,194.31 279.97,187.79 282.22,158.71 284.47,180.27 286.72,141.66 288.97,166.73 291.21,209.35 293.46,168.24 295.71,168.24 297.96,211.85 300.21,166.73 302.46,210.85 304.71,172.25 306.96,172.75 309.21,207.84 311.46,195.81 313.71,208.84 315.96,153.2 318.2,173.25 320.45,177.26 322.7,209.85 324.95,132.64 327.2,169.24 329.45,201.32 331.7,174.75 333.95,186.79 336.2,173.75 338.45,148.68 340.7,207.84 342.95,212.86 345.19,138.15 347.44,196.81 349.69,201.83 351.94,134.14 354.19,153.7 356.44,188.29 358.69,171.24 360.94,205.84 363.19,157.21 365.44,183.78 367.69,254.97 369.94,196.31 372.18,188.79 374.43,167.23 376.68,202.83 378.93,212.86 381.18,126.12 383.43,139.16 385.68,178.26 387.93,138.66 390.18,142.67 392.43,146.68 394.68,179.77 396.93,193.8 399.18,202.83 401.42,242.44 403.67,142.67 405.92,178.26 408.17,197.31 410.42,206.84 412.67,193.8 414.92,164.22 417.17,201.83 419.42,208.34 421.67,194.31 423.92,188.79 426.17,203.33 428.41,207.84 430.66,168.24 432.91,194.81 435.16,201.32 437.41,185.78 439.66,159.71 441.91,203.33 444.16,227.9 446.41,172.25 448.66,152.69 450.91,198.82 453.16,169.24 455.4,189.79 457.65,167.73 459.9,162.72 462.15,152.19 464.4,191.3 466.65,175.76 468.9,208.34 471.15,129.63 473.4,177.26 475.65,208.84 477.9,199.82 480.15,200.82 482.39,177.26 484.64,167.23 486.89,187.29 489.14,186.28 491.39,192.3 493.64,190.8 495.89,184.28 498.14,198.82 500.39,196.81 502.64,164.22 504.89,171.24 507.14,217.87 509.38,189.79 511.63,207.84 513.88,200.32 516.13,198.32 518.38,183.28 520.63,207.84 522.88,170.74 525.13,175.76 527.38,208.34 529.63,220.88 531.88,239.43 534.13,165.23 536.37,180.77 538.62,190.8 540.87,154.7 543.12,175.25 545.37,189.79 547.62,173.75 " stroke="red" stroke-width="0.42005" />
<polyline points="100.03,61.939 102.28,62.015 104.53,61.704 106.78,62.105 109.03,61.644 111.28,61.784 113.53,62.22 115.78,61.975 118.03,62.391 120.28,61.889 122.53,62.155 124.78,62.391 127.02,61.864 129.27,61.729 131.52,61.99 133.77,62.401 136.02,62.215 138.27,62.32 140.52,63.118 142.77,62.421 145.02,62.822 147.27,64.511 149.52,63.083 151.77,66.532 154.01,65.715 156.26,66.271 158.51,64.05 160.76,64.185 163.01,64.206 165.26,63.624 167.51,63.113 169.76,64.983 172.01,63.729 174.26,63.699 176.51,66.707 178.76,65.785 181,66.376 183.25,66.968 185.5,66.512 187.75,66.898 190,68.176 192.25,69.846 194.5,70.237 196.75,69.159 199,67.83 201.25,69.986 203.5,70.683 205.75,73.701 208,72.297 210.24,72.057 212.49,72.839 214.74,72.047 216.99,68.873 219.24,68.196 221.49,69.796 223.74,72.107 225.99,69.264 228.24,68.191 230.49,72.418 232.74,75.696 234.99,75.165 237.23,73.476 239.48,74.799 241.73,76.088 243.98,77.436 246.23,79.913 248.48,73.706 250.73,77.306 252.98,77.882 255.23,74.844 257.48,75.095 259.73,73.942 261.98,75.792 264.22,79.422 266.47,77.662 268.72,79.201 270.97,76.017 273.22,78.298 275.47,80.078 277.72,75.822 279.97,75.436 282.22,74.779 284.47,73.28 286.72,69.986 288.97,70.939 291.21,72.899 293.46,72.814 295.71,73.736 297.96,78.314 300.21,74.854 302.46,75.225 304.71,74.243 306.96,73.942 309.21,73.731 311.46,75.777 313.71,73.731 315.96,74.729 318.2,76.604 320.45,75.922 322.7,76.193 324.95,72.799 327.2,73.671 329.45,75.11 331.7,73.034 333.95,76.754 336.2,75.646 338.45,72.683 340.7,75.451 342.95,76.885 345.19,69.856 347.44,76.449 349.69,73.967 351.94,72.438 354.19,73.917 356.44,72.408 358.69,73.766 360.94,75.04 363.19,75.416 365.44,73.521 367.69,78.153 369.94,78.494 372.18,75.32 374.43,71.946 376.68,75.265 378.93,72.508 381.18,70.838 383.43,71.55 385.68,74.233 387.93,74.749 390.18,71.084 392.43,73.019 394.68,72.327 396.93,75.641 399.18,75.686 401.42,75.11 403.67,78.519 405.92,78.083 408.17,81.432 410.42,82.71 412.67,75.807 414.92,81.337 417.17,78.955 419.42,83.573 421.67,79.206 423.92,76.524 426.17,79.843 428.41,84.836 430.66,75.421 432.91,81.723 435.16,78.168 437.41,82.054 439.66,80.69 441.91,79.04 444.16,84.079 446.41,77.682 448.66,76.078 450.91,78.063 453.16,80.895 455.4,76.088 457.65,75.842 459.9,77.02 462.15,76.719 464.4,78.865 466.65,75.832 468.9,75.701 471.15,76.193 473.4,78.935 475.65,81.487 477.9,79.281 480.15,80.56 482.39,77.035 484.64,77.998 486.89,82.53 489.14,78.755 491.39,74.012 493.64,75.701 495.89,78.85 498.14,78.248 500.39,79.888 502.64,74.694 504.89,75.671 507.14,83.688 509.38,76.9 511.63,82.344 513.88,77.958 516.13,78.248 518.38,75.411 520.63,79.727 522.88,74.353 525.13,78.97 527.38,83.964 529.63,74.959 531.88,73.821 534.13,74.699 536.37,80.194 538.62,80.941 540.87,74.995 543.12,77.551 545.37,77.421 547.62,79.336 " stroke="blue" stroke-width="0.42005" />
<line x1="570" y1="57.437" x2="566.85" y2="57.437" stroke-width="0.70588" />
<line x1="570" y1="67.464" x2="566.85" y2="67.464" stroke-width="0.70588" />
<line x1="570" y1="77.491" x2="566.85" y2="77.491" stroke-width="0.70588" />
<line x1="570" y1="87.518" x2="566.85" y2="87.518" stroke-width="0.70588" />
<line x1="570" y1="97.545" x2="566.85" y2="97.545" stroke-width="0.70588" />
<line x1="570" y1="107.57" x2="566.85" y2="107.57" stroke-width="0.70588" />
<line x1="570" y1="117.6" x2="566.85" y2="117.6" stroke-width="0.70588" />
<line x1="570" y1="127.63" x2="566.85" y2="127.63" stroke-width="0.70588" />
<line x1="570" y1="137.65" x2="566.85" y2="137.65" stroke-width="0.70588" />
<line x1="570" y1="147.68" x2="566.85" y2="147.68" stroke-width="0.70588" />
<line x1="570" y1="157.71" x2="566.85" y2="157.71" stroke-width="0.70588" />
<line x1="570" y1="167.73" x2="566.85" y2="167.73" stroke-width="0.70588" />
<line x1="570" y1="177.76" x2="566.85" y2="177.76" stroke-width="0.70588" />
<line x1="570" y1="187.79" x2="566.85" y2="187.79" stroke-width="0.70588" />
<line x1="570" y1="197.82" x2="566.85" y2="197.82" stroke-width="0.70588" />
<line x1="570" y1="207.84" x2="566.85" y2="207.84" stroke-width="0.70588" />
<line x1="570" y1="217.87" x2="566.85" y2="217.87" stroke-width="0.70588" />
<line x1="570" y1="227.9" x2="566.85" y2="227.9" stroke-width="0.70588" />
<line x1="570" y1="237.92" x2="566.85" y2="237.92" stroke-width="0.70588" />
<line x1="570" y1="247.95" x2="566.85" y2="247.95" stroke-width="0.70588" />
<line x1="570" y1="257.98" x2="566.85" y2="257.98" stroke-width="0.70588" />
<line x1="570" y1="57.437" x2="563.7" y2="57.437" stroke-width="0.70588" />
<line x1="570" y1="107.57" x2="563.7" y2="107.57" stroke-width="0.70588" />
<line x1="570" y1="157.71" x2="563.7" y2="157.71" stroke-width="0.70588" />
<line x1="570" y1="207.84" x2="563.7" y2="207.84" stroke-width="0.70588" />
<line x1="570" y1="257.98" x2="563.7" y2="257.98" stroke-width="0.70588" />
<line x1="570" y1="51.977" x2="570" y2="264.64" stroke-width="0.70588" />
<line x1="100.03" y1="264.64" x2="100.03" y2="261.48" stroke-width="0.70588" />
<line x1="122.53" y1="264.64" x2="122.53" y2="261.48" stroke-width="0.70588" />
<line x1="145.02" y1="264.64" x2="145.02" y2="261.48" stroke-width="0.70588" />
<line x1="167.51" y1="264.64" x2="167.51" y2="261.48" stroke-width="0.70588" />
<line x1="190" y1="264.64" x2="190" y2="261.48" stroke-width="0.70588" />
<line x1="212.49" y1="264.64" x2="212.49" y2="261.48" stroke-width="0.70588" />
<line x1="234.99" y1="264.64" x2="234.99" y2="261.48" stroke-width="0.70588" />
<line x1="257.48" y1="264.64" x2="257.48" y2="261.48" stroke-width="0.70588" />
<line x1="279.97" y1="264.64" x2="279.97" y2="261.48" stroke-width="0.70588" />
<line x1="302.46" y1="264.64" x2="302.46" y2="261.48" stroke-width="0.70588" />
<line x1="324.95" y1="264.64" x2="324.95" y2="261.48" stroke-width="0.70588" />
<line x1="347.44" y1="264.64" x2="347.44" y2="261.48" stroke-width="0.70588" />
<line x1="369.94" y1="264.64" x2="369.94" y2="261.48" stroke-width="0.70588" />
<line x1="392.43" y1="264.64" x2="392.43" y2="261.48" stroke-width="0.70588" />
<line x1="414.92" y1="264.64" x2="414.92" y2="261.48" stroke-width="0.70588" />
<line x1="437.41" y1="264.64" x2="437.41" y2="261.48" stroke-width="0.70588" />
<line x1="459.9" y1="264.64" x2="459.9" y2="261.48" stroke-width="0.70588" />
<line x1="482.39" y1="264.64" x2="482.39" y2="261.48" stroke-width="0.70588" />
<line x1="504.89" y1="264.64" x2="504.89" y2="261.48" stroke-width="0.70588" />
<line x1="527.38" y1="264.64" x2="527.38" y2="261.48" stroke-width="0.70588" />
<line x1="549.87" y1="264.64" x2="549.87" y2="261.48" stroke-width="0.70588" />
<line x1="100.03" y1="264.64" x2="100.03" y2="258.33" stroke-width="0.70588" />
<line x1="212.49" y1="264.64" x2="212.49" y2="258.33" stroke-width="0.70588" />
<line x1="324.95" y1="264.64" x2="324.95" y2="258.33" stroke-width="0.70588" />
<line x1="437.41" y1="264.64" x2="437.41" y2="258.33" stroke-width="0.70588" />
<line x1="549.87" y1="264.64" x2="549.87" y2="258.33" stroke-width="0.70588" />
<line x1="77.655" y1="264.64" x2="570" y2="264.64" stroke-width="0.70588" />
<line x1="77.655" y1="57.437" x2="80.806" y2="57.437" stroke-width="0.70588" />
<line x1="77.655" y1="67.464" x2="80.806" y2="67.464" stroke-width="0.70588" />
<line x1="77.655" y1="77.491" x2="80.806" y2="77.491" stroke-width="0.70588" />
<line x1="77.655" y1="87.518" x2="80.806" y2="87.518" stroke-width="0.70588" />
<line x1="77.655" y1="97.545" x2="80.806" y2="97.545" stroke-width="0.70588" />
<line x1="77.655" y1="107.57" x2="80.806" y2="107.57" stroke-width="0.70588" />
<line x1="77.655" y1="117.6" x2="80.806" y2="117.6" stroke-width="0.70588" />
<line x1="77.655" y1="127.63" x2="80.806" y2="127.63" stroke-width="0.70588" />
<line x1="77.655" y1="137.65" x2="80.806" y2="137.65" stroke-width="0.70588" />
<line x1="77.655" y1="147.68" x2="80.806" y2="147.68" stroke-width="0.70588" />
<line x1="77.655" y1="157.71" x2="80.806" y2="157.71" stroke-width="0.70588" />
<line x1="77.655" y1="167.73" x2="80.806" y2="167.73" stroke-width="0.70588" />
<line x1="77.655" y1="177.76" x2="80.806" y2="177.76" stroke-width="0.70588" />
<line x1="77.655" y1="187.79" x2="80.806" y2="187.79" stroke-width="0.70588" />
<line x1="77.655" y1="197.82" x2="80.806" y2="197.82" stroke-width="0.70588" />
<line x1="77.655" y1="207.84" x2="80.806" y2="207.84" stroke-width="0.70588" />
<line x1="77.655" y1="217.87" x2="80.806" y2="217.87" stroke-width="0.70588" />
<line x1="77.655" y1="227.9" x2="80.806" y2="227.9" stroke-width="0.70588" />
<line x1="77.655" y1="237.92" x2="80.806" y2="237.92" stroke-width="0.70588" />
<line x1="77.655" y1="247.95" x2="80.806" y2="247.95" stroke-width="0.70588" />
<line x1="77.655" y1="257.98" x2="80.806" y2="257.98" stroke-width="0.70588" />
<line x1="77.655" y1="57.437" x2="83.956" y2="57.437" stroke-width="0.70588" />
<line x1="77.655" y1="107.57" x2="83.956" y2="107.57" stroke-width="0.70588" />
<line x1="77.655" y1="157.71" x2="83.956" y2="157.71" stroke-width="0.70588" />
<line x1="77.655" y1="207.84" x2="83.956" y2="207.84" stroke-width="0.70588" />
<line x1="77.655" y1="257.98" x2="83.956" y2="257.98" stroke-width="0.70588" />
<line x1="77.655" y1="51.977" x2="77.655" y2="264.64" stroke-width="0.70588" />
<polyline points="67.154,62.02 66.008,61.638 65.245,60.492 64.863,58.583 64.863,57.437 65.245,55.528 66.008,54.382 67.154,54.001 67.918,54.001 69.063,54.382 69.827,55.528 70.209,57.437 70.209,58.583 69.827,60.492 69.063,61.638 67.918,62.02 67.154,62.02 " stroke-width="0.54225" stroke-linecap="round" stroke-linejoin="round" />
<polyline points="50.734,110.63 51.497,111.01 52.643,112.15 52.643,104.14 " stroke-width="0.54225" stroke-linecap="round" stroke-linejoin="round" />
<polyline points="59.517,112.15 58.371,111.77 57.607,110.63 57.225,108.72 57.225,107.57 57.607,105.66 58.371,104.52 59.517,104.14 60.28,104.14 61.426,104.52 62.19,105.66 62.572,107.57 62.572,108.72 62.19,110.63 61.426,111.77 60.28,112.15 59.517,112.15 " stroke-width="0.54225" stroke-linecap="round" stroke-linejoin="round" />
<polygon points="67.154,112.15 66.008,111.77 65.245,110.63 64.863,108.72 64.863,107.57 65.245,105.66 66.008,104.52 67.154,104.14 67.918,104.14 69.063,104.52 69.827,105.66 70.209,107.57 70.209,108.72 69.827,110.63 69.063,111.77 67.918,112.15 " stroke-width="0.54225" stroke-linejoin="round" />
<polyline points="49.97,160.38 49.97,160.76 50.352,161.53 50.734,161.91 51.497,162.29 53.025,162.29 53.789,161.91 54.171,161.53 54.552,160.76 54.552,160 54.171,159.23 53.407,158.09 49.588,154.27 54.934,154.27 " stroke-width="0.54225" stroke-linecap="round" stroke-linejoin="round" />
<polygon points="59.517,162.29 58.371,161.91 57.607,160.76 57.225,158.85 57.225,157.71 57.607,155.8 58.371,154.65 59.517,154.27 60.28,154.27 61.426,154.65 62.19,155.8 62.572,157.71 62.572,158.85 62.19,160.76 61.426,161.91 60.28,162.29 " stroke-width="0.54225" stroke-linejoin="round" />
<polygon points="67.154,162.29 66.008,161.91 65.245,160.76 64.863,158.85 64.863,157.71 65.245,155.8 66.008,154.65 67.154,154.27 67.918,154.27 69.063,154.65 69.827,155.8 70.209,157.71 70.209,158.85 69.827,160.76 69.063,161.91 67.918,162.29 " stroke-width="0.54225" stroke-linejoin="round" />
<polyline points="50.352,212.42 54.552,212.42 52.261,209.37 53.407,209.37 54.171,208.99 54.552,208.61 54.934,207.46 54.934,206.7 54.552,205.55 53.789,204.79 52.643,204.41 51.497,204.41 50.352,204.79 49.97,205.17 49.588,205.93 " stroke-width="0.54225" stroke-linecap="round" stroke-linejoin="round" />
<polyline points="59.517,212.42 58.371,212.04 57.607,210.9 57.225,208.99 57.225,207.84 57.607,205.93 58.371,204.79 59.517,204.41 60.28,204.41 61.426,204.79 62.19,205.93 62.572,207.84 62.572,208.99 62.19,210.9 61.426,212.04 60.28,212.42 59.517,212.42 " stroke-width="0.54225" stroke-linecap="round" stroke-linejoin="round" />
<polygon points="67.154,212.42 66.008,212.04 65.245,210.9 64.863,208.99 64.863,207.84 65.245,205.93 66.008,204.79 67.154,204.41 67.918,204.41 69.063,204.79 69.827,205.93 70.209,207.84 70.209,208.99 69.827,210.9 69.063,212.04 67.918,212.42 " stroke-width="0.54225" stroke-linejoin="round" />
<polyline points="53.407,262.56 49.588,257.21 55.316,257.21 " stroke-width="0.54225" stroke-linecap="round" stroke-linejoin="round" />
<line x1="53.407" y1="262.56" x2="53.407" y2="254.54" stroke-width="0.54225" stroke-linecap="round" />
<polygon points="59.517,262.56 58.371,262.18 57.607,261.03 57.225,259.12 57.225,257.98 57.607,256.07 58.371,254.92 59.517,254.54 60.28,254.54 61.426,254.92 62.19,256.07 62.572,257.98 62.572,259.12 62.19,261.03 61.426,262.18 60.28,262.56 " stroke-width="0.54225" stroke-linejoin="round" />
<polygon points="67.154,262.56 66.008,262.18 65.245,261.03 64.863,259.12 64.863,257.98 65.245,256.07 66.008,254.92 67.154,254.54 67.918,254.54 69.063,254.92 69.827,256.07 70.209,257.98 70.209,259.12 69.827,261.03 69.063,262.18 67.918,262.56 " stroke-width="0.54225" stroke-linejoin="round" />
<line x1="33.359" y1="138.6" x2="41.378" y2="138.6" stroke-width="0.54225" stroke-linecap="round" />
<line x1="33.359" y1="138.6" x2="33.359" y2="143.57" stroke-width="0.54225" stroke-linecap="round" />
<line x1="37.177" y1="138.6" x2="37.177" y2="141.66" stroke-width="0.54225" stroke-linecap="round" />
<polygon points="33.359,145.09 33.741,145.48 33.359,145.86 32.977,145.48 " stroke-width="0.54225" stroke-linejoin="round" />
<line x1="36.032" y1="145.48" x2="41.378" y2="145.48" stroke-width="0.54225" stroke-linecap="round" />
<polyline points="33.359,148.91 39.85,148.91 40.996,149.29 41.378,150.06 41.378,150.82 " stroke-width="0.54225" stroke-linecap="round" stroke-linejoin="round" />
<line x1="36.032" y1="147.77" x2="36.032" y2="150.44" stroke-width="0.54225" stroke-linecap="round" />
<line x1="36.032" y1="153.11" x2="41.378" y2="153.11" stroke-width="0.54225" stroke-linecap="round" />
<polyline points="37.559,153.11 36.414,154.26 36.032,155.02 36.032,156.17 36.414,156.93 37.559,157.31 41.378,157.31 " stroke-width="0.54225" stroke-linecap="round" stroke-linejoin="round" />
<polyline points="38.323,159.99 38.323,164.57 37.559,164.57 36.796,164.19 36.414,163.8 36.032,163.04 36.032,161.9 36.414,161.13 37.177,160.37 38.323,159.99 39.087,159.99 40.232,160.37 40.996,161.13 41.378,161.9 41.378,163.04 40.996,163.8 40.232,164.57 " stroke-width="0.54225" stroke-linecap="round" stroke-linejoin="round" />
<polyline points="37.177,171.06 36.414,170.68 36.032,169.53 36.032,168.39 36.414,167.24 37.177,166.86 37.941,167.24 38.323,168.01 38.705,169.91 39.087,170.68 39.85,171.06 40.232,171.06 40.996,170.68 41.378,169.53 41.378,168.39 40.996,167.24 40.232,166.86 " stroke-width="0.54225" stroke-linecap="round" stroke-linejoin="round" />
<polyline points="37.177,177.55 36.414,177.17 36.032,176.02 36.032,174.88 36.414,173.73 37.177,173.35 37.941,173.73 38.323,174.5 38.705,176.41 39.087,177.17 39.85,177.55 40.232,177.55 40.996,177.17 41.378,176.02 41.378,174.88 40.996,173.73 40.232,173.35 " stroke-width="0.54225" stroke-linecap="round" stroke-linejoin="round" />
<line x1="100.03" y1="51.977" x2="100.03" y2="55.128" stroke-width="0.70588" />
<line x1="122.53" y1="51.977" x2="122.53" y2="55.128" stroke-width="0.70588" />
<line x1="145.02" y1="51.977" x2="145.02" y2="55.128" stroke-width="0.70588" />
<line x1="167.51" y1="51.977" x2="167.51" y2="55.128" stroke-width="0.70588" />
<line x1="190" y1="51.977" x2="190" y2="55.128" stroke-width="0.70588" />
<line x1="212.49" y1="51.977" x2="212.49" y2="55.128" stroke-width="0.70588" />
<line x1="234.99" y1="51.977" x2="234.99" y2="55.128" stroke-width="0.70588" />
<line x1="257.48" y1="51.977" x2="257.48" y2="55.128" stroke-width="0.70588" />
<line x1="279.97" y1="51.977" x2="279.97" y2="55.128" stroke-width="0.70588" />
<line x1="302.46" y1="51.977" x2="302.46" y2="55.128" stroke-width="0.70588" />
<line x1="324.95" y1="51.977" x2="324.95" y2="55.128" stroke-width="0.70588" />
<line x1="347.44" y1="51.977" x2="347.44" y2="55.128" stroke-width="0.70588" />
<line x1="369.94" y1="51.977" x2="369.94" y2="55.128" stroke-width="0.70588" />
<line x1="392.43" y1="51.977" x2="392.43" y2="55.128" stroke-width="0.70588" />
<line x1="414.92" y1="51.977" x2="414.92" y2="55.128" stroke-width="0.70588" />
<line x1="437.41" y1="51.977" x2="437.41" y2="55.128" stroke-width="0.70588" />
<line x1="459.9" y1="51.977" x2="459.9" y2="55.128" stroke-width="0.70588" />
<line x1="482.39" y1="51.977" x2="482.39" y2="55.128" stroke-width="0.70588" />
<line x1="504.89" y1="51.977" x2="504.89" y2="55.128" stroke-width="0.70588" />
<line x1="527.38" y1="51.977" x2="527.38" y2="55.128" stroke-width="0.70588" />
<line x1="549.87" y1="51.977" x2="549.87" y2="55.128" stroke-width="0.70588" />
<line x1="100.03" y1="51.977" x2="100.03" y2="58.278" stroke-width="0.70588" />
<line x1="212.49" y1="51.977" x2="212.49" y2="58.278" stroke-width="0.70588" />
<line x1="324.95" y1="51.977" x2="324.95" y2="58.278" stroke-width="0.70588" />
<line x1="437.41" y1="51.977" x2="437.41" y2="58.278" stroke-width="0.70588" />
<line x1="549.87" y1="51.977" x2="549.87" y2="58.278" stroke-width="0.70588" />
<line x1="77.655" y1="51.977" x2="570" y2="51.977" stroke-width="0.70588" />
<polyline points="99.653,43.958 98.507,43.576 97.743,42.431 97.362,40.521 97.362,39.376 97.743,37.466 98.507,36.321 99.653,35.939 100.42,35.939 101.56,36.321 102.33,37.466 102.71,39.376 102.71,40.521 102.33,42.431 101.56,43.576 100.42,43.958 99.653,43.958 " stroke-width="0.54225" stroke-linecap="round" stroke-linejoin="round" />
<polyline points="210.58,43.958 206.77,43.958 206.38,40.521 206.77,40.903 207.91,41.285 209.06,41.285 210.2,40.903 210.97,40.139 211.35,38.994 211.35,38.23 210.97,37.085 210.2,36.321 209.06,35.939 207.91,35.939 206.77,36.321 206.38,36.703 206,37.466 " stroke-width="0.54225" stroke-linecap="round" stroke-linejoin="round" />
<polyline points="215.93,43.958 214.78,43.576 214.02,42.431 213.64,40.521 213.64,39.376 214.02,37.466 214.78,36.321 215.93,35.939 216.69,35.939 217.84,36.321 218.6,37.466 218.99,39.376 218.99,40.521 218.6,42.431 217.84,43.576 216.69,43.958 215.93,43.958 " stroke-width="0.54225" stroke-linecap="round" stroke-linejoin="round" />
<polyline points="315.79,42.431 316.55,42.813 317.7,43.958 317.7,35.939 " stroke-width="0.54225" stroke-linecap="round" stroke-linejoin="round" />
<polygon points="324.57,43.958 323.42,43.576 322.66,42.431 322.28,40.521 322.28,39.376 322.66,37.466 323.42,36.321 324.57,35.939 325.33,35.939 326.48,36.321 327.24,37.466 327.63,39.376 327.63,40.521 327.24,42.431 326.48,43.576 325.33,43.958 " stroke-width="0.54225" stroke-linejoin="round" />
<polygon points="332.21,43.958 331.06,43.576 330.3,42.431 329.92,40.521 329.92,39.376 330.3,37.466 331.06,36.321 332.21,35.939 332.97,35.939 334.12,36.321 334.88,37.466 335.26,39.376 335.26,40.521 334.88,42.431 334.12,43.576 332.97,43.958 " stroke-width="0.54225" stroke-linejoin="round" />
<polyline points="428.25,42.431 429.01,42.813 430.16,43.958 430.16,35.939 " stroke-width="0.54225" stroke-linecap="round" stroke-linejoin="round" />
<polyline points="439.32,43.958 435.5,43.958 435.12,40.521 435.5,40.903 436.65,41.285 437.79,41.285 438.94,40.903 439.7,40.139 440.08,38.994 440.08,38.23 439.7,37.085 438.94,36.321 437.79,35.939 436.65,35.939 435.5,36.321 435.12,36.703 434.74,37.466 " stroke-width="0.54225" stroke-linecap="round" stroke-linejoin="round" />
<polyline points="444.67,43.958 443.52,43.576 442.76,42.431 442.38,40.521 442.38,39.376 442.76,37.466 443.52,36.321 444.67,35.939 445.43,35.939 446.58,36.321 447.34,37.466 447.72,39.376 447.72,40.521 447.34,42.431 446.58,43.576 445.43,43.958 444.67,43.958 " stroke-width="0.54225" stroke-linecap="round" stroke-linejoin="round" />
<polyline points="539.94,42.049 539.94,42.431 540.32,43.194 540.71,43.576 541.47,43.958 543,43.958 543.76,43.576 544.14,43.194 544.52,42.431 544.52,41.667 544.14,40.903 543.38,39.758 539.56,35.939 544.91,35.939 " stroke-width="0.54225" stroke-linecap="round" stroke-linejoin="round" />
<polyline points="549.49,43.958 548.34,43.576 547.58,42.431 547.2,40.521 547.2,39.376 547.58,37.466 548.34,36.321 549.49,35.939 550.25,35.939 551.4,36.321 552.16,37.466 552.54,39.376 552.54,40.521 552.16,42.431 551.4,43.576 550.25,43.958 549.49,43.958 " stroke-width="0.54225" stroke-linecap="round" stroke-linejoin="round" />
<polygon points="557.13,43.958 555.98,43.576 555.22,42.431 554.83,40.521 554.83,39.376 555.22,37.466 555.98,36.321 557.13,35.939 557.89,35.939 559.03,36.321 559.8,37.466 560.18,39.376 560.18,40.521 559.8,42.431 559.03,43.576 557.89,43.958 " stroke-width="0.54225" stroke-linejoin="round" />
<polyline points="295.76,25.247 295.38,26.01 294.61,26.774 293.85,27.156 292.32,27.156 291.56,26.774 290.8,26.01 290.41,25.247 290.03,24.101 290.03,22.192 290.41,21.046 290.8,20.282 291.56,19.519 292.32,19.137 293.85,19.137 294.61,19.519 295.38,20.282 295.76,21.046 295.76,22.192 " stroke-width="0.54225" stroke-linecap="round" stroke-linejoin="round" />
<line x1="293.85" y1="22.192" x2="295.76" y2="22.192" stroke-width="0.54225" stroke-linecap="round" />
<polyline points="298.05,22.192 302.63,22.192 302.63,22.955 302.25,23.719 301.87,24.101 301.11,24.483 299.96,24.483 299.2,24.101 298.43,23.337 298.05,22.192 298.05,21.428 298.43,20.282 299.2,19.519 299.96,19.137 301.11,19.137 301.87,19.519 302.63,20.282 " stroke-width="0.54225" stroke-linecap="round" stroke-linejoin="round" />
<line x1="305.31" y1="24.483" x2="305.31" y2="19.137" stroke-width="0.54225" stroke-linecap="round" />
<polyline points="305.31,22.955 306.45,24.101 307.22,24.483 308.36,24.483 309.13,24.101 309.51,22.955 309.51,19.137 " stroke-width="0.54225" stroke-linecap="round" stroke-linejoin="round" />
<polyline points="312.18,22.192 316.76,22.192 316.76,22.955 316.38,23.719 316,24.101 315.24,24.483 314.09,24.483 313.33,24.101 312.56,23.337 312.18,22.192 312.18,21.428 312.56,20.282 313.33,19.519 314.09,19.137 315.24,19.137 316,19.519 316.76,20.282 " stroke-width="0.54225" stroke-linecap="round" stroke-linejoin="round" />
<line x1="319.44" y1="24.483" x2="319.44" y2="19.137" stroke-width="0.54225" stroke-linecap="round" />
<polyline points="319.44,22.192 319.82,23.337 320.58,24.101 321.35,24.483 322.49,24.483 " stroke-width="0.54225" stroke-linecap="round" stroke-linejoin="round" />
<line x1="328.6" y1="24.483" x2="328.6" y2="19.137" stroke-width="0.54225" stroke-linecap="round" />
<polyline points="328.6,23.337 327.84,24.101 327.07,24.483 325.93,24.483 325.16,24.101 324.4,23.337 324.02,22.192 324.02,21.428 324.4,20.282 325.16,19.519 325.93,19.137 327.07,19.137 327.84,19.519 328.6,20.282 " stroke-width="0.54225" stroke-linecap="round" stroke-linejoin="round" />
<polyline points="332.04,27.156 332.04,20.664 332.42,19.519 333.18,19.137 333.95,19.137 " stroke-width="0.54225" stroke-linecap="round" stroke-linejoin="round" />
<line x1="330.89" y1="24.483" x2="333.57" y2="24.483" stroke-width="0.54225" stroke-linecap="round" />
<polygon points="335.86,27.156 336.24,26.774 336.62,27.156 336.24,27.538 " stroke-width="0.54225" stroke-linejoin="round" />
<line x1="336.24" y1="24.483" x2="336.24" y2="19.137" stroke-width="0.54225" stroke-linecap="round" />
<polygon points="340.82,24.483 340.06,24.101 339.29,23.337 338.91,22.192 338.91,21.428 339.29,20.282 340.06,19.519 340.82,19.137 341.97,19.137 342.73,19.519 343.49,20.282 343.88,21.428 343.88,22.192 343.49,23.337 342.73,24.101 341.97,24.483 " stroke-width="0.54225" stroke-linejoin="round" />
<line x1="346.55" y1="24.483" x2="346.55" y2="19.137" stroke-width="0.54225" stroke-linecap="round" />
<polyline points="346.55,22.955 347.69,24.101 348.46,24.483 349.6,24.483 350.37,24.101 350.75,22.955 350.75,19.137 " stroke-width="0.54225" stroke-linecap="round" stroke-linejoin="round" />
<polyline points="357.62,23.337 357.24,24.101 356.1,24.483 354.95,24.483 353.8,24.101 353.42,23.337 353.8,22.574 354.57,22.192 356.48,21.81 357.24,21.428 357.62,20.664 357.62,20.282 357.24,19.519 356.1,19.137 354.95,19.137 353.8,19.519 353.42,20.282 " stroke-width="0.54225" stroke-linecap="round" stroke-linejoin="round" />
</g>
</svg>
