<?xml version="1.0" encoding="ISO-8859-1" standalone="no"?>
<!DOCTYPE svg PUBLIC "-//W3C//DTD SVG 1.1//EN" "http://www.w3.org/Graphics/SVG/1.1/DTD/svg11.dtd">
<svg version="1.1" baseProfile="full" id="body" width="8in" height="8in" viewBox="0 0 1 1" preserveAspectRatio="none" xmlns="http://www.w3.org/2000/svg" xmlns:xlink="http://www.w3.org/1999/xlink" xmlns:ev="http://www.w3.org/2001/xml-events">
<title>SVG drawing</title>
<desc>This was produced by version 4.4 of GNU libplot, a free library for exporting 2-D vector graphics.</desc>
<rect id="background" x="0" y="0" width="1" height="1" stroke="none" fill="white"/>
<g id="content" transform="translate(0,1) scale(0.0016667,-0.0033333) " xml:space="preserve" stroke="black" stroke-linecap="butt" stroke-linejoin="miter" stroke-miterlimit="10.433" stroke-dasharray="none" stroke-dashoffset="0" stroke-opacity="1" fill="none" fill-rule="evenodd" fill-opacity="1" font-style="normal" font-variant="normal" font-weight="normal" font-stretch="normal" font-size-adjust="none" letter-spacing="normal" word-spacing="normal" text-anchor="start">
<line x1="206.35" y1="279.76" x2="206.35" y2="271.72" stroke-width="0.54389" stroke-linecap="round" />
<polyline points="206.35,279.76 209.8,279.76 210.95,279.38 211.33,279 211.72,278.23 211.72,277.08 211.33,276.32 210.95,275.93 209.8,275.55 206.35,275.55 " stroke-width="0.54389" stroke-linecap="round" stroke-linejoin="round" />
<polygon points="215.93,277.08 215.16,276.7 214.4,275.93 214.02,274.79 214.02,274.02 214.4,272.87 215.16,272.1 215.93,271.72 217.08,271.72 217.85,272.1 218.61,272.87 218.99,274.02 218.99,274.79 218.61,275.93 217.85,276.7 217.08,277.08 " stroke-width="0.54389" stroke-linejoin="round" />
<line x1="221.68" y1="277.08" x2="221.68" y2="269.04" stroke-width="0.54389" stroke-linecap="round" />
<polyline points="221.68,275.93 222.44,276.7 223.21,277.08 224.36,277.08 225.12,276.7 225.89,275.93 226.27,274.79 226.27,274.02 225.89,272.87 225.12,272.1 224.36,271.72 223.21,271.72 222.44,272.1 221.68,272.87 " stroke-width="0.54389" stroke-linecap="round" stroke-linejoin="round" />
<polyline points="228.95,277.08 228.95,273.25 229.34,272.1 230.1,271.72 231.25,271.72 232.02,272.1 233.17,273.25 " stroke-width="0.54389" stroke-linecap="round" stroke-linejoin="round" />
<line x1="233.17" y1="277.08" x2="233.17" y2="271.72" stroke-width="0.54389" stroke-linecap="round" />
<line x1="236.23" y1="279.76" x2="236.23" y2="271.72" stroke-width="0.54389" stroke-linecap="round" />
<line x1="243.51" y1="277.08" x2="243.51" y2="271.72" stroke-width="0.54389" stroke-linecap="round" />
<polyline points="243.51,275.93 242.74,276.7 241.98,277.08 240.83,277.08 240.06,276.7 239.29,275.93 238.91,274.79 238.91,274.02 239.29,272.87 240.06,272.1 240.83,271.72 241.98,271.72 242.74,272.1 243.51,272.87 " stroke-width="0.54389" stroke-linecap="round" stroke-linejoin="round" />
<polyline points="246.96,279.76 246.96,273.25 247.34,272.1 248.1,271.72 248.87,271.72 " stroke-width="0.54389" stroke-linecap="round" stroke-linejoin="round" />
<line x1="245.81" y1="277.08" x2="248.49" y2="277.08" stroke-width="0.54389" stroke-linecap="round" />
<polygon points="250.79,279.76 251.17,279.38 251.55,279.76 251.17,280.15 " stroke-width="0.54389" stroke-linejoin="round" />
<line x1="251.17" y1="277.08" x2="251.17" y2="271.72" stroke-width="0.54389" stroke-linecap="round" />
<polygon points="255.76,277.08 255,276.7 254.23,275.93 253.85,274.79 253.85,274.02 254.23,272.87 255,272.1 255.76,271.72 256.91,271.72 257.68,272.1 258.45,272.87 258.83,274.02 258.83,274.79 258.45,275.93 257.68,276.7 256.91,277.08 " stroke-width="0.54389" stroke-linejoin="round" />
<line x1="261.51" y1="277.08" x2="261.51" y2="271.72" stroke-width="0.54389" stroke-linecap="round" />
<polyline points="261.51,275.55 262.66,276.7 263.43,277.08 264.57,277.08 265.34,276.7 265.72,275.55 265.72,271.72 " stroke-width="0.54389" stroke-linecap="round" stroke-linejoin="round" />
<polyline points="269.17,279 268.79,279.38 269.17,279.76 269.55,279.38 269.55,278.62 269.17,277.85 268.79,277.47 " stroke-width="0.54389" stroke-linecap="round" stroke-linejoin="round" />
<polyline points="276.45,275.93 276.07,276.7 274.92,277.08 273.77,277.08 272.62,276.7 272.23,275.93 272.62,275.17 273.38,274.79 275.3,274.4 276.07,274.02 276.45,273.25 276.45,272.87 276.07,272.1 274.92,271.72 273.77,271.72 272.62,272.1 272.23,272.87 " stroke-width="0.54389" stroke-linecap="round" stroke-linejoin="round" />
<line x1="289.47" y1="277.08" x2="289.47" y2="271.72" stroke-width="0.54389" stroke-linecap="round" />
<polyline points="289.47,275.93 288.7,276.7 287.94,277.08 286.79,277.08 286.02,276.7 285.26,275.93 284.87,274.79 284.87,274.02 285.26,272.87 286.02,272.1 286.79,271.72 287.94,271.72 288.7,272.1 289.47,272.87 " stroke-width="0.54389" stroke-linecap="round" stroke-linejoin="round" />
<line x1="291.77" y1="277.08" x2="294.07" y2="271.72" stroke-width="0.54389" stroke-linecap="round" />
<line x1="296.37" y1="277.08" x2="294.07" y2="271.72" stroke-width="0.54389" stroke-linecap="round" />
<polyline points="298.28,274.79 302.88,274.79 302.88,275.55 302.49,276.32 302.11,276.7 301.34,277.08 300.2,277.08 299.43,276.7 298.66,275.93 298.28,274.79 298.28,274.02 298.66,272.87 299.43,272.1 300.2,271.72 301.34,271.72 302.11,272.1 302.88,272.87 " stroke-width="0.54389" stroke-linecap="round" stroke-linejoin="round" />
<line x1="305.56" y1="277.08" x2="305.56" y2="271.72" stroke-width="0.54389" stroke-linecap="round" />
<polyline points="305.56,274.79 305.94,275.93 306.71,276.7 307.47,277.08 308.62,277.08 " stroke-width="0.54389" stroke-linecap="round" stroke-linejoin="round" />
<line x1="314.75" y1="277.08" x2="314.75" y2="271.72" stroke-width="0.54389" stroke-linecap="round" />
<polyline points="314.75,275.93 313.98,276.7 313.22,277.08 312.07,277.08 311.3,276.7 310.54,275.93 310.15,274.79 310.15,274.02 310.54,272.87 311.3,272.1 312.07,271.72 313.22,271.72 313.98,272.1 314.75,272.87 " stroke-width="0.54389" stroke-linecap="round" stroke-linejoin="round" />
<polyline points="322.03,277.08 322.03,270.96 321.64,269.81 321.26,269.42 320.5,269.04 319.35,269.04 318.58,269.42 " stroke-width="0.54389" stroke-linecap="round" stroke-linejoin="round" />
<polyline points="322.03,275.93 321.26,276.7 320.5,277.08 319.35,277.08 318.58,276.7 317.81,275.93 317.43,274.79 317.43,274.02 317.81,272.87 318.58,272.1 319.35,271.72 320.5,271.72 321.26,272.1 322.03,272.87 " stroke-width="0.54389" stroke-linecap="round" stroke-linejoin="round" />
<polyline points="324.71,274.79 329.31,274.79 329.31,275.55 328.92,276.32 328.54,276.7 327.77,277.08 326.62,277.08 325.86,276.7 325.09,275.93 324.71,274.79 324.71,274.02 325.09,272.87 325.86,272.1 326.62,271.72 327.77,271.72 328.54,272.1 329.31,272.87 " stroke-width="0.54389" stroke-linecap="round" stroke-linejoin="round" />
<line x1="342.33" y1="277.08" x2="342.33" y2="271.72" stroke-width="0.54389" stroke-linecap="round" />
<polyline points="342.33,275.93 341.56,276.7 340.8,277.08 339.65,277.08 338.88,276.7 338.11,275.93 337.73,274.79 337.73,274.02 338.11,272.87 338.88,272.1 339.65,271.72 340.8,271.72 341.56,272.1 342.33,272.87 " stroke-width="0.54389" stroke-linecap="round" stroke-linejoin="round" />
<line x1="345.39" y1="277.08" x2="345.39" y2="271.72" stroke-width="0.54389" stroke-linecap="round" />
<polyline points="345.39,275.55 346.54,276.7 347.31,277.08 348.46,277.08 349.22,276.7 349.61,275.55 349.61,271.72 " stroke-width="0.54389" stroke-linecap="round" stroke-linejoin="round" />
<line x1="356.88" y1="279.76" x2="356.88" y2="271.72" stroke-width="0.54389" stroke-linecap="round" />
<polyline points="356.88,275.93 356.12,276.7 355.35,277.08 354.2,277.08 353.44,276.7 352.67,275.93 352.29,274.79 352.29,274.02 352.67,272.87 353.44,272.1 354.2,271.72 355.35,271.72 356.12,272.1 356.88,272.87 " stroke-width="0.54389" stroke-linecap="round" stroke-linejoin="round" />
<line x1="366.08" y1="279.76" x2="366.08" y2="271.72" stroke-width="0.54389" stroke-linecap="round" />
<polyline points="366.08,275.93 366.84,276.7 367.61,277.08 368.76,277.08 369.52,276.7 370.29,275.93 370.67,274.79 370.67,274.02 370.29,272.87 369.52,272.1 368.76,271.72 367.61,271.72 366.84,272.1 366.08,272.87 " stroke-width="0.54389" stroke-linecap="round" stroke-linejoin="round" />
<polyline points="372.97,274.79 377.57,274.79 377.57,275.55 377.18,276.32 376.8,276.7 376.03,277.08 374.88,277.08 374.12,276.7 373.35,275.93 372.97,274.79 372.97,274.02 373.35,272.87 374.12,272.1 374.88,271.72 376.03,271.72 376.8,272.1 377.57,272.87 " stroke-width="0.54389" stroke-linecap="round" stroke-linejoin="round" />
<polyline points="384.08,275.93 383.69,276.7 382.55,277.08 381.4,277.08 380.25,276.7 379.86,275.93 380.25,275.17 381.01,274.79 382.93,274.4 383.69,274.02 384.08,273.25 384.08,272.87 383.69,272.1 382.55,271.72 381.4,271.72 380.25,272.1 379.86,272.87 " stroke-width="0.54389" stroke-linecap="round" stroke-linejoin="round" />
<polyline points="387.14,279.76 387.14,273.25 387.52,272.1 388.29,271.72 389.06,271.72 " stroke-width="0.54389" stroke-linecap="round" stroke-linejoin="round" />
<line x1="385.99" y1="277.08" x2="388.67" y2="277.08" stroke-width="0.54389" stroke-linecap="round" />
<polyline points="399.78,279.76 399.02,279.76 398.25,279.38 397.87,278.23 397.87,271.72 " stroke-width="0.54389" stroke-linecap="round" stroke-linejoin="round" />
<line x1="396.72" y1="277.08" x2="399.4" y2="277.08" stroke-width="0.54389" stroke-linecap="round" />
<polygon points="401.7,279.76 402.08,279.38 402.46,279.76 402.08,280.15 " stroke-width="0.54389" stroke-linejoin="round" />
<line x1="402.08" y1="277.08" x2="402.08" y2="271.72" stroke-width="0.54389" stroke-linecap="round" />
<polyline points="405.53,279.76 405.53,273.25 405.91,272.1 406.68,271.72 407.44,271.72 " stroke-width="0.54389" stroke-linecap="round" stroke-linejoin="round" />
<line x1="404.38" y1="277.08" x2="407.06" y2="277.08" stroke-width="0.54389" stroke-linecap="round" />
<line x1="409.74" y1="277.08" x2="409.74" y2="271.72" stroke-width="0.54389" stroke-linecap="round" />
<polyline points="409.74,275.55 410.89,276.7 411.66,277.08 412.8,277.08 413.57,276.7 413.95,275.55 413.95,271.72 " stroke-width="0.54389" stroke-linecap="round" stroke-linejoin="round" />
<polyline points="416.63,274.79 421.23,274.79 421.23,275.55 420.85,276.32 420.46,276.7 419.7,277.08 418.55,277.08 417.78,276.7 417.02,275.93 416.63,274.79 416.63,274.02 417.02,272.87 417.78,272.1 418.55,271.72 419.7,271.72 420.46,272.1 421.23,272.87 " stroke-width="0.54389" stroke-linecap="round" stroke-linejoin="round" />
<polyline points="427.74,275.93 427.36,276.7 426.21,277.08 425.06,277.08 423.91,276.7 423.53,275.93 423.91,275.17 424.68,274.79 426.59,274.4 427.36,274.02 427.74,273.25 427.74,272.87 427.36,272.1 426.21,271.72 425.06,271.72 423.91,272.1 423.53,272.87 " stroke-width="0.54389" stroke-linecap="round" stroke-linejoin="round" />
<polyline points="434.25,275.93 433.87,276.7 432.72,277.08 431.57,277.08 430.42,276.7 430.04,275.93 430.42,275.17 431.19,274.79 433.1,274.4 433.87,274.02 434.25,273.25 434.25,272.87 433.87,272.1 432.72,271.72 431.57,271.72 430.42,272.1 430.04,272.87 " stroke-width="0.54389" stroke-linecap="round" stroke-linejoin="round" />
<polyline points="92.942,176.25 93.853,198.74 94.763,187.5 95.674,187.5 96.584,187.5 97.495,198.74 98.405,198.74 99.316,187.5 100.23,176.25 101.14,187.5 102.05,176.25 102.96,176.25 103.87,176.25 104.78,176.25 105.69,198.74 106.6,187.5 107.51,198.74 108.42,176.25 109.33,198.74 110.24,187.5 111.15,187.5 112.06,176.25 112.97,187.5 113.88,176.25 114.79,187.5 115.7,187.5 116.62,198.74 117.53,176.25 118.44,198.74 119.35,221.24 120.26,221.24 121.17,198.74 122.08,187.5 122.99,165 123.9,187.5 124.81,198.74 125.72,187.5 126.63,198.74 127.54,187.5 128.45,187.5 129.36,176.25 130.27,198.74 131.18,198.74 132.09,176.25 133,187.5 133.91,198.74 134.83,198.74 135.74,176.25 136.65,198.74 137.56,209.99 138.47,176.25 139.38,209.99 140.29,198.74 141.2,176.25 142.11,187.5 143.02,187.5 143.93,221.24 144.84,243.74 145.75,232.49 146.66,209.99 147.57,187.5 148.48,187.5 149.39,187.5 150.3,254.99 151.21,221.24 152.12,187.5 153.04,232.49 153.95,187.5 154.86,187.5 155.77,187.5 156.68,176.25 157.59,198.74 158.5,198.74 159.41,198.74 160.32,198.74 161.23,187.5 162.14,198.74 163.05,187.5 163.96,176.25 164.87,187.5 165.78,187.5 166.69,176.25 167.6,198.74 168.51,176.25 169.42,198.74 170.33,187.5 171.25,176.25 172.16,176.25 173.07,198.74 173.98,187.5 174.89,176.25 175.8,187.5 176.71,176.25 177.62,187.5 178.53,176.25 179.44,198.74 180.35,187.5 181.26,176.25 182.17,176.25 183.08,187.5 183.99,198.74 184.9,198.74 185.81,165 186.72,187.5 187.63,187.5 188.55,198.74 189.46,165 190.37,198.74 191.28,176.25 192.19,198.74 193.1,187.5 194.01,165 194.92,176.25 195.83,198.74 196.74,198.74 197.65,187.5 198.56,187.5 199.47,187.5 200.38,187.5 201.29,198.74 202.2,187.5 203.11,198.74 204.02,198.74 204.93,176.25 205.84,198.74 206.76,198.74 207.67,187.5 208.58,176.25 209.49,176.25 210.4,198.74 211.31,198.74 212.22,187.5 213.13,198.74 214.04,198.74 214.95,187.5 215.86,176.25 216.77,198.74 217.68,187.5 218.59,198.74 219.5,187.5 220.41,187.5 221.32,198.74 222.23,187.5 223.14,187.5 224.05,198.74 224.97,165 225.88,198.74 226.79,187.5 227.7,209.99 228.61,221.24 229.52,187.5 230.43,187.5 231.34,176.25 232.25,187.5 233.16,198.74 234.07,187.5 234.98,187.5 235.89,187.5 236.8,198.74 237.71,187.5 238.62,198.74 239.53,187.5 240.44,209.99 241.35,187.5 242.26,187.5 243.18,187.5 244.09,221.24 245,187.5 245.91,176.25 246.82,209.99 247.73,198.74 248.64,176.25 249.55,209.99 250.46,209.99 251.37,198.74 252.28,198.74 253.19,187.5 254.1,187.5 255.01,176.25 255.92,165 256.83,187.5 257.74,165 258.65,187.5 259.56,221.24 260.47,187.5 261.39,198.74 262.3,187.5 263.21,198.74 264.12,198.74 265.03,187.5 265.94,176.25 266.85,198.74 267.76,187.5 268.67,176.25 269.58,187.5 270.49,187.5 271.4,198.74 272.31,187.5 273.22,187.5 274.13,187.5 275.04,165 275.95,198.74 276.86,187.5 277.77,187.5 278.68,187.5 279.6,198.74 280.51,153.75 281.42,187.5 282.33,176.25 283.24,198.74 284.15,198.74 285.06,187.5 285.97,198.74 286.88,198.74 287.79,187.5 288.7,176.25 289.61,176.25 290.52,176.25 291.43,187.5 292.34,176.25 293.25,198.74 294.16,198.74 295.07,165 295.98,187.5 296.89,176.25 297.81,187.5 298.72,198.74 299.63,198.74 300.54,198.74 301.45,153.75 302.36,187.5 303.27,187.5 304.18,187.5 305.09,187.5 306,176.25 306.91,187.5 307.82,187.5 308.73,165 309.64,176.25 310.55,176.25 311.46,187.5 312.37,187.5 313.28,176.25 314.19,187.5 315.1,176.25 316.02,198.74 316.93,198.74 317.84,209.99 318.75,198.74 319.66,176.25 320.57,187.5 321.48,165 322.39,187.5 323.3,198.74 324.21,176.25 325.12,187.5 326.03,187.5 326.94,176.25 327.85,165 328.76,198.74 329.67,165 330.58,176.25 331.49,176.25 332.4,187.5 333.31,187.5 334.23,187.5 335.14,187.5 336.05,187.5 336.96,176.25 337.87,198.74 338.78,198.74 339.69,176.25 340.6,176.25 341.51,187.5 342.42,176.25 343.33,176.25 344.24,176.25 345.15,176.25 346.06,198.74 346.97,176.25 347.88,176.25 348.79,198.74 349.7,198.74 350.61,187.5 351.52,165 352.44,198.74 353.35,187.5 354.26,187.5 355.17,165 356.08,187.5 356.99,176.25 357.9,187.5 358.81,187.5 359.72,176.25 360.63,187.5 361.54,187.5 362.45,198.74 363.36,153.75 364.27,187.5 365.18,187.5 366.09,187.5 367,187.5 367.91,198.74 368.82,187.5 369.74,198.74 370.65,187.5 371.56,198.74 372.47,176.25 373.38,165 374.29,176.25 375.2,176.25 376.11,198.74 377.02,165 377.93,176.25 378.84,198.74 379.75,198.74 380.66,176.25 381.57,198.74 382.48,187.5 383.39,187.5 384.3,187.5 385.21,187.5 386.12,176.25 387.03,187.5 387.95,176.25 388.86,176.25 389.77,187.5 390.68,176.25 391.59,176.25 392.5,153.75 393.41,187.5 394.32,187.5 395.23,176.25 396.14,187.5 397.05,187.5 397.96,198.74 398.87,176.25 399.78,176.25 400.69,187.5 401.6,187.5 402.51,187.5 403.42,198.74 404.33,187.5 405.24,187.5 406.16,187.5 407.07,187.5 407.98,198.74 408.89,187.5 409.8,176.25 410.71,187.5 411.62,176.25 412.53,198.74 413.44,187.5 414.35,176.25 415.26,187.5 416.17,198.74 417.08,176.25 417.99,187.5 418.9,187.5 419.81,198.74 420.72,187.5 421.63,176.25 422.54,176.25 423.45,187.5 424.37,198.74 425.28,165 426.19,198.74 427.1,187.5 428.01,187.5 428.92,187.5 429.83,176.25 430.74,165 431.65,176.25 432.56,198.74 433.47,187.5 434.38,187.5 435.29,187.5 436.2,187.5 437.11,176.25 438.02,187.5 438.93,198.74 439.84,187.5 440.75,176.25 441.66,176.25 442.58,176.25 443.49,198.74 444.4,198.74 445.31,187.5 446.22,198.74 447.13,187.5 448.04,187.5 448.95,187.5 449.86,176.25 450.77,176.25 451.68,187.5 452.59,187.5 453.5,187.5 454.41,165 455.32,187.5 456.23,176.25 457.14,198.74 458.05,198.74 458.96,187.5 459.87,187.5 460.79,165 461.7,176.25 462.61,187.5 463.52,198.74 464.43,187.5 465.34,198.74 466.25,187.5 467.16,165 468.07,198.74 468.98,187.5 469.89,187.5 470.8,187.5 471.71,165 472.62,187.5 473.53,187.5 474.44,187.5 475.35,187.5 476.26,176.25 477.17,176.25 478.08,187.5 479,176.25 479.91,198.74 480.82,198.74 481.73,176.25 482.64,187.5 483.55,187.5 484.46,165 485.37,187.5 486.28,176.25 487.19,187.5 488.1,165 489.01,187.5 489.92,187.5 490.83,198.74 491.74,187.5 492.65,176.25 493.56,187.5 494.47,198.74 495.38,187.5 496.29,187.5 497.21,187.5 498.12,176.25 499.03,198.74 499.94,176.25 500.85,198.74 501.76,176.25 502.67,187.5 503.58,187.5 504.49,198.74 505.4,187.5 506.31,176.25 507.22,176.25 508.13,176.25 509.04,176.25 509.95,187.5 510.86,176.25 511.77,198.74 512.68,187.5 513.59,165 514.5,176.25 515.42,198.74 516.33,187.5 517.24,198.74 518.15,187.5 519.06,198.74 519.97,187.5 520.88,187.5 521.79,187.5 522.7,187.5 523.61,187.5 524.52,187.5 525.43,187.5 526.34,187.5 527.25,176.25 528.16,187.5 529.07,176.25 529.98,176.25 530.89,198.74 531.8,187.5 532.71,187.5 533.63,176.25 534.54,187.5 535.45,176.25 536.36,187.5 537.27,187.5 538.18,187.5 539.09,187.5 540,176.25 540.91,187.5 541.82,176.25 542.73,187.5 543.64,198.74 544.55,187.5 545.46,187.5 546.37,198.74 547.28,187.5 " stroke="red" stroke-width="0.42132" />
<polyline points="92.942,76.018 93.853,81.53 94.763,69.944 95.674,79.618 96.584,78.718 97.495,81.08 98.405,73.318 99.316,69.831 100.23,68.594 101.14,71.856 102.05,75.681 102.96,68.031 103.87,73.768 104.78,72.419 105.69,71.181 106.6,80.743 107.51,84.567 108.42,76.806 109.33,80.968 110.24,75.343 111.15,73.993 112.06,84.567 112.97,72.531 113.88,73.656 114.79,80.405 115.7,74.443 116.62,78.605 117.53,76.243 118.44,73.318 119.35,75.343 120.26,83.105 121.17,77.931 122.08,75.118 122.99,65.782 123.9,76.806 124.81,80.293 125.72,78.83 126.63,74.106 127.54,82.993 128.45,80.293 129.36,71.631 130.27,72.194 131.18,74.443 132.09,69.831 133,85.017 133.91,80.068 134.83,81.643 135.74,73.881 136.65,72.644 137.56,78.605 138.47,74.556 139.38,76.918 140.29,77.481 141.2,72.756 142.11,79.955 143.02,80.855 143.93,81.193 144.84,75.906 145.75,79.843 146.66,85.13 147.57,83.892 148.48,75.568 149.39,79.505 150.3,75.681 151.21,73.993 152.12,72.868 153.04,76.356 153.95,80.068 154.86,71.069 155.77,76.468 156.68,69.381 157.59,79.28 158.5,82.768 159.41,83.33 160.32,76.806 161.23,80.293 162.14,75.456 163.05,75.793 163.96,79.843 164.87,80.068 165.78,73.206 166.69,76.918 167.6,79.168 168.51,79.168 169.42,78.493 170.33,79.618 171.25,75.793 172.16,75.568 173.07,80.293 173.98,71.519 174.89,73.431 175.8,71.519 176.71,80.968 177.62,74.331 178.53,75.231 179.44,76.356 180.35,77.931 181.26,81.755 182.17,69.494 183.08,79.505 183.99,76.468 184.9,83.105 185.81,64.432 186.72,85.58 187.63,71.406 188.55,81.193 189.46,63.757 190.37,76.356 191.28,76.581 192.19,86.705 193.1,89.292 194.01,72.081 194.92,65.219 195.83,68.706 196.74,76.918 197.65,82.205 198.56,78.718 199.47,71.856 200.38,80.293 201.29,80.293 202.2,81.08 203.11,70.281 204.02,69.044 204.93,66.232 205.84,67.919 206.76,78.043 207.67,79.843 208.58,67.581 209.49,74.443 210.4,81.305 211.31,75.568 212.22,76.243 213.13,76.468 214.04,83.668 214.95,77.481 215.86,74.781 216.77,78.605 217.68,72.868 218.59,69.606 219.5,79.618 220.41,70.281 221.32,76.581 222.23,73.768 223.14,82.543 224.05,76.131 224.97,69.494 225.88,76.806 226.79,73.881 227.7,73.543 228.61,73.993 229.52,81.08 230.43,73.318 231.34,77.706 232.25,78.493 233.16,76.131 234.07,72.081 234.98,73.881 235.89,76.356 236.8,72.644 237.71,73.656 238.62,74.556 239.53,76.356 240.44,67.469 241.35,75.118 242.26,76.468 243.18,78.38 244.09,69.831 245,71.181 245.91,75.456 246.82,79.055 247.73,83.668 248.64,76.131 249.55,76.468 250.46,77.031 251.37,71.744 252.28,76.918 253.19,71.969 254.1,80.18 255.01,74.556 255.92,72.194 256.83,82.543 257.74,68.594 258.65,79.843 259.56,80.743 260.47,81.643 261.39,80.518 262.3,75.568 263.21,75.006 264.12,79.618 265.03,69.831 265.94,80.18 266.85,70.619 267.76,73.543 268.67,69.831 269.58,74.556 270.49,73.993 271.4,76.356 272.31,72.194 273.22,77.031 274.13,82.093 275.04,66.682 275.95,81.755 276.86,74.893 277.77,68.594 278.68,66.119 279.6,77.368 280.51,78.718 281.42,67.469 282.33,75.231 283.24,76.918 284.15,83.218 285.06,79.73 285.97,82.093 286.88,79.393 287.79,75.906 288.7,73.993 289.61,77.368 290.52,70.506 291.43,75.456 292.34,75.681 293.25,78.38 294.16,71.294 295.07,73.768 295.98,72.644 296.89,75.231 297.81,78.605 298.72,68.819 299.63,82.88 300.54,82.88 301.45,63.307 302.36,76.356 303.27,83.555 304.18,81.755 305.09,90.079 306,72.531 306.91,73.656 307.82,74.218 308.73,75.568 309.64,69.944 310.55,79.28 311.46,77.368 312.37,77.031 313.28,80.068 314.19,81.868 315.1,70.056 316.02,73.993 316.93,73.431 317.84,80.405 318.75,76.918 319.66,78.268 320.57,70.506 321.48,72.981 322.39,67.244 323.3,73.206 324.21,83.668 325.12,75.006 326.03,73.318 326.94,76.806 327.85,71.406 328.76,83.892 329.67,73.993 330.58,76.581 331.49,72.419 332.4,83.443 333.31,72.306 334.23,81.305 335.14,81.98 336.05,73.206 336.96,77.256 337.87,74.556 338.78,72.756 339.69,74.218 340.6,81.193 341.51,71.856 342.42,66.119 343.33,84.455 344.24,69.381 345.15,77.368 346.06,77.256 346.97,76.918 347.88,84.905 348.79,79.28 349.7,73.543 350.61,71.069 351.52,73.431 352.44,75.006 353.35,71.181 354.26,81.418 355.17,73.768 356.08,78.718 356.99,74.668 357.9,76.243 358.81,77.931 359.72,79.28 360.63,77.706 361.54,71.294 362.45,73.543 363.36,74.443 364.27,71.744 365.18,67.357 366.09,86.03 367,69.044 367.91,78.83 368.82,73.093 369.74,82.993 370.65,66.232 371.56,76.018 372.47,74.781 373.38,68.706 374.29,76.018 375.2,76.806 376.11,77.368 377.02,66.457 377.93,72.756 378.84,71.294 379.75,70.619 380.66,79.168 381.57,83.78 382.48,73.993 383.39,85.242 384.3,81.643 385.21,79.168 386.12,70.731 387.03,72.531 387.95,80.968 388.86,70.956 389.77,72.419 390.68,72.644 391.59,77.143 392.5,76.806 393.41,83.892 394.32,68.819 395.23,77.706 396.14,81.755 397.05,70.506 397.96,72.981 398.87,68.369 399.78,73.768 400.69,75.456 401.6,71.969 402.51,70.731 403.42,77.031 404.33,73.768 405.24,78.943 406.16,73.768 407.07,70.844 407.98,82.768 408.89,70.281 409.8,84.567 410.71,76.468 411.62,76.131 412.53,76.581 413.44,75.681 414.35,71.744 415.26,80.405 416.17,73.768 417.08,74.106 417.99,78.043 418.9,78.83 419.81,77.143 420.72,71.631 421.63,72.868 422.54,80.18 423.45,79.73 424.37,77.368 425.28,74.218 426.19,79.505 427.1,75.343 428.01,75.568 428.92,87.042 429.83,62.069 430.74,81.08 431.65,80.293 432.56,75.681 433.47,75.118 434.38,82.768 435.29,72.644 436.2,70.506 437.11,79.168 438.02,68.369 438.93,73.881 439.84,69.156 440.75,74.331 441.66,75.006 442.58,75.568 443.49,70.281 444.4,66.007 445.31,67.469 446.22,76.918 447.13,76.018 448.04,76.356 448.95,77.931 449.86,79.505 450.77,77.706 451.68,82.993 452.59,76.693 453.5,79.055 454.41,73.206 455.32,78.043 456.23,72.419 457.14,68.369 458.05,82.205 458.96,78.493 459.87,76.243 460.79,81.08 461.7,78.718 462.61,74.668 463.52,78.043 464.43,80.63 465.34,66.907 466.25,85.917 467.16,78.83 468.07,77.143 468.98,71.856 469.89,80.293 470.8,76.806 471.71,72.756 472.62,72.868 473.53,71.294 474.44,69.269 475.35,82.768 476.26,77.818 477.17,72.981 478.08,70.056 479,76.356 479.91,69.494 480.82,67.806 481.73,69.381 482.64,76.806 483.55,80.293 484.46,72.194 485.37,78.156 486.28,68.819 487.19,76.468 488.1,71.069 489.01,83.105 489.92,75.793 490.83,75.118 491.74,75.568 492.65,73.881 493.56,82.205 494.47,73.768 495.38,80.18 496.29,67.581 497.21,73.431 498.12,78.943 499.03,79.955 499.94,74.893 500.85,69.719 501.76,68.369 502.67,64.994 503.58,80.518 504.49,76.018 505.4,73.881 506.31,75.681 507.22,79.505 508.13,73.881 509.04,75.118 509.95,83.78 510.86,75.456 511.77,77.706 512.68,70.169 513.59,67.581 514.5,70.619 515.42,83.78 516.33,72.868 517.24,73.881 518.15,70.731 519.06,68.031 519.97,75.568 520.88,76.131 521.79,69.606 522.7,78.38 523.61,72.194 524.52,73.206 525.43,76.581 526.34,81.08 527.25,76.806 528.16,74.106 529.07,69.944 529.98,74.106 530.89,90.754 531.8,71.744 532.71,79.843 533.63,70.169 534.54,81.08 535.45,67.132 536.36,77.706 537.27,73.993 538.18,78.718 539.09,76.243 540,79.73 540.91,73.431 541.82,78.605 542.73,73.318 543.64,77.593 544.55,78.718 545.46,78.718 546.37,73.093 547.28,75.118 " stroke="blue" stroke-width="0.42132" />
<line x1="570" y1="52.508" x2="566.84" y2="52.508" stroke-width="0.70588" />
<line x1="570" y1="63.757" x2="566.84" y2="63.757" stroke-width="0.70588" />
<line x1="570" y1="75.006" x2="566.84" y2="75.006" stroke-width="0.70588" />
<line x1="570" y1="86.255" x2="566.84" y2="86.255" stroke-width="0.70588" />
<line x1="570" y1="97.504" x2="566.84" y2="97.504" stroke-width="0.70588" />
<line x1="570" y1="108.75" x2="566.84" y2="108.75" stroke-width="0.70588" />
<line x1="570" y1="120" x2="566.84" y2="120" stroke-width="0.70588" />
<line x1="570" y1="131.25" x2="566.84" y2="131.25" stroke-width="0.70588" />
<line x1="570" y1="142.5" x2="566.84" y2="142.5" stroke-width="0.70588" />
<line x1="570" y1="153.75" x2="566.84" y2="153.75" stroke-width="0.70588" />
<line x1="570" y1="165" x2="566.84" y2="165" stroke-width="0.70588" />
<line x1="570" y1="176.25" x2="566.84" y2="176.25" stroke-width="0.70588" />
<line x1="570" y1="187.5" x2="566.84" y2="187.5" stroke-width="0.70588" />
<line x1="570" y1="198.74" x2="566.84" y2="198.74" stroke-width="0.70588" />
<line x1="570" y1="209.99" x2="566.84" y2="209.99" stroke-width="0.70588" />
<line x1="570" y1="221.24" x2="566.84" y2="221.24" stroke-width="0.70588" />
<line x1="570" y1="232.49" x2="566.84" y2="232.49" stroke-width="0.70588" />
<line x1="570" y1="243.74" x2="566.84" y2="243.74" stroke-width="0.70588" />
<line x1="570" y1="254.99" x2="566.84" y2="254.99" stroke-width="0.70588" />
<line x1="570" y1="86.255" x2="563.68" y2="86.255" stroke-width="0.70588" />
<line x1="570" y1="142.5" x2="563.68" y2="142.5" stroke-width="0.70588" />
<line x1="570" y1="198.74" x2="563.68" y2="198.74" stroke-width="0.70588" />
<line x1="570" y1="254.99" x2="563.68" y2="254.99" stroke-width="0.70588" />
<line x1="570" y1="52.423" x2="570" y2="264.64" stroke-width="0.70588" />
<line x1="74.732" y1="264.64" x2="74.732" y2="261.48" stroke-width="0.70588" />
<line x1="92.942" y1="264.64" x2="92.942" y2="261.48" stroke-width="0.70588" />
<line x1="111.15" y1="264.64" x2="111.15" y2="261.48" stroke-width="0.70588" />
<line x1="129.36" y1="264.64" x2="129.36" y2="261.48" stroke-width="0.70588" />
<line x1="147.57" y1="264.64" x2="147.57" y2="261.48" stroke-width="0.70588" />
<line x1="165.78" y1="264.64" x2="165.78" y2="261.48" stroke-width="0.70588" />
<line x1="183.99" y1="264.64" x2="183.99" y2="261.48" stroke-width="0.70588" />
<line x1="202.2" y1="264.64" x2="202.2" y2="261.48" stroke-width="0.70588" />
<line x1="220.41" y1="264.64" x2="220.41" y2="261.48" stroke-width="0.70588" />
<line x1="238.62" y1="264.64" x2="238.62" y2="261.48" stroke-width="0.70588" />
<line x1="256.83" y1="264.64" x2="256.83" y2="261.48" stroke-width="0.70588" />
<line x1="275.04" y1="264.64" x2="275.04" y2="261.48" stroke-width="0.70588" />
<line x1="293.25" y1="264.64" x2="293.25" y2="261.48" stroke-width="0.70588" />
<line x1="311.46" y1="264.64" x2="311.46" y2="261.48" stroke-width="0.70588" />
<line x1="329.67" y1="264.64" x2="329.67" y2="261.48" stroke-width="0.70588" />
<line x1="347.88" y1="264.64" x2="347.88" y2="261.48" stroke-width="0.70588" />
<line x1="366.09" y1="264.64" x2="366.09" y2="261.48" stroke-width="0.70588" />
<line x1="384.3" y1="264.64" x2="384.3" y2="261.48" stroke-width="0.70588" />
<line x1="402.51" y1="264.64" x2="402.51" y2="261.48" stroke-width="0.70588" />
<line x1="420.72" y1="264.64" x2="420.72" y2="261.48" stroke-width="0.70588" />
<line x1="438.93" y1="264.64" x2="438.93" y2="261.48" stroke-width="0.70588" />
<line x1="457.14" y1="264.64" x2="457.14" y2="261.48" stroke-width="0.70588" />
<line x1="475.35" y1="264.64" x2="475.35" y2="261.48" stroke-width="0.70588" />
<line x1="493.56" y1="264.64" x2="493.56" y2="261.48" stroke-width="0.70588" />
<line x1="511.77" y1="264.64" x2="511.77" y2="261.48" stroke-width="0.70588" />
<line x1="529.98" y1="264.64" x2="529.98" y2="261.48" stroke-width="0.70588" />
<line x1="548.19" y1="264.64" x2="548.19" y2="261.48" stroke-width="0.70588" />
<line x1="566.4" y1="264.64" x2="566.4" y2="261.48" stroke-width="0.70588" />
<line x1="92.942" y1="264.64" x2="92.942" y2="258.32" stroke-width="0.70588" />
<line x1="183.99" y1="264.64" x2="183.99" y2="258.32" stroke-width="0.70588" />
<line x1="275.04" y1="264.64" x2="275.04" y2="258.32" stroke-width="0.70588" />
<line x1="366.09" y1="264.64" x2="366.09" y2="258.32" stroke-width="0.70588" />
<line x1="457.14" y1="264.64" x2="457.14" y2="258.32" stroke-width="0.70588" />
<line x1="548.19" y1="264.64" x2="548.19" y2="258.32" stroke-width="0.70588" />
<line x1="70.225" y1="264.64" x2="570" y2="264.64" stroke-width="0.70588" />
<line x1="70.225" y1="52.508" x2="73.385" y2="52.508" stroke-width="0.70588" />
<line x1="70.225" y1="63.757" x2="73.385" y2="63.757" stroke-width="0.70588" />
<line x1="70.225" y1="75.006" x2="73.385" y2="75.006" stroke-width="0.70588" />
<line x1="70.225" y1="86.255" x2="73.385" y2="86.255" stroke-width="0.70588" />
<line x1="70.225" y1="97.504" x2="73.385" y2="97.504" stroke-width="0.70588" />
<line x1="70.225" y1="108.75" x2="73.385" y2="108.75" stroke-width="0.70588" />
<line x1="70.225" y1="120" x2="73.385" y2="120" stroke-width="0.70588" />
<line x1="70.225" y1="131.25" x2="73.385" y2="131.25" stroke-width="0.70588" />
<line x1="70.225" y1="142.5" x2="73.385" y2="142.5" stroke-width="0.70588" />
<line x1="70.225" y1="153.75" x2="73.385" y2="153.75" stroke-width="0.70588" />
<line x1="70.225" y1="165" x2="73.385" y2="165" stroke-width="0.70588" />
<line x1="70.225" y1="176.25" x2="73.385" y2="176.25" stroke-width="0.70588" />
<line x1="70.225" y1="187.5" x2="73.385" y2="187.5" stroke-width="0.70588" />
<line x1="70.225" y1="198.74" x2="73.385" y2="198.74" stroke-width="0.70588" />
<line x1="70.225" y1="209.99" x2="73.385" y2="209.99" stroke-width="0.70588" />
<line x1="70.225" y1="221.24" x2="73.385" y2="221.24" stroke-width="0.70588" />
<line x1="70.225" y1="232.49" x2="73.385" y2="232.49" stroke-width="0.70588" />
<line x1="70.225" y1="243.74" x2="73.385" y2="243.74" stroke-width="0.70588" />
<line x1="70.225" y1="254.99" x2="73.385" y2="254.99" stroke-width="0.70588" />
<line x1="70.225" y1="86.255" x2="76.545" y2="86.255" stroke-width="0.70588" />
<line x1="70.225" y1="142.5" x2="76.545" y2="142.5" stroke-width="0.70588" />
<line x1="70.225" y1="198.74" x2="76.545" y2="198.74" stroke-width="0.70588" />
<line x1="70.225" y1="254.99" x2="76.545" y2="254.99" stroke-width="0.70588" />
<line x1="70.225" y1="52.423" x2="70.225" y2="264.64" stroke-width="0.70588" />
<polyline points="50.883,89.319 51.649,89.702 52.798,90.851 52.798,82.808 " stroke-width="0.54389" stroke-linecap="round" stroke-linejoin="round" />
<polygon points="59.692,90.851 58.543,90.468 57.777,89.319 57.394,87.404 57.394,86.255 57.777,84.34 58.543,83.191 59.692,82.808 60.458,82.808 61.607,83.191 62.373,84.34 62.756,86.255 62.756,87.404 62.373,89.319 61.607,90.468 60.458,90.851 " stroke-width="0.54389" stroke-linejoin="round" />
<polyline points="50.883,145.56 51.649,145.95 52.798,147.1 52.798,139.05 " stroke-width="0.54389" stroke-linecap="round" stroke-linejoin="round" />
<polyline points="61.99,147.1 58.16,147.1 57.777,143.65 58.16,144.03 59.309,144.41 60.458,144.41 61.607,144.03 62.373,143.27 62.756,142.12 62.756,141.35 62.373,140.2 61.607,139.44 60.458,139.05 59.309,139.05 58.16,139.44 57.777,139.82 57.394,140.58 " stroke-width="0.54389" stroke-linecap="round" stroke-linejoin="round" />
<polyline points="50.117,201.43 50.117,201.81 50.5,202.57 50.883,202.96 51.649,203.34 53.181,203.34 53.947,202.96 54.33,202.57 54.713,201.81 54.713,201.04 54.33,200.28 53.564,199.13 49.734,195.3 55.096,195.3 " stroke-width="0.54389" stroke-linecap="round" stroke-linejoin="round" />
<polygon points="59.692,203.34 58.543,202.96 57.777,201.81 57.394,199.89 57.394,198.74 57.777,196.83 58.543,195.68 59.692,195.3 60.458,195.3 61.607,195.68 62.373,196.83 62.756,198.74 62.756,199.89 62.373,201.81 61.607,202.96 60.458,203.34 " stroke-width="0.54389" stroke-linejoin="round" />
<polyline points="50.117,257.67 50.117,258.05 50.5,258.82 50.883,259.2 51.649,259.59 53.181,259.59 53.947,259.2 54.33,258.82 54.713,258.05 54.713,257.29 54.33,256.52 53.564,255.37 49.734,251.54 55.096,251.54 " stroke-width="0.54389" stroke-linecap="round" stroke-linejoin="round" />
<polyline points="61.99,259.59 58.16,259.59 57.777,256.14 58.16,256.52 59.309,256.9 60.458,256.9 61.607,256.52 62.373,255.76 62.756,254.61 62.756,253.84 62.373,252.69 61.607,251.93 60.458,251.54 59.309,251.54 58.16,251.93 57.777,252.31 57.394,253.07 " stroke-width="0.54389" stroke-linecap="round" stroke-linejoin="round" />
<line x1="33.455" y1="139.19" x2="41.499" y2="139.19" stroke-width="0.54389" stroke-linecap="round" />
<line x1="33.455" y1="139.19" x2="33.455" y2="144.17" stroke-width="0.54389" stroke-linecap="round" />
<line x1="37.285" y1="139.19" x2="37.285" y2="142.25" stroke-width="0.54389" stroke-linecap="round" />
<polygon points="33.455,145.7 33.838,146.08 33.455,146.46 33.072,146.08 " stroke-width="0.54389" stroke-linejoin="round" />
<line x1="36.136" y1="146.08" x2="41.499" y2="146.08" stroke-width="0.54389" stroke-linecap="round" />
<polyline points="33.455,149.53 39.966,149.53 41.116,149.91 41.499,150.68 41.499,151.44 " stroke-width="0.54389" stroke-linecap="round" stroke-linejoin="round" />
<line x1="36.136" y1="148.38" x2="36.136" y2="151.06" stroke-width="0.54389" stroke-linecap="round" />
<line x1="36.136" y1="153.74" x2="41.499" y2="153.74" stroke-width="0.54389" stroke-linecap="round" />
<polyline points="37.668,153.74 36.519,154.89 36.136,155.66 36.136,156.81 36.519,157.57 37.668,157.95 41.499,157.95 " stroke-width="0.54389" stroke-linecap="round" stroke-linejoin="round" />
<polyline points="38.434,160.64 38.434,165.23 37.668,165.23 36.902,164.85 36.519,164.47 36.136,163.7 36.136,162.55 36.519,161.79 37.285,161.02 38.434,160.64 39.2,160.64 40.349,161.02 41.116,161.79 41.499,162.55 41.499,163.7 41.116,164.47 40.349,165.23 " stroke-width="0.54389" stroke-linecap="round" stroke-linejoin="round" />
<polyline points="37.285,171.74 36.519,171.36 36.136,170.21 36.136,169.06 36.519,167.91 37.285,167.53 38.051,167.91 38.434,168.68 38.817,170.59 39.2,171.36 39.966,171.74 40.349,171.74 41.116,171.36 41.499,170.21 41.499,169.06 41.116,167.91 40.349,167.53 " stroke-width="0.54389" stroke-linecap="round" stroke-linejoin="round" />
<polyline points="37.285,178.26 36.519,177.87 36.136,176.72 36.136,175.57 36.519,174.42 37.285,174.04 38.051,174.42 38.434,175.19 38.817,177.11 39.2,177.87 39.966,178.26 40.349,178.26 41.116,177.87 41.499,176.72 41.499,175.57 41.116,174.42 40.349,174.04 " stroke-width="0.54389" stroke-linecap="round" stroke-linejoin="round" />
<line x1="74.732" y1="52.423" x2="74.732" y2="55.583" stroke-width="0.70588" />
<line x1="92.942" y1="52.423" x2="92.942" y2="55.583" stroke-width="0.70588" />
<line x1="111.15" y1="52.423" x2="111.15" y2="55.583" stroke-width="0.70588" />
<line x1="129.36" y1="52.423" x2="129.36" y2="55.583" stroke-width="0.70588" />
<line x1="147.57" y1="52.423" x2="147.57" y2="55.583" stroke-width="0.70588" />
<line x1="165.78" y1="52.423" x2="165.78" y2="55.583" stroke-width="0.70588" />
<line x1="183.99" y1="52.423" x2="183.99" y2="55.583" stroke-width="0.70588" />
<line x1="202.2" y1="52.423" x2="202.2" y2="55.583" stroke-width="0.70588" />
<line x1="220.41" y1="52.423" x2="220.41" y2="55.583" stroke-width="0.70588" />
<line x1="238.62" y1="52.423" x2="238.62" y2="55.583" stroke-width="0.70588" />
<line x1="256.83" y1="52.423" x2="256.83" y2="55.583" stroke-width="0.70588" />
<line x1="275.04" y1="52.423" x2="275.04" y2="55.583" stroke-width="0.70588" />
<line x1="293.25" y1="52.423" x2="293.25" y2="55.583" stroke-width="0.70588" />
<line x1="311.46" y1="52.423" x2="311.46" y2="55.583" stroke-width="0.70588" />
<line x1="329.67" y1="52.423" x2="329.67" y2="55.583" stroke-width="0.70588" />
<line x1="347.88" y1="52.423" x2="347.88" y2="55.583" stroke-width="0.70588" />
<line x1="366.09" y1="52.423" x2="366.09" y2="55.583" stroke-width="0.70588" />
<line x1="384.3" y1="52.423" x2="384.3" y2="55.583" stroke-width="0.70588" />
<line x1="402.51" y1="52.423" x2="402.51" y2="55.583" stroke-width="0.70588" />
<line x1="420.72" y1="52.423" x2="420.72" y2="55.583" stroke-width="0.70588" />
<line x1="438.93" y1="52.423" x2="438.93" y2="55.583" stroke-width="0.70588" />
<line x1="457.14" y1="52.423" x2="457.14" y2="55.583" stroke-width="0.70588" />
<line x1="475.35" y1="52.423" x2="475.35" y2="55.583" stroke-width="0.70588" />
<line x1="493.56" y1="52.423" x2="493.56" y2="55.583" stroke-width="0.70588" />
<line x1="511.77" y1="52.423" x2="511.77" y2="55.583" stroke-width="0.70588" />
<line x1="529.98" y1="52.423" x2="529.98" y2="55.583" stroke-width="0.70588" />
<line x1="548.19" y1="52.423" x2="548.19" y2="55.583" stroke-width="0.70588" />
<line x1="566.4" y1="52.423" x2="566.4" y2="55.583" stroke-width="0.70588" />
<line x1="92.942" y1="52.423" x2="92.942" y2="58.743" stroke-width="0.70588" />
<line x1="183.99" y1="52.423" x2="183.99" y2="58.743" stroke-width="0.70588" />
<line x1="275.04" y1="52.423" x2="275.04" y2="58.743" stroke-width="0.70588" />
<line x1="366.09" y1="52.423" x2="366.09" y2="58.743" stroke-width="0.70588" />
<line x1="457.14" y1="52.423" x2="457.14" y2="58.743" stroke-width="0.70588" />
<line x1="548.19" y1="52.423" x2="548.19" y2="58.743" stroke-width="0.70588" />
<line x1="70.225" y1="52.423" x2="570" y2="52.423" stroke-width="0.70588" />
<polygon points="92.559,44.38 91.41,43.997 90.644,42.848 90.261,40.933 90.261,39.784 90.644,37.869 91.41,36.72 92.559,36.337 93.325,36.337 94.474,36.72 95.24,37.869 95.623,39.784 95.623,40.933 95.24,42.848 94.474,43.997 93.325,44.38 " stroke-width="0.54389" stroke-linejoin="round" />
<polyline points="174.8,42.848 175.57,43.231 176.72,44.38 176.72,36.337 " stroke-width="0.54389" stroke-linecap="round" stroke-linejoin="round" />
<polygon points="183.61,44.38 182.46,43.997 181.69,42.848 181.31,40.933 181.31,39.784 181.69,37.869 182.46,36.72 183.61,36.337 184.38,36.337 185.52,36.72 186.29,37.869 186.67,39.784 186.67,40.933 186.29,42.848 185.52,43.997 184.38,44.38 " stroke-width="0.54389" stroke-linejoin="round" />
<polygon points="191.27,44.38 190.12,43.997 189.35,42.848 188.97,40.933 188.97,39.784 189.35,37.869 190.12,36.72 191.27,36.337 192.04,36.337 193.19,36.72 193.95,37.869 194.33,39.784 194.33,40.933 193.95,42.848 193.19,43.997 192.04,44.38 " stroke-width="0.54389" stroke-linejoin="round" />
<polyline points="265.08,42.465 265.08,42.848 265.47,43.614 265.85,43.997 266.62,44.38 268.15,44.38 268.91,43.997 269.3,43.614 269.68,42.848 269.68,42.082 269.3,41.316 268.53,40.167 264.7,36.337 270.06,36.337 " stroke-width="0.54389" stroke-linecap="round" stroke-linejoin="round" />
<polygon points="274.66,44.38 273.51,43.997 272.74,42.848 272.36,40.933 272.36,39.784 272.74,37.869 273.51,36.72 274.66,36.337 275.43,36.337 276.57,36.72 277.34,37.869 277.72,39.784 277.72,40.933 277.34,42.848 276.57,43.997 275.43,44.38 " stroke-width="0.54389" stroke-linejoin="round" />
<polygon points="282.32,44.38 281.17,43.997 280.41,42.848 280.02,40.933 280.02,39.784 280.41,37.869 281.17,36.72 282.32,36.337 283.09,36.337 284.24,36.72 285,37.869 285.38,39.784 285.38,40.933 285,42.848 284.24,43.997 283.09,44.38 " stroke-width="0.54389" stroke-linejoin="round" />
<polyline points="356.52,44.38 360.73,44.38 358.43,41.316 359.58,41.316 360.35,40.933 360.73,40.55 361.11,39.401 361.11,38.635 360.73,37.486 359.96,36.72 358.82,36.337 357.67,36.337 356.52,36.72 356.13,37.103 355.75,37.869 " stroke-width="0.54389" stroke-linecap="round" stroke-linejoin="round" />
<polygon points="365.71,44.38 364.56,43.997 363.79,42.848 363.41,40.933 363.41,39.784 363.79,37.869 364.56,36.72 365.71,36.337 366.48,36.337 367.63,36.72 368.39,37.869 368.77,39.784 368.77,40.933 368.39,42.848 367.63,43.997 366.48,44.38 " stroke-width="0.54389" stroke-linejoin="round" />
<polygon points="373.37,44.38 372.22,43.997 371.46,42.848 371.07,40.933 371.07,39.784 371.46,37.869 372.22,36.72 373.37,36.337 374.14,36.337 375.29,36.72 376.05,37.869 376.43,39.784 376.43,40.933 376.05,42.848 375.29,43.997 374.14,44.38 " stroke-width="0.54389" stroke-linejoin="round" />
<polyline points="450.63,44.38 446.8,39.018 452.55,39.018 " stroke-width="0.54389" stroke-linecap="round" stroke-linejoin="round" />
<line x1="450.63" y1="44.38" x2="450.63" y2="36.337" stroke-width="0.54389" stroke-linecap="round" />
<polygon points="456.76,44.38 455.61,43.997 454.85,42.848 454.46,40.933 454.46,39.784 454.85,37.869 455.61,36.72 456.76,36.337 457.53,36.337 458.68,36.72 459.44,37.869 459.82,39.784 459.82,40.933 459.44,42.848 458.68,43.997 457.53,44.38 " stroke-width="0.54389" stroke-linejoin="round" />
<polygon points="464.42,44.38 463.27,43.997 462.51,42.848 462.12,40.933 462.12,39.784 462.51,37.869 463.27,36.72 464.42,36.337 465.19,36.337 466.34,36.72 467.1,37.869 467.48,39.784 467.48,40.933 467.1,42.848 466.34,43.997 465.19,44.38 " stroke-width="0.54389" stroke-linejoin="round" />
<polyline points="542.45,44.38 538.62,44.38 538.23,40.933 538.62,41.316 539.77,41.699 540.92,41.699 542.07,41.316 542.83,40.55 543.21,39.401 543.21,38.635 542.83,37.486 542.07,36.72 540.92,36.337 539.77,36.337 538.62,36.72 538.23,37.103 537.85,37.869 " stroke-width="0.54389" stroke-linecap="round" stroke-linejoin="round" />
<polygon points="547.81,44.38 546.66,43.997 545.9,42.848 545.51,40.933 545.51,39.784 545.9,37.869 546.66,36.72 547.81,36.337 548.58,36.337 549.73,36.72 550.49,37.869 550.87,39.784 550.87,40.933 550.49,42.848 549.73,43.997 548.58,44.38 " stroke-width="0.54389" stroke-linejoin="round" />
<polygon points="555.47,44.38 554.32,43.997 553.56,42.848 553.17,40.933 553.17,39.784 553.56,37.869 554.32,36.72 555.47,36.337 556.24,36.337 557.39,36.72 558.15,37.869 558.54,39.784 558.54,40.933 558.15,42.848 557.39,43.997 556.24,44.38 " stroke-width="0.54389" stroke-linejoin="round" />
<polyline points="291.96,25.612 291.58,26.378 290.81,27.144 290.05,27.527 288.51,27.527 287.75,27.144 286.98,26.378 286.6,25.612 286.22,24.463 286.22,22.548 286.6,21.399 286.98,20.633 287.75,19.867 288.51,19.484 290.05,19.484 290.81,19.867 291.58,20.633 291.96,21.399 291.96,22.548 " stroke-width="0.54389" stroke-linecap="round" stroke-linejoin="round" />
<line x1="290.05" y1="22.548" x2="291.96" y2="22.548" stroke-width="0.54389" stroke-linecap="round" />
<polyline points="294.26,22.548 298.85,22.548 298.85,23.314 298.47,24.08 298.09,24.463 297.32,24.846 296.17,24.846 295.41,24.463 294.64,23.697 294.26,22.548 294.26,21.782 294.64,20.633 295.41,19.867 296.17,19.484 297.32,19.484 298.09,19.867 298.85,20.633 " stroke-width="0.54389" stroke-linecap="round" stroke-linejoin="round" />
<line x1="301.54" y1="24.846" x2="301.54" y2="19.484" stroke-width="0.54389" stroke-linecap="round" />
<polyline points="301.54,23.314 302.69,24.463 303.45,24.846 304.6,24.846 305.37,24.463 305.75,23.314 305.75,19.484 " stroke-width="0.54389" stroke-linecap="round" stroke-linejoin="round" />
<polyline points="308.43,22.548 313.03,22.548 313.03,23.314 312.64,24.08 312.26,24.463 311.49,24.846 310.35,24.846 309.58,24.463 308.81,23.697 308.43,22.548 308.43,21.782 308.81,20.633 309.58,19.867 310.35,19.484 311.49,19.484 312.26,19.867 313.03,20.633 " stroke-width="0.54389" stroke-linecap="round" stroke-linejoin="round" />
<line x1="315.71" y1="24.846" x2="315.71" y2="19.484" stroke-width="0.54389" stroke-linecap="round" />
<polyline points="315.71,22.548 316.09,23.697 316.86,24.463 317.62,24.846 318.77,24.846 " stroke-width="0.54389" stroke-linecap="round" stroke-linejoin="round" />
<line x1="324.9" y1="24.846" x2="324.9" y2="19.484" stroke-width="0.54389" stroke-linecap="round" />
<polyline points="324.9,23.697 324.13,24.463 323.37,24.846 322.22,24.846 321.45,24.463 320.69,23.697 320.3,22.548 320.3,21.782 320.69,20.633 321.45,19.867 322.22,19.484 323.37,19.484 324.13,19.867 324.9,20.633 " stroke-width="0.54389" stroke-linecap="round" stroke-linejoin="round" />
<polyline points="328.35,27.527 328.35,21.016 328.73,19.867 329.5,19.484 330.26,19.484 " stroke-width="0.54389" stroke-linecap="round" stroke-linejoin="round" />
<line x1="327.2" y1="24.846" x2="329.88" y2="24.846" stroke-width="0.54389" stroke-linecap="round" />
<polygon points="332.18,27.527 332.56,27.144 332.94,27.527 332.56,27.91 " stroke-width="0.54389" stroke-linejoin="round" />
<line x1="332.56" y1="24.846" x2="332.56" y2="19.484" stroke-width="0.54389" stroke-linecap="round" />
<polygon points="337.16,24.846 336.39,24.463 335.63,23.697 335.24,22.548 335.24,21.782 335.63,20.633 336.39,19.867 337.16,19.484 338.31,19.484 339.07,19.867 339.84,20.633 340.22,21.782 340.22,22.548 339.84,23.697 339.07,24.463 338.31,24.846 " stroke-width="0.54389" stroke-linejoin="round" />
<line x1="342.9" y1="24.846" x2="342.9" y2="19.484" stroke-width="0.54389" stroke-linecap="round" />
<polyline points="342.9,23.314 344.05,24.463 344.82,24.846 345.97,24.846 346.73,24.463 347.12,23.314 347.12,19.484 " stroke-width="0.54389" stroke-linecap="round" stroke-linejoin="round" />
<polyline points="354.01,23.697 353.63,24.463 352.48,24.846 351.33,24.846 350.18,24.463 349.8,23.697 350.18,22.931 350.95,22.548 352.86,22.165 353.63,21.782 354.01,21.016 354.01,20.633 353.63,19.867 352.48,19.484 351.33,19.484 350.18,19.867 349.8,20.633 " stroke-width="0.54389" stroke-linecap="round" stroke-linejoin="round" />
</g>
</svg>
