<?xml version="1.0" encoding="UTF-8" standalone="no"?>
<!DOCTYPE svg PUBLIC "-//W3C//DTD SVG 1.1//EN"
 "http://www.w3.org/Graphics/SVG/1.1/DTD/svg11.dtd">
<!-- Generated by graphviz version 2.36.0 (20140111.2315)
 -->
<!-- Title: G Pages: 1 -->
<svg width="3136pt" height="929pt"
 viewBox="0.00 0.00 3136.00 929.44" xmlns="http://www.w3.org/2000/svg" xmlns:xlink="http://www.w3.org/1999/xlink">
<g id="graph0" class="graph" transform="scale(1 1) rotate(0) translate(4 925.444)">
<title>G</title>
<polygon fill="white" stroke="none" points="-4,4 -4,-925.444 3132,-925.444 3132,4 -4,4"/>
<g id="clust1" class="cluster"><title>cluster_inputs</title>
<polygon fill="none" stroke="white" points="1973,-858 1973,-892 2128,-892 2128,-858 1973,-858"/>
</g>
<g id="clust2" class="cluster"><title>cluster_outputs</title>
<polygon fill="none" stroke="white" points="1391,-420 1391,-466 1455,-466 1455,-420 1391,-420"/>
</g>
<!-- 1 -->
<g id="node1" class="node"><title>1</title>
<polygon fill="lightgrey" stroke="black" points="2080.25,-884 2059.75,-884 2059.75,-866 2080.25,-866 2080.25,-884"/>
<text text-anchor="middle" x="2070" y="-872.8" font-family="Times,serif" font-size="9.00">1</text>
</g>
<!-- 5 -->
<g id="node5" class="node"><title>5</title>
<ellipse fill="lightblue" stroke="lightblue" cx="1414" cy="-443" rx="14.2796" ry="14.7"/>
<text text-anchor="middle" x="1414" y="-440.8" font-family="Times,serif" font-size="9.00">5</text>
</g>
<!-- 1&#45;&gt;5 -->
<g id="edge77" class="edge"><title>1&#45;&gt;5</title>
<path fill="none" stroke="black" d="M2061.79,-865.845C2058.31,-862.591 2054.11,-858.93 2050,-856 2000.76,-820.879 1986.55,-813.923 1931,-790 1912.43,-782 1600.23,-692.067 1584,-680 1503.67,-620.274 1517.95,-573.403 1457,-494 1448.59,-483.042 1438.55,-471.307 1430.3,-461.961"/>
<polygon fill="black" stroke="black" points="1432.85,-459.569 1423.58,-454.442 1427.63,-464.232 1432.85,-459.569"/>
</g>
<!-- 6 -->
<g id="node7" class="node"><title>6</title>
<ellipse fill="none" stroke="black" cx="1452" cy="-805" rx="14.2796" ry="14.7"/>
<text text-anchor="middle" x="1452" y="-802.8" font-family="Times,serif" font-size="9.00">6</text>
</g>
<!-- 1&#45;&gt;6 -->
<g id="edge8" class="edge"><title>1&#45;&gt;6</title>
<path fill="none" stroke="black" d="M2063.06,-865.668C2059.55,-862.048 2054.97,-858.151 2050,-856 1944.46,-810.364 1576.3,-806.254 1476.9,-805.987"/>
<polygon fill="black" stroke="black" points="1476.64,-802.487 1466.63,-805.971 1476.63,-809.487 1476.64,-802.487"/>
</g>
<!-- 14 -->
<g id="node8" class="node"><title>14</title>
<ellipse fill="none" stroke="black" cx="1301" cy="-19" rx="18.0791" ry="18.2703"/>
<text text-anchor="middle" x="1301" y="-16.8" font-family="Times,serif" font-size="9.00">14</text>
</g>
<!-- 1&#45;&gt;14 -->
<g id="edge124" class="edge"><title>1&#45;&gt;14</title>
<path fill="none" stroke="black" d="M2076.14,-865.967C2079.5,-862.226 2083.98,-858.137 2089,-856 2245.16,-789.467 2699.39,-894.328 2852,-820 2974.39,-760.388 3052,-724.136 3052,-588 3052,-588 3052,-588 3052,-166 3052,-25.2626 2887.8,-97.2594 2749,-74 2461.33,-25.7944 1506.68,-20.6124 1329.45,-20.064"/>
<polygon fill="black" stroke="black" points="1329.36,-16.5638 1319.35,-20.0352 1329.34,-23.5638 1329.36,-16.5638"/>
</g>
<!-- 11 -->
<g id="node10" class="node"><title>11</title>
<ellipse fill="none" stroke="black" cx="1376" cy="-93" rx="18.0791" ry="18.2703"/>
<text text-anchor="middle" x="1376" y="-90.8" font-family="Times,serif" font-size="9.00">11</text>
</g>
<!-- 1&#45;&gt;11 -->
<g id="edge11" class="edge"><title>1&#45;&gt;11</title>
<path fill="none" stroke="black" d="M2076.58,-865.813C2079.92,-862.225 2084.26,-858.313 2089,-856 2185.13,-809.058 2222.89,-844.608 2327,-820 2523.01,-773.672 2639.61,-842.937 2758,-680 2860.41,-539.056 2841.93,-440.672 2758,-288 2731.63,-240.027 2705.67,-240.099 2654,-222 2367.09,-121.495 2276.51,-178.116 1974,-148 1754.66,-126.164 1489.67,-103.558 1404.09,-96.3524"/>
<polygon fill="black" stroke="black" points="1404.37,-92.8637 1394.11,-95.5136 1403.79,-99.8391 1404.37,-92.8637"/>
</g>
<!-- 10 -->
<g id="node11" class="node"><title>10</title>
<ellipse fill="none" stroke="black" cx="1929" cy="-167" rx="18.0791" ry="18.2703"/>
<text text-anchor="middle" x="1929" y="-164.8" font-family="Times,serif" font-size="9.00">10</text>
</g>
<!-- 1&#45;&gt;10 -->
<g id="edge79" class="edge"><title>1&#45;&gt;10</title>
<path fill="none" stroke="black" d="M2076.14,-865.971C2079.5,-862.232 2083.99,-858.143 2089,-856 2238.36,-792.179 2680.43,-904.733 2819,-820 2889.87,-776.664 2896.16,-722.584 2876,-642 2822.31,-427.423 2813.52,-306.249 2609,-222 2488.32,-172.29 2071.37,-168.149 1957.78,-167.959"/>
<polygon fill="black" stroke="black" points="1957.46,-164.458 1947.46,-167.951 1957.46,-171.458 1957.46,-164.458"/>
</g>
<!-- 7 -->
<g id="node12" class="node"><title>7</title>
<ellipse fill="none" stroke="black" cx="1027" cy="-237" rx="14.2796" ry="14.7"/>
<text text-anchor="middle" x="1027" y="-234.8" font-family="Times,serif" font-size="9.00">7</text>
</g>
<!-- 1&#45;&gt;7 -->
<g id="edge49" class="edge"><title>1&#45;&gt;7</title>
<path fill="none" stroke="black" d="M2063.47,-865.925C2059.92,-862.173 2055.2,-858.088 2050,-856 1927.85,-806.985 983.48,-879.341 866,-820 672.757,-722.389 545.802,-632.345 588,-420 600.824,-355.471 600.295,-324.549 655,-288 712.207,-249.779 928.137,-240.592 1002.02,-238.547"/>
<polygon fill="black" stroke="black" points="1002.33,-242.04 1012.24,-238.285 1002.15,-235.042 1002.33,-242.04"/>
</g>
<!-- 12 -->
<g id="node13" class="node"><title>12</title>
<ellipse fill="none" stroke="black" cx="1781" cy="-307" rx="18.0791" ry="18.2703"/>
<text text-anchor="middle" x="1781" y="-304.8" font-family="Times,serif" font-size="9.00">12</text>
</g>
<!-- 1&#45;&gt;12 -->
<g id="edge44" class="edge"><title>1&#45;&gt;12</title>
<path fill="none" stroke="black" d="M2076.66,-865.969C2080.02,-862.415 2084.35,-858.486 2089,-856 2152.51,-822.028 2177.56,-839.104 2247,-820 2338.88,-794.723 2371.17,-806.039 2451,-754 2499.4,-722.448 2527.06,-698.896 2517,-642 2504.06,-568.781 2489.15,-548.893 2439,-494 2404.3,-456.022 2394,-446.645 2350,-420 2292.74,-385.328 2275.69,-379.216 2211,-362 2063.31,-322.692 1879.26,-311.765 1809.54,-308.929"/>
<polygon fill="black" stroke="black" points="1809.49,-305.424 1799.36,-308.54 1809.22,-312.419 1809.49,-305.424"/>
</g>
<!-- 9 -->
<g id="node14" class="node"><title>9</title>
<ellipse fill="none" stroke="black" cx="1931" cy="-443" rx="14.2796" ry="14.7"/>
<text text-anchor="middle" x="1931" y="-440.8" font-family="Times,serif" font-size="9.00">9</text>
</g>
<!-- 1&#45;&gt;9 -->
<g id="edge140" class="edge"><title>1&#45;&gt;9</title>
<path fill="none" stroke="black" d="M2077.16,-865.861C2080.49,-862.455 2084.67,-858.675 2089,-856 2128.83,-831.386 2145.1,-838.751 2188,-820 2320.38,-762.139 2536.92,-764.297 2460,-642 2379.14,-513.44 2295.42,-543.963 2152,-494 2082.43,-469.766 1996.39,-454.231 1955.2,-447.637"/>
<polygon fill="black" stroke="black" points="1955.69,-444.172 1945.27,-446.083 1954.61,-451.088 1955.69,-444.172"/>
</g>
<!-- 8 -->
<g id="node15" class="node"><title>8</title>
<ellipse fill="none" stroke="black" cx="1107" cy="-377" rx="14.2796" ry="14.7"/>
<text text-anchor="middle" x="1107" y="-374.8" font-family="Times,serif" font-size="9.00">8</text>
</g>
<!-- 1&#45;&gt;8 -->
<g id="edge201" class="edge"><title>1&#45;&gt;8</title>
<path fill="none" stroke="black" d="M2063.47,-865.925C2059.92,-862.174 2055.2,-858.088 2050,-856 1989.34,-831.651 919.507,-866.921 874,-820 864.717,-810.429 872.386,-803.235 874,-790 885.193,-698.193 924,-680.487 924,-588 924,-588 924,-588 924,-512 924,-434.043 1033.44,-396.521 1083.06,-383.517"/>
<polygon fill="black" stroke="black" points="1084.09,-386.866 1092.94,-381.044 1082.39,-380.075 1084.09,-386.866"/>
</g>
<!-- 15 -->
<g id="node16" class="node"><title>15</title>
<ellipse fill="none" stroke="black" cx="1458" cy="-661" rx="18.0791" ry="18.2703"/>
<text text-anchor="middle" x="1458" y="-658.8" font-family="Times,serif" font-size="9.00">15</text>
</g>
<!-- 1&#45;&gt;15 -->
<g id="edge63" class="edge"><title>1&#45;&gt;15</title>
<path fill="none" stroke="black" d="M2062.47,-865.75C2058.96,-862.323 2054.56,-858.558 2050,-856 1911.27,-778.23 1857.89,-804.253 1707,-754 1704.22,-753.073 1548.27,-695.394 1484.62,-671.848"/>
<polygon fill="black" stroke="black" points="1485.48,-668.435 1474.89,-668.248 1483.05,-675 1485.48,-668.435"/>
</g>
<!-- 13 -->
<g id="node17" class="node"><title>13</title>
<ellipse fill="none" stroke="black" cx="1957" cy="-735" rx="18.0791" ry="18.2703"/>
<text text-anchor="middle" x="1957" y="-732.8" font-family="Times,serif" font-size="9.00">13</text>
</g>
<!-- 1&#45;&gt;13 -->
<g id="edge184" class="edge"><title>1&#45;&gt;13</title>
<path fill="none" stroke="black" d="M2077.76,-865.981C2091.99,-850.283 2119.27,-814.864 2102,-790 2075.72,-752.176 2019.61,-740.795 1985.41,-737.403"/>
<polygon fill="black" stroke="black" points="1985.39,-733.89 1975.14,-736.559 1984.82,-740.866 1985.39,-733.89"/>
</g>
<!-- 2 -->
<g id="node2" class="node"><title>2</title>
<polygon fill="lightgrey" stroke="black" points="2041.25,-884 2020.75,-884 2020.75,-866 2041.25,-866 2041.25,-884"/>
<text text-anchor="middle" x="2031" y="-872.8" font-family="Times,serif" font-size="9.00">2</text>
</g>
<!-- 2&#45;&gt;5 -->
<g id="edge10" class="edge"><title>2&#45;&gt;5</title>
<path fill="none" stroke="black" d="M2023.38,-865.906C2019.85,-862.508 2015.47,-858.723 2011,-856 1916.65,-798.502 1637.96,-741.241 1546,-680 1527.16,-667.453 1487.84,-625.294 1476,-606 1448.36,-560.947 1455.55,-543.111 1436,-494 1432.32,-484.753 1427.96,-474.686 1424.1,-466.024"/>
<polygon fill="black" stroke="black" points="1427.16,-464.31 1419.86,-456.636 1420.78,-467.19 1427.16,-464.31"/>
</g>
<!-- 2&#45;&gt;6 -->
<g id="edge27" class="edge"><title>2&#45;&gt;6</title>
<path fill="none" stroke="black" d="M2024.05,-865.681C2020.54,-862.064 2015.97,-858.165 2011,-856 1986.14,-845.166 1581.73,-815.359 1476.74,-807.774"/>
<polygon fill="black" stroke="black" points="1476.72,-804.263 1466.49,-807.036 1476.21,-811.245 1476.72,-804.263"/>
</g>
<!-- 2&#45;&gt;14 -->
<g id="edge142" class="edge"><title>2&#45;&gt;14</title>
<path fill="none" stroke="black" d="M2037.51,-865.668C2040.84,-862.049 2045.19,-858.151 2050,-856 2138.75,-816.324 2390.35,-837.383 2486,-820 2591.47,-800.832 2630.19,-815.5 2718,-754 2833.38,-673.188 2993.9,-256.454 2904,-148 2799.31,-21.6961 1535.55,-19.42 1329.36,-19.8937"/>
<polygon fill="black" stroke="black" points="1329.31,-16.3937 1319.32,-19.9211 1329.33,-23.3937 1329.31,-16.3937"/>
</g>
<!-- 17 -->
<g id="node9" class="node"><title>17</title>
<ellipse fill="none" stroke="black" cx="1660" cy="-513" rx="18.0791" ry="18.2703"/>
<text text-anchor="middle" x="1660" y="-510.8" font-family="Times,serif" font-size="9.00">17</text>
</g>
<!-- 2&#45;&gt;17 -->
<g id="edge41" class="edge"><title>2&#45;&gt;17</title>
<path fill="none" stroke="black" d="M2022.55,-865.804C1975.92,-820.556 1749.53,-600.878 1680.21,-533.613"/>
<polygon fill="black" stroke="black" points="1682.53,-530.986 1672.92,-526.534 1677.66,-536.01 1682.53,-530.986"/>
</g>
<!-- 2&#45;&gt;11 -->
<g id="edge47" class="edge"><title>2&#45;&gt;11</title>
<path fill="none" stroke="black" d="M2024.47,-865.927C2020.92,-862.176 2016.2,-858.09 2011,-856 1951.95,-832.268 910.289,-865.704 866,-820 740.403,-690.392 830.546,-566.466 936,-420 1052.96,-257.555 1275.16,-141.802 1350.37,-105.819"/>
<polygon fill="black" stroke="black" points="1352.05,-108.897 1359.59,-101.457 1349.06,-102.57 1352.05,-108.897"/>
</g>
<!-- 2&#45;&gt;10 -->
<g id="edge187" class="edge"><title>2&#45;&gt;10</title>
<path fill="none" stroke="black" d="M2037.56,-865.756C2040.89,-862.156 2045.23,-858.25 2050,-856 2167.46,-800.569 2211.73,-840.387 2340,-820 2492.02,-795.838 2547.39,-832.159 2680,-754 2729.02,-725.111 2751.11,-698.161 2742,-642 2709.72,-443.057 2748.92,-316.686 2571,-222 2516.3,-192.888 2075.24,-173.713 1957.7,-169.086"/>
<polygon fill="black" stroke="black" points="1957.48,-165.575 1947.35,-168.684 1957.21,-172.57 1957.48,-165.575"/>
</g>
<!-- 2&#45;&gt;7 -->
<g id="edge95" class="edge"><title>2&#45;&gt;7</title>
<path fill="none" stroke="black" d="M2024.47,-865.921C2020.92,-862.169 2016.2,-858.083 2011,-856 1946.45,-830.159 813.683,-864.185 760,-820 576.041,-668.588 518.153,-448.761 694,-288 739.154,-246.72 933.068,-239.517 1002.31,-238.263"/>
<polygon fill="black" stroke="black" points="1002.36,-241.763 1012.31,-238.109 1002.26,-234.764 1002.36,-241.763"/>
</g>
<!-- 2&#45;&gt;12 -->
<g id="edge66" class="edge"><title>2&#45;&gt;12</title>
<path fill="none" stroke="black" d="M2037.61,-865.865C2040.95,-862.288 2045.29,-858.37 2050,-856 2166.7,-797.254 2509.6,-807.043 2629,-754 2688.65,-727.499 2754.86,-699.516 2724,-642 2617.57,-443.664 2513.86,-438.027 2302,-362 2209.89,-328.946 1904.4,-313.302 1809.43,-309.158"/>
<polygon fill="black" stroke="black" points="1809.3,-305.649 1799.16,-308.719 1809,-312.643 1809.3,-305.649"/>
</g>
<!-- 2&#45;&gt;9 -->
<g id="edge173" class="edge"><title>2&#45;&gt;9</title>
<path fill="none" stroke="black" d="M2038.15,-865.835C2041.47,-862.425 2045.65,-858.648 2050,-856 2091.41,-830.764 2112.24,-846.268 2153,-820 2187.09,-798.034 2200.92,-791.643 2216,-754 2234.51,-707.793 2223.77,-691.167 2216,-642 2203.32,-561.828 2180.19,-532.984 2109,-494 2058.23,-466.197 1990.65,-452.753 1955.15,-447.235"/>
<polygon fill="black" stroke="black" points="1955.61,-443.766 1945.21,-445.77 1954.59,-450.691 1955.61,-443.766"/>
</g>
<!-- 2&#45;&gt;8 -->
<g id="edge111" class="edge"><title>2&#45;&gt;8</title>
<path fill="none" stroke="black" d="M2024.47,-865.916C2020.93,-862.162 2016.21,-858.077 2011,-856 1940.54,-827.891 698.929,-874.343 646,-820 497.38,-667.409 725.815,-526.995 910,-420 965.713,-387.636 1043.27,-380.102 1082.38,-378.421"/>
<polygon fill="black" stroke="black" points="1082.68,-381.913 1092.55,-378.082 1082.44,-374.917 1082.68,-381.913"/>
</g>
<!-- 2&#45;&gt;15 -->
<g id="edge203" class="edge"><title>2&#45;&gt;15</title>
<path fill="none" stroke="black" d="M2024.01,-865.781C2020.48,-862.186 2015.92,-858.277 2011,-856 1902.74,-805.87 1858.29,-857.401 1745,-820 1730.94,-815.358 1549.82,-713.705 1482.76,-675.952"/>
<polygon fill="black" stroke="black" points="1484.15,-672.721 1473.72,-670.864 1480.72,-678.821 1484.15,-672.721"/>
</g>
<!-- 2&#45;&gt;13 -->
<g id="edge127" class="edge"><title>2&#45;&gt;13</title>
<path fill="none" stroke="black" d="M2026.59,-865.781C2015.71,-845.483 1987.21,-792.339 1970.25,-760.708"/>
<polygon fill="black" stroke="black" points="1973.2,-758.8 1965.39,-751.642 1967.03,-762.108 1973.2,-758.8"/>
</g>
<!-- 18 -->
<g id="node18" class="node"><title>18</title>
<ellipse fill="none" stroke="black" cx="1988" cy="-587" rx="18.0791" ry="18.2703"/>
<text text-anchor="middle" x="1988" y="-584.8" font-family="Times,serif" font-size="9.00">18</text>
</g>
<!-- 2&#45;&gt;18 -->
<g id="edge61" class="edge"><title>2&#45;&gt;18</title>
<path fill="none" stroke="black" d="M2031.31,-865.825C2032.25,-835.578 2033.79,-727.361 2012,-642 2009.47,-632.072 2005.26,-621.671 2001.06,-612.678"/>
<polygon fill="black" stroke="black" points="2004.14,-611.004 1996.6,-603.561 1997.85,-614.081 2004.14,-611.004"/>
</g>
<!-- 3 -->
<g id="node3" class="node"><title>3</title>
<polygon fill="lightgrey" stroke="black" points="2002.25,-884 1981.75,-884 1981.75,-866 2002.25,-866 2002.25,-884"/>
<text text-anchor="middle" x="1992" y="-872.8" font-family="Times,serif" font-size="9.00">3</text>
</g>
<!-- 3&#45;&gt;5 -->
<g id="edge94" class="edge"><title>3&#45;&gt;5</title>
<path fill="none" stroke="black" d="M1981.7,-873.922C1869.5,-873.026 877.874,-863.876 836,-820 792,-773.897 649.135,-826.829 1289,-494 1323.26,-476.178 1365.37,-460.532 1390.92,-451.678"/>
<polygon fill="black" stroke="black" points="1392.14,-454.96 1400.48,-448.417 1389.88,-448.335 1392.14,-454.96"/>
</g>
<!-- 16 -->
<g id="node6" class="node"><title>16</title>
<ellipse fill="none" stroke="black" cx="698" cy="-875" rx="18.0791" ry="18.2703"/>
<text text-anchor="middle" x="698" y="-872.8" font-family="Times,serif" font-size="9.00">16</text>
</g>
<!-- 3&#45;&gt;16 -->
<g id="edge129" class="edge"><title>3&#45;&gt;16</title>
<path fill="none" stroke="black" d="M1981.72,-875C1563.32,-875 1144.92,-875 726.518,-875"/>
<polygon fill="black" stroke="black" points="726.323,-871.5 716.323,-875 726.323,-878.5 726.323,-871.5"/>
</g>
<!-- 3&#45;&gt;6 -->
<g id="edge78" class="edge"><title>3&#45;&gt;6</title>
<path fill="none" stroke="black" d="M1981.48,-873.552C1928.98,-871.17 1690.16,-858.611 1499,-820 1491.08,-818.401 1482.58,-816.064 1475.01,-813.756"/>
<polygon fill="black" stroke="black" points="1476,-810.399 1465.41,-810.699 1473.88,-817.069 1476,-810.399"/>
</g>
<!-- 3&#45;&gt;14 -->
<g id="edge170" class="edge"><title>3&#45;&gt;14</title>
<path fill="none" stroke="black" d="M1981.41,-873.968C1851.56,-873.528 569.015,-867.981 409,-820 216.472,-762.269 76,-714.998 76,-514 76,-514 76,-514 76,-166 76,-116.443 95.7106,-98.1233 139,-74 240.847,-17.2452 1104.5,-18.9426 1272.68,-19.8193"/>
<polygon fill="black" stroke="black" points="1272.72,-23.3195 1282.74,-19.8752 1272.76,-16.3196 1272.72,-23.3195"/>
</g>
<!-- 3&#45;&gt;11 -->
<g id="edge62" class="edge"><title>3&#45;&gt;11</title>
<path fill="none" stroke="black" d="M1981.43,-873.832C1857.03,-871.82 673.501,-851.907 522,-820 371.483,-788.3 295.695,-752.875 250,-606 176.609,-370.101 337.121,-243.424 565,-148 638.349,-117.285 1211.31,-98.7933 1347.18,-94.813"/>
<polygon fill="black" stroke="black" points="1347.68,-98.2999 1357.58,-94.5118 1347.48,-91.3028 1347.68,-98.2999"/>
</g>
<!-- 3&#45;&gt;10 -->
<g id="edge123" class="edge"><title>3&#45;&gt;10</title>
<path fill="none" stroke="black" d="M1998.51,-865.659C2001.83,-862.037 2006.18,-858.141 2011,-856 2198.39,-772.71 2286.47,-909.461 2471,-820 2690.11,-713.77 2697.68,-511.922 2602,-288 2585.33,-248.976 2571.64,-239.543 2533,-222 2428.26,-174.449 2062.25,-168.731 1957.32,-168.076"/>
<polygon fill="black" stroke="black" points="1957.2,-164.575 1947.18,-168.024 1957.16,-171.575 1957.2,-164.575"/>
</g>
<!-- 3&#45;&gt;7 -->
<g id="edge9" class="edge"><title>3&#45;&gt;7</title>
<path fill="none" stroke="black" d="M1981.5,-873.892C1862.71,-872.63 772.812,-860.001 636,-820 455.14,-767.121 363.767,-769.445 270,-606 173.16,-437.199 387.433,-352.612 571,-288 651.882,-259.531 919.326,-243.579 1002.26,-239.229"/>
<polygon fill="black" stroke="black" points="1002.47,-242.723 1012.28,-238.713 1002.11,-235.732 1002.47,-242.723"/>
</g>
<!-- 3&#45;&gt;12 -->
<g id="edge43" class="edge"><title>3&#45;&gt;12</title>
<path fill="none" stroke="black" d="M1998.64,-865.918C2001.98,-862.353 2006.32,-858.429 2011,-856 2213.82,-750.661 2370.31,-930.906 2515,-754 2525.69,-740.927 2517.99,-732.622 2515,-716 2475.57,-496.699 2367.61,-442.912 2160,-362 2036.19,-313.747 1874.6,-307.927 1809.76,-307.692"/>
<polygon fill="black" stroke="black" points="1809.5,-304.192 1799.5,-307.701 1809.5,-311.192 1809.5,-304.192"/>
</g>
<!-- 3&#45;&gt;9 -->
<g id="edge139" class="edge"><title>3&#45;&gt;9</title>
<path fill="none" stroke="black" d="M1999.82,-865.923C2003.13,-862.681 2007.12,-859.007 2011,-856 2090.22,-794.56 2202,-836.253 2202,-736 2202,-736 2202,-736 2202,-660 2202,-534.047 2020.78,-469.647 1954.72,-450.357"/>
<polygon fill="black" stroke="black" points="1955.39,-446.908 1944.81,-447.552 1953.48,-453.644 1955.39,-446.908"/>
</g>
<!-- 3&#45;&gt;8 -->
<g id="edge199" class="edge"><title>3&#45;&gt;8</title>
<path fill="none" stroke="black" d="M1981.69,-874.039C1857.89,-874.392 659.676,-874.685 570,-754 457.146,-602.122 657.331,-487.756 834,-420 921.022,-386.625 1033.27,-379.719 1082.28,-378.328"/>
<polygon fill="black" stroke="black" points="1082.62,-381.821 1092.53,-378.093 1082.46,-374.823 1082.62,-381.821"/>
</g>
<!-- 3&#45;&gt;15 -->
<g id="edge108" class="edge"><title>3&#45;&gt;15</title>
<path fill="none" stroke="black" d="M1981.74,-874.017C1940.6,-873.736 1784.26,-869.303 1669,-820 1589.59,-786.033 1512.59,-716.277 1477.6,-681.961"/>
<polygon fill="black" stroke="black" points="1479.97,-679.375 1470.4,-674.814 1475.04,-684.343 1479.97,-679.375"/>
</g>
<!-- 3&#45;&gt;13 -->
<g id="edge183" class="edge"><title>3&#45;&gt;13</title>
<path fill="none" stroke="black" d="M1985.36,-865.831C1977.61,-855.757 1965.21,-837.777 1960,-820 1954.64,-801.736 1953.97,-780.278 1954.59,-763.622"/>
<polygon fill="black" stroke="black" points="1958.1,-763.629 1955.15,-753.451 1951.11,-763.243 1958.1,-763.629"/>
</g>
<!-- 3&#45;&gt;18 -->
<g id="edge51" class="edge"><title>3&#45;&gt;18</title>
<path fill="none" stroke="black" d="M1992.91,-865.867C1995.03,-846.514 2000.25,-796.193 2002,-754 2004.03,-705.192 1997.29,-648.526 1992.46,-615.619"/>
<polygon fill="black" stroke="black" points="1995.88,-614.778 1990.92,-605.416 1988.96,-615.827 1995.88,-614.778"/>
</g>
<!-- 4 -->
<g id="node4" class="node"><title>4</title>
<polygon fill="lightgrey" stroke="black" points="2119.25,-884 2098.75,-884 2098.75,-866 2119.25,-866 2119.25,-884"/>
<text text-anchor="middle" x="2109" y="-872.8" font-family="Times,serif" font-size="9.00">4</text>
</g>
<!-- 4&#45;&gt;5 -->
<g id="edge31" class="edge"><title>4&#45;&gt;5</title>
<path fill="none" stroke="black" d="M2100.29,-865.641C2096.87,-862.499 2092.84,-858.971 2089,-856 2046.87,-823.431 2034.16,-818.212 1989,-790 1893.35,-730.255 1648.11,-590.992 1552,-532 1509.76,-506.072 1461.01,-474.621 1434.24,-457.211"/>
<polygon fill="black" stroke="black" points="1436.02,-454.195 1425.73,-451.671 1432.2,-460.061 1436.02,-454.195"/>
</g>
<!-- 4&#45;&gt;16 -->
<g id="edge33" class="edge"><title>4&#45;&gt;16</title>
<path fill="none" stroke="black" d="M2104.78,-884.296C2100.13,-893.26 2091.74,-906.285 2080,-912 2039.24,-931.841 2023.33,-912.655 1978,-912 1476.42,-904.752 864.632,-881.537 726.575,-876.132"/>
<polygon fill="black" stroke="black" points="726.543,-872.628 716.413,-875.733 726.268,-879.623 726.543,-872.628"/>
</g>
<!-- 4&#45;&gt;6 -->
<g id="edge98" class="edge"><title>4&#45;&gt;6</title>
<path fill="none" stroke="black" d="M2102.07,-865.656C2098.55,-862.034 2093.98,-858.138 2089,-856 1975.78,-807.384 1579.36,-805.492 1476.52,-805.842"/>
<polygon fill="black" stroke="black" points="1476.46,-802.342 1466.48,-805.886 1476.49,-809.342 1476.46,-802.342"/>
</g>
<!-- 4&#45;&gt;14 -->
<g id="edge186" class="edge"><title>4&#45;&gt;14</title>
<path fill="none" stroke="black" d="M2119.49,-873.762C2203.59,-871.788 2769.02,-857.261 2935,-820 3026.28,-799.509 3128,-829.55 3128,-736 3128,-736 3128,-736 3128,-166 3128,-60.017 3011.55,-96.5942 2908,-74 2747.99,-39.0844 1530.85,-22.804 1329.25,-20.3347"/>
<polygon fill="black" stroke="black" points="1329.2,-16.834 1319.16,-20.2123 1329.12,-23.8335 1329.2,-16.834"/>
</g>
<!-- 4&#45;&gt;11 -->
<g id="edge93" class="edge"><title>4&#45;&gt;11</title>
<path fill="none" stroke="black" d="M2119.35,-873.681C2224.2,-870.317 3090,-839.409 3090,-736 3090,-736 3090,-736 3090,-512 3090,-299.901 2913.85,-283.936 2711,-222 2520.08,-163.709 2466.34,-170.507 2268,-148 1929.34,-109.572 1515.04,-97.3313 1404.31,-94.6318"/>
<polygon fill="black" stroke="black" points="1404.36,-91.1319 1394.28,-94.3932 1404.19,-98.1299 1404.36,-91.1319"/>
</g>
<!-- 4&#45;&gt;10 -->
<g id="edge26" class="edge"><title>4&#45;&gt;10</title>
<path fill="none" stroke="black" d="M2119.5,-874.127C2222.15,-874.857 3040.52,-868.98 2952,-494 2910.8,-319.477 2824.85,-276.472 2654,-222 2520.76,-179.518 2074.94,-170.12 1957.53,-168.362"/>
<polygon fill="black" stroke="black" points="1957.27,-164.858 1947.22,-168.215 1957.17,-171.857 1957.27,-164.858"/>
</g>
<!-- 4&#45;&gt;7 -->
<g id="edge159" class="edge"><title>4&#45;&gt;7</title>
<path fill="none" stroke="black" d="M2102.46,-865.955C2098.91,-862.211 2094.19,-858.123 2089,-856 1921.43,-787.411 1447.6,-874.723 1275,-820 1117.05,-769.92 891.711,-512.247 872,-466 833.573,-375.843 955.773,-284.049 1006.24,-250.912"/>
<polygon fill="black" stroke="black" points="1008.25,-253.776 1014.77,-245.421 1004.46,-247.89 1008.25,-253.776"/>
</g>
<!-- 4&#45;&gt;12 -->
<g id="edge65" class="edge"><title>4&#45;&gt;12</title>
<path fill="none" stroke="black" d="M2119.26,-874.386C2160.38,-875.512 2316.23,-875.706 2426,-820 2581.21,-741.236 2724.15,-647.977 2643,-494 2615.87,-442.525 2587.13,-445.851 2535,-420 2461.59,-383.596 2440.2,-378.801 2360,-362 2151.74,-318.37 1893.95,-309.979 1809.34,-308.375"/>
<polygon fill="black" stroke="black" points="1809.29,-304.874 1799.23,-308.201 1809.17,-311.873 1809.29,-304.874"/>
</g>
<!-- 4&#45;&gt;9 -->
<g id="edge172" class="edge"><title>4&#45;&gt;9</title>
<path fill="none" stroke="black" d="M2119.43,-874.226C2157.89,-874.62 2294.47,-872.081 2389,-820 2467.18,-776.927 2509.67,-726.861 2482,-642 2469.38,-603.291 2460.18,-592.947 2428,-568 2278.62,-452.181 2034.69,-443.205 1956.19,-443.494"/>
<polygon fill="black" stroke="black" points="1955.8,-439.998 1945.83,-443.593 1955.87,-446.997 1955.8,-439.998"/>
</g>
<!-- 4&#45;&gt;8 -->
<g id="edge110" class="edge"><title>4&#45;&gt;8</title>
<path fill="none" stroke="black" d="M2102.45,-865.978C2098.9,-862.239 2094.18,-858.15 2089,-856 1953.14,-799.581 1572.8,-845.966 1428,-820 1330.45,-802.506 1295.38,-811.977 1215,-754 1099.42,-670.636 1100.75,-471.343 1104.99,-402.154"/>
<polygon fill="black" stroke="black" points="1108.51,-402.069 1105.71,-391.851 1101.52,-401.584 1108.51,-402.069"/>
</g>
<!-- 4&#45;&gt;15 -->
<g id="edge46" class="edge"><title>4&#45;&gt;15</title>
<path fill="none" stroke="black" d="M2101.33,-865.977C2097.8,-862.593 2093.42,-858.798 2089,-856 2024.69,-815.302 2002.82,-815.163 1931,-790 1765.33,-731.955 1559.41,-684.32 1485.78,-668.026"/>
<polygon fill="black" stroke="black" points="1486.41,-664.582 1475.89,-665.852 1484.91,-671.419 1486.41,-664.582"/>
</g>
<!-- 4&#45;&gt;13 -->
<g id="edge126" class="edge"><title>4&#45;&gt;13</title>
<path fill="none" stroke="black" d="M2119.42,-874.11C2175.81,-874.381 2439.39,-871.378 2368,-790 2342.69,-761.143 2074.1,-742.879 1985.31,-737.594"/>
<polygon fill="black" stroke="black" points="1985.36,-734.091 1975.17,-737.001 1984.95,-741.079 1985.36,-734.091"/>
</g>
<!-- 5&#45;&gt;5 -->
<g id="edge16" class="edge"><title>5&#45;&gt;5</title>
<path fill="none" stroke="black" d="M1424.82,-453.006C1434.98,-458.195 1446,-454.859 1446,-443 1446,-435.032 1441.03,-430.912 1434.68,-430.639"/>
<polygon fill="black" stroke="black" points="1433.73,-427.267 1424.82,-432.994 1435.36,-434.075 1433.73,-427.267"/>
</g>
<!-- 5&#45;&gt;16 -->
<g id="edge149" class="edge"><title>5&#45;&gt;16</title>
<path fill="none" stroke="black" d="M1399.52,-444.95C1355.41,-448.147 1219.22,-460.274 1112,-494 1039.18,-516.905 1022.43,-528.671 957,-568 835.508,-641.032 792.023,-663.529 728,-790 718.675,-808.421 710.926,-830.439 705.64,-847.31"/>
<polygon fill="black" stroke="black" points="702.233,-846.486 702.676,-857.072 708.931,-848.521 702.233,-846.486"/>
</g>
<!-- 5&#45;&gt;6 -->
<g id="edge162" class="edge"><title>5&#45;&gt;6</title>
<path fill="none" stroke="black" d="M1411.28,-457.786C1403.09,-502.208 1381.49,-645.041 1418,-754 1421.84,-765.465 1429.11,-776.735 1435.94,-785.665"/>
<polygon fill="black" stroke="black" points="1433.22,-787.868 1442.24,-793.44 1438.66,-783.464 1433.22,-787.868"/>
</g>
<!-- 5&#45;&gt;14 -->
<g id="edge50" class="edge"><title>5&#45;&gt;14</title>
<path fill="none" stroke="black" d="M1400.79,-436.622C1382.32,-428.686 1348.3,-412.535 1324,-392 1263.14,-340.571 1238.38,-327.191 1212,-252 1185.81,-177.349 1173.19,-142.939 1212,-74 1225.1,-50.7208 1252.75,-36.3214 1273.77,-28.3085"/>
<polygon fill="black" stroke="black" points="1275.21,-31.5128 1283.47,-24.8769 1272.87,-24.9138 1275.21,-31.5128"/>
</g>
<!-- 5&#45;&gt;17 -->
<g id="edge85" class="edge"><title>5&#45;&gt;17</title>
<path fill="none" stroke="black" d="M1427.97,-447.605C1468.37,-456.518 1582.73,-479.892 1619,-494 1623.92,-495.915 1629.01,-498.477 1633.95,-501.065"/>
<polygon fill="black" stroke="black" points="1632.69,-504.359 1643.17,-505.914 1635.95,-498.163 1632.69,-504.359"/>
</g>
<!-- 5&#45;&gt;11 -->
<g id="edge30" class="edge"><title>5&#45;&gt;11</title>
<path fill="none" stroke="black" d="M1413.71,-428.119C1412.66,-385.801 1408.06,-254.795 1390,-148 1388.48,-139.039 1386.2,-129.391 1383.91,-120.764"/>
<polygon fill="black" stroke="black" points="1387.21,-119.567 1381.17,-110.863 1380.46,-121.434 1387.21,-119.567"/>
</g>
<!-- 5&#45;&gt;10 -->
<g id="edge97" class="edge"><title>5&#45;&gt;10</title>
<path fill="none" stroke="black" d="M1426.46,-435.078C1451.62,-421.121 1510.34,-388.656 1560,-362 1688.97,-292.77 1844.46,-211.847 1904.08,-180.913"/>
<polygon fill="black" stroke="black" points="1905.86,-183.934 1913.12,-176.222 1902.64,-177.72 1905.86,-183.934"/>
</g>
<!-- 5&#45;&gt;7 -->
<g id="edge101" class="edge"><title>5&#45;&gt;7</title>
<path fill="none" stroke="black" d="M1400.1,-437.727C1376.1,-430.1 1325.65,-412.959 1286,-392 1249.82,-372.875 1169.55,-308.286 1134,-288 1105.87,-271.944 1071.71,-256.663 1049.67,-247.316"/>
<polygon fill="black" stroke="black" points="1050.77,-243.978 1040.19,-243.341 1048.06,-250.434 1050.77,-243.978"/>
</g>
<!-- 5&#45;&gt;12 -->
<g id="edge175" class="edge"><title>5&#45;&gt;12</title>
<path fill="none" stroke="black" d="M1427.93,-438.903C1454.67,-432.601 1514.6,-416.751 1560,-392 1578.89,-381.701 1578.89,-371.891 1598,-362 1649.41,-335.392 1715.9,-319.948 1752.93,-312.825"/>
<polygon fill="black" stroke="black" points="1753.8,-316.223 1763,-310.956 1752.53,-309.341 1753.8,-316.223"/>
</g>
<!-- 5&#45;&gt;9 -->
<g id="edge158" class="edge"><title>5&#45;&gt;9</title>
<path fill="none" stroke="black" d="M1428.64,-443C1587.86,-443 1747.07,-443 1906.28,-443"/>
<polygon fill="black" stroke="black" points="1906.28,-446.5 1916.28,-443 1906.28,-439.5 1906.28,-446.5"/>
</g>
<!-- 5&#45;&gt;8 -->
<g id="edge13" class="edge"><title>5&#45;&gt;8</title>
<path fill="none" stroke="black" d="M1399.56,-440.33C1358.59,-434.694 1240.78,-415.412 1145,-392 1139.89,-390.752 1134.52,-389.291 1129.42,-387.793"/>
<polygon fill="black" stroke="black" points="1130.13,-384.347 1119.54,-384.722 1128.05,-391.032 1130.13,-384.347"/>
</g>
<!-- 5&#45;&gt;15 -->
<g id="edge189" class="edge"><title>5&#45;&gt;15</title>
<path fill="none" stroke="black" d="M1412.62,-457.941C1410.29,-486.622 1407.5,-553.912 1426,-606 1429.83,-616.782 1435.9,-627.804 1441.73,-637.055"/>
<polygon fill="black" stroke="black" points="1438.96,-639.217 1447.39,-645.641 1444.81,-635.365 1438.96,-639.217"/>
</g>
<!-- 5&#45;&gt;13 -->
<g id="edge113" class="edge"><title>5&#45;&gt;13</title>
<path fill="none" stroke="black" d="M1426.13,-451.709C1434.07,-456.449 1444.83,-462.304 1455,-466 1512.59,-486.925 1535.21,-466.57 1590,-494 1612.81,-505.417 1610.35,-520.281 1633,-532 1695.05,-564.098 1724.72,-534.458 1786,-568 1853.2,-604.784 1912.65,-675.196 1940.4,-711.349"/>
<polygon fill="black" stroke="black" points="1937.63,-713.486 1946.45,-719.349 1943.21,-709.262 1937.63,-713.486"/>
</g>
<!-- 16&#45;&gt;5 -->
<g id="edge147" class="edge"><title>16&#45;&gt;5</title>
<path fill="none" stroke="black" d="M706.941,-858.525C724.959,-828.313 768.189,-760.545 818,-716 968.691,-581.241 1026.04,-565.836 1215,-494 1275.92,-470.843 1351.39,-455.249 1389.51,-448.234"/>
<polygon fill="black" stroke="black" points="1390.44,-451.624 1399.66,-446.409 1389.2,-444.735 1390.44,-451.624"/>
</g>
<!-- 16&#45;&gt;16 -->
<g id="edge115" class="edge"><title>16&#45;&gt;16</title>
<path fill="none" stroke="black" d="M712.417,-886.574C723.166,-890.616 734,-886.758 734,-875 734,-867.1 729.109,-862.767 722.64,-861.999"/>
<polygon fill="black" stroke="black" points="721.837,-858.577 712.417,-863.426 722.805,-865.51 721.837,-858.577"/>
</g>
<!-- 16&#45;&gt;6 -->
<g id="edge1" class="edge"><title>16&#45;&gt;6</title>
<path fill="none" stroke="black" d="M716.158,-872.146C817.507,-862.485 1311.01,-817.975 1427.44,-807.991"/>
<polygon fill="black" stroke="black" points="1427.83,-811.47 1437.5,-807.135 1427.24,-804.496 1427.83,-811.47"/>
</g>
<!-- 16&#45;&gt;14 -->
<g id="edge67" class="edge"><title>16&#45;&gt;14</title>
<path fill="none" stroke="black" d="M679.651,-874.121C589.107,-874.46 189.909,-872.885 80,-820 33.5427,-797.646 0,-787.556 0,-736 0,-736 0,-736 0,-166 0,-116.693 18.9836,-98.0997 62,-74 116.533,-43.4481 1091.93,-23.8852 1272.41,-20.519"/>
<polygon fill="black" stroke="black" points="1272.52,-24.0175 1282.46,-20.333 1272.39,-17.0187 1272.52,-24.0175"/>
</g>
<!-- 16&#45;&gt;17 -->
<g id="edge121" class="edge"><title>16&#45;&gt;17</title>
<path fill="none" stroke="black" d="M714.245,-866.53C793.883,-830.104 1151.52,-668.781 1456,-568 1518.13,-547.437 1592.87,-529.28 1632.38,-520.182"/>
<polygon fill="black" stroke="black" points="1633.35,-523.55 1642.32,-517.913 1631.8,-516.726 1633.35,-523.55"/>
</g>
<!-- 16&#45;&gt;7 -->
<g id="edge68" class="edge"><title>16&#45;&gt;7</title>
<path fill="none" stroke="black" d="M679.785,-873.651C605.161,-871.945 323.165,-862.736 247,-820 89.5374,-731.647 64.7323,-562.198 176,-420 252.222,-322.59 302.416,-323.162 421,-288 532.829,-254.841 903.149,-241.672 1002.36,-238.689"/>
<polygon fill="black" stroke="black" points="1002.7,-242.181 1012.6,-238.389 1002.5,-235.184 1002.7,-242.181"/>
</g>
<!-- 16&#45;&gt;12 -->
<g id="edge193" class="edge"><title>16&#45;&gt;12</title>
<path fill="none" stroke="black" d="M716.189,-874.059C817.825,-874.183 1325.6,-872.054 1736,-820 1882.22,-801.454 1931.15,-823.741 2061,-754 2192.53,-683.355 2195.39,-532.295 2097,-420 2069.92,-389.094 2062.04,-379.798 2025,-362 1952.26,-327.045 1856.41,-314.378 1809.43,-310.064"/>
<polygon fill="black" stroke="black" points="1809.64,-306.569 1799.38,-309.201 1809.04,-313.543 1809.64,-306.569"/>
</g>
<!-- 16&#45;&gt;8 -->
<g id="edge200" class="edge"><title>16&#45;&gt;8</title>
<path fill="none" stroke="black" d="M679.663,-873.137C588.422,-868.071 190,-838.805 190,-736 190,-736 190,-736 190,-660 190,-468.558 935.454,-392.523 1082.17,-379.929"/>
<polygon fill="black" stroke="black" points="1082.72,-383.395 1092.4,-379.073 1082.14,-376.42 1082.72,-383.395"/>
</g>
<!-- 6&#45;&gt;5 -->
<g id="edge144" class="edge"><title>6&#45;&gt;5</title>
<path fill="none" stroke="black" d="M1437.52,-804.692C1404.54,-805.379 1323.93,-801.839 1288,-754 1217.94,-660.722 1242.87,-577.827 1324,-494 1342.95,-474.422 1371.24,-460.432 1391.03,-452.316"/>
<polygon fill="black" stroke="black" points="1392.47,-455.511 1400.51,-448.609 1389.92,-448.992 1392.47,-455.511"/>
</g>
<!-- 6&#45;&gt;16 -->
<g id="edge102" class="edge"><title>6&#45;&gt;16</title>
<path fill="none" stroke="black" d="M1437.58,-807.496C1346.34,-816.26 851.33,-860.918 726.509,-871.669"/>
<polygon fill="black" stroke="black" points="725.905,-868.208 716.24,-872.548 726.502,-875.183 725.905,-868.208"/>
</g>
<!-- 6&#45;&gt;6 -->
<g id="edge161" class="edge"><title>6&#45;&gt;6</title>
<path fill="none" stroke="black" d="M1462.49,-815.43C1472.74,-821.192 1484,-817.715 1484,-805 1484,-796.457 1478.92,-792.085 1472.47,-791.882"/>
<polygon fill="black" stroke="black" points="1471.23,-788.591 1462.49,-794.57 1473.05,-795.35 1471.23,-788.591"/>
</g>
<!-- 6&#45;&gt;14 -->
<g id="edge69" class="edge"><title>6&#45;&gt;14</title>
<path fill="none" stroke="black" d="M1437.56,-803.842C1379.44,-802.896 1160.27,-796.458 987,-754 768.307,-700.411 115,-463.163 115,-238 115,-238 115,-238 115,-166 115,-112.964 143.587,-97.7674 191,-74 289.881,-24.432 1108.09,-20.3519 1272.39,-20.0266"/>
<polygon fill="black" stroke="black" points="1272.67,-23.5262 1282.67,-20.0096 1272.66,-16.5262 1272.67,-23.5262"/>
</g>
<!-- 6&#45;&gt;11 -->
<g id="edge84" class="edge"><title>6&#45;&gt;11</title>
<path fill="none" stroke="black" d="M1437.56,-802.948C1390.48,-798.854 1239.99,-782.772 1119,-754 1030.63,-732.986 809.67,-661.799 738,-606 609.805,-506.194 558.575,-478.665 503,-326 431.022,-128.277 627.099,-205.432 863,-148 1043.47,-104.062 1268.97,-95.8685 1347.6,-94.3459"/>
<polygon fill="black" stroke="black" points="1347.76,-97.8438 1357.7,-94.1723 1347.64,-90.8448 1347.76,-97.8438"/>
</g>
<!-- 6&#45;&gt;10 -->
<g id="edge20" class="edge"><title>6&#45;&gt;10</title>
<path fill="none" stroke="black" d="M1466.42,-803.758C1533.72,-802.5 1820.64,-795.065 2052,-754 2173.67,-732.405 2212.34,-740.647 2320,-680 2453.13,-605.007 2570,-596.798 2570,-444 2570,-444 2570,-444 2570,-306 2570,-178.06 2082.05,-168.225 1957.55,-167.881"/>
<polygon fill="black" stroke="black" points="1957.29,-164.381 1947.29,-167.872 1957.29,-171.381 1957.29,-164.381"/>
</g>
<!-- 6&#45;&gt;7 -->
<g id="edge15" class="edge"><title>6&#45;&gt;7</title>
<path fill="none" stroke="black" d="M1437.65,-801.997C1391.47,-794.529 1249.75,-768.009 1206,-754 1165.82,-741.134 1158.43,-731.008 1119,-716 1116.7,-715.124 784.034,-607.387 782,-606 746.785,-581.988 741.387,-569.431 721,-532 669.13,-436.765 640.684,-360.867 721,-288 761.817,-250.968 936.802,-241.02 1002.34,-238.662"/>
<polygon fill="black" stroke="black" points="1002.69,-242.153 1012.57,-238.325 1002.46,-235.157 1002.69,-242.153"/>
</g>
<!-- 6&#45;&gt;12 -->
<g id="edge191" class="edge"><title>6&#45;&gt;12</title>
<path fill="none" stroke="black" d="M1466.41,-803.689C1542.2,-802.021 1892.07,-792.716 1993,-754 2044.29,-734.326 2061.72,-725.836 2092,-680 2156.68,-582.084 2123.98,-507.691 2046,-420 1981.49,-347.457 1862.99,-320.989 1808.92,-312.098"/>
<polygon fill="black" stroke="black" points="1809.42,-308.634 1799,-310.546 1808.34,-315.55 1809.42,-308.634"/>
</g>
<!-- 6&#45;&gt;9 -->
<g id="edge7" class="edge"><title>6&#45;&gt;9</title>
<path fill="none" stroke="black" d="M1462.43,-794.371C1523.13,-744.47 1827.83,-515.373 1910.44,-457.373"/>
<polygon fill="black" stroke="black" points="1912.55,-460.169 1918.77,-451.59 1908.56,-454.418 1912.55,-460.169"/>
</g>
<!-- 6&#45;&gt;8 -->
<g id="edge148" class="edge"><title>6&#45;&gt;8</title>
<path fill="none" stroke="black" d="M1437.4,-804.074C1401.23,-803.751 1308.52,-798.857 1252,-754 1139.6,-664.783 1141.83,-604.964 1106,-466 1100.39,-444.226 1098.58,-418.536 1099.75,-400.554"/>
<polygon fill="black" stroke="black" points="1103.24,-400.778 1100.85,-390.457 1096.29,-400.016 1103.24,-400.778"/>
</g>
<!-- 6&#45;&gt;15 -->
<g id="edge131" class="edge"><title>6&#45;&gt;15</title>
<path fill="none" stroke="black" d="M1448.4,-790.384C1446.44,-767.138 1448.04,-719.38 1451.41,-689.118"/>
<polygon fill="black" stroke="black" points="1454.93,-689.203 1452.73,-678.838 1447.99,-688.311 1454.93,-689.203"/>
</g>
<!-- 6&#45;&gt;13 -->
<g id="edge53" class="edge"><title>6&#45;&gt;13</title>
<path fill="none" stroke="black" d="M1466.17,-801.738C1535.19,-791.729 1834.52,-751.4 1928.66,-739.391"/>
<polygon fill="black" stroke="black" points="1929.37,-742.829 1938.86,-738.101 1928.5,-735.884 1929.37,-742.829"/>
</g>
<!-- 14&#45;&gt;5 -->
<g id="edge73" class="edge"><title>14&#45;&gt;5</title>
<path fill="none" stroke="black" d="M1302.44,-37.3615C1307.41,-91.6961 1326.64,-262.573 1381,-392 1385.59,-402.932 1392.64,-414.043 1399.04,-423.005"/>
<polygon fill="black" stroke="black" points="1396.34,-425.235 1405.12,-431.166 1401.95,-421.054 1396.34,-425.235"/>
</g>
<!-- 14&#45;&gt;6 -->
<g id="edge89" class="edge"><title>14&#45;&gt;6</title>
<path fill="none" stroke="black" d="M1282.78,-20.0155C1147.89,-20.2518 309.191,-23.7755 209,-74 161.587,-97.7674 133,-112.964 133,-166 133,-238 133,-238 133,-238 133,-463.163 786.307,-700.411 1005,-754 1162.9,-792.693 1358.93,-801.471 1427.31,-803.439"/>
<polygon fill="black" stroke="black" points="1427.43,-806.943 1437.52,-803.709 1427.62,-799.946 1427.43,-806.943"/>
</g>
<!-- 14&#45;&gt;14 -->
<g id="edge178" class="edge"><title>14&#45;&gt;14</title>
<path fill="none" stroke="black" d="M1315.04,-31.083C1325.91,-35.6019 1337,-31.5742 1337,-19 1337,-10.3552 1331.76,-5.75002 1324.95,-5.1844"/>
<polygon fill="black" stroke="black" points="1324.29,-1.74698 1315.04,-6.91696 1325.5,-8.64239 1324.29,-1.74698"/>
</g>
<!-- 14&#45;&gt;17 -->
<g id="edge2" class="edge"><title>14&#45;&gt;17</title>
<path fill="none" stroke="black" d="M1282.58,-20.5866C1143.58,-25.248 265,-58.9469 265,-166 265,-238 265,-238 265,-238 265,-382.584 1433.73,-492.045 1631.68,-509.548"/>
<polygon fill="black" stroke="black" points="1631.58,-513.053 1641.85,-510.442 1632.2,-506.08 1631.58,-513.053"/>
</g>
<!-- 14&#45;&gt;11 -->
<g id="edge194" class="edge"><title>14&#45;&gt;11</title>
<path fill="none" stroke="black" d="M1316.05,-29.8274C1328.58,-40.0158 1346.02,-56.2899 1359,-69.6325"/>
<polygon fill="black" stroke="black" points="1356.64,-72.2259 1366.05,-77.0816 1361.72,-67.4134 1356.64,-72.2259"/>
</g>
<!-- 14&#45;&gt;10 -->
<g id="edge135" class="edge"><title>14&#45;&gt;10</title>
<path fill="none" stroke="black" d="M1319.57,-19.651C1384.41,-18.7339 1603.96,-19.4097 1773,-74 1825.33,-90.8987 1879.88,-125.122 1908.78,-146.731"/>
<polygon fill="black" stroke="black" points="1906.84,-149.654 1916.89,-152.998 1911.12,-144.115 1906.84,-149.654"/>
</g>
<!-- 14&#45;&gt;7 -->
<g id="edge152" class="edge"><title>14&#45;&gt;7</title>
<path fill="none" stroke="black" d="M1283.11,-22.7198C1237.16,-29.2095 1118.05,-47.0934 1089,-74 1049.43,-110.653 1039.34,-177.238 1033.56,-212.55"/>
<polygon fill="black" stroke="black" points="1030.04,-212.392 1031.8,-222.839 1036.94,-213.57 1030.04,-212.392"/>
</g>
<!-- 14&#45;&gt;12 -->
<g id="edge103" class="edge"><title>14&#45;&gt;12</title>
<path fill="none" stroke="black" d="M1318.88,-22.6483C1373.77,-32.3411 1540.95,-69.4914 1654,-148 1706.44,-184.419 1751.19,-245.675 1771,-280.243"/>
<polygon fill="black" stroke="black" points="1768.05,-282.141 1775.91,-289.242 1774.19,-278.788 1768.05,-282.141"/>
</g>
<!-- 14&#45;&gt;9 -->
<g id="edge119" class="edge"><title>14&#45;&gt;9</title>
<path fill="none" stroke="black" d="M1319.48,-20.1206C1388.9,-20.9234 1638.16,-27.0647 1836,-74 2015.98,-116.698 2120,-69.7095 2225,-222 2302.84,-334.895 2037.96,-415.862 1954.94,-436.714"/>
<polygon fill="black" stroke="black" points="1954,-433.34 1945.11,-439.107 1955.66,-440.141 1954,-433.34"/>
</g>
<!-- 14&#45;&gt;8 -->
<g id="edge56" class="edge"><title>14&#45;&gt;8</title>
<path fill="none" stroke="black" d="M1282.67,-21.4295C1162.19,-30.4969 491,-82.3214 491,-166 491,-238 491,-238 491,-238 491,-362.074 966.588,-374.693 1082.06,-375.893"/>
<polygon fill="black" stroke="black" points="1082.34,-379.396 1092.37,-375.979 1082.4,-372.396 1082.34,-379.396"/>
</g>
<!-- 14&#45;&gt;15 -->
<g id="edge36" class="edge"><title>14&#45;&gt;15</title>
<path fill="none" stroke="black" d="M1282.46,-19.9526C1166.51,-19.8612 542.356,-21.9926 359,-74 276.35,-97.4429 189,-80.0899 189,-166 189,-238 189,-238 189,-238 189,-332.424 863.741,-581.761 955,-606 1131.15,-652.786 1351.52,-659.3 1429.36,-660.014"/>
<polygon fill="black" stroke="black" points="1429.36,-663.514 1439.38,-660.08 1429.4,-656.514 1429.36,-663.514"/>
</g>
<!-- 14&#45;&gt;13 -->
<g id="edge165" class="edge"><title>14&#45;&gt;13</title>
<path fill="none" stroke="black" d="M1319.21,-20.6301C1495.54,-27.1162 2890,-83.1856 2890,-166 2890,-238 2890,-238 2890,-238 2890,-657.165 2142.7,-723.556 1985.67,-732.676"/>
<polygon fill="black" stroke="black" points="1985.19,-729.196 1975.4,-733.238 1985.58,-736.186 1985.19,-729.196"/>
</g>
<!-- 17&#45;&gt;5 -->
<g id="edge133" class="edge"><title>17&#45;&gt;5</title>
<path fill="none" stroke="black" d="M1647.94,-499.124C1644.46,-497.227 1640.68,-495.433 1637,-494 1601.06,-480.019 1488.42,-456.938 1438.21,-447.849"/>
<polygon fill="black" stroke="black" points="1438.68,-444.377 1428.22,-446.083 1437.46,-451.27 1438.68,-444.377"/>
</g>
<!-- 17&#45;&gt;6 -->
<g id="edge71" class="edge"><title>17&#45;&gt;6</title>
<path fill="none" stroke="black" d="M1642.13,-517.447C1596.62,-527.308 1476.77,-560.357 1431,-642 1405.85,-686.868 1426.88,-749.475 1441.27,-782.164"/>
<polygon fill="black" stroke="black" points="1438.29,-784.046 1445.65,-791.666 1444.65,-781.118 1438.29,-784.046"/>
</g>
<!-- 17&#45;&gt;17 -->
<g id="edge107" class="edge"><title>17&#45;&gt;17</title>
<path fill="none" stroke="cornflowerblue" stroke-dasharray="1,5" d="M1674.42,-524.574C1685.17,-528.616 1696,-524.758 1696,-513 1696,-505.1 1691.11,-500.767 1684.64,-499.999"/>
<polygon fill="cornflowerblue" stroke="cornflowerblue" points="1683.84,-496.577 1674.42,-501.426 1684.8,-503.51 1683.84,-496.577"/>
</g>
<!-- 17&#45;&gt;11 -->
<g id="edge75" class="edge"><title>17&#45;&gt;11</title>
<path fill="none" stroke="black" d="M1648.28,-498.566C1602.42,-438.81 1437.63,-196.668 1389.24,-118.475"/>
<polygon fill="black" stroke="black" points="1392.13,-116.489 1383.93,-109.776 1386.15,-120.135 1392.13,-116.489"/>
</g>
<!-- 17&#45;&gt;12 -->
<g id="edge104" class="edge"><title>17&#45;&gt;12</title>
<path fill="none" stroke="black" d="M1664.43,-494.787C1669.62,-486.257 1676.9,-475.724 1683,-466 1712.72,-418.632 1744.05,-360.931 1763.45,-330.041"/>
<polygon fill="black" stroke="black" points="1766.57,-331.652 1769.07,-321.356 1760.7,-327.848 1766.57,-331.652"/>
</g>
<!-- 17&#45;&gt;9 -->
<g id="edge197" class="edge"><title>17&#45;&gt;9</title>
<path fill="none" stroke="black" d="M1677.78,-507.538C1725.04,-495.68 1853.81,-463.37 1907.25,-449.958"/>
<polygon fill="black" stroke="black" points="1908.33,-453.297 1917.18,-447.469 1906.63,-446.508 1908.33,-453.297"/>
</g>
<!-- 17&#45;&gt;13 -->
<g id="edge38" class="edge"><title>17&#45;&gt;13</title>
<path fill="none" stroke="black" d="M1678.29,-515.323C1731.31,-519.532 1883.53,-534.361 1918,-568 1955.41,-604.508 1959.77,-669.625 1958.87,-706.518"/>
<polygon fill="black" stroke="black" points="1955.37,-706.435 1958.48,-716.564 1962.37,-706.709 1955.37,-706.435"/>
</g>
<!-- 17&#45;&gt;18 -->
<g id="edge42" class="edge"><title>17&#45;&gt;18</title>
<path fill="none" stroke="black" d="M1678.23,-514.927C1726.83,-518.101 1861.08,-530.488 1965,-568 1965.58,-568.21 1966.16,-568.429 1966.75,-568.658"/>
<polygon fill="black" stroke="black" points="1965.46,-571.917 1976,-572.968 1968.41,-565.572 1965.46,-571.917"/>
</g>
<!-- 11&#45;&gt;5 -->
<g id="edge17" class="edge"><title>11&#45;&gt;5</title>
<path fill="none" stroke="black" d="M1376,-111.489C1376,-138.289 1376,-191.132 1376,-236 1376,-308 1376,-308 1376,-308 1376,-348.774 1392.49,-393.969 1403.74,-420.072"/>
<polygon fill="black" stroke="black" points="1400.63,-421.691 1407.89,-429.403 1407.02,-418.844 1400.63,-421.691"/>
</g>
<!-- 11&#45;&gt;16 -->
<g id="edge58" class="edge"><title>11&#45;&gt;16</title>
<path fill="none" stroke="black" d="M1357.62,-93.7893C1245.24,-92.6973 649.94,-89.778 479,-148 217.507,-237.064 38,-309.755 38,-586 38,-736 38,-736 38,-736 38,-867.092 543.187,-874.432 669.594,-874.216"/>
<polygon fill="black" stroke="black" points="669.671,-877.716 679.659,-874.181 669.647,-870.716 669.671,-877.716"/>
</g>
<!-- 11&#45;&gt;6 -->
<g id="edge205" class="edge"><title>11&#45;&gt;6</title>
<path fill="none" stroke="black" d="M1357.81,-94.296C1292.16,-95.6848 1063.55,-103.557 881,-148 645.099,-205.432 449.022,-128.277 521,-326 576.575,-478.665 627.805,-506.194 756,-606 827.67,-661.799 1048.63,-732.986 1137,-754 1244.01,-779.448 1374.09,-794.968 1427.56,-801.048"/>
<polygon fill="black" stroke="black" points="1427.44,-804.556 1437.77,-802.202 1428.23,-797.601 1427.44,-804.556"/>
</g>
<!-- 11&#45;&gt;14 -->
<g id="edge116" class="edge"><title>11&#45;&gt;14</title>
<path fill="none" stroke="black" d="M1361.1,-82.2898C1348.53,-72.0861 1330.95,-55.6867 1317.91,-42.2758"/>
<polygon fill="black" stroke="black" points="1320.25,-39.6541 1310.83,-34.7944 1315.16,-44.4644 1320.25,-39.6541"/>
</g>
<!-- 11&#45;&gt;17 -->
<g id="edge196" class="edge"><title>11&#45;&gt;17</title>
<path fill="none" stroke="black" d="M1387.62,-107.31C1433.33,-166.821 1598.16,-409.024 1646.68,-487.402"/>
<polygon fill="black" stroke="black" points="1643.81,-489.413 1652.01,-496.124 1649.78,-485.765 1643.81,-489.413"/>
</g>
<!-- 11&#45;&gt;11 -->
<g id="edge3" class="edge"><title>11&#45;&gt;11</title>
<path fill="none" stroke="black" d="M1390.04,-105.083C1400.91,-109.602 1412,-105.574 1412,-93 1412,-84.3552 1406.76,-79.75 1399.95,-79.1844"/>
<polygon fill="black" stroke="black" points="1399.29,-75.747 1390.04,-80.917 1400.5,-82.6424 1399.29,-75.747"/>
</g>
<!-- 11&#45;&gt;10 -->
<g id="edge70" class="edge"><title>11&#45;&gt;10</title>
<path fill="none" stroke="black" d="M1393.95,-96.0205C1474.65,-105.82 1802.57,-148.475 1901.02,-161.923"/>
<polygon fill="black" stroke="black" points="1900.72,-165.414 1911.1,-163.309 1901.67,-158.479 1900.72,-165.414"/>
</g>
<!-- 11&#45;&gt;7 -->
<g id="edge145" class="edge"><title>11&#45;&gt;7</title>
<path fill="none" stroke="black" d="M1358.45,-98.0023C1323.64,-105.104 1245.18,-121.687 1183,-148 1132.33,-169.442 1078.13,-205.844 1048.57,-224.391"/>
<polygon fill="black" stroke="black" points="1046.55,-221.521 1039.87,-229.743 1050.22,-227.483 1046.55,-221.521"/>
</g>
<!-- 11&#45;&gt;12 -->
<g id="edge192" class="edge"><title>11&#45;&gt;12</title>
<path fill="none" stroke="black" d="M1394.34,-95.0153C1435.14,-98.1318 1533.78,-109.799 1605,-148 1665.15,-180.262 1665.52,-208.357 1718,-252 1732.15,-263.77 1748.53,-276.144 1761.21,-286.072"/>
<polygon fill="black" stroke="black" points="1759.31,-289.038 1769.32,-292.518 1763.67,-283.557 1759.31,-289.038"/>
</g>
<!-- 11&#45;&gt;9 -->
<g id="edge87" class="edge"><title>11&#45;&gt;9</title>
<path fill="none" stroke="black" d="M1394.28,-96.63C1427.37,-102.663 1497.08,-119.235 1549,-148 1603.11,-177.978 1713.27,-289.21 1763,-326 1815.42,-364.783 1880.23,-405.545 1912.06,-426.902"/>
<polygon fill="black" stroke="black" points="1910.24,-429.899 1920.47,-432.638 1914.18,-424.114 1910.24,-429.899"/>
</g>
<!-- 11&#45;&gt;8 -->
<g id="edge150" class="edge"><title>11&#45;&gt;8</title>
<path fill="none" stroke="black" d="M1365.55,-108.284C1324.69,-156.065 1177.79,-310.117 1125.45,-360.147"/>
<polygon fill="black" stroke="black" points="1122.78,-357.852 1117.89,-367.251 1127.58,-362.952 1122.78,-357.852"/>
</g>
<!-- 11&#45;&gt;15 -->
<g id="edge54" class="edge"><title>11&#45;&gt;15</title>
<path fill="none" stroke="black" d="M1358.02,-96.9284C1314.33,-103.372 1200.9,-120.437 1109,-148 868.376,-220.171 694.714,-138.846 768,-326 829.811,-483.849 876.11,-528.739 1027,-606 1045.2,-615.321 1336.58,-646.398 1429.74,-656.671"/>
<polygon fill="black" stroke="black" points="1429.52,-660.168 1439.85,-657.791 1430.29,-653.211 1429.52,-660.168"/>
</g>
<!-- 11&#45;&gt;13 -->
<g id="edge132" class="edge"><title>11&#45;&gt;13</title>
<path fill="none" stroke="black" d="M1394.14,-95.4398C1439.62,-99.8783 1559.79,-115.086 1654,-148 1850.66,-216.709 1918.72,-219.854 2071,-362 2175.09,-459.164 2204.46,-573.449 2110,-680 2078.22,-715.85 2020.24,-727.974 1985.31,-732.019"/>
<polygon fill="black" stroke="black" points="1984.86,-728.546 1975.26,-733.032 1985.56,-735.511 1984.86,-728.546"/>
</g>
<!-- 10&#45;&gt;5 -->
<g id="edge146" class="edge"><title>10&#45;&gt;5</title>
<path fill="none" stroke="black" d="M1911.72,-172.987C1881.82,-181.787 1818.68,-201.124 1767,-222 1643.86,-271.746 1610.19,-283.582 1503,-362 1476.24,-381.574 1448.27,-407.827 1430.98,-424.828"/>
<polygon fill="black" stroke="black" points="1428.46,-422.399 1423.84,-431.932 1433.4,-427.363 1428.46,-422.399"/>
</g>
<!-- 10&#45;&gt;6 -->
<g id="edge163" class="edge"><title>10&#45;&gt;6</title>
<path fill="none" stroke="black" d="M1947.37,-167.883C2054.16,-167.571 2588,-172.18 2588,-306 2588,-444 2588,-444 2588,-444 2588,-596.798 2471.13,-605.007 2338,-680 2230.34,-740.647 2191.67,-732.405 2070,-754 1842.58,-794.365 1561.49,-802.237 1476.98,-803.688"/>
<polygon fill="black" stroke="black" points="1476.76,-800.191 1466.81,-803.847 1476.86,-807.19 1476.76,-800.191"/>
</g>
<!-- 10&#45;&gt;14 -->
<g id="edge52" class="edge"><title>10&#45;&gt;14</title>
<path fill="none" stroke="black" d="M1913.02,-157.613C1883.02,-138.972 1817.42,-94.1587 1755,-74 1600.08,-23.9678 1402.72,-19.2227 1329.66,-19.485"/>
<polygon fill="black" stroke="black" points="1329.39,-15.9868 1319.42,-19.5596 1329.44,-22.9866 1329.39,-15.9868"/>
</g>
<!-- 10&#45;&gt;17 -->
<g id="edge4" class="edge"><title>10&#45;&gt;17</title>
<path fill="none" stroke="black" d="M1921.9,-184.231C1914.12,-201.482 1900.89,-229.34 1887,-252 1825.22,-352.802 1814.58,-384.431 1729,-466 1715.79,-478.59 1698.75,-489.99 1684.9,-498.291"/>
<polygon fill="black" stroke="black" points="1682.8,-495.465 1675.92,-503.52 1686.32,-501.516 1682.8,-495.465"/>
</g>
<!-- 10&#45;&gt;11 -->
<g id="edge160" class="edge"><title>10&#45;&gt;11</title>
<path fill="none" stroke="black" d="M1910.9,-163.961C1830,-154.134 1502.87,-111.581 1404.2,-98.1075"/>
<polygon fill="black" stroke="black" points="1404.47,-94.6126 1394.09,-96.7181 1403.52,-101.547 1404.47,-94.6126"/>
</g>
<!-- 10&#45;&gt;10 -->
<g id="edge99" class="edge"><title>10&#45;&gt;10</title>
<path fill="none" stroke="black" d="M1943.42,-178.574C1954.17,-182.616 1965,-178.758 1965,-167 1965,-159.1 1960.11,-154.767 1953.64,-153.999"/>
<polygon fill="black" stroke="black" points="1952.84,-150.577 1943.42,-155.426 1953.8,-157.51 1952.84,-150.577"/>
</g>
<!-- 10&#45;&gt;7 -->
<g id="edge18" class="edge"><title>10&#45;&gt;7</title>
<path fill="none" stroke="black" d="M1910.66,-169.549C1796.26,-178.628 1183.2,-224.847 1051.76,-234.307"/>
<polygon fill="black" stroke="black" points="1051.24,-230.835 1041.52,-235.039 1051.74,-237.817 1051.24,-230.835"/>
</g>
<!-- 10&#45;&gt;12 -->
<g id="edge176" class="edge"><title>10&#45;&gt;12</title>
<path fill="none" stroke="cornflowerblue" stroke-dasharray="1,5" d="M1921.51,-184.115C1908.35,-201.512 1882.38,-229.718 1858,-252 1841.72,-266.878 1821.84,-282.386 1806.11,-292.945"/>
<polygon fill="cornflowerblue" stroke="cornflowerblue" points="1803.91,-290.199 1797.39,-298.548 1807.7,-296.088 1803.91,-290.199"/>
</g>
<!-- 10&#45;&gt;9 -->
<g id="edge81" class="edge"><title>10&#45;&gt;9</title>
<path fill="none" stroke="black" d="M1940.67,-181.132C1945.79,-191.955 1950.19,-207.781 1952,-222 1961.17,-293.948 1950.18,-380.009 1940.2,-419.805"/>
<polygon fill="black" stroke="black" points="1936.8,-418.966 1937.49,-429.538 1943.54,-420.839 1936.8,-418.966"/>
</g>
<!-- 10&#45;&gt;8 -->
<g id="edge14" class="edge"><title>10&#45;&gt;8</title>
<path fill="none" stroke="black" d="M1911.37,-172.014C1869.21,-180.327 1760.91,-200.462 1671,-222 1460.17,-272.502 1208.38,-347.916 1130.76,-369.826"/>
<polygon fill="black" stroke="black" points="1129.67,-366.495 1120.98,-372.555 1131.55,-373.238 1129.67,-366.495"/>
</g>
<!-- 10&#45;&gt;15 -->
<g id="edge114" class="edge"><title>10&#45;&gt;15</title>
<path fill="none" stroke="black" d="M1947.32,-168.717C2008.8,-172.268 2202,-192.739 2202,-306 2202,-378 2202,-378 2202,-378 2202,-533.359 1622.34,-635.181 1486.26,-656.03"/>
<polygon fill="black" stroke="black" points="1485.57,-652.595 1476.21,-657.546 1486.62,-659.517 1485.57,-652.595"/>
</g>
<!-- 10&#45;&gt;13 -->
<g id="edge32" class="edge"><title>10&#45;&gt;13</title>
<path fill="none" stroke="black" d="M1947.37,-168.019C2024.84,-169.069 2323.32,-184.22 2423,-362 2498.7,-497.009 2422.44,-617.119 2281,-680 2228.42,-703.375 2054.28,-724.319 1985.27,-731.428"/>
<polygon fill="black" stroke="black" points="1984.73,-727.965 1975.14,-732.449 1985.44,-734.929 1984.73,-727.965"/>
</g>
<!-- 7&#45;&gt;5 -->
<g id="edge35" class="edge"><title>7&#45;&gt;5</title>
<path fill="none" stroke="cornflowerblue" stroke-dasharray="1,5" d="M1038.17,-246.493C1076.46,-275.492 1202.53,-370.005 1248,-392 1295.71,-415.081 1356.33,-430.067 1389.52,-437.173"/>
<polygon fill="cornflowerblue" stroke="cornflowerblue" points="1389.17,-440.674 1399.67,-439.281 1390.59,-433.82 1389.17,-440.674"/>
</g>
<!-- 7&#45;&gt;6 -->
<g id="edge19" class="edge"><title>7&#45;&gt;6</title>
<path fill="none" stroke="black" d="M1012.36,-238.576C959.298,-240.771 780.339,-250.495 739,-288 658.684,-360.867 687.13,-436.765 739,-532 759.387,-569.431 764.785,-581.988 800,-606 802.034,-607.387 1134.7,-715.124 1137,-716 1176.43,-731.008 1183.82,-741.134 1224,-754 1262.62,-766.364 1377.55,-788.475 1428.05,-798.631"/>
<polygon fill="black" stroke="black" points="1427.58,-802.105 1438.07,-800.664 1428.97,-795.245 1427.58,-802.105"/>
</g>
<!-- 7&#45;&gt;14 -->
<g id="edge134" class="edge"><title>7&#45;&gt;14</title>
<path fill="none" stroke="black" d="M1022.65,-222.839C1019.5,-192.001 1027.15,-114.62 1071,-74 1099.86,-47.2653 1217.64,-29.4384 1272.71,-22.8456"/>
<polygon fill="black" stroke="black" points="1273.31,-26.2998 1282.84,-21.6775 1272.5,-19.3458 1273.31,-26.2998"/>
</g>
<!-- 7&#45;&gt;11 -->
<g id="edge118" class="edge"><title>7&#45;&gt;11</title>
<path fill="none" stroke="black" d="M1036.27,-225.284C1058.36,-207.036 1113.5,-169.792 1165,-148 1227.43,-121.582 1306.27,-104.971 1347.85,-97.9175"/>
<polygon fill="black" stroke="black" points="1348.52,-101.355 1357.82,-96.2925 1347.39,-94.4458 1348.52,-101.355"/>
</g>
<!-- 7&#45;&gt;10 -->
<g id="edge177" class="edge"><title>7&#45;&gt;10</title>
<path fill="none" stroke="black" d="M1041.44,-234.762C1144.04,-226.56 1760.36,-180.085 1900.66,-169.951"/>
<polygon fill="black" stroke="black" points="1900.91,-173.442 1910.64,-169.235 1900.41,-166.46 1900.91,-173.442"/>
</g>
<!-- 7&#45;&gt;7 -->
<g id="edge164" class="edge"><title>7&#45;&gt;7</title>
<path fill="none" stroke="black" d="M1037.49,-247.43C1047.74,-253.192 1059,-249.715 1059,-237 1059,-228.457 1053.92,-224.085 1047.47,-223.882"/>
<polygon fill="black" stroke="black" points="1046.23,-220.591 1037.49,-226.57 1048.05,-227.35 1046.23,-220.591"/>
</g>
<!-- 7&#45;&gt;12 -->
<g id="edge5" class="edge"><title>7&#45;&gt;12</title>
<path fill="none" stroke="black" d="M1041.5,-239.135C1132.98,-246.835 1627.98,-291.447 1752.59,-303.176"/>
<polygon fill="black" stroke="black" points="1752.56,-306.688 1762.84,-304.146 1753.22,-299.719 1752.56,-306.688"/>
</g>
<!-- 7&#45;&gt;9 -->
<g id="edge155" class="edge"><title>7&#45;&gt;9</title>
<path fill="none" stroke="black" d="M1041.17,-240.805C1144.33,-262.632 1776.74,-405.291 1907.44,-436.129"/>
<polygon fill="black" stroke="black" points="1906.72,-439.553 1917.25,-438.459 1908.33,-432.743 1906.72,-439.553"/>
</g>
<!-- 7&#45;&gt;8 -->
<g id="edge55" class="edge"><title>7&#45;&gt;8</title>
<path fill="none" stroke="black" d="M1036.7,-248.261C1052.94,-270.325 1083.8,-322.743 1098.92,-353.131"/>
<polygon fill="black" stroke="black" points="1095.93,-354.999 1103.39,-362.517 1102.25,-351.984 1095.93,-354.999"/>
</g>
<!-- 7&#45;&gt;15 -->
<g id="edge72" class="edge"><title>7&#45;&gt;15</title>
<path fill="none" stroke="black" d="M1022.88,-251.368C1010.52,-275.203 980,-327.133 980,-376 980,-514 980,-514 980,-514 980,-609.373 1327.03,-647.766 1429.79,-657.416"/>
<polygon fill="black" stroke="black" points="1429.47,-660.902 1439.75,-658.334 1430.12,-653.932 1429.47,-660.902"/>
</g>
<!-- 7&#45;&gt;13 -->
<g id="edge151" class="edge"><title>7&#45;&gt;13</title>
<path fill="none" stroke="black" d="M1012.36,-238.528C962.096,-240.529 800.128,-249.62 768,-288 673.318,-401.106 730.167,-541.866 863,-606 912.85,-630.069 1761.41,-714.012 1928.59,-730.992"/>
<polygon fill="black" stroke="black" points="1928.72,-734.522 1939.02,-732.054 1929.43,-727.558 1928.72,-734.522"/>
</g>
<!-- 12&#45;&gt;5 -->
<g id="edge166" class="edge"><title>12&#45;&gt;5</title>
<path fill="none" stroke="black" d="M1765.22,-316.327C1733.98,-332.563 1661.76,-368.884 1598,-392 1541.88,-412.349 1473.51,-428.841 1438.01,-436.812"/>
<polygon fill="black" stroke="black" points="1437.1,-433.428 1428.09,-439.007 1438.61,-440.263 1437.1,-433.428"/>
</g>
<!-- 12&#45;&gt;6 -->
<g id="edge21" class="edge"><title>12&#45;&gt;6</title>
<path fill="none" stroke="black" d="M1799.25,-309.495C1849.88,-314.987 1991.26,-338.204 2064,-420 2141.98,-507.691 2174.68,-582.084 2110,-680 2079.72,-725.836 2062.29,-734.326 2011,-754 1911.65,-792.109 1571.12,-801.722 1476.45,-803.604"/>
<polygon fill="black" stroke="black" points="1476.32,-800.106 1466.39,-803.793 1476.45,-807.105 1476.32,-800.106"/>
</g>
<!-- 12&#45;&gt;14 -->
<g id="edge136" class="edge"><title>12&#45;&gt;14</title>
<path fill="none" stroke="black" d="M1768.5,-293.001C1745.52,-263.232 1695.75,-189.494 1636,-148 1534.29,-77.3669 1388.77,-40.2107 1328.5,-26.4082"/>
<polygon fill="black" stroke="black" points="1329.12,-22.96 1318.59,-24.1724 1327.58,-29.7883 1329.12,-22.96"/>
</g>
<!-- 12&#45;&gt;17 -->
<g id="edge24" class="edge"><title>12&#45;&gt;17</title>
<path fill="none" stroke="black" d="M1777.4,-325.379C1765.36,-354.812 1732.29,-416.132 1701,-466 1695.11,-475.394 1688.11,-485.543 1681.38,-493.913"/>
<polygon fill="black" stroke="black" points="1678.64,-491.729 1674.78,-501.594 1683.95,-496.291 1678.64,-491.729"/>
</g>
<!-- 12&#45;&gt;11 -->
<g id="edge37" class="edge"><title>12&#45;&gt;11</title>
<path fill="none" stroke="black" d="M1764.71,-298.799C1747.54,-288.728 1721.26,-269.684 1700,-252 1647.52,-208.357 1647.15,-180.262 1587,-148 1526.58,-115.594 1446.43,-102.282 1404.28,-97.0868"/>
<polygon fill="black" stroke="black" points="1404.52,-93.5903 1394.18,-95.9073 1403.71,-100.543 1404.52,-93.5903"/>
</g>
<!-- 12&#45;&gt;10 -->
<g id="edge179" class="edge"><title>12&#45;&gt;10</title>
<path fill="none" stroke="black" d="M1792.32,-292.225C1804.73,-281.689 1824.09,-266.543 1840,-252 1863.72,-230.321 1888.95,-203.034 1906.77,-185.551"/>
<polygon fill="black" stroke="black" points="1909.59,-187.7 1914.41,-178.264 1904.76,-182.636 1909.59,-187.7"/>
</g>
<!-- 12&#45;&gt;7 -->
<g id="edge86" class="edge"><title>12&#45;&gt;7</title>
<path fill="none" stroke="black" d="M1762.76,-304.548C1661.19,-295.924 1167.66,-251.432 1051.46,-240.452"/>
<polygon fill="black" stroke="black" points="1051.7,-236.959 1041.42,-239.496 1051.04,-243.928 1051.7,-236.959"/>
</g>
<!-- 12&#45;&gt;12 -->
<g id="edge6" class="edge"><title>12&#45;&gt;12</title>
<path fill="none" stroke="black" d="M1795.42,-318.574C1806.17,-322.616 1817,-318.758 1817,-307 1817,-299.1 1812.11,-294.767 1805.64,-293.999"/>
<polygon fill="black" stroke="black" points="1804.84,-290.577 1795.42,-295.426 1805.8,-297.51 1804.84,-290.577"/>
</g>
<!-- 12&#45;&gt;9 -->
<g id="edge120" class="edge"><title>12&#45;&gt;9</title>
<path fill="none" stroke="black" d="M1798.91,-310.627C1826.32,-316.129 1877.26,-331.009 1907,-362 1921.99,-377.62 1930.56,-401.001 1933.58,-418.458"/>
<polygon fill="black" stroke="black" points="1930.11,-418.917 1934.76,-428.44 1937.07,-418.1 1930.11,-418.917"/>
</g>
<!-- 12&#45;&gt;8 -->
<g id="edge57" class="edge"><title>12&#45;&gt;8</title>
<path fill="none" stroke="black" d="M1762.77,-310.096C1668.58,-320.163 1239.15,-363.49 1131.46,-373.795"/>
<polygon fill="black" stroke="black" points="1130.89,-370.333 1121.26,-374.762 1131.55,-377.302 1130.89,-370.333"/>
</g>
<!-- 12&#45;&gt;15 -->
<g id="edge195" class="edge"><title>12&#45;&gt;15</title>
<path fill="none" stroke="black" d="M1784.79,-325.083C1786.71,-366.674 1774.19,-474.021 1714,-532 1677.86,-566.81 1652.12,-546.042 1607,-568 1560.75,-590.511 1511.58,-625.828 1482.64,-645.513"/>
<polygon fill="black" stroke="black" points="1480.34,-642.843 1473.98,-651.319 1484.24,-648.656 1480.34,-642.843"/>
</g>
<!-- 12&#45;&gt;13 -->
<g id="edge74" class="edge"><title>12&#45;&gt;13</title>
<path fill="none" stroke="black" d="M1798.91,-310.454C1830.28,-316.055 1894.67,-331.697 1940,-362 2036.6,-426.579 2071.92,-455.498 2101,-568 2113.84,-617.677 2107.32,-641.853 2073,-680 2060.75,-693.621 2014.72,-714.054 1984.26,-725.482"/>
<polygon fill="black" stroke="black" points="1982.8,-722.288 1974.59,-728.99 1985.19,-728.868 1982.8,-722.288"/>
</g>
<!-- 9&#45;&gt;5 -->
<g id="edge204" class="edge"><title>9&#45;&gt;5</title>
<path fill="none" stroke="black" d="M1916.28,-443C1757.07,-443 1597.86,-443 1438.64,-443"/>
<polygon fill="black" stroke="black" points="1438.64,-439.5 1428.64,-443 1438.64,-446.5 1438.64,-439.5"/>
</g>
<!-- 9&#45;&gt;16 -->
<g id="edge34" class="edge"><title>9&#45;&gt;16</title>
<path fill="none" stroke="black" d="M1940.6,-454.796C1965.06,-482.428 2028.16,-554.486 2033,-568 2038.7,-583.898 2042.49,-592.03 2033,-606 1960.46,-712.771 1618.9,-791.508 1493,-820 1342.54,-854.05 850.88,-869.756 726.694,-873.238"/>
<polygon fill="black" stroke="black" points="726.373,-869.745 716.473,-873.52 726.566,-876.742 726.373,-869.745"/>
</g>
<!-- 9&#45;&gt;6 -->
<g id="edge143" class="edge"><title>9&#45;&gt;6</title>
<path fill="none" stroke="black" d="M1920.44,-453.731C1859.42,-503.868 1554.79,-732.913 1472.43,-790.72"/>
<polygon fill="black" stroke="black" points="1470.35,-787.904 1464.13,-796.481 1474.34,-793.655 1470.35,-787.904"/>
</g>
<!-- 9&#45;&gt;14 -->
<g id="edge28" class="edge"><title>9&#45;&gt;14</title>
<path fill="none" stroke="black" d="M1944.88,-437.696C2011.14,-418.523 2286.12,-336.756 2207,-222 2102,-69.7095 1997.98,-116.698 1818,-74 1635.01,-30.5898 1408.05,-22.076 1329.29,-20.4068"/>
<polygon fill="black" stroke="black" points="1329.24,-16.9054 1319.18,-20.2138 1329.11,-23.9042 1329.24,-16.9054"/>
</g>
<!-- 9&#45;&gt;11 -->
<g id="edge128" class="edge"><title>9&#45;&gt;11</title>
<path fill="none" stroke="black" d="M1917.88,-436.555C1886.4,-420.549 1807.02,-371.889 1745,-326 1695.27,-289.21 1585.11,-177.978 1531,-148 1489.07,-124.767 1435.53,-109.488 1403.44,-101.292"/>
<polygon fill="black" stroke="black" points="1403.97,-97.8186 1393.42,-98.7825 1402.27,-104.609 1403.97,-97.8186"/>
</g>
<!-- 9&#45;&gt;10 -->
<g id="edge188" class="edge"><title>9&#45;&gt;10</title>
<path fill="none" stroke="black" d="M1929.06,-428.037C1930.39,-393.148 1943.87,-299.406 1934,-222 1932.87,-213.121 1930.73,-203.615 1928.88,-195.091"/>
<polygon fill="black" stroke="black" points="1932.31,-194.377 1926.86,-185.291 1925.45,-195.792 1932.31,-194.377"/>
</g>
<!-- 9&#45;&gt;7 -->
<g id="edge82" class="edge"><title>9&#45;&gt;7</title>
<path fill="none" stroke="black" d="M1916.82,-439.194C1813.65,-417.363 1181.31,-274.721 1050.57,-243.875"/>
<polygon fill="black" stroke="black" points="1051.3,-240.45 1040.76,-241.544 1049.68,-247.26 1051.3,-240.45"/>
</g>
<!-- 9&#45;&gt;12 -->
<g id="edge157" class="edge"><title>9&#45;&gt;12</title>
<path fill="none" stroke="black" d="M1923.19,-430.476C1916.53,-413.488 1907.83,-381.621 1889,-362 1866.5,-338.555 1831.87,-324.33 1807.76,-316.411"/>
<polygon fill="black" stroke="black" points="1808.72,-313.046 1798.13,-313.395 1806.63,-319.726 1808.72,-313.046"/>
</g>
<!-- 9&#45;&gt;9 -->
<g id="edge48" class="edge"><title>9&#45;&gt;9</title>
<path fill="none" stroke="black" d="M1941.82,-453.006C1951.98,-458.195 1963,-454.859 1963,-443 1963,-435.032 1958.03,-430.912 1951.68,-430.639"/>
<polygon fill="black" stroke="black" points="1950.73,-427.267 1941.82,-432.994 1952.36,-434.075 1950.73,-427.267"/>
</g>
<!-- 9&#45;&gt;8 -->
<g id="edge112" class="edge"><title>9&#45;&gt;8</title>
<path fill="none" stroke="black" d="M1916.55,-441.02C1818.78,-433.914 1256.54,-390.266 1131.55,-380.11"/>
<polygon fill="black" stroke="black" points="1131.7,-376.611 1121.45,-379.284 1131.13,-383.588 1131.7,-376.611"/>
</g>
<!-- 9&#45;&gt;15 -->
<g id="edge174" class="edge"><title>9&#45;&gt;15</title>
<path fill="none" stroke="black" d="M1919.04,-451.81C1899.76,-461.246 1862.27,-477.87 1831,-494 1800.92,-509.517 1795.02,-516.364 1765,-532 1696.23,-567.822 1678.33,-575.584 1607,-606 1565.41,-623.733 1515.88,-642.239 1485.47,-652.321"/>
<polygon fill="black" stroke="black" points="1484,-649.117 1475.56,-655.52 1486.15,-655.779 1484,-649.117"/>
</g>
<!-- 9&#45;&gt;13 -->
<g id="edge96" class="edge"><title>9&#45;&gt;13</title>
<path fill="none" stroke="black" d="M1944.69,-448.72C1976.32,-462.531 2051.31,-505.85 2075,-568 2098.92,-630.747 2023.35,-694.104 1981.87,-720.822"/>
<polygon fill="black" stroke="black" points="1979.76,-718.006 1973.1,-726.239 1983.44,-723.961 1979.76,-718.006"/>
</g>
<!-- 9&#45;&gt;18 -->
<g id="edge117" class="edge"><title>9&#45;&gt;18</title>
<path fill="none" stroke="black" d="M1936.29,-457.172C1945.69,-480.585 1965.45,-529.835 1977.64,-560.201"/>
<polygon fill="black" stroke="black" points="1974.49,-561.734 1981.46,-569.711 1980.98,-559.127 1974.49,-561.734"/>
</g>
<!-- 8&#45;&gt;5 -->
<g id="edge12" class="edge"><title>8&#45;&gt;5</title>
<path fill="none" stroke="black" d="M1121.37,-380.622C1133.21,-383.636 1149.11,-388.604 1163,-392 1245.71,-412.217 1344.84,-429.354 1389.93,-437.284"/>
<polygon fill="black" stroke="black" points="1389.48,-440.759 1399.94,-439.055 1390.7,-433.866 1389.48,-440.759"/>
</g>
<!-- 8&#45;&gt;16 -->
<g id="edge130" class="edge"><title>8&#45;&gt;16</title>
<path fill="none" stroke="black" d="M1092.46,-379.396C976.401,-390.227 208,-465.634 208,-660 208,-736 208,-736 208,-736 208,-833.337 565.173,-864.75 669.706,-872.116"/>
<polygon fill="black" stroke="black" points="669.612,-875.617 679.828,-872.809 670.09,-868.634 669.612,-875.617"/>
</g>
<!-- 8&#45;&gt;6 -->
<g id="edge80" class="edge"><title>8&#45;&gt;6</title>
<path fill="none" stroke="black" d="M1112.96,-390.751C1116.01,-408.066 1117.26,-439.855 1124,-466 1159.83,-604.964 1157.6,-664.783 1270,-754 1317.16,-791.433 1389.53,-801.036 1427.4,-803.378"/>
<polygon fill="black" stroke="black" points="1427.39,-806.881 1437.55,-803.878 1427.73,-799.89 1427.39,-806.881"/>
</g>
<!-- 8&#45;&gt;14 -->
<g id="edge171" class="edge"><title>8&#45;&gt;14</title>
<path fill="none" stroke="black" d="M1092.43,-376C997.428,-375.678 473,-368.289 473,-238 473,-238 473,-238 473,-166 473,-83.4783 1125.76,-31.936 1272.17,-21.83"/>
<polygon fill="black" stroke="black" points="1272.82,-25.294 1282.56,-21.1247 1272.34,-18.31 1272.82,-25.294"/>
</g>
<!-- 8&#45;&gt;17 -->
<g id="edge190" class="edge"><title>8&#45;&gt;17</title>
<path fill="none" stroke="black" d="M1121.71,-378.22C1170.58,-379.273 1331.62,-385.33 1459,-420 1525.97,-438.226 1598.62,-476.611 1635.51,-497.579"/>
<polygon fill="black" stroke="black" points="1634.1,-500.806 1644.52,-502.756 1637.59,-494.737 1634.1,-500.806"/>
</g>
<!-- 8&#45;&gt;11 -->
<g id="edge185" class="edge"><title>8&#45;&gt;11</title>
<path fill="none" stroke="black" d="M1115,-364.596C1151.4,-321.284 1298.61,-166.714 1354.53,-112.752"/>
<polygon fill="black" stroke="black" points="1357.27,-114.978 1362.1,-105.546 1352.44,-109.909 1357.27,-114.978"/>
</g>
<!-- 8&#45;&gt;10 -->
<g id="edge125" class="edge"><title>8&#45;&gt;10</title>
<path fill="none" stroke="black" d="M1120.44,-370.9C1181.78,-350.496 1438.58,-273.363 1653,-222 1742.55,-200.549 1850.34,-180.49 1900.78,-172.115"/>
<polygon fill="black" stroke="black" points="1901.61,-175.524 1910.92,-170.464 1900.49,-168.615 1901.61,-175.524"/>
</g>
<!-- 8&#45;&gt;7 -->
<g id="edge141" class="edge"><title>8&#45;&gt;7</title>
<path fill="none" stroke="black" d="M1097.21,-365.628C1081,-343.552 1050.32,-291.458 1035.19,-261.088"/>
<polygon fill="black" stroke="black" points="1038.17,-259.208 1030.7,-251.697 1031.86,-262.228 1038.17,-259.208"/>
</g>
<!-- 8&#45;&gt;12 -->
<g id="edge45" class="edge"><title>8&#45;&gt;12</title>
<path fill="none" stroke="black" d="M1121.37,-374.319C1206.03,-365.195 1637.74,-321.623 1752.85,-310.559"/>
<polygon fill="black" stroke="black" points="1753.36,-314.027 1762.98,-309.592 1752.7,-307.058 1753.36,-314.027"/>
</g>
<!-- 8&#45;&gt;9 -->
<g id="edge64" class="edge"><title>8&#45;&gt;9</title>
<path fill="none" stroke="black" d="M1121.49,-378.983C1219.4,-386.099 1781.73,-429.755 1906.54,-439.897"/>
<polygon fill="black" stroke="black" points="1906.37,-443.394 1916.62,-440.722 1906.94,-436.418 1906.37,-443.394"/>
</g>
<!-- 8&#45;&gt;8 -->
<g id="edge202" class="edge"><title>8&#45;&gt;8</title>
<path fill="none" stroke="black" d="M1117.82,-387.006C1127.98,-392.195 1139,-388.859 1139,-377 1139,-369.032 1134.03,-364.912 1127.68,-364.639"/>
<polygon fill="black" stroke="black" points="1126.73,-361.267 1117.82,-366.994 1128.36,-368.075 1126.73,-361.267"/>
</g>
<!-- 8&#45;&gt;15 -->
<g id="edge25" class="edge"><title>8&#45;&gt;15</title>
<path fill="none" stroke="black" d="M1113.63,-390.202C1128.31,-428.574 1162.99,-547.695 1239,-606 1296.4,-650.028 1384.08,-658.945 1429.25,-660.285"/>
<polygon fill="black" stroke="black" points="1429.45,-663.789 1439.52,-660.478 1429.58,-656.791 1429.45,-663.789"/>
</g>
<!-- 8&#45;&gt;13 -->
<g id="edge109" class="edge"><title>8&#45;&gt;13</title>
<path fill="none" stroke="black" d="M1120.56,-382.987C1192.83,-412.376 1536.8,-565.597 1822,-680 1859.79,-695.161 1903.67,-711.424 1931.06,-722.094"/>
<polygon fill="black" stroke="black" points="1930.11,-725.484 1940.7,-725.896 1932.68,-718.972 1930.11,-725.484"/>
</g>
<!-- 15&#45;&gt;5 -->
<g id="edge169" class="edge"><title>15&#45;&gt;5</title>
<path fill="none" stroke="black" d="M1450.97,-643.739C1446.65,-633.164 1441.33,-618.977 1438,-606 1425.69,-557.958 1419.01,-500.172 1416.01,-468.226"/>
<polygon fill="black" stroke="black" points="1419.47,-467.709 1415.09,-458.063 1412.5,-468.336 1419.47,-467.709"/>
</g>
<!-- 15&#45;&gt;16 -->
<g id="edge100" class="edge"><title>15&#45;&gt;16</title>
<path fill="none" stroke="black" d="M1440.73,-666.819C1341.72,-694.437 846.475,-832.583 724.955,-866.481"/>
<polygon fill="black" stroke="black" points="723.993,-863.115 715.302,-869.174 725.874,-869.858 723.993,-863.115"/>
</g>
<!-- 15&#45;&gt;6 -->
<g id="edge154" class="edge"><title>15&#45;&gt;6</title>
<path fill="none" stroke="black" d="M1461.85,-678.987C1463.48,-704.418 1461.64,-752.441 1458.1,-780.993"/>
<polygon fill="black" stroke="black" points="1454.64,-780.497 1456.67,-790.896 1461.57,-781.501 1454.64,-780.497"/>
</g>
<!-- 15&#45;&gt;14 -->
<g id="edge39" class="edge"><title>15&#45;&gt;14</title>
<path fill="none" stroke="black" d="M1439.4,-660.091C1370.77,-660.109 1127.91,-656.708 937,-606 845.741,-581.761 171,-332.424 171,-238 171,-238 171,-238 171,-166 171,-80.0899 258.35,-97.4429 341,-74 522.039,-22.6499 1132.8,-19.923 1272.47,-19.9503"/>
<polygon fill="black" stroke="black" points="1272.76,-23.4504 1282.76,-19.9576 1272.76,-16.4504 1272.76,-23.4504"/>
</g>
<!-- 15&#45;&gt;11 -->
<g id="edge22" class="edge"><title>15&#45;&gt;11</title>
<path fill="none" stroke="black" d="M1439.82,-658.41C1357.91,-650.561 1028.4,-615.931 1009,-606 858.11,-528.739 811.811,-483.849 750,-326 676.714,-138.846 850.376,-220.171 1091,-148 1182.69,-120.5 1295.82,-103.45 1347.81,-96.9724"/>
<polygon fill="black" stroke="black" points="1348.44,-100.422 1357.95,-95.7508 1347.6,-93.4724 1348.44,-100.422"/>
</g>
<!-- 15&#45;&gt;10 -->
<g id="edge88" class="edge"><title>15&#45;&gt;10</title>
<path fill="none" stroke="black" d="M1475.99,-656.852C1588.13,-637.999 2184,-535.517 2184,-378 2184,-378 2184,-378 2184,-306 2184,-203.121 2024.59,-176.801 1957.74,-170.179"/>
<polygon fill="black" stroke="black" points="1957.75,-166.665 1947.48,-169.246 1957.12,-173.637 1957.75,-166.665"/>
</g>
<!-- 15&#45;&gt;7 -->
<g id="edge92" class="edge"><title>15&#45;&gt;7</title>
<path fill="none" stroke="black" d="M1439.75,-658.799C1349.99,-651.983 962,-614.844 962,-514 962,-514 962,-514 962,-376 962,-329.28 989.9,-279.76 1009.48,-254.67"/>
<polygon fill="black" stroke="black" points="1012.28,-256.779 1016,-246.859 1006.9,-252.294 1012.28,-256.779"/>
</g>
<!-- 15&#45;&gt;12 -->
<g id="edge83" class="edge"><title>15&#45;&gt;12</title>
<path fill="none" stroke="black" d="M1469.37,-646.547C1491.84,-627.087 1541.93,-590.911 1589,-568 1634.12,-546.042 1659.86,-566.81 1696,-532 1751.97,-478.079 1766.72,-381.458 1774.25,-334.742"/>
<polygon fill="black" stroke="black" points="1777.72,-335.214 1775.89,-324.778 1770.81,-334.075 1777.72,-335.214"/>
</g>
<!-- 15&#45;&gt;9 -->
<g id="edge105" class="edge"><title>15&#45;&gt;9</title>
<path fill="none" stroke="black" d="M1474.18,-651.873C1499.32,-641.697 1548.02,-623.473 1589,-606 1660.33,-575.584 1678.23,-567.822 1747,-532 1777.02,-516.364 1782.92,-509.517 1813,-494 1844.89,-477.548 1883.26,-460.582 1907.66,-451.254"/>
<polygon fill="black" stroke="black" points="1909.03,-454.48 1917.21,-447.747 1906.62,-447.91 1909.03,-454.48"/>
</g>
<!-- 15&#45;&gt;8 -->
<g id="edge167" class="edge"><title>15&#45;&gt;8</title>
<path fill="none" stroke="black" d="M1439.55,-660.451C1396.17,-660.942 1287.97,-657.372 1221,-606 1151.62,-552.783 1116.68,-448.9 1107.83,-401.997"/>
<polygon fill="black" stroke="black" points="1111.24,-401.187 1106.2,-391.871 1104.33,-402.3 1111.24,-401.187"/>
</g>
<!-- 15&#45;&gt;15 -->
<g id="edge180" class="edge"><title>15&#45;&gt;15</title>
<path fill="none" stroke="black" d="M1472.04,-673.083C1482.91,-677.602 1494,-673.574 1494,-661 1494,-652.355 1488.76,-647.75 1481.95,-647.184"/>
<polygon fill="black" stroke="black" points="1481.29,-643.747 1472.04,-648.917 1482.5,-650.642 1481.29,-643.747"/>
</g>
<!-- 15&#45;&gt;13 -->
<g id="edge59" class="edge"><title>15&#45;&gt;13</title>
<path fill="none" stroke="black" d="M1475.99,-664.228C1550.99,-674.291 1837.6,-715.598 1928.96,-729.449"/>
<polygon fill="black" stroke="black" points="1928.69,-732.949 1939.11,-730.998 1929.75,-726.029 1928.69,-732.949"/>
</g>
<!-- 15&#45;&gt;18 -->
<g id="edge29" class="edge"><title>15&#45;&gt;18</title>
<path fill="none" stroke="black" d="M1476.13,-657.929C1534.69,-651.187 1723.99,-628.974 1880,-606 1907.31,-601.978 1938.4,-596.726 1960.18,-592.934"/>
<polygon fill="black" stroke="black" points="1960.82,-596.375 1970.07,-591.202 1959.62,-589.48 1960.82,-596.375"/>
</g>
<!-- 13&#45;&gt;5 -->
<g id="edge153" class="edge"><title>13&#45;&gt;5</title>
<path fill="none" stroke="black" d="M1942.17,-724.1C1894.35,-692.281 1744.32,-593.238 1692,-568 1648.7,-547.113 1630.67,-557.632 1590,-532 1569.79,-519.265 1572.57,-506.14 1552,-494 1513.36,-471.192 1496.56,-482.925 1455,-466 1448.42,-463.321 1441.52,-459.886 1435.3,-456.531"/>
<polygon fill="black" stroke="black" points="1436.66,-453.281 1426.23,-451.445 1433.24,-459.388 1436.66,-453.281"/>
</g>
<!-- 13&#45;&gt;16 -->
<g id="edge76" class="edge"><title>13&#45;&gt;16</title>
<path fill="none" stroke="black" d="M1940.16,-742.157C1895.24,-758.275 1768.48,-801.72 1659,-820 1472.65,-851.115 865.708,-869.394 726.592,-873.237"/>
<polygon fill="black" stroke="black" points="726.238,-869.745 716.337,-873.517 726.429,-876.742 726.238,-869.745"/>
</g>
<!-- 13&#45;&gt;6 -->
<g id="edge90" class="edge"><title>13&#45;&gt;6</title>
<path fill="none" stroke="black" d="M1939.06,-738.807C1862.42,-749.815 1564.1,-789.987 1476.31,-801.121"/>
<polygon fill="black" stroke="black" points="1475.72,-797.668 1466.24,-802.386 1476.59,-804.613 1475.72,-797.668"/>
</g>
<!-- 13&#45;&gt;14 -->
<g id="edge198" class="edge"><title>13&#45;&gt;14</title>
<path fill="none" stroke="black" d="M1975.4,-733.006C2104.93,-725.24 2872,-662.673 2872,-238 2872,-238 2872,-238 2872,-166 2872,-85.1085 1541.54,-29.7345 1329.34,-21.1618"/>
<polygon fill="black" stroke="black" points="1329.43,-17.6628 1319.3,-20.7572 1329.15,-24.6571 1329.43,-17.6628"/>
</g>
<!-- 13&#45;&gt;11 -->
<g id="edge181" class="edge"><title>13&#45;&gt;11</title>
<path fill="none" stroke="black" d="M1975.19,-731.777C2004.45,-727.501 2060.83,-715.164 2092,-680 2186.46,-573.449 2157.09,-459.164 2053,-362 1900.72,-219.854 1832.66,-216.709 1636,-148 1554.06,-119.372 1452.48,-104.139 1403.98,-97.7369"/>
<polygon fill="black" stroke="black" points="1404.28,-94.2472 1393.92,-96.4339 1403.39,-101.189 1404.28,-94.2472"/>
</g>
<!-- 13&#45;&gt;10 -->
<g id="edge40" class="edge"><title>13&#45;&gt;10</title>
<path fill="none" stroke="black" d="M1975.08,-731.639C2032.75,-724.742 2209.89,-703.611 2263,-680 2404.44,-617.119 2480.7,-497.009 2405,-362 2311.86,-195.894 2045.19,-171.76 1957.31,-168.451"/>
<polygon fill="black" stroke="black" points="1957.37,-164.951 1947.27,-168.136 1957.16,-171.948 1957.37,-164.951"/>
</g>
<!-- 13&#45;&gt;7 -->
<g id="edge23" class="edge"><title>13&#45;&gt;7</title>
<path fill="none" stroke="black" d="M1938.67,-732.4C1797.98,-719.391 896.43,-630.831 845,-606 712.167,-541.866 655.318,-401.106 750,-288 781.741,-250.082 940.215,-240.752 1002.28,-238.603"/>
<polygon fill="black" stroke="black" points="1002.49,-242.099 1012.37,-238.29 1002.27,-235.102 1002.49,-242.099"/>
</g>
<!-- 13&#45;&gt;12 -->
<g id="edge122" class="edge"><title>13&#45;&gt;12</title>
<path fill="none" stroke="black" d="M1972.58,-725.268C1997.29,-713.8 2042.82,-693.536 2055,-680 2089.32,-641.853 2095.84,-617.677 2083,-568 2053.92,-455.498 2018.6,-426.579 1922,-362 1885.98,-337.921 1837.92,-323.098 1808.08,-315.215"/>
<polygon fill="black" stroke="black" points="1808.89,-311.809 1798.33,-312.713 1807.14,-318.589 1808.89,-311.809"/>
</g>
<!-- 13&#45;&gt;9 -->
<g id="edge106" class="edge"><title>13&#45;&gt;9</title>
<path fill="none" stroke="black" d="M1970.16,-722.121C2002.81,-696.206 2081.31,-631.788 2057,-568 2037.18,-515.988 1981.42,-477.165 1950.96,-457.788"/>
<polygon fill="black" stroke="black" points="1952.72,-454.758 1942.39,-452.406 1948.99,-460.687 1952.72,-454.758"/>
</g>
<!-- 13&#45;&gt;8 -->
<g id="edge168" class="edge"><title>13&#45;&gt;8</title>
<path fill="none" stroke="black" d="M1939.58,-729.565C1910.58,-720.569 1852.32,-699.384 1804,-680 1535.3,-572.212 1214.41,-429.966 1128.75,-389.296"/>
<polygon fill="black" stroke="black" points="1130.02,-386.022 1119.49,-384.849 1126.99,-392.333 1130.02,-386.022"/>
</g>
<!-- 13&#45;&gt;15 -->
<g id="edge137" class="edge"><title>13&#45;&gt;15</title>
<path fill="none" stroke="black" d="M1938.97,-731.766C1863.92,-721.696 1577.48,-680.412 1486.08,-666.558"/>
<polygon fill="black" stroke="black" points="1486.34,-663.057 1475.93,-665.008 1485.29,-669.977 1486.34,-663.057"/>
</g>
<!-- 13&#45;&gt;13 -->
<g id="edge60" class="edge"><title>13&#45;&gt;13</title>
<path fill="none" stroke="black" d="M1971.42,-746.574C1982.17,-750.616 1993,-746.758 1993,-735 1993,-727.1 1988.11,-722.767 1981.64,-721.999"/>
<polygon fill="black" stroke="black" points="1980.84,-718.577 1971.42,-723.426 1981.8,-725.51 1980.84,-718.577"/>
</g>
<!-- 18&#45;&gt;6 -->
<g id="edge91" class="edge"><title>18&#45;&gt;6</title>
<path fill="none" stroke="black" d="M1971.47,-594.944C1916.47,-618.013 1734.56,-694.025 1583,-754 1545.23,-768.945 1501.05,-785.649 1474.85,-795.47"/>
<polygon fill="black" stroke="black" points="1473.57,-792.213 1465.43,-798.997 1476.02,-798.769 1473.57,-792.213"/>
</g>
<!-- 18&#45;&gt;17 -->
<g id="edge138" class="edge"><title>18&#45;&gt;17</title>
<path fill="none" stroke="black" d="M1971.22,-579.783C1963.68,-575.839 1955.15,-570.943 1947,-568 1855.72,-535.049 1741.03,-521.484 1688.43,-516.522"/>
<polygon fill="black" stroke="black" points="1688.45,-513.01 1678.17,-515.59 1687.82,-519.981 1688.45,-513.01"/>
</g>
<!-- 18&#45;&gt;13 -->
<g id="edge182" class="edge"><title>18&#45;&gt;13</title>
<path fill="none" stroke="black" d="M1984.31,-605.378C1978.98,-630.498 1969.06,-677.19 1962.76,-706.872"/>
<polygon fill="black" stroke="black" points="1959.27,-706.457 1960.62,-716.966 1966.12,-707.911 1959.27,-706.457"/>
</g>
<!-- 18&#45;&gt;18 -->
<g id="edge156" class="edge"><title>18&#45;&gt;18</title>
<path fill="none" stroke="black" d="M2002.04,-599.083C2012.91,-603.602 2024,-599.574 2024,-587 2024,-578.355 2018.76,-573.75 2011.95,-573.184"/>
<polygon fill="black" stroke="black" points="2011.29,-569.747 2002.04,-574.917 2012.5,-576.642 2011.29,-569.747"/>
</g>
</g>
</svg>
