<?xml version="1.0" encoding="UTF-8" standalone="no"?>
<!DOCTYPE svg PUBLIC "-//W3C//DTD SVG 1.1//EN"
 "http://www.w3.org/Graphics/SVG/1.1/DTD/svg11.dtd">
<!-- Generated by graphviz version 2.36.0 (20140111.2315)
 -->
<!-- Title: G Pages: 1 -->
<svg width="1111pt" height="454pt"
 viewBox="0.00 0.00 1111.00 454.00" xmlns="http://www.w3.org/2000/svg" xmlns:xlink="http://www.w3.org/1999/xlink">
<g id="graph0" class="graph" transform="scale(1 1) rotate(0) translate(4 450)">
<title>G</title>
<polygon fill="white" stroke="none" points="-4,4 -4,-450 1107,-450 1107,4 -4,4"/>
<g id="clust1" class="cluster"><title>cluster_inputs</title>
<polygon fill="none" stroke="white" points="532,-404 532,-438 687,-438 687,-404 532,-404"/>
</g>
<g id="clust2" class="cluster"><title>cluster_outputs</title>
<polygon fill="none" stroke="white" points="375,-206 375,-252 439,-252 439,-206 375,-206"/>
</g>
<!-- 1 -->
<g id="node1" class="node"><title>1</title>
<polygon fill="lightgrey" stroke="black" points="561.25,-430 540.75,-430 540.75,-412 561.25,-412 561.25,-430"/>
<text text-anchor="middle" x="551" y="-418.8" font-family="Times,serif" font-size="9.00">1</text>
</g>
<!-- 5 -->
<g id="node5" class="node"><title>5</title>
<ellipse fill="lightblue" stroke="lightblue" cx="398" cy="-229" rx="14.2796" ry="14.7"/>
<text text-anchor="middle" x="398" y="-226.8" font-family="Times,serif" font-size="9.00">5</text>
</g>
<!-- 1&#45;&gt;5 -->
<g id="edge31" class="edge"><title>1&#45;&gt;5</title>
<path fill="none" stroke="black" d="M540.584,-419.443C486.167,-416.43 236.189,-401.274 214,-376 185.851,-343.937 188.086,-313.896 214,-280 233.41,-254.612 328.209,-239.078 373.636,-232.976"/>
<polygon fill="black" stroke="black" points="374.329,-236.415 383.796,-231.658 373.429,-229.473 374.329,-236.415"/>
</g>
<!-- 9 -->
<g id="node6" class="node"><title>9</title>
<ellipse fill="none" stroke="black" cx="610" cy="-361" rx="14.2796" ry="14.7"/>
<text text-anchor="middle" x="610" y="-358.8" font-family="Times,serif" font-size="9.00">9</text>
</g>
<!-- 1&#45;&gt;9 -->
<g id="edge51" class="edge"><title>1&#45;&gt;9</title>
<path fill="none" stroke="black" d="M559.204,-411.935C567.765,-403.519 581.449,-390.067 592.459,-379.244"/>
<polygon fill="black" stroke="black" points="595.213,-381.444 599.891,-371.938 590.306,-376.452 595.213,-381.444"/>
</g>
<!-- 7 -->
<g id="node7" class="node"><title>7</title>
<ellipse fill="none" stroke="black" cx="875" cy="-295" rx="14.2796" ry="14.7"/>
<text text-anchor="middle" x="875" y="-292.8" font-family="Times,serif" font-size="9.00">7</text>
</g>
<!-- 1&#45;&gt;7 -->
<g id="edge72" class="edge"><title>1&#45;&gt;7</title>
<path fill="none" stroke="black" d="M558.884,-411.869C562.085,-408.99 565.975,-405.978 570,-404 622.653,-378.122 643.313,-394.465 699,-376 756.743,-356.853 820.945,-324.716 853.516,-307.582"/>
<polygon fill="black" stroke="black" points="855.375,-310.557 862.566,-302.777 852.092,-304.375 855.375,-310.557"/>
</g>
<!-- 10 -->
<g id="node8" class="node"><title>10</title>
<ellipse fill="none" stroke="black" cx="582" cy="-19" rx="18.0791" ry="18.2703"/>
<text text-anchor="middle" x="582" y="-16.8" font-family="Times,serif" font-size="9.00">10</text>
</g>
<!-- 1&#45;&gt;10 -->
<g id="edge35" class="edge"><title>1&#45;&gt;10</title>
<path fill="none" stroke="black" d="M540.409,-419.996C478.551,-419.829 163.776,-416.95 78,-376 33.1863,-354.606 0,-345.659 0,-296 0,-296 0,-296 0,-162 0,-97.2879 55.9567,-98.134 116,-74 196.432,-41.6711 465.312,-25.7692 553.626,-21.3288"/>
<polygon fill="black" stroke="black" points="553.892,-24.8201 563.708,-20.8327 553.548,-17.8285 553.892,-24.8201"/>
</g>
<!-- 11 -->
<g id="node9" class="node"><title>11</title>
<ellipse fill="none" stroke="black" cx="541" cy="-93" rx="18.0791" ry="18.2703"/>
<text text-anchor="middle" x="541" y="-90.8" font-family="Times,serif" font-size="9.00">11</text>
</g>
<!-- 1&#45;&gt;11 -->
<g id="edge16" class="edge"><title>1&#45;&gt;11</title>
<path fill="none" stroke="black" d="M540.285,-419.785C466.617,-418.029 38,-403.204 38,-296 38,-296 38,-296 38,-228 38,-183.017 60.8882,-170.221 100,-148 171.068,-107.623 426.716,-97.0899 512.617,-94.6601"/>
<polygon fill="black" stroke="black" points="512.777,-98.1572 522.68,-94.3911 512.59,-91.1597 512.777,-98.1572"/>
</g>
<!-- 6 -->
<g id="node10" class="node"><title>6</title>
<ellipse fill="none" stroke="black" cx="640" cy="-163" rx="14.2796" ry="14.7"/>
<text text-anchor="middle" x="640" y="-160.8" font-family="Times,serif" font-size="9.00">6</text>
</g>
<!-- 1&#45;&gt;6 -->
<g id="edge12" class="edge"><title>1&#45;&gt;6</title>
<path fill="none" stroke="black" d="M551.751,-411.772C554.705,-382.34 567.272,-280.097 605,-206 609.519,-197.124 616.215,-188.468 622.543,-181.342"/>
<polygon fill="black" stroke="black" points="625.365,-183.449 629.65,-173.759 620.258,-178.662 625.365,-183.449"/>
</g>
<!-- 8 -->
<g id="node11" class="node"><title>8</title>
<ellipse fill="none" stroke="black" cx="710" cy="-229" rx="14.2796" ry="14.7"/>
<text text-anchor="middle" x="710" y="-226.8" font-family="Times,serif" font-size="9.00">8</text>
</g>
<!-- 1&#45;&gt;8 -->
<g id="edge70" class="edge"><title>1&#45;&gt;8</title>
<path fill="none" stroke="black" d="M559.39,-411.789C562.53,-409.036 566.25,-406.129 570,-404 603.124,-385.194 619.469,-397.37 651,-376 683.084,-354.255 694.032,-346.154 708,-310 714.875,-292.205 714.95,-270.483 713.542,-254.167"/>
<polygon fill="black" stroke="black" points="716.979,-253.402 712.396,-243.85 710.022,-254.175 716.979,-253.402"/>
</g>
<!-- 2 -->
<g id="node2" class="node"><title>2</title>
<polygon fill="lightgrey" stroke="black" points="600.25,-430 579.75,-430 579.75,-412 600.25,-412 600.25,-430"/>
<text text-anchor="middle" x="590" y="-418.8" font-family="Times,serif" font-size="9.00">2</text>
</g>
<!-- 2&#45;&gt;5 -->
<g id="edge15" class="edge"><title>2&#45;&gt;5</title>
<path fill="none" stroke="black" d="M582.134,-411.959C578.701,-408.944 574.447,-405.813 570,-404 454.194,-356.775 395.02,-443.913 290,-376 251.467,-351.082 225.322,-317.336 252,-280 279.689,-241.249 339.321,-232.206 373.184,-230.298"/>
<polygon fill="black" stroke="black" points="373.346,-233.794 383.2,-229.9 373.069,-226.8 373.346,-233.794"/>
</g>
<!-- 2&#45;&gt;9 -->
<g id="edge23" class="edge"><title>2&#45;&gt;9</title>
<path fill="none" stroke="black" d="M592.781,-411.935C595.203,-404.912 598.834,-394.382 602.138,-384.799"/>
<polygon fill="black" stroke="black" points="605.448,-385.937 605.399,-375.343 598.83,-383.656 605.448,-385.937"/>
</g>
<!-- 2&#45;&gt;7 -->
<g id="edge58" class="edge"><title>2&#45;&gt;7</title>
<path fill="none" stroke="black" d="M597.836,-411.769C601.031,-408.878 604.93,-405.884 609,-404 676.899,-372.572 706.711,-406.572 775,-376 808.381,-361.056 840.153,-332.285 858.6,-313.627"/>
<polygon fill="black" stroke="black" points="861.228,-315.945 865.656,-306.32 856.192,-311.082 861.228,-315.945"/>
</g>
<!-- 2&#45;&gt;10 -->
<g id="edge48" class="edge"><title>2&#45;&gt;10</title>
<path fill="none" stroke="black" d="M582.161,-411.89C578.733,-408.866 574.474,-405.745 570,-404 486.161,-371.292 243.589,-421.594 166,-376 100.28,-337.381 76,-306.227 76,-230 76,-230 76,-230 76,-162 76,-61.9904 447.053,-29.1344 553.669,-21.7579"/>
<polygon fill="black" stroke="black" points="553.949,-25.2471 563.692,-21.0864 553.481,-18.2628 553.949,-25.2471"/>
</g>
<!-- 2&#45;&gt;11 -->
<g id="edge66" class="edge"><title>2&#45;&gt;11</title>
<path fill="none" stroke="black" d="M582.145,-411.932C578.714,-408.914 574.457,-405.787 570,-404 438.309,-351.205 387.276,-418.783 252,-376 196.18,-358.346 167.242,-360.719 138,-310 51.1677,-159.394 407.825,-108.391 512.736,-96.7939"/>
<polygon fill="black" stroke="black" points="513.326,-100.251 522.898,-95.708 512.583,-93.2904 513.326,-100.251"/>
</g>
<!-- 2&#45;&gt;6 -->
<g id="edge41" class="edge"><title>2&#45;&gt;6</title>
<path fill="none" stroke="cornflowerblue" stroke-dasharray="1,5" d="M588.522,-411.743C586.296,-398.025 582.681,-369.699 586,-346 594.286,-286.84 617.908,-220.219 630.996,-186.358"/>
<polygon fill="cornflowerblue" stroke="cornflowerblue" points="634.295,-187.533 634.691,-176.945 627.779,-184.975 634.295,-187.533"/>
</g>
<!-- 2&#45;&gt;8 -->
<g id="edge7" class="edge"><title>2&#45;&gt;8</title>
<path fill="none" stroke="black" d="M598.353,-411.723C601.49,-408.965 605.217,-406.07 609,-404 645.748,-383.889 662.756,-397.006 699,-376 708.319,-370.599 765.697,-319.874 770,-310 775.326,-297.777 775.655,-292.075 770,-280 762.103,-263.139 745.415,-249.981 731.639,-241.404"/>
<polygon fill="black" stroke="black" points="733.115,-238.213 722.711,-236.209 729.594,-244.263 733.115,-238.213"/>
</g>
<!-- 3 -->
<g id="node3" class="node"><title>3</title>
<polygon fill="lightgrey" stroke="black" points="678.25,-430 657.75,-430 657.75,-412 678.25,-412 678.25,-430"/>
<text text-anchor="middle" x="668" y="-418.8" font-family="Times,serif" font-size="9.00">3</text>
</g>
<!-- 3&#45;&gt;5 -->
<g id="edge57" class="edge"><title>3&#45;&gt;5</title>
<path fill="none" stroke="black" d="M658.594,-411.675C655.363,-409.037 651.64,-406.229 648,-404 622.215,-388.21 613.553,-388.45 586,-376 521.106,-346.679 491.814,-358.85 440,-310 423.303,-294.258 411.974,-270.384 405.33,-252.812"/>
<polygon fill="black" stroke="black" points="408.598,-251.556 401.954,-243.303 402.001,-253.898 408.598,-251.556"/>
</g>
<!-- 3&#45;&gt;9 -->
<g id="edge50" class="edge"><title>3&#45;&gt;9</title>
<path fill="none" stroke="black" d="M659.935,-411.935C651.519,-403.519 638.067,-390.067 627.244,-379.244"/>
<polygon fill="black" stroke="black" points="629.484,-376.534 619.938,-371.938 624.534,-381.484 629.484,-376.534"/>
</g>
<!-- 3&#45;&gt;7 -->
<g id="edge14" class="edge"><title>3&#45;&gt;7</title>
<path fill="none" stroke="black" d="M678.262,-419.608C718.109,-417.852 861.703,-409.268 889,-376 902.508,-359.537 895.205,-334.655 886.944,-317.017"/>
<polygon fill="black" stroke="black" points="890.041,-315.385 882.383,-308.063 883.804,-318.562 890.041,-315.385"/>
</g>
<!-- 3&#45;&gt;10 -->
<g id="edge26" class="edge"><title>3&#45;&gt;10</title>
<path fill="none" stroke="black" d="M678.324,-419.365C744.198,-415.04 1103,-387.29 1103,-296 1103,-296 1103,-296 1103,-162 1103,-95.5039 1043.72,-98.7569 982,-74 850.777,-21.3606 677.927,-18.153 610.581,-19.1564"/>
<polygon fill="black" stroke="black" points="610.27,-15.6617 600.34,-19.3553 610.406,-22.6604 610.27,-15.6617"/>
</g>
<!-- 3&#45;&gt;11 -->
<g id="edge69" class="edge"><title>3&#45;&gt;11</title>
<path fill="none" stroke="black" d="M659.673,-411.801C656.3,-408.914 652.21,-405.914 648,-404 584.274,-375.026 556.322,-405.848 493,-376 423.067,-343.035 395.65,-325.278 371,-252 353.986,-201.422 387.335,-178.675 431,-148 457.537,-129.358 491.475,-113.77 514.59,-104.209"/>
<polygon fill="black" stroke="black" points="516.123,-107.364 524.081,-100.37 513.498,-100.875 516.123,-107.364"/>
</g>
<!-- 3&#45;&gt;6 -->
<g id="edge34" class="edge"><title>3&#45;&gt;6</title>
<path fill="none" stroke="cornflowerblue" stroke-dasharray="1,5" d="M678.36,-419.966C723.042,-419.579 898.512,-415.531 932,-376 959.579,-343.444 946.892,-319.984 932,-280 916.823,-239.252 905.736,-227.604 868,-206 801.666,-168.024 708.28,-163.278 664.481,-163.359"/>
<polygon fill="cornflowerblue" stroke="cornflowerblue" points="664.422,-159.859 654.46,-163.466 664.497,-166.859 664.422,-159.859"/>
</g>
<!-- 3&#45;&gt;8 -->
<g id="edge68" class="edge"><title>3&#45;&gt;8</title>
<path fill="none" stroke="black" d="M678.376,-419.649C720.082,-418.012 874.81,-409.724 907,-376 936.589,-345.001 942.489,-313.687 916,-280 893.635,-251.558 784.097,-237.31 734.492,-232.231"/>
<polygon fill="black" stroke="black" points="734.623,-228.727 724.329,-231.234 733.939,-235.694 734.623,-228.727"/>
</g>
<!-- 4 -->
<g id="node4" class="node"><title>4</title>
<polygon fill="lightgrey" stroke="black" points="639.25,-430 618.75,-430 618.75,-412 639.25,-412 639.25,-430"/>
<text text-anchor="middle" x="629" y="-418.8" font-family="Times,serif" font-size="9.00">4</text>
</g>
<!-- 4&#45;&gt;5 -->
<g id="edge44" class="edge"><title>4&#45;&gt;5</title>
<path fill="none" stroke="black" d="M620.685,-411.773C617.314,-408.882 613.222,-405.887 609,-404 540.296,-373.283 503.803,-418.944 442,-376 403.131,-348.992 397.092,-288.496 396.986,-254.461"/>
<polygon fill="black" stroke="black" points="400.492,-254.07 397.138,-244.02 393.493,-253.968 400.492,-254.07"/>
</g>
<!-- 4&#45;&gt;9 -->
<g id="edge54" class="edge"><title>4&#45;&gt;9</title>
<path fill="none" stroke="black" d="M626.358,-411.935C624.082,-404.986 620.68,-394.603 617.568,-385.102"/>
<polygon fill="black" stroke="black" points="620.81,-383.756 614.371,-375.343 614.158,-385.935 620.81,-383.756"/>
</g>
<!-- 4&#45;&gt;7 -->
<g id="edge2" class="edge"><title>4&#45;&gt;7</title>
<path fill="none" stroke="black" d="M636.807,-411.704C639.998,-408.805 643.902,-405.823 648,-404 731.217,-366.989 781.825,-435.242 851,-376 867.036,-362.266 872.595,-338.275 874.406,-320.138"/>
<polygon fill="black" stroke="black" points="877.909,-320.217 875.101,-310.001 870.925,-319.739 877.909,-320.217"/>
</g>
<!-- 4&#45;&gt;10 -->
<g id="edge40" class="edge"><title>4&#45;&gt;10</title>
<path fill="none" stroke="black" d="M636.416,-411.979C639.668,-408.968 643.719,-405.834 648,-404 752.808,-359.115 800.122,-425.148 903,-376 986.087,-336.307 1050,-322.082 1050,-230 1050,-230 1050,-230 1050,-162 1050,-69.5298 711.206,-31.6167 610.133,-22.3636"/>
<polygon fill="black" stroke="black" points="610.331,-18.8674 600.059,-21.465 609.709,-25.8397 610.331,-18.8674"/>
</g>
<!-- 4&#45;&gt;11 -->
<g id="edge33" class="edge"><title>4&#45;&gt;11</title>
<path fill="none" stroke="black" d="M620.709,-411.72C617.34,-408.823 613.244,-405.838 609,-404 528.655,-369.206 489.99,-419.491 414,-376 352.794,-340.97 338.31,-318.557 315,-252 308.242,-232.705 305.709,-224.211 315,-206 334.958,-166.88 356.267,-168.699 395,-148 434.232,-127.035 483.369,-110.706 513.457,-101.718"/>
<polygon fill="black" stroke="black" points="514.643,-105.018 523.257,-98.85 512.677,-98.3 514.643,-105.018"/>
</g>
<!-- 4&#45;&gt;6 -->
<g id="edge62" class="edge"><title>4&#45;&gt;6</title>
<path fill="none" stroke="black" d="M636.793,-411.674C639.983,-408.771 643.89,-405.794 648,-404 740.76,-363.509 788.445,-430.077 874,-376 903.39,-357.423 906.279,-343.382 916,-310 934.811,-245.403 867.433,-233.434 806,-206 758.201,-184.654 697.616,-172.802 664.452,-167.482"/>
<polygon fill="black" stroke="black" points="664.73,-163.984 654.314,-165.925 663.667,-170.903 664.73,-163.984"/>
</g>
<!-- 4&#45;&gt;8 -->
<g id="edge30" class="edge"><title>4&#45;&gt;8</title>
<path fill="none" stroke="black" d="M637.357,-411.73C640.494,-408.972 644.22,-406.076 648,-404 684.344,-384.034 701.156,-396.85 737,-376 774.241,-354.337 790.789,-349.497 808,-310 813.326,-297.777 815.198,-291.224 808,-280 791.896,-254.889 773.413,-265.865 747,-252 741.706,-249.221 736.108,-246.031 730.912,-242.957"/>
<polygon fill="black" stroke="black" points="732.517,-239.838 722.148,-237.666 728.899,-245.83 732.517,-239.838"/>
</g>
<!-- 5&#45;&gt;5 -->
<g id="edge22" class="edge"><title>5&#45;&gt;5</title>
<path fill="none" stroke="black" d="M408.819,-239.006C418.979,-244.195 430,-240.859 430,-229 430,-221.032 425.025,-216.912 418.679,-216.639"/>
<polygon fill="black" stroke="black" points="417.733,-213.267 408.819,-218.994 419.359,-220.075 417.733,-213.267"/>
</g>
<!-- 5&#45;&gt;9 -->
<g id="edge1" class="edge"><title>5&#45;&gt;9</title>
<path fill="none" stroke="black" d="M406.726,-241.013C420.623,-257.916 449.36,-290.356 480,-310 513.966,-331.776 558.88,-346.406 586.042,-353.955"/>
<polygon fill="black" stroke="black" points="585.288,-357.376 595.853,-356.587 587.102,-350.616 585.288,-357.376"/>
</g>
<!-- 5&#45;&gt;7 -->
<g id="edge65" class="edge"><title>5&#45;&gt;7</title>
<path fill="none" stroke="black" d="M412.232,-232.273C479.599,-242.021 764.666,-280.282 850.545,-291.123"/>
<polygon fill="black" stroke="black" points="850.298,-294.619 860.655,-292.386 851.166,-287.673 850.298,-294.619"/>
</g>
<!-- 5&#45;&gt;10 -->
<g id="edge61" class="edge"><title>5&#45;&gt;10</title>
<path fill="none" stroke="black" d="M383.392,-226.409C358.163,-222.805 306.845,-211.533 283,-178 256.182,-140.287 248.277,-109.468 278,-74 313.051,-32.1741 484.648,-22.7213 553.417,-20.604"/>
<polygon fill="black" stroke="black" points="553.635,-24.0993 563.535,-20.3233 553.441,-17.102 553.635,-24.0993"/>
</g>
<!-- 5&#45;&gt;11 -->
<g id="edge43" class="edge"><title>5&#45;&gt;11</title>
<path fill="none" stroke="black" d="M405.562,-216.211C416.495,-199.73 437.948,-169.421 461,-148 477.829,-132.362 499.576,-117.987 516.147,-108.006"/>
<polygon fill="black" stroke="black" points="518.387,-110.75 525.23,-102.662 514.836,-104.717 518.387,-110.75"/>
</g>
<!-- 5&#45;&gt;6 -->
<g id="edge6" class="edge"><title>5&#45;&gt;6</title>
<path fill="none" stroke="black" d="M411.701,-223.397C451.437,-211.835 565.609,-181.62 615.935,-169.323"/>
<polygon fill="black" stroke="black" points="617.023,-172.661 625.927,-166.92 615.386,-165.855 617.023,-172.661"/>
</g>
<!-- 5&#45;&gt;8 -->
<g id="edge18" class="edge"><title>5&#45;&gt;8</title>
<path fill="none" stroke="black" d="M412.625,-229C503.503,-229 594.381,-229 685.259,-229"/>
<polygon fill="black" stroke="black" points="685.48,-232.5 695.48,-229 685.48,-225.5 685.48,-232.5"/>
</g>
<!-- 9&#45;&gt;5 -->
<g id="edge73" class="edge"><title>9&#45;&gt;5</title>
<path fill="none" stroke="cornflowerblue" stroke-dasharray="1,5" d="M597.222,-353.683C579.195,-344.631 545.432,-327.162 518,-310 498.553,-297.834 494.995,-292.861 476,-280 456.738,-266.959 434.347,-252.696 418.509,-242.753"/>
<polygon fill="cornflowerblue" stroke="cornflowerblue" points="420.349,-239.775 410.014,-237.44 416.637,-245.71 420.349,-239.775"/>
</g>
<!-- 9&#45;&gt;9 -->
<g id="edge67" class="edge"><title>9&#45;&gt;9</title>
<path fill="none" stroke="black" d="M621.483,-370.393C631.453,-374.678 642,-371.547 642,-361 642,-354.079 637.458,-350.351 631.517,-349.817"/>
<polygon fill="black" stroke="black" points="630.713,-346.405 621.483,-351.607 631.942,-353.296 630.713,-346.405"/>
</g>
<!-- 9&#45;&gt;7 -->
<g id="edge39" class="edge"><title>9&#45;&gt;7</title>
<path fill="none" stroke="black" d="M623.828,-355.801C666.825,-344.408 796.969,-312.959 851.155,-300.845"/>
<polygon fill="black" stroke="black" points="851.919,-304.261 860.932,-298.691 850.413,-297.424 851.919,-304.261"/>
</g>
<!-- 9&#45;&gt;10 -->
<g id="edge49" class="edge"><title>9&#45;&gt;10</title>
<path fill="none" stroke="black" d="M600.431,-349.554C577.263,-316.207 522.278,-208.81 505,-112 502.033,-95.3738 497.657,-89.2088 505,-74 514.946,-53.4017 536.99,-38.2509 555.17,-29.3261"/>
<polygon fill="black" stroke="black" points="556.825,-32.4195 564.506,-25.1219 553.951,-26.0368 556.825,-32.4195"/>
</g>
<!-- 9&#45;&gt;11 -->
<g id="edge32" class="edge"><title>9&#45;&gt;11</title>
<path fill="none" stroke="black" d="M603.694,-347.527C588.73,-306.999 554.951,-178.368 543.823,-121.496"/>
<polygon fill="black" stroke="black" points="547.223,-120.635 541.965,-111.437 540.34,-121.906 547.223,-120.635"/>
</g>
<!-- 9&#45;&gt;6 -->
<g id="edge55" class="edge"><title>9&#45;&gt;6</title>
<path fill="none" stroke="black" d="M605.454,-346.881C605.984,-336.82 608.884,-322.571 611,-310 618.343,-266.376 624.891,-215.076 631.141,-186.371"/>
<polygon fill="black" stroke="black" points="634.57,-187.081 633.523,-176.538 627.767,-185.433 634.57,-187.081"/>
</g>
<!-- 9&#45;&gt;8 -->
<g id="edge8" class="edge"><title>9&#45;&gt;8</title>
<path fill="none" stroke="black" d="M620.313,-350.305C633.09,-341.439 653.654,-327.119 667,-310 680.908,-292.16 690.185,-267.785 697.293,-250.644"/>
<polygon fill="black" stroke="black" points="700.695,-251.596 701.46,-241.029 694.272,-248.812 700.695,-251.596"/>
</g>
<!-- 7&#45;&gt;5 -->
<g id="edge71" class="edge"><title>7&#45;&gt;5</title>
<path fill="none" stroke="black" d="M860.735,-291.722C793.354,-281.973 508.695,-243.766 422.625,-232.898"/>
<polygon fill="black" stroke="black" points="422.843,-229.398 412.486,-231.631 421.975,-236.344 422.843,-229.398"/>
</g>
<!-- 7&#45;&gt;9 -->
<g id="edge37" class="edge"><title>7&#45;&gt;9</title>
<path fill="none" stroke="black" d="M861.312,-300.162C818.544,-311.501 688.615,-342.901 634.173,-355.082"/>
<polygon fill="black" stroke="black" points="633.352,-351.679 624.34,-357.25 634.859,-358.515 633.352,-351.679"/>
</g>
<!-- 7&#45;&gt;7 -->
<g id="edge10" class="edge"><title>7&#45;&gt;7</title>
<path fill="none" stroke="black" d="M885.819,-305.006C895.979,-310.195 907,-306.859 907,-295 907,-287.032 902.025,-282.912 895.679,-282.639"/>
<polygon fill="black" stroke="black" points="894.733,-279.267 885.819,-284.994 896.359,-286.075 894.733,-279.267"/>
</g>
<!-- 7&#45;&gt;10 -->
<g id="edge42" class="edge"><title>7&#45;&gt;10</title>
<path fill="none" stroke="black" d="M868.308,-281.549C863.452,-263.454 858.145,-229.491 842,-206 780.366,-116.324 660.255,-56.6733 607.54,-32.3508"/>
<polygon fill="black" stroke="black" points="608.771,-29.0653 598.221,-28.0898 605.86,-35.4313 608.771,-29.0653"/>
</g>
<!-- 7&#45;&gt;11 -->
<g id="edge13" class="edge"><title>7&#45;&gt;11</title>
<path fill="none" stroke="black" d="M864.493,-284.591C850.42,-267.076 826.214,-229.151 797,-206 724.273,-148.366 617.537,-115.397 567.897,-101.648"/>
<polygon fill="black" stroke="black" points="568.773,-98.2587 558.204,-99.0034 566.93,-105.012 568.773,-98.2587"/>
</g>
<!-- 7&#45;&gt;6 -->
<g id="edge76" class="edge"><title>7&#45;&gt;6</title>
<path fill="none" stroke="black" d="M861.675,-288.894C846.867,-281.054 824.089,-265.536 805,-252 776.72,-231.945 772.488,-222.506 742,-206 715.84,-191.838 683.883,-180.291 662.601,-172.914"/>
<polygon fill="black" stroke="black" points="663.679,-169.584 653.084,-169.635 661.398,-176.202 663.679,-169.584"/>
</g>
<!-- 7&#45;&gt;8 -->
<g id="edge75" class="edge"><title>7&#45;&gt;8</title>
<path fill="none" stroke="black" d="M861.019,-290.382C853.408,-287.375 844.791,-283.102 837,-280 798.868,-264.818 787.282,-266.8 749,-252 742.603,-249.527 735.846,-246.621 729.71,-243.745"/>
<polygon fill="black" stroke="black" points="731.237,-240.596 720.72,-239.319 728.145,-246.876 731.237,-240.596"/>
</g>
<!-- 10&#45;&gt;5 -->
<g id="edge60" class="edge"><title>10&#45;&gt;5</title>
<path fill="none" stroke="black" d="M563.731,-20.6065C506.849,-22.9149 334.696,-33.212 301,-74 271.561,-109.635 276.942,-138.532 301,-178 316.82,-203.953 350.907,-217.014 374.152,-223.149"/>
<polygon fill="black" stroke="black" points="373.424,-226.573 383.965,-225.502 375.056,-219.766 373.424,-226.573"/>
</g>
<!-- 10&#45;&gt;9 -->
<g id="edge38" class="edge"><title>10&#45;&gt;9</title>
<path fill="none" stroke="black" d="M567.459,-30.5504C553.058,-39.6057 532.505,-54.3154 523,-74 515.657,-89.2088 520.033,-95.3738 523,-112 538.507,-198.89 584.39,-294.308 602.885,-337.061"/>
<polygon fill="black" stroke="black" points="599.668,-338.439 606.775,-346.296 606.119,-335.722 599.668,-338.439"/>
</g>
<!-- 10&#45;&gt;7 -->
<g id="edge25" class="edge"><title>10&#45;&gt;7</title>
<path fill="none" stroke="black" d="M599.183,-25.1662C648.78,-42.8752 791.017,-105.631 860,-206 873.347,-225.419 879.286,-251.993 880.153,-270.845"/>
<polygon fill="black" stroke="black" points="876.653,-270.92 880.095,-280.94 883.652,-270.96 876.653,-270.92"/>
</g>
<!-- 10&#45;&gt;10 -->
<g id="edge63" class="edge"><title>10&#45;&gt;10</title>
<path fill="none" stroke="black" d="M596.042,-31.083C606.913,-35.6019 618,-31.5742 618,-19 618,-10.3552 612.759,-5.75002 605.952,-5.1844"/>
<polygon fill="black" stroke="black" points="605.29,-1.74698 596.042,-6.91696 606.495,-8.64239 605.29,-1.74698"/>
</g>
<!-- 10&#45;&gt;11 -->
<g id="edge3" class="edge"><title>10&#45;&gt;11</title>
<path fill="none" stroke="black" d="M578.16,-36.9832C573.452,-47.1596 566.16,-60.1797 559.159,-70.9989"/>
<polygon fill="black" stroke="black" points="556.135,-69.2207 553.409,-79.4586 561.925,-73.1557 556.135,-69.2207"/>
</g>
<!-- 10&#45;&gt;6 -->
<g id="edge9" class="edge"><title>10&#45;&gt;6</title>
<path fill="none" stroke="black" d="M592.245,-34.5653C605.18,-59.0385 625.735,-108.629 635.478,-138.215"/>
<polygon fill="black" stroke="black" points="632.245,-139.607 638.544,-148.126 638.932,-137.538 632.245,-139.607"/>
</g>
<!-- 10&#45;&gt;8 -->
<g id="edge19" class="edge"><title>10&#45;&gt;8</title>
<path fill="none" stroke="black" d="M597.875,-28.662C611.315,-38.926 629.487,-56.81 643,-74 667.078,-104.631 672.814,-113.033 690,-148 698.948,-166.206 706.64,-187.897 710.461,-204.097"/>
<polygon fill="black" stroke="black" points="707.106,-205.18 712.455,-214.325 713.976,-203.84 707.106,-205.18"/>
</g>
<!-- 11&#45;&gt;5 -->
<g id="edge24" class="edge"><title>11&#45;&gt;5</title>
<path fill="none" stroke="black" d="M529.336,-107.353C514.213,-124.4 486.721,-154.499 461,-178 447.096,-190.704 430.356,-203.9 417.627,-213.544"/>
<polygon fill="black" stroke="black" points="415.444,-210.806 409.54,-219.603 419.641,-216.408 415.444,-210.806"/>
</g>
<!-- 11&#45;&gt;9 -->
<g id="edge46" class="edge"><title>11&#45;&gt;9</title>
<path fill="none" stroke="black" d="M548.494,-109.763C564.337,-154.539 597.8,-282.695 607.876,-336.142"/>
<polygon fill="black" stroke="black" points="604.442,-336.825 609.612,-346.073 611.338,-335.62 604.442,-336.825"/>
</g>
<!-- 11&#45;&gt;7 -->
<g id="edge59" class="edge"><title>11&#45;&gt;7</title>
<path fill="none" stroke="black" d="M558.99,-97.0979C605.938,-106.902 732.403,-140.544 815,-206 838.039,-224.258 857.963,-251.704 868.535,-271.081"/>
<polygon fill="black" stroke="black" points="865.457,-272.752 873.062,-280.129 871.717,-269.62 865.457,-272.752"/>
</g>
<!-- 11&#45;&gt;10 -->
<g id="edge20" class="edge"><title>11&#45;&gt;10</title>
<path fill="none" stroke="black" d="M544.877,-74.937C549.573,-64.8007 556.817,-51.8644 563.783,-41.0914"/>
<polygon fill="black" stroke="black" points="566.786,-42.8995 569.506,-32.6599 560.994,-38.968 566.786,-42.8995"/>
</g>
<!-- 11&#45;&gt;11 -->
<g id="edge4" class="edge"><title>11&#45;&gt;11</title>
<path fill="none" stroke="black" d="M555.417,-104.574C566.166,-108.616 577,-104.758 577,-93 577,-85.1002 572.109,-80.7665 565.64,-79.9989"/>
<polygon fill="black" stroke="black" points="564.837,-76.577 555.417,-81.4259 565.805,-83.5098 564.837,-76.577"/>
</g>
<!-- 11&#45;&gt;6 -->
<g id="edge77" class="edge"><title>11&#45;&gt;6</title>
<path fill="none" stroke="black" d="M556.976,-101.875C574.876,-112.504 603.283,-131.704 621.929,-145.551"/>
<polygon fill="black" stroke="black" points="619.896,-148.402 629.973,-151.672 624.135,-142.831 619.896,-148.402"/>
</g>
<!-- 11&#45;&gt;8 -->
<g id="edge64" class="edge"><title>11&#45;&gt;8</title>
<path fill="none" stroke="black" d="M554.664,-105.208C570.624,-122.479 596.855,-155.912 625,-178 644.999,-193.695 670.64,-206.957 688.693,-215.871"/>
<polygon fill="black" stroke="black" points="687.338,-219.104 697.858,-220.363 690.419,-212.819 687.338,-219.104"/>
</g>
<!-- 6&#45;&gt;5 -->
<g id="edge56" class="edge"><title>6&#45;&gt;5</title>
<path fill="none" stroke="black" d="M626.431,-168.564C586.815,-180.098 472.439,-210.368 422.06,-222.678"/>
<polygon fill="black" stroke="black" points="420.963,-219.342 412.059,-225.084 422.6,-226.148 420.963,-219.342"/>
</g>
<!-- 6&#45;&gt;9 -->
<g id="edge74" class="edge"><title>6&#45;&gt;9</title>
<path fill="none" stroke="black" d="M643.607,-177.73C644.327,-203.655 637.154,-261.56 629,-310 627.352,-319.788 625.23,-330.594 622.608,-339.648"/>
<polygon fill="black" stroke="black" points="619.229,-338.712 619.3,-349.306 625.851,-340.98 619.229,-338.712"/>
</g>
<!-- 6&#45;&gt;7 -->
<g id="edge21" class="edge"><title>6&#45;&gt;7</title>
<path fill="none" stroke="cornflowerblue" stroke-dasharray="1,5" d="M654.181,-166.585C677.815,-172.221 724.305,-186.675 760,-206 790.488,-222.506 794.72,-231.945 823,-252 834.681,-260.284 847.744,-269.309 858.035,-276.863"/>
<polygon fill="cornflowerblue" stroke="cornflowerblue" points="856.168,-279.839 866.26,-283.067 860.384,-274.251 856.168,-279.839"/>
</g>
<!-- 6&#45;&gt;10 -->
<g id="edge27" class="edge"><title>6&#45;&gt;10</title>
<path fill="none" stroke="black" d="M631.606,-150.857C619.357,-128.771 598.433,-78.8641 587.753,-47.4628"/>
<polygon fill="black" stroke="black" points="590.966,-46.0228 584.552,-37.5901 584.307,-48.1821 590.966,-46.0228"/>
</g>
<!-- 6&#45;&gt;11 -->
<g id="edge47" class="edge"><title>6&#45;&gt;11</title>
<path fill="none" stroke="black" d="M627.167,-155.965C610.462,-146.339 581.792,-127.115 562.011,-112.618"/>
<polygon fill="black" stroke="black" points="563.986,-109.724 553.881,-106.539 559.794,-115.33 563.986,-109.724"/>
</g>
<!-- 6&#45;&gt;6 -->
<g id="edge5" class="edge"><title>6&#45;&gt;6</title>
<path fill="none" stroke="black" d="M650.819,-173.006C660.979,-178.195 672,-174.859 672,-163 672,-155.032 667.025,-150.912 660.679,-150.639"/>
<polygon fill="black" stroke="black" points="659.733,-147.267 650.819,-152.994 661.359,-154.075 659.733,-147.267"/>
</g>
<!-- 6&#45;&gt;8 -->
<g id="edge53" class="edge"><title>6&#45;&gt;8</title>
<path fill="none" stroke="black" d="M652.446,-171.283C664.614,-180.367 682.565,-196.243 695.338,-208.892"/>
<polygon fill="black" stroke="black" points="693.037,-211.546 702.525,-216.261 698.049,-206.659 693.037,-211.546"/>
</g>
<!-- 8&#45;&gt;5 -->
<g id="edge17" class="edge"><title>8&#45;&gt;5</title>
<path fill="none" stroke="black" d="M695.48,-229C604.602,-229 513.723,-229 422.845,-229"/>
<polygon fill="black" stroke="black" points="422.625,-225.5 412.625,-229 422.625,-232.5 422.625,-225.5"/>
</g>
<!-- 8&#45;&gt;9 -->
<g id="edge11" class="edge"><title>8&#45;&gt;9</title>
<path fill="none" stroke="black" d="M712.845,-243.575C710.821,-260.453 700.959,-289.529 685,-310 671.184,-327.722 649.632,-342.444 632.894,-351.222"/>
<polygon fill="black" stroke="black" points="631.163,-348.172 623.69,-355.681 634.215,-354.471 631.163,-348.172"/>
</g>
<!-- 8&#45;&gt;7 -->
<g id="edge52" class="edge"><title>8&#45;&gt;7</title>
<path fill="none" stroke="black" d="M724.055,-233.878C736.067,-238.523 752.465,-246.381 767,-252 805.282,-266.8 816.868,-264.818 855,-280 855.101,-280.04 855.201,-280.08 855.302,-280.121"/>
<polygon fill="black" stroke="black" points="854.138,-283.433 864.699,-284.275 856.968,-277.03 854.138,-283.433"/>
</g>
<!-- 8&#45;&gt;10 -->
<g id="edge28" class="edge"><title>8&#45;&gt;10</title>
<path fill="none" stroke="black" d="M700.95,-217.082C693.195,-201.389 683.664,-171.733 672,-148 654.814,-113.033 649.078,-104.631 625,-74 616.539,-63.237 606.252,-52.202 597.693,-42.9357"/>
<polygon fill="black" stroke="black" points="600.037,-40.3135 590.704,-35.2991 594.873,-45.0392 600.037,-40.3135"/>
</g>
<!-- 8&#45;&gt;11 -->
<g id="edge45" class="edge"><title>8&#45;&gt;11</title>
<path fill="none" stroke="black" d="M696.011,-224.518C674.647,-217.438 635.21,-200.139 607,-178 585.39,-161.041 564.909,-137.394 552.314,-119.508"/>
<polygon fill="black" stroke="black" points="554.938,-117.133 546.483,-110.747 549.11,-121.011 554.938,-117.133"/>
</g>
<!-- 8&#45;&gt;6 -->
<g id="edge36" class="edge"><title>8&#45;&gt;6</title>
<path fill="none" stroke="black" d="M697.809,-220.906C685.776,-211.958 667.939,-196.211 655.106,-183.547"/>
<polygon fill="black" stroke="black" points="657.357,-180.843 647.859,-176.148 652.356,-185.741 657.357,-180.843"/>
</g>
<!-- 8&#45;&gt;8 -->
<g id="edge29" class="edge"><title>8&#45;&gt;8</title>
<path fill="none" stroke="black" d="M720.819,-239.006C730.979,-244.195 742,-240.859 742,-229 742,-221.032 737.025,-216.912 730.679,-216.639"/>
<polygon fill="black" stroke="black" points="729.733,-213.267 720.819,-218.994 731.359,-220.075 729.733,-213.267"/>
</g>
</g>
</svg>
