<?xml version="1.0" encoding="UTF-8" standalone="no"?>
<!DOCTYPE svg PUBLIC "-//W3C//DTD SVG 1.1//EN"
 "http://www.w3.org/Graphics/SVG/1.1/DTD/svg11.dtd">
<!-- Generated by graphviz version 2.36.0 (20140111.2315)
 -->
<!-- Title: G Pages: 1 -->
<svg width="245pt" height="174pt"
 viewBox="0.00 0.00 244.86 174.00" xmlns="http://www.w3.org/2000/svg" xmlns:xlink="http://www.w3.org/1999/xlink">
<g id="graph0" class="graph" transform="scale(1 1) rotate(0) translate(4 170)">
<title>G</title>
<polygon fill="white" stroke="none" points="-4,4 -4,-170 240.859,-170 240.859,4 -4,4"/>
<g id="clust1" class="cluster"><title>cluster_inputs</title>
<polygon fill="none" stroke="white" points="72,-124 72,-158 227,-158 227,-124 72,-124"/>
</g>
<g id="clust2" class="cluster"><title>cluster_outputs</title>
<polygon fill="none" stroke="white" points="8,-58 8,-104 72,-104 72,-58 8,-58"/>
</g>
<!-- 1 -->
<g id="node1" class="node"><title>1</title>
<polygon fill="lightgrey" stroke="black" points="140.25,-150 119.75,-150 119.75,-132 140.25,-132 140.25,-150"/>
<text text-anchor="middle" x="130" y="-138.8" font-family="Times,serif" font-size="9.00">1</text>
</g>
<!-- 5 -->
<g id="node5" class="node"><title>5</title>
<ellipse fill="lightblue" stroke="lightblue" cx="31" cy="-81" rx="14.2796" ry="14.7"/>
<text text-anchor="middle" x="31" y="-78.8" font-family="Times,serif" font-size="9.00">5</text>
</g>
<!-- 1&#45;&gt;5 -->
<g id="edge12" class="edge"><title>1&#45;&gt;5</title>
<path fill="none" stroke="black" d="M120.508,-131.811C117.271,-129.182 113.567,-126.345 110,-124 91.6213,-111.914 69.4024,-100.348 53.2154,-92.4242"/>
<polygon fill="black" stroke="black" points="54.5328,-89.174 44.0044,-87.9893 51.4961,-95.481 54.5328,-89.174"/>
</g>
<!-- 7 -->
<g id="node6" class="node"><title>7</title>
<ellipse fill="none" stroke="black" cx="173" cy="-81" rx="14.2796" ry="14.7"/>
<text text-anchor="middle" x="173" y="-78.8" font-family="Times,serif" font-size="9.00">7</text>
</g>
<!-- 1&#45;&gt;7 -->
<g id="edge15" class="edge"><title>1&#45;&gt;7</title>
<path fill="none" stroke="black" d="M135.979,-131.935C141.82,-124.056 150.934,-111.763 158.658,-101.346"/>
<polygon fill="black" stroke="black" points="161.572,-103.292 164.716,-93.1744 155.948,-99.1231 161.572,-103.292"/>
</g>
<!-- 6 -->
<g id="node7" class="node"><title>6</title>
<ellipse fill="none" stroke="black" cx="173" cy="-15" rx="14.2796" ry="14.7"/>
<text text-anchor="middle" x="173" y="-12.8" font-family="Times,serif" font-size="9.00">6</text>
</g>
<!-- 1&#45;&gt;6 -->
<g id="edge13" class="edge"><title>1&#45;&gt;6</title>
<path fill="none" stroke="black" d="M131.118,-131.614C133.311,-116.499 138.871,-83.8518 149,-58 151.841,-50.7499 155.772,-43.2421 159.631,-36.6144"/>
<polygon fill="black" stroke="black" points="162.871,-38.0242 165.098,-27.6661 156.898,-34.3746 162.871,-38.0242"/>
</g>
<!-- 2 -->
<g id="node2" class="node"><title>2</title>
<polygon fill="lightgrey" stroke="black" points="101.25,-150 80.75,-150 80.75,-132 101.25,-132 101.25,-150"/>
<text text-anchor="middle" x="91" y="-138.8" font-family="Times,serif" font-size="9.00">2</text>
</g>
<!-- 2&#45;&gt;5 -->
<g id="edge18" class="edge"><title>2&#45;&gt;5</title>
<path fill="none" stroke="black" d="M82.6573,-131.935C73.8667,-123.438 59.764,-109.805 48.5133,-98.9295"/>
<polygon fill="black" stroke="black" points="50.9028,-96.3714 41.2803,-91.9376 46.0376,-101.404 50.9028,-96.3714"/>
</g>
<!-- 2&#45;&gt;7 -->
<g id="edge1" class="edge"><title>2&#45;&gt;7</title>
<path fill="none" stroke="black" d="M100.108,-131.975C103.19,-129.357 106.689,-126.485 110,-124 123.571,-113.812 139.476,-103.219 151.909,-95.22"/>
<polygon fill="black" stroke="black" points="154.088,-97.9815 160.644,-89.6584 150.329,-92.0767 154.088,-97.9815"/>
</g>
<!-- 2&#45;&gt;6 -->
<g id="edge3" class="edge"><title>2&#45;&gt;6</title>
<path fill="none" stroke="black" d="M94.23,-131.883C100.488,-116.647 115.227,-83.0444 133,-58 139.419,-48.9543 147.721,-39.9167 155.095,-32.5551"/>
<polygon fill="black" stroke="black" points="157.841,-34.769 162.602,-25.3038 152.978,-29.7345 157.841,-34.769"/>
</g>
<!-- 3 -->
<g id="node3" class="node"><title>3</title>
<polygon fill="lightgrey" stroke="black" points="218.25,-150 197.75,-150 197.75,-132 218.25,-132 218.25,-150"/>
<text text-anchor="middle" x="208" y="-138.8" font-family="Times,serif" font-size="9.00">3</text>
</g>
<!-- 3&#45;&gt;5 -->
<g id="edge20" class="edge"><title>3&#45;&gt;5</title>
<path fill="none" stroke="black" d="M199.585,-131.983C196.202,-129.118 192.127,-126.086 188,-124 144.302,-101.909 87.7022,-90.4681 55.7732,-85.3897"/>
<polygon fill="black" stroke="black" points="55.98,-81.8814 45.57,-83.8517 54.9366,-88.8032 55.98,-81.8814"/>
</g>
<!-- 3&#45;&gt;7 -->
<g id="edge17" class="edge"><title>3&#45;&gt;7</title>
<path fill="none" stroke="black" d="M203.133,-131.935C198.589,-124.405 191.611,-112.841 185.514,-102.737"/>
<polygon fill="black" stroke="black" points="188.421,-100.78 180.257,-94.0264 182.427,-104.397 188.421,-100.78"/>
</g>
<!-- 3&#45;&gt;6 -->
<g id="edge14" class="edge"><title>3&#45;&gt;6</title>
<path fill="none" stroke="black" d="M215.183,-131.81C220.715,-124.922 227.922,-114.536 231,-104 236.734,-84.376 240.296,-76.2088 231,-58 223.567,-43.441 208.47,-32.7579 195.541,-25.8099"/>
<polygon fill="black" stroke="black" points="196.757,-22.507 186.24,-21.2224 193.66,-28.7849 196.757,-22.507"/>
</g>
<!-- 4 -->
<g id="node4" class="node"><title>4</title>
<polygon fill="lightgrey" stroke="black" points="179.25,-150 158.75,-150 158.75,-132 179.25,-132 179.25,-150"/>
<text text-anchor="middle" x="169" y="-138.8" font-family="Times,serif" font-size="9.00">4</text>
</g>
<!-- 4&#45;&gt;5 -->
<g id="edge16" class="edge"><title>4&#45;&gt;5</title>
<path fill="none" stroke="black" d="M160.098,-131.828C156.786,-129.079 152.884,-126.164 149,-124 118.388,-106.944 79.5568,-94.7178 54.9847,-87.9999"/>
<polygon fill="black" stroke="black" points="55.6482,-84.5551 45.0857,-85.3815 53.8582,-91.3223 55.6482,-84.5551"/>
</g>
<!-- 4&#45;&gt;7 -->
<g id="edge2" class="edge"><title>4&#45;&gt;7</title>
<path fill="none" stroke="black" d="M169.556,-131.935C170.013,-125.313 170.685,-115.572 171.314,-106.448"/>
<polygon fill="black" stroke="black" points="174.821,-106.461 172.018,-96.2441 167.838,-105.98 174.821,-106.461"/>
</g>
<!-- 4&#45;&gt;6 -->
<g id="edge11" class="edge"><title>4&#45;&gt;6</title>
<path fill="none" stroke="black" d="M178.597,-131.777C181.587,-129.254 184.91,-126.488 188,-124 199.356,-114.858 207.56,-117.079 214,-104 223.031,-85.6585 221.71,-76.935 214,-58 209.619,-47.2411 201.01,-37.7356 192.806,-30.5008"/>
<polygon fill="black" stroke="black" points="194.871,-27.6686 184.91,-24.0604 190.447,-33.0932 194.871,-27.6686"/>
</g>
<!-- 5&#45;&gt;5 -->
<g id="edge5" class="edge"><title>5&#45;&gt;5</title>
<path fill="none" stroke="cornflowerblue" stroke-dasharray="1,5" d="M42.483,-90.3933C52.4531,-94.678 63,-91.5469 63,-81 63,-74.0786 58.4578,-70.3509 52.5173,-69.817"/>
<polygon fill="cornflowerblue" stroke="cornflowerblue" points="51.7131,-66.4051 42.483,-71.6067 52.9423,-73.2963 51.7131,-66.4051"/>
</g>
<!-- 5&#45;&gt;7 -->
<g id="edge9" class="edge"><title>5&#45;&gt;7</title>
<path fill="none" stroke="black" d="M45.6992,-81C79.7945,-81 113.89,-81 147.985,-81"/>
<polygon fill="black" stroke="black" points="148.082,-84.5001 158.082,-81 148.082,-77.5001 148.082,-84.5001"/>
</g>
<!-- 5&#45;&gt;6 -->
<g id="edge7" class="edge"><title>5&#45;&gt;6</title>
<path fill="none" stroke="black" d="M41.919,-70.9152C49.6715,-66.9125 59.8156,-62.1792 69,-58 96.2236,-45.6124 128.049,-31.6465 149.533,-23.3472"/>
<polygon fill="black" stroke="black" points="151.03,-26.5249 159.184,-19.76 148.591,-19.9635 151.03,-26.5249"/>
</g>
<!-- 7&#45;&gt;7 -->
<g id="edge10" class="edge"><title>7&#45;&gt;7</title>
<path fill="none" stroke="black" d="M184.483,-90.3933C194.453,-94.678 205,-91.5469 205,-81 205,-74.0786 200.458,-70.3509 194.517,-69.817"/>
<polygon fill="black" stroke="black" points="193.713,-66.4051 184.483,-71.6067 194.942,-73.2963 193.713,-66.4051"/>
</g>
<!-- 7&#45;&gt;6 -->
<g id="edge8" class="edge"><title>7&#45;&gt;6</title>
<path fill="none" stroke="black" d="M167.451,-67.0486C166.287,-58.9811 165.969,-48.3739 166.498,-38.9196"/>
<polygon fill="black" stroke="black" points="169.985,-39.2203 167.454,-28.9321 163.017,-38.5528 169.985,-39.2203"/>
</g>
<!-- 6&#45;&gt;5 -->
<g id="edge19" class="edge"><title>6&#45;&gt;5</title>
<path fill="none" stroke="black" d="M161.455,-23.9357C144.57,-32.2956 113.59,-45.9007 87,-58 76.4356,-62.8071 64.6015,-68.3474 54.3039,-72.6656"/>
<polygon fill="black" stroke="black" points="52.9927,-69.4203 44.9934,-76.3674 55.579,-75.9251 52.9927,-69.4203"/>
</g>
<!-- 6&#45;&gt;7 -->
<g id="edge4" class="edge"><title>6&#45;&gt;7</title>
<path fill="none" stroke="black" d="M178.546,-28.9321C179.712,-36.9956 180.031,-47.6017 179.504,-57.0578"/>
<polygon fill="black" stroke="black" points="176.016,-56.7609 178.549,-67.0486 182.984,-57.4271 176.016,-56.7609"/>
</g>
<!-- 6&#45;&gt;6 -->
<g id="edge6" class="edge"><title>6&#45;&gt;6</title>
<path fill="none" stroke="cornflowerblue" stroke-dasharray="1,5" d="M183.819,-25.0063C193.979,-30.1948 205,-26.8594 205,-15 205,-7.03198 200.025,-2.9118 193.679,-2.63946"/>
<polygon fill="cornflowerblue" stroke="cornflowerblue" points="192.733,0.733195 183.819,-4.99365 194.359,-6.0754 192.733,0.733195"/>
</g>
</g>
</svg>
