<?xml version="1.0" encoding="UTF-8" standalone="no"?>
<!DOCTYPE svg PUBLIC "-//W3C//DTD SVG 1.1//EN"
 "http://www.w3.org/Graphics/SVG/1.1/DTD/svg11.dtd">
<!-- Generated by graphviz version 2.36.0 (20140111.2315)
 -->
<!-- Title: G Pages: 1 -->
<svg width="391pt" height="240pt"
 viewBox="0.00 0.00 391.47 240.00" xmlns="http://www.w3.org/2000/svg" xmlns:xlink="http://www.w3.org/1999/xlink">
<g id="graph0" class="graph" transform="scale(1 1) rotate(0) translate(4 236)">
<title>G</title>
<polygon fill="white" stroke="none" points="-4,4 -4,-236 387.47,-236 387.47,4 -4,4"/>
<g id="clust1" class="cluster"><title>cluster_inputs</title>
<polygon fill="none" stroke="white" points="125,-190 125,-224 280,-224 280,-190 125,-190"/>
</g>
<g id="clust2" class="cluster"><title>cluster_outputs</title>
<polygon fill="none" stroke="white" points="8,-58 8,-104 72,-104 72,-58 8,-58"/>
</g>
<!-- 1 -->
<g id="node1" class="node"><title>1</title>
<polygon fill="lightgrey" stroke="black" points="271.25,-216 250.75,-216 250.75,-198 271.25,-198 271.25,-216"/>
<text text-anchor="middle" x="261" y="-204.8" font-family="Times,serif" font-size="9.00">1</text>
</g>
<!-- 5 -->
<g id="node5" class="node"><title>5</title>
<ellipse fill="lightblue" stroke="lightblue" cx="31" cy="-81" rx="14.2796" ry="14.7"/>
<text text-anchor="middle" x="31" y="-78.8" font-family="Times,serif" font-size="9.00">5</text>
</g>
<!-- 1&#45;&gt;5 -->
<g id="edge14" class="edge"><title>1&#45;&gt;5</title>
<path fill="none" stroke="black" d="M256.693,-197.734C248.285,-182.415 228.195,-149.58 202,-132 156.114,-101.205 90.9868,-89.0402 55.8253,-84.5009"/>
<polygon fill="black" stroke="black" points="55.8667,-80.9815 45.5245,-83.2812 55.0435,-87.9329 55.8667,-80.9815"/>
</g>
<!-- 7 -->
<g id="node6" class="node"><title>7</title>
<ellipse fill="none" stroke="black" cx="191" cy="-81" rx="14.2796" ry="14.7"/>
<text text-anchor="middle" x="191" y="-78.8" font-family="Times,serif" font-size="9.00">7</text>
</g>
<!-- 1&#45;&gt;7 -->
<g id="edge27" class="edge"><title>1&#45;&gt;7</title>
<path fill="none" stroke="cornflowerblue" stroke-dasharray="1,5" d="M271.557,-205.013C292.859,-202.386 340.684,-193.134 361,-162 368.286,-150.834 368.988,-142.676 361,-132 343.452,-108.547 257.948,-92.3198 215.295,-85.545"/>
<polygon fill="cornflowerblue" stroke="cornflowerblue" points="215.62,-82.0538 205.204,-83.9922 214.555,-88.9724 215.62,-82.0538"/>
</g>
<!-- 6 -->
<g id="node7" class="node"><title>6</title>
<ellipse fill="none" stroke="black" cx="134" cy="-147" rx="14.2796" ry="14.7"/>
<text text-anchor="middle" x="134" y="-144.8" font-family="Times,serif" font-size="9.00">6</text>
</g>
<!-- 1&#45;&gt;6 -->
<g id="edge5" class="edge"><title>1&#45;&gt;6</title>
<path fill="none" stroke="black" d="M252.059,-197.897C248.743,-195.155 244.849,-192.226 241,-190 213.859,-174.301 179.728,-162.052 157.411,-154.931"/>
<polygon fill="black" stroke="black" points="158.36,-151.561 147.772,-151.941 156.286,-158.247 158.36,-151.561"/>
</g>
<!-- 8 -->
<g id="node8" class="node"><title>8</title>
<ellipse fill="none" stroke="black" cx="165" cy="-15" rx="14.2796" ry="14.7"/>
<text text-anchor="middle" x="165" y="-12.8" font-family="Times,serif" font-size="9.00">8</text>
</g>
<!-- 1&#45;&gt;8 -->
<g id="edge25" class="edge"><title>1&#45;&gt;8</title>
<path fill="none" stroke="black" d="M271.443,-205.746C295.204,-204.535 353.171,-197.864 378,-162 385.589,-151.037 384.702,-143.527 378,-132 336.864,-61.2498 235.414,-31.0654 188.945,-20.6315"/>
<polygon fill="black" stroke="black" points="189.651,-17.2035 179.141,-18.543 188.192,-24.0498 189.651,-17.2035"/>
</g>
<!-- 2 -->
<g id="node2" class="node"><title>2</title>
<polygon fill="lightgrey" stroke="black" points="154.25,-216 133.75,-216 133.75,-198 154.25,-198 154.25,-216"/>
<text text-anchor="middle" x="144" y="-204.8" font-family="Times,serif" font-size="9.00">2</text>
</g>
<!-- 2&#45;&gt;5 -->
<g id="edge7" class="edge"><title>2&#45;&gt;5</title>
<path fill="none" stroke="cornflowerblue" stroke-dasharray="1,5" d="M133.529,-205.054C111.851,-202.485 62.1537,-193.305 39,-162 27.2209,-146.074 26.0429,-123.221 27.3323,-106.015"/>
<polygon fill="cornflowerblue" stroke="cornflowerblue" points="30.8573,-105.97 28.4493,-95.6529 23.8976,-105.22 30.8573,-105.97"/>
</g>
<!-- 2&#45;&gt;6 -->
<g id="edge17" class="edge"><title>2&#45;&gt;6</title>
<path fill="none" stroke="black" d="M142.61,-197.935C141.44,-191.151 139.706,-181.093 138.1,-171.778"/>
<polygon fill="black" stroke="black" points="141.526,-171.051 136.378,-161.791 134.628,-172.24 141.526,-171.051"/>
</g>
<!-- 2&#45;&gt;8 -->
<g id="edge4" class="edge"><title>2&#45;&gt;8</title>
<path fill="none" stroke="black" d="M135.033,-197.939C126.724,-189.812 114.927,-176.435 110,-162 105.693,-149.382 107.373,-145.072 110,-132 117.225,-96.0553 137.874,-58.408 151.713,-36.088"/>
<polygon fill="black" stroke="black" points="154.755,-37.8268 157.167,-27.5103 148.848,-34.0705 154.755,-37.8268"/>
</g>
<!-- 3 -->
<g id="node3" class="node"><title>3</title>
<polygon fill="lightgrey" stroke="black" points="193.25,-216 172.75,-216 172.75,-198 193.25,-198 193.25,-216"/>
<text text-anchor="middle" x="183" y="-204.8" font-family="Times,serif" font-size="9.00">3</text>
</g>
<!-- 3&#45;&gt;5 -->
<g id="edge23" class="edge"><title>3&#45;&gt;5</title>
<path fill="none" stroke="black" d="M173.511,-197.806C170.275,-195.176 166.57,-192.341 163,-190 140.722,-175.392 131.387,-177.885 110,-162 85.4915,-143.796 61.4418,-117.974 46.4387,-100.637"/>
<polygon fill="black" stroke="black" points="48.9838,-98.2275 39.8379,-92.8792 43.6523,-102.764 48.9838,-98.2275"/>
</g>
<!-- 3&#45;&gt;7 -->
<g id="edge6" class="edge"><title>3&#45;&gt;7</title>
<path fill="none" stroke="black" d="M183.525,-197.864C184.703,-179.599 187.598,-134.727 189.42,-106.489"/>
<polygon fill="black" stroke="black" points="192.931,-106.429 190.082,-96.2244 185.946,-105.978 192.931,-106.429"/>
</g>
<!-- 3&#45;&gt;6 -->
<g id="edge15" class="edge"><title>3&#45;&gt;6</title>
<path fill="none" stroke="black" d="M176.187,-197.935C169.381,-189.879 158.676,-177.208 149.753,-166.646"/>
<polygon fill="black" stroke="black" points="152.215,-164.137 143.087,-158.756 146.867,-168.654 152.215,-164.137"/>
</g>
<!-- 4 -->
<g id="node4" class="node"><title>4</title>
<polygon fill="lightgrey" stroke="black" points="232.25,-216 211.75,-216 211.75,-198 232.25,-198 232.25,-216"/>
<text text-anchor="middle" x="222" y="-204.8" font-family="Times,serif" font-size="9.00">4</text>
</g>
<!-- 4&#45;&gt;5 -->
<g id="edge18" class="edge"><title>4&#45;&gt;5</title>
<path fill="none" stroke="black" d="M218.952,-197.838C212.894,-182.693 197.912,-150.136 175,-132 139.332,-103.767 86.6413,-90.9059 55.8681,-85.5024"/>
<polygon fill="black" stroke="black" points="56.026,-81.9823 45.5943,-83.8344 54.9042,-88.8918 56.026,-81.9823"/>
</g>
<!-- 4&#45;&gt;7 -->
<g id="edge1" class="edge"><title>4&#45;&gt;7</title>
<path fill="none" stroke="black" d="M228.897,-197.591C239.439,-183.653 257.307,-155.021 247,-132 239.885,-116.11 224.949,-103.189 212.29,-94.4654"/>
<polygon fill="black" stroke="black" points="213.92,-91.3519 203.619,-88.8724 210.125,-97.2343 213.92,-91.3519"/>
</g>
<!-- 4&#45;&gt;6 -->
<g id="edge24" class="edge"><title>4&#45;&gt;6</title>
<path fill="none" stroke="cornflowerblue" stroke-dasharray="1,5" d="M212.417,-197.945C209.174,-195.324 205.489,-192.459 202,-190 186.703,-179.217 168.65,-168.138 154.99,-160.068"/>
<polygon fill="cornflowerblue" stroke="cornflowerblue" points="156.723,-157.027 146.324,-155.002 153.191,-163.07 156.723,-157.027"/>
</g>
<!-- 4&#45;&gt;8 -->
<g id="edge13" class="edge"><title>4&#45;&gt;8</title>
<path fill="none" stroke="black" d="M230.901,-197.95C241.927,-187.742 259.672,-170.452 263,-162 267.884,-149.594 266.844,-144.767 263,-132 249.742,-87.9652 209.052,-50.0829 184.469,-30.4131"/>
<polygon fill="black" stroke="black" points="186.561,-27.6062 176.517,-24.235 182.266,-33.134 186.561,-27.6062"/>
</g>
<!-- 5&#45;&gt;5 -->
<g id="edge11" class="edge"><title>5&#45;&gt;5</title>
<path fill="none" stroke="black" d="M41.8193,-91.0063C51.9792,-96.1948 63,-92.8594 63,-81 63,-73.032 58.025,-68.9118 51.6788,-68.6395"/>
<polygon fill="black" stroke="black" points="50.733,-65.2668 41.8193,-70.9937 52.3588,-72.0754 50.733,-65.2668"/>
</g>
<!-- 5&#45;&gt;6 -->
<g id="edge3" class="edge"><title>5&#45;&gt;6</title>
<path fill="none" stroke="black" d="M41.2608,-91.4563C57.8571,-103.209 89.9736,-123.208 111.854,-135.448"/>
<polygon fill="black" stroke="black" points="110.355,-138.617 120.812,-140.32 113.7,-132.468 110.355,-138.617"/>
</g>
<!-- 5&#45;&gt;8 -->
<g id="edge9" class="edge"><title>5&#45;&gt;8</title>
<path fill="none" stroke="black" d="M42.8168,-72.1523C65.2814,-60.0896 113.403,-37.0799 142.243,-24.5866"/>
<polygon fill="black" stroke="black" points="143.721,-27.7618 151.566,-20.6414 140.993,-21.3153 143.721,-27.7618"/>
</g>
<!-- 7&#45;&gt;5 -->
<g id="edge19" class="edge"><title>7&#45;&gt;5</title>
<path fill="none" stroke="black" d="M176.526,-81C136.32,-81 96.1147,-81 55.9092,-81"/>
<polygon fill="black" stroke="black" points="55.6875,-77.5001 45.6875,-81 55.6875,-84.5001 55.6875,-77.5001"/>
</g>
<!-- 7&#45;&gt;6 -->
<g id="edge12" class="edge"><title>7&#45;&gt;6</title>
<path fill="none" stroke="black" d="M185.143,-94.7784C177.316,-105.297 164.116,-120.217 152.933,-131.243"/>
<polygon fill="black" stroke="black" points="150.479,-128.746 145.604,-138.152 155.281,-133.84 150.479,-128.746"/>
</g>
<!-- 7&#45;&gt;8 -->
<g id="edge28" class="edge"><title>7&#45;&gt;8</title>
<path fill="none" stroke="black" d="M181.54,-69.4317C176.811,-61.3369 171.689,-49.8559 168.052,-39.6097"/>
<polygon fill="black" stroke="black" points="171.345,-38.4155 164.979,-29.9462 164.674,-40.5367 171.345,-38.4155"/>
</g>
<!-- 6&#45;&gt;5 -->
<g id="edge22" class="edge"><title>6&#45;&gt;5</title>
<path fill="none" stroke="black" d="M123.366,-136.28C106.62,-124.461 74.6894,-104.593 52.9676,-92.4525"/>
<polygon fill="black" stroke="black" points="54.5349,-89.3208 44.0772,-87.6217 51.1928,-95.4715 54.5349,-89.3208"/>
</g>
<!-- 6&#45;&gt;7 -->
<g id="edge10" class="edge"><title>6&#45;&gt;7</title>
<path fill="none" stroke="black" d="M139.758,-133.356C147.493,-122.937 160.568,-108.134 171.725,-97.0949"/>
<polygon fill="black" stroke="black" points="174.199,-99.5719 179.053,-90.1544 169.386,-94.4894 174.199,-99.5719"/>
</g>
<!-- 6&#45;&gt;6 -->
<g id="edge2" class="edge"><title>6&#45;&gt;6</title>
<path fill="none" stroke="black" d="M145.483,-156.393C155.453,-160.678 166,-157.547 166,-147 166,-140.079 161.458,-136.351 155.517,-135.817"/>
<polygon fill="black" stroke="black" points="154.713,-132.405 145.483,-137.607 155.942,-139.296 154.713,-132.405"/>
</g>
<!-- 6&#45;&gt;8 -->
<g id="edge21" class="edge"><title>6&#45;&gt;8</title>
<path fill="none" stroke="black" d="M132.947,-132.088C135.461,-109.536 145.845,-64.8199 154.559,-37.9464"/>
<polygon fill="black" stroke="black" points="157.941,-38.8761 157.918,-28.2813 151.329,-36.5779 157.941,-38.8761"/>
</g>
<!-- 8&#45;&gt;5 -->
<g id="edge8" class="edge"><title>8&#45;&gt;5</title>
<path fill="none" stroke="black" d="M153.242,-23.8161C130.849,-35.8453 82.8213,-58.8139 53.9367,-71.3356"/>
<polygon fill="black" stroke="black" points="52.4345,-68.1708 44.5916,-75.2939 55.1648,-74.6164 52.4345,-68.1708"/>
</g>
<!-- 8&#45;&gt;7 -->
<g id="edge20" class="edge"><title>8&#45;&gt;7</title>
<path fill="none" stroke="black" d="M174.414,-26.4899C179.16,-34.5958 184.308,-46.1307 187.957,-56.4166"/>
<polygon fill="black" stroke="black" points="184.674,-57.6415 191.037,-66.113 191.346,-55.5226 184.674,-57.6415"/>
</g>
<!-- 8&#45;&gt;6 -->
<g id="edge16" class="edge"><title>8&#45;&gt;6</title>
<path fill="none" stroke="black" d="M166.022,-30.1889C163.459,-52.7816 153.161,-97.1077 144.495,-123.889"/>
<polygon fill="black" stroke="black" points="141.119,-122.94 141.151,-133.535 147.733,-125.233 141.119,-122.94"/>
</g>
<!-- 8&#45;&gt;8 -->
<g id="edge26" class="edge"><title>8&#45;&gt;8</title>
<path fill="none" stroke="black" d="M175.819,-25.0063C185.979,-30.1948 197,-26.8594 197,-15 197,-7.03198 192.025,-2.9118 185.679,-2.63946"/>
<polygon fill="black" stroke="black" points="184.733,0.733195 175.819,-4.99365 186.359,-6.0754 184.733,0.733195"/>
</g>
</g>
</svg>
