<?xml version="1.0" encoding="UTF-8" standalone="no"?>
<!DOCTYPE svg PUBLIC "-//W3C//DTD SVG 1.1//EN"
 "http://www.w3.org/Graphics/SVG/1.1/DTD/svg11.dtd">
<!-- Generated by graphviz version 2.36.0 (20140111.2315)
 -->
<!-- Title: G Pages: 1 -->
<svg width="201pt" height="190pt"
 viewBox="0.00 0.00 200.59 190.00" xmlns="http://www.w3.org/2000/svg" xmlns:xlink="http://www.w3.org/1999/xlink">
<g id="graph0" class="graph" transform="scale(1 1) rotate(0) translate(4 186)">
<title>G</title>
<polygon fill="white" stroke="none" points="-4,4 -4,-186 196.585,-186 196.585,4 -4,4"/>
<g id="clust1" class="cluster"><title>cluster_inputs</title>
<polygon fill="none" stroke="white" points="29.5855,-140 29.5855,-174 184.585,-174 184.585,-140 29.5855,-140"/>
</g>
<g id="clust2" class="cluster"><title>cluster_outputs</title>
<polygon fill="none" stroke="white" points="66.5855,-8 66.5855,-54 130.585,-54 130.585,-8 66.5855,-8"/>
</g>
<!-- 1 -->
<g id="node1" class="node"><title>1</title>
<polygon fill="lightgrey" stroke="black" points="58.8355,-166 38.3355,-166 38.3355,-148 58.8355,-148 58.8355,-166"/>
<text text-anchor="middle" x="48.5855" y="-154.8" font-family="Times,serif" font-size="9.00">1</text>
</g>
<!-- 5 -->
<g id="node5" class="node"><title>5</title>
<ellipse fill="lightblue" stroke="lightblue" cx="89.5855" cy="-31" rx="14.2796" ry="14.7"/>
<text text-anchor="middle" x="89.5855" y="-28.8" font-family="Times,serif" font-size="9.00">5</text>
</g>
<!-- 1&#45;&gt;5 -->
<g id="edge4" class="edge"><title>1&#45;&gt;5</title>
<path fill="none" stroke="black" d="M38.2489,-149.378C27.5162,-141.822 11.3654,-128.368 4.58546,-112 -0.516984,-99.6816 -2.03424,-93.574 4.58546,-82 17.6145,-59.2199 45.5142,-45.7938 65.8059,-38.6871"/>
<polygon fill="black" stroke="black" points="67.1594,-41.9283 75.6046,-35.5306 65.013,-35.2654 67.1594,-41.9283"/>
</g>
<!-- 6 -->
<g id="node6" class="node"><title>6</title>
<ellipse fill="none" stroke="black" cx="28.5855" cy="-97" rx="14.2796" ry="14.7"/>
<text text-anchor="middle" x="28.5855" y="-94.8" font-family="Times,serif" font-size="9.00">6</text>
</g>
<!-- 1&#45;&gt;6 -->
<g id="edge5" class="edge"><title>1&#45;&gt;6</title>
<path fill="none" stroke="black" d="M45.8045,-147.935C43.3828,-140.912 39.7517,-130.382 36.4473,-120.799"/>
<polygon fill="black" stroke="black" points="39.7552,-119.656 33.1864,-111.343 33.1376,-121.937 39.7552,-119.656"/>
</g>
<!-- 2 -->
<g id="node2" class="node"><title>2</title>
<polygon fill="lightgrey" stroke="black" points="97.8355,-166 77.3355,-166 77.3355,-148 97.8355,-148 97.8355,-166"/>
<text text-anchor="middle" x="87.5855" y="-154.8" font-family="Times,serif" font-size="9.00">2</text>
</g>
<!-- 2&#45;&gt;5 -->
<g id="edge6" class="edge"><title>2&#45;&gt;5</title>
<path fill="none" stroke="black" d="M87.7167,-147.864C88.0113,-129.599 88.735,-84.7271 89.1905,-56.4892"/>
<polygon fill="black" stroke="black" points="92.6942,-56.2796 89.356,-46.2244 85.6951,-56.1666 92.6942,-56.2796"/>
</g>
<!-- 3 -->
<g id="node3" class="node"><title>3</title>
<polygon fill="lightgrey" stroke="black" points="136.835,-166 116.335,-166 116.335,-148 136.835,-148 136.835,-166"/>
<text text-anchor="middle" x="126.585" y="-154.8" font-family="Times,serif" font-size="9.00">3</text>
</g>
<!-- 3&#45;&gt;5 -->
<g id="edge8" class="edge"><title>3&#45;&gt;5</title>
<path fill="none" stroke="black" d="M124.158,-147.864C118.626,-129.327 104.918,-83.3852 96.5197,-55.2392"/>
<polygon fill="black" stroke="black" points="99.8023,-53.9992 93.5891,-45.4175 93.0946,-56.0008 99.8023,-53.9992"/>
</g>
<!-- 4 -->
<g id="node4" class="node"><title>4</title>
<polygon fill="lightgrey" stroke="black" points="175.835,-166 155.335,-166 155.335,-148 175.835,-148 175.835,-166"/>
<text text-anchor="middle" x="165.585" y="-154.8" font-family="Times,serif" font-size="9.00">4</text>
</g>
<!-- 4&#45;&gt;5 -->
<g id="edge3" class="edge"><title>4&#45;&gt;5</title>
<path fill="none" stroke="black" d="M161.139,-147.66C153.697,-133.821 138.104,-105.327 123.585,-82 117.262,-71.84 109.828,-60.8136 103.527,-51.7072"/>
<polygon fill="black" stroke="black" points="106.281,-49.5384 97.6859,-43.344 100.542,-53.5465 106.281,-49.5384"/>
</g>
<!-- 5&#45;&gt;5 -->
<g id="edge1" class="edge"><title>5&#45;&gt;5</title>
<path fill="none" stroke="black" d="M100.405,-41.0063C110.565,-46.1948 121.585,-42.8594 121.585,-31 121.585,-23.032 116.61,-18.9118 110.264,-18.6395"/>
<polygon fill="black" stroke="black" points="109.318,-15.2668 100.405,-20.9937 110.944,-22.0754 109.318,-15.2668"/>
</g>
<!-- 6&#45;&gt;5 -->
<g id="edge7" class="edge"><title>6&#45;&gt;5</title>
<path fill="none" stroke="black" d="M38.3862,-85.7173C47.5803,-76.0709 61.526,-61.4394 72.5422,-49.8814"/>
<polygon fill="black" stroke="black" points="75.2406,-52.1233 79.6064,-42.4698 70.1735,-47.2937 75.2406,-52.1233"/>
</g>
<!-- 6&#45;&gt;6 -->
<g id="edge2" class="edge"><title>6&#45;&gt;6</title>
<path fill="none" stroke="black" d="M40.0685,-106.393C50.0386,-110.678 60.5855,-107.547 60.5855,-97 60.5855,-90.0786 56.0433,-86.3509 50.1028,-85.817"/>
<polygon fill="black" stroke="black" points="49.2985,-82.4051 40.0685,-87.6067 50.5277,-89.2963 49.2985,-82.4051"/>
</g>
</g>
</svg>
