<?xml version="1.0" encoding="UTF-8" standalone="no"?>
<!DOCTYPE svg PUBLIC "-//W3C//DTD SVG 1.1//EN"
 "http://www.w3.org/Graphics/SVG/1.1/DTD/svg11.dtd">
<!-- Generated by graphviz version 2.36.0 (20140111.2315)
 -->
<!-- Title: G Pages: 1 -->
<svg width="206pt" height="124pt"
 viewBox="0.00 0.00 206.00 124.00" xmlns="http://www.w3.org/2000/svg" xmlns:xlink="http://www.w3.org/1999/xlink">
<g id="graph0" class="graph" transform="scale(1 1) rotate(0) translate(4 120)">
<title>G</title>
<polygon fill="white" stroke="none" points="-4,4 -4,-120 202,-120 202,4 -4,4"/>
<g id="clust1" class="cluster"><title>cluster_inputs</title>
<polygon fill="none" stroke="white" points="8,-74 8,-108 163,-108 163,-74 8,-74"/>
</g>
<g id="clust2" class="cluster"><title>cluster_outputs</title>
<polygon fill="none" stroke="white" points="29,-8 29,-54 93,-54 93,-8 29,-8"/>
</g>
<!-- 1 -->
<g id="node1" class="node"><title>1</title>
<polygon fill="lightgrey" stroke="black" points="37.25,-100 16.75,-100 16.75,-82 37.25,-82 37.25,-100"/>
<text text-anchor="middle" x="27" y="-88.8" font-family="Times,serif" font-size="9.00">1</text>
</g>
<!-- 5 -->
<g id="node5" class="node"><title>5</title>
<ellipse fill="lightblue" stroke="lightblue" cx="52" cy="-31" rx="14.2796" ry="14.7"/>
<text text-anchor="middle" x="52" y="-28.8" font-family="Times,serif" font-size="9.00">5</text>
</g>
<!-- 1&#45;&gt;5 -->
<g id="edge7" class="edge"><title>1&#45;&gt;5</title>
<path fill="none" stroke="black" d="M30.4761,-81.9353C33.5754,-74.7451 38.2594,-63.8783 42.4672,-54.1161"/>
<polygon fill="black" stroke="black" points="45.6958,-55.4678 46.44,-44.8991 39.2676,-52.6969 45.6958,-55.4678"/>
</g>
<!-- 2 -->
<g id="node2" class="node"><title>2</title>
<polygon fill="lightgrey" stroke="black" points="76.25,-100 55.75,-100 55.75,-82 76.25,-82 76.25,-100"/>
<text text-anchor="middle" x="66" y="-88.8" font-family="Times,serif" font-size="9.00">2</text>
</g>
<!-- 2&#45;&gt;5 -->
<g id="edge12" class="edge"><title>2&#45;&gt;5</title>
<path fill="none" stroke="black" d="M64.0534,-81.9353C62.4157,-75.1507 59.9879,-65.0926 57.7395,-55.7779"/>
<polygon fill="black" stroke="black" points="61.0777,-54.6907 55.3289,-45.7912 54.2731,-56.3332 61.0777,-54.6907"/>
</g>
<!-- 6 -->
<g id="node6" class="node"><title>6</title>
<ellipse fill="none" stroke="black" cx="118" cy="-31" rx="14.2796" ry="14.7"/>
<text text-anchor="middle" x="118" y="-28.8" font-family="Times,serif" font-size="9.00">6</text>
</g>
<!-- 2&#45;&gt;6 -->
<g id="edge1" class="edge"><title>2&#45;&gt;6</title>
<path fill="none" stroke="black" d="M73.2304,-81.9353C80.5245,-73.7996 92.0386,-60.9569 101.563,-50.3332"/>
<polygon fill="black" stroke="black" points="104.287,-52.5386 108.356,-42.7565 99.0748,-47.8658 104.287,-52.5386"/>
</g>
<!-- 3 -->
<g id="node3" class="node"><title>3</title>
<polygon fill="lightgrey" stroke="black" points="154.25,-100 133.75,-100 133.75,-82 154.25,-82 154.25,-100"/>
<text text-anchor="middle" x="144" y="-88.8" font-family="Times,serif" font-size="9.00">3</text>
</g>
<!-- 3&#45;&gt;5 -->
<g id="edge14" class="edge"><title>3&#45;&gt;5</title>
<path fill="none" stroke="black" d="M134.453,-81.8929C131.212,-79.2691 127.52,-76.4153 124,-74 107.713,-62.8235 88.3242,-51.6249 73.7723,-43.6052"/>
<polygon fill="black" stroke="black" points="75.0254,-40.3026 64.5682,-38.6004 71.6814,-46.4523 75.0254,-40.3026"/>
</g>
<!-- 3&#45;&gt;6 -->
<g id="edge9" class="edge"><title>3&#45;&gt;6</title>
<path fill="none" stroke="black" d="M140.385,-81.9353C137.162,-74.7451 132.29,-63.8783 127.914,-54.1161"/>
<polygon fill="black" stroke="black" points="131.067,-52.5925 123.782,-44.8991 124.679,-55.4559 131.067,-52.5925"/>
</g>
<!-- 7 -->
<g id="node7" class="node"><title>7</title>
<ellipse fill="none" stroke="black" cx="184" cy="-31" rx="14.2796" ry="14.7"/>
<text text-anchor="middle" x="184" y="-28.8" font-family="Times,serif" font-size="9.00">7</text>
</g>
<!-- 3&#45;&gt;7 -->
<g id="edge11" class="edge"><title>3&#45;&gt;7</title>
<path fill="none" stroke="black" d="M149.562,-81.9353C154.875,-74.2315 163.099,-62.3071 170.177,-52.0428"/>
<polygon fill="black" stroke="black" points="173.205,-53.817 176.002,-43.5978 167.443,-49.8428 173.205,-53.817"/>
</g>
<!-- 4 -->
<g id="node4" class="node"><title>4</title>
<polygon fill="lightgrey" stroke="black" points="115.25,-100 94.75,-100 94.75,-82 115.25,-82 115.25,-100"/>
<text text-anchor="middle" x="105" y="-88.8" font-family="Times,serif" font-size="9.00">4</text>
</g>
<!-- 4&#45;&gt;5 -->
<g id="edge10" class="edge"><title>4&#45;&gt;5</title>
<path fill="none" stroke="cornflowerblue" stroke-dasharray="1,5" d="M97.6306,-81.9353C90.1056,-73.7004 78.1737,-60.643 68.3985,-49.9455"/>
<polygon fill="cornflowerblue" stroke="cornflowerblue" points="70.7819,-47.3653 61.4524,-42.3442 65.6144,-52.0873 70.7819,-47.3653"/>
</g>
<!-- 4&#45;&gt;6 -->
<g id="edge2" class="edge"><title>4&#45;&gt;6</title>
<path fill="none" stroke="black" d="M106.808,-81.9353C108.328,-75.1507 110.583,-65.0926 112.67,-55.7779"/>
<polygon fill="black" stroke="black" points="116.137,-56.3146 114.909,-45.7912 109.306,-54.7835 116.137,-56.3146"/>
</g>
<!-- 5&#45;&gt;5 -->
<g id="edge6" class="edge"><title>5&#45;&gt;5</title>
<path fill="none" stroke="cornflowerblue" stroke-dasharray="1,5" d="M63.483,-40.3933C73.4531,-44.678 84,-41.5469 84,-31 84,-24.0786 79.4578,-20.3509 73.5173,-19.817"/>
<polygon fill="cornflowerblue" stroke="cornflowerblue" points="72.7131,-16.4051 63.483,-21.6067 73.9423,-23.2963 72.7131,-16.4051"/>
</g>
<!-- 5&#45;&gt;6 -->
<g id="edge4" class="edge"><title>5&#45;&gt;6</title>
<path fill="none" stroke="black" d="M66.4375,-31C75.4131,-31 84.3887,-31 93.3643,-31"/>
<polygon fill="black" stroke="black" points="93.4981,-34.5001 103.498,-31 93.498,-27.5001 93.4981,-34.5001"/>
</g>
<!-- 5&#45;&gt;7 -->
<g id="edge5" class="edge"><title>5&#45;&gt;7</title>
<path fill="none" stroke="black" d="M63.1872,-40.9836C72.9267,-48.9601 87.8286,-59.5197 103,-64 123.034,-69.9162 130.642,-71.8496 150,-64 156.966,-61.1755 163.29,-56.163 168.544,-50.8844"/>
<polygon fill="black" stroke="black" points="171.372,-52.9727 175.426,-43.184 166.152,-48.3083 171.372,-52.9727"/>
</g>
<!-- 6&#45;&gt;5 -->
<g id="edge13" class="edge"><title>6&#45;&gt;5</title>
<path fill="none" stroke="black" d="M103.498,-31C94.5224,-31 85.5468,-31 76.5712,-31"/>
<polygon fill="black" stroke="black" points="76.4375,-27.5001 66.4375,-31 76.4375,-34.5001 76.4375,-27.5001"/>
</g>
<!-- 6&#45;&gt;6 -->
<g id="edge3" class="edge"><title>6&#45;&gt;6</title>
<path fill="none" stroke="black" d="M129.483,-40.3933C139.453,-44.678 150,-41.5469 150,-31 150,-24.0786 145.458,-20.3509 139.517,-19.817"/>
<polygon fill="black" stroke="black" points="138.713,-16.4051 129.483,-21.6067 139.942,-23.2963 138.713,-16.4051"/>
</g>
<!-- 7&#45;&gt;5 -->
<g id="edge8" class="edge"><title>7&#45;&gt;5</title>
<path fill="none" stroke="black" d="M175.426,-43.184C169.315,-50.7453 160.367,-59.7961 150,-64 130.642,-71.8496 123.034,-69.9162 103,-64 91.5029,-60.6048 80.1606,-53.7183 71.1025,-47.1105"/>
<polygon fill="black" stroke="black" points="73.2374,-44.337 63.1872,-40.9836 68.9526,-49.8724 73.2374,-44.337"/>
</g>
</g>
</svg>
