<?xml version="1.0" encoding="UTF-8" standalone="no"?>
<!DOCTYPE svg PUBLIC "-//W3C//DTD SVG 1.1//EN"
 "http://www.w3.org/Graphics/SVG/1.1/DTD/svg11.dtd">
<!-- Generated by graphviz version 2.36.0 (20140111.2315)
 -->
<!-- Title: G Pages: 1 -->
<svg width="1524pt" height="602pt"
 viewBox="0.00 0.00 1524.00 602.00" xmlns="http://www.w3.org/2000/svg" xmlns:xlink="http://www.w3.org/1999/xlink">
<g id="graph0" class="graph" transform="scale(1 1) rotate(0) translate(4 598)">
<title>G</title>
<polygon fill="white" stroke="none" points="-4,4 -4,-598 1520,-598 1520,4 -4,4"/>
<g id="clust1" class="cluster"><title>cluster_inputs</title>
<polygon fill="none" stroke="white" points="868,-552 868,-586 1023,-586 1023,-552 868,-552"/>
</g>
<g id="clust2" class="cluster"><title>cluster_outputs</title>
<polygon fill="none" stroke="white" points="342,-280 342,-326 406,-326 406,-280 342,-280"/>
</g>
<!-- 1 -->
<g id="node1" class="node"><title>1</title>
<polygon fill="lightgrey" stroke="black" points="897.25,-578 876.75,-578 876.75,-560 897.25,-560 897.25,-578"/>
<text text-anchor="middle" x="887" y="-566.8" font-family="Times,serif" font-size="9.00">1</text>
</g>
<!-- 5 -->
<g id="node5" class="node"><title>5</title>
<ellipse fill="lightblue" stroke="lightblue" cx="365" cy="-303" rx="14.2796" ry="14.7"/>
<text text-anchor="middle" x="365" y="-300.8" font-family="Times,serif" font-size="9.00">5</text>
</g>
<!-- 1&#45;&gt;5 -->
<g id="edge37" class="edge"><title>1&#45;&gt;5</title>
<path fill="none" stroke="black" d="M876.689,-568.154C795.452,-569.26 260.401,-574.597 213,-524 188.512,-497.862 101.149,-509.074 214,-354 243.031,-314.107 305.088,-305.543 339.933,-304.01"/>
<polygon fill="black" stroke="black" points="340.313,-307.501 350.214,-303.729 340.122,-300.504 340.313,-307.501"/>
</g>
<!-- 6 -->
<g id="node6" class="node"><title>6</title>
<ellipse fill="none" stroke="black" cx="809" cy="-509" rx="14.2796" ry="14.7"/>
<text text-anchor="middle" x="809" y="-506.8" font-family="Times,serif" font-size="9.00">6</text>
</g>
<!-- 1&#45;&gt;6 -->
<g id="edge5" class="edge"><title>1&#45;&gt;6</title>
<path fill="none" stroke="black" d="M876.481,-560.178C864.245,-551.079 843.785,-535.866 828.595,-524.571"/>
<polygon fill="black" stroke="black" points="830.476,-521.608 820.363,-518.449 826.299,-527.225 830.476,-521.608"/>
</g>
<!-- 9 -->
<g id="node7" class="node"><title>9</title>
<ellipse fill="none" stroke="black" cx="943" cy="-443" rx="14.2796" ry="14.7"/>
<text text-anchor="middle" x="943" y="-440.8" font-family="Times,serif" font-size="9.00">9</text>
</g>
<!-- 1&#45;&gt;9 -->
<g id="edge66" class="edge"><title>1&#45;&gt;9</title>
<path fill="none" stroke="black" d="M890.674,-559.864C899.126,-541.149 920.193,-494.502 932.868,-466.435"/>
<polygon fill="black" stroke="black" points="936.193,-467.576 937.119,-457.021 929.814,-464.694 936.193,-467.576"/>
</g>
<!-- 11 -->
<g id="node8" class="node"><title>11</title>
<ellipse fill="none" stroke="black" cx="518" cy="-159" rx="18.0791" ry="18.2703"/>
<text text-anchor="middle" x="518" y="-156.8" font-family="Times,serif" font-size="9.00">11</text>
</g>
<!-- 1&#45;&gt;11 -->
<g id="edge8" class="edge"><title>1&#45;&gt;11</title>
<path fill="none" stroke="black" d="M876.732,-567.885C793.437,-566.885 229.852,-558.858 164,-524 98.4732,-489.314 85.9508,-462.166 62,-392 33.2975,-307.914 71.3877,-249.125 153,-214 270.362,-163.489 426.419,-158.907 489.627,-159.347"/>
<polygon fill="black" stroke="black" points="489.598,-162.847 499.639,-159.466 489.681,-155.847 489.598,-162.847"/>
</g>
<!-- 7 -->
<g id="node9" class="node"><title>7</title>
<ellipse fill="none" stroke="black" cx="594" cy="-15" rx="14.2796" ry="14.7"/>
<text text-anchor="middle" x="594" y="-12.8" font-family="Times,serif" font-size="9.00">7</text>
</g>
<!-- 1&#45;&gt;7 -->
<g id="edge73" class="edge"><title>1&#45;&gt;7</title>
<path fill="none" stroke="black" d="M876.668,-567.751C790.343,-565.629 190.346,-550.007 115,-524 56.1455,-503.685 0,-506.262 0,-444 0,-444 0,-444 0,-158 0,-38.96 456.971,-19.4987 569.291,-16.5132"/>
<polygon fill="black" stroke="black" points="569.7,-20.0043 579.611,-16.2605 569.528,-13.0064 569.7,-20.0043"/>
</g>
<!-- 12 -->
<g id="node10" class="node"><title>12</title>
<ellipse fill="none" stroke="black" cx="773" cy="-85" rx="18.0791" ry="18.2703"/>
<text text-anchor="middle" x="773" y="-82.8" font-family="Times,serif" font-size="9.00">12</text>
</g>
<!-- 1&#45;&gt;12 -->
<g id="edge28" class="edge"><title>1&#45;&gt;12</title>
<path fill="none" stroke="black" d="M876.64,-567.078C855.225,-564.554 806.31,-555.454 785,-524 739.628,-457.03 761.361,-199.034 770.017,-113.631"/>
<polygon fill="black" stroke="black" points="773.525,-113.734 771.073,-103.426 766.562,-113.013 773.525,-113.734"/>
</g>
<!-- 8 -->
<g id="node11" class="node"><title>8</title>
<ellipse fill="none" stroke="black" cx="986" cy="-303" rx="14.2796" ry="14.7"/>
<text text-anchor="middle" x="986" y="-300.8" font-family="Times,serif" font-size="9.00">8</text>
</g>
<!-- 1&#45;&gt;8 -->
<g id="edge100" class="edge"><title>1&#45;&gt;8</title>
<path fill="none" stroke="black" d="M887.929,-559.83C890.628,-537.834 899.539,-475.8 919,-428 926.07,-410.633 931.836,-408.359 941,-392 953.453,-369.769 966.601,-343.718 975.447,-325.76"/>
<polygon fill="black" stroke="black" points="978.633,-327.211 979.887,-316.691 972.346,-324.133 978.633,-327.211"/>
</g>
<!-- 10 -->
<g id="node12" class="node"><title>10</title>
<ellipse fill="none" stroke="black" cx="1144" cy="-373" rx="18.0791" ry="18.2703"/>
<text text-anchor="middle" x="1144" y="-370.8" font-family="Times,serif" font-size="9.00">10</text>
</g>
<!-- 1&#45;&gt;10 -->
<g id="edge39" class="edge"><title>1&#45;&gt;10</title>
<path fill="none" stroke="black" d="M896.536,-559.7C899.523,-557.173 902.86,-554.425 906,-552 963.291,-507.759 981.157,-501.517 1039,-458 1068.35,-435.92 1101.28,-409.254 1122.31,-391.978"/>
<polygon fill="black" stroke="black" points="1124.79,-394.469 1130.28,-385.408 1120.34,-389.067 1124.79,-394.469"/>
</g>
<!-- 13 -->
<g id="node13" class="node"><title>13</title>
<ellipse fill="none" stroke="black" cx="725" cy="-233" rx="18.0791" ry="18.2703"/>
<text text-anchor="middle" x="725" y="-230.8" font-family="Times,serif" font-size="9.00">13</text>
</g>
<!-- 1&#45;&gt;13 -->
<g id="edge90" class="edge"><title>1&#45;&gt;13</title>
<path fill="none" stroke="black" d="M876.429,-568.065C799.744,-568.428 330.629,-568.804 289,-524 237.175,-468.221 321.785,-469.789 384,-428 434.144,-394.319 445.913,-384.59 498,-354 569.678,-311.904 657.377,-267.464 699.726,-246.43"/>
<polygon fill="black" stroke="black" points="701.359,-249.527 708.767,-241.954 698.253,-243.254 701.359,-249.527"/>
</g>
<!-- 2 -->
<g id="node2" class="node"><title>2</title>
<polygon fill="lightgrey" stroke="black" points="975.25,-578 954.75,-578 954.75,-560 975.25,-560 975.25,-578"/>
<text text-anchor="middle" x="965" y="-566.8" font-family="Times,serif" font-size="9.00">2</text>
</g>
<!-- 2&#45;&gt;5 -->
<g id="edge7" class="edge"><title>2&#45;&gt;5</title>
<path fill="none" stroke="black" d="M957.169,-559.87C953.742,-556.842 949.482,-553.725 945,-552 848.18,-514.739 565.983,-580.537 479,-524 408.563,-478.217 379.251,-374.26 369.309,-327.527"/>
<polygon fill="black" stroke="black" points="372.736,-326.813 367.328,-317.702 365.874,-328.196 372.736,-326.813"/>
</g>
<!-- 2&#45;&gt;6 -->
<g id="edge21" class="edge"><title>2&#45;&gt;6</title>
<path fill="none" stroke="black" d="M956.148,-559.736C952.841,-556.978 948.929,-554.081 945,-552 908.372,-532.598 861.357,-520.59 833.291,-514.616"/>
<polygon fill="black" stroke="black" points="833.682,-511.124 823.184,-512.553 832.282,-517.982 833.682,-511.124"/>
</g>
<!-- 2&#45;&gt;9 -->
<g id="edge84" class="edge"><title>2&#45;&gt;9</title>
<path fill="none" stroke="black" d="M963.557,-559.864C960.285,-541.422 952.201,-495.858 947.201,-467.676"/>
<polygon fill="black" stroke="black" points="950.645,-467.053 945.452,-457.819 943.752,-468.276 950.645,-467.053"/>
</g>
<!-- 2&#45;&gt;11 -->
<g id="edge29" class="edge"><title>2&#45;&gt;11</title>
<path fill="none" stroke="black" d="M957.173,-559.86C953.746,-556.831 949.486,-553.715 945,-552 840.431,-512.021 552.704,-540.664 442,-524 381.775,-514.934 224.639,-494.654 176,-458 136.699,-428.383 115.022,-397.517 138,-354 163.758,-305.218 293.308,-237.957 343,-214 392.445,-190.162 454.788,-173.917 490.146,-165.865"/>
<polygon fill="black" stroke="black" points="491.206,-169.215 500.209,-163.63 489.688,-162.382 491.206,-169.215"/>
</g>
<!-- 2&#45;&gt;7 -->
<g id="edge47" class="edge"><title>2&#45;&gt;7</title>
<path fill="none" stroke="black" d="M972.422,-559.993C975.675,-556.984 979.725,-553.848 984,-552 1082.57,-509.389 1130.77,-577.295 1224,-524 1274.21,-495.296 1364,-330.755 1364,-304 1364,-304 1364,-304 1364,-158 1364,-48.7281 1242.2,-91.7363 1136,-66 940.8,-18.6948 696.115,-15.4742 618.674,-15.7439"/>
<polygon fill="black" stroke="black" points="618.467,-12.2449 608.488,-15.8042 618.508,-19.2448 618.467,-12.2449"/>
</g>
<!-- 2&#45;&gt;12 -->
<g id="edge35" class="edge"><title>2&#45;&gt;12</title>
<path fill="none" stroke="black" d="M972.801,-559.691C975.992,-556.791 979.897,-553.811 984,-552 1027.47,-532.814 1161.83,-557.029 1196,-524 1318.84,-405.249 1331.72,-263.826 1214,-140 1185.47,-109.988 894.481,-92.3286 801.441,-87.4167"/>
<polygon fill="black" stroke="black" points="801.517,-83.9161 791.349,-86.8933 801.154,-90.9067 801.517,-83.9161"/>
</g>
<!-- 2&#45;&gt;8 -->
<g id="edge54" class="edge"><title>2&#45;&gt;8</title>
<path fill="none" stroke="black" d="M972.817,-559.727C976.01,-556.831 979.912,-553.845 984,-552 1061,-517.255 1112.86,-584.322 1172,-524 1213.41,-481.762 1185.21,-451.03 1189,-392 1190.08,-375.146 1199.42,-367.294 1189,-354 1167.04,-325.978 1059.54,-311.542 1010.49,-306.325"/>
<polygon fill="black" stroke="black" points="1010.73,-302.831 1000.42,-305.298 1010.02,-309.795 1010.73,-302.831"/>
</g>
<!-- 2&#45;&gt;10 -->
<g id="edge93" class="edge"><title>2&#45;&gt;10</title>
<path fill="none" stroke="black" d="M972.836,-559.769C976.031,-556.878 979.93,-553.884 984,-552 1051.9,-520.572 1101.69,-581.136 1150,-524 1179.28,-489.369 1165.98,-432.519 1154.46,-399.652"/>
<polygon fill="black" stroke="black" points="1157.75,-398.437 1151,-390.273 1151.18,-400.866 1157.75,-398.437"/>
</g>
<!-- 3 -->
<g id="node3" class="node"><title>3</title>
<polygon fill="lightgrey" stroke="black" points="1014.25,-578 993.75,-578 993.75,-560 1014.25,-560 1014.25,-578"/>
<text text-anchor="middle" x="1004" y="-566.8" font-family="Times,serif" font-size="9.00">3</text>
</g>
<!-- 3&#45;&gt;5 -->
<g id="edge46" class="edge"><title>3&#45;&gt;5</title>
<path fill="none" stroke="cornflowerblue" stroke-dasharray="1,5" d="M995.711,-559.714C992.343,-556.816 988.246,-553.832 984,-552 901.99,-516.622 872.186,-543.388 785,-524 687.427,-502.302 659.07,-503.364 570,-458 493.941,-419.263 416.81,-352.156 382.884,-320.912"/>
<polygon fill="cornflowerblue" stroke="cornflowerblue" points="384.923,-318.028 375.217,-313.78 380.155,-323.154 384.923,-318.028"/>
</g>
<!-- 3&#45;&gt;6 -->
<g id="edge38" class="edge"><title>3&#45;&gt;6</title>
<path fill="none" stroke="black" d="M995.613,-559.926C992.233,-557.055 988.154,-554.033 984,-552 933.86,-527.461 868.468,-516.717 833.535,-512.465"/>
<polygon fill="black" stroke="black" points="833.653,-508.956 823.321,-511.303 832.862,-515.911 833.653,-508.956"/>
</g>
<!-- 3&#45;&gt;9 -->
<g id="edge65" class="edge"><title>3&#45;&gt;9</title>
<path fill="none" stroke="black" d="M1000.22,-559.738C993.902,-546.013 980.751,-517.678 969,-494 964.273,-484.474 958.873,-474.025 954.224,-465.152"/>
<polygon fill="black" stroke="black" points="957.298,-463.479 949.541,-456.263 951.105,-466.741 957.298,-463.479"/>
</g>
<!-- 3&#45;&gt;11 -->
<g id="edge33" class="edge"><title>3&#45;&gt;11</title>
<path fill="none" stroke="black" d="M996.148,-559.924C992.717,-556.905 988.461,-553.779 984,-552 846.871,-497.298 796.022,-560.624 653,-524 512.672,-488.066 456.619,-495.232 355,-392 299.278,-335.394 308.614,-263.164 371,-214 406.685,-185.878 458.42,-171.461 490.045,-164.839"/>
<polygon fill="black" stroke="black" points="490.815,-168.255 499.947,-162.883 489.458,-161.387 490.815,-168.255"/>
</g>
<!-- 3&#45;&gt;7 -->
<g id="edge6" class="edge"><title>3&#45;&gt;7</title>
<path fill="none" stroke="black" d="M1014.52,-567.77C1072.04,-566.386 1348.83,-558.026 1426,-524 1474.97,-502.409 1516,-497.518 1516,-444 1516,-444 1516,-444 1516,-158 1516,-35.0045 1375.36,-91.3022 1255,-66 1010.91,-14.6895 706.352,-14.4214 618.659,-15.5465"/>
<polygon fill="black" stroke="black" points="618.566,-12.0474 608.619,-15.6947 618.669,-19.0467 618.566,-12.0474"/>
</g>
<!-- 3&#45;&gt;12 -->
<g id="edge27" class="edge"><title>3&#45;&gt;12</title>
<path fill="none" stroke="black" d="M1014.52,-567.492C1067.49,-564.825 1305.13,-551.492 1373,-524 1427.38,-501.973 1478,-502.668 1478,-444 1478,-444 1478,-444 1478,-232 1478,-91.4288 933.759,-85.1669 801.639,-85.7178"/>
<polygon fill="black" stroke="black" points="801.474,-82.2186 791.495,-85.7775 801.515,-89.2185 801.474,-82.2186"/>
</g>
<!-- 3&#45;&gt;8 -->
<g id="edge99" class="edge"><title>3&#45;&gt;8</title>
<path fill="none" stroke="black" d="M1014.37,-567.721C1056.76,-566.351 1216.27,-558.917 1249,-524 1300.87,-468.664 1312.66,-412.187 1264,-354 1231.73,-315.406 1072.61,-306.558 1010.7,-304.566"/>
<polygon fill="black" stroke="black" points="1010.75,-301.066 1000.65,-304.277 1010.55,-308.063 1010.75,-301.066"/>
</g>
<!-- 3&#45;&gt;10 -->
<g id="edge60" class="edge"><title>3&#45;&gt;10</title>
<path fill="none" stroke="black" d="M1014.31,-567.616C1054.33,-565.889 1198.57,-557.4 1226,-524 1253.08,-491.028 1246.24,-465.561 1226,-428 1214.36,-406.404 1189.9,-392.024 1170.7,-383.571"/>
<polygon fill="black" stroke="black" points="1171.82,-380.247 1161.24,-379.684 1169.16,-386.722 1171.82,-380.247"/>
</g>
<!-- 14 -->
<g id="node14" class="node"><title>14</title>
<ellipse fill="none" stroke="black" cx="1187" cy="-159" rx="18.0791" ry="18.2703"/>
<text text-anchor="middle" x="1187" y="-156.8" font-family="Times,serif" font-size="9.00">14</text>
</g>
<!-- 3&#45;&gt;14 -->
<g id="edge82" class="edge"><title>3&#45;&gt;14</title>
<path fill="none" stroke="black" d="M1014.35,-567.37C1080.37,-563.075 1440,-535.484 1440,-444 1440,-444 1440,-444 1440,-302 1440,-199.894 1281.36,-170.456 1215.32,-162.624"/>
<polygon fill="black" stroke="black" points="1215.52,-159.125 1205.2,-161.508 1214.75,-166.083 1215.52,-159.125"/>
</g>
<!-- 4 -->
<g id="node4" class="node"><title>4</title>
<polygon fill="lightgrey" stroke="black" points="936.25,-578 915.75,-578 915.75,-560 936.25,-560 936.25,-578"/>
<text text-anchor="middle" x="926" y="-566.8" font-family="Times,serif" font-size="9.00">4</text>
</g>
<!-- 4&#45;&gt;5 -->
<g id="edge23" class="edge"><title>4&#45;&gt;5</title>
<path fill="none" stroke="black" d="M918.176,-559.851C914.75,-556.82 910.489,-553.706 906,-552 793.471,-509.229 480.351,-558.443 365,-524 301.856,-505.145 228.2,-489.451 252,-428 270.712,-379.685 317.983,-338.641 345.086,-318.093"/>
<polygon fill="black" stroke="black" points="347.469,-320.685 353.435,-311.93 343.311,-315.054 347.469,-320.685"/>
</g>
<!-- 4&#45;&gt;6 -->
<g id="edge49" class="edge"><title>4&#45;&gt;6</title>
<path fill="none" stroke="black" d="M917.016,-559.971C913.695,-557.235 909.81,-554.293 906,-552 882.032,-537.578 852.216,-525.44 832.015,-517.979"/>
<polygon fill="black" stroke="black" points="833.003,-514.615 822.408,-514.517 830.629,-521.2 833.003,-514.615"/>
</g>
<!-- 4&#45;&gt;9 -->
<g id="edge83" class="edge"><title>4&#45;&gt;9</title>
<path fill="none" stroke="black" d="M927.115,-559.864C929.633,-541.503 935.835,-496.259 939.703,-468.049"/>
<polygon fill="black" stroke="black" points="943.215,-468.201 941.106,-457.819 936.28,-467.25 943.215,-468.201"/>
</g>
<!-- 4&#45;&gt;11 -->
<g id="edge45" class="edge"><title>4&#45;&gt;11</title>
<path fill="none" stroke="black" d="M918.183,-559.835C914.757,-556.802 910.495,-553.69 906,-552 775.034,-502.762 412.775,-557.787 277,-524 210.636,-507.485 188.232,-504.408 138,-458 101.854,-424.606 78.8597,-398.439 100,-354 147.396,-254.369 202.81,-255.593 305,-214 368.872,-188.003 448.743,-171.795 490.173,-164.514"/>
<polygon fill="black" stroke="black" points="490.817,-167.955 500.082,-162.815 489.634,-161.056 490.817,-167.955"/>
</g>
<!-- 4&#45;&gt;7 -->
<g id="edge75" class="edge"><title>4&#45;&gt;7</title>
<path fill="none" stroke="black" d="M918.169,-559.87C914.742,-556.843 910.482,-553.725 906,-552 857.799,-533.443 477.405,-561.605 442,-524 430.034,-511.29 365.244,-459.442 491,-140 508.974,-94.3434 550.641,-53.0622 575.116,-31.5787"/>
<polygon fill="black" stroke="black" points="577.674,-33.9957 582.99,-24.8306 573.119,-28.6808 577.674,-33.9957"/>
</g>
<!-- 4&#45;&gt;8 -->
<g id="edge53" class="edge"><title>4&#45;&gt;8</title>
<path fill="none" stroke="black" d="M932.071,-559.792C949.483,-535.653 999.339,-462.178 1015,-392 1018.68,-375.517 1019.39,-370.309 1015,-354 1012.1,-343.212 1006.24,-332.351 1000.54,-323.521"/>
<polygon fill="black" stroke="black" points="1003.33,-321.407 994.787,-315.142 997.559,-325.368 1003.33,-321.407"/>
</g>
<!-- 4&#45;&gt;10 -->
<g id="edge20" class="edge"><title>4&#45;&gt;10</title>
<path fill="none" stroke="black" d="M933.835,-559.767C937.03,-556.875 940.929,-553.882 945,-552 1013.31,-520.422 1057.62,-576.03 1112,-524 1145.16,-492.272 1148.17,-435.278 1146.6,-401.419"/>
<polygon fill="black" stroke="black" points="1150.09,-401.059 1145.97,-391.3 1143.1,-401.5 1150.09,-401.059"/>
</g>
<!-- 4&#45;&gt;14 -->
<g id="edge92" class="edge"><title>4&#45;&gt;14</title>
<path fill="none" stroke="black" d="M933.815,-559.722C937.007,-556.826 940.91,-553.84 945,-552 1023.24,-516.802 1068.61,-577.095 1136,-524 1239.22,-442.68 1209.38,-256.654 1193.76,-186.995"/>
<polygon fill="black" stroke="black" points="1197.16,-186.165 1191.48,-177.217 1190.34,-187.75 1197.16,-186.165"/>
</g>
<!-- 5&#45;&gt;5 -->
<g id="edge13" class="edge"><title>5&#45;&gt;5</title>
<path fill="none" stroke="black" d="M375.488,-313.43C385.738,-319.192 397,-315.715 397,-303 397,-294.457 391.916,-290.085 385.471,-289.882"/>
<polygon fill="black" stroke="black" points="384.235,-286.591 375.488,-292.57 386.054,-293.35 384.235,-286.591"/>
</g>
<!-- 5&#45;&gt;6 -->
<g id="edge78" class="edge"><title>5&#45;&gt;6</title>
<path fill="none" stroke="black" d="M378.895,-308.171C402.348,-315.528 450.859,-332.123 488,-354 551.456,-391.376 551.228,-424.868 617,-458 673.277,-486.349 747.171,-499.715 784.764,-505.034"/>
<polygon fill="black" stroke="black" points="784.406,-508.518 794.783,-506.381 785.339,-501.58 784.406,-508.518"/>
</g>
<!-- 5&#45;&gt;9 -->
<g id="edge74" class="edge"><title>5&#45;&gt;9</title>
<path fill="none" stroke="black" d="M379.331,-306.29C416.507,-312.388 518.928,-330.192 602,-354 649.307,-367.558 658.693,-378.442 706,-392 782.582,-413.948 875.608,-430.794 918.801,-438.069"/>
<polygon fill="black" stroke="black" points="918.23,-441.522 928.669,-439.71 919.378,-434.617 918.23,-441.522"/>
</g>
<!-- 5&#45;&gt;11 -->
<g id="edge22" class="edge"><title>5&#45;&gt;11</title>
<path fill="none" stroke="black" d="M378.207,-296.562C396.293,-288.665 429.127,-272.679 452,-252 473.777,-232.312 492.608,-204.284 504.518,-184.348"/>
<polygon fill="black" stroke="black" points="507.634,-185.953 509.641,-175.55 501.584,-182.431 507.634,-185.953"/>
</g>
<!-- 5&#45;&gt;7 -->
<g id="edge51" class="edge"><title>5&#45;&gt;7</title>
<path fill="none" stroke="black" d="M350.583,-300.317C325.038,-296.54 271.9,-284.965 244,-252 190.575,-188.877 179.919,-123.863 239,-66 285.948,-20.0203 496.977,-15.8744 569.463,-15.8327"/>
<polygon fill="black" stroke="black" points="569.482,-19.3326 579.49,-15.8536 569.497,-12.3326 569.482,-19.3326"/>
</g>
<!-- 5&#45;&gt;12 -->
<g id="edge85" class="edge"><title>5&#45;&gt;12</title>
<path fill="none" stroke="black" d="M378.327,-296.953C400.433,-288.449 445.924,-270.385 483,-252 584.803,-201.519 700.596,-131.105 749.371,-100.815"/>
<polygon fill="black" stroke="black" points="751.308,-103.732 757.945,-95.4743 747.607,-97.7906 751.308,-103.732"/>
</g>
<!-- 5&#45;&gt;8 -->
<g id="edge10" class="edge"><title>5&#45;&gt;8</title>
<path fill="none" stroke="black" d="M379.555,-303C573.495,-303 767.434,-303 961.374,-303"/>
<polygon fill="black" stroke="black" points="961.49,-306.5 971.49,-303 961.49,-299.5 961.49,-306.5"/>
</g>
<!-- 5&#45;&gt;10 -->
<g id="edge48" class="edge"><title>5&#45;&gt;10</title>
<path fill="none" stroke="black" d="M379.374,-305.441C472.465,-314.089 987.774,-359.086 1115.45,-369.738"/>
<polygon fill="black" stroke="black" points="1115.35,-373.241 1125.61,-370.58 1115.93,-366.265 1115.35,-373.241"/>
</g>
<!-- 5&#45;&gt;13 -->
<g id="edge55" class="edge"><title>5&#45;&gt;13</title>
<path fill="none" stroke="black" d="M377.899,-295.96C393.202,-291.017 418.521,-284.183 441,-280 547.88,-260.11 580.586,-285.532 684,-252 689.154,-250.329 694.413,-247.783 699.469,-245.128"/>
<polygon fill="black" stroke="black" points="701.129,-248.209 708.283,-240.395 697.817,-242.042 701.129,-248.209"/>
</g>
<!-- 6&#45;&gt;5 -->
<g id="edge69" class="edge"><title>6&#45;&gt;5</title>
<path fill="none" stroke="black" d="M794.646,-506.265C765.261,-502.15 697.056,-489.661 650,-458 600.237,-424.518 614.721,-386.012 564,-354 508.241,-318.808 429.08,-308.367 389.508,-305.283"/>
<polygon fill="black" stroke="black" points="389.664,-301.786 379.448,-304.594 389.186,-308.769 389.664,-301.786"/>
</g>
<!-- 6&#45;&gt;6 -->
<g id="edge77" class="edge"><title>6&#45;&gt;6</title>
<path fill="none" stroke="black" d="M820.483,-518.393C830.453,-522.678 841,-519.547 841,-509 841,-502.079 836.458,-498.351 830.517,-497.817"/>
<polygon fill="black" stroke="black" points="829.713,-494.405 820.483,-499.607 830.942,-501.296 829.713,-494.405"/>
</g>
<!-- 6&#45;&gt;9 -->
<g id="edge1" class="edge"><title>6&#45;&gt;9</title>
<path fill="none" stroke="black" d="M820.817,-500.152C843.281,-488.09 891.403,-465.08 920.243,-452.587"/>
<polygon fill="black" stroke="black" points="921.721,-455.762 929.566,-448.641 918.993,-449.315 921.721,-455.762"/>
</g>
<!-- 6&#45;&gt;7 -->
<g id="edge12" class="edge"><title>6&#45;&gt;7</title>
<path fill="none" stroke="black" d="M794.617,-507.22C733.724,-503.399 499.998,-485.712 433,-458 307.106,-405.926 273.501,-370.341 206,-252 165.004,-180.127 138.936,-123.947 198,-66 250.199,-14.7878 489.572,-14.3922 568.71,-15.5259"/>
<polygon fill="black" stroke="black" points="569.126,-19.0331 579.183,-15.6984 569.242,-12.034 569.126,-19.0331"/>
</g>
<!-- 6&#45;&gt;12 -->
<g id="edge95" class="edge"><title>6&#45;&gt;12</title>
<path fill="none" stroke="black" d="M805.614,-494.532C800.411,-446.214 799.674,-277.185 778,-140 776.603,-131.159 774.39,-121.663 772.556,-113.138"/>
<polygon fill="black" stroke="black" points="775.987,-112.445 770.587,-103.329 769.124,-113.823 775.987,-112.445"/>
</g>
<!-- 6&#45;&gt;10 -->
<g id="edge17" class="edge"><title>6&#45;&gt;10</title>
<path fill="none" stroke="black" d="M822.822,-503.804C852.01,-496.41 920.066,-479.762 975,-458 1034.51,-434.426 1046.65,-422.362 1103,-392 1107.65,-389.494 1112.64,-386.724 1117.58,-384.124"/>
<polygon fill="black" stroke="black" points="1119.52,-387.066 1126.88,-379.447 1116.37,-380.812 1119.52,-387.066"/>
</g>
<!-- 6&#45;&gt;13 -->
<g id="edge31" class="edge"><title>6&#45;&gt;13</title>
<path fill="none" stroke="black" d="M798.702,-498.075C792.988,-488.012 787.464,-471.974 783,-458 760.455,-387.422 735.998,-303.611 727.079,-261.319"/>
<polygon fill="black" stroke="black" points="730.512,-260.636 725.157,-251.495 723.642,-261.981 730.512,-260.636"/>
</g>
<!-- 9&#45;&gt;5 -->
<g id="edge102" class="edge"><title>9&#45;&gt;5</title>
<path fill="none" stroke="black" d="M928.688,-439.513C895.526,-433.515 811.139,-416.881 744,-392 708.589,-378.877 703.923,-365.65 668,-354 615.851,-337.088 451.95,-315.081 389.498,-307.079"/>
<polygon fill="black" stroke="black" points="389.754,-303.583 379.393,-305.793 388.871,-310.527 389.754,-303.583"/>
</g>
<!-- 9&#45;&gt;6 -->
<g id="edge68" class="edge"><title>9&#45;&gt;6</title>
<path fill="none" stroke="black" d="M931.242,-451.816C908.849,-463.845 860.821,-486.814 831.937,-499.336"/>
<polygon fill="black" stroke="black" points="830.435,-496.171 822.592,-503.294 833.165,-502.616 830.435,-496.171"/>
</g>
<!-- 9&#45;&gt;9 -->
<g id="edge30" class="edge"><title>9&#45;&gt;9</title>
<path fill="none" stroke="black" d="M953.819,-453.006C963.979,-458.195 975,-454.859 975,-443 975,-435.032 970.025,-430.912 963.679,-430.639"/>
<polygon fill="black" stroke="black" points="962.733,-427.267 953.819,-432.994 964.359,-434.075 962.733,-427.267"/>
</g>
<!-- 9&#45;&gt;11 -->
<g id="edge62" class="edge"><title>9&#45;&gt;11</title>
<path fill="none" stroke="black" d="M929.238,-437.742C866.071,-415.717 607.487,-313.383 549,-252 531.789,-233.937 521.315,-207.281 517.004,-187.305"/>
<polygon fill="black" stroke="black" points="520.422,-186.531 515.274,-177.271 513.524,-187.72 520.422,-186.531"/>
</g>
<!-- 9&#45;&gt;10 -->
<g id="edge94" class="edge"><title>9&#45;&gt;10</title>
<path fill="none" stroke="black" d="M955.657,-435.716C963.162,-433.299 972.511,-430.517 981,-428 1035.2,-411.93 1050.92,-413.998 1103,-392 1107.87,-389.945 1112.94,-387.333 1117.87,-384.742"/>
<polygon fill="black" stroke="black" points="1119.86,-387.655 1127.11,-379.934 1116.62,-381.445 1119.86,-387.655"/>
</g>
<!-- 11&#45;&gt;5 -->
<g id="edge14" class="edge"><title>11&#45;&gt;5</title>
<path fill="none" stroke="black" d="M504.298,-171.862C491.846,-182.705 473.028,-199.251 457,-214 430.767,-238.141 401.068,-266.796 382.686,-284.693"/>
<polygon fill="black" stroke="black" points="379.803,-282.615 375.089,-292.104 384.691,-287.626 379.803,-282.615"/>
</g>
<!-- 11&#45;&gt;6 -->
<g id="edge103" class="edge"><title>11&#45;&gt;6</title>
<path fill="none" stroke="black" d="M501.645,-167.15C480.762,-176.595 443.875,-194.346 415,-214 393.639,-228.539 390.629,-235.197 371,-252 356.388,-264.508 346.081,-262.545 338,-280 329.411,-298.553 327.722,-308.327 338,-326 432.899,-489.178 701.392,-506.613 784.302,-508.034"/>
<polygon fill="black" stroke="black" points="784.278,-511.534 794.315,-508.141 784.353,-504.535 784.278,-511.534"/>
</g>
<!-- 11&#45;&gt;9 -->
<g id="edge43" class="edge"><title>11&#45;&gt;9</title>
<path fill="none" stroke="black" d="M527.29,-175.175C535.003,-195.045 545.975,-229.934 567,-252 621.275,-308.963 847.867,-401.191 920.604,-431.78"/>
<polygon fill="black" stroke="black" points="919.607,-435.159 930.181,-435.834 922.337,-428.712 919.607,-435.159"/>
</g>
<!-- 11&#45;&gt;11 -->
<g id="edge2" class="edge"><title>11&#45;&gt;11</title>
<path fill="none" stroke="black" d="M532.042,-171.083C542.913,-175.602 554,-171.574 554,-159 554,-150.355 548.759,-145.75 541.952,-145.184"/>
<polygon fill="black" stroke="black" points="541.29,-141.747 532.042,-146.917 542.495,-148.642 541.29,-141.747"/>
</g>
<!-- 11&#45;&gt;12 -->
<g id="edge96" class="edge"><title>11&#45;&gt;12</title>
<path fill="none" stroke="black" d="M534.956,-152.108C578.401,-138.789 692.9,-106.444 745.77,-92.5351"/>
<polygon fill="black" stroke="black" points="746.685,-95.9136 755.483,-90.0103 744.924,-89.1388 746.685,-95.9136"/>
</g>
<!-- 11&#45;&gt;13 -->
<g id="edge63" class="edge"><title>11&#45;&gt;13</title>
<path fill="none" stroke="black" d="M535.309,-164.776C571.883,-176.211 656.227,-205.387 699.158,-221.282"/>
<polygon fill="black" stroke="black" points="698.046,-224.603 708.639,-224.833 700.502,-218.048 698.046,-224.603"/>
</g>
<!-- 7&#45;&gt;5 -->
<g id="edge24" class="edge"><title>7&#45;&gt;5</title>
<path fill="none" stroke="black" d="M579.259,-15.8466C521.037,-15.583 308.25,-17.9633 267,-66 213.144,-128.716 223.826,-181.503 267,-252 283.004,-278.131 317.436,-291.147 340.915,-297.223"/>
<polygon fill="black" stroke="black" points="340.29,-300.672 350.826,-299.549 341.89,-293.857 340.29,-300.672"/>
</g>
<!-- 7&#45;&gt;6 -->
<g id="edge16" class="edge"><title>7&#45;&gt;6</title>
<path fill="none" stroke="black" d="M579.205,-15.5839C515.646,-14.3932 269.073,-13.9298 216,-66 156.936,-123.947 183.004,-180.127 224,-252 291.501,-370.341 325.106,-405.926 451,-458 512.339,-483.372 713.434,-500.34 784.254,-505.957"/>
<polygon fill="black" stroke="black" points="784.216,-509.465 794.46,-506.761 784.766,-502.487 784.216,-509.465"/>
</g>
<!-- 7&#45;&gt;9 -->
<g id="edge97" class="edge"><title>7&#45;&gt;9</title>
<path fill="none" stroke="black" d="M608.276,-17.1343C644.737,-20.4574 743.652,-32.1676 818,-66 880.786,-94.5707 943,-89.0194 943,-158 943,-234 943,-234 943,-234 943,-300.391 943,-378.702 943,-417.569"/>
<polygon fill="black" stroke="black" points="939.5,-417.877 943,-427.877 946.5,-417.877 939.5,-417.877"/>
</g>
<!-- 7&#45;&gt;11 -->
<g id="edge56" class="edge"><title>7&#45;&gt;11</title>
<path fill="none" stroke="black" d="M587.282,-28.5519C574.727,-52.0099 547.501,-102.88 531.166,-133.4"/>
<polygon fill="black" stroke="black" points="527.911,-132.065 526.278,-142.533 534.083,-135.368 527.911,-132.065"/>
</g>
<!-- 7&#45;&gt;7 -->
<g id="edge80" class="edge"><title>7&#45;&gt;7</title>
<path fill="none" stroke="cornflowerblue" stroke-dasharray="1,5" d="M604.488,-25.4301C614.738,-31.1916 626,-27.7148 626,-15 626,-6.45721 620.916,-2.08467 614.471,-1.88236"/>
<polygon fill="cornflowerblue" stroke="cornflowerblue" points="613.235,1.40942 604.488,-4.56985 615.054,-5.34993 613.235,1.40942"/>
</g>
<!-- 7&#45;&gt;12 -->
<g id="edge3" class="edge"><title>7&#45;&gt;12</title>
<path fill="none" stroke="black" d="M607.999,-20.0249C638.288,-30.1147 709.113,-56.7876 747.499,-72.3217"/>
<polygon fill="black" stroke="black" points="746.38,-75.6457 756.96,-76.1995 749.035,-69.1686 746.38,-75.6457"/>
</g>
<!-- 7&#45;&gt;10 -->
<g id="edge87" class="edge"><title>7&#45;&gt;10</title>
<path fill="none" stroke="black" d="M608.505,-16.3202C695.868,-18.7095 1147.68,-36.6491 1223,-140 1272.48,-207.895 1202.18,-311.029 1164.58,-353.117"/>
<polygon fill="black" stroke="black" points="1161.79,-350.984 1157.54,-360.692 1166.92,-355.748 1161.79,-350.984"/>
</g>
<!-- 7&#45;&gt;13 -->
<g id="edge71" class="edge"><title>7&#45;&gt;13</title>
<path fill="none" stroke="black" d="M603.442,-26.4375C627.448,-58.9146 688.533,-158.842 714.011,-206.371"/>
<polygon fill="black" stroke="black" points="711.005,-208.176 718.746,-215.409 717.206,-204.927 711.005,-208.176"/>
</g>
<!-- 12&#45;&gt;5 -->
<g id="edge81" class="edge"><title>12&#45;&gt;5</title>
<path fill="none" stroke="black" d="M763.406,-100.875C738.144,-139.838 670.654,-242.525 655,-252 576.331,-299.616 540.223,-262.226 450,-280 428.945,-284.148 405.342,-290.387 388.36,-295.163"/>
<polygon fill="black" stroke="black" points="387.379,-291.803 378.725,-297.915 389.302,-298.534 387.379,-291.803"/>
</g>
<!-- 12&#45;&gt;6 -->
<g id="edge18" class="edge"><title>12&#45;&gt;6</title>
<path fill="none" stroke="black" d="M784.641,-99.6061C789.55,-110.433 793.793,-126.033 796,-140 816.361,-268.879 818.245,-425.863 813.623,-484.461"/>
<polygon fill="black" stroke="black" points="810.128,-484.242 812.651,-494.532 817.096,-484.914 810.128,-484.242"/>
</g>
<!-- 12&#45;&gt;9 -->
<g id="edge58" class="edge"><title>12&#45;&gt;9</title>
<path fill="none" stroke="black" d="M788.86,-94.4617C804.706,-103.68 828.707,-119.841 843,-140 876.141,-186.744 921.255,-356.115 937.16,-418.618"/>
<polygon fill="black" stroke="black" points="933.775,-419.511 939.619,-428.349 940.562,-417.796 933.775,-419.511"/>
</g>
<!-- 12&#45;&gt;11 -->
<g id="edge25" class="edge"><title>12&#45;&gt;11</title>
<path fill="none" stroke="black" d="M756.114,-91.8706C712.804,-105.151 598.559,-137.427 545.529,-151.386"/>
<polygon fill="black" stroke="black" points="544.576,-148.018 535.779,-153.923 546.338,-154.792 544.576,-148.018"/>
</g>
<!-- 12&#45;&gt;7 -->
<g id="edge42" class="edge"><title>12&#45;&gt;7</title>
<path fill="none" stroke="black" d="M755.773,-78.8889C722.968,-67.7566 652.472,-41.1332 616.22,-26.3451"/>
<polygon fill="black" stroke="black" points="617.132,-22.9346 606.554,-22.3381 614.451,-29.4009 617.132,-22.9346"/>
</g>
<!-- 12&#45;&gt;12 -->
<g id="edge4" class="edge"><title>12&#45;&gt;12</title>
<path fill="none" stroke="black" d="M787.417,-96.5741C798.166,-100.616 809,-96.7578 809,-85 809,-77.1002 804.109,-72.7665 797.64,-71.9989"/>
<polygon fill="black" stroke="black" points="796.837,-68.577 787.417,-73.4259 797.805,-75.5098 796.837,-68.577"/>
</g>
<!-- 12&#45;&gt;8 -->
<g id="edge32" class="edge"><title>12&#45;&gt;8</title>
<path fill="none" stroke="black" d="M790.382,-91.4522C813.227,-99.2898 853.655,-115.544 881,-140 926.507,-180.699 960.415,-245.5 976.19,-279.498"/>
<polygon fill="black" stroke="black" points="973.18,-281.336 980.496,-288.999 979.556,-278.446 973.18,-281.336"/>
</g>
<!-- 12&#45;&gt;10 -->
<g id="edge88" class="edge"><title>12&#45;&gt;10</title>
<path fill="none" stroke="black" d="M791.013,-89.4234C820.31,-96.4793 877.924,-114.174 921,-140 1002.9,-189.106 1018.74,-210.277 1084,-280 1103.46,-300.794 1122.66,-326.982 1134.29,-346.095"/>
<polygon fill="black" stroke="black" points="1131.32,-347.951 1139.36,-354.855 1137.38,-344.446 1131.32,-347.951"/>
</g>
<!-- 12&#45;&gt;13 -->
<g id="edge36" class="edge"><title>12&#45;&gt;13</title>
<path fill="none" stroke="black" d="M771.827,-103.468C766.001,-129.328 750.243,-177.906 738.304,-207.369"/>
<polygon fill="black" stroke="black" points="734.935,-206.352 734.263,-216.925 741.382,-209.078 734.935,-206.352"/>
</g>
<!-- 8&#45;&gt;5 -->
<g id="edge9" class="edge"><title>8&#45;&gt;5</title>
<path fill="none" stroke="black" d="M971.49,-303C777.55,-303 583.611,-303 389.671,-303"/>
<polygon fill="black" stroke="black" points="389.555,-299.5 379.555,-303 389.555,-306.5 389.555,-299.5"/>
</g>
<!-- 8&#45;&gt;6 -->
<g id="edge40" class="edge"><title>8&#45;&gt;6</title>
<path fill="none" stroke="black" d="M976.825,-314.575C948.335,-347.41 861.146,-447.9 824.98,-489.583"/>
<polygon fill="black" stroke="black" points="822.177,-487.472 818.267,-497.319 827.464,-492.06 822.177,-487.472"/>
</g>
<!-- 8&#45;&gt;9 -->
<g id="edge34" class="edge"><title>8&#45;&gt;9</title>
<path fill="none" stroke="black" d="M991.877,-316.838C999.078,-334.528 1009.04,-367.041 998,-392 991.026,-407.764 976.356,-420.69 963.919,-429.448"/>
<polygon fill="black" stroke="black" points="961.819,-426.641 955.4,-435.07 965.675,-432.483 961.819,-426.641"/>
</g>
<!-- 8&#45;&gt;11 -->
<g id="edge91" class="edge"><title>8&#45;&gt;11</title>
<path fill="none" stroke="black" d="M972.863,-296.856C959.504,-291.823 938.11,-284.306 919,-280 822.415,-258.235 792.607,-281.189 698,-252 638.532,-233.653 575.083,-196.58 541.701,-175.527"/>
<polygon fill="black" stroke="black" points="543.424,-172.474 533.112,-170.043 539.657,-178.374 543.424,-172.474"/>
</g>
<!-- 8&#45;&gt;7 -->
<g id="edge67" class="edge"><title>8&#45;&gt;7</title>
<path fill="none" stroke="black" d="M989.294,-288.438C998.195,-248.134 1018.14,-128.038 957,-66 909.749,-18.0533 692.536,-15.21 618.669,-15.6645"/>
<polygon fill="black" stroke="black" points="618.438,-12.1664 608.469,-15.7549 618.5,-19.1661 618.438,-12.1664"/>
</g>
<!-- 8&#45;&gt;8 -->
<g id="edge101" class="edge"><title>8&#45;&gt;8</title>
<path fill="none" stroke="black" d="M996.488,-313.43C1006.74,-319.192 1018,-315.715 1018,-303 1018,-294.457 1012.92,-290.085 1006.47,-289.882"/>
<polygon fill="black" stroke="black" points="1005.23,-286.591 996.488,-292.57 1007.05,-293.35 1005.23,-286.591"/>
</g>
<!-- 8&#45;&gt;10 -->
<g id="edge61" class="edge"><title>8&#45;&gt;10</title>
<path fill="none" stroke="black" d="M999.672,-308.366C1026.51,-318.405 1085.35,-343.451 1119.15,-358.959"/>
<polygon fill="black" stroke="black" points="1117.83,-362.205 1128.37,-363.249 1120.78,-355.858 1117.83,-362.205"/>
</g>
<!-- 8&#45;&gt;13 -->
<g id="edge52" class="edge"><title>8&#45;&gt;13</title>
<path fill="none" stroke="black" d="M972.501,-297.195C959.043,-292.493 937.735,-285.287 919,-280 860.482,-263.487 790.929,-247.977 753.037,-239.869"/>
<polygon fill="black" stroke="black" points="753.292,-236.345 742.783,-237.69 751.837,-243.192 753.292,-236.345"/>
</g>
<!-- 10&#45;&gt;5 -->
<g id="edge70" class="edge"><title>10&#45;&gt;5</title>
<path fill="none" stroke="black" d="M1125.92,-370.216C1022.56,-360.685 508.78,-315.834 389.627,-305.936"/>
<polygon fill="black" stroke="black" points="389.609,-302.423 379.355,-305.09 389.034,-309.399 389.609,-302.423"/>
</g>
<!-- 10&#45;&gt;6 -->
<g id="edge79" class="edge"><title>10&#45;&gt;6</title>
<path fill="none" stroke="black" d="M1131.25,-386.307C1127.91,-388.233 1124.37,-390.186 1121,-392 1064.65,-422.362 1052.51,-434.426 993,-458 937.891,-479.831 869.577,-496.516 833.462,-503.874"/>
<polygon fill="black" stroke="black" points="832.481,-500.5 823.338,-505.853 833.824,-507.37 832.481,-500.5"/>
</g>
<!-- 10&#45;&gt;9 -->
<g id="edge41" class="edge"><title>10&#45;&gt;9</title>
<path fill="none" stroke="black" d="M1131.53,-386.88C1128.15,-388.733 1124.52,-390.512 1121,-392 1068.92,-413.998 1053.2,-411.93 999,-428 988.822,-431.018 977.409,-434.417 967.338,-437.11"/>
<polygon fill="black" stroke="black" points="966.274,-433.769 957.438,-439.616 967.991,-440.555 966.274,-433.769"/>
</g>
<!-- 10&#45;&gt;11 -->
<g id="edge76" class="edge"><title>10&#45;&gt;11</title>
<path fill="none" stroke="black" d="M1125.57,-371.59C1054.19,-369.271 790.849,-353.875 608,-252 577.292,-234.891 550.337,-204.065 534.119,-182.843"/>
<polygon fill="black" stroke="black" points="536.823,-180.613 528.046,-174.679 531.207,-184.792 536.823,-180.613"/>
</g>
<!-- 10&#45;&gt;7 -->
<g id="edge15" class="edge"><title>10&#45;&gt;7</title>
<path fill="none" stroke="black" d="M1152.7,-356.635C1179.98,-317.063 1255.92,-209.871 1205,-140 1133.66,-42.1014 724.492,-20.84 618.801,-16.8384"/>
<polygon fill="black" stroke="black" points="618.607,-13.3292 608.487,-16.4669 618.354,-20.3247 618.607,-13.3292"/>
</g>
<!-- 10&#45;&gt;12 -->
<g id="edge86" class="edge"><title>10&#45;&gt;12</title>
<path fill="none" stroke="black" d="M1130.75,-360.331C1115.5,-342.225 1090.97,-306.675 1066,-280 1000.74,-210.277 984.905,-189.106 903,-140 869.332,-119.814 826.783,-104.596 799.555,-95.5429"/>
<polygon fill="black" stroke="black" points="800.514,-92.1737 789.921,-92.3774 798.329,-98.824 800.514,-92.1737"/>
</g>
<!-- 10&#45;&gt;8 -->
<g id="edge11" class="edge"><title>10&#45;&gt;8</title>
<path fill="none" stroke="black" d="M1126.85,-366.319C1097.78,-355.201 1039.65,-330.37 1007.79,-315.628"/>
<polygon fill="black" stroke="black" points="1008.97,-312.318 998.433,-311.226 1005.99,-318.651 1008.97,-312.318"/>
</g>
<!-- 10&#45;&gt;10 -->
<g id="edge50" class="edge"><title>10&#45;&gt;10</title>
<path fill="none" stroke="black" d="M1158.42,-384.574C1169.17,-388.616 1180,-384.758 1180,-373 1180,-365.1 1175.11,-360.767 1168.64,-359.999"/>
<polygon fill="black" stroke="black" points="1167.84,-356.577 1158.42,-361.426 1168.8,-363.51 1167.84,-356.577"/>
</g>
<!-- 13&#45;&gt;5 -->
<g id="edge72" class="edge"><title>13&#45;&gt;5</title>
<path fill="none" stroke="black" d="M713.071,-247.244C709.575,-249.097 705.759,-250.781 702,-252 598.586,-285.532 565.88,-260.11 459,-280 435.229,-284.424 408.281,-291.812 389.079,-296.793"/>
<polygon fill="black" stroke="black" points="388.111,-293.427 379.278,-299.278 389.831,-300.213 388.111,-293.427"/>
</g>
<!-- 13&#45;&gt;6 -->
<g id="edge44" class="edge"><title>13&#45;&gt;6</title>
<path fill="none" stroke="black" d="M733.934,-249.27C748.759,-285.582 776.05,-379.894 801,-458 803.746,-466.597 806.894,-475.976 809.217,-484.263"/>
<polygon fill="black" stroke="black" points="805.834,-485.165 811.626,-494.037 812.631,-483.49 805.834,-485.165"/>
</g>
<!-- 13&#45;&gt;11 -->
<g id="edge89" class="edge"><title>13&#45;&gt;11</title>
<path fill="none" stroke="black" d="M707.501,-227.164C670.84,-215.692 586.765,-186.609 543.893,-170.737"/>
<polygon fill="black" stroke="black" points="545.014,-167.419 534.422,-167.19 542.559,-173.975 545.014,-167.419"/>
</g>
<!-- 13&#45;&gt;7 -->
<g id="edge19" class="edge"><title>13&#45;&gt;7</title>
<path fill="none" stroke="black" d="M713.319,-218.488C687.34,-182.339 626.894,-83.1275 603.267,-38.3947"/>
<polygon fill="black" stroke="black" points="606.246,-36.5328 598.569,-29.2309 600.017,-39.7264 606.246,-36.5328"/>
</g>
<!-- 13&#45;&gt;12 -->
<g id="edge59" class="edge"><title>13&#45;&gt;12</title>
<path fill="none" stroke="black" d="M726.205,-214.389C732.061,-188.473 747.805,-139.962 759.725,-110.559"/>
<polygon fill="black" stroke="black" points="763.085,-111.598 763.759,-101.025 756.639,-108.87 763.085,-111.598"/>
</g>
<!-- 13&#45;&gt;10 -->
<g id="edge26" class="edge"><title>13&#45;&gt;10</title>
<path fill="none" stroke="black" d="M743.235,-233.612C791.634,-233.236 926.504,-236.471 1027,-280 1066.07,-296.922 1103.31,-330.172 1124.9,-351.722"/>
<polygon fill="black" stroke="black" points="1122.61,-354.392 1132.12,-359.08 1127.61,-349.49 1122.61,-354.392"/>
</g>
<!-- 13&#45;&gt;14 -->
<g id="edge98" class="edge"><title>13&#45;&gt;14</title>
<path fill="none" stroke="black" d="M742.828,-229.222C813.277,-218.242 1072.62,-177.826 1158.89,-164.381"/>
<polygon fill="black" stroke="black" points="1159.63,-167.807 1168.98,-162.809 1158.56,-160.891 1159.63,-167.807"/>
</g>
<!-- 14&#45;&gt;9 -->
<g id="edge57" class="edge"><title>14&#45;&gt;9</title>
<path fill="none" stroke="black" d="M1178.2,-175.149C1155.02,-214.207 1088.98,-320.279 1015,-392 999.527,-407.001 979.141,-420.705 964.012,-429.958"/>
<polygon fill="black" stroke="black" points="962.159,-426.987 955.362,-435.115 965.744,-433 962.159,-426.987"/>
</g>
<!-- 14&#45;&gt;10 -->
<g id="edge64" class="edge"><title>14&#45;&gt;10</title>
<path fill="none" stroke="black" d="M1183.89,-177.498C1178.44,-207.822 1166.64,-272.064 1155,-326 1153.67,-332.17 1152.14,-338.783 1150.66,-345.016"/>
<polygon fill="black" stroke="black" points="1147.2,-344.46 1148.25,-355.002 1154,-346.101 1147.2,-344.46"/>
</g>
</g>
</svg>
