<?xml version="1.0" encoding="UTF-8" standalone="no"?>
<!DOCTYPE svg PUBLIC "-//W3C//DTD SVG 1.1//EN"
 "http://www.w3.org/Graphics/SVG/1.1/DTD/svg11.dtd">
<!-- Generated by graphviz version 2.36.0 (20140111.2315)
 -->
<!-- Title: G Pages: 1 -->
<svg width="179pt" height="124pt"
 viewBox="0.00 0.00 179.00 124.00" xmlns="http://www.w3.org/2000/svg" xmlns:xlink="http://www.w3.org/1999/xlink">
<g id="graph0" class="graph" transform="scale(1 1) rotate(0) translate(4 120)">
<title>G</title>
<polygon fill="white" stroke="none" points="-4,4 -4,-120 175,-120 175,4 -4,4"/>
<g id="clust1" class="cluster"><title>cluster_inputs</title>
<polygon fill="none" stroke="white" points="8,-74 8,-108 163,-108 163,-74 8,-74"/>
</g>
<g id="clust2" class="cluster"><title>cluster_outputs</title>
<polygon fill="none" stroke="white" points="62,-8 62,-54 126,-54 126,-8 62,-8"/>
</g>
<!-- 1 -->
<g id="node1" class="node"><title>1</title>
<polygon fill="lightgrey" stroke="black" points="154.25,-100 133.75,-100 133.75,-82 154.25,-82 154.25,-100"/>
<text text-anchor="middle" x="144" y="-88.8" font-family="Times,serif" font-size="9.00">1</text>
</g>
<!-- 5 -->
<g id="node5" class="node"><title>5</title>
<ellipse fill="lightblue" stroke="lightblue" cx="85" cy="-31" rx="14.2796" ry="14.7"/>
<text text-anchor="middle" x="85" y="-28.8" font-family="Times,serif" font-size="9.00">5</text>
</g>
<!-- 1&#45;&gt;5 -->
<g id="edge2" class="edge"><title>1&#45;&gt;5</title>
<path fill="none" stroke="black" d="M135.796,-81.9353C127.235,-73.5195 113.551,-60.0669 102.541,-49.244"/>
<polygon fill="black" stroke="black" points="104.694,-46.452 95.1089,-41.9376 99.7866,-51.4439 104.694,-46.452"/>
</g>
<!-- 2 -->
<g id="node2" class="node"><title>2</title>
<polygon fill="lightgrey" stroke="black" points="115.25,-100 94.75,-100 94.75,-82 115.25,-82 115.25,-100"/>
<text text-anchor="middle" x="105" y="-88.8" font-family="Times,serif" font-size="9.00">2</text>
</g>
<!-- 2&#45;&gt;5 -->
<g id="edge3" class="edge"><title>2&#45;&gt;5</title>
<path fill="none" stroke="black" d="M102.219,-81.9353C99.7974,-74.9124 96.1662,-64.382 92.8618,-54.7992"/>
<polygon fill="black" stroke="black" points="96.1697,-53.6555 89.601,-45.3428 89.5521,-55.9375 96.1697,-53.6555"/>
</g>
<!-- 3 -->
<g id="node3" class="node"><title>3</title>
<polygon fill="lightgrey" stroke="black" points="76.25,-100 55.75,-100 55.75,-82 76.25,-82 76.25,-100"/>
<text text-anchor="middle" x="66" y="-88.8" font-family="Times,serif" font-size="9.00">3</text>
</g>
<!-- 3&#45;&gt;5 -->
<g id="edge5" class="edge"><title>3&#45;&gt;5</title>
<path fill="none" stroke="black" d="M68.6419,-81.9353C70.9183,-74.9863 74.3196,-64.6033 77.432,-55.1022"/>
<polygon fill="black" stroke="black" points="80.842,-55.9355 80.6291,-45.3428 74.1899,-53.7563 80.842,-55.9355"/>
</g>
<!-- 4 -->
<g id="node4" class="node"><title>4</title>
<polygon fill="lightgrey" stroke="black" points="37.25,-100 16.75,-100 16.75,-82 37.25,-82 37.25,-100"/>
<text text-anchor="middle" x="27" y="-88.8" font-family="Times,serif" font-size="9.00">4</text>
</g>
<!-- 4&#45;&gt;5 -->
<g id="edge1" class="edge"><title>4&#45;&gt;5</title>
<path fill="none" stroke="black" d="M35.0647,-81.9353C43.4805,-73.5195 56.9331,-60.0669 67.756,-49.244"/>
<polygon fill="black" stroke="black" points="70.4662,-51.4836 75.0624,-41.9376 65.5164,-46.5338 70.4662,-51.4836"/>
</g>
<!-- 5&#45;&gt;5 -->
<g id="edge4" class="edge"><title>5&#45;&gt;5</title>
<path fill="none" stroke="black" d="M96.483,-40.3933C106.453,-44.678 117,-41.5469 117,-31 117,-24.0786 112.458,-20.3509 106.517,-19.817"/>
<polygon fill="black" stroke="black" points="105.713,-16.4051 96.483,-21.6067 106.942,-23.2963 105.713,-16.4051"/>
</g>
</g>
</svg>
