<?xml version="1.0" encoding="UTF-8" standalone="no"?>
<!DOCTYPE svg PUBLIC "-//W3C//DTD SVG 1.1//EN"
 "http://www.w3.org/Graphics/SVG/1.1/DTD/svg11.dtd">
<!-- Generated by graphviz version 2.36.0 (20140111.2315)
 -->
<!-- Title: G Pages: 1 -->
<svg width="594pt" height="322pt"
 viewBox="0.00 0.00 594.38 322.00" xmlns="http://www.w3.org/2000/svg" xmlns:xlink="http://www.w3.org/1999/xlink">
<g id="graph0" class="graph" transform="scale(1 1) rotate(0) translate(4 318)">
<title>G</title>
<polygon fill="white" stroke="none" points="-4,4 -4,-318 590.378,-318 590.378,4 -4,4"/>
<g id="clust1" class="cluster"><title>cluster_inputs</title>
<polygon fill="none" stroke="white" points="188.185,-272 188.185,-306 343.185,-306 343.185,-272 188.185,-272"/>
</g>
<g id="clust2" class="cluster"><title>cluster_outputs</title>
<polygon fill="none" stroke="white" points="118.185,-8 118.185,-54 182.185,-54 182.185,-8 118.185,-8"/>
</g>
<!-- 1 -->
<g id="node1" class="node"><title>1</title>
<polygon fill="lightgrey" stroke="black" points="334.435,-298 313.935,-298 313.935,-280 334.435,-280 334.435,-298"/>
<text text-anchor="middle" x="324.185" y="-286.8" font-family="Times,serif" font-size="9.00">1</text>
</g>
<!-- 5 -->
<g id="node5" class="node"><title>5</title>
<ellipse fill="lightblue" stroke="lightblue" cx="141.185" cy="-31" rx="14.2796" ry="14.7"/>
<text text-anchor="middle" x="141.185" y="-28.8" font-family="Times,serif" font-size="9.00">5</text>
</g>
<!-- 1&#45;&gt;5 -->
<g id="edge13" class="edge"><title>1&#45;&gt;5</title>
<path fill="none" stroke="black" d="M334.575,-280.636C344.579,-272.846 359.065,-259.545 365.185,-244 385.937,-191.289 361.176,-117.738 324.185,-82 280.543,-39.8366 204.929,-32.4649 165.97,-31.645"/>
<polygon fill="black" stroke="black" points="165.817,-28.1438 155.79,-31.5652 165.763,-35.1435 165.817,-28.1438"/>
</g>
<!-- 7 -->
<g id="node6" class="node"><title>7</title>
<ellipse fill="none" stroke="black" cx="260.185" cy="-97" rx="14.2796" ry="14.7"/>
<text text-anchor="middle" x="260.185" y="-94.8" font-family="Times,serif" font-size="9.00">7</text>
</g>
<!-- 1&#45;&gt;7 -->
<g id="edge29" class="edge"><title>1&#45;&gt;7</title>
<path fill="none" stroke="black" d="M330.58,-279.812C336.725,-271.381 345.593,-257.591 349.185,-244 352.591,-231.109 352.089,-227.013 349.185,-214 342.126,-182.37 337.777,-173.815 318.185,-148 307.578,-134.025 292.493,-121.171 280.367,-111.996"/>
<polygon fill="black" stroke="black" points="282.304,-109.077 272.166,-106.002 278.174,-114.729 282.304,-109.077"/>
</g>
<!-- 6 -->
<g id="node7" class="node"><title>6</title>
<ellipse fill="none" stroke="black" cx="435.185" cy="-31" rx="14.2796" ry="14.7"/>
<text text-anchor="middle" x="435.185" y="-28.8" font-family="Times,serif" font-size="9.00">6</text>
</g>
<!-- 1&#45;&gt;6 -->
<g id="edge6" class="edge"><title>1&#45;&gt;6</title>
<path fill="none" stroke="black" d="M334.692,-287.767C376.911,-286.587 533.352,-279.826 563.185,-244 610.508,-187.169 577.877,-133.892 525.185,-82 505.772,-62.8823 477.569,-48.8043 457.926,-40.5423"/>
<polygon fill="black" stroke="black" points="459.11,-37.2459 448.526,-36.7561 456.494,-43.739 459.11,-37.2459"/>
</g>
<!-- 9 -->
<g id="node8" class="node"><title>9</title>
<ellipse fill="none" stroke="black" cx="326.185" cy="-229" rx="14.2796" ry="14.7"/>
<text text-anchor="middle" x="326.185" y="-226.8" font-family="Times,serif" font-size="9.00">9</text>
</g>
<!-- 1&#45;&gt;9 -->
<g id="edge20" class="edge"><title>1&#45;&gt;9</title>
<path fill="none" stroke="black" d="M324.463,-279.935C324.691,-273.313 325.027,-263.572 325.342,-254.448"/>
<polygon fill="black" stroke="black" points="328.847,-254.359 325.693,-244.244 321.851,-254.118 328.847,-254.359"/>
</g>
<!-- 2 -->
<g id="node2" class="node"><title>2</title>
<polygon fill="lightgrey" stroke="black" points="217.435,-298 196.935,-298 196.935,-280 217.435,-280 217.435,-298"/>
<text text-anchor="middle" x="207.185" y="-286.8" font-family="Times,serif" font-size="9.00">2</text>
</g>
<!-- 2&#45;&gt;5 -->
<g id="edge8" class="edge"><title>2&#45;&gt;5</title>
<path fill="none" stroke="black" d="M196.807,-288.224C168.341,-288.282 88.0383,-284.627 41.1846,-244 17.1105,-223.125 19.5342,-209.225 13.1846,-178 4.68235,-136.189 -10.8786,-117.234 13.1846,-82 36.3128,-48.1355 86.09,-37.2054 116.302,-33.6787"/>
<polygon fill="black" stroke="black" points="116.85,-37.1419 126.462,-32.6856 116.169,-30.1751 116.85,-37.1419"/>
</g>
<!-- 2&#45;&gt;7 -->
<g id="edge25" class="edge"><title>2&#45;&gt;7</title>
<path fill="none" stroke="black" d="M209.462,-279.836C217.079,-252.531 241.852,-163.721 253.725,-121.157"/>
<polygon fill="black" stroke="black" points="257.132,-121.971 256.447,-111.398 250.389,-120.09 257.132,-121.971"/>
</g>
<!-- 2&#45;&gt;6 -->
<g id="edge17" class="edge"><title>2&#45;&gt;6</title>
<path fill="none" stroke="black" d="M196.849,-280.799C169.438,-260.754 98.5583,-202.22 122.185,-148 139.395,-108.503 154.897,-101.755 193.185,-82 266.093,-44.3823 365.115,-35.065 410.553,-32.7583"/>
<polygon fill="black" stroke="black" points="410.816,-36.2503 420.655,-32.3188 410.512,-29.2569 410.816,-36.2503"/>
</g>
<!-- 3 -->
<g id="node3" class="node"><title>3</title>
<polygon fill="lightgrey" stroke="black" points="256.435,-298 235.935,-298 235.935,-280 256.435,-280 256.435,-298"/>
<text text-anchor="middle" x="246.185" y="-286.8" font-family="Times,serif" font-size="9.00">3</text>
</g>
<!-- 3&#45;&gt;5 -->
<g id="edge24" class="edge"><title>3&#45;&gt;5</title>
<path fill="none" stroke="cornflowerblue" stroke-dasharray="1,5" d="M237.242,-279.9C233.925,-277.159 230.032,-274.229 226.185,-272 196.835,-254.993 183.548,-262.604 155.185,-244 120.497,-221.248 105.06,-216.326 89.1846,-178 72.8568,-138.581 72.4712,-121.257 89.1846,-82 95.5961,-66.9406 109.013,-54.2264 120.612,-45.3875"/>
<polygon fill="cornflowerblue" stroke="cornflowerblue" points="122.879,-48.0698 128.981,-39.4091 118.81,-42.3737 122.879,-48.0698"/>
</g>
<!-- 3&#45;&gt;7 -->
<g id="edge7" class="edge"><title>3&#45;&gt;7</title>
<path fill="none" stroke="black" d="M246.786,-279.836C248.784,-252.719 255.252,-164.944 258.413,-122.046"/>
<polygon fill="black" stroke="black" points="261.914,-122.163 259.158,-111.933 254.933,-121.648 261.914,-122.163"/>
</g>
<!-- 3&#45;&gt;6 -->
<g id="edge15" class="edge"><title>3&#45;&gt;6</title>
<path fill="none" stroke="black" d="M254.561,-279.766C257.701,-277.011 261.423,-274.108 265.185,-272 299.514,-252.761 314.534,-262.654 349.185,-244 390.99,-221.494 407.226,-217.754 433.185,-178 456.875,-141.719 456.477,-124.871 450.185,-82 448.856,-72.9478 446.243,-63.2596 443.564,-54.8446"/>
<polygon fill="black" stroke="black" points="446.869,-53.6899 440.347,-45.34 440.238,-55.9343 446.869,-53.6899"/>
</g>
<!-- 3&#45;&gt;9 -->
<g id="edge19" class="edge"><title>3&#45;&gt;9</title>
<path fill="none" stroke="black" d="M255.702,-279.676C258.688,-277.149 262.03,-274.406 265.185,-272 278.384,-261.936 293.783,-251.342 305.807,-243.311"/>
<polygon fill="black" stroke="black" points="307.844,-246.16 314.251,-237.721 303.98,-240.323 307.844,-246.16"/>
</g>
<!-- 8 -->
<g id="node9" class="node"><title>8</title>
<ellipse fill="none" stroke="black" cx="146.185" cy="-163" rx="14.2796" ry="14.7"/>
<text text-anchor="middle" x="146.185" y="-160.8" font-family="Times,serif" font-size="9.00">8</text>
</g>
<!-- 3&#45;&gt;8 -->
<g id="edge27" class="edge"><title>3&#45;&gt;8</title>
<path fill="none" stroke="black" d="M239.623,-279.864C223.94,-260.417 183.933,-210.808 161.691,-183.228"/>
<polygon fill="black" stroke="black" points="164.149,-180.7 155.147,-175.113 158.7,-185.095 164.149,-180.7"/>
</g>
<!-- 4 -->
<g id="node4" class="node"><title>4</title>
<polygon fill="lightgrey" stroke="black" points="295.435,-298 274.935,-298 274.935,-280 295.435,-280 295.435,-298"/>
<text text-anchor="middle" x="285.185" y="-286.8" font-family="Times,serif" font-size="9.00">4</text>
</g>
<!-- 4&#45;&gt;5 -->
<g id="edge18" class="edge"><title>4&#45;&gt;5</title>
<path fill="none" stroke="black" d="M275.152,-279.674C272.009,-277.146 268.495,-274.404 265.185,-272 203.645,-227.306 158.29,-244.941 122.185,-178 100.802,-138.355 117.861,-84.1082 130.569,-54.1485"/>
<polygon fill="black" stroke="black" points="133.939,-55.1867 134.813,-44.628 127.545,-52.3367 133.939,-55.1867"/>
</g>
<!-- 4&#45;&gt;7 -->
<g id="edge1" class="edge"><title>4&#45;&gt;7</title>
<path fill="none" stroke="black" d="M284.431,-279.77C282.408,-258.129 276.513,-197.86 269.185,-148 267.936,-139.505 266.336,-130.242 264.832,-122.022"/>
<polygon fill="black" stroke="black" points="268.23,-121.154 262.948,-111.97 261.35,-122.443 268.23,-121.154"/>
</g>
<!-- 4&#45;&gt;6 -->
<g id="edge5" class="edge"><title>4&#45;&gt;6</title>
<path fill="none" stroke="black" d="M293.044,-279.82C296.242,-276.935 300.137,-273.932 304.185,-272 363.418,-243.728 395.749,-282.113 449.185,-244 509.393,-201.056 516.154,-150.044 487.185,-82 480.773,-66.9406 467.356,-54.2264 455.757,-45.3875"/>
<polygon fill="black" stroke="black" points="457.559,-42.3737 447.388,-39.4091 453.491,-48.0698 457.559,-42.3737"/>
</g>
<!-- 4&#45;&gt;9 -->
<g id="edge10" class="edge"><title>4&#45;&gt;9</title>
<path fill="none" stroke="black" d="M290.885,-279.935C296.331,-272.232 304.761,-260.307 312.016,-250.043"/>
<polygon fill="black" stroke="black" points="315.072,-251.784 317.986,-241.598 309.356,-247.743 315.072,-251.784"/>
</g>
<!-- 5&#45;&gt;5 -->
<g id="edge11" class="edge"><title>5&#45;&gt;5</title>
<path fill="none" stroke="black" d="M152.004,-41.0063C162.164,-46.1948 173.185,-42.8594 173.185,-31 173.185,-23.032 168.21,-18.9118 161.863,-18.6395"/>
<polygon fill="black" stroke="black" points="160.918,-15.2668 152.004,-20.9937 162.543,-22.0754 160.918,-15.2668"/>
</g>
<!-- 5&#45;&gt;8 -->
<g id="edge9" class="edge"><title>5&#45;&gt;8</title>
<path fill="none" stroke="black" d="M141.731,-46.2063C142.58,-68.268 144.224,-111.023 145.26,-137.953"/>
<polygon fill="black" stroke="black" points="141.768,-138.23 145.65,-148.088 148.763,-137.961 141.768,-138.23"/>
</g>
<!-- 7&#45;&gt;5 -->
<g id="edge28" class="edge"><title>7&#45;&gt;5</title>
<path fill="none" stroke="black" d="M247.45,-89.1509C227.229,-78.2762 187.544,-56.933 162.808,-43.6295"/>
<polygon fill="black" stroke="black" points="164.293,-40.454 153.828,-38.7999 160.977,-46.619 164.293,-40.454"/>
</g>
<!-- 7&#45;&gt;7 -->
<g id="edge4" class="edge"><title>7&#45;&gt;7</title>
<path fill="none" stroke="black" d="M271.004,-107.006C281.164,-112.195 292.185,-108.859 292.185,-97 292.185,-89.032 287.21,-84.9118 280.863,-84.6395"/>
<polygon fill="black" stroke="black" points="279.918,-81.2668 271.004,-86.9937 281.543,-88.0754 279.918,-81.2668"/>
</g>
<!-- 7&#45;&gt;6 -->
<g id="edge12" class="edge"><title>7&#45;&gt;6</title>
<path fill="none" stroke="black" d="M273.626,-91.0843C303.328,-80.2218 374.85,-54.0651 411.964,-40.4921"/>
<polygon fill="black" stroke="black" points="413.267,-43.7425 421.456,-37.0207 410.862,-37.1684 413.267,-43.7425"/>
</g>
<!-- 7&#45;&gt;8 -->
<g id="edge31" class="edge"><title>7&#45;&gt;8</title>
<path fill="none" stroke="black" d="M249.107,-106.944C230.349,-118.861 192.978,-139.874 168.654,-152.206"/>
<polygon fill="black" stroke="black" points="166.842,-149.197 159.426,-156.763 169.942,-155.473 166.842,-149.197"/>
</g>
<!-- 6&#45;&gt;5 -->
<g id="edge23" class="edge"><title>6&#45;&gt;5</title>
<path fill="none" stroke="black" d="M420.726,-31C335.789,-31 250.853,-31 165.916,-31"/>
<polygon fill="black" stroke="black" points="165.827,-27.5001 155.827,-31 165.827,-34.5001 165.827,-27.5001"/>
</g>
<!-- 6&#45;&gt;6 -->
<g id="edge2" class="edge"><title>6&#45;&gt;6</title>
<path fill="none" stroke="black" d="M446.004,-41.0063C456.164,-46.1948 467.185,-42.8594 467.185,-31 467.185,-23.032 462.21,-18.9118 455.863,-18.6395"/>
<polygon fill="black" stroke="black" points="454.918,-15.2668 446.004,-20.9937 456.543,-22.0754 454.918,-15.2668"/>
</g>
<!-- 6&#45;&gt;8 -->
<g id="edge26" class="edge"><title>6&#45;&gt;8</title>
<path fill="none" stroke="black" d="M420.848,-33.2457C386.922,-36.6787 299.796,-48.3637 236.185,-82 206.536,-97.6776 178.702,-125.124 162.053,-143.431"/>
<polygon fill="black" stroke="black" points="159.244,-141.322 155.223,-151.124 164.479,-145.969 159.244,-141.322"/>
</g>
<!-- 9&#45;&gt;5 -->
<g id="edge30" class="edge"><title>9&#45;&gt;5</title>
<path fill="none" stroke="black" d="M328.374,-214.161C332.076,-185.384 336.086,-118.721 301.185,-82 265.363,-44.3117 201.61,-34.8756 166.36,-32.6138"/>
<polygon fill="black" stroke="black" points="166.148,-29.0993 155.989,-32.1048 165.805,-36.0909 166.148,-29.0993"/>
</g>
<!-- 9&#45;&gt;7 -->
<g id="edge16" class="edge"><title>9&#45;&gt;7</title>
<path fill="none" stroke="black" d="M322.585,-214.474C317.95,-198.147 309.058,-170.131 297.185,-148 291.227,-136.895 283.011,-125.524 275.835,-116.437"/>
<polygon fill="black" stroke="black" points="278.409,-114.054 269.381,-108.508 272.98,-118.473 278.409,-114.054"/>
</g>
<!-- 9&#45;&gt;6 -->
<g id="edge22" class="edge"><title>9&#45;&gt;6</title>
<path fill="none" stroke="black" d="M339.925,-224.011C359.203,-217.65 393.855,-203.276 411.185,-178 436.411,-141.205 438.456,-87.14 437.162,-56.1711"/>
<polygon fill="black" stroke="black" points="440.638,-55.664 436.571,-45.8812 433.65,-56.0655 440.638,-55.664"/>
</g>
<!-- 9&#45;&gt;8 -->
<g id="edge3" class="edge"><title>9&#45;&gt;8</title>
<path fill="none" stroke="black" d="M312.655,-223.19C282.164,-212.348 207.77,-185.897 169.607,-172.328"/>
<polygon fill="black" stroke="black" points="170.466,-168.919 159.871,-168.866 168.12,-175.514 170.466,-168.919"/>
</g>
<!-- 8&#45;&gt;7 -->
<g id="edge21" class="edge"><title>8&#45;&gt;7</title>
<path fill="none" stroke="black" d="M157.191,-153.101C175.901,-141.207 213.264,-120.196 237.621,-107.842"/>
<polygon fill="black" stroke="black" points="239.45,-110.842 246.865,-103.275 236.349,-104.566 239.45,-110.842"/>
</g>
<!-- 8&#45;&gt;8 -->
<g id="edge14" class="edge"><title>8&#45;&gt;8</title>
<path fill="none" stroke="black" d="M157.004,-173.006C167.164,-178.195 178.185,-174.859 178.185,-163 178.185,-155.032 173.21,-150.912 166.863,-150.639"/>
<polygon fill="black" stroke="black" points="165.918,-147.267 157.004,-152.994 167.543,-154.075 165.918,-147.267"/>
</g>
</g>
</svg>
