<?xml version="1.0" encoding="ISO-8859-1" standalone="no"?>
<!DOCTYPE svg PUBLIC "-//W3C//DTD SVG 1.1//EN" "http://www.w3.org/Graphics/SVG/1.1/DTD/svg11.dtd">
<svg version="1.1" baseProfile="full" id="body" width="8in" height="8in" viewBox="0 0 1 1" preserveAspectRatio="none" xmlns="http://www.w3.org/2000/svg" xmlns:xlink="http://www.w3.org/1999/xlink" xmlns:ev="http://www.w3.org/2001/xml-events">
<title>SVG drawing</title>
<desc>This was produced by version 4.4 of GNU libplot, a free library for exporting 2-D vector graphics.</desc>
<rect id="background" x="0" y="0" width="1" height="1" stroke="none" fill="white"/>
<g id="content" transform="translate(0,1) scale(0.00097656,-0.00125) " xml:space="preserve" stroke="black" stroke-linecap="butt" stroke-linejoin="miter" stroke-miterlimit="10.433" stroke-dasharray="none" stroke-dashoffset="0" stroke-opacity="1" fill="none" fill-rule="evenodd" fill-opacity="1" font-style="normal" font-variant="normal" font-weight="normal" font-stretch="normal" font-size-adjust="none" letter-spacing="normal" word-spacing="normal" text-anchor="start">
<polyline points="509.67,746.45 507.91,748.21 505.26,749.09 501.74,749.09 499.09,748.21 497.33,746.45 497.33,744.68 498.21,742.92 499.09,742.04 500.86,741.16 506.15,739.39 507.91,738.51 508.79,737.63 509.67,735.87 509.67,733.22 507.91,731.46 505.26,730.58 501.74,730.58 499.09,731.46 497.33,733.22 " stroke-width="1.2518" stroke-linecap="round" stroke-linejoin="round" />
<line x1="515.84" y1="742.92" x2="515.84" y2="724.41" stroke-width="1.2518" stroke-linecap="round" />
<polyline points="515.84,740.27 517.61,742.04 519.37,742.92 522.01,742.92 523.78,742.04 525.54,740.27 526.42,737.63 526.42,735.87 525.54,733.22 523.78,731.46 522.01,730.58 519.37,730.58 517.61,731.46 515.84,733.22 " stroke-width="1.2518" stroke-linecap="round" stroke-linejoin="round" />
<polyline points="531.71,737.63 542.29,737.63 542.29,739.39 541.41,741.16 540.53,742.04 538.76,742.92 536.12,742.92 534.36,742.04 532.59,740.27 531.71,737.63 531.71,735.87 532.59,733.22 534.36,731.46 536.12,730.58 538.76,730.58 540.53,731.46 542.29,733.22 " stroke-width="1.2518" stroke-linecap="round" stroke-linejoin="round" />
<polyline points="558.16,740.27 556.39,742.04 554.63,742.92 551.99,742.92 550.22,742.04 548.46,740.27 547.58,737.63 547.58,735.87 548.46,733.22 550.22,731.46 551.99,730.58 554.63,730.58 556.39,731.46 558.16,733.22 " stroke-width="1.2518" stroke-linecap="round" stroke-linejoin="round" />
<polygon points="563.45,749.09 564.33,748.21 565.21,749.09 564.33,749.97 " stroke-width="1.2518" stroke-linejoin="round" />
<line x1="564.33" y1="742.92" x2="564.33" y2="730.58" stroke-width="1.2518" stroke-linecap="round" />
<line x1="581.08" y1="742.92" x2="581.08" y2="730.58" stroke-width="1.2518" stroke-linecap="round" />
<polyline points="581.08,740.27 579.32,742.04 577.55,742.92 574.91,742.92 573.14,742.04 571.38,740.27 570.5,737.63 570.5,735.87 571.38,733.22 573.14,731.46 574.91,730.58 577.55,730.58 579.32,731.46 581.08,733.22 " stroke-width="1.2518" stroke-linecap="round" stroke-linejoin="round" />
<polyline points="589.01,749.09 589.01,734.1 589.89,731.46 591.66,730.58 593.42,730.58 " stroke-width="1.2518" stroke-linecap="round" stroke-linejoin="round" />
<line x1="586.37" y1="742.92" x2="592.54" y2="742.92" stroke-width="1.2518" stroke-linecap="round" />
<polygon points="597.83,749.09 598.71,748.21 599.59,749.09 598.71,749.97 " stroke-width="1.2518" stroke-linejoin="round" />
<line x1="598.71" y1="742.92" x2="598.71" y2="730.58" stroke-width="1.2518" stroke-linecap="round" />
<polygon points="609.29,742.92 607.52,742.04 605.76,740.27 604.88,737.63 604.88,735.87 605.76,733.22 607.52,731.46 609.29,730.58 611.93,730.58 613.7,731.46 615.46,733.22 616.34,735.87 616.34,737.63 615.46,740.27 613.7,742.04 611.93,742.92 " stroke-width="1.2518" stroke-linejoin="round" />
<line x1="622.51" y1="742.92" x2="622.51" y2="730.58" stroke-width="1.2518" stroke-linecap="round" />
<polyline points="622.51,739.39 625.16,742.04 626.92,742.92 629.56,742.92 631.33,742.04 632.21,739.39 632.21,730.58 " stroke-width="1.2518" stroke-linecap="round" stroke-linejoin="round" />
<polyline points="194.67,687.37 224.32,676.62 253.96,585.17 283.6,628.2 313.25,536.76 342.89,579.79 372.53,509.87 402.17,434.56 431.82,380.77 461.46,574.41 491.1,407.66 520.75,294.7 550.39,391.53 580.03,434.56 609.67,391.53 639.32,649.72 668.96,633.58 698.6,579.79 728.25,558.28 757.89,563.66 787.53,499.11 817.17,466.83 846.82,434.56 876.46,413.04 906.1,402.29 935.75,375.39 " stroke-width="0.96971" />
<polyline points="194.67,149.47 224.32,149.47 253.96,149.47 283.6,149.47 313.25,149.47 342.89,149.47 372.53,149.47 402.17,149.47 431.82,149.47 461.46,149.47 491.1,149.47 520.75,149.47 550.39,149.47 580.03,149.47 609.67,149.47 639.32,149.47 668.96,149.47 698.6,149.47 728.25,149.47 757.89,149.47 787.53,149.47 817.17,149.47 846.82,149.47 876.46,149.47 906.1,149.47 935.75,149.47 935.75,375.39 906.1,402.29 876.46,413.04 846.82,434.56 817.17,466.83 787.53,499.11 757.89,563.66 728.25,558.28 698.6,579.79 668.96,633.58 639.32,649.72 609.67,391.53 580.03,434.56 550.39,391.53 520.75,294.7 491.1,407.66 461.46,574.41 431.82,380.77 402.17,434.56 372.53,509.87 342.89,579.79 313.25,536.76 283.6,628.2 253.96,585.17 224.32,676.62 194.67,687.37 " stroke="#00bf64" stroke-width="1.2047" fill="#00bf64" />
<polyline points="194.67,687.37 224.32,687.37 253.96,681.99 283.6,628.2 313.25,536.76 342.89,579.79 372.53,509.87 402.17,434.56 431.82,380.77 461.46,574.41 491.1,407.66 520.75,294.7 550.39,391.53 580.03,434.56 609.67,391.53 639.32,649.72 668.96,633.58 698.6,579.79 728.25,558.28 757.89,563.66 787.53,499.11 817.17,466.83 846.82,434.56 876.46,413.04 906.1,402.29 935.75,375.39 " stroke-width="0.96971" />
<polygon points="194.67,687.37 224.32,676.62 253.96,585.17 283.6,628.2 313.25,536.76 342.89,579.79 372.53,509.87 402.17,434.56 431.82,380.77 461.46,574.41 491.1,407.66 520.75,294.7 550.39,391.53 580.03,434.56 609.67,391.53 639.32,649.72 668.96,633.58 698.6,579.79 728.25,558.28 757.89,563.66 787.53,499.11 817.17,466.83 846.82,434.56 876.46,413.04 906.1,402.29 935.75,375.39 935.75,375.39 906.1,402.29 876.46,413.04 846.82,434.56 817.17,466.83 787.53,499.11 757.89,563.66 728.25,558.28 698.6,579.79 668.96,633.58 639.32,649.72 609.67,391.53 580.03,434.56 550.39,391.53 520.75,294.7 491.1,407.66 461.46,574.41 431.82,380.77 402.17,434.56 372.53,509.87 342.89,579.79 313.25,536.76 283.6,628.2 253.96,681.99 224.32,687.37 " stroke="#00aeca" stroke-width="1.2047" fill="#00aeca" />
<polyline points="194.67,687.37 224.32,687.37 253.96,687.37 283.6,687.37 313.25,676.62 342.89,665.86 372.53,676.62 402.17,579.79 431.82,601.31 461.46,601.31 491.1,461.45 520.75,386.15 550.39,429.18 580.03,461.45 609.67,482.97 639.32,660.48 668.96,638.96 698.6,585.17 728.25,595.93 757.89,595.93 787.53,569.03 817.17,488.35 846.82,622.83 876.46,574.41 906.1,606.69 935.75,622.83 " stroke-width="0.96971" />
<polygon points="194.67,687.37 224.32,687.37 253.96,681.99 283.6,628.2 313.25,536.76 342.89,579.79 372.53,509.87 402.17,434.56 431.82,380.77 461.46,574.41 491.1,407.66 520.75,294.7 550.39,391.53 580.03,434.56 609.67,391.53 639.32,649.72 668.96,633.58 698.6,579.79 728.25,558.28 757.89,563.66 787.53,499.11 817.17,466.83 846.82,434.56 876.46,413.04 906.1,402.29 935.75,375.39 935.75,622.83 906.1,606.69 876.46,574.41 846.82,622.83 817.17,488.35 787.53,569.03 757.89,595.93 728.25,595.93 698.6,585.17 668.96,638.96 639.32,660.48 609.67,482.97 580.03,461.45 550.39,429.18 520.75,386.15 491.1,461.45 461.46,601.31 431.82,601.31 402.17,579.79 372.53,676.62 342.89,665.86 313.25,676.62 283.6,687.37 253.96,687.37 224.32,687.37 " stroke="#014625" stroke-width="1.2047" fill="#014625" />
<polyline points="194.67,687.37 224.32,687.37 253.96,687.37 283.6,687.37 313.25,681.99 342.89,681.99 372.53,681.99 402.17,590.55 431.82,633.58 461.46,617.45 491.1,482.97 520.75,407.66 550.39,520.62 580.03,526 609.67,574.41 639.32,687.37 668.96,687.37 698.6,687.37 728.25,687.37 757.89,687.37 787.53,676.62 817.17,520.62 846.82,655.1 876.46,622.83 906.1,638.96 935.75,649.72 " stroke-width="0.96971" />
<polygon points="194.67,687.37 224.32,687.37 253.96,687.37 283.6,687.37 313.25,676.62 342.89,665.86 372.53,676.62 402.17,579.79 431.82,601.31 461.46,601.31 491.1,461.45 520.75,386.15 550.39,429.18 580.03,461.45 609.67,482.97 639.32,660.48 668.96,638.96 698.6,585.17 728.25,595.93 757.89,595.93 787.53,569.03 817.17,488.35 846.82,622.83 876.46,574.41 906.1,606.69 935.75,622.83 935.75,649.72 906.1,638.96 876.46,622.83 846.82,655.1 817.17,520.62 787.53,676.62 757.89,687.37 728.25,687.37 698.6,687.37 668.96,687.37 639.32,687.37 609.67,574.41 580.03,526 550.39,520.62 520.75,407.66 491.1,482.97 461.46,617.45 431.82,633.58 402.17,590.55 372.53,681.99 342.89,681.99 313.25,681.99 283.6,687.37 253.96,687.37 224.32,687.37 " stroke="#00bd0a" stroke-width="1.2047" fill="#00bd0a" />
<polyline points="194.67,687.37 224.32,687.37 253.96,687.37 283.6,687.37 313.25,687.37 342.89,681.99 372.53,681.99 402.17,590.55 431.82,633.58 461.46,617.45 491.1,482.97 520.75,407.66 550.39,520.62 580.03,526 609.67,574.41 639.32,687.37 668.96,687.37 698.6,687.37 728.25,687.37 757.89,687.37 787.53,676.62 817.17,520.62 846.82,655.1 876.46,622.83 906.1,638.96 935.75,649.72 " stroke-width="0.96971" />
<polygon points="194.67,687.37 224.32,687.37 253.96,687.37 283.6,687.37 313.25,681.99 342.89,681.99 372.53,681.99 402.17,590.55 431.82,633.58 461.46,617.45 491.1,482.97 520.75,407.66 550.39,520.62 580.03,526 609.67,574.41 639.32,687.37 668.96,687.37 698.6,687.37 728.25,687.37 757.89,687.37 787.53,676.62 817.17,520.62 846.82,655.1 876.46,622.83 906.1,638.96 935.75,649.72 935.75,649.72 906.1,638.96 876.46,622.83 846.82,655.1 817.17,520.62 787.53,676.62 757.89,687.37 728.25,687.37 698.6,687.37 668.96,687.37 639.32,687.37 609.67,574.41 580.03,526 550.39,520.62 520.75,407.66 491.1,482.97 461.46,617.45 431.82,633.58 402.17,590.55 372.53,681.99 342.89,681.99 313.25,687.37 283.6,687.37 253.96,687.37 224.32,687.37 " stroke="#0086b7" stroke-width="1.2047" fill="#0086b7" />
<polyline points="194.67,687.37 224.32,687.37 253.96,687.37 283.6,687.37 313.25,687.37 342.89,687.37 372.53,687.37 402.17,622.83 431.82,655.1 461.46,655.1 491.1,526 520.75,439.94 550.39,531.38 580.03,681.99 609.67,687.37 639.32,687.37 668.96,687.37 698.6,687.37 728.25,687.37 757.89,687.37 787.53,676.62 817.17,520.62 846.82,655.1 876.46,622.83 906.1,638.96 935.75,649.72 " stroke-width="0.96971" />
<polygon points="194.67,687.37 224.32,687.37 253.96,687.37 283.6,687.37 313.25,687.37 342.89,681.99 372.53,681.99 402.17,590.55 431.82,633.58 461.46,617.45 491.1,482.97 520.75,407.66 550.39,520.62 580.03,526 609.67,574.41 639.32,687.37 668.96,687.37 698.6,687.37 728.25,687.37 757.89,687.37 787.53,676.62 817.17,520.62 846.82,655.1 876.46,622.83 906.1,638.96 935.75,649.72 935.75,649.72 906.1,638.96 876.46,622.83 846.82,655.1 817.17,520.62 787.53,676.62 757.89,687.37 728.25,687.37 698.6,687.37 668.96,687.37 639.32,687.37 609.67,687.37 580.03,681.99 550.39,531.38 520.75,439.94 491.1,526 461.46,655.1 431.82,655.1 402.17,622.83 372.53,687.37 342.89,687.37 313.25,687.37 283.6,687.37 253.96,687.37 224.32,687.37 " stroke="#005e28" stroke-width="1.2047" fill="#005e28" />
<polyline points="194.67,687.37 224.32,687.37 253.96,687.37 283.6,687.37 313.25,687.37 342.89,687.37 372.53,687.37 402.17,687.37 431.82,687.37 461.46,681.99 491.1,585.17 520.75,633.58 550.39,687.37 580.03,687.37 609.67,687.37 639.32,687.37 668.96,687.37 698.6,687.37 728.25,687.37 757.89,687.37 787.53,676.62 817.17,520.62 846.82,655.1 876.46,622.83 906.1,638.96 935.75,649.72 " stroke-width="0.96971" />
<polygon points="194.67,687.37 224.32,687.37 253.96,687.37 283.6,687.37 313.25,687.37 342.89,687.37 372.53,687.37 402.17,622.83 431.82,655.1 461.46,655.1 491.1,526 520.75,439.94 550.39,531.38 580.03,681.99 609.67,687.37 639.32,687.37 668.96,687.37 698.6,687.37 728.25,687.37 757.89,687.37 787.53,676.62 817.17,520.62 846.82,655.1 876.46,622.83 906.1,638.96 935.75,649.72 935.75,649.72 906.1,638.96 876.46,622.83 846.82,655.1 817.17,520.62 787.53,676.62 757.89,687.37 728.25,687.37 698.6,687.37 668.96,687.37 639.32,687.37 609.67,687.37 580.03,687.37 550.39,687.37 520.75,633.58 491.1,585.17 461.46,681.99 431.82,687.37 402.17,687.37 372.53,687.37 342.89,687.37 313.25,687.37 283.6,687.37 253.96,687.37 224.32,687.37 " stroke="#013692" stroke-width="1.2047" fill="#013692" />
<polyline points="194.67,687.37 224.32,687.37 253.96,687.37 283.6,687.37 313.25,687.37 342.89,687.37 372.53,687.37 402.17,687.37 431.82,687.37 461.46,687.37 491.1,665.86 520.75,633.58 550.39,687.37 580.03,687.37 609.67,687.37 639.32,687.37 668.96,687.37 698.6,687.37 728.25,687.37 757.89,687.37 787.53,676.62 817.17,520.62 846.82,655.1 876.46,622.83 906.1,638.96 935.75,649.72 " stroke-width="0.96971" />
<polygon points="194.67,687.37 224.32,687.37 253.96,687.37 283.6,687.37 313.25,687.37 342.89,687.37 372.53,687.37 402.17,687.37 431.82,687.37 461.46,681.99 491.1,585.17 520.75,633.58 550.39,687.37 580.03,687.37 609.67,687.37 639.32,687.37 668.96,687.37 698.6,687.37 728.25,687.37 757.89,687.37 787.53,676.62 817.17,520.62 846.82,655.1 876.46,622.83 906.1,638.96 935.75,649.72 935.75,649.72 906.1,638.96 876.46,622.83 846.82,655.1 817.17,520.62 787.53,676.62 757.89,687.37 728.25,687.37 698.6,687.37 668.96,687.37 639.32,687.37 609.67,687.37 580.03,687.37 550.39,687.37 520.75,633.58 491.1,665.86 461.46,687.37 431.82,687.37 402.17,687.37 372.53,687.37 342.89,687.37 313.25,687.37 283.6,687.37 253.96,687.37 224.32,687.37 " stroke="#010391" stroke-width="1.2047" fill="#010391" />
<polyline points="194.67,687.37 224.32,687.37 253.96,687.37 283.6,687.37 313.25,687.37 342.89,687.37 372.53,687.37 402.17,687.37 431.82,687.37 461.46,687.37 491.1,687.37 520.75,633.58 550.39,687.37 580.03,687.37 609.67,687.37 639.32,687.37 668.96,687.37 698.6,687.37 728.25,687.37 757.89,687.37 787.53,676.62 817.17,520.62 846.82,655.1 876.46,622.83 906.1,638.96 935.75,649.72 " stroke-width="0.96971" />
<polygon points="194.67,687.37 224.32,687.37 253.96,687.37 283.6,687.37 313.25,687.37 342.89,687.37 372.53,687.37 402.17,687.37 431.82,687.37 461.46,687.37 491.1,665.86 520.75,633.58 550.39,687.37 580.03,687.37 609.67,687.37 639.32,687.37 668.96,687.37 698.6,687.37 728.25,687.37 757.89,687.37 787.53,676.62 817.17,520.62 846.82,655.1 876.46,622.83 906.1,638.96 935.75,649.72 935.75,649.72 906.1,638.96 876.46,622.83 846.82,655.1 817.17,520.62 787.53,676.62 757.89,687.37 728.25,687.37 698.6,687.37 668.96,687.37 639.32,687.37 609.67,687.37 580.03,687.37 550.39,687.37 520.75,633.58 491.1,687.37 461.46,687.37 431.82,687.37 402.17,687.37 372.53,687.37 342.89,687.37 313.25,687.37 283.6,687.37 253.96,687.37 224.32,687.37 " stroke="#001119" stroke-width="1.2047" fill="#001119" />
<polyline points="194.67,687.37 224.32,687.37 253.96,687.37 283.6,687.37 313.25,687.37 342.89,687.37 372.53,687.37 402.17,687.37 431.82,687.37 461.46,687.37 491.1,687.37 520.75,687.37 550.39,687.37 580.03,687.37 609.67,687.37 639.32,687.37 668.96,687.37 698.6,687.37 728.25,687.37 757.89,687.37 787.53,676.62 817.17,520.62 846.82,655.1 876.46,622.83 906.1,638.96 935.75,649.72 " stroke-width="0.96971" />
<polygon points="194.67,687.37 224.32,687.37 253.96,687.37 283.6,687.37 313.25,687.37 342.89,687.37 372.53,687.37 402.17,687.37 431.82,687.37 461.46,687.37 491.1,687.37 520.75,633.58 550.39,687.37 580.03,687.37 609.67,687.37 639.32,687.37 668.96,687.37 698.6,687.37 728.25,687.37 757.89,687.37 787.53,676.62 817.17,520.62 846.82,655.1 876.46,622.83 906.1,638.96 935.75,649.72 935.75,649.72 906.1,638.96 876.46,622.83 846.82,655.1 817.17,520.62 787.53,676.62 757.89,687.37 728.25,687.37 698.6,687.37 668.96,687.37 639.32,687.37 609.67,687.37 580.03,687.37 550.39,687.37 520.75,687.37 491.1,687.37 461.46,687.37 431.82,687.37 402.17,687.37 372.53,687.37 342.89,687.37 313.25,687.37 283.6,687.37 253.96,687.37 224.32,687.37 " stroke="#0027e5" stroke-width="1.2047" fill="#0027e5" />
<polyline points="194.67,687.37 224.32,687.37 253.96,687.37 283.6,687.37 313.25,687.37 342.89,687.37 372.53,687.37 402.17,687.37 431.82,687.37 461.46,687.37 491.1,687.37 520.75,687.37 550.39,687.37 580.03,687.37 609.67,687.37 639.32,687.37 668.96,687.37 698.6,687.37 728.25,687.37 757.89,687.37 787.53,681.99 817.17,671.24 846.82,660.48 876.46,660.48 906.1,665.86 935.75,649.72 " stroke-width="0.96971" />
<polygon points="194.67,687.37 224.32,687.37 253.96,687.37 283.6,687.37 313.25,687.37 342.89,687.37 372.53,687.37 402.17,687.37 431.82,687.37 461.46,687.37 491.1,687.37 520.75,687.37 550.39,687.37 580.03,687.37 609.67,687.37 639.32,687.37 668.96,687.37 698.6,687.37 728.25,687.37 757.89,687.37 787.53,676.62 817.17,520.62 846.82,655.1 876.46,622.83 906.1,638.96 935.75,649.72 935.75,649.72 906.1,665.86 876.46,660.48 846.82,660.48 817.17,671.24 787.53,681.99 757.89,687.37 728.25,687.37 698.6,687.37 668.96,687.37 639.32,687.37 609.67,687.37 580.03,687.37 550.39,687.37 520.75,687.37 491.1,687.37 461.46,687.37 431.82,687.37 402.17,687.37 372.53,687.37 342.89,687.37 313.25,687.37 283.6,687.37 253.96,687.37 224.32,687.37 " stroke="#002d1c" stroke-width="1.2047" fill="#002d1c" />
<polyline points="194.67,687.37 224.32,687.37 253.96,687.37 283.6,687.37 313.25,687.37 342.89,687.37 372.53,687.37 402.17,687.37 431.82,687.37 461.46,687.37 491.1,687.37 520.75,687.37 550.39,687.37 580.03,687.37 609.67,687.37 639.32,687.37 668.96,687.37 698.6,687.37 728.25,687.37 757.89,687.37 787.53,687.37 817.17,687.37 846.82,687.37 876.46,687.37 906.1,687.37 935.75,687.37 " stroke-width="0.96971" />
<polygon points="194.67,687.37 224.32,687.37 253.96,687.37 283.6,687.37 313.25,687.37 342.89,687.37 372.53,687.37 402.17,687.37 431.82,687.37 461.46,687.37 491.1,687.37 520.75,687.37 550.39,687.37 580.03,687.37 609.67,687.37 639.32,687.37 668.96,687.37 698.6,687.37 728.25,687.37 757.89,687.37 787.53,681.99 817.17,671.24 846.82,660.48 876.46,660.48 906.1,665.86 935.75,649.72 935.75,687.37 906.1,687.37 876.46,687.37 846.82,687.37 817.17,687.37 787.53,687.37 757.89,687.37 728.25,687.37 698.6,687.37 668.96,687.37 639.32,687.37 609.67,687.37 580.03,687.37 550.39,687.37 520.75,687.37 491.1,687.37 461.46,687.37 431.82,687.37 402.17,687.37 372.53,687.37 342.89,687.37 313.25,687.37 283.6,687.37 253.96,687.37 224.32,687.37 " stroke="#009cd9" stroke-width="1.2047" fill="#009cd9" />
<polyline points="194.67,687.37 224.32,687.37 253.96,687.37 283.6,687.37 313.25,687.37 342.89,687.37 372.53,687.37 402.17,687.37 431.82,687.37 461.46,687.37 491.1,687.37 520.75,687.37 550.39,687.37 580.03,687.37 609.67,687.37 639.32,687.37 668.96,687.37 698.6,687.37 728.25,687.37 757.89,687.37 787.53,687.37 817.17,687.37 846.82,687.37 876.46,687.37 906.1,687.37 935.75,687.37 " stroke-width="0.96971" />
<polygon points="194.67,687.37 224.32,687.37 253.96,687.37 283.6,687.37 313.25,687.37 342.89,687.37 372.53,687.37 402.17,687.37 431.82,687.37 461.46,687.37 491.1,687.37 520.75,687.37 550.39,687.37 580.03,687.37 609.67,687.37 639.32,687.37 668.96,687.37 698.6,687.37 728.25,687.37 757.89,687.37 787.53,687.37 817.17,687.37 846.82,687.37 876.46,687.37 906.1,687.37 935.75,687.37 935.75,687.37 906.1,687.37 876.46,687.37 846.82,687.37 817.17,687.37 787.53,687.37 757.89,687.37 728.25,687.37 698.6,687.37 668.96,687.37 639.32,687.37 609.67,687.37 580.03,687.37 550.39,687.37 520.75,687.37 491.1,687.37 461.46,687.37 431.82,687.37 402.17,687.37 372.53,687.37 342.89,687.37 313.25,687.37 283.6,687.37 253.96,687.37 224.32,687.37 " stroke="#0042ca" stroke-width="1.2047" fill="#0042ca" />
<polyline points="194.67,687.37 224.32,687.37 253.96,687.37 283.6,687.37 313.25,687.37 342.89,687.37 372.53,687.37 402.17,687.37 431.82,687.37 461.46,687.37 491.1,687.37 520.75,687.37 550.39,687.37 580.03,687.37 609.67,687.37 639.32,687.37 668.96,687.37 698.6,687.37 728.25,687.37 757.89,687.37 787.53,687.37 817.17,687.37 846.82,687.37 876.46,687.37 906.1,687.37 935.75,687.37 " stroke-width="0.96971" />
<polygon points="194.67,687.37 224.32,687.37 253.96,687.37 283.6,687.37 313.25,687.37 342.89,687.37 372.53,687.37 402.17,687.37 431.82,687.37 461.46,687.37 491.1,687.37 520.75,687.37 550.39,687.37 580.03,687.37 609.67,687.37 639.32,687.37 668.96,687.37 698.6,687.37 728.25,687.37 757.89,687.37 787.53,687.37 817.17,687.37 846.82,687.37 876.46,687.37 906.1,687.37 935.75,687.37 935.75,687.37 906.1,687.37 876.46,687.37 846.82,687.37 817.17,687.37 787.53,687.37 757.89,687.37 728.25,687.37 698.6,687.37 668.96,687.37 639.32,687.37 609.67,687.37 580.03,687.37 550.39,687.37 520.75,687.37 491.1,687.37 461.46,687.37 431.82,687.37 402.17,687.37 372.53,687.37 342.89,687.37 313.25,687.37 283.6,687.37 253.96,687.37 224.32,687.37 " stroke="#015941" stroke-width="1.2047" fill="#015941" />
<polyline points="194.67,687.37 224.32,687.37 253.96,687.37 283.6,687.37 313.25,687.37 342.89,687.37 372.53,687.37 402.17,687.37 431.82,687.37 461.46,687.37 491.1,687.37 520.75,687.37 550.39,687.37 580.03,687.37 609.67,687.37 639.32,687.37 668.96,687.37 698.6,687.37 728.25,687.37 757.89,687.37 787.53,687.37 817.17,687.37 846.82,687.37 876.46,687.37 906.1,687.37 935.75,687.37 " stroke-width="0.96971" />
<polygon points="194.67,687.37 224.32,687.37 253.96,687.37 283.6,687.37 313.25,687.37 342.89,687.37 372.53,687.37 402.17,687.37 431.82,687.37 461.46,687.37 491.1,687.37 520.75,687.37 550.39,687.37 580.03,687.37 609.67,687.37 639.32,687.37 668.96,687.37 698.6,687.37 728.25,687.37 757.89,687.37 787.53,687.37 817.17,687.37 846.82,687.37 876.46,687.37 906.1,687.37 935.75,687.37 935.75,687.37 906.1,687.37 876.46,687.37 846.82,687.37 817.17,687.37 787.53,687.37 757.89,687.37 728.25,687.37 698.6,687.37 668.96,687.37 639.32,687.37 609.67,687.37 580.03,687.37 550.39,687.37 520.75,687.37 491.1,687.37 461.46,687.37 431.82,687.37 402.17,687.37 372.53,687.37 342.89,687.37 313.25,687.37 283.6,687.37 253.96,687.37 224.32,687.37 " stroke="#00ee79" stroke-width="1.2047" fill="#00ee79" />
<polyline points="194.67,687.37 224.32,687.37 253.96,687.37 283.6,687.37 313.25,687.37 342.89,687.37 372.53,687.37 402.17,687.37 431.82,687.37 461.46,687.37 491.1,687.37 520.75,687.37 550.39,687.37 580.03,687.37 609.67,687.37 639.32,687.37 668.96,687.37 698.6,687.37 728.25,687.37 757.89,687.37 787.53,687.37 817.17,687.37 846.82,687.37 876.46,687.37 906.1,687.37 935.75,687.37 " stroke-width="0.96971" />
<polygon points="194.67,687.37 224.32,687.37 253.96,687.37 283.6,687.37 313.25,687.37 342.89,687.37 372.53,687.37 402.17,687.37 431.82,687.37 461.46,687.37 491.1,687.37 520.75,687.37 550.39,687.37 580.03,687.37 609.67,687.37 639.32,687.37 668.96,687.37 698.6,687.37 728.25,687.37 757.89,687.37 787.53,687.37 817.17,687.37 846.82,687.37 876.46,687.37 906.1,687.37 935.75,687.37 935.75,687.37 906.1,687.37 876.46,687.37 846.82,687.37 817.17,687.37 787.53,687.37 757.89,687.37 728.25,687.37 698.6,687.37 668.96,687.37 639.32,687.37 609.67,687.37 580.03,687.37 550.39,687.37 520.75,687.37 491.1,687.37 461.46,687.37 431.82,687.37 402.17,687.37 372.53,687.37 342.89,687.37 313.25,687.37 283.6,687.37 253.96,687.37 224.32,687.37 " stroke="#014d8c" stroke-width="1.2047" fill="#014d8c" />
<polyline points="194.67,687.37 224.32,687.37 253.96,687.37 283.6,687.37 313.25,687.37 342.89,687.37 372.53,687.37 402.17,687.37 431.82,687.37 461.46,687.37 491.1,687.37 520.75,687.37 550.39,687.37 580.03,687.37 609.67,687.37 639.32,687.37 668.96,687.37 698.6,687.37 728.25,687.37 757.89,687.37 787.53,687.37 817.17,687.37 846.82,687.37 876.46,687.37 906.1,687.37 935.75,687.37 " stroke-width="0.96971" />
<polygon points="194.67,687.37 224.32,687.37 253.96,687.37 283.6,687.37 313.25,687.37 342.89,687.37 372.53,687.37 402.17,687.37 431.82,687.37 461.46,687.37 491.1,687.37 520.75,687.37 550.39,687.37 580.03,687.37 609.67,687.37 639.32,687.37 668.96,687.37 698.6,687.37 728.25,687.37 757.89,687.37 787.53,687.37 817.17,687.37 846.82,687.37 876.46,687.37 906.1,687.37 935.75,687.37 935.75,687.37 906.1,687.37 876.46,687.37 846.82,687.37 817.17,687.37 787.53,687.37 757.89,687.37 728.25,687.37 698.6,687.37 668.96,687.37 639.32,687.37 609.67,687.37 580.03,687.37 550.39,687.37 520.75,687.37 491.1,687.37 461.46,687.37 431.82,687.37 402.17,687.37 372.53,687.37 342.89,687.37 313.25,687.37 283.6,687.37 253.96,687.37 224.32,687.37 " stroke="#015901" stroke-width="1.2047" fill="#015901" />
<polyline points="194.67,687.37 224.32,687.37 253.96,687.37 283.6,687.37 313.25,687.37 342.89,687.37 372.53,687.37 402.17,687.37 431.82,687.37 461.46,687.37 491.1,687.37 520.75,687.37 550.39,687.37 580.03,687.37 609.67,687.37 639.32,687.37 668.96,687.37 698.6,687.37 728.25,687.37 757.89,687.37 787.53,687.37 817.17,687.37 846.82,687.37 876.46,687.37 906.1,687.37 935.75,687.37 " stroke-width="0.96971" />
<polygon points="194.67,687.37 224.32,687.37 253.96,687.37 283.6,687.37 313.25,687.37 342.89,687.37 372.53,687.37 402.17,687.37 431.82,687.37 461.46,687.37 491.1,687.37 520.75,687.37 550.39,687.37 580.03,687.37 609.67,687.37 639.32,687.37 668.96,687.37 698.6,687.37 728.25,687.37 757.89,687.37 787.53,687.37 817.17,687.37 846.82,687.37 876.46,687.37 906.1,687.37 935.75,687.37 935.75,687.37 906.1,687.37 876.46,687.37 846.82,687.37 817.17,687.37 787.53,687.37 757.89,687.37 728.25,687.37 698.6,687.37 668.96,687.37 639.32,687.37 609.67,687.37 580.03,687.37 550.39,687.37 520.75,687.37 491.1,687.37 461.46,687.37 431.82,687.37 402.17,687.37 372.53,687.37 342.89,687.37 313.25,687.37 283.6,687.37 253.96,687.37 224.32,687.37 " stroke="#00032f" stroke-width="1.2047" fill="#00032f" />
<polyline points="194.67,687.37 224.32,687.37 253.96,687.37 283.6,687.37 313.25,687.37 342.89,687.37 372.53,687.37 402.17,687.37 431.82,687.37 461.46,687.37 491.1,687.37 520.75,687.37 550.39,687.37 580.03,687.37 609.67,687.37 639.32,687.37 668.96,687.37 698.6,687.37 728.25,687.37 757.89,687.37 787.53,687.37 817.17,687.37 846.82,687.37 876.46,687.37 906.1,687.37 935.75,687.37 " stroke-width="0.96971" />
<polygon points="194.67,687.37 224.32,687.37 253.96,687.37 283.6,687.37 313.25,687.37 342.89,687.37 372.53,687.37 402.17,687.37 431.82,687.37 461.46,687.37 491.1,687.37 520.75,687.37 550.39,687.37 580.03,687.37 609.67,687.37 639.32,687.37 668.96,687.37 698.6,687.37 728.25,687.37 757.89,687.37 787.53,687.37 817.17,687.37 846.82,687.37 876.46,687.37 906.1,687.37 935.75,687.37 935.75,687.37 906.1,687.37 876.46,687.37 846.82,687.37 817.17,687.37 787.53,687.37 757.89,687.37 728.25,687.37 698.6,687.37 668.96,687.37 639.32,687.37 609.67,687.37 580.03,687.37 550.39,687.37 520.75,687.37 491.1,687.37 461.46,687.37 431.82,687.37 402.17,687.37 372.53,687.37 342.89,687.37 313.25,687.37 283.6,687.37 253.96,687.37 224.32,687.37 " stroke="#010734" stroke-width="1.2047" fill="#010734" />
<polyline points="194.67,687.37 224.32,687.37 253.96,687.37 283.6,687.37 313.25,687.37 342.89,687.37 372.53,687.37 402.17,687.37 431.82,687.37 461.46,687.37 491.1,687.37 520.75,687.37 550.39,687.37 580.03,687.37 609.67,687.37 639.32,687.37 668.96,687.37 698.6,687.37 728.25,687.37 757.89,687.37 787.53,687.37 817.17,687.37 846.82,687.37 876.46,687.37 906.1,687.37 935.75,687.37 " stroke-width="0.96971" />
<polygon points="194.67,687.37 224.32,687.37 253.96,687.37 283.6,687.37 313.25,687.37 342.89,687.37 372.53,687.37 402.17,687.37 431.82,687.37 461.46,687.37 491.1,687.37 520.75,687.37 550.39,687.37 580.03,687.37 609.67,687.37 639.32,687.37 668.96,687.37 698.6,687.37 728.25,687.37 757.89,687.37 787.53,687.37 817.17,687.37 846.82,687.37 876.46,687.37 906.1,687.37 935.75,687.37 935.75,687.37 906.1,687.37 876.46,687.37 846.82,687.37 817.17,687.37 787.53,687.37 757.89,687.37 728.25,687.37 698.6,687.37 668.96,687.37 639.32,687.37 609.67,687.37 580.03,687.37 550.39,687.37 520.75,687.37 491.1,687.37 461.46,687.37 431.82,687.37 402.17,687.37 372.53,687.37 342.89,687.37 313.25,687.37 283.6,687.37 253.96,687.37 224.32,687.37 " stroke="#004044" stroke-width="1.2047" fill="#004044" />
<polyline points="194.67,687.37 224.32,687.37 253.96,687.37 283.6,687.37 313.25,687.37 342.89,687.37 372.53,687.37 402.17,687.37 431.82,687.37 461.46,687.37 491.1,687.37 520.75,687.37 550.39,687.37 580.03,687.37 609.67,687.37 639.32,687.37 668.96,687.37 698.6,687.37 728.25,687.37 757.89,687.37 787.53,687.37 817.17,687.37 846.82,687.37 876.46,687.37 906.1,687.37 935.75,687.37 " stroke-width="0.96971" />
<polygon points="194.67,687.37 224.32,687.37 253.96,687.37 283.6,687.37 313.25,687.37 342.89,687.37 372.53,687.37 402.17,687.37 431.82,687.37 461.46,687.37 491.1,687.37 520.75,687.37 550.39,687.37 580.03,687.37 609.67,687.37 639.32,687.37 668.96,687.37 698.6,687.37 728.25,687.37 757.89,687.37 787.53,687.37 817.17,687.37 846.82,687.37 876.46,687.37 906.1,687.37 935.75,687.37 935.75,687.37 906.1,687.37 876.46,687.37 846.82,687.37 817.17,687.37 787.53,687.37 757.89,687.37 728.25,687.37 698.6,687.37 668.96,687.37 639.32,687.37 609.67,687.37 580.03,687.37 550.39,687.37 520.75,687.37 491.1,687.37 461.46,687.37 431.82,687.37 402.17,687.37 372.53,687.37 342.89,687.37 313.25,687.37 283.6,687.37 253.96,687.37 224.32,687.37 " stroke="#000300" stroke-width="1.2047" fill="#000300" />
<polyline points="194.67,687.37 224.32,687.37 253.96,687.37 283.6,687.37 313.25,687.37 342.89,687.37 372.53,687.37 402.17,687.37 431.82,687.37 461.46,687.37 491.1,687.37 520.75,687.37 550.39,687.37 580.03,687.37 609.67,687.37 639.32,687.37 668.96,687.37 698.6,687.37 728.25,687.37 757.89,687.37 787.53,687.37 817.17,687.37 846.82,687.37 876.46,687.37 906.1,687.37 935.75,687.37 " stroke-width="0.96971" />
<polygon points="194.67,687.37 224.32,687.37 253.96,687.37 283.6,687.37 313.25,687.37 342.89,687.37 372.53,687.37 402.17,687.37 431.82,687.37 461.46,687.37 491.1,687.37 520.75,687.37 550.39,687.37 580.03,687.37 609.67,687.37 639.32,687.37 668.96,687.37 698.6,687.37 728.25,687.37 757.89,687.37 787.53,687.37 817.17,687.37 846.82,687.37 876.46,687.37 906.1,687.37 935.75,687.37 935.75,687.37 906.1,687.37 876.46,687.37 846.82,687.37 817.17,687.37 787.53,687.37 757.89,687.37 728.25,687.37 698.6,687.37 668.96,687.37 639.32,687.37 609.67,687.37 580.03,687.37 550.39,687.37 520.75,687.37 491.1,687.37 461.46,687.37 431.82,687.37 402.17,687.37 372.53,687.37 342.89,687.37 313.25,687.37 283.6,687.37 253.96,687.37 224.32,687.37 " stroke="#00b13a" stroke-width="1.2047" fill="#00b13a" />
<polyline points="194.67,687.37 224.32,687.37 253.96,687.37 283.6,687.37 313.25,687.37 342.89,687.37 372.53,687.37 402.17,687.37 431.82,687.37 461.46,687.37 491.1,687.37 520.75,687.37 550.39,687.37 580.03,687.37 609.67,687.37 639.32,687.37 668.96,687.37 698.6,687.37 728.25,687.37 757.89,687.37 787.53,687.37 817.17,687.37 846.82,687.37 876.46,687.37 906.1,687.37 935.75,687.37 " stroke-width="0.96971" />
<polygon points="194.67,687.37 224.32,687.37 253.96,687.37 283.6,687.37 313.25,687.37 342.89,687.37 372.53,687.37 402.17,687.37 431.82,687.37 461.46,687.37 491.1,687.37 520.75,687.37 550.39,687.37 580.03,687.37 609.67,687.37 639.32,687.37 668.96,687.37 698.6,687.37 728.25,687.37 757.89,687.37 787.53,687.37 817.17,687.37 846.82,687.37 876.46,687.37 906.1,687.37 935.75,687.37 935.75,687.37 906.1,687.37 876.46,687.37 846.82,687.37 817.17,687.37 787.53,687.37 757.89,687.37 728.25,687.37 698.6,687.37 668.96,687.37 639.32,687.37 609.67,687.37 580.03,687.37 550.39,687.37 520.75,687.37 491.1,687.37 461.46,687.37 431.82,687.37 402.17,687.37 372.53,687.37 342.89,687.37 313.25,687.37 283.6,687.37 253.96,687.37 224.32,687.37 " stroke="#008dfe" stroke-width="1.2047" fill="#008dfe" />
<polyline points="194.67,687.37 224.32,687.37 253.96,687.37 283.6,687.37 313.25,687.37 342.89,687.37 372.53,687.37 402.17,687.37 431.82,687.37 461.46,687.37 491.1,687.37 520.75,687.37 550.39,687.37 580.03,687.37 609.67,687.37 639.32,687.37 668.96,687.37 698.6,687.37 728.25,687.37 757.89,687.37 787.53,687.37 817.17,687.37 846.82,687.37 876.46,687.37 906.1,687.37 935.75,687.37 " stroke-width="0.96971" />
<polygon points="194.67,687.37 224.32,687.37 253.96,687.37 283.6,687.37 313.25,687.37 342.89,687.37 372.53,687.37 402.17,687.37 431.82,687.37 461.46,687.37 491.1,687.37 520.75,687.37 550.39,687.37 580.03,687.37 609.67,687.37 639.32,687.37 668.96,687.37 698.6,687.37 728.25,687.37 757.89,687.37 787.53,687.37 817.17,687.37 846.82,687.37 876.46,687.37 906.1,687.37 935.75,687.37 935.75,687.37 906.1,687.37 876.46,687.37 846.82,687.37 817.17,687.37 787.53,687.37 757.89,687.37 728.25,687.37 698.6,687.37 668.96,687.37 639.32,687.37 609.67,687.37 580.03,687.37 550.39,687.37 520.75,687.37 491.1,687.37 461.46,687.37 431.82,687.37 402.17,687.37 372.53,687.37 342.89,687.37 313.25,687.37 283.6,687.37 253.96,687.37 224.32,687.37 " stroke="#015f14" stroke-width="1.2047" fill="#015f14" />
<polyline points="194.67,687.37 224.32,687.37 253.96,687.37 283.6,687.37 313.25,687.37 342.89,687.37 372.53,687.37 402.17,687.37 431.82,687.37 461.46,687.37 491.1,687.37 520.75,687.37 550.39,687.37 580.03,687.37 609.67,687.37 639.32,687.37 668.96,687.37 698.6,687.37 728.25,687.37 757.89,687.37 787.53,687.37 817.17,687.37 846.82,687.37 876.46,687.37 906.1,687.37 935.75,687.37 " stroke-width="0.96971" />
<polygon points="194.67,687.37 224.32,687.37 253.96,687.37 283.6,687.37 313.25,687.37 342.89,687.37 372.53,687.37 402.17,687.37 431.82,687.37 461.46,687.37 491.1,687.37 520.75,687.37 550.39,687.37 580.03,687.37 609.67,687.37 639.32,687.37 668.96,687.37 698.6,687.37 728.25,687.37 757.89,687.37 787.53,687.37 817.17,687.37 846.82,687.37 876.46,687.37 906.1,687.37 935.75,687.37 935.75,687.37 906.1,687.37 876.46,687.37 846.82,687.37 817.17,687.37 787.53,687.37 757.89,687.37 728.25,687.37 698.6,687.37 668.96,687.37 639.32,687.37 609.67,687.37 580.03,687.37 550.39,687.37 520.75,687.37 491.1,687.37 461.46,687.37 431.82,687.37 402.17,687.37 372.53,687.37 342.89,687.37 313.25,687.37 283.6,687.37 253.96,687.37 224.32,687.37 " stroke="#000df8" stroke-width="1.2047" fill="#000df8" />
<polyline points="194.67,687.37 224.32,687.37 253.96,687.37 283.6,687.37 313.25,687.37 342.89,687.37 372.53,687.37 402.17,687.37 431.82,687.37 461.46,687.37 491.1,687.37 520.75,687.37 550.39,687.37 580.03,687.37 609.67,687.37 639.32,687.37 668.96,687.37 698.6,687.37 728.25,687.37 757.89,687.37 787.53,687.37 817.17,687.37 846.82,687.37 876.46,687.37 906.1,687.37 935.75,687.37 " stroke-width="0.96971" />
<polygon points="194.67,687.37 224.32,687.37 253.96,687.37 283.6,687.37 313.25,687.37 342.89,687.37 372.53,687.37 402.17,687.37 431.82,687.37 461.46,687.37 491.1,687.37 520.75,687.37 550.39,687.37 580.03,687.37 609.67,687.37 639.32,687.37 668.96,687.37 698.6,687.37 728.25,687.37 757.89,687.37 787.53,687.37 817.17,687.37 846.82,687.37 876.46,687.37 906.1,687.37 935.75,687.37 935.75,687.37 906.1,687.37 876.46,687.37 846.82,687.37 817.17,687.37 787.53,687.37 757.89,687.37 728.25,687.37 698.6,687.37 668.96,687.37 639.32,687.37 609.67,687.37 580.03,687.37 550.39,687.37 520.75,687.37 491.1,687.37 461.46,687.37 431.82,687.37 402.17,687.37 372.53,687.37 342.89,687.37 313.25,687.37 283.6,687.37 253.96,687.37 224.32,687.37 " stroke="#0014d1" stroke-width="1.2047" fill="#0014d1" />
<line x1="972.8" y1="122.58" x2="965.53" y2="122.58" stroke-width="1.2047" />
<line x1="972.8" y1="149.47" x2="965.53" y2="149.47" stroke-width="1.2047" />
<line x1="972.8" y1="176.37" x2="965.53" y2="176.37" stroke-width="1.2047" />
<line x1="972.8" y1="203.26" x2="965.53" y2="203.26" stroke-width="1.2047" />
<line x1="972.8" y1="230.16" x2="965.53" y2="230.16" stroke-width="1.2047" />
<line x1="972.8" y1="257.05" x2="965.53" y2="257.05" stroke-width="1.2047" />
<line x1="972.8" y1="283.95" x2="965.53" y2="283.95" stroke-width="1.2047" />
<line x1="972.8" y1="310.84" x2="965.53" y2="310.84" stroke-width="1.2047" />
<line x1="972.8" y1="337.74" x2="965.53" y2="337.74" stroke-width="1.2047" />
<line x1="972.8" y1="364.63" x2="965.53" y2="364.63" stroke-width="1.2047" />
<line x1="972.8" y1="391.53" x2="965.53" y2="391.53" stroke-width="1.2047" />
<line x1="972.8" y1="418.42" x2="965.53" y2="418.42" stroke-width="1.2047" />
<line x1="972.8" y1="445.32" x2="965.53" y2="445.32" stroke-width="1.2047" />
<line x1="972.8" y1="472.21" x2="965.53" y2="472.21" stroke-width="1.2047" />
<line x1="972.8" y1="499.11" x2="965.53" y2="499.11" stroke-width="1.2047" />
<line x1="972.8" y1="526" x2="965.53" y2="526" stroke-width="1.2047" />
<line x1="972.8" y1="552.9" x2="965.53" y2="552.9" stroke-width="1.2047" />
<line x1="972.8" y1="579.79" x2="965.53" y2="579.79" stroke-width="1.2047" />
<line x1="972.8" y1="606.69" x2="965.53" y2="606.69" stroke-width="1.2047" />
<line x1="972.8" y1="633.58" x2="965.53" y2="633.58" stroke-width="1.2047" />
<line x1="972.8" y1="660.48" x2="965.53" y2="660.48" stroke-width="1.2047" />
<line x1="972.8" y1="687.37" x2="965.53" y2="687.37" stroke-width="1.2047" />
<line x1="972.8" y1="714.27" x2="965.53" y2="714.27" stroke-width="1.2047" />
<line x1="972.8" y1="149.47" x2="958.25" y2="149.47" stroke-width="1.2047" />
<line x1="972.8" y1="257.05" x2="958.25" y2="257.05" stroke-width="1.2047" />
<line x1="972.8" y1="364.63" x2="958.25" y2="364.63" stroke-width="1.2047" />
<line x1="972.8" y1="472.21" x2="958.25" y2="472.21" stroke-width="1.2047" />
<line x1="972.8" y1="579.79" x2="958.25" y2="579.79" stroke-width="1.2047" />
<line x1="972.8" y1="687.37" x2="958.25" y2="687.37" stroke-width="1.2047" />
<line x1="972.8" y1="122.58" x2="972.8" y2="714.27" stroke-width="1.2047" />
<line x1="165.03" y1="714.27" x2="165.03" y2="707" stroke-width="1.2047" />
<line x1="194.67" y1="714.27" x2="194.67" y2="707" stroke-width="1.2047" />
<line x1="224.32" y1="714.27" x2="224.32" y2="707" stroke-width="1.2047" />
<line x1="253.96" y1="714.27" x2="253.96" y2="707" stroke-width="1.2047" />
<line x1="283.6" y1="714.27" x2="283.6" y2="707" stroke-width="1.2047" />
<line x1="313.25" y1="714.27" x2="313.25" y2="707" stroke-width="1.2047" />
<line x1="342.89" y1="714.27" x2="342.89" y2="707" stroke-width="1.2047" />
<line x1="372.53" y1="714.27" x2="372.53" y2="707" stroke-width="1.2047" />
<line x1="402.17" y1="714.27" x2="402.17" y2="707" stroke-width="1.2047" />
<line x1="431.82" y1="714.27" x2="431.82" y2="707" stroke-width="1.2047" />
<line x1="461.46" y1="714.27" x2="461.46" y2="707" stroke-width="1.2047" />
<line x1="491.1" y1="714.27" x2="491.1" y2="707" stroke-width="1.2047" />
<line x1="520.75" y1="714.27" x2="520.75" y2="707" stroke-width="1.2047" />
<line x1="550.39" y1="714.27" x2="550.39" y2="707" stroke-width="1.2047" />
<line x1="580.03" y1="714.27" x2="580.03" y2="707" stroke-width="1.2047" />
<line x1="609.67" y1="714.27" x2="609.67" y2="707" stroke-width="1.2047" />
<line x1="639.32" y1="714.27" x2="639.32" y2="707" stroke-width="1.2047" />
<line x1="668.96" y1="714.27" x2="668.96" y2="707" stroke-width="1.2047" />
<line x1="698.6" y1="714.27" x2="698.6" y2="707" stroke-width="1.2047" />
<line x1="728.25" y1="714.27" x2="728.25" y2="707" stroke-width="1.2047" />
<line x1="757.89" y1="714.27" x2="757.89" y2="707" stroke-width="1.2047" />
<line x1="787.53" y1="714.27" x2="787.53" y2="707" stroke-width="1.2047" />
<line x1="817.17" y1="714.27" x2="817.17" y2="707" stroke-width="1.2047" />
<line x1="846.82" y1="714.27" x2="846.82" y2="707" stroke-width="1.2047" />
<line x1="876.46" y1="714.27" x2="876.46" y2="707" stroke-width="1.2047" />
<line x1="906.1" y1="714.27" x2="906.1" y2="707" stroke-width="1.2047" />
<line x1="935.75" y1="714.27" x2="935.75" y2="707" stroke-width="1.2047" />
<line x1="965.39" y1="714.27" x2="965.39" y2="707" stroke-width="1.2047" />
<line x1="194.67" y1="714.27" x2="194.67" y2="699.72" stroke-width="1.2047" />
<line x1="342.89" y1="714.27" x2="342.89" y2="699.72" stroke-width="1.2047" />
<line x1="491.1" y1="714.27" x2="491.1" y2="699.72" stroke-width="1.2047" />
<line x1="639.32" y1="714.27" x2="639.32" y2="699.72" stroke-width="1.2047" />
<line x1="787.53" y1="714.27" x2="787.53" y2="699.72" stroke-width="1.2047" />
<line x1="935.75" y1="714.27" x2="935.75" y2="699.72" stroke-width="1.2047" />
<line x1="157.62" y1="714.27" x2="972.8" y2="714.27" stroke-width="1.2047" />
<line x1="157.62" y1="122.58" x2="164.89" y2="122.58" stroke-width="1.2047" />
<line x1="157.62" y1="149.47" x2="164.89" y2="149.47" stroke-width="1.2047" />
<line x1="157.62" y1="176.37" x2="164.89" y2="176.37" stroke-width="1.2047" />
<line x1="157.62" y1="203.26" x2="164.89" y2="203.26" stroke-width="1.2047" />
<line x1="157.62" y1="230.16" x2="164.89" y2="230.16" stroke-width="1.2047" />
<line x1="157.62" y1="257.05" x2="164.89" y2="257.05" stroke-width="1.2047" />
<line x1="157.62" y1="283.95" x2="164.89" y2="283.95" stroke-width="1.2047" />
<line x1="157.62" y1="310.84" x2="164.89" y2="310.84" stroke-width="1.2047" />
<line x1="157.62" y1="337.74" x2="164.89" y2="337.74" stroke-width="1.2047" />
<line x1="157.62" y1="364.63" x2="164.89" y2="364.63" stroke-width="1.2047" />
<line x1="157.62" y1="391.53" x2="164.89" y2="391.53" stroke-width="1.2047" />
<line x1="157.62" y1="418.42" x2="164.89" y2="418.42" stroke-width="1.2047" />
<line x1="157.62" y1="445.32" x2="164.89" y2="445.32" stroke-width="1.2047" />
<line x1="157.62" y1="472.21" x2="164.89" y2="472.21" stroke-width="1.2047" />
<line x1="157.62" y1="499.11" x2="164.89" y2="499.11" stroke-width="1.2047" />
<line x1="157.62" y1="526" x2="164.89" y2="526" stroke-width="1.2047" />
<line x1="157.62" y1="552.9" x2="164.89" y2="552.9" stroke-width="1.2047" />
<line x1="157.62" y1="579.79" x2="164.89" y2="579.79" stroke-width="1.2047" />
<line x1="157.62" y1="606.69" x2="164.89" y2="606.69" stroke-width="1.2047" />
<line x1="157.62" y1="633.58" x2="164.89" y2="633.58" stroke-width="1.2047" />
<line x1="157.62" y1="660.48" x2="164.89" y2="660.48" stroke-width="1.2047" />
<line x1="157.62" y1="687.37" x2="164.89" y2="687.37" stroke-width="1.2047" />
<line x1="157.62" y1="714.27" x2="164.89" y2="714.27" stroke-width="1.2047" />
<line x1="157.62" y1="149.47" x2="172.17" y2="149.47" stroke-width="1.2047" />
<line x1="157.62" y1="257.05" x2="172.17" y2="257.05" stroke-width="1.2047" />
<line x1="157.62" y1="364.63" x2="172.17" y2="364.63" stroke-width="1.2047" />
<line x1="157.62" y1="472.21" x2="172.17" y2="472.21" stroke-width="1.2047" />
<line x1="157.62" y1="579.79" x2="172.17" y2="579.79" stroke-width="1.2047" />
<line x1="157.62" y1="687.37" x2="172.17" y2="687.37" stroke-width="1.2047" />
<line x1="157.62" y1="122.58" x2="157.62" y2="714.27" stroke-width="1.2047" />
<polyline points="133.38,160.05 130.73,159.17 128.97,156.52 128.09,152.12 128.09,149.47 128.97,145.06 130.73,142.42 133.38,141.54 135.14,141.54 137.79,142.42 139.55,145.06 140.43,149.47 140.43,152.12 139.55,156.52 137.79,159.17 135.14,160.05 133.38,160.05 " stroke-width="1.2518" stroke-linecap="round" stroke-linejoin="round" />
<polyline points="111.34,263.22 111.34,264.1 112.22,265.87 113.1,266.75 114.87,267.63 118.39,267.63 120.15,266.75 121.04,265.87 121.92,264.1 121.92,262.34 121.04,260.58 119.27,257.93 110.46,249.12 122.8,249.12 " stroke-width="1.2518" stroke-linecap="round" stroke-linejoin="round" />
<polygon points="133.38,267.63 130.73,266.75 128.97,264.1 128.09,259.7 128.09,257.05 128.97,252.64 130.73,250 133.38,249.12 135.14,249.12 137.79,250 139.55,252.64 140.43,257.05 140.43,259.7 139.55,264.1 137.79,266.75 135.14,267.63 " stroke-width="1.2518" stroke-linejoin="round" />
<polyline points="119.27,375.21 110.46,362.87 123.68,362.87 " stroke-width="1.2518" stroke-linecap="round" stroke-linejoin="round" />
<line x1="119.27" y1="375.21" x2="119.27" y2="356.7" stroke-width="1.2518" stroke-linecap="round" />
<polygon points="133.38,375.21 130.73,374.33 128.97,371.68 128.09,367.28 128.09,364.63 128.97,360.22 130.73,357.58 133.38,356.7 135.14,356.7 137.79,357.58 139.55,360.22 140.43,364.63 140.43,367.28 139.55,371.68 137.79,374.33 135.14,375.21 " stroke-width="1.2518" stroke-linejoin="round" />
<polyline points="121.92,480.15 121.04,481.91 118.39,482.79 116.63,482.79 113.98,481.91 112.22,479.26 111.34,474.86 111.34,470.45 112.22,466.92 113.98,465.16 116.63,464.28 117.51,464.28 120.15,465.16 121.92,466.92 122.8,469.57 122.8,470.45 121.92,473.09 120.15,474.86 117.51,475.74 116.63,475.74 113.98,474.86 112.22,473.09 111.34,470.45 " stroke-width="1.2518" stroke-linecap="round" stroke-linejoin="round" />
<polygon points="133.38,482.79 130.73,481.91 128.97,479.26 128.09,474.86 128.09,472.21 128.97,467.8 130.73,465.16 133.38,464.28 135.14,464.28 137.79,465.16 139.55,467.8 140.43,472.21 140.43,474.86 139.55,479.26 137.79,481.91 135.14,482.79 " stroke-width="1.2518" stroke-linejoin="round" />
<polyline points="114.87,590.37 112.22,589.49 111.34,587.73 111.34,585.96 112.22,584.2 113.98,583.32 117.51,582.44 120.15,581.56 121.92,579.79 122.8,578.03 122.8,575.39 121.92,573.62 121.04,572.74 118.39,571.86 114.87,571.86 112.22,572.74 111.34,573.62 110.46,575.39 110.46,578.03 111.34,579.79 113.1,581.56 115.75,582.44 119.27,583.32 121.04,584.2 121.92,585.96 121.92,587.73 121.04,589.49 118.39,590.37 114.87,590.37 " stroke-width="1.2518" stroke-linecap="round" stroke-linejoin="round" />
<polygon points="133.38,590.37 130.73,589.49 128.97,586.85 128.09,582.44 128.09,579.79 128.97,575.39 130.73,572.74 133.38,571.86 135.14,571.86 137.79,572.74 139.55,575.39 140.43,579.79 140.43,582.44 139.55,586.85 137.79,589.49 135.14,590.37 " stroke-width="1.2518" stroke-linejoin="round" />
<polyline points="95.472,694.43 97.235,695.31 99.879,697.95 99.879,679.44 " stroke-width="1.2518" stroke-linecap="round" stroke-linejoin="round" />
<polygon points="115.75,697.95 113.1,697.07 111.34,694.43 110.46,690.02 110.46,687.37 111.34,682.97 113.1,680.32 115.75,679.44 117.51,679.44 120.15,680.32 121.92,682.97 122.8,687.37 122.8,690.02 121.92,694.43 120.15,697.07 117.51,697.95 " stroke-width="1.2518" stroke-linejoin="round" />
<polygon points="133.38,697.95 130.73,697.07 128.97,694.43 128.09,690.02 128.09,687.37 128.97,682.97 130.73,680.32 133.38,679.44 135.14,679.44 137.79,680.32 139.55,682.97 140.43,687.37 140.43,690.02 139.55,694.43 137.79,697.07 135.14,697.95 " stroke-width="1.2518" stroke-linejoin="round" />
<polyline points="58.006,317.48 56.243,315.72 55.361,313.08 55.361,309.55 56.243,306.91 58.006,305.14 59.769,305.14 61.532,306.02 62.413,306.91 63.295,308.67 65.058,313.96 65.94,315.72 66.821,316.6 68.584,317.48 71.229,317.48 72.992,315.72 73.874,313.08 73.874,309.55 72.992,306.91 71.229,305.14 " stroke-width="1.2518" stroke-linecap="round" stroke-linejoin="round" />
<polygon points="55.361,322.77 56.243,323.66 55.361,324.54 54.479,323.66 " stroke-width="1.2518" stroke-linejoin="round" />
<line x1="61.532" y1="323.66" x2="73.874" y2="323.66" stroke-width="1.2518" stroke-linecap="round" />
<line x1="61.532" y1="339.52" x2="73.874" y2="329.83" stroke-width="1.2518" stroke-linecap="round" />
<line x1="61.532" y1="329.83" x2="61.532" y2="339.52" stroke-width="1.2518" stroke-linecap="round" />
<line x1="73.874" y1="329.83" x2="73.874" y2="339.52" stroke-width="1.2518" stroke-linecap="round" />
<polyline points="66.821,344.81 66.821,355.39 65.058,355.39 63.295,354.51 62.413,353.63 61.532,351.87 61.532,349.22 62.413,347.46 64.177,345.69 66.821,344.81 68.584,344.81 71.229,345.69 72.992,347.46 73.874,349.22 73.874,351.87 72.992,353.63 71.229,355.39 " stroke-width="1.2518" stroke-linecap="round" stroke-linejoin="round" />
<line x1="61.532" y1="375.67" x2="80.044" y2="375.67" stroke-width="1.2518" stroke-linecap="round" />
<polyline points="64.177,375.67 62.413,377.43 61.532,379.19 61.532,381.84 62.413,383.6 64.177,385.36 66.821,386.25 68.584,386.25 71.229,385.36 72.992,383.6 73.874,381.84 73.874,379.19 72.992,377.43 71.229,375.67 " stroke-width="1.2518" stroke-linecap="round" stroke-linejoin="round" />
<polyline points="66.821,391.53 66.821,402.11 65.058,402.11 63.295,401.23 62.413,400.35 61.532,398.59 61.532,395.94 62.413,394.18 64.177,392.42 66.821,391.53 68.584,391.53 71.229,392.42 72.992,394.18 73.874,395.94 73.874,398.59 72.992,400.35 71.229,402.11 " stroke-width="1.2518" stroke-linecap="round" stroke-linejoin="round" />
<line x1="61.532" y1="408.28" x2="73.874" y2="408.28" stroke-width="1.2518" stroke-linecap="round" />
<polyline points="66.821,408.28 64.177,409.17 62.413,410.93 61.532,412.69 61.532,415.34 " stroke-width="1.2518" stroke-linecap="round" stroke-linejoin="round" />
<polyline points="58.006,445.31 56.243,443.55 55.361,440.9 55.361,437.38 56.243,434.73 58.006,432.97 59.769,432.97 61.532,433.85 62.413,434.73 63.295,436.49 65.058,441.78 65.94,443.55 66.821,444.43 68.584,445.31 71.229,445.31 72.992,443.55 73.874,440.9 73.874,437.38 72.992,434.73 71.229,432.97 " stroke-width="1.2518" stroke-linecap="round" stroke-linejoin="round" />
<line x1="61.532" y1="451.48" x2="80.044" y2="451.48" stroke-width="1.2518" stroke-linecap="round" />
<polyline points="64.177,451.48 62.413,453.24 61.532,455.01 61.532,457.65 62.413,459.41 64.177,461.18 66.821,462.06 68.584,462.06 71.229,461.18 72.992,459.41 73.874,457.65 73.874,455.01 72.992,453.24 71.229,451.48 " stroke-width="1.2518" stroke-linecap="round" stroke-linejoin="round" />
<polyline points="66.821,467.35 66.821,477.93 65.058,477.93 63.295,477.05 62.413,476.16 61.532,474.4 61.532,471.76 62.413,469.99 64.177,468.23 66.821,467.35 68.584,467.35 71.229,468.23 72.992,469.99 73.874,471.76 73.874,474.4 72.992,476.16 71.229,477.93 " stroke-width="1.2518" stroke-linecap="round" stroke-linejoin="round" />
<polyline points="64.177,493.79 62.413,492.03 61.532,490.27 61.532,487.62 62.413,485.86 64.177,484.1 66.821,483.22 68.584,483.22 71.229,484.1 72.992,485.86 73.874,487.62 73.874,490.27 72.992,492.03 71.229,493.79 " stroke-width="1.2518" stroke-linecap="round" stroke-linejoin="round" />
<polygon points="55.361,499.08 56.243,499.97 55.361,500.85 54.479,499.97 " stroke-width="1.2518" stroke-linejoin="round" />
<line x1="61.532" y1="499.97" x2="73.874" y2="499.97" stroke-width="1.2518" stroke-linecap="round" />
<polyline points="66.821,506.14 66.821,516.72 65.058,516.72 63.295,515.83 62.413,514.95 61.532,513.19 61.532,510.54 62.413,508.78 64.177,507.02 66.821,506.14 68.584,506.14 71.229,507.02 72.992,508.78 73.874,510.54 73.874,513.19 72.992,514.95 71.229,516.72 " stroke-width="1.2518" stroke-linecap="round" stroke-linejoin="round" />
<polyline points="64.177,531.7 62.413,530.82 61.532,528.18 61.532,525.53 62.413,522.89 64.177,522 65.94,522.89 66.821,524.65 67.703,529.06 68.584,530.82 70.347,531.7 71.229,531.7 72.992,530.82 73.874,528.18 73.874,525.53 72.992,522.89 71.229,522 " stroke-width="1.2518" stroke-linecap="round" stroke-linejoin="round" />
<line x1="165.03" y1="122.58" x2="165.03" y2="129.85" stroke-width="1.2047" />
<line x1="194.67" y1="122.58" x2="194.67" y2="129.85" stroke-width="1.2047" />
<line x1="224.32" y1="122.58" x2="224.32" y2="129.85" stroke-width="1.2047" />
<line x1="253.96" y1="122.58" x2="253.96" y2="129.85" stroke-width="1.2047" />
<line x1="283.6" y1="122.58" x2="283.6" y2="129.85" stroke-width="1.2047" />
<line x1="313.25" y1="122.58" x2="313.25" y2="129.85" stroke-width="1.2047" />
<line x1="342.89" y1="122.58" x2="342.89" y2="129.85" stroke-width="1.2047" />
<line x1="372.53" y1="122.58" x2="372.53" y2="129.85" stroke-width="1.2047" />
<line x1="402.17" y1="122.58" x2="402.17" y2="129.85" stroke-width="1.2047" />
<line x1="431.82" y1="122.58" x2="431.82" y2="129.85" stroke-width="1.2047" />
<line x1="461.46" y1="122.58" x2="461.46" y2="129.85" stroke-width="1.2047" />
<line x1="491.1" y1="122.58" x2="491.1" y2="129.85" stroke-width="1.2047" />
<line x1="520.75" y1="122.58" x2="520.75" y2="129.85" stroke-width="1.2047" />
<line x1="550.39" y1="122.58" x2="550.39" y2="129.85" stroke-width="1.2047" />
<line x1="580.03" y1="122.58" x2="580.03" y2="129.85" stroke-width="1.2047" />
<line x1="609.67" y1="122.58" x2="609.67" y2="129.85" stroke-width="1.2047" />
<line x1="639.32" y1="122.58" x2="639.32" y2="129.85" stroke-width="1.2047" />
<line x1="668.96" y1="122.58" x2="668.96" y2="129.85" stroke-width="1.2047" />
<line x1="698.6" y1="122.58" x2="698.6" y2="129.85" stroke-width="1.2047" />
<line x1="728.25" y1="122.58" x2="728.25" y2="129.85" stroke-width="1.2047" />
<line x1="757.89" y1="122.58" x2="757.89" y2="129.85" stroke-width="1.2047" />
<line x1="787.53" y1="122.58" x2="787.53" y2="129.85" stroke-width="1.2047" />
<line x1="817.17" y1="122.58" x2="817.17" y2="129.85" stroke-width="1.2047" />
<line x1="846.82" y1="122.58" x2="846.82" y2="129.85" stroke-width="1.2047" />
<line x1="876.46" y1="122.58" x2="876.46" y2="129.85" stroke-width="1.2047" />
<line x1="906.1" y1="122.58" x2="906.1" y2="129.85" stroke-width="1.2047" />
<line x1="935.75" y1="122.58" x2="935.75" y2="129.85" stroke-width="1.2047" />
<line x1="965.39" y1="122.58" x2="965.39" y2="129.85" stroke-width="1.2047" />
<line x1="194.67" y1="122.58" x2="194.67" y2="137.12" stroke-width="1.2047" />
<line x1="342.89" y1="122.58" x2="342.89" y2="137.12" stroke-width="1.2047" />
<line x1="491.1" y1="122.58" x2="491.1" y2="137.12" stroke-width="1.2047" />
<line x1="639.32" y1="122.58" x2="639.32" y2="137.12" stroke-width="1.2047" />
<line x1="787.53" y1="122.58" x2="787.53" y2="137.12" stroke-width="1.2047" />
<line x1="935.75" y1="122.58" x2="935.75" y2="137.12" stroke-width="1.2047" />
<line x1="157.62" y1="122.58" x2="972.8" y2="122.58" stroke-width="1.2047" />
<polygon points="193.79,104.06 191.15,103.18 189.39,100.54 188.5,96.129 188.5,93.484 189.39,89.077 191.15,86.432 193.79,85.55 195.56,85.55 198.2,86.432 199.96,89.077 200.85,93.484 200.85,96.129 199.96,100.54 198.2,103.18 195.56,104.06 " stroke-width="1.2518" stroke-linejoin="round" />
<polyline points="347.3,104.06 338.48,104.06 337.6,96.129 338.48,97.011 341.13,97.892 343.77,97.892 346.42,97.011 348.18,95.247 349.06,92.603 349.06,90.84 348.18,88.195 346.42,86.432 343.77,85.55 341.13,85.55 338.48,86.432 337.6,87.314 336.72,89.077 " stroke-width="1.2518" stroke-linecap="round" stroke-linejoin="round" />
<polyline points="478.76,100.54 480.52,101.42 483.17,104.06 483.17,85.55 " stroke-width="1.2518" stroke-linecap="round" stroke-linejoin="round" />
<polygon points="499.04,104.06 496.39,103.18 494.63,100.54 493.75,96.129 493.75,93.484 494.63,89.077 496.39,86.432 499.04,85.55 500.8,85.55 503.44,86.432 505.21,89.077 506.09,93.484 506.09,96.129 505.21,100.54 503.44,103.18 500.8,104.06 " stroke-width="1.2518" stroke-linejoin="round" />
<polyline points="626.98,100.54 628.74,101.42 631.38,104.06 631.38,85.55 " stroke-width="1.2518" stroke-linecap="round" stroke-linejoin="round" />
<polyline points="652.54,104.06 643.73,104.06 642.84,96.129 643.73,97.011 646.37,97.892 649.01,97.892 651.66,97.011 653.42,95.247 654.3,92.603 654.3,90.84 653.42,88.195 651.66,86.432 649.01,85.55 646.37,85.55 643.73,86.432 642.84,87.314 641.96,89.077 " stroke-width="1.2518" stroke-linecap="round" stroke-linejoin="round" />
<polyline points="773.43,99.655 773.43,100.54 774.31,102.3 775.19,103.18 776.95,104.06 780.48,104.06 782.24,103.18 783.12,102.3 784.01,100.54 784.01,98.774 783.12,97.011 781.36,94.366 772.55,85.55 784.89,85.55 " stroke-width="1.2518" stroke-linecap="round" stroke-linejoin="round" />
<polygon points="795.47,104.06 792.82,103.18 791.06,100.54 790.18,96.129 790.18,93.484 791.06,89.077 792.82,86.432 795.47,85.55 797.23,85.55 799.87,86.432 801.64,89.077 802.52,93.484 802.52,96.129 801.64,100.54 799.87,103.18 797.23,104.06 " stroke-width="1.2518" stroke-linejoin="round" />
<polyline points="921.64,99.655 921.64,100.54 922.52,102.3 923.4,103.18 925.17,104.06 928.69,104.06 930.46,103.18 931.34,102.3 932.22,100.54 932.22,98.774 931.34,97.011 929.58,94.366 920.76,85.55 933.1,85.55 " stroke-width="1.2518" stroke-linecap="round" stroke-linejoin="round" />
<polyline points="948.97,104.06 940.15,104.06 939.27,96.129 940.15,97.011 942.8,97.892 945.44,97.892 948.09,97.011 949.85,95.247 950.73,92.603 950.73,90.84 949.85,88.195 948.09,86.432 945.44,85.55 942.8,85.55 940.15,86.432 939.27,87.314 938.39,89.077 " stroke-width="1.2518" stroke-linecap="round" stroke-linejoin="round" />
<polyline points="500.42,60.867 499.53,62.63 497.77,64.393 496.01,65.275 492.48,65.275 490.72,64.393 488.96,62.63 488.07,60.867 487.19,58.222 487.19,53.815 488.07,51.17 488.96,49.407 490.72,47.644 492.48,46.762 496.01,46.762 497.77,47.644 499.53,49.407 500.42,51.17 500.42,53.815 " stroke-width="1.2518" stroke-linecap="round" stroke-linejoin="round" />
<line x1="496.01" y1="53.815" x2="500.42" y2="53.815" stroke-width="1.2518" stroke-linecap="round" />
<polyline points="505.71,53.815 516.28,53.815 516.28,55.578 515.4,57.341 514.52,58.222 512.76,59.104 510.11,59.104 508.35,58.222 506.59,56.459 505.71,53.815 505.71,52.051 506.59,49.407 508.35,47.644 510.11,46.762 512.76,46.762 514.52,47.644 516.28,49.407 " stroke-width="1.2518" stroke-linecap="round" stroke-linejoin="round" />
<line x1="522.46" y1="59.104" x2="522.46" y2="46.762" stroke-width="1.2518" stroke-linecap="round" />
<polyline points="522.46,55.578 525.1,58.222 526.86,59.104 529.51,59.104 531.27,58.222 532.15,55.578 532.15,46.762 " stroke-width="1.2518" stroke-linecap="round" stroke-linejoin="round" />
<polyline points="538.32,53.815 548.9,53.815 548.9,55.578 548.02,57.341 547.14,58.222 545.38,59.104 542.73,59.104 540.97,58.222 539.2,56.459 538.32,53.815 538.32,52.051 539.2,49.407 540.97,47.644 542.73,46.762 545.38,46.762 547.14,47.644 548.9,49.407 " stroke-width="1.2518" stroke-linecap="round" stroke-linejoin="round" />
<line x1="555.07" y1="59.104" x2="555.07" y2="46.762" stroke-width="1.2518" stroke-linecap="round" />
<polyline points="555.07,53.815 555.95,56.459 557.72,58.222 559.48,59.104 562.13,59.104 " stroke-width="1.2518" stroke-linecap="round" stroke-linejoin="round" />
<line x1="576.23" y1="59.104" x2="576.23" y2="46.762" stroke-width="1.2518" stroke-linecap="round" />
<polyline points="576.23,56.459 574.47,58.222 572.7,59.104 570.06,59.104 568.3,58.222 566.53,56.459 565.65,53.815 565.65,52.051 566.53,49.407 568.3,47.644 570.06,46.762 572.7,46.762 574.47,47.644 576.23,49.407 " stroke-width="1.2518" stroke-linecap="round" stroke-linejoin="round" />
<polyline points="584.16,65.275 584.16,50.288 585.05,47.644 586.81,46.762 588.57,46.762 " stroke-width="1.2518" stroke-linecap="round" stroke-linejoin="round" />
<line x1="581.52" y1="59.104" x2="587.69" y2="59.104" stroke-width="1.2518" stroke-linecap="round" />
<polygon points="592.98,65.275 593.86,64.393 594.74,65.275 593.86,66.156 " stroke-width="1.2518" stroke-linejoin="round" />
<line x1="593.86" y1="59.104" x2="593.86" y2="46.762" stroke-width="1.2518" stroke-linecap="round" />
<polyline points="604.44,59.104 602.68,58.222 600.91,56.459 600.03,53.815 600.03,52.051 600.91,49.407 602.68,47.644 604.44,46.762 607.08,46.762 608.85,47.644 610.61,49.407 611.49,52.051 611.49,53.815 610.61,56.459 608.85,58.222 607.08,59.104 604.44,59.104 " stroke-width="1.2518" stroke-linecap="round" stroke-linejoin="round" />
<line x1="617.66" y1="59.104" x2="617.66" y2="46.762" stroke-width="1.2518" stroke-linecap="round" />
<polyline points="617.66,55.578 620.31,58.222 622.07,59.104 624.72,59.104 626.48,58.222 627.36,55.578 627.36,46.762 " stroke-width="1.2518" stroke-linecap="round" stroke-linejoin="round" />
<polyline points="643.23,56.459 642.35,58.222 639.7,59.104 637.06,59.104 634.41,58.222 633.53,56.459 634.41,54.696 636.18,53.815 640.58,52.933 642.35,52.051 643.23,50.288 643.23,49.407 642.35,47.644 639.7,46.762 637.06,46.762 634.41,47.644 633.53,49.407 " stroke-width="1.2518" stroke-linecap="round" stroke-linejoin="round" />
</g>
</svg>
