<?xml version="1.0" encoding="ISO-8859-1" standalone="no"?>
<!DOCTYPE svg PUBLIC "-//W3C//DTD SVG 1.1//EN" "http://www.w3.org/Graphics/SVG/1.1/DTD/svg11.dtd">
<svg version="1.1" baseProfile="full" id="body" width="8in" height="8in" viewBox="0 0 1 1" preserveAspectRatio="none" xmlns="http://www.w3.org/2000/svg" xmlns:xlink="http://www.w3.org/1999/xlink" xmlns:ev="http://www.w3.org/2001/xml-events">
<title>SVG drawing</title>
<desc>This was produced by version 4.4 of GNU libplot, a free library for exporting 2-D vector graphics.</desc>
<rect id="background" x="0" y="0" width="1" height="1" stroke="none" fill="white"/>
<g id="content" transform="translate(0,1) scale(0.00097656,-0.00125) " xml:space="preserve" stroke="black" stroke-linecap="butt" stroke-linejoin="miter" stroke-miterlimit="10.433" stroke-dasharray="none" stroke-dashoffset="0" stroke-opacity="1" fill="none" fill-rule="evenodd" fill-opacity="1" font-style="normal" font-variant="normal" font-weight="normal" font-stretch="normal" font-size-adjust="none" letter-spacing="normal" word-spacing="normal" text-anchor="start">
<polyline points="505.16,746.33 503.4,748.08 500.77,748.96 497.26,748.96 494.62,748.08 492.86,746.33 492.86,744.57 493.74,742.81 494.62,741.93 496.38,741.06 501.65,739.3 503.4,738.42 504.28,737.54 505.16,735.79 505.16,733.15 503.4,731.4 500.77,730.52 497.26,730.52 494.62,731.4 492.86,733.15 " stroke-width="1.2472" stroke-linecap="round" stroke-linejoin="round" />
<line x1="511.31" y1="742.81" x2="511.31" y2="724.37" stroke-width="1.2472" stroke-linecap="round" />
<polyline points="511.31,740.18 513.07,741.93 514.82,742.81 517.46,742.81 519.21,741.93 520.97,740.18 521.85,737.54 521.85,735.79 520.97,733.15 519.21,731.4 517.46,730.52 514.82,730.52 513.07,731.4 511.31,733.15 " stroke-width="1.2472" stroke-linecap="round" stroke-linejoin="round" />
<polyline points="527.12,737.54 537.66,737.54 537.66,739.3 536.78,741.06 535.9,741.93 534.14,742.81 531.51,742.81 529.75,741.93 528,740.18 527.12,737.54 527.12,735.79 528,733.15 529.75,731.4 531.51,730.52 534.14,730.52 535.9,731.4 537.66,733.15 " stroke-width="1.2472" stroke-linecap="round" stroke-linejoin="round" />
<polyline points="553.47,740.18 551.71,741.93 549.95,742.81 547.32,742.81 545.56,741.93 543.8,740.18 542.93,737.54 542.93,735.79 543.8,733.15 545.56,731.4 547.32,730.52 549.95,730.52 551.71,731.4 553.47,733.15 " stroke-width="1.2472" stroke-linecap="round" stroke-linejoin="round" />
<polygon points="558.74,748.96 559.61,748.08 560.49,748.96 559.61,749.84 " stroke-width="1.2472" stroke-linejoin="round" />
<line x1="559.61" y1="742.81" x2="559.61" y2="730.52" stroke-width="1.2472" stroke-linecap="round" />
<line x1="576.3" y1="742.81" x2="576.3" y2="730.52" stroke-width="1.2472" stroke-linecap="round" />
<polyline points="576.3,740.18 574.54,741.93 572.79,742.81 570.15,742.81 568.4,741.93 566.64,740.18 565.76,737.54 565.76,735.79 566.64,733.15 568.4,731.4 570.15,730.52 572.79,730.52 574.54,731.4 576.3,733.15 " stroke-width="1.2472" stroke-linecap="round" stroke-linejoin="round" />
<polyline points="584.21,748.96 584.21,734.03 585.08,731.4 586.84,730.52 588.6,730.52 " stroke-width="1.2472" stroke-linecap="round" stroke-linejoin="round" />
<line x1="581.57" y1="742.81" x2="587.72" y2="742.81" stroke-width="1.2472" stroke-linecap="round" />
<polygon points="592.99,748.96 593.87,748.08 594.74,748.96 593.87,749.84 " stroke-width="1.2472" stroke-linejoin="round" />
<line x1="593.87" y1="742.81" x2="593.87" y2="730.52" stroke-width="1.2472" stroke-linecap="round" />
<polygon points="604.41,742.81 602.65,741.93 600.89,740.18 600.01,737.54 600.01,735.79 600.89,733.15 602.65,731.4 604.41,730.52 607.04,730.52 608.8,731.4 610.55,733.15 611.43,735.79 611.43,737.54 610.55,740.18 608.8,741.93 607.04,742.81 " stroke-width="1.2472" stroke-linejoin="round" />
<line x1="617.58" y1="742.81" x2="617.58" y2="730.52" stroke-width="1.2472" stroke-linecap="round" />
<polyline points="617.58,739.3 620.21,741.93 621.97,742.81 624.61,742.81 626.36,741.93 627.24,739.3 627.24,730.52 " stroke-width="1.2472" stroke-linecap="round" stroke-linejoin="round" />
<line x1="560.49" y1="148.98" x2="560.49" y2="687.35" stroke="#00f927" stroke-width="1.2047" fill="#00f927" />
<line x1="964.02" y1="122.06" x2="956.78" y2="122.06" stroke-width="1.2047" />
<line x1="964.02" y1="148.98" x2="956.78" y2="148.98" stroke-width="1.2047" />
<line x1="964.02" y1="175.9" x2="956.78" y2="175.9" stroke-width="1.2047" />
<line x1="964.02" y1="202.82" x2="956.78" y2="202.82" stroke-width="1.2047" />
<line x1="964.02" y1="229.74" x2="956.78" y2="229.74" stroke-width="1.2047" />
<line x1="964.02" y1="256.66" x2="956.78" y2="256.66" stroke-width="1.2047" />
<line x1="964.02" y1="283.57" x2="956.78" y2="283.57" stroke-width="1.2047" />
<line x1="964.02" y1="310.49" x2="956.78" y2="310.49" stroke-width="1.2047" />
<line x1="964.02" y1="337.41" x2="956.78" y2="337.41" stroke-width="1.2047" />
<line x1="964.02" y1="364.33" x2="956.78" y2="364.33" stroke-width="1.2047" />
<line x1="964.02" y1="391.25" x2="956.78" y2="391.25" stroke-width="1.2047" />
<line x1="964.02" y1="418.17" x2="956.78" y2="418.17" stroke-width="1.2047" />
<line x1="964.02" y1="445.08" x2="956.78" y2="445.08" stroke-width="1.2047" />
<line x1="964.02" y1="472" x2="956.78" y2="472" stroke-width="1.2047" />
<line x1="964.02" y1="498.92" x2="956.78" y2="498.92" stroke-width="1.2047" />
<line x1="964.02" y1="525.84" x2="956.78" y2="525.84" stroke-width="1.2047" />
<line x1="964.02" y1="552.76" x2="956.78" y2="552.76" stroke-width="1.2047" />
<line x1="964.02" y1="579.68" x2="956.78" y2="579.68" stroke-width="1.2047" />
<line x1="964.02" y1="606.6" x2="956.78" y2="606.6" stroke-width="1.2047" />
<line x1="964.02" y1="633.51" x2="956.78" y2="633.51" stroke-width="1.2047" />
<line x1="964.02" y1="660.43" x2="956.78" y2="660.43" stroke-width="1.2047" />
<line x1="964.02" y1="687.35" x2="956.78" y2="687.35" stroke-width="1.2047" />
<line x1="964.02" y1="714.27" x2="956.78" y2="714.27" stroke-width="1.2047" />
<line x1="964.02" y1="148.98" x2="949.53" y2="148.98" stroke-width="1.2047" />
<line x1="964.02" y1="256.66" x2="949.53" y2="256.66" stroke-width="1.2047" />
<line x1="964.02" y1="364.33" x2="949.53" y2="364.33" stroke-width="1.2047" />
<line x1="964.02" y1="472" x2="949.53" y2="472" stroke-width="1.2047" />
<line x1="964.02" y1="579.68" x2="949.53" y2="579.68" stroke-width="1.2047" />
<line x1="964.02" y1="687.35" x2="949.53" y2="687.35" stroke-width="1.2047" />
<line x1="964.02" y1="122.06" x2="964.02" y2="714.27" stroke-width="1.2047" />
<line x1="156.96" y1="714.27" x2="156.96" y2="707.02" stroke-width="1.2047" />
<line x1="197.31" y1="714.27" x2="197.31" y2="707.02" stroke-width="1.2047" />
<line x1="237.67" y1="714.27" x2="237.67" y2="707.02" stroke-width="1.2047" />
<line x1="278.02" y1="714.27" x2="278.02" y2="707.02" stroke-width="1.2047" />
<line x1="318.37" y1="714.27" x2="318.37" y2="707.02" stroke-width="1.2047" />
<line x1="358.73" y1="714.27" x2="358.73" y2="707.02" stroke-width="1.2047" />
<line x1="399.08" y1="714.27" x2="399.08" y2="707.02" stroke-width="1.2047" />
<line x1="439.43" y1="714.27" x2="439.43" y2="707.02" stroke-width="1.2047" />
<line x1="479.79" y1="714.27" x2="479.79" y2="707.02" stroke-width="1.2047" />
<line x1="520.14" y1="714.27" x2="520.14" y2="707.02" stroke-width="1.2047" />
<line x1="560.49" y1="714.27" x2="560.49" y2="707.02" stroke-width="1.2047" />
<line x1="600.85" y1="714.27" x2="600.85" y2="707.02" stroke-width="1.2047" />
<line x1="641.2" y1="714.27" x2="641.2" y2="707.02" stroke-width="1.2047" />
<line x1="681.55" y1="714.27" x2="681.55" y2="707.02" stroke-width="1.2047" />
<line x1="721.9" y1="714.27" x2="721.9" y2="707.02" stroke-width="1.2047" />
<line x1="762.26" y1="714.27" x2="762.26" y2="707.02" stroke-width="1.2047" />
<line x1="802.61" y1="714.27" x2="802.61" y2="707.02" stroke-width="1.2047" />
<line x1="842.96" y1="714.27" x2="842.96" y2="707.02" stroke-width="1.2047" />
<line x1="883.32" y1="714.27" x2="883.32" y2="707.02" stroke-width="1.2047" />
<line x1="923.67" y1="714.27" x2="923.67" y2="707.02" stroke-width="1.2047" />
<line x1="964.02" y1="714.27" x2="964.02" y2="707.02" stroke-width="1.2047" />
<line x1="156.96" y1="714.27" x2="156.96" y2="699.78" stroke-width="1.2047" />
<line x1="358.73" y1="714.27" x2="358.73" y2="699.78" stroke-width="1.2047" />
<line x1="560.49" y1="714.27" x2="560.49" y2="699.78" stroke-width="1.2047" />
<line x1="762.26" y1="714.27" x2="762.26" y2="699.78" stroke-width="1.2047" />
<line x1="964.02" y1="714.27" x2="964.02" y2="699.78" stroke-width="1.2047" />
<line x1="156.96" y1="714.27" x2="964.02" y2="714.27" stroke-width="1.2047" />
<line x1="156.96" y1="122.06" x2="164.21" y2="122.06" stroke-width="1.2047" />
<line x1="156.96" y1="148.98" x2="164.21" y2="148.98" stroke-width="1.2047" />
<line x1="156.96" y1="175.9" x2="164.21" y2="175.9" stroke-width="1.2047" />
<line x1="156.96" y1="202.82" x2="164.21" y2="202.82" stroke-width="1.2047" />
<line x1="156.96" y1="229.74" x2="164.21" y2="229.74" stroke-width="1.2047" />
<line x1="156.96" y1="256.66" x2="164.21" y2="256.66" stroke-width="1.2047" />
<line x1="156.96" y1="283.57" x2="164.21" y2="283.57" stroke-width="1.2047" />
<line x1="156.96" y1="310.49" x2="164.21" y2="310.49" stroke-width="1.2047" />
<line x1="156.96" y1="337.41" x2="164.21" y2="337.41" stroke-width="1.2047" />
<line x1="156.96" y1="364.33" x2="164.21" y2="364.33" stroke-width="1.2047" />
<line x1="156.96" y1="391.25" x2="164.21" y2="391.25" stroke-width="1.2047" />
<line x1="156.96" y1="418.17" x2="164.21" y2="418.17" stroke-width="1.2047" />
<line x1="156.96" y1="445.08" x2="164.21" y2="445.08" stroke-width="1.2047" />
<line x1="156.96" y1="472" x2="164.21" y2="472" stroke-width="1.2047" />
<line x1="156.96" y1="498.92" x2="164.21" y2="498.92" stroke-width="1.2047" />
<line x1="156.96" y1="525.84" x2="164.21" y2="525.84" stroke-width="1.2047" />
<line x1="156.96" y1="552.76" x2="164.21" y2="552.76" stroke-width="1.2047" />
<line x1="156.96" y1="579.68" x2="164.21" y2="579.68" stroke-width="1.2047" />
<line x1="156.96" y1="606.6" x2="164.21" y2="606.6" stroke-width="1.2047" />
<line x1="156.96" y1="633.51" x2="164.21" y2="633.51" stroke-width="1.2047" />
<line x1="156.96" y1="660.43" x2="164.21" y2="660.43" stroke-width="1.2047" />
<line x1="156.96" y1="687.35" x2="164.21" y2="687.35" stroke-width="1.2047" />
<line x1="156.96" y1="714.27" x2="164.21" y2="714.27" stroke-width="1.2047" />
<line x1="156.96" y1="148.98" x2="171.45" y2="148.98" stroke-width="1.2047" />
<line x1="156.96" y1="256.66" x2="171.45" y2="256.66" stroke-width="1.2047" />
<line x1="156.96" y1="364.33" x2="171.45" y2="364.33" stroke-width="1.2047" />
<line x1="156.96" y1="472" x2="171.45" y2="472" stroke-width="1.2047" />
<line x1="156.96" y1="579.68" x2="171.45" y2="579.68" stroke-width="1.2047" />
<line x1="156.96" y1="687.35" x2="171.45" y2="687.35" stroke-width="1.2047" />
<line x1="156.96" y1="122.06" x2="156.96" y2="714.27" stroke-width="1.2047" />
<polygon points="132.81,159.52 130.17,158.64 128.42,156.01 127.54,151.62 127.54,148.98 128.42,144.59 130.17,141.96 132.81,141.08 134.57,141.08 137.2,141.96 138.96,144.59 139.83,148.98 139.83,151.62 138.96,156.01 137.2,158.64 134.57,159.52 " stroke-width="1.2472" stroke-linejoin="round" />
<polyline points="110.85,262.8 110.85,263.68 111.73,265.44 112.61,266.32 114.36,267.2 117.88,267.2 119.63,266.32 120.51,265.44 121.39,263.68 121.39,261.93 120.51,260.17 118.76,257.53 109.97,248.75 122.27,248.75 " stroke-width="1.2472" stroke-linecap="round" stroke-linejoin="round" />
<polygon points="132.81,267.2 130.17,266.32 128.42,263.68 127.54,259.29 127.54,256.66 128.42,252.26 130.17,249.63 132.81,248.75 134.57,248.75 137.2,249.63 138.96,252.26 139.83,256.66 139.83,259.29 138.96,263.68 137.2,266.32 134.57,267.2 " stroke-width="1.2472" stroke-linejoin="round" />
<polyline points="118.76,374.87 109.97,362.57 123.15,362.57 " stroke-width="1.2472" stroke-linecap="round" stroke-linejoin="round" />
<line x1="118.76" y1="374.87" x2="118.76" y2="356.42" stroke-width="1.2472" stroke-linecap="round" />
<polygon points="132.81,374.87 130.17,373.99 128.42,371.36 127.54,366.96 127.54,364.33 128.42,359.94 130.17,357.3 132.81,356.42 134.57,356.42 137.2,357.3 138.96,359.94 139.83,364.33 139.83,366.96 138.96,371.36 137.2,373.99 134.57,374.87 " stroke-width="1.2472" stroke-linejoin="round" />
<polyline points="121.39,479.91 120.51,481.66 117.88,482.54 116.12,482.54 113.49,481.66 111.73,479.03 110.85,474.64 110.85,470.25 111.73,466.73 113.49,464.98 116.12,464.1 117,464.1 119.63,464.98 121.39,466.73 122.27,469.37 122.27,470.25 121.39,472.88 119.63,474.64 117,475.52 116.12,475.52 113.49,474.64 111.73,472.88 110.85,470.25 " stroke-width="1.2472" stroke-linecap="round" stroke-linejoin="round" />
<polygon points="132.81,482.54 130.17,481.66 128.42,479.03 127.54,474.64 127.54,472 128.42,467.61 130.17,464.98 132.81,464.1 134.57,464.1 137.2,464.98 138.96,467.61 139.83,472 139.83,474.64 138.96,479.03 137.2,481.66 134.57,482.54 " stroke-width="1.2472" stroke-linejoin="round" />
<polygon points="114.36,590.22 111.73,589.34 110.85,587.58 110.85,585.82 111.73,584.07 113.49,583.19 117,582.31 119.63,581.43 121.39,579.68 122.27,577.92 122.27,575.29 121.39,573.53 120.51,572.65 117.88,571.77 114.36,571.77 111.73,572.65 110.85,573.53 109.97,575.29 109.97,577.92 110.85,579.68 112.61,581.43 115.24,582.31 118.76,583.19 120.51,584.07 121.39,585.82 121.39,587.58 120.51,589.34 117.88,590.22 " stroke-width="1.2472" stroke-linejoin="round" />
<polygon points="132.81,590.22 130.17,589.34 128.42,586.7 127.54,582.31 127.54,579.68 128.42,575.29 130.17,572.65 132.81,571.77 134.57,571.77 137.2,572.65 138.96,575.29 139.83,579.68 139.83,582.31 138.96,586.7 137.2,589.34 134.57,590.22 " stroke-width="1.2472" stroke-linejoin="round" />
<polyline points="95.043,694.38 96.799,695.25 99.434,697.89 99.434,679.45 " stroke-width="1.2472" stroke-linecap="round" stroke-linejoin="round" />
<polygon points="115.24,697.89 112.61,697.01 110.85,694.38 109.97,689.99 109.97,687.35 110.85,682.96 112.61,680.32 115.24,679.45 117,679.45 119.63,680.32 121.39,682.96 122.27,687.35 122.27,689.99 121.39,694.38 119.63,697.01 117,697.89 " stroke-width="1.2472" stroke-linejoin="round" />
<polygon points="132.81,697.89 130.17,697.01 128.42,694.38 127.54,689.99 127.54,687.35 128.42,682.96 130.17,680.32 132.81,679.45 134.57,679.45 137.2,680.32 138.96,682.96 139.83,687.35 139.83,689.99 138.96,694.38 137.2,697.01 134.57,697.89 " stroke-width="1.2472" stroke-linejoin="round" />
<polyline points="57.716,317.6 55.96,315.85 55.081,313.21 55.081,309.7 55.96,307.06 57.716,305.31 59.473,305.31 61.229,306.19 62.108,307.06 62.986,308.82 64.742,314.09 65.621,315.85 66.499,316.73 68.255,317.6 70.89,317.6 72.647,315.85 73.525,313.21 73.525,309.7 72.647,307.06 70.89,305.31 " stroke-width="1.2472" stroke-linecap="round" stroke-linejoin="round" />
<polygon points="55.081,322.87 55.96,323.75 55.081,324.63 54.203,323.75 " stroke-width="1.2472" stroke-linejoin="round" />
<line x1="61.229" y1="323.75" x2="73.525" y2="323.75" stroke-width="1.2472" stroke-linecap="round" />
<line x1="61.229" y1="339.56" x2="73.525" y2="329.9" stroke-width="1.2472" stroke-linecap="round" />
<line x1="61.229" y1="329.9" x2="61.229" y2="339.56" stroke-width="1.2472" stroke-linecap="round" />
<line x1="73.525" y1="329.9" x2="73.525" y2="339.56" stroke-width="1.2472" stroke-linecap="round" />
<polyline points="66.499,344.83 66.499,355.37 64.742,355.37 62.986,354.49 62.108,353.61 61.229,351.86 61.229,349.22 62.108,347.47 63.864,345.71 66.499,344.83 68.255,344.83 70.89,345.71 72.647,347.47 73.525,349.22 73.525,351.86 72.647,353.61 70.89,355.37 " stroke-width="1.2472" stroke-linecap="round" stroke-linejoin="round" />
<line x1="61.229" y1="375.57" x2="79.673" y2="375.57" stroke-width="1.2472" stroke-linecap="round" />
<polyline points="63.864,375.57 62.108,377.33 61.229,379.08 61.229,381.72 62.108,383.47 63.864,385.23 66.499,386.11 68.255,386.11 70.89,385.23 72.647,383.47 73.525,381.72 73.525,379.08 72.647,377.33 70.89,375.57 " stroke-width="1.2472" stroke-linecap="round" stroke-linejoin="round" />
<polyline points="66.499,391.38 66.499,401.92 64.742,401.92 62.986,401.04 62.108,400.16 61.229,398.41 61.229,395.77 62.108,394.01 63.864,392.26 66.499,391.38 68.255,391.38 70.89,392.26 72.647,394.01 73.525,395.77 73.525,398.41 72.647,400.16 70.89,401.92 " stroke-width="1.2472" stroke-linecap="round" stroke-linejoin="round" />
<line x1="61.229" y1="408.07" x2="73.525" y2="408.07" stroke-width="1.2472" stroke-linecap="round" />
<polyline points="66.499,408.07 63.864,408.94 62.108,410.7 61.229,412.46 61.229,415.09 " stroke-width="1.2472" stroke-linecap="round" stroke-linejoin="round" />
<polyline points="57.716,444.95 55.96,443.2 55.081,440.56 55.081,437.05 55.96,434.41 57.716,432.66 59.473,432.66 61.229,433.54 62.108,434.41 62.986,436.17 64.742,441.44 65.621,443.2 66.499,444.08 68.255,444.95 70.89,444.95 72.647,443.2 73.525,440.56 73.525,437.05 72.647,434.41 70.89,432.66 " stroke-width="1.2472" stroke-linecap="round" stroke-linejoin="round" />
<line x1="61.229" y1="451.1" x2="79.673" y2="451.1" stroke-width="1.2472" stroke-linecap="round" />
<polyline points="63.864,451.1 62.108,452.86 61.229,454.61 61.229,457.25 62.108,459.01 63.864,460.76 66.499,461.64 68.255,461.64 70.89,460.76 72.647,459.01 73.525,457.25 73.525,454.61 72.647,452.86 70.89,451.1 " stroke-width="1.2472" stroke-linecap="round" stroke-linejoin="round" />
<polyline points="66.499,466.91 66.499,477.45 64.742,477.45 62.986,476.57 62.108,475.69 61.229,473.94 61.229,471.3 62.108,469.55 63.864,467.79 66.499,466.91 68.255,466.91 70.89,467.79 72.647,469.55 73.525,471.3 73.525,473.94 72.647,475.69 70.89,477.45 " stroke-width="1.2472" stroke-linecap="round" stroke-linejoin="round" />
<polyline points="63.864,493.26 62.108,491.5 61.229,489.75 61.229,487.11 62.108,485.35 63.864,483.6 66.499,482.72 68.255,482.72 70.89,483.6 72.647,485.35 73.525,487.11 73.525,489.75 72.647,491.5 70.89,493.26 " stroke-width="1.2472" stroke-linecap="round" stroke-linejoin="round" />
<polygon points="55.081,498.53 55.96,499.41 55.081,500.28 54.203,499.41 " stroke-width="1.2472" stroke-linejoin="round" />
<line x1="61.229" y1="499.41" x2="73.525" y2="499.41" stroke-width="1.2472" stroke-linecap="round" />
<polyline points="66.499,505.55 66.499,516.09 64.742,516.09 62.986,515.22 62.108,514.34 61.229,512.58 61.229,509.95 62.108,508.19 63.864,506.43 66.499,505.55 68.255,505.55 70.89,506.43 72.647,508.19 73.525,509.95 73.525,512.58 72.647,514.34 70.89,516.09 " stroke-width="1.2472" stroke-linecap="round" stroke-linejoin="round" />
<polyline points="63.864,531.02 62.108,530.15 61.229,527.51 61.229,524.88 62.108,522.24 63.864,521.36 65.621,522.24 66.499,524 67.377,528.39 68.255,530.15 70.012,531.02 70.89,531.02 72.647,530.15 73.525,527.51 73.525,524.88 72.647,522.24 70.89,521.36 " stroke-width="1.2472" stroke-linecap="round" stroke-linejoin="round" />
<line x1="156.96" y1="122.06" x2="156.96" y2="129.31" stroke-width="1.2047" />
<line x1="197.31" y1="122.06" x2="197.31" y2="129.31" stroke-width="1.2047" />
<line x1="237.67" y1="122.06" x2="237.67" y2="129.31" stroke-width="1.2047" />
<line x1="278.02" y1="122.06" x2="278.02" y2="129.31" stroke-width="1.2047" />
<line x1="318.37" y1="122.06" x2="318.37" y2="129.31" stroke-width="1.2047" />
<line x1="358.73" y1="122.06" x2="358.73" y2="129.31" stroke-width="1.2047" />
<line x1="399.08" y1="122.06" x2="399.08" y2="129.31" stroke-width="1.2047" />
<line x1="439.43" y1="122.06" x2="439.43" y2="129.31" stroke-width="1.2047" />
<line x1="479.79" y1="122.06" x2="479.79" y2="129.31" stroke-width="1.2047" />
<line x1="520.14" y1="122.06" x2="520.14" y2="129.31" stroke-width="1.2047" />
<line x1="560.49" y1="122.06" x2="560.49" y2="129.31" stroke-width="1.2047" />
<line x1="600.85" y1="122.06" x2="600.85" y2="129.31" stroke-width="1.2047" />
<line x1="641.2" y1="122.06" x2="641.2" y2="129.31" stroke-width="1.2047" />
<line x1="681.55" y1="122.06" x2="681.55" y2="129.31" stroke-width="1.2047" />
<line x1="721.9" y1="122.06" x2="721.9" y2="129.31" stroke-width="1.2047" />
<line x1="762.26" y1="122.06" x2="762.26" y2="129.31" stroke-width="1.2047" />
<line x1="802.61" y1="122.06" x2="802.61" y2="129.31" stroke-width="1.2047" />
<line x1="842.96" y1="122.06" x2="842.96" y2="129.31" stroke-width="1.2047" />
<line x1="883.32" y1="122.06" x2="883.32" y2="129.31" stroke-width="1.2047" />
<line x1="923.67" y1="122.06" x2="923.67" y2="129.31" stroke-width="1.2047" />
<line x1="964.02" y1="122.06" x2="964.02" y2="129.31" stroke-width="1.2047" />
<line x1="156.96" y1="122.06" x2="156.96" y2="136.56" stroke-width="1.2047" />
<line x1="358.73" y1="122.06" x2="358.73" y2="136.56" stroke-width="1.2047" />
<line x1="560.49" y1="122.06" x2="560.49" y2="136.56" stroke-width="1.2047" />
<line x1="762.26" y1="122.06" x2="762.26" y2="136.56" stroke-width="1.2047" />
<line x1="964.02" y1="122.06" x2="964.02" y2="136.56" stroke-width="1.2047" />
<line x1="156.96" y1="122.06" x2="964.02" y2="122.06" stroke-width="1.2047" />
<line x1="140.27" y1="93.081" x2="156.08" y2="93.081" stroke-width="1.2472" stroke-linecap="round" />
<polyline points="164.87,100.11 166.62,100.99 169.26,103.62 169.26,85.176 " stroke-width="1.2472" stroke-linecap="round" stroke-linejoin="round" />
<line x1="328.87" y1="93.081" x2="344.67" y2="93.081" stroke-width="1.2472" stroke-linecap="round" />
<polygon points="356.09,103.62 353.46,102.74 351.7,100.11 350.82,95.715 350.82,93.081 351.7,88.689 353.46,86.054 356.09,85.176 357.85,85.176 360.48,86.054 362.24,88.689 363.12,93.081 363.12,95.715 362.24,100.11 360.48,102.74 357.85,103.62 " stroke-width="1.2472" stroke-linejoin="round" />
<polygon points="370.14,86.933 369.27,86.054 370.14,85.176 371.02,86.054 " stroke-width="1.2472" stroke-linejoin="round" />
<polyline points="387.71,103.62 378.93,103.62 378.05,95.715 378.93,96.594 381.56,97.472 384.2,97.472 386.83,96.594 388.59,94.837 389.47,92.202 389.47,90.446 388.59,87.811 386.83,86.054 384.2,85.176 381.56,85.176 378.93,86.054 378.05,86.933 377.17,88.689 " stroke-width="1.2472" stroke-linecap="round" stroke-linejoin="round" />
<polygon points="559.61,103.62 556.98,102.74 555.22,100.11 554.34,95.715 554.34,93.081 555.22,88.689 556.98,86.054 559.61,85.176 561.37,85.176 564.01,86.054 565.76,88.689 566.64,93.081 566.64,95.715 565.76,100.11 564.01,102.74 561.37,103.62 " stroke-width="1.2472" stroke-linejoin="round" />
<polygon points="748.21,103.62 745.57,102.74 743.81,100.11 742.94,95.715 742.94,93.081 743.81,88.689 745.57,86.054 748.21,85.176 749.96,85.176 752.6,86.054 754.35,88.689 755.23,93.081 755.23,95.715 754.35,100.11 752.6,102.74 749.96,103.62 " stroke-width="1.2472" stroke-linejoin="round" />
<polygon points="762.26,86.933 761.38,86.054 762.26,85.176 763.14,86.054 " stroke-width="1.2472" stroke-linejoin="round" />
<polyline points="779.82,103.62 771.04,103.62 770.16,95.715 771.04,96.594 773.68,97.472 776.31,97.472 778.94,96.594 780.7,94.837 781.58,92.202 781.58,90.446 780.7,87.811 778.94,86.054 776.31,85.176 773.68,85.176 771.04,86.054 770.16,86.933 769.28,88.689 " stroke-width="1.2472" stroke-linecap="round" stroke-linejoin="round" />
<polyline points="960.51,100.11 962.27,100.99 964.9,103.62 964.9,85.176 " stroke-width="1.2472" stroke-linecap="round" stroke-linejoin="round" />
<polyline points="490.23,60.584 489.35,62.341 487.6,64.098 485.84,64.976 482.33,64.976 480.57,64.098 478.81,62.341 477.93,60.584 477.06,57.95 477.06,53.558 477.93,50.923 478.81,49.167 480.57,47.41 482.33,46.532 485.84,46.532 487.6,47.41 489.35,49.167 490.23,50.923 490.23,53.558 " stroke-width="1.2472" stroke-linecap="round" stroke-linejoin="round" />
<line x1="485.84" y1="53.558" x2="490.23" y2="53.558" stroke-width="1.2472" stroke-linecap="round" />
<polyline points="495.5,53.558 506.04,53.558 506.04,55.315 505.16,57.071 504.28,57.95 502.53,58.828 499.89,58.828 498.13,57.95 496.38,56.193 495.5,53.558 495.5,51.802 496.38,49.167 498.13,47.41 499.89,46.532 502.53,46.532 504.28,47.41 506.04,49.167 " stroke-width="1.2472" stroke-linecap="round" stroke-linejoin="round" />
<line x1="512.19" y1="58.828" x2="512.19" y2="46.532" stroke-width="1.2472" stroke-linecap="round" />
<polyline points="512.19,55.315 514.82,57.95 516.58,58.828 519.21,58.828 520.97,57.95 521.85,55.315 521.85,46.532 " stroke-width="1.2472" stroke-linecap="round" stroke-linejoin="round" />
<polyline points="528,53.558 538.54,53.558 538.54,55.315 537.66,57.071 536.78,57.95 535.02,58.828 532.39,58.828 530.63,57.95 528.87,56.193 528,53.558 528,51.802 528.87,49.167 530.63,47.41 532.39,46.532 535.02,46.532 536.78,47.41 538.54,49.167 " stroke-width="1.2472" stroke-linecap="round" stroke-linejoin="round" />
<line x1="544.68" y1="58.828" x2="544.68" y2="46.532" stroke-width="1.2472" stroke-linecap="round" />
<polyline points="544.68,53.558 545.56,56.193 547.32,57.95 549.07,58.828 551.71,58.828 " stroke-width="1.2472" stroke-linecap="round" stroke-linejoin="round" />
<line x1="565.76" y1="58.828" x2="565.76" y2="46.532" stroke-width="1.2472" stroke-linecap="round" />
<polyline points="565.76,56.193 564.01,57.95 562.25,58.828 559.61,58.828 557.86,57.95 556.1,56.193 555.22,53.558 555.22,51.802 556.1,49.167 557.86,47.41 559.61,46.532 562.25,46.532 564.01,47.41 565.76,49.167 " stroke-width="1.2472" stroke-linecap="round" stroke-linejoin="round" />
<polyline points="573.67,64.976 573.67,50.045 574.54,47.41 576.3,46.532 578.06,46.532 " stroke-width="1.2472" stroke-linecap="round" stroke-linejoin="round" />
<line x1="571.03" y1="58.828" x2="577.18" y2="58.828" stroke-width="1.2472" stroke-linecap="round" />
<polygon points="582.45,64.976 583.33,64.098 584.21,64.976 583.33,65.854 " stroke-width="1.2472" stroke-linejoin="round" />
<line x1="583.33" y1="58.828" x2="583.33" y2="46.532" stroke-width="1.2472" stroke-linecap="round" />
<polygon points="593.87,58.828 592.11,57.95 590.35,56.193 589.48,53.558 589.48,51.802 590.35,49.167 592.11,47.41 593.87,46.532 596.5,46.532 598.26,47.41 600.01,49.167 600.89,51.802 600.89,53.558 600.01,56.193 598.26,57.95 596.5,58.828 " stroke-width="1.2472" stroke-linejoin="round" />
<line x1="607.04" y1="58.828" x2="607.04" y2="46.532" stroke-width="1.2472" stroke-linecap="round" />
<polyline points="607.04,55.315 609.68,57.95 611.43,58.828 614.07,58.828 615.82,57.95 616.7,55.315 616.7,46.532 " stroke-width="1.2472" stroke-linecap="round" stroke-linejoin="round" />
<polyline points="632.51,56.193 631.63,57.95 629,58.828 626.36,58.828 623.73,57.95 622.85,56.193 623.73,54.437 625.48,53.558 629.88,52.68 631.63,51.802 632.51,50.045 632.51,49.167 631.63,47.41 629,46.532 626.36,46.532 623.73,47.41 622.85,49.167 " stroke-width="1.2472" stroke-linecap="round" stroke-linejoin="round" />
</g>
</svg>
