<?xml version="1.0" encoding="UTF-8" standalone="no"?>
<!DOCTYPE svg PUBLIC "-//W3C//DTD SVG 1.1//EN"
 "http://www.w3.org/Graphics/SVG/1.1/DTD/svg11.dtd">
<!-- Generated by graphviz version 2.36.0 (20140111.2315)
 -->
<!-- Title: G Pages: 1 -->
<svg width="140pt" height="124pt"
 viewBox="0.00 0.00 140.00 124.00" xmlns="http://www.w3.org/2000/svg" xmlns:xlink="http://www.w3.org/1999/xlink">
<g id="graph0" class="graph" transform="scale(1 1) rotate(0) translate(4 120)">
<title>G</title>
<polygon fill="white" stroke="none" points="-4,4 -4,-120 136,-120 136,4 -4,4"/>
<g id="clust1" class="cluster"><title>cluster_inputs</title>
<polygon fill="none" stroke="white" points="8,-74 8,-108 124,-108 124,-74 8,-74"/>
</g>
<g id="clust2" class="cluster"><title>cluster_outputs</title>
<polygon fill="none" stroke="white" points="43,-8 43,-54 107,-54 107,-8 43,-8"/>
</g>
<!-- 1 -->
<g id="node1" class="node"><title>1</title>
<polygon fill="lightgrey" stroke="black" points="115.25,-100 94.75,-100 94.75,-82 115.25,-82 115.25,-100"/>
<text text-anchor="middle" x="105" y="-88.8" font-family="Times,serif" font-size="9.00">1</text>
</g>
<!-- 4 -->
<g id="node4" class="node"><title>4</title>
<ellipse fill="lightblue" stroke="lightblue" cx="66" cy="-31" rx="14.2796" ry="14.7"/>
<text text-anchor="middle" x="66" y="-28.8" font-family="Times,serif" font-size="9.00">4</text>
</g>
<!-- 1&#45;&gt;4 -->
<g id="edge4" class="edge"><title>1&#45;&gt;4</title>
<path fill="none" stroke="black" d="M99.5772,-81.9353C94.3971,-74.2315 86.3789,-62.3071 79.4771,-52.0428"/>
<polygon fill="black" stroke="black" points="82.283,-49.9432 73.7985,-43.5978 76.4741,-53.8492 82.283,-49.9432"/>
</g>
<!-- 2 -->
<g id="node2" class="node"><title>2</title>
<polygon fill="lightgrey" stroke="black" points="76.25,-100 55.75,-100 55.75,-82 76.25,-82 76.25,-100"/>
<text text-anchor="middle" x="66" y="-88.8" font-family="Times,serif" font-size="9.00">2</text>
</g>
<!-- 2&#45;&gt;4 -->
<g id="edge3" class="edge"><title>2&#45;&gt;4</title>
<path fill="none" stroke="black" d="M66,-81.9353C66,-75.3132 66,-65.5724 66,-56.4482"/>
<polygon fill="black" stroke="black" points="69.5001,-56.2441 66,-46.2441 62.5001,-56.2441 69.5001,-56.2441"/>
</g>
<!-- 3 -->
<g id="node3" class="node"><title>3</title>
<polygon fill="lightgrey" stroke="black" points="37.25,-100 16.75,-100 16.75,-82 37.25,-82 37.25,-100"/>
<text text-anchor="middle" x="27" y="-88.8" font-family="Times,serif" font-size="9.00">3</text>
</g>
<!-- 3&#45;&gt;4 -->
<g id="edge2" class="edge"><title>3&#45;&gt;4</title>
<path fill="none" stroke="black" d="M32.4228,-81.9353C37.6029,-74.2315 45.6211,-62.3071 52.5229,-52.0428"/>
<polygon fill="black" stroke="black" points="55.5259,-53.8492 58.2015,-43.5978 49.717,-49.9432 55.5259,-53.8492"/>
</g>
<!-- 4&#45;&gt;4 -->
<g id="edge1" class="edge"><title>4&#45;&gt;4</title>
<path fill="none" stroke="black" d="M77.483,-40.3933C87.4531,-44.678 98,-41.5469 98,-31 98,-24.0786 93.4578,-20.3509 87.5173,-19.817"/>
<polygon fill="black" stroke="black" points="86.7131,-16.4051 77.483,-21.6067 87.9423,-23.2963 86.7131,-16.4051"/>
</g>
</g>
</svg>
