<?xml version="1.0" encoding="ISO-8859-1" standalone="no"?>
<!DOCTYPE svg PUBLIC "-//W3C//DTD SVG 1.1//EN" "http://www.w3.org/Graphics/SVG/1.1/DTD/svg11.dtd">
<svg version="1.1" baseProfile="full" id="body" width="8in" height="8in" viewBox="0 0 1 1" preserveAspectRatio="none" xmlns="http://www.w3.org/2000/svg" xmlns:xlink="http://www.w3.org/1999/xlink" xmlns:ev="http://www.w3.org/2001/xml-events">
<title>SVG drawing</title>
<desc>This was produced by version 4.4 of GNU libplot, a free library for exporting 2-D vector graphics.</desc>
<rect id="background" x="0" y="0" width="1" height="1" stroke="none" fill="white"/>
<g id="content" transform="translate(0,1) scale(0.0016667,-0.0033333) " xml:space="preserve" stroke="black" stroke-linecap="butt" stroke-linejoin="miter" stroke-miterlimit="10.433" stroke-dasharray="none" stroke-dashoffset="0" stroke-opacity="1" fill="none" fill-rule="evenodd" fill-opacity="1" font-style="normal" font-variant="normal" font-weight="normal" font-stretch="normal" font-size-adjust="none" letter-spacing="normal" word-spacing="normal" text-anchor="start">
<line x1="208.39" y1="279.74" x2="208.39" y2="271.71" stroke-width="0.54307" stroke-linecap="round" />
<polyline points="208.39,279.74 211.84,279.74 212.98,279.36 213.37,278.98 213.75,278.21 213.75,277.06 213.37,276.3 212.98,275.92 211.84,275.54 208.39,275.54 " stroke-width="0.54307" stroke-linecap="round" stroke-linejoin="round" />
<polygon points="217.96,277.06 217.19,276.68 216.43,275.92 216.04,274.77 216.04,274.01 216.43,272.86 217.19,272.09 217.96,271.71 219.1,271.71 219.87,272.09 220.63,272.86 221.02,274.01 221.02,274.77 220.63,275.92 219.87,276.68 219.1,277.06 " stroke-width="0.54307" stroke-linejoin="round" />
<line x1="223.69" y1="277.06" x2="223.69" y2="269.03" stroke-width="0.54307" stroke-linecap="round" />
<polyline points="223.69,275.92 224.46,276.68 225.22,277.06 226.37,277.06 227.13,276.68 227.9,275.92 228.28,274.77 228.28,274.01 227.9,272.86 227.13,272.09 226.37,271.71 225.22,271.71 224.46,272.09 223.69,272.86 " stroke-width="0.54307" stroke-linecap="round" stroke-linejoin="round" />
<polyline points="230.96,277.06 230.96,273.24 231.34,272.09 232.11,271.71 233.25,271.71 234.02,272.09 235.17,273.24 " stroke-width="0.54307" stroke-linecap="round" stroke-linejoin="round" />
<line x1="235.17" y1="277.06" x2="235.17" y2="271.71" stroke-width="0.54307" stroke-linecap="round" />
<line x1="238.23" y1="279.74" x2="238.23" y2="271.71" stroke-width="0.54307" stroke-linecap="round" />
<line x1="245.49" y1="277.06" x2="245.49" y2="271.71" stroke-width="0.54307" stroke-linecap="round" />
<polyline points="245.49,275.92 244.73,276.68 243.96,277.06 242.81,277.06 242.05,276.68 241.29,275.92 240.9,274.77 240.9,274.01 241.29,272.86 242.05,272.09 242.81,271.71 243.96,271.71 244.73,272.09 245.49,272.86 " stroke-width="0.54307" stroke-linecap="round" stroke-linejoin="round" />
<polyline points="248.93,279.74 248.93,273.24 249.32,272.09 250.08,271.71 250.85,271.71 " stroke-width="0.54307" stroke-linecap="round" stroke-linejoin="round" />
<line x1="247.79" y1="277.06" x2="250.46" y2="277.06" stroke-width="0.54307" stroke-linecap="round" />
<polygon points="252.76,279.74 253.14,279.36 253.52,279.74 253.14,280.12 " stroke-width="0.54307" stroke-linejoin="round" />
<line x1="253.14" y1="277.06" x2="253.14" y2="271.71" stroke-width="0.54307" stroke-linecap="round" />
<polygon points="257.73,277.06 256.97,276.68 256.2,275.92 255.82,274.77 255.82,274.01 256.2,272.86 256.97,272.09 257.73,271.71 258.88,271.71 259.64,272.09 260.41,272.86 260.79,274.01 260.79,274.77 260.41,275.92 259.64,276.68 258.88,277.06 " stroke-width="0.54307" stroke-linejoin="round" />
<line x1="263.47" y1="277.06" x2="263.47" y2="271.71" stroke-width="0.54307" stroke-linecap="round" />
<polyline points="263.47,275.54 264.61,276.68 265.38,277.06 266.53,277.06 267.29,276.68 267.67,275.54 267.67,271.71 " stroke-width="0.54307" stroke-linecap="round" stroke-linejoin="round" />
<polyline points="271.12,278.98 270.73,279.36 271.12,279.74 271.5,279.36 271.5,278.59 271.12,277.83 270.73,277.45 " stroke-width="0.54307" stroke-linecap="round" stroke-linejoin="round" />
<polyline points="278.38,275.92 278,276.68 276.85,277.06 275.71,277.06 274.56,276.68 274.18,275.92 274.56,275.15 275.32,274.77 277.24,274.39 278,274.01 278.38,273.24 278.38,272.86 278,272.09 276.85,271.71 275.71,271.71 274.56,272.09 274.18,272.86 " stroke-width="0.54307" stroke-linecap="round" stroke-linejoin="round" />
<line x1="291.39" y1="277.06" x2="291.39" y2="271.71" stroke-width="0.54307" stroke-linecap="round" />
<polyline points="291.39,275.92 290.62,276.68 289.86,277.06 288.71,277.06 287.94,276.68 287.18,275.92 286.8,274.77 286.8,274.01 287.18,272.86 287.94,272.09 288.71,271.71 289.86,271.71 290.62,272.09 291.39,272.86 " stroke-width="0.54307" stroke-linecap="round" stroke-linejoin="round" />
<line x1="293.68" y1="277.06" x2="295.97" y2="271.71" stroke-width="0.54307" stroke-linecap="round" />
<line x1="298.27" y1="277.06" x2="295.97" y2="271.71" stroke-width="0.54307" stroke-linecap="round" />
<polyline points="300.18,274.77 304.77,274.77 304.77,275.54 304.39,276.3 304.01,276.68 303.24,277.06 302.09,277.06 301.33,276.68 300.56,275.92 300.18,274.77 300.18,274.01 300.56,272.86 301.33,272.09 302.09,271.71 303.24,271.71 304.01,272.09 304.77,272.86 " stroke-width="0.54307" stroke-linecap="round" stroke-linejoin="round" />
<line x1="307.45" y1="277.06" x2="307.45" y2="271.71" stroke-width="0.54307" stroke-linecap="round" />
<polyline points="307.45,274.77 307.83,275.92 308.6,276.68 309.36,277.06 310.51,277.06 " stroke-width="0.54307" stroke-linecap="round" stroke-linejoin="round" />
<line x1="316.63" y1="277.06" x2="316.63" y2="271.71" stroke-width="0.54307" stroke-linecap="round" />
<polyline points="316.63,275.92 315.86,276.68 315.1,277.06 313.95,277.06 313.19,276.68 312.42,275.92 312.04,274.77 312.04,274.01 312.42,272.86 313.19,272.09 313.95,271.71 315.1,271.71 315.86,272.09 316.63,272.86 " stroke-width="0.54307" stroke-linecap="round" stroke-linejoin="round" />
<polyline points="323.89,277.06 323.89,270.95 323.51,269.8 323.13,269.42 322.36,269.03 321.22,269.03 320.45,269.42 " stroke-width="0.54307" stroke-linecap="round" stroke-linejoin="round" />
<polyline points="323.89,275.92 323.13,276.68 322.36,277.06 321.22,277.06 320.45,276.68 319.69,275.92 319.3,274.77 319.3,274.01 319.69,272.86 320.45,272.09 321.22,271.71 322.36,271.71 323.13,272.09 323.89,272.86 " stroke-width="0.54307" stroke-linecap="round" stroke-linejoin="round" />
<polyline points="326.57,274.77 331.16,274.77 331.16,275.54 330.78,276.3 330.4,276.68 329.63,277.06 328.48,277.06 327.72,276.68 326.95,275.92 326.57,274.77 326.57,274.01 326.95,272.86 327.72,272.09 328.48,271.71 329.63,271.71 330.4,272.09 331.16,272.86 " stroke-width="0.54307" stroke-linecap="round" stroke-linejoin="round" />
<line x1="344.16" y1="277.06" x2="344.16" y2="271.71" stroke-width="0.54307" stroke-linecap="round" />
<polyline points="344.16,275.92 343.4,276.68 342.63,277.06 341.49,277.06 340.72,276.68 339.96,275.92 339.57,274.77 339.57,274.01 339.96,272.86 340.72,272.09 341.49,271.71 342.63,271.71 343.4,272.09 344.16,272.86 " stroke-width="0.54307" stroke-linecap="round" stroke-linejoin="round" />
<line x1="347.22" y1="277.06" x2="347.22" y2="271.71" stroke-width="0.54307" stroke-linecap="round" />
<polyline points="347.22,275.54 348.37,276.68 349.14,277.06 350.28,277.06 351.05,276.68 351.43,275.54 351.43,271.71 " stroke-width="0.54307" stroke-linecap="round" stroke-linejoin="round" />
<line x1="358.7" y1="279.74" x2="358.7" y2="271.71" stroke-width="0.54307" stroke-linecap="round" />
<polyline points="358.7,275.92 357.93,276.68 357.17,277.06 356.02,277.06 355.25,276.68 354.49,275.92 354.11,274.77 354.11,274.01 354.49,272.86 355.25,272.09 356.02,271.71 357.17,271.71 357.93,272.09 358.7,272.86 " stroke-width="0.54307" stroke-linecap="round" stroke-linejoin="round" />
<line x1="367.88" y1="279.74" x2="367.88" y2="271.71" stroke-width="0.54307" stroke-linecap="round" />
<polyline points="367.88,275.92 368.64,276.68 369.4,277.06 370.55,277.06 371.32,276.68 372.08,275.92 372.46,274.77 372.46,274.01 372.08,272.86 371.32,272.09 370.55,271.71 369.4,271.71 368.64,272.09 367.88,272.86 " stroke-width="0.54307" stroke-linecap="round" stroke-linejoin="round" />
<polyline points="374.76,274.77 379.35,274.77 379.35,275.54 378.97,276.3 378.58,276.68 377.82,277.06 376.67,277.06 375.91,276.68 375.14,275.92 374.76,274.77 374.76,274.01 375.14,272.86 375.91,272.09 376.67,271.71 377.82,271.71 378.58,272.09 379.35,272.86 " stroke-width="0.54307" stroke-linecap="round" stroke-linejoin="round" />
<polyline points="385.85,275.92 385.47,276.68 384.32,277.06 383.17,277.06 382.03,276.68 381.64,275.92 382.03,275.15 382.79,274.77 384.7,274.39 385.47,274.01 385.85,273.24 385.85,272.86 385.47,272.09 384.32,271.71 383.17,271.71 382.03,272.09 381.64,272.86 " stroke-width="0.54307" stroke-linecap="round" stroke-linejoin="round" />
<polyline points="388.91,279.74 388.91,273.24 389.29,272.09 390.06,271.71 390.82,271.71 " stroke-width="0.54307" stroke-linecap="round" stroke-linejoin="round" />
<line x1="387.76" y1="277.06" x2="390.44" y2="277.06" stroke-width="0.54307" stroke-linecap="round" />
<polyline points="401.53,279.74 400.77,279.74 400,279.36 399.62,278.21 399.62,271.71 " stroke-width="0.54307" stroke-linecap="round" stroke-linejoin="round" />
<line x1="398.47" y1="277.06" x2="401.15" y2="277.06" stroke-width="0.54307" stroke-linecap="round" />
<polygon points="403.44,279.74 403.83,279.36 404.21,279.74 403.83,280.12 " stroke-width="0.54307" stroke-linejoin="round" />
<line x1="403.83" y1="277.06" x2="403.83" y2="271.71" stroke-width="0.54307" stroke-linecap="round" />
<polyline points="407.27,279.74 407.27,273.24 407.65,272.09 408.41,271.71 409.18,271.71 " stroke-width="0.54307" stroke-linecap="round" stroke-linejoin="round" />
<line x1="406.12" y1="277.06" x2="408.8" y2="277.06" stroke-width="0.54307" stroke-linecap="round" />
<line x1="411.47" y1="277.06" x2="411.47" y2="271.71" stroke-width="0.54307" stroke-linecap="round" />
<polyline points="411.47,275.54 412.62,276.68 413.39,277.06 414.53,277.06 415.3,276.68 415.68,275.54 415.68,271.71 " stroke-width="0.54307" stroke-linecap="round" stroke-linejoin="round" />
<polyline points="418.36,274.77 422.95,274.77 422.95,275.54 422.56,276.3 422.18,276.68 421.42,277.06 420.27,277.06 419.51,276.68 418.74,275.92 418.36,274.77 418.36,274.01 418.74,272.86 419.51,272.09 420.27,271.71 421.42,271.71 422.18,272.09 422.95,272.86 " stroke-width="0.54307" stroke-linecap="round" stroke-linejoin="round" />
<polyline points="429.45,275.92 429.07,276.68 427.92,277.06 426.77,277.06 425.62,276.68 425.24,275.92 425.62,275.15 426.39,274.77 428.3,274.39 429.07,274.01 429.45,273.24 429.45,272.86 429.07,272.09 427.92,271.71 426.77,271.71 425.62,272.09 425.24,272.86 " stroke-width="0.54307" stroke-linecap="round" stroke-linejoin="round" />
<polyline points="435.95,275.92 435.57,276.68 434.42,277.06 433.27,277.06 432.13,276.68 431.74,275.92 432.13,275.15 432.89,274.77 434.8,274.39 435.57,274.01 435.95,273.24 435.95,272.86 435.57,272.09 434.42,271.71 433.27,271.71 432.13,272.09 431.74,272.86 " stroke-width="0.54307" stroke-linecap="round" stroke-linejoin="round" />
<polyline points="96.51,61.855 100.33,61.855 104.15,61.855 107.97,61.855 111.8,61.855 115.62,61.855 119.44,61.855 123.26,61.855 127.08,61.855 130.9,61.855 134.73,61.855 138.55,61.855 142.37,61.855 146.19,61.855 150.01,87.727 153.83,87.727 157.65,87.727 161.48,87.727 165.3,87.727 169.12,87.727 172.94,87.727 176.76,87.727 180.58,87.727 184.41,87.727 188.23,87.727 192.05,87.727 195.87,118.42 199.69,118.42 203.51,118.42 207.33,118.42 211.16,118.42 214.98,118.42 218.8,118.42 222.62,118.42 226.44,118.42 230.26,118.42 234.09,118.42 237.91,118.42 241.73,118.42 245.55,118.42 249.37,158.42 253.19,158.42 257.02,158.42 260.84,158.42 264.66,158.42 268.48,158.42 272.3,158.42 276.12,158.42 279.94,158.42 283.77,158.42 287.59,158.42 291.41,158.42 295.23,158.42 299.05,158.42 302.87,158.42 306.7,158.42 310.52,158.42 314.34,158.42 318.16,158.42 321.98,158.42 325.8,158.42 329.62,158.42 333.45,158.42 337.27,158.42 341.09,158.42 344.91,158.42 348.73,158.42 352.55,158.42 356.38,158.42 360.2,158.42 364.02,158.42 367.84,158.42 371.66,158.42 375.48,158.42 379.3,158.42 383.13,158.42 386.95,158.42 390.77,158.42 394.59,158.42 398.41,158.42 402.23,158.42 406.06,158.42 409.88,158.42 413.7,158.42 417.52,158.42 421.34,158.42 425.16,158.42 428.98,158.42 432.81,158.42 436.63,158.42 440.45,158.42 444.27,158.42 448.09,158.42 451.91,158.42 455.74,158.42 459.56,158.42 463.38,158.42 467.2,158.42 471.02,158.42 474.84,158.42 478.66,158.42 482.49,158.42 486.31,158.42 490.13,158.42 493.95,158.42 497.77,158.42 501.59,158.42 505.42,158.42 509.24,158.42 513.06,158.42 516.88,158.42 520.7,158.42 524.52,158.42 528.35,158.42 532.17,158.42 535.99,158.42 539.81,158.42 543.63,158.42 547.45,254.98 " stroke="red" stroke-width="0.42069" />
<polyline points="96.51,61.855 100.33,61.855 104.15,61.855 107.97,61.855 111.8,61.855 115.62,61.855 119.44,61.855 123.26,61.855 127.08,61.855 130.9,61.855 134.73,61.855 138.55,61.855 142.37,61.855 146.19,61.855 150.01,62.028 153.83,71.169 157.65,82.381 161.48,84.278 165.3,84.278 169.12,82.726 172.94,85.14 176.76,85.313 180.58,85.313 184.41,85.14 188.23,86.003 192.05,86.003 195.87,86.897 199.69,88.049 203.51,90.484 207.33,90.612 211.16,95.771 214.98,98.323 218.8,99.659 222.62,100.84 226.44,101.03 230.26,101.33 234.09,106.17 237.91,108.43 241.73,107.81 245.55,107.64 249.37,106.88 253.19,111.99 257.02,112.57 260.84,112.84 264.66,112.21 268.48,115.91 272.3,117.29 276.12,115.7 279.94,117.14 283.77,115.13 287.59,114.14 291.41,116.15 295.23,115.94 299.05,116.29 302.87,116.7 306.7,118.05 310.52,116.29 314.34,115.74 318.16,116.5 321.98,118.4 325.8,118.87 329.62,120.66 333.45,121.72 337.27,122.46 341.09,123.61 344.91,121.74 348.73,126.46 352.55,127.61 356.38,126.71 360.2,126.95 364.02,126.07 367.84,127.88 371.66,128.88 375.48,132.08 379.3,131.61 383.13,130.34 386.95,133.21 390.77,135.55 394.59,134.01 398.41,138.48 402.23,137.47 406.06,138.54 409.88,140.82 413.7,139.48 417.52,142.48 421.34,143.47 425.16,143.61 428.98,145.88 432.81,144.28 436.63,145.15 440.45,145.35 444.27,145.95 448.09,145.95 451.91,146.01 455.74,147.81 459.56,149.35 463.38,146.68 467.2,148.35 471.02,148.28 474.84,150.42 478.66,151.46 482.49,149.72 486.31,149.93 490.13,153.47 493.95,154.01 497.77,153.27 501.59,152.33 505.42,155.07 509.24,154.87 513.06,155.61 516.88,156.08 520.7,154.19 524.52,154.54 528.35,155.4 532.17,154.19 535.99,156.41 539.81,157.35 543.63,157.62 547.45,157.26 " stroke="blue" stroke-width="0.42069" />
<line x1="570" y1="61.854" x2="566.84" y2="61.854" stroke-width="0.70588" />
<line x1="570" y1="71.51" x2="566.84" y2="71.51" stroke-width="0.70588" />
<line x1="570" y1="81.166" x2="566.84" y2="81.166" stroke-width="0.70588" />
<line x1="570" y1="90.822" x2="566.84" y2="90.822" stroke-width="0.70588" />
<line x1="570" y1="100.48" x2="566.84" y2="100.48" stroke-width="0.70588" />
<line x1="570" y1="110.13" x2="566.84" y2="110.13" stroke-width="0.70588" />
<line x1="570" y1="119.79" x2="566.84" y2="119.79" stroke-width="0.70588" />
<line x1="570" y1="129.45" x2="566.84" y2="129.45" stroke-width="0.70588" />
<line x1="570" y1="139.1" x2="566.84" y2="139.1" stroke-width="0.70588" />
<line x1="570" y1="148.76" x2="566.84" y2="148.76" stroke-width="0.70588" />
<line x1="570" y1="158.42" x2="566.84" y2="158.42" stroke-width="0.70588" />
<line x1="570" y1="168.07" x2="566.84" y2="168.07" stroke-width="0.70588" />
<line x1="570" y1="177.73" x2="566.84" y2="177.73" stroke-width="0.70588" />
<line x1="570" y1="187.39" x2="566.84" y2="187.39" stroke-width="0.70588" />
<line x1="570" y1="197.04" x2="566.84" y2="197.04" stroke-width="0.70588" />
<line x1="570" y1="206.7" x2="566.84" y2="206.7" stroke-width="0.70588" />
<line x1="570" y1="216.35" x2="566.84" y2="216.35" stroke-width="0.70588" />
<line x1="570" y1="226.01" x2="566.84" y2="226.01" stroke-width="0.70588" />
<line x1="570" y1="235.67" x2="566.84" y2="235.67" stroke-width="0.70588" />
<line x1="570" y1="245.32" x2="566.84" y2="245.32" stroke-width="0.70588" />
<line x1="570" y1="254.98" x2="566.84" y2="254.98" stroke-width="0.70588" />
<line x1="570" y1="61.854" x2="563.69" y2="61.854" stroke-width="0.70588" />
<line x1="570" y1="100.48" x2="563.69" y2="100.48" stroke-width="0.70588" />
<line x1="570" y1="139.1" x2="563.69" y2="139.1" stroke-width="0.70588" />
<line x1="570" y1="177.73" x2="563.69" y2="177.73" stroke-width="0.70588" />
<line x1="570" y1="216.35" x2="563.69" y2="216.35" stroke-width="0.70588" />
<line x1="570" y1="254.98" x2="563.69" y2="254.98" stroke-width="0.70588" />
<line x1="570" y1="52.199" x2="570" y2="264.64" stroke-width="0.70588" />
<line x1="77.402" y1="264.64" x2="77.402" y2="261.48" stroke-width="0.70588" />
<line x1="96.51" y1="264.64" x2="96.51" y2="261.48" stroke-width="0.70588" />
<line x1="115.62" y1="264.64" x2="115.62" y2="261.48" stroke-width="0.70588" />
<line x1="134.73" y1="264.64" x2="134.73" y2="261.48" stroke-width="0.70588" />
<line x1="153.83" y1="264.64" x2="153.83" y2="261.48" stroke-width="0.70588" />
<line x1="172.94" y1="264.64" x2="172.94" y2="261.48" stroke-width="0.70588" />
<line x1="192.05" y1="264.64" x2="192.05" y2="261.48" stroke-width="0.70588" />
<line x1="211.16" y1="264.64" x2="211.16" y2="261.48" stroke-width="0.70588" />
<line x1="230.26" y1="264.64" x2="230.26" y2="261.48" stroke-width="0.70588" />
<line x1="249.37" y1="264.64" x2="249.37" y2="261.48" stroke-width="0.70588" />
<line x1="268.48" y1="264.64" x2="268.48" y2="261.48" stroke-width="0.70588" />
<line x1="287.59" y1="264.64" x2="287.59" y2="261.48" stroke-width="0.70588" />
<line x1="306.7" y1="264.64" x2="306.7" y2="261.48" stroke-width="0.70588" />
<line x1="325.8" y1="264.64" x2="325.8" y2="261.48" stroke-width="0.70588" />
<line x1="344.91" y1="264.64" x2="344.91" y2="261.48" stroke-width="0.70588" />
<line x1="364.02" y1="264.64" x2="364.02" y2="261.48" stroke-width="0.70588" />
<line x1="383.13" y1="264.64" x2="383.13" y2="261.48" stroke-width="0.70588" />
<line x1="402.23" y1="264.64" x2="402.23" y2="261.48" stroke-width="0.70588" />
<line x1="421.34" y1="264.64" x2="421.34" y2="261.48" stroke-width="0.70588" />
<line x1="440.45" y1="264.64" x2="440.45" y2="261.48" stroke-width="0.70588" />
<line x1="459.56" y1="264.64" x2="459.56" y2="261.48" stroke-width="0.70588" />
<line x1="478.66" y1="264.64" x2="478.66" y2="261.48" stroke-width="0.70588" />
<line x1="497.77" y1="264.64" x2="497.77" y2="261.48" stroke-width="0.70588" />
<line x1="516.88" y1="264.64" x2="516.88" y2="261.48" stroke-width="0.70588" />
<line x1="535.99" y1="264.64" x2="535.99" y2="261.48" stroke-width="0.70588" />
<line x1="555.1" y1="264.64" x2="555.1" y2="261.48" stroke-width="0.70588" />
<line x1="96.51" y1="264.64" x2="96.51" y2="258.32" stroke-width="0.70588" />
<line x1="172.94" y1="264.64" x2="172.94" y2="258.32" stroke-width="0.70588" />
<line x1="249.37" y1="264.64" x2="249.37" y2="258.32" stroke-width="0.70588" />
<line x1="325.8" y1="264.64" x2="325.8" y2="258.32" stroke-width="0.70588" />
<line x1="402.23" y1="264.64" x2="402.23" y2="258.32" stroke-width="0.70588" />
<line x1="478.66" y1="264.64" x2="478.66" y2="258.32" stroke-width="0.70588" />
<line x1="555.1" y1="264.64" x2="555.1" y2="258.32" stroke-width="0.70588" />
<line x1="73.963" y1="264.64" x2="570" y2="264.64" stroke-width="0.70588" />
<line x1="73.963" y1="61.854" x2="77.118" y2="61.854" stroke-width="0.70588" />
<line x1="73.963" y1="71.51" x2="77.118" y2="71.51" stroke-width="0.70588" />
<line x1="73.963" y1="81.166" x2="77.118" y2="81.166" stroke-width="0.70588" />
<line x1="73.963" y1="90.822" x2="77.118" y2="90.822" stroke-width="0.70588" />
<line x1="73.963" y1="100.48" x2="77.118" y2="100.48" stroke-width="0.70588" />
<line x1="73.963" y1="110.13" x2="77.118" y2="110.13" stroke-width="0.70588" />
<line x1="73.963" y1="119.79" x2="77.118" y2="119.79" stroke-width="0.70588" />
<line x1="73.963" y1="129.45" x2="77.118" y2="129.45" stroke-width="0.70588" />
<line x1="73.963" y1="139.1" x2="77.118" y2="139.1" stroke-width="0.70588" />
<line x1="73.963" y1="148.76" x2="77.118" y2="148.76" stroke-width="0.70588" />
<line x1="73.963" y1="158.42" x2="77.118" y2="158.42" stroke-width="0.70588" />
<line x1="73.963" y1="168.07" x2="77.118" y2="168.07" stroke-width="0.70588" />
<line x1="73.963" y1="177.73" x2="77.118" y2="177.73" stroke-width="0.70588" />
<line x1="73.963" y1="187.39" x2="77.118" y2="187.39" stroke-width="0.70588" />
<line x1="73.963" y1="197.04" x2="77.118" y2="197.04" stroke-width="0.70588" />
<line x1="73.963" y1="206.7" x2="77.118" y2="206.7" stroke-width="0.70588" />
<line x1="73.963" y1="216.35" x2="77.118" y2="216.35" stroke-width="0.70588" />
<line x1="73.963" y1="226.01" x2="77.118" y2="226.01" stroke-width="0.70588" />
<line x1="73.963" y1="235.67" x2="77.118" y2="235.67" stroke-width="0.70588" />
<line x1="73.963" y1="245.32" x2="77.118" y2="245.32" stroke-width="0.70588" />
<line x1="73.963" y1="254.98" x2="77.118" y2="254.98" stroke-width="0.70588" />
<line x1="73.963" y1="61.854" x2="80.273" y2="61.854" stroke-width="0.70588" />
<line x1="73.963" y1="100.48" x2="80.273" y2="100.48" stroke-width="0.70588" />
<line x1="73.963" y1="139.1" x2="80.273" y2="139.1" stroke-width="0.70588" />
<line x1="73.963" y1="177.73" x2="80.273" y2="177.73" stroke-width="0.70588" />
<line x1="73.963" y1="216.35" x2="80.273" y2="216.35" stroke-width="0.70588" />
<line x1="73.963" y1="254.98" x2="80.273" y2="254.98" stroke-width="0.70588" />
<line x1="73.963" y1="52.199" x2="73.963" y2="264.64" stroke-width="0.70588" />
<polyline points="63.445,66.443 62.298,66.06 61.533,64.913 61.151,63.001 61.151,61.854 61.533,59.941 62.298,58.794 63.445,58.411 64.21,58.411 65.358,58.794 66.123,59.941 66.505,61.854 66.505,63.001 66.123,64.913 65.358,66.06 64.21,66.443 63.445,66.443 " stroke-width="0.54307" stroke-linecap="round" stroke-linejoin="round" />
<polygon points="51.972,105.07 50.825,104.69 50.06,103.54 49.677,101.63 49.677,100.48 50.06,98.566 50.825,97.419 51.972,97.037 52.737,97.037 53.884,97.419 54.649,98.566 55.032,100.48 55.032,101.63 54.649,103.54 53.884,104.69 52.737,105.07 " stroke-width="0.54307" stroke-linejoin="round" />
<polygon points="58.091,97.802 57.709,97.419 58.091,97.037 58.474,97.419 " stroke-width="0.54307" stroke-linejoin="round" />
<polyline points="61.533,103.16 61.533,103.54 61.916,104.3 62.298,104.69 63.063,105.07 64.593,105.07 65.358,104.69 65.74,104.3 66.123,103.54 66.123,102.77 65.74,102.01 64.975,100.86 61.151,97.037 66.505,97.037 " stroke-width="0.54307" stroke-linecap="round" stroke-linejoin="round" />
<polygon points="51.972,143.69 50.825,143.31 50.06,142.16 49.677,140.25 49.677,139.1 50.06,137.19 50.825,136.04 51.972,135.66 52.737,135.66 53.884,136.04 54.649,137.19 55.032,139.1 55.032,140.25 54.649,142.16 53.884,143.31 52.737,143.69 " stroke-width="0.54307" stroke-linejoin="round" />
<polygon points="58.091,136.43 57.709,136.04 58.091,135.66 58.474,136.04 " stroke-width="0.54307" stroke-linejoin="round" />
<polyline points="64.975,143.69 61.151,138.34 66.887,138.34 " stroke-width="0.54307" stroke-linecap="round" stroke-linejoin="round" />
<line x1="64.975" y1="143.69" x2="64.975" y2="135.66" stroke-width="0.54307" stroke-linecap="round" />
<polygon points="51.972,182.32 50.825,181.94 50.06,180.79 49.677,178.88 49.677,177.73 50.06,175.82 50.825,174.67 51.972,174.29 52.737,174.29 53.884,174.67 54.649,175.82 55.032,177.73 55.032,178.88 54.649,180.79 53.884,181.94 52.737,182.32 " stroke-width="0.54307" stroke-linejoin="round" />
<polygon points="58.091,175.05 57.709,174.67 58.091,174.29 58.474,174.67 " stroke-width="0.54307" stroke-linejoin="round" />
<polyline points="66.123,181.17 65.74,181.94 64.593,182.32 63.828,182.32 62.681,181.94 61.916,180.79 61.533,178.88 61.533,176.96 61.916,175.43 62.681,174.67 63.828,174.29 64.21,174.29 65.358,174.67 66.123,175.43 66.505,176.58 66.505,176.96 66.123,178.11 65.358,178.88 64.21,179.26 63.828,179.26 62.681,178.88 61.916,178.11 61.533,176.96 " stroke-width="0.54307" stroke-linecap="round" stroke-linejoin="round" />
<polygon points="51.972,220.94 50.825,220.56 50.06,219.41 49.677,217.5 49.677,216.35 50.06,214.44 50.825,213.29 51.972,212.91 52.737,212.91 53.884,213.29 54.649,214.44 55.032,216.35 55.032,217.5 54.649,219.41 53.884,220.56 52.737,220.94 " stroke-width="0.54307" stroke-linejoin="round" />
<polygon points="58.091,213.68 57.709,213.29 58.091,212.91 58.474,213.29 " stroke-width="0.54307" stroke-linejoin="round" />
<polyline points="63.063,220.94 61.916,220.56 61.533,219.8 61.533,219.03 61.916,218.27 62.681,217.88 64.21,217.5 65.358,217.12 66.123,216.35 66.505,215.59 66.505,214.44 66.123,213.68 65.74,213.29 64.593,212.91 63.063,212.91 61.916,213.29 61.533,213.68 61.151,214.44 61.151,215.59 61.533,216.35 62.298,217.12 63.445,217.5 64.975,217.88 65.74,218.27 66.123,219.03 66.123,219.8 65.74,220.56 64.593,220.94 63.063,220.94 " stroke-width="0.54307" stroke-linecap="round" stroke-linejoin="round" />
<polyline points="62.298,258.04 63.063,258.42 64.21,259.57 64.21,251.54 " stroke-width="0.54307" stroke-linecap="round" stroke-linejoin="round" />
<line x1="33.423" y1="139.1" x2="41.455" y2="139.1" stroke-width="0.54307" stroke-linecap="round" />
<line x1="33.423" y1="139.1" x2="33.423" y2="144.08" stroke-width="0.54307" stroke-linecap="round" />
<line x1="37.248" y1="139.1" x2="37.248" y2="142.16" stroke-width="0.54307" stroke-linecap="round" />
<polygon points="33.423,145.61 33.806,145.99 33.423,146.37 33.041,145.99 " stroke-width="0.54307" stroke-linejoin="round" />
<line x1="36.101" y1="145.99" x2="41.455" y2="145.99" stroke-width="0.54307" stroke-linecap="round" />
<polyline points="33.423,149.43 39.925,149.43 41.072,149.81 41.455,150.58 41.455,151.34 " stroke-width="0.54307" stroke-linecap="round" stroke-linejoin="round" />
<line x1="36.101" y1="148.28" x2="36.101" y2="150.96" stroke-width="0.54307" stroke-linecap="round" />
<line x1="36.101" y1="153.64" x2="41.455" y2="153.64" stroke-width="0.54307" stroke-linecap="round" />
<polyline points="37.63,153.64 36.483,154.78 36.101,155.55 36.101,156.7 36.483,157.46 37.63,157.84 41.455,157.84 " stroke-width="0.54307" stroke-linecap="round" stroke-linejoin="round" />
<polyline points="38.395,160.52 38.395,165.11 37.63,165.11 36.865,164.73 36.483,164.35 36.101,163.58 36.101,162.43 36.483,161.67 37.248,160.9 38.395,160.52 39.16,160.52 40.307,160.9 41.072,161.67 41.455,162.43 41.455,163.58 41.072,164.35 40.307,165.11 " stroke-width="0.54307" stroke-linecap="round" stroke-linejoin="round" />
<polyline points="37.248,171.61 36.483,171.23 36.101,170.08 36.101,168.93 36.483,167.79 37.248,167.4 38.013,167.79 38.395,168.55 38.778,170.46 39.16,171.23 39.925,171.61 40.307,171.61 41.072,171.23 41.455,170.08 41.455,168.93 41.072,167.79 40.307,167.4 " stroke-width="0.54307" stroke-linecap="round" stroke-linejoin="round" />
<polyline points="37.248,178.11 36.483,177.73 36.101,176.58 36.101,175.44 36.483,174.29 37.248,173.91 38.013,174.29 38.395,175.05 38.778,176.97 39.16,177.73 39.925,178.11 40.307,178.11 41.072,177.73 41.455,176.58 41.455,175.44 41.072,174.29 40.307,173.91 " stroke-width="0.54307" stroke-linecap="round" stroke-linejoin="round" />
<line x1="77.402" y1="52.199" x2="77.402" y2="55.354" stroke-width="0.70588" />
<line x1="96.51" y1="52.199" x2="96.51" y2="55.354" stroke-width="0.70588" />
<line x1="115.62" y1="52.199" x2="115.62" y2="55.354" stroke-width="0.70588" />
<line x1="134.73" y1="52.199" x2="134.73" y2="55.354" stroke-width="0.70588" />
<line x1="153.83" y1="52.199" x2="153.83" y2="55.354" stroke-width="0.70588" />
<line x1="172.94" y1="52.199" x2="172.94" y2="55.354" stroke-width="0.70588" />
<line x1="192.05" y1="52.199" x2="192.05" y2="55.354" stroke-width="0.70588" />
<line x1="211.16" y1="52.199" x2="211.16" y2="55.354" stroke-width="0.70588" />
<line x1="230.26" y1="52.199" x2="230.26" y2="55.354" stroke-width="0.70588" />
<line x1="249.37" y1="52.199" x2="249.37" y2="55.354" stroke-width="0.70588" />
<line x1="268.48" y1="52.199" x2="268.48" y2="55.354" stroke-width="0.70588" />
<line x1="287.59" y1="52.199" x2="287.59" y2="55.354" stroke-width="0.70588" />
<line x1="306.7" y1="52.199" x2="306.7" y2="55.354" stroke-width="0.70588" />
<line x1="325.8" y1="52.199" x2="325.8" y2="55.354" stroke-width="0.70588" />
<line x1="344.91" y1="52.199" x2="344.91" y2="55.354" stroke-width="0.70588" />
<line x1="364.02" y1="52.199" x2="364.02" y2="55.354" stroke-width="0.70588" />
<line x1="383.13" y1="52.199" x2="383.13" y2="55.354" stroke-width="0.70588" />
<line x1="402.23" y1="52.199" x2="402.23" y2="55.354" stroke-width="0.70588" />
<line x1="421.34" y1="52.199" x2="421.34" y2="55.354" stroke-width="0.70588" />
<line x1="440.45" y1="52.199" x2="440.45" y2="55.354" stroke-width="0.70588" />
<line x1="459.56" y1="52.199" x2="459.56" y2="55.354" stroke-width="0.70588" />
<line x1="478.66" y1="52.199" x2="478.66" y2="55.354" stroke-width="0.70588" />
<line x1="497.77" y1="52.199" x2="497.77" y2="55.354" stroke-width="0.70588" />
<line x1="516.88" y1="52.199" x2="516.88" y2="55.354" stroke-width="0.70588" />
<line x1="535.99" y1="52.199" x2="535.99" y2="55.354" stroke-width="0.70588" />
<line x1="555.1" y1="52.199" x2="555.1" y2="55.354" stroke-width="0.70588" />
<line x1="96.51" y1="52.199" x2="96.51" y2="58.51" stroke-width="0.70588" />
<line x1="172.94" y1="52.199" x2="172.94" y2="58.51" stroke-width="0.70588" />
<line x1="249.37" y1="52.199" x2="249.37" y2="58.51" stroke-width="0.70588" />
<line x1="325.8" y1="52.199" x2="325.8" y2="58.51" stroke-width="0.70588" />
<line x1="402.23" y1="52.199" x2="402.23" y2="58.51" stroke-width="0.70588" />
<line x1="478.66" y1="52.199" x2="478.66" y2="58.51" stroke-width="0.70588" />
<line x1="555.1" y1="52.199" x2="555.1" y2="58.51" stroke-width="0.70588" />
<line x1="73.963" y1="52.199" x2="570" y2="52.199" stroke-width="0.70588" />
<polygon points="96.127,44.168 94.98,43.785 94.215,42.638 93.833,40.726 93.833,39.579 94.215,37.666 94.98,36.519 96.127,36.136 96.892,36.136 98.04,36.519 98.805,37.666 99.187,39.579 99.187,40.726 98.805,42.638 98.04,43.785 96.892,44.168 " stroke-width="0.54307" stroke-linejoin="round" />
<polyline points="166.82,42.256 166.82,42.638 167.2,43.403 167.59,43.785 168.35,44.168 169.88,44.168 170.65,43.785 171.03,43.403 171.41,42.638 171.41,41.873 171.03,41.108 170.26,39.961 166.44,36.136 171.79,36.136 " stroke-width="0.54307" stroke-linecap="round" stroke-linejoin="round" />
<polygon points="176.38,44.168 175.24,43.785 174.47,42.638 174.09,40.726 174.09,39.579 174.47,37.666 175.24,36.519 176.38,36.136 177.15,36.136 178.3,36.519 179.06,37.666 179.44,39.579 179.44,40.726 179.06,42.638 178.3,43.785 177.15,44.168 " stroke-width="0.54307" stroke-linejoin="round" />
<polyline points="246.69,44.168 242.87,38.814 248.61,38.814 " stroke-width="0.54307" stroke-linecap="round" stroke-linejoin="round" />
<line x1="246.69" y1="44.168" x2="246.69" y2="36.136" stroke-width="0.54307" stroke-linecap="round" />
<polygon points="252.81,44.168 251.67,43.785 250.9,42.638 250.52,40.726 250.52,39.579 250.9,37.666 251.67,36.519 252.81,36.136 253.58,36.136 254.73,36.519 255.49,37.666 255.87,39.579 255.87,40.726 255.49,42.638 254.73,43.785 253.58,44.168 " stroke-width="0.54307" stroke-linejoin="round" />
<polyline points="324.27,43.021 323.89,43.785 322.74,44.168 321.98,44.168 320.83,43.785 320.07,42.638 319.68,40.726 319.68,38.814 320.07,37.284 320.83,36.519 321.98,36.136 322.36,36.136 323.51,36.519 324.27,37.284 324.66,38.431 324.66,38.814 324.27,39.961 323.51,40.726 322.36,41.108 321.98,41.108 320.83,40.726 320.07,39.961 319.68,38.814 " stroke-width="0.54307" stroke-linecap="round" stroke-linejoin="round" />
<polygon points="329.24,44.168 328.1,43.785 327.33,42.638 326.95,40.726 326.95,39.579 327.33,37.666 328.1,36.519 329.24,36.136 330.01,36.136 331.16,36.519 331.92,37.666 332.3,39.579 332.3,40.726 331.92,42.638 331.16,43.785 330.01,44.168 " stroke-width="0.54307" stroke-linejoin="round" />
<polyline points="397.64,44.168 396.5,43.785 396.11,43.021 396.11,42.256 396.5,41.491 397.26,41.108 398.79,40.726 399.94,40.343 400.7,39.579 401.09,38.814 401.09,37.666 400.7,36.901 400.32,36.519 399.17,36.136 397.64,36.136 396.5,36.519 396.11,36.901 395.73,37.666 395.73,38.814 396.11,39.579 396.88,40.343 398.03,40.726 399.56,41.108 400.32,41.491 400.7,42.256 400.7,43.021 400.32,43.785 399.17,44.168 397.64,44.168 " stroke-width="0.54307" stroke-linecap="round" stroke-linejoin="round" />
<polygon points="405.68,44.168 404.53,43.785 403.76,42.638 403.38,40.726 403.38,39.579 403.76,37.666 404.53,36.519 405.68,36.136 406.44,36.136 407.59,36.519 408.35,37.666 408.74,39.579 408.74,40.726 408.35,42.638 407.59,43.785 406.44,44.168 " stroke-width="0.54307" stroke-linejoin="round" />
<polyline points="469.49,42.638 470.25,43.021 471.4,44.168 471.4,36.136 " stroke-width="0.54307" stroke-linecap="round" stroke-linejoin="round" />
<polygon points="478.28,44.168 477.14,43.785 476.37,42.638 475.99,40.726 475.99,39.579 476.37,37.666 477.14,36.519 478.28,36.136 479.05,36.136 480.19,36.519 480.96,37.666 481.34,39.579 481.34,40.726 480.96,42.638 480.19,43.785 479.05,44.168 " stroke-width="0.54307" stroke-linejoin="round" />
<polygon points="485.93,44.168 484.78,43.785 484.02,42.638 483.64,40.726 483.64,39.579 484.02,37.666 484.78,36.519 485.93,36.136 486.7,36.136 487.84,36.519 488.61,37.666 488.99,39.579 488.99,40.726 488.61,42.638 487.84,43.785 486.7,44.168 " stroke-width="0.54307" stroke-linejoin="round" />
<polyline points="545.92,42.638 546.68,43.021 547.83,44.168 547.83,36.136 " stroke-width="0.54307" stroke-linecap="round" stroke-linejoin="round" />
<polyline points="552.8,42.256 552.8,42.638 553.18,43.403 553.57,43.785 554.33,44.168 555.86,44.168 556.63,43.785 557.01,43.403 557.39,42.638 557.39,41.873 557.01,41.108 556.24,39.961 552.42,36.136 557.77,36.136 " stroke-width="0.54307" stroke-linecap="round" stroke-linejoin="round" />
<polygon points="562.36,44.168 561.22,43.785 560.45,42.638 560.07,40.726 560.07,39.579 560.45,37.666 561.22,36.519 562.36,36.136 563.13,36.136 564.27,36.519 565.04,37.666 565.42,39.579 565.42,40.726 565.04,42.638 564.27,43.785 563.13,44.168 " stroke-width="0.54307" stroke-linejoin="round" />
<polyline points="293.87,25.428 293.49,26.193 292.72,26.958 291.96,27.34 290.43,27.34 289.66,26.958 288.9,26.193 288.52,25.428 288.13,24.281 288.13,22.368 288.52,21.221 288.9,20.456 289.66,19.691 290.43,19.309 291.96,19.309 292.72,19.691 293.49,20.456 293.87,21.221 293.87,22.368 " stroke-width="0.54307" stroke-linecap="round" stroke-linejoin="round" />
<line x1="291.96" y1="22.368" x2="293.87" y2="22.368" stroke-width="0.54307" stroke-linecap="round" />
<polyline points="296.17,22.368 300.76,22.368 300.76,23.133 300.37,23.898 299.99,24.281 299.23,24.663 298.08,24.663 297.31,24.281 296.55,23.516 296.17,22.368 296.17,21.603 296.55,20.456 297.31,19.691 298.08,19.309 299.23,19.309 299.99,19.691 300.76,20.456 " stroke-width="0.54307" stroke-linecap="round" stroke-linejoin="round" />
<line x1="303.43" y1="24.663" x2="303.43" y2="19.309" stroke-width="0.54307" stroke-linecap="round" />
<polyline points="303.43,23.133 304.58,24.281 305.34,24.663 306.49,24.663 307.26,24.281 307.64,23.133 307.64,19.309 " stroke-width="0.54307" stroke-linecap="round" stroke-linejoin="round" />
<polyline points="310.32,22.368 314.91,22.368 314.91,23.133 314.52,23.898 314.14,24.281 313.38,24.663 312.23,24.663 311.46,24.281 310.7,23.516 310.32,22.368 310.32,21.603 310.7,20.456 311.46,19.691 312.23,19.309 313.38,19.309 314.14,19.691 314.91,20.456 " stroke-width="0.54307" stroke-linecap="round" stroke-linejoin="round" />
<line x1="317.58" y1="24.663" x2="317.58" y2="19.309" stroke-width="0.54307" stroke-linecap="round" />
<polyline points="317.58,22.368 317.97,23.516 318.73,24.281 319.5,24.663 320.64,24.663 " stroke-width="0.54307" stroke-linecap="round" stroke-linejoin="round" />
<line x1="326.76" y1="24.663" x2="326.76" y2="19.309" stroke-width="0.54307" stroke-linecap="round" />
<polyline points="326.76,23.516 326,24.281 325.23,24.663 324.08,24.663 323.32,24.281 322.56,23.516 322.17,22.368 322.17,21.603 322.56,20.456 323.32,19.691 324.08,19.309 325.23,19.309 326,19.691 326.76,20.456 " stroke-width="0.54307" stroke-linecap="round" stroke-linejoin="round" />
<polyline points="330.2,27.34 330.2,20.839 330.59,19.691 331.35,19.309 332.12,19.309 " stroke-width="0.54307" stroke-linecap="round" stroke-linejoin="round" />
<line x1="329.06" y1="24.663" x2="331.73" y2="24.663" stroke-width="0.54307" stroke-linecap="round" />
<polygon points="334.03,27.34 334.41,26.958 334.79,27.34 334.41,27.723 " stroke-width="0.54307" stroke-linejoin="round" />
<line x1="334.41" y1="24.663" x2="334.41" y2="19.309" stroke-width="0.54307" stroke-linecap="round" />
<polygon points="339,24.663 338.24,24.281 337.47,23.516 337.09,22.368 337.09,21.603 337.47,20.456 338.24,19.691 339,19.309 340.15,19.309 340.91,19.691 341.68,20.456 342.06,21.603 342.06,22.368 341.68,23.516 340.91,24.281 340.15,24.663 " stroke-width="0.54307" stroke-linejoin="round" />
<line x1="344.74" y1="24.663" x2="344.74" y2="19.309" stroke-width="0.54307" stroke-linecap="round" />
<polyline points="344.74,23.133 345.88,24.281 346.65,24.663 347.8,24.663 348.56,24.281 348.94,23.133 348.94,19.309 " stroke-width="0.54307" stroke-linecap="round" stroke-linejoin="round" />
<polyline points="355.83,23.516 355.45,24.281 354.3,24.663 353.15,24.663 352,24.281 351.62,23.516 352,22.751 352.77,22.368 354.68,21.986 355.45,21.603 355.83,20.839 355.83,20.456 355.45,19.691 354.3,19.309 353.15,19.309 352,19.691 351.62,20.456 " stroke-width="0.54307" stroke-linecap="round" stroke-linejoin="round" />
</g>
</svg>
