<?xml version="1.0" encoding="UTF-8" standalone="no"?>
<!DOCTYPE svg PUBLIC "-//W3C//DTD SVG 1.1//EN"
 "http://www.w3.org/Graphics/SVG/1.1/DTD/svg11.dtd">
<!-- Generated by graphviz version 2.36.0 (20140111.2315)
 -->
<!-- Title: G Pages: 1 -->
<svg width="724pt" height="614pt"
 viewBox="0.00 0.00 724.21 614.00" xmlns="http://www.w3.org/2000/svg" xmlns:xlink="http://www.w3.org/1999/xlink">
<g id="graph0" class="graph" transform="scale(1 1) rotate(0) translate(4 610)">
<title>G</title>
<polygon fill="white" stroke="none" points="-4,4 -4,-610 720.207,-610 720.207,4 -4,4"/>
<g id="clust1" class="cluster"><title>cluster_inputs</title>
<polygon fill="none" stroke="white" points="395.207,-564 395.207,-598 472.207,-598 472.207,-564 395.207,-564"/>
</g>
<g id="clust2" class="cluster"><title>cluster_outputs</title>
<polygon fill="none" stroke="white" points="318.207,-8 318.207,-54 412.207,-54 412.207,-8 318.207,-8"/>
</g>
<!-- 1 -->
<g id="node1" class="node"><title>1</title>
<polygon fill="lightgrey" stroke="black" points="424.457,-590 403.957,-590 403.957,-572 424.457,-572 424.457,-590"/>
<text text-anchor="middle" x="414.207" y="-578.8" font-family="Times,serif" font-size="9.00">1</text>
</g>
<!-- 3 -->
<g id="node3" class="node"><title>3</title>
<ellipse fill="lightblue" stroke="lightblue" cx="341.207" cy="-31" rx="14.2796" ry="14.7"/>
<text text-anchor="middle" x="341.207" y="-28.8" font-family="Times,serif" font-size="9.00">3</text>
</g>
<!-- 1&#45;&gt;3 -->
<g id="edge2" class="edge"><title>1&#45;&gt;3</title>
<path fill="none" stroke="black" d="M403.921,-580.265C348.895,-581.473 89.5859,-584.494 30.2069,-536 -3.10374,-508.796 0.206916,-487.008 0.206916,-444 0.206916,-444 0.206916,-444 0.206916,-166 0.206916,-116.341 34.6341,-109.82 78.2069,-86 99.2348,-74.5047 256.202,-46.6302 317.13,-36.1106"/>
<polygon fill="black" stroke="black" points="317.754,-39.5548 327.016,-34.4108 316.568,-32.6561 317.754,-39.5548"/>
</g>
<!-- 4 -->
<g id="node4" class="node"><title>4</title>
<ellipse fill="lightblue" stroke="lightblue" cx="389.207" cy="-31" rx="14.2796" ry="14.7"/>
<text text-anchor="middle" x="389.207" y="-28.8" font-family="Times,serif" font-size="9.00">4</text>
</g>
<!-- 1&#45;&gt;4 -->
<g id="edge27" class="edge"><title>1&#45;&gt;4</title>
<path fill="none" stroke="black" d="M420.872,-571.73C433.585,-556.237 462.588,-522.224 491.207,-498 513.223,-479.365 523.823,-481.358 545.207,-462 614.27,-399.482 678.207,-393.156 678.207,-300 678.207,-300 678.207,-300 678.207,-166 678.207,-49.9835 484.147,-34.1256 414.07,-32.1813"/>
<polygon fill="black" stroke="black" points="414.005,-28.6794 403.936,-31.9755 413.863,-35.6779 414.005,-28.6794"/>
</g>
<!-- 5 -->
<g id="node7" class="node"><title>5</title>
<ellipse fill="none" stroke="black" cx="373.207" cy="-299" rx="14.2796" ry="14.7"/>
<text text-anchor="middle" x="373.207" y="-296.8" font-family="Times,serif" font-size="9.00">5</text>
</g>
<!-- 1&#45;&gt;5 -->
<g id="edge17" class="edge"><title>1&#45;&gt;5</title>
<path fill="none" stroke="cornflowerblue" stroke-dasharray="1,5" d="M413.024,-571.922C407.647,-535.203 385.4,-383.267 376.708,-323.911"/>
<polygon fill="cornflowerblue" stroke="cornflowerblue" points="380.162,-323.341 375.25,-313.954 373.236,-324.356 380.162,-323.341"/>
</g>
<!-- 8 -->
<g id="node9" class="node"><title>8</title>
<ellipse fill="none" stroke="black" cx="222.207" cy="-233" rx="14.2796" ry="14.7"/>
<text text-anchor="middle" x="222.207" y="-230.8" font-family="Times,serif" font-size="9.00">8</text>
</g>
<!-- 1&#45;&gt;8 -->
<g id="edge38" class="edge"><title>1&#45;&gt;8</title>
<path fill="none" stroke="black" d="M403.743,-579.759C361.698,-578.551 205.905,-571.692 176.207,-536 104.57,-449.906 135.51,-388.344 176.207,-284 181.564,-270.264 192.657,-258.021 202.607,-249.088"/>
<polygon fill="black" stroke="black" points="205.151,-251.521 210.545,-242.403 200.642,-246.167 205.151,-251.521"/>
</g>
<!-- 11 -->
<g id="node12" class="node"><title>11</title>
<ellipse fill="none" stroke="black" cx="302.207" cy="-517" rx="18.0791" ry="18.2703"/>
<text text-anchor="middle" x="302.207" y="-514.8" font-family="Times,serif" font-size="9.00">11</text>
</g>
<!-- 1&#45;&gt;11 -->
<g id="edge10" class="edge"><title>1&#45;&gt;11</title>
<path fill="none" stroke="black" d="M403.871,-574.278C386.469,-564.645 350.864,-544.935 326.76,-531.592"/>
<polygon fill="black" stroke="black" points="328.283,-528.435 317.839,-526.653 324.893,-534.559 328.283,-528.435"/>
</g>
<!-- 10 -->
<g id="node13" class="node"><title>10</title>
<ellipse fill="none" stroke="black" cx="57.2069" cy="-517" rx="18.0791" ry="18.2703"/>
<text text-anchor="middle" x="57.2069" y="-514.8" font-family="Times,serif" font-size="9.00">10</text>
</g>
<!-- 1&#45;&gt;10 -->
<g id="edge18" class="edge"><title>1&#45;&gt;10</title>
<path fill="none" stroke="black" d="M403.711,-579.508C363.605,-577.422 216.461,-567.903 100.207,-536 94.3073,-534.381 88.1424,-532.149 82.3834,-529.806"/>
<polygon fill="black" stroke="black" points="83.762,-526.589 73.193,-525.849 80.9938,-533.019 83.762,-526.589"/>
</g>
<!-- 2 -->
<g id="node2" class="node"><title>2</title>
<polygon fill="lightgrey" stroke="black" points="463.457,-590 442.957,-590 442.957,-572 463.457,-572 463.457,-590"/>
<text text-anchor="middle" x="453.207" y="-578.8" font-family="Times,serif" font-size="9.00">2</text>
</g>
<!-- 2&#45;&gt;3 -->
<g id="edge28" class="edge"><title>2&#45;&gt;3</title>
<path fill="none" stroke="black" d="M463.552,-579.371C488.507,-577.345 552.848,-569.033 592.207,-536 627.533,-506.351 640.207,-490.12 640.207,-444 640.207,-444 640.207,-444 640.207,-368 640.207,-324.324 615.774,-318.666 589.207,-284 550.124,-233.003 409.118,-96.8933 359.021,-48.9769"/>
<polygon fill="black" stroke="black" points="361.181,-46.2005 351.533,-41.8242 356.346,-51.2624 361.181,-46.2005"/>
</g>
<!-- 2&#45;&gt;4 -->
<g id="edge40" class="edge"><title>2&#45;&gt;4</title>
<path fill="none" stroke="black" d="M463.876,-580.325C495.74,-580.78 591.856,-578.351 654.207,-536 694.995,-508.295 716.207,-493.307 716.207,-444 716.207,-444 716.207,-444 716.207,-166 716.207,-123.593 699.346,-109.74 664.207,-86 623.122,-58.243 473.146,-40.4553 413.709,-34.3567"/>
<polygon fill="black" stroke="black" points="414.01,-30.8694 403.711,-33.3542 413.312,-37.8345 414.01,-30.8694"/>
</g>
<!-- 7 -->
<g id="node5" class="node"><title>7</title>
<ellipse fill="none" stroke="black" cx="179.207" cy="-101" rx="14.2796" ry="14.7"/>
<text text-anchor="middle" x="179.207" y="-98.8" font-family="Times,serif" font-size="9.00">7</text>
</g>
<!-- 2&#45;&gt;7 -->
<g id="edge32" class="edge"><title>2&#45;&gt;7</title>
<path fill="none" stroke="cornflowerblue" stroke-dasharray="1,5" d="M444.933,-571.679C441.567,-568.777 437.467,-565.799 433.207,-564 340.779,-524.971 292.705,-591.626 209.207,-536 138.463,-488.871 114.207,-455.005 114.207,-370 114.207,-370 114.207,-370 114.207,-232 114.207,-188.401 143.816,-144.436 163.066,-120.459"/>
<polygon fill="cornflowerblue" stroke="cornflowerblue" points="165.923,-122.498 169.616,-112.568 160.536,-118.028 165.923,-122.498"/>
</g>
<!-- 2&#45;&gt;5 -->
<g id="edge9" class="edge"><title>2&#45;&gt;5</title>
<path fill="none" stroke="cornflowerblue" stroke-dasharray="1,5" d="M451.955,-571.86C447.181,-541.754 428.829,-434.102 398.207,-350 394.685,-340.326 389.789,-330.084 385.263,-321.406"/>
<polygon fill="cornflowerblue" stroke="cornflowerblue" points="388.227,-319.53 380.402,-312.387 382.065,-322.85 388.227,-319.53"/>
</g>
<!-- 6 -->
<g id="node8" class="node"><title>6</title>
<ellipse fill="none" stroke="black" cx="503.207" cy="-233" rx="14.2796" ry="14.7"/>
<text text-anchor="middle" x="503.207" y="-230.8" font-family="Times,serif" font-size="9.00">6</text>
</g>
<!-- 2&#45;&gt;6 -->
<g id="edge23" class="edge"><title>2&#45;&gt;6</title>
<path fill="none" stroke="black" d="M463.641,-578.481C484.881,-574.873 533.552,-563.906 562.207,-536 594.149,-504.893 602.207,-488.586 602.207,-444 602.207,-444 602.207,-444 602.207,-368 602.207,-315.312 552.083,-269.76 523.167,-247.865"/>
<polygon fill="black" stroke="black" points="525.088,-244.933 514.952,-241.847 520.951,-250.58 525.088,-244.933"/>
</g>
<!-- 2&#45;&gt;8 -->
<g id="edge5" class="edge"><title>2&#45;&gt;8</title>
<path fill="none" stroke="black" d="M444.883,-571.793C441.511,-568.905 437.42,-565.907 433.207,-564 368.237,-534.59 337.787,-570.201 275.207,-536 226.357,-509.303 190.207,-499.669 190.207,-444 190.207,-444 190.207,-444 190.207,-368 190.207,-327.881 203.945,-282.808 213.418,-256.497"/>
<polygon fill="black" stroke="black" points="216.72,-257.659 216.923,-247.066 210.158,-255.22 216.72,-257.659"/>
</g>
<!-- 12 -->
<g id="node10" class="node"><title>12</title>
<ellipse fill="none" stroke="black" cx="518.207" cy="-443" rx="18.0791" ry="18.2703"/>
<text text-anchor="middle" x="518.207" y="-440.8" font-family="Times,serif" font-size="9.00">12</text>
</g>
<!-- 2&#45;&gt;12 -->
<g id="edge7" class="edge"><title>2&#45;&gt;12</title>
<path fill="none" stroke="cornflowerblue" stroke-dasharray="1,5" d="M463.559,-578.621C483.503,-575.343 526.894,-565.058 545.207,-536 558.692,-514.603 546.659,-486.198 534.649,-466.64"/>
<polygon fill="cornflowerblue" stroke="cornflowerblue" points="537.449,-464.528 529.045,-458.077 531.592,-468.361 537.449,-464.528"/>
</g>
<!-- 16 -->
<g id="node17" class="node"><title>16</title>
<ellipse fill="none" stroke="black" cx="518.207" cy="-517" rx="18.0791" ry="18.2703"/>
<text text-anchor="middle" x="518.207" y="-514.8" font-family="Times,serif" font-size="9.00">16</text>
</g>
<!-- 2&#45;&gt;16 -->
<g id="edge21" class="edge"><title>2&#45;&gt;16</title>
<path fill="none" stroke="black" d="M461.705,-571.895C470.851,-563.171 485.727,-548.981 497.919,-537.351"/>
<polygon fill="black" stroke="black" points="500.637,-539.596 505.457,-530.161 495.805,-534.531 500.637,-539.596"/>
</g>
<!-- 7&#45;&gt;3 -->
<g id="edge1" class="edge"><title>7&#45;&gt;3</title>
<path fill="none" stroke="cornflowerblue" stroke-dasharray="1,5" d="M191.829,-93.6892C196.887,-91.2176 202.79,-88.4041 208.207,-86 246.414,-69.0423 291.651,-51.124 318.303,-40.7839"/>
<polygon fill="cornflowerblue" stroke="cornflowerblue" points="319.807,-43.9549 327.874,-37.0867 317.285,-37.4251 319.807,-43.9549"/>
</g>
<!-- 15 -->
<g id="node14" class="node"><title>15</title>
<ellipse fill="none" stroke="black" cx="179.207" cy="-31" rx="18.0791" ry="18.2703"/>
<text text-anchor="middle" x="179.207" y="-28.8" font-family="Times,serif" font-size="9.00">15</text>
</g>
<!-- 7&#45;&gt;15 -->
<g id="edge13" class="edge"><title>7&#45;&gt;15</title>
<path fill="none" stroke="black" d="M179.207,-85.9104C179.207,-78.3051 179.207,-68.6477 179.207,-59.6142"/>
<polygon fill="black" stroke="black" points="182.707,-59.4565 179.207,-49.4565 175.707,-59.4565 182.707,-59.4565"/>
</g>
<!-- 17 -->
<g id="node6" class="node"><title>17</title>
<ellipse fill="none" stroke="black" cx="329.207" cy="-443" rx="18.0791" ry="18.2703"/>
<text text-anchor="middle" x="329.207" y="-440.8" font-family="Times,serif" font-size="9.00">17</text>
</g>
<!-- 17&#45;&gt;5 -->
<g id="edge3" class="edge"><title>17&#45;&gt;5</title>
<path fill="none" stroke="cornflowerblue" stroke-dasharray="1,5" d="M323.827,-425.327C318.648,-406.322 312.978,-374.696 323.207,-350 329.272,-335.359 341.934,-322.769 352.998,-313.885"/>
<polygon fill="cornflowerblue" stroke="cornflowerblue" points="355.136,-316.657 361.012,-307.842 350.92,-311.069 355.136,-316.657"/>
</g>
<!-- 18 -->
<g id="node16" class="node"><title>18</title>
<ellipse fill="none" stroke="black" cx="350.207" cy="-369" rx="18.0791" ry="18.2703"/>
<text text-anchor="middle" x="350.207" y="-366.8" font-family="Times,serif" font-size="9.00">18</text>
</g>
<!-- 17&#45;&gt;18 -->
<g id="edge36" class="edge"><title>17&#45;&gt;18</title>
<path fill="none" stroke="black" d="M334.184,-424.937C336.642,-416.508 339.665,-406.143 342.42,-396.696"/>
<polygon fill="black" stroke="black" points="345.826,-397.521 345.266,-386.941 339.106,-395.56 345.826,-397.521"/>
</g>
<!-- 5&#45;&gt;3 -->
<g id="edge19" class="edge"><title>5&#45;&gt;3</title>
<path fill="none" stroke="black" d="M371.532,-284.073C366.358,-241.07 350.594,-110.027 344.075,-55.84"/>
<polygon fill="black" stroke="black" points="347.535,-55.2993 342.866,-45.7889 340.585,-56.1354 347.535,-55.2993"/>
</g>
<!-- 5&#45;&gt;4 -->
<g id="edge22" class="edge"><title>5&#45;&gt;4</title>
<path fill="none" stroke="cornflowerblue" stroke-dasharray="1,5" d="M374.045,-284.073C376.625,-241.17 384.477,-110.636 387.75,-56.2193"/>
<polygon fill="cornflowerblue" stroke="cornflowerblue" points="391.251,-56.302 388.358,-46.1099 384.264,-55.8816 391.251,-56.302"/>
</g>
<!-- 5&#45;&gt;6 -->
<g id="edge4" class="edge"><title>5&#45;&gt;6</title>
<path fill="none" stroke="black" d="M386.147,-291.629C408.34,-280.704 453.9,-258.274 481.175,-244.847"/>
<polygon fill="black" stroke="black" points="482.893,-247.902 490.319,-240.345 479.801,-241.622 482.893,-247.902"/>
</g>
<!-- 5&#45;&gt;8 -->
<g id="edge12" class="edge"><title>5&#45;&gt;8</title>
<path fill="none" stroke="black" d="M360.071,-292.432C334.302,-281.511 276.853,-257.161 244.846,-243.595"/>
<polygon fill="black" stroke="black" points="245.993,-240.28 235.42,-239.6 243.261,-246.725 245.993,-240.28"/>
</g>
<!-- 6&#45;&gt;4 -->
<g id="edge30" class="edge"><title>6&#45;&gt;4</title>
<path fill="none" stroke="black" d="M503.902,-218.164C504.602,-190.526 502.68,-127.578 474.207,-86 459.15,-64.0121 431.888,-49.0638 412.294,-40.5673"/>
<polygon fill="black" stroke="black" points="413.433,-37.2518 402.852,-36.7093 410.785,-43.7317 413.433,-37.2518"/>
</g>
<!-- 8&#45;&gt;3 -->
<g id="edge34" class="edge"><title>8&#45;&gt;3</title>
<path fill="none" stroke="black" d="M223.626,-218.07C225.722,-201.595 230.607,-173.672 241.207,-152 261.794,-109.908 300.144,-69.9711 322.902,-48.454"/>
<polygon fill="black" stroke="black" points="325.566,-50.7563 330.519,-41.3902 320.807,-45.6236 325.566,-50.7563"/>
</g>
<!-- 8&#45;&gt;4 -->
<g id="edge42" class="edge"><title>8&#45;&gt;4</title>
<path fill="none" stroke="black" d="M234.131,-224.333C247.932,-215.162 270.969,-198.914 288.207,-182 328.446,-142.517 361.928,-84.6224 378.334,-53.571"/>
<polygon fill="black" stroke="black" points="381.547,-54.978 383.048,-44.4899 375.334,-51.7531 381.547,-54.978"/>
</g>
<!-- 8&#45;&gt;7 -->
<g id="edge29" class="edge"><title>8&#45;&gt;7</title>
<path fill="none" stroke="cornflowerblue" stroke-dasharray="1,5" d="M217.767,-218.577C210.461,-196.488 195.818,-152.22 186.828,-125.042"/>
<polygon fill="cornflowerblue" stroke="cornflowerblue" points="190.15,-123.939 183.687,-115.544 183.504,-126.138 190.15,-123.939"/>
</g>
<!-- 9 -->
<g id="node11" class="node"><title>9</title>
<ellipse fill="none" stroke="black" cx="265.207" cy="-167" rx="14.2796" ry="14.7"/>
<text text-anchor="middle" x="265.207" y="-164.8" font-family="Times,serif" font-size="9.00">9</text>
</g>
<!-- 8&#45;&gt;9 -->
<g id="edge33" class="edge"><title>8&#45;&gt;9</title>
<path fill="none" stroke="black" d="M230.094,-220.261C236.095,-211.33 244.499,-198.821 251.581,-188.281"/>
<polygon fill="black" stroke="black" points="254.698,-189.917 257.37,-179.664 248.888,-186.013 254.698,-189.917"/>
</g>
<!-- 12&#45;&gt;5 -->
<g id="edge6" class="edge"><title>12&#45;&gt;5</title>
<path fill="none" stroke="cornflowerblue" stroke-dasharray="1,5" d="M508.884,-426.755C496.584,-407.43 473.513,-373.773 448.207,-350 431.961,-334.738 410.575,-320.981 394.799,-311.778"/>
<polygon fill="cornflowerblue" stroke="cornflowerblue" points="396.22,-308.56 385.796,-306.664 392.762,-314.647 396.22,-308.56"/>
</g>
<!-- 14 -->
<g id="node15" class="node"><title>14</title>
<ellipse fill="none" stroke="black" cx="556.207" cy="-369" rx="18.0791" ry="18.2703"/>
<text text-anchor="middle" x="556.207" y="-366.8" font-family="Times,serif" font-size="9.00">14</text>
</g>
<!-- 12&#45;&gt;14 -->
<g id="edge24" class="edge"><title>12&#45;&gt;14</title>
<path fill="none" stroke="black" d="M526.452,-426.377C531.332,-417.131 537.624,-405.21 543.163,-394.714"/>
<polygon fill="black" stroke="black" points="546.405,-396.07 547.978,-385.592 540.215,-392.803 546.405,-396.07"/>
</g>
<!-- 9&#45;&gt;4 -->
<g id="edge8" class="edge"><title>9&#45;&gt;4</title>
<path fill="none" stroke="black" d="M274.937,-155.485C296.034,-132.686 346.201,-78.4747 372.487,-50.0686"/>
<polygon fill="black" stroke="black" points="375.299,-52.1827 379.522,-42.4659 370.161,-47.4284 375.299,-52.1827"/>
</g>
<!-- 9&#45;&gt;7 -->
<g id="edge20" class="edge"><title>9&#45;&gt;7</title>
<path fill="none" stroke="black" d="M253.964,-157.633C239.929,-147.188 215.695,-129.154 198.631,-116.455"/>
<polygon fill="black" stroke="black" points="200.565,-113.531 190.453,-110.369 196.385,-119.147 200.565,-113.531"/>
</g>
<!-- 11&#45;&gt;7 -->
<g id="edge25" class="edge"><title>11&#45;&gt;7</title>
<path fill="none" stroke="black" d="M284.094,-513.255C230.465,-504 76.2069,-468.795 76.2069,-370 76.2069,-370 76.2069,-370 76.2069,-232 76.2069,-194.879 77.7715,-181.574 100.207,-152 114.64,-132.975 138.576,-119.303 156.326,-111.115"/>
<polygon fill="black" stroke="black" points="158.17,-114.129 165.942,-106.929 155.377,-107.711 158.17,-114.129"/>
</g>
<!-- 11&#45;&gt;17 -->
<g id="edge35" class="edge"><title>11&#45;&gt;17</title>
<path fill="none" stroke="black" d="M308.334,-499.662C311.601,-490.949 315.7,-480.02 319.398,-470.158"/>
<polygon fill="black" stroke="black" points="322.683,-471.365 322.917,-460.773 316.129,-468.907 322.683,-471.365"/>
</g>
<!-- 11&#45;&gt;5 -->
<g id="edge15" class="edge"><title>11&#45;&gt;5</title>
<path fill="none" stroke="cornflowerblue" stroke-dasharray="1,5" d="M287.027,-506.347C273.702,-496.888 255.232,-481.126 247.207,-462 240.672,-446.427 242.813,-440.307 247.207,-424 257.103,-387.272 263.523,-377.109 290.207,-350 307.731,-332.197 332.853,-318.223 350.862,-309.627"/>
<polygon fill="cornflowerblue" stroke="cornflowerblue" points="352.412,-312.767 360.041,-305.415 349.493,-306.405 352.412,-312.767"/>
</g>
<!-- 11&#45;&gt;6 -->
<g id="edge41" class="edge"><title>11&#45;&gt;6</title>
<path fill="none" stroke="black" d="M315.436,-504.269C326.886,-493.779 343.55,-477.682 356.207,-462 413.576,-390.917 468.393,-296.672 491.596,-255.162"/>
<polygon fill="black" stroke="black" points="494.759,-256.677 496.552,-246.235 488.639,-253.279 494.759,-256.677"/>
</g>
<!-- 13 -->
<g id="node18" class="node"><title>13</title>
<ellipse fill="none" stroke="black" cx="274.207" cy="-443" rx="18.0791" ry="18.2703"/>
<text text-anchor="middle" x="274.207" y="-440.8" font-family="Times,serif" font-size="9.00">13</text>
</g>
<!-- 11&#45;&gt;13 -->
<g id="edge39" class="edge"><title>11&#45;&gt;13</title>
<path fill="none" stroke="black" d="M295.853,-499.662C292.417,-490.825 288.093,-479.707 284.215,-469.736"/>
<polygon fill="black" stroke="black" points="287.422,-468.325 280.535,-460.273 280.898,-470.862 287.422,-468.325"/>
</g>
<!-- 10&#45;&gt;3 -->
<g id="edge11" class="edge"><title>10&#45;&gt;3</title>
<path fill="none" stroke="black" d="M53.4531,-498.566C47.9159,-471.283 38.2069,-416.777 38.2069,-370 38.2069,-370 38.2069,-370 38.2069,-166 38.2069,-105.135 245.288,-53.3239 317.062,-37.1944"/>
<polygon fill="black" stroke="black" points="317.991,-40.5735 326.999,-34.9961 316.479,-33.7387 317.991,-40.5735"/>
</g>
<!-- 15&#45;&gt;3 -->
<g id="edge26" class="edge"><title>15&#45;&gt;3</title>
<path fill="none" stroke="black" d="M197.558,-31C237.217,-31 276.876,-31 316.535,-31"/>
<polygon fill="black" stroke="black" points="316.618,-34.5001 326.618,-31 316.618,-27.5001 316.618,-34.5001"/>
</g>
<!-- 14&#45;&gt;5 -->
<g id="edge14" class="edge"><title>14&#45;&gt;5</title>
<path fill="none" stroke="black" d="M540.891,-358.594C535.703,-355.623 529.804,-352.473 524.207,-350 480.599,-330.731 427.133,-314.711 396.939,-306.322"/>
<polygon fill="black" stroke="black" points="397.853,-302.944 387.283,-303.68 396.005,-309.695 397.853,-302.944"/>
</g>
<!-- 18&#45;&gt;5 -->
<g id="edge16" class="edge"><title>18&#45;&gt;5</title>
<path fill="none" stroke="black" d="M355.892,-351.191C358.753,-342.733 362.266,-332.348 365.377,-323.148"/>
<polygon fill="black" stroke="black" points="368.776,-324.024 368.665,-313.43 362.145,-321.781 368.776,-324.024"/>
</g>
<!-- 16&#45;&gt;12 -->
<g id="edge31" class="edge"><title>16&#45;&gt;12</title>
<path fill="none" stroke="black" d="M518.207,-498.571C518.207,-490.494 518.207,-480.7 518.207,-471.651"/>
<polygon fill="black" stroke="black" points="521.707,-471.518 518.207,-461.518 514.707,-471.518 521.707,-471.518"/>
</g>
<!-- 13&#45;&gt;5 -->
<g id="edge37" class="edge"><title>13&#45;&gt;5</title>
<path fill="none" stroke="black" d="M278.951,-425.187C284.984,-405.769 296.758,-373.487 314.207,-350 324.903,-335.603 340.5,-322.617 352.972,-313.49"/>
<polygon fill="black" stroke="black" points="355.228,-316.182 361.386,-307.56 351.196,-310.46 355.228,-316.182"/>
</g>
</g>
</svg>
