<?xml version="1.0" encoding="ISO-8859-1" standalone="no"?>
<!DOCTYPE svg PUBLIC "-//W3C//DTD SVG 1.1//EN" "http://www.w3.org/Graphics/SVG/1.1/DTD/svg11.dtd">
<svg version="1.1" baseProfile="full" id="body" width="8in" height="8in" viewBox="0 0 1 1" preserveAspectRatio="none" xmlns="http://www.w3.org/2000/svg" xmlns:xlink="http://www.w3.org/1999/xlink" xmlns:ev="http://www.w3.org/2001/xml-events">
<title>SVG drawing</title>
<desc>This was produced by version 4.4 of GNU libplot, a free library for exporting 2-D vector graphics.</desc>
<rect id="background" x="0" y="0" width="1" height="1" stroke="none" fill="white"/>
<g id="content" transform="translate(0,1) scale(0.0016667,-0.0033333) " xml:space="preserve" stroke="black" stroke-linecap="butt" stroke-linejoin="miter" stroke-miterlimit="10.433" stroke-dasharray="none" stroke-dashoffset="0" stroke-opacity="1" fill="none" fill-rule="evenodd" fill-opacity="1" font-style="normal" font-variant="normal" font-weight="normal" font-stretch="normal" font-size-adjust="none" letter-spacing="normal" word-spacing="normal" text-anchor="start">
<line x1="214.39" y1="279.67" x2="214.39" y2="271.68" stroke-width="0.54059" stroke-linecap="round" />
<polyline points="214.39,279.67 217.81,279.67 218.96,279.29 219.34,278.91 219.72,278.15 219.72,277.01 219.34,276.25 218.96,275.87 217.81,275.49 214.39,275.49 " stroke-width="0.54059" stroke-linecap="round" stroke-linejoin="round" />
<polygon points="223.91,277.01 223.14,276.63 222.38,275.87 222,274.72 222,273.96 222.38,272.82 223.14,272.06 223.91,271.68 225.05,271.68 225.81,272.06 226.57,272.82 226.95,273.96 226.95,274.72 226.57,275.87 225.81,276.63 225.05,277.01 " stroke-width="0.54059" stroke-linejoin="round" />
<line x1="229.62" y1="277.01" x2="229.62" y2="269.01" stroke-width="0.54059" stroke-linecap="round" />
<polyline points="229.62,275.87 230.38,276.63 231.14,277.01 232.28,277.01 233.04,276.63 233.8,275.87 234.18,274.72 234.18,273.96 233.8,272.82 233.04,272.06 232.28,271.68 231.14,271.68 230.38,272.06 229.62,272.82 " stroke-width="0.54059" stroke-linecap="round" stroke-linejoin="round" />
<polyline points="236.85,277.01 236.85,273.2 237.23,272.06 237.99,271.68 239.13,271.68 239.89,272.06 241.04,273.2 " stroke-width="0.54059" stroke-linecap="round" stroke-linejoin="round" />
<line x1="241.04" y1="277.01" x2="241.04" y2="271.68" stroke-width="0.54059" stroke-linecap="round" />
<line x1="244.08" y1="279.67" x2="244.08" y2="271.68" stroke-width="0.54059" stroke-linecap="round" />
<line x1="251.32" y1="277.01" x2="251.32" y2="271.68" stroke-width="0.54059" stroke-linecap="round" />
<polyline points="251.32,275.87 250.55,276.63 249.79,277.01 248.65,277.01 247.89,276.63 247.13,275.87 246.75,274.72 246.75,273.96 247.13,272.82 247.89,272.06 248.65,271.68 249.79,271.68 250.55,272.06 251.32,272.82 " stroke-width="0.54059" stroke-linecap="round" stroke-linejoin="round" />
<polyline points="254.74,279.67 254.74,273.2 255.12,272.06 255.88,271.68 256.64,271.68 " stroke-width="0.54059" stroke-linecap="round" stroke-linejoin="round" />
<line x1="253.6" y1="277.01" x2="256.26" y2="277.01" stroke-width="0.54059" stroke-linecap="round" />
<polygon points="258.55,279.67 258.93,279.29 259.31,279.67 258.93,280.05 " stroke-width="0.54059" stroke-linejoin="round" />
<line x1="258.93" y1="277.01" x2="258.93" y2="271.68" stroke-width="0.54059" stroke-linecap="round" />
<polygon points="263.5,277.01 262.74,276.63 261.97,275.87 261.59,274.72 261.59,273.96 261.97,272.82 262.74,272.06 263.5,271.68 264.64,271.68 265.4,272.06 266.16,272.82 266.54,273.96 266.54,274.72 266.16,275.87 265.4,276.63 264.64,277.01 " stroke-width="0.54059" stroke-linejoin="round" />
<line x1="269.21" y1="277.01" x2="269.21" y2="271.68" stroke-width="0.54059" stroke-linecap="round" />
<polyline points="269.21,275.49 270.35,276.63 271.11,277.01 272.25,277.01 273.01,276.63 273.4,275.49 273.4,271.68 " stroke-width="0.54059" stroke-linecap="round" stroke-linejoin="round" />
<polyline points="276.82,278.91 276.44,279.29 276.82,279.67 277.2,279.29 277.2,278.53 276.82,277.77 276.44,277.39 " stroke-width="0.54059" stroke-linecap="round" stroke-linejoin="round" />
<polyline points="284.06,275.87 283.67,276.63 282.53,277.01 281.39,277.01 280.25,276.63 279.87,275.87 280.25,275.1 281.01,274.72 282.91,274.34 283.67,273.96 284.06,273.2 284.06,272.82 283.67,272.06 282.53,271.68 281.39,271.68 280.25,272.06 279.87,272.82 " stroke-width="0.54059" stroke-linecap="round" stroke-linejoin="round" />
<line x1="297" y1="277.01" x2="297" y2="271.68" stroke-width="0.54059" stroke-linecap="round" />
<polyline points="297,275.87 296.24,276.63 295.48,277.01 294.33,277.01 293.57,276.63 292.81,275.87 292.43,274.72 292.43,273.96 292.81,272.82 293.57,272.06 294.33,271.68 295.48,271.68 296.24,272.06 297,272.82 " stroke-width="0.54059" stroke-linecap="round" stroke-linejoin="round" />
<line x1="299.28" y1="277.01" x2="301.57" y2="271.68" stroke-width="0.54059" stroke-linecap="round" />
<line x1="303.85" y1="277.01" x2="301.57" y2="271.68" stroke-width="0.54059" stroke-linecap="round" />
<polyline points="305.75,274.72 310.32,274.72 310.32,275.49 309.94,276.25 309.56,276.63 308.8,277.01 307.66,277.01 306.9,276.63 306.14,275.87 305.75,274.72 305.75,273.96 306.14,272.82 306.9,272.06 307.66,271.68 308.8,271.68 309.56,272.06 310.32,272.82 " stroke-width="0.54059" stroke-linecap="round" stroke-linejoin="round" />
<line x1="312.99" y1="277.01" x2="312.99" y2="271.68" stroke-width="0.54059" stroke-linecap="round" />
<polyline points="312.99,274.72 313.37,275.87 314.13,276.63 314.89,277.01 316.03,277.01 " stroke-width="0.54059" stroke-linecap="round" stroke-linejoin="round" />
<line x1="322.12" y1="277.01" x2="322.12" y2="271.68" stroke-width="0.54059" stroke-linecap="round" />
<polyline points="322.12,275.87 321.36,276.63 320.6,277.01 319.46,277.01 318.7,276.63 317.94,275.87 317.56,274.72 317.56,273.96 317.94,272.82 318.7,272.06 319.46,271.68 320.6,271.68 321.36,272.06 322.12,272.82 " stroke-width="0.54059" stroke-linecap="round" stroke-linejoin="round" />
<polyline points="329.36,277.01 329.36,270.92 328.98,269.77 328.6,269.39 327.83,269.01 326.69,269.01 325.93,269.39 " stroke-width="0.54059" stroke-linecap="round" stroke-linejoin="round" />
<polyline points="329.36,275.87 328.6,276.63 327.83,277.01 326.69,277.01 325.93,276.63 325.17,275.87 324.79,274.72 324.79,273.96 325.17,272.82 325.93,272.06 326.69,271.68 327.83,271.68 328.6,272.06 329.36,272.82 " stroke-width="0.54059" stroke-linecap="round" stroke-linejoin="round" />
<polyline points="332.02,274.72 336.59,274.72 336.59,275.49 336.21,276.25 335.83,276.63 335.07,277.01 333.93,277.01 333.16,276.63 332.4,275.87 332.02,274.72 332.02,273.96 332.4,272.82 333.16,272.06 333.93,271.68 335.07,271.68 335.83,272.06 336.59,272.82 " stroke-width="0.54059" stroke-linecap="round" stroke-linejoin="round" />
<line x1="349.53" y1="277.01" x2="349.53" y2="271.68" stroke-width="0.54059" stroke-linecap="round" />
<polyline points="349.53,275.87 348.77,276.63 348.01,277.01 346.87,277.01 346.11,276.63 345.35,275.87 344.97,274.72 344.97,273.96 345.35,272.82 346.11,272.06 346.87,271.68 348.01,271.68 348.77,272.06 349.53,272.82 " stroke-width="0.54059" stroke-linecap="round" stroke-linejoin="round" />
<line x1="352.58" y1="277.01" x2="352.58" y2="271.68" stroke-width="0.54059" stroke-linecap="round" />
<polyline points="352.58,275.49 353.72,276.63 354.48,277.01 355.63,277.01 356.39,276.63 356.77,275.49 356.77,271.68 " stroke-width="0.54059" stroke-linecap="round" stroke-linejoin="round" />
<line x1="364" y1="279.67" x2="364" y2="271.68" stroke-width="0.54059" stroke-linecap="round" />
<polyline points="364,275.87 363.24,276.63 362.48,277.01 361.34,277.01 360.57,276.63 359.81,275.87 359.43,274.72 359.43,273.96 359.81,272.82 360.57,272.06 361.34,271.68 362.48,271.68 363.24,272.06 364,272.82 " stroke-width="0.54059" stroke-linecap="round" stroke-linejoin="round" />
<line x1="373.14" y1="279.67" x2="373.14" y2="271.68" stroke-width="0.54059" stroke-linecap="round" />
<polyline points="373.14,275.87 373.9,276.63 374.66,277.01 375.8,277.01 376.56,276.63 377.33,275.87 377.71,274.72 377.71,273.96 377.33,272.82 376.56,272.06 375.8,271.68 374.66,271.68 373.9,272.06 373.14,272.82 " stroke-width="0.54059" stroke-linecap="round" stroke-linejoin="round" />
<polyline points="379.99,274.72 384.56,274.72 384.56,275.49 384.18,276.25 383.8,276.63 383.04,277.01 381.89,277.01 381.13,276.63 380.37,275.87 379.99,274.72 379.99,273.96 380.37,272.82 381.13,272.06 381.89,271.68 383.04,271.68 383.8,272.06 384.56,272.82 " stroke-width="0.54059" stroke-linecap="round" stroke-linejoin="round" />
<polyline points="391.03,275.87 390.65,276.63 389.51,277.01 388.37,277.01 387.22,276.63 386.84,275.87 387.22,275.1 387.98,274.72 389.89,274.34 390.65,273.96 391.03,273.2 391.03,272.82 390.65,272.06 389.51,271.68 388.37,271.68 387.22,272.06 386.84,272.82 " stroke-width="0.54059" stroke-linecap="round" stroke-linejoin="round" />
<polyline points="394.08,279.67 394.08,273.2 394.46,272.06 395.22,271.68 395.98,271.68 " stroke-width="0.54059" stroke-linecap="round" stroke-linejoin="round" />
<line x1="392.93" y1="277.01" x2="395.6" y2="277.01" stroke-width="0.54059" stroke-linecap="round" />
<polyline points="406.64,279.67 405.88,279.67 405.12,279.29 404.74,278.15 404.74,271.68 " stroke-width="0.54059" stroke-linecap="round" stroke-linejoin="round" />
<line x1="403.59" y1="277.01" x2="406.26" y2="277.01" stroke-width="0.54059" stroke-linecap="round" />
<polygon points="408.54,279.67 408.92,279.29 409.3,279.67 408.92,280.05 " stroke-width="0.54059" stroke-linejoin="round" />
<line x1="408.92" y1="277.01" x2="408.92" y2="271.68" stroke-width="0.54059" stroke-linecap="round" />
<polyline points="412.35,279.67 412.35,273.2 412.73,272.06 413.49,271.68 414.25,271.68 " stroke-width="0.54059" stroke-linecap="round" stroke-linejoin="round" />
<line x1="411.21" y1="277.01" x2="413.87" y2="277.01" stroke-width="0.54059" stroke-linecap="round" />
<line x1="416.54" y1="277.01" x2="416.54" y2="271.68" stroke-width="0.54059" stroke-linecap="round" />
<polyline points="416.54,275.49 417.68,276.63 418.44,277.01 419.58,277.01 420.34,276.63 420.72,275.49 420.72,271.68 " stroke-width="0.54059" stroke-linecap="round" stroke-linejoin="round" />
<polyline points="423.39,274.72 427.96,274.72 427.96,275.49 427.58,276.25 427.2,276.63 426.44,277.01 425.29,277.01 424.53,276.63 423.77,275.87 423.39,274.72 423.39,273.96 423.77,272.82 424.53,272.06 425.29,271.68 426.44,271.68 427.2,272.06 427.96,272.82 " stroke-width="0.54059" stroke-linecap="round" stroke-linejoin="round" />
<polyline points="434.43,275.87 434.05,276.63 432.91,277.01 431.76,277.01 430.62,276.63 430.24,275.87 430.62,275.1 431.38,274.72 433.29,274.34 434.05,273.96 434.43,273.2 434.43,272.82 434.05,272.06 432.91,271.68 431.76,271.68 430.62,272.06 430.24,272.82 " stroke-width="0.54059" stroke-linecap="round" stroke-linejoin="round" />
<polyline points="440.9,275.87 440.52,276.63 439.38,277.01 438.24,277.01 437.09,276.63 436.71,275.87 437.09,275.1 437.86,274.72 439.76,274.34 440.52,273.96 440.9,273.2 440.9,272.82 440.52,272.06 439.38,271.68 438.24,271.68 437.09,272.06 436.71,272.82 " stroke-width="0.54059" stroke-linecap="round" stroke-linejoin="round" />
<polyline points="106.96,61.601 107.4,61.601 107.84,61.601 108.28,61.637 108.72,61.672 109.17,61.53 109.61,61.565 110.05,61.601 110.49,61.565 110.93,61.601 111.37,61.565 111.81,61.601 112.26,61.601 112.7,63.631 113.14,62.278 113.58,64.273 114.02,63.311 114.46,63.311 114.9,64.843 115.35,65.412 115.79,65.056 116.23,64.522 116.67,63.916 117.11,63.596 117.55,65.626 117.99,63.703 118.44,64.166 118.88,64.166 119.32,64.664 119.76,63.631 120.2,64.878 120.64,64.094 121.08,63.703 121.53,63.489 121.97,63.916 122.41,64.023 122.85,63.988 123.29,65.021 123.73,64.344 124.17,63.916 124.62,64.985 125.06,63.56 125.5,65.591 125.94,63.738 126.38,65.412 126.82,63.916 127.26,63.916 127.71,64.201 128.15,66.98 128.59,65.412 129.03,65.056 129.47,67.835 129.91,67.443 130.35,63.56 130.8,69.153 131.24,68.191 131.68,64.308 132.12,64.166 132.56,63.881 133,65.626 133.44,64.415 133.89,63.596 134.33,63.703 134.77,64.059 135.21,64.593 135.65,63.881 136.09,64.237 136.53,66.944 136.98,64.415 137.42,65.27 137.86,64.13 138.3,65.769 138.74,63.738 139.18,64.558 139.62,63.845 140.07,64.593 140.51,64.237 140.95,64.237 141.39,64.558 141.83,65.056 142.27,65.056 142.71,64.593 143.16,64.522 143.6,64.736 144.04,63.916 144.48,66.944 144.92,65.448 145.36,65.448 145.8,64.237 146.25,64.166 146.69,63.204 147.13,64.486 147.57,64.736 148.01,63.667 148.45,64.451 148.89,64.985 149.34,67.372 149.78,65.27 150.22,72.394 150.66,67.265 151.1,66.588 151.54,66.374 151.98,67.585 152.43,65.056 152.87,63.774 153.31,66.125 153.75,63.774 154.19,64.771 154.63,65.127 155.07,65.163 155.52,64.451 155.96,67.585 156.4,65.092 156.84,64.593 157.28,65.591 157.72,64.273 158.16,64.273 158.61,64.949 159.05,65.377 159.49,63.845 159.93,64.486 160.37,64.059 160.81,64.13 161.25,65.769 161.7,63.24 162.14,63.916 162.58,64.914 163.02,64.273 163.46,65.021 163.9,64.344 164.34,64.593 164.79,64.237 165.23,63.703 165.67,64.094 166.11,63.988 166.55,63.774 166.99,65.056 167.43,63.916 167.88,65.341 168.32,65.626 168.76,63.774 169.2,63.81 169.64,64.486 170.08,64.949 170.52,64.023 170.97,64.13 171.41,63.703 171.85,63.738 172.29,65.412 172.73,64.344 173.17,64.273 173.61,64.949 174.06,65.591 174.5,65.127 174.94,65.519 175.38,65.519 175.82,63.774 176.26,64.736 176.7,63.56 177.15,63.703 177.59,64.201 178.03,63.667 178.47,64.201 178.91,64.522 179.35,64.201 179.79,64.985 180.24,63.988 180.68,63.845 181.12,64.237 181.56,63.881 182,64.914 182.44,64.023 182.88,64.451 183.33,64.273 183.77,63.952 184.21,63.988 184.65,63.916 185.09,63.916 185.53,65.163 185.97,63.988 186.42,63.845 186.86,63.952 187.3,63.916 187.74,64.237 188.18,63.988 188.62,65.591 189.06,63.988 189.51,63.881 189.95,64.664 190.39,64.273 190.83,64.166 191.27,64.771 191.71,63.988 192.15,63.988 192.6,64.094 193.04,66.837 193.48,64.308 193.92,65.412 194.36,64.593 194.8,64.059 195.24,64.273 195.69,64.237 196.13,63.881 196.57,63.988 197.01,64.166 197.45,64.736 197.89,63.81 198.33,63.774 198.78,63.952 199.22,63.988 199.66,63.774 200.1,63.916 200.54,63.952 200.98,63.56 201.42,63.881 201.87,64.094 202.31,64.13 202.75,63.596 203.19,63.845 203.63,63.489 204.07,63.667 204.51,64.023 204.96,64.059 205.4,64.023 205.84,64.059 206.28,63.703 206.72,63.988 207.16,64.023 207.61,63.774 208.05,63.916 208.49,64.094 208.93,64.023 209.37,63.738 209.81,64.094 210.25,63.774 210.7,64.308 211.14,63.952 211.58,63.988 212.02,64.415 212.46,64.344 212.9,64.094 213.34,64.023 213.79,64.415 214.23,64.023 214.67,63.667 215.11,63.881 215.55,64.843 215.99,64.736 216.43,63.81 216.88,65.804 217.32,65.555 217.76,64.985 218.2,63.667 218.64,64.486 219.08,64.166 219.52,64.344 219.97,64.486 220.41,64.308 220.85,63.988 221.29,63.988 221.73,63.881 222.17,65.804 222.61,64.201 223.06,64.237 223.5,63.988 223.94,63.667 224.38,64.201 224.82,64.13 225.26,64.7 225.7,65.697 226.15,63.881 226.59,65.626 227.03,64.415 227.47,64.237 227.91,64.023 228.35,65.27 228.79,63.952 229.24,64.344 229.68,64.985 230.12,63.952 230.56,64.807 231,66.339 231.44,64.166 231.88,63.988 232.33,65.234 232.77,63.596 233.21,64.201 233.65,64.201 234.09,63.774 234.53,64.593 234.97,64.7 235.42,64.201 235.86,65.056 236.3,64.949 236.74,65.377 237.18,64.094 237.62,64.415 238.06,63.667 238.51,64.629 238.95,64.308 239.39,64.023 239.83,64.629 240.27,64.486 240.71,64.629 241.15,65.092 241.6,64.629 242.04,64.308 242.48,67.55 242.92,64.415 243.36,64.807 243.8,63.703 244.24,64.201 244.69,63.881 245.13,64.094 245.57,64.059 246.01,64.166 246.45,63.916 246.89,63.916 247.33,64.13 247.78,64.771 248.22,64.451 248.66,63.631 249.1,63.703 249.54,64.344 249.98,64.308 250.42,63.703 250.87,64.451 251.31,64.094 251.75,65.163 252.19,64.914 252.63,65.626 253.07,64.094 253.51,64.949 253.96,64.664 254.4,63.774 254.84,64.023 255.28,64.201 255.72,64.415 256.16,63.56 256.6,64.486 257.05,64.201 257.49,63.738 257.93,63.916 258.37,64.023 258.81,64.344 259.25,65.199 259.69,67.158 260.14,66.908 260.58,65.947 261.02,68.761 261.46,72.679 261.9,67.229 262.34,70.649 262.78,69.438 263.23,73.427 263.67,72.643 264.11,69.046 264.55,69.616 264.99,69.224 265.43,68.583 265.87,67.835 266.32,66.267 266.76,67.835 267.2,76.882 267.64,73.961 268.08,70.827 268.52,67.336 268.96,66.695 269.41,67.977 269.85,66.802 270.29,71.183 270.73,69.01 271.17,71.183 271.61,70.079 272.05,82.012 272.5,67.728 272.94,74.496 273.38,70.399 273.82,71.61 274.26,70.791 274.7,70.613 275.14,67.941 275.59,69.224 276.03,70.506 276.47,68.903 276.91,67.621 277.35,71.61 277.79,74.531 278.23,69.224 278.68,70.72 279.12,71.824 279.56,70.221 280,74.246 280.44,73.926 280.88,72.786 281.32,72.18 281.77,70.613 282.21,70.791 282.65,74.781 283.09,68.298 283.53,69.972 283.97,71.753 284.41,76.027 284.86,73.712 285.3,82.617 285.74,73.285 286.18,77.381 286.62,73.32 287.06,73.498 287.5,73.534 287.95,74.175 288.39,73.035 288.83,70.364 289.27,71.468 289.71,73.142 290.15,72.038 290.59,76.277 291.04,72.323 291.48,70.328 291.92,73.641 292.36,71.29 292.8,77.488 293.24,71.753 293.68,72.608 294.13,70.399 294.57,70.114 295.01,72.038 295.45,68.761 295.89,70.969 296.33,70.506 296.77,68.547 297.22,71.86 297.66,70.257 298.1,75.92 298.54,67.941 298.98,71.219 299.42,66.552 299.86,68.939 300.31,71.931 300.75,68.903 301.19,67.265 301.63,70.435 302.07,70.292 302.51,69.865 302.95,68.226 303.4,79.554 303.84,72.287 304.28,67.585 304.72,71.325 305.16,68.013 305.6,71.147 306.04,74.389 306.49,69.188 306.93,70.613 307.37,75.351 307.81,69.438 308.25,71.076 308.69,71.076 309.13,70.043 309.58,73.855 310.02,68.583 310.46,70.577 310.9,71.183 311.34,69.295 311.78,68.868 312.22,67.55 312.67,68.654 313.11,71.931 313.55,67.193 313.99,69.259 314.43,68.048 314.87,68.547 315.31,68.084 315.76,67.977 316.2,68.974 316.64,69.473 317.08,70.756 317.52,70.684 317.96,71.005 318.4,69.865 318.85,73.035 319.29,69.687 319.73,67.229 320.17,69.651 320.61,69.295 321.05,69.473 321.49,71.361 321.94,70.577 322.38,73.997 322.82,68.44 323.26,72.287 323.7,71.29 324.14,66.552 324.58,69.723 325.03,68.476 325.47,71.219 325.91,69.829 326.35,68.974 326.79,66.517 327.23,76.277 " stroke="red" stroke-width="0.41876" />
<polyline points="327.23,76.277 327.67,69.331 328.12,67.051 328.56,67.478 329,74.318 329.44,67.372 329.88,68.618 330.32,69.438 330.77,70.72 331.21,69.081 331.65,69.117 332.09,70.435 332.53,72.038 332.97,74.318 333.41,69.117 333.86,77.702 334.3,69.366 334.74,69.936 335.18,73.463 335.62,70.791 336.06,70.186 336.5,76.027 336.95,71.432 337.39,68.868 337.83,70.007 338.27,69.366 338.71,73.035 339.15,68.832 339.59,69.758 340.04,86.001 340.48,78.165 340.92,88.245 341.36,75.707 341.8,72.928 342.24,73.427 342.68,73.463 343.13,88.744 343.57,74.353 344.01,73.463 344.45,80.587 344.89,74.496 345.33,74.923 345.77,78.093 346.22,75.066 346.66,87.283 347.1,81.37 347.54,74.923 347.98,74.46 348.42,73.961 348.86,77.88 349.31,75.422 349.75,89.064 350.19,69.188 350.63,74.104 351.07,76.811 351.51,72.109 351.95,88.53 352.4,86.714 352.84,91.807 353.28,89.848 353.72,98.29 354.16,87.711 354.6,89.563 355.04,102.78 355.49,82.582 355.93,117.35 356.37,101.32 356.81,110.29 357.25,116.46 357.69,101.03 358.13,88.637 358.58,95.619 359.02,107.52 359.46,93.695 359.9,89.563 360.34,85.039 360.78,89.777 361.22,107.3 361.67,107.55 362.11,82.047 362.55,111.97 362.99,84.363 363.43,127.29 363.87,118.1 364.31,82.546 364.76,72.073 365.2,83.757 365.64,95.12 366.08,118.27 366.52,91.309 366.96,96.865 367.4,94.728 367.85,85.609 368.29,91.736 368.73,90.561 369.17,84.469 369.61,98.682 370.05,109.19 370.49,88.138 370.94,83.472 371.38,100.07 371.82,89.67 372.26,108.09 372.7,126.61 373.14,101.6 373.58,115.92 374.03,195.14 374.47,89.67 374.91,105.66 375.35,111.01 375.79,108.44 376.23,99.216 376.67,89.777 377.12,108.19 377.56,97.4 378,97.4 378.44,79.768 378.88,147.84 379.32,190.19 379.76,115.49 380.21,122.19 380.65,79.874 381.09,99.929 381.53,105.38 381.97,126.11 382.41,95.334 382.85,92.84 383.3,110.76 383.74,108.91 384.18,100.43 384.62,82.582 385.06,82.297 385.5,113.22 385.94,111.83 386.39,92.947 386.83,88.495 387.27,90.311 387.71,95.476 388.15,92.911 388.59,90.418 389.03,118.84 389.48,76.953 389.92,103.67 390.36,135.16 390.8,93.838 391.24,79.162 391.68,93.054 392.12,89.456 392.57,107.59 393.01,87.747 393.45,115.07 393.89,85.039 394.33,140.25 394.77,130.95 395.21,113.46 395.66,91.415 396.1,113.68 396.54,127.5 396.98,123.33 397.42,108.69 397.86,86.215 398.3,92.876 398.75,131.95 399.19,91.772 399.63,131.38 400.07,89.349 400.51,112 400.95,82.403 401.39,89.563 401.84,89.528 402.28,91.95 402.72,85.111 403.16,104.42 403.6,97.613 404.04,103.24 404.48,103.21 404.93,109.72 405.37,107.69 405.81,92.84 406.25,94.443 406.69,102.07 407.13,103.17 407.57,94.301 408.02,125.08 408.46,89.919 408.9,94.728 409.34,98.183 409.78,116.24 410.22,105.73 410.66,76.277 411.11,124.58 411.55,104.38 411.99,95.69 412.43,98.611 412.87,95.084 413.31,88.779 413.75,86.144 414.2,83.793 414.64,102.24 415.08,82.724 415.52,99.466 415.96,85.111 416.4,93.766 416.84,86.642 417.29,77.132 417.73,92.627 418.17,98.29 418.61,83.65 419.05,82.546 419.49,84.184 419.93,99.751 420.38,122.19 420.82,102.42 421.26,93.196 421.7,103.63 422.14,95.583 422.58,129.07 423.02,108.69 423.47,102.46 423.91,114.68 424.35,117.85 424.79,93.268 425.23,104.84 425.67,97.756 426.11,93.481 426.56,110.01 427,119.7 427.44,113.29 427.88,159.74 428.32,144.53 428.76,115.92 429.2,109.3 429.65,147.02 430.09,125.61 430.53,110.83 430.97,117.95 431.41,170.92 431.85,150.37 432.29,115.53 432.74,108.83 433.18,86.144 433.62,121.48 434.06,94.372 434.5,99.074 434.94,91.807 435.38,111.33 435.83,145.31 436.27,106.98 436.71,115.82 437.15,95.619 437.59,102.28 438.03,133.02 438.47,118.49 438.92,138.15 439.36,121.48 439.8,147.66 440.24,126.89 440.68,88.281 441.12,101.64 441.56,99.216 442.01,115.57 442.45,127.14 442.89,125.15 443.33,120.27 443.77,106.23 444.21,94.728 444.65,103.17 445.1,136.62 445.54,88.601 445.98,107.98 446.42,92.662 446.86,78.165 447.3,79.661 447.74,145.52 448.19,80.266 448.63,129.35 449.07,127.14 449.51,127.64 449.95,117.81 450.39,114.46 450.83,192.65 451.28,116.96 451.72,98.255 452.16,166.18 452.6,104.2 453.04,131.2 453.48,107.37 453.93,99.43 454.37,113.22 454.81,102.39 455.25,91.594 455.69,97.257 456.13,120.16 456.57,93.695 457.02,104.77 457.46,124.12 457.9,194.89 458.34,149.65 458.78,137.79 459.22,92.163 459.66,104.35 460.11,125.58 460.55,113.43 460.99,104.95 461.43,86.963 461.87,101.32 462.31,95.69 462.75,122.48 463.2,101.71 463.64,99.822 464.08,142.57 464.52,91.095 464.96,117.24 465.4,85.004 465.84,102.99 466.29,121.98 466.73,94.621 467.17,85.859 467.61,130.49 468.05,101.18 468.49,95.476 468.93,99.109 469.38,117.53 469.82,110.33 470.26,93.054 470.7,109.87 471.14,105.34 471.58,94.728 472.02,87.782 472.47,116.49 472.91,105.88 473.35,88.459 473.79,97.364 474.23,84.79 474.67,97.186 475.11,81.655 475.56,104.45 476,84.968 476.44,127.07 476.88,78.022 477.32,87.141 477.76,124.83 478.2,85.894 478.65,112.5 479.09,90.739 479.53,100.96 479.97,93.944 480.41,96.972 480.85,95.619 481.29,113.79 481.74,155.35 482.18,113.68 482.62,137.29 483.06,101.07 483.5,83.615 483.94,110.65 484.38,99.573 484.83,85.431 485.27,96.295 485.71,116.85 486.15,157.92 486.59,129.24 487.03,97.97 487.47,88.637 487.92,122.62 488.36,93.66 488.8,82.938 489.24,83.65 489.68,82.403 490.12,93.873 490.56,81.228 491.01,81.798 491.45,83.116 491.89,74.175 492.33,72.358 492.77,70.862 493.21,75.849 493.65,94.336 494.1,88.566 494.54,86.749 494.98,91.772 495.42,104.95 495.86,95.12 496.3,93.66 496.74,92.377 497.19,105.31 497.63,125.04 498.07,92.627 498.51,95.084 498.95,114.03 499.39,88.352 499.83,97.756 500.28,103.28 500.72,155.28 501.16,95.262 501.6,92.021 502.04,99.751 502.48,108.19 502.92,96.687 503.37,77.345 503.81,125.97 504.25,98.361 504.69,89.991 505.13,94.336 505.57,91.558 506.01,90.133 506.46,102.28 506.9,137.12 507.34,122.94 507.78,101.39 508.22,110.79 508.66,111.18 509.1,112.97 509.55,110.37 509.99,91.487 510.43,91.166 510.87,95.547 511.31,99.644 511.75,101.25 512.19,108.05 512.64,100.5 513.08,200.98 513.52,127.64 513.96,106.23 514.4,102.67 514.84,130.95 515.28,148.12 515.73,137.12 516.17,110.26 516.61,129.56 517.05,216.69 517.49,212.95 517.93,84.184 518.37,195.36 518.82,173.66 519.26,118.56 519.7,117.42 520.14,250.43 520.58,231.26 521.02,146.56 521.46,116.78 521.91,145.95 522.35,128.71 522.79,167 523.23,179.54 523.67,132.84 524.11,124.68 524.55,208.25 525,167.07 525.44,108.91 525.88,130.6 526.32,109.87 526.76,109.37 527.2,115.21 527.64,130.95 528.09,125.58 528.53,154.78 528.97,107.34 529.41,111.15 529.85,143.85 530.29,118.81 530.73,107.66 531.18,123.4 531.62,103.53 532.06,142 532.5,105.98 532.94,97.507 533.38,101.82 533.82,102.17 534.27,119.98 534.71,126.54 535.15,86.927 535.59,105.27 536.03,123.72 536.47,141.53 536.91,109.55 537.36,152.75 537.8,91.487 538.24,123.76 538.68,124.04 539.12,92.235 539.56,190.33 540,118.88 540.45,115.96 540.89,123.69 541.33,183.21 541.77,164.94 542.21,127.11 542.65,240.27 543.09,128.43 543.54,171.45 543.98,152.08 544.42,119.34 544.86,254.95 545.3,204.9 545.74,101.75 546.18,177.26 546.63,211.49 547.07,238.64 547.51,144.74 " stroke="red" stroke-width="0.41876" />
<line x1="547.51" y1="144.74" x2="547.95" y2="144.99" stroke="red" stroke-width="0.41876" />
<polyline points="106.96,61.227 107.4,61.249 107.84,61.247 108.28,61.266 108.72,61.232 109.17,61.241 109.61,61.23 110.05,61.249 110.49,61.261 110.93,61.251 111.37,61.258 111.81,61.233 112.26,61.25 112.7,61.295 113.14,61.306 113.58,61.346 114.02,61.394 114.46,61.383 114.9,61.615 115.35,61.708 115.79,61.721 116.23,61.616 116.67,61.577 117.11,61.71 117.55,61.718 117.99,61.797 118.44,61.88 118.88,61.71 119.32,61.814 119.76,61.674 120.2,61.821 120.64,61.712 121.08,61.715 121.53,61.73 121.97,61.785 122.41,61.922 122.85,61.618 123.29,61.957 123.73,61.891 124.17,61.842 124.62,61.78 125.06,61.69 125.5,61.882 125.94,61.619 126.38,61.897 126.82,61.781 127.26,61.767 127.71,61.812 128.15,61.799 128.59,61.892 129.03,61.674 129.47,61.898 129.91,61.839 130.35,61.841 130.8,61.867 131.24,61.908 131.68,61.762 132.12,61.871 132.56,61.846 133,61.861 133.44,61.89 133.89,61.817 134.33,61.78 134.77,61.883 135.21,61.835 135.65,61.652 136.09,61.794 136.53,61.799 136.98,62.024 137.42,61.863 137.86,61.89 138.3,61.682 138.74,61.571 139.18,61.788 139.62,61.69 140.07,61.851 140.51,61.763 140.95,61.768 141.39,61.763 141.83,61.767 142.27,61.683 142.71,61.802 143.16,61.656 143.6,61.716 144.04,61.776 144.48,61.87 144.92,61.799 145.36,61.68 145.8,61.688 146.25,61.76 146.69,61.642 147.13,61.762 147.57,61.646 148.01,61.598 148.45,61.792 148.89,61.809 149.34,61.82 149.78,61.943 150.22,61.891 150.66,62.071 151.1,62.078 151.54,61.958 151.98,61.858 152.43,61.86 152.87,61.818 153.31,61.811 153.75,61.66 154.19,61.815 154.63,61.744 155.07,61.75 155.52,61.726 155.96,61.91 156.4,61.882 156.84,61.73 157.28,61.85 157.72,61.829 158.16,61.756 158.61,61.756 159.05,61.79 159.49,61.896 159.93,61.871 160.37,61.734 160.81,61.757 161.25,61.856 161.7,61.714 162.14,61.782 162.58,62.002 163.02,61.926 163.46,61.861 163.9,61.858 164.34,61.818 164.79,61.883 165.23,61.801 165.67,61.958 166.11,61.882 166.55,61.963 166.99,61.783 167.43,61.997 167.88,62.038 168.32,61.977 168.76,61.85 169.2,61.887 169.64,61.88 170.08,61.916 170.52,61.809 170.97,61.91 171.41,61.808 171.85,61.908 172.29,61.988 172.73,61.838 173.17,61.903 173.61,61.777 174.06,61.936 174.5,61.843 174.94,61.825 175.38,61.854 175.82,61.779 176.26,61.965 176.7,61.716 177.15,61.738 177.59,61.988 178.03,61.876 178.47,62.061 178.91,62.022 179.35,61.884 179.79,62.04 180.24,61.971 180.68,61.978 181.12,62.03 181.56,61.913 182,62.025 182.44,61.955 182.88,61.975 183.33,61.833 183.77,61.88 184.21,62.004 184.65,61.801 185.09,62.114 185.53,62.012 185.97,61.909 186.42,61.933 186.86,61.954 187.3,61.978 187.74,61.919 188.18,61.864 188.62,61.902 189.06,62.01 189.51,61.788 189.95,62.014 190.39,61.934 190.83,61.916 191.27,61.952 191.71,61.806 192.15,62.007 192.6,61.9 193.04,62.122 193.48,61.907 193.92,61.936 194.36,61.922 194.8,61.987 195.24,61.819 195.69,61.859 196.13,62.002 196.57,61.998 197.01,61.902 197.45,61.931 197.89,61.796 198.33,61.946 198.78,61.944 199.22,61.804 199.66,61.83 200.1,61.986 200.54,61.915 200.98,61.922 201.42,61.973 201.87,61.96 202.31,61.991 202.75,61.955 203.19,61.958 203.63,61.9 204.07,61.841 204.51,61.988 204.96,61.963 205.4,61.926 205.84,61.902 206.28,61.976 206.72,61.962 207.16,61.855 207.61,62.059 208.05,61.922 208.49,61.916 208.93,61.946 209.37,61.898 209.81,62.089 210.25,61.867 210.7,62.007 211.14,62.026 211.58,61.939 212.02,61.954 212.46,61.934 212.9,61.952 213.34,61.934 213.79,61.884 214.23,61.825 214.67,61.896 215.11,62.029 215.55,61.861 215.99,62.064 216.43,61.911 216.88,61.906 217.32,61.809 217.76,61.815 218.2,61.818 218.64,61.843 219.08,61.927 219.52,62.006 219.97,61.938 220.41,61.887 220.85,61.831 221.29,61.908 221.73,61.946 222.17,62.031 222.61,61.91 223.06,61.973 223.5,61.963 223.94,61.832 224.38,61.928 224.82,61.939 225.26,62.097 225.7,62.047 226.15,61.977 226.59,61.952 227.03,61.999 227.47,61.919 227.91,61.963 228.35,61.983 228.79,61.917 229.24,61.984 229.68,61.931 230.12,61.882 230.56,62.158 231,61.936 231.44,61.848 231.88,61.878 232.33,62.015 232.77,62.019 233.21,61.904 233.65,61.895 234.09,61.771 234.53,61.924 234.97,62.091 235.42,62.119 235.86,62.08 236.3,62.074 236.74,61.859 237.18,61.973 237.62,62.204 238.06,61.803 238.51,61.914 238.95,61.81 239.39,62.024 239.83,61.88 240.27,61.985 240.71,61.887 241.15,62.114 241.6,61.961 242.04,62.174 242.48,62.082 242.92,62.023 243.36,61.99 243.8,62.022 244.24,62.206 244.69,62.089 245.13,62.044 245.57,62.056 246.01,61.951 246.45,62.064 246.89,62.022 247.33,62.024 247.78,62.028 248.22,62.018 248.66,61.883 249.1,61.856 249.54,62.084 249.98,62.161 250.42,61.915 250.87,61.926 251.31,62.001 251.75,61.989 252.19,61.988 252.63,62.071 253.07,61.895 253.51,62.003 253.96,61.973 254.4,61.974 254.84,61.994 255.28,62.019 255.72,61.806 256.16,61.643 256.6,61.817 257.05,62.012 257.49,62.084 257.93,61.852 258.37,61.982 258.81,62.017 259.25,62.16 259.69,62.128 260.14,62.271 260.58,62.269 261.02,62.491 261.46,62.384 261.9,62.435 262.34,62.209 262.78,62.29 263.23,62.757 263.67,62.447 264.11,62.433 264.55,62.703 264.99,62.835 265.43,62.393 265.87,62.51 266.32,62.321 266.76,62.17 267.2,62.784 267.64,62.615 268.08,62.331 268.52,62.412 268.96,62.49 269.41,62.452 269.85,62.585 270.29,62.398 270.73,62.704 271.17,62.347 271.61,62.383 272.05,62.294 272.5,62.337 272.94,62.438 273.38,62.775 273.82,62.616 274.26,62.283 274.7,62.324 275.14,62.426 275.59,62.562 276.03,62.544 276.47,62.474 276.91,62.569 277.35,62.581 277.79,63.149 278.23,62.535 278.68,62.616 279.12,62.707 279.56,62.549 280,63.373 280.44,63.097 280.88,62.711 281.32,62.929 281.77,62.63 282.21,62.428 282.65,62.632 283.09,62.439 283.53,62.757 283.97,62.945 284.41,63.284 284.86,62.645 285.3,62.795 285.74,62.708 286.18,63.086 286.62,62.495 287.06,62.565 287.5,62.547 287.95,62.713 288.39,62.907 288.83,62.472 289.27,62.987 289.71,62.682 290.15,63.227 290.59,62.83 291.04,62.974 291.48,63.045 291.92,62.925 292.36,62.59 292.8,62.732 293.24,62.516 293.68,62.925 294.13,63.043 294.57,63.023 295.01,62.538 295.45,62.551 295.89,62.808 296.33,62.734 296.77,62.396 297.22,62.905 297.66,62.902 298.1,62.939 298.54,62.514 298.98,62.645 299.42,62.45 299.86,62.413 300.31,62.546 300.75,62.114 301.19,62.597 301.63,62.695 302.07,62.367 302.51,62.373 302.95,62.571 303.4,62.726 303.84,62.562 304.28,62.285 304.72,62.367 305.16,62.516 305.6,62.583 306.04,62.614 306.49,62.627 306.93,62.389 307.37,62.433 307.81,62.453 308.25,62.535 308.69,62.757 309.13,62.723 309.58,62.794 310.02,62.533 310.46,62.461 310.9,62.466 311.34,62.346 311.78,62.198 312.22,62.508 312.67,62.496 313.11,62.444 313.55,62.685 313.99,62.429 314.43,62.411 314.87,62.331 315.31,62.642 315.76,62.614 316.2,62.654 316.64,62.921 317.08,62.741 317.52,62.983 317.96,63.053 318.4,63.031 318.85,62.887 319.29,62.302 319.73,62.405 320.17,62.338 320.61,62.721 321.05,62.456 321.49,62.723 321.94,63.014 322.38,62.889 322.82,62.753 323.26,62.734 323.7,63.073 324.14,63.055 324.58,62.376 325.03,62.553 325.47,62.767 325.91,62.632 326.35,62.503 326.79,62.522 327.23,62.481 " stroke="blue" stroke-width="0.41876" />
<polyline points="327.23,62.481 327.67,62.444 328.12,62.254 328.56,62.687 329,62.821 329.44,62.499 329.88,62.476 330.32,62.658 330.77,62.673 331.21,62.435 331.65,62.777 332.09,62.389 332.53,62.485 332.97,62.572 333.41,62.634 333.86,62.751 334.3,62.571 334.74,62.629 335.18,62.892 335.62,62.806 336.06,62.896 336.5,62.829 336.95,62.742 337.39,62.717 337.83,62.843 338.27,62.58 338.71,62.387 339.15,62.514 339.59,62.877 340.04,63.279 340.48,63.379 340.92,63.129 341.36,63.255 341.8,63.14 342.24,62.689 342.68,62.413 343.13,62.959 343.57,62.974 344.01,62.56 344.45,63.124 344.89,62.854 345.33,63.068 345.77,63.275 346.22,63.378 346.66,63.503 347.1,63.16 347.54,62.977 347.98,63.115 348.42,63.335 348.86,63.069 349.31,62.872 349.75,63.161 350.19,62.215 350.63,62.981 351.07,62.633 351.51,62.929 351.95,63.084 352.4,63.562 352.84,63.566 353.28,64.343 353.72,63.728 354.16,63.483 354.6,64.153 355.04,64.746 355.49,63.683 355.93,65.038 356.37,64.882 356.81,64.622 357.25,66.13 357.69,64.703 358.13,63.895 358.58,65.139 359.02,63.735 359.46,63.901 359.9,63.618 360.34,64.115 360.78,63.942 361.22,63.865 361.67,64.275 362.11,63.431 362.55,63.904 362.99,63.777 363.43,64.434 363.87,63.573 364.31,63.205 364.76,62.986 365.2,63.177 365.64,63.938 366.08,64.486 366.52,63.668 366.96,64.494 367.4,63.935 367.85,63.619 368.29,63.942 368.73,64.2 369.17,64.086 369.61,64.279 370.05,65.018 370.49,63.405 370.94,63.885 371.38,63.803 371.82,64.511 372.26,64.184 372.7,65.691 373.14,65.368 373.58,65.375 374.03,67.877 374.47,64.298 374.91,64.47 375.35,65.817 375.79,64.904 376.23,64.687 376.67,63.904 377.12,63.605 377.56,63.085 378,64.244 378.44,63.662 378.88,64.652 379.32,66.238 379.76,63.834 380.21,65.727 380.65,63.364 381.09,63.67 381.53,64.748 381.97,64.818 382.41,65.113 382.85,63.436 383.3,64.181 383.74,64.268 384.18,64.913 384.62,63.915 385.06,63.664 385.5,64.383 385.94,64.49 386.39,63.593 386.83,64.345 387.27,64.838 387.71,64.938 388.15,63.369 388.59,63.782 389.03,64.571 389.48,63.719 389.92,64.19 390.36,64.819 390.8,64.088 391.24,63.544 391.68,63.663 392.12,63.017 392.57,64.361 393.01,63.647 393.45,65.304 393.89,63.366 394.33,64.181 394.77,64.053 395.21,64.609 395.66,64.239 396.1,64.58 396.54,64.803 396.98,64.932 397.42,63.941 397.86,63.48 398.3,64.151 398.75,65.047 399.19,63.492 399.63,64.124 400.07,63.128 400.51,64.124 400.95,63.698 401.39,62.959 401.84,63.779 402.28,62.488 402.72,62.684 403.16,63.698 403.6,64.467 404.04,63.949 404.48,64.434 404.93,65.433 405.37,64.862 405.81,63.622 406.25,63.17 406.69,63.748 407.13,64.631 407.57,64.028 408.02,64.163 408.46,64.947 408.9,63.987 409.34,64.786 409.78,65.296 410.22,65.39 410.66,63.505 411.11,64.832 411.55,64.706 411.99,63.898 412.43,64.047 412.87,64.904 413.31,64.115 413.75,64.186 414.2,63.6 414.64,63.333 415.08,63.719 415.52,64.231 415.96,64.365 416.4,63.829 416.84,63.736 417.29,63.4 417.73,64.066 418.17,64.574 418.61,63.464 419.05,63.473 419.49,64.149 419.93,63.5 420.38,64.644 420.82,64.133 421.26,63.677 421.7,64.952 422.14,64.377 422.58,65.459 423.02,65.457 423.47,64.158 423.91,64.52 424.35,64.753 424.79,63.861 425.23,64.484 425.67,64.601 426.11,64.342 426.56,65.909 427,66.59 427.44,66.56 427.88,67.95 428.32,65.142 428.76,65.43 429.2,65.406 429.65,66.703 430.09,67.034 430.53,66.771 430.97,65.272 431.41,68.892 431.85,66.229 432.29,66.167 432.74,65.223 433.18,64.133 433.62,65.066 434.06,63.908 434.5,64.871 434.94,64.01 435.38,64.295 435.83,65.626 436.27,65.098 436.71,65.125 437.15,64.597 437.59,64.675 438.03,65.047 438.47,65.727 438.92,66.935 439.36,64.787 439.8,66.33 440.24,65.667 440.68,63.832 441.12,64.338 441.56,64.233 442.01,65.411 442.45,65.969 442.89,65.522 443.33,65.204 443.77,64.523 444.21,64.275 444.65,64.046 445.1,64.517 445.54,64.612 445.98,64.873 446.42,64.254 446.86,63.59 447.3,63.522 447.74,64.729 448.19,63.226 448.63,64.51 449.07,65.339 449.51,65.016 449.95,65.187 450.39,64.407 450.83,66.387 451.28,66.4 451.72,65.807 452.16,66.917 452.6,64.468 453.04,65.134 453.48,65.079 453.93,65.242 454.37,65.826 454.81,64.002 455.25,64.763 455.69,64.682 456.13,65.219 456.57,65.951 457.02,65.2 457.46,67.312 457.9,66.156 458.34,67.516 458.78,66.642 459.22,65.427 459.66,64.75 460.11,65.847 460.55,66.42 460.99,65.026 461.43,64.13 461.87,64.36 462.31,64.337 462.75,65.68 463.2,64.018 463.64,65.103 464.08,66.21 464.52,64.232 464.96,64.45 465.4,63.291 465.84,64.159 466.29,65.88 466.73,64.413 467.17,63.857 467.61,64.655 468.05,65.309 468.49,64.526 468.93,65.311 469.38,66.129 469.82,66.152 470.26,64.215 470.7,65.704 471.14,64.871 471.58,64.936 472.02,64.691 472.47,65.229 472.91,65.224 473.35,64.446 473.79,63.824 474.23,64.187 474.67,64.719 475.11,64.181 475.56,64.282 476,64.493 476.44,65.876 476.88,63.934 477.32,63.788 477.76,64.986 478.2,64.222 478.65,65.127 479.09,64.326 479.53,64.684 479.97,64.54 480.41,63.954 480.85,64.147 481.29,64.823 481.74,65.116 482.18,65.742 482.62,63.939 483.06,64.581 483.5,63.303 483.94,63.926 484.38,64.73 484.83,63.572 485.27,64.175 485.71,64.171 486.15,64.687 486.59,65.805 487.03,65.054 487.47,63.512 487.92,64.294 488.36,64.088 488.8,63.188 489.24,63.566 489.68,63.852 490.12,63.725 490.56,63.411 491.01,62.926 491.45,63.407 491.89,62.904 492.33,62.661 492.77,63.195 493.21,63.08 493.65,63.652 494.1,63.449 494.54,63.539 494.98,63.608 495.42,63.471 495.86,64.248 496.3,63.732 496.74,63.366 497.19,64.22 497.63,65.054 498.07,63.875 498.51,63.927 498.95,63.721 499.39,63.599 499.83,63.758 500.28,63.949 500.72,64.976 501.16,63.878 501.6,63.675 502.04,64.67 502.48,64.528 502.92,63.976 503.37,62.961 503.81,64.01 504.25,63.34 504.69,64.035 505.13,63.996 505.57,64.008 506.01,64.584 506.46,63.753 506.9,65.058 507.34,64.569 507.78,64.91 508.22,65.036 508.66,64.605 509.1,64.146 509.55,66.383 509.99,64.176 510.43,64.285 510.87,64.876 511.31,65.065 511.75,64.698 512.19,65.07 512.64,64.514 513.08,68.034 513.52,65.122 513.96,63.936 514.4,64.164 514.84,66.58 515.28,66.837 515.73,66.632 516.17,64.777 516.61,66.003 517.05,67.265 517.49,67.629 517.93,63.341 518.37,68.397 518.82,65.864 519.26,64.665 519.7,66.039 520.14,67.851 520.58,68.856 521.02,67.513 521.46,66.295 521.91,66.075 522.35,66.854 522.79,66.572 523.23,66.526 523.67,65.444 524.11,64.294 524.55,67.381 525,66.515 525.44,66.377 525.88,67.578 526.32,64.518 526.76,65.111 527.2,67.777 527.64,67.306 528.09,66.423 528.53,68.146 528.97,66.612 529.41,67.559 529.85,66.977 530.29,66.599 530.73,65.818 531.18,65.887 531.62,65.208 532.06,65.066 532.5,64.803 532.94,65.457 533.38,65.162 533.82,66.227 534.27,65.618 534.71,64.979 535.15,64.823 535.59,65.884 536.03,65.362 536.47,65.155 536.91,63.948 537.36,64.586 537.8,63.614 538.24,65.651 538.68,65.451 539.12,63.288 539.56,66.014 540,64.247 540.45,64.475 540.89,65.798 541.33,67.285 541.77,67.654 542.21,67.152 542.65,67.954 543.09,68.762 543.54,66.795 543.98,67.661 544.42,64.313 544.86,67.267 545.3,68.105 545.74,66.051 546.18,67.767 546.63,69.279 547.07,68.66 547.51,66.591 " stroke="blue" stroke-width="0.41876" />
<line x1="547.51" y1="66.591" x2="547.95" y2="67.567" stroke="blue" stroke-width="0.41876" />
<line x1="570" y1="53.8" x2="566.86" y2="53.8" stroke-width="0.70588" />
<line x1="570" y1="60.924" x2="566.86" y2="60.924" stroke-width="0.70588" />
<line x1="570" y1="68.048" x2="566.86" y2="68.048" stroke-width="0.70588" />
<line x1="570" y1="75.172" x2="566.86" y2="75.172" stroke-width="0.70588" />
<line x1="570" y1="82.297" x2="566.86" y2="82.297" stroke-width="0.70588" />
<line x1="570" y1="89.421" x2="566.86" y2="89.421" stroke-width="0.70588" />
<line x1="570" y1="96.545" x2="566.86" y2="96.545" stroke-width="0.70588" />
<line x1="570" y1="103.67" x2="566.86" y2="103.67" stroke-width="0.70588" />
<line x1="570" y1="110.79" x2="566.86" y2="110.79" stroke-width="0.70588" />
<line x1="570" y1="117.92" x2="566.86" y2="117.92" stroke-width="0.70588" />
<line x1="570" y1="125.04" x2="566.86" y2="125.04" stroke-width="0.70588" />
<line x1="570" y1="132.17" x2="566.86" y2="132.17" stroke-width="0.70588" />
<line x1="570" y1="139.29" x2="566.86" y2="139.29" stroke-width="0.70588" />
<line x1="570" y1="146.41" x2="566.86" y2="146.41" stroke-width="0.70588" />
<line x1="570" y1="153.54" x2="566.86" y2="153.54" stroke-width="0.70588" />
<line x1="570" y1="160.66" x2="566.86" y2="160.66" stroke-width="0.70588" />
<line x1="570" y1="167.79" x2="566.86" y2="167.79" stroke-width="0.70588" />
<line x1="570" y1="174.91" x2="566.86" y2="174.91" stroke-width="0.70588" />
<line x1="570" y1="182.03" x2="566.86" y2="182.03" stroke-width="0.70588" />
<line x1="570" y1="189.16" x2="566.86" y2="189.16" stroke-width="0.70588" />
<line x1="570" y1="196.28" x2="566.86" y2="196.28" stroke-width="0.70588" />
<line x1="570" y1="203.41" x2="566.86" y2="203.41" stroke-width="0.70588" />
<line x1="570" y1="210.53" x2="566.86" y2="210.53" stroke-width="0.70588" />
<line x1="570" y1="217.65" x2="566.86" y2="217.65" stroke-width="0.70588" />
<line x1="570" y1="224.78" x2="566.86" y2="224.78" stroke-width="0.70588" />
<line x1="570" y1="231.9" x2="566.86" y2="231.9" stroke-width="0.70588" />
<line x1="570" y1="239.03" x2="566.86" y2="239.03" stroke-width="0.70588" />
<line x1="570" y1="246.15" x2="566.86" y2="246.15" stroke-width="0.70588" />
<line x1="570" y1="253.28" x2="566.86" y2="253.28" stroke-width="0.70588" />
<line x1="570" y1="260.4" x2="566.86" y2="260.4" stroke-width="0.70588" />
<line x1="570" y1="60.924" x2="563.72" y2="60.924" stroke-width="0.70588" />
<line x1="570" y1="96.545" x2="563.72" y2="96.545" stroke-width="0.70588" />
<line x1="570" y1="132.17" x2="563.72" y2="132.17" stroke-width="0.70588" />
<line x1="570" y1="167.79" x2="563.72" y2="167.79" stroke-width="0.70588" />
<line x1="570" y1="203.41" x2="563.72" y2="203.41" stroke-width="0.70588" />
<line x1="570" y1="239.03" x2="563.72" y2="239.03" stroke-width="0.70588" />
<line x1="570" y1="51.541" x2="570" y2="264.64" stroke-width="0.70588" />
<line x1="106.96" y1="264.64" x2="106.96" y2="261.49" stroke-width="0.70588" />
<line x1="129.03" y1="264.64" x2="129.03" y2="261.49" stroke-width="0.70588" />
<line x1="151.1" y1="264.64" x2="151.1" y2="261.49" stroke-width="0.70588" />
<line x1="173.17" y1="264.64" x2="173.17" y2="261.49" stroke-width="0.70588" />
<line x1="195.24" y1="264.64" x2="195.24" y2="261.49" stroke-width="0.70588" />
<line x1="217.32" y1="264.64" x2="217.32" y2="261.49" stroke-width="0.70588" />
<line x1="239.39" y1="264.64" x2="239.39" y2="261.49" stroke-width="0.70588" />
<line x1="261.46" y1="264.64" x2="261.46" y2="261.49" stroke-width="0.70588" />
<line x1="283.53" y1="264.64" x2="283.53" y2="261.49" stroke-width="0.70588" />
<line x1="305.6" y1="264.64" x2="305.6" y2="261.49" stroke-width="0.70588" />
<line x1="327.67" y1="264.64" x2="327.67" y2="261.49" stroke-width="0.70588" />
<line x1="349.75" y1="264.64" x2="349.75" y2="261.49" stroke-width="0.70588" />
<line x1="371.82" y1="264.64" x2="371.82" y2="261.49" stroke-width="0.70588" />
<line x1="393.89" y1="264.64" x2="393.89" y2="261.49" stroke-width="0.70588" />
<line x1="415.96" y1="264.64" x2="415.96" y2="261.49" stroke-width="0.70588" />
<line x1="438.03" y1="264.64" x2="438.03" y2="261.49" stroke-width="0.70588" />
<line x1="460.11" y1="264.64" x2="460.11" y2="261.49" stroke-width="0.70588" />
<line x1="482.18" y1="264.64" x2="482.18" y2="261.49" stroke-width="0.70588" />
<line x1="504.25" y1="264.64" x2="504.25" y2="261.49" stroke-width="0.70588" />
<line x1="526.32" y1="264.64" x2="526.32" y2="261.49" stroke-width="0.70588" />
<line x1="548.39" y1="264.64" x2="548.39" y2="261.49" stroke-width="0.70588" />
<line x1="106.96" y1="264.64" x2="106.96" y2="258.35" stroke-width="0.70588" />
<line x1="195.24" y1="264.64" x2="195.24" y2="258.35" stroke-width="0.70588" />
<line x1="283.53" y1="264.64" x2="283.53" y2="258.35" stroke-width="0.70588" />
<line x1="371.82" y1="264.64" x2="371.82" y2="258.35" stroke-width="0.70588" />
<line x1="460.11" y1="264.64" x2="460.11" y2="258.35" stroke-width="0.70588" />
<line x1="548.39" y1="264.64" x2="548.39" y2="258.35" stroke-width="0.70588" />
<line x1="84.909" y1="264.64" x2="570" y2="264.64" stroke-width="0.70588" />
<line x1="84.909" y1="53.8" x2="88.049" y2="53.8" stroke-width="0.70588" />
<line x1="84.909" y1="60.924" x2="88.049" y2="60.924" stroke-width="0.70588" />
<line x1="84.909" y1="68.048" x2="88.049" y2="68.048" stroke-width="0.70588" />
<line x1="84.909" y1="75.172" x2="88.049" y2="75.172" stroke-width="0.70588" />
<line x1="84.909" y1="82.297" x2="88.049" y2="82.297" stroke-width="0.70588" />
<line x1="84.909" y1="89.421" x2="88.049" y2="89.421" stroke-width="0.70588" />
<line x1="84.909" y1="96.545" x2="88.049" y2="96.545" stroke-width="0.70588" />
<line x1="84.909" y1="103.67" x2="88.049" y2="103.67" stroke-width="0.70588" />
<line x1="84.909" y1="110.79" x2="88.049" y2="110.79" stroke-width="0.70588" />
<line x1="84.909" y1="117.92" x2="88.049" y2="117.92" stroke-width="0.70588" />
<line x1="84.909" y1="125.04" x2="88.049" y2="125.04" stroke-width="0.70588" />
<line x1="84.909" y1="132.17" x2="88.049" y2="132.17" stroke-width="0.70588" />
<line x1="84.909" y1="139.29" x2="88.049" y2="139.29" stroke-width="0.70588" />
<line x1="84.909" y1="146.41" x2="88.049" y2="146.41" stroke-width="0.70588" />
<line x1="84.909" y1="153.54" x2="88.049" y2="153.54" stroke-width="0.70588" />
<line x1="84.909" y1="160.66" x2="88.049" y2="160.66" stroke-width="0.70588" />
<line x1="84.909" y1="167.79" x2="88.049" y2="167.79" stroke-width="0.70588" />
<line x1="84.909" y1="174.91" x2="88.049" y2="174.91" stroke-width="0.70588" />
<line x1="84.909" y1="182.03" x2="88.049" y2="182.03" stroke-width="0.70588" />
<line x1="84.909" y1="189.16" x2="88.049" y2="189.16" stroke-width="0.70588" />
<line x1="84.909" y1="196.28" x2="88.049" y2="196.28" stroke-width="0.70588" />
<line x1="84.909" y1="203.41" x2="88.049" y2="203.41" stroke-width="0.70588" />
<line x1="84.909" y1="210.53" x2="88.049" y2="210.53" stroke-width="0.70588" />
<line x1="84.909" y1="217.65" x2="88.049" y2="217.65" stroke-width="0.70588" />
<line x1="84.909" y1="224.78" x2="88.049" y2="224.78" stroke-width="0.70588" />
<line x1="84.909" y1="231.9" x2="88.049" y2="231.9" stroke-width="0.70588" />
<line x1="84.909" y1="239.03" x2="88.049" y2="239.03" stroke-width="0.70588" />
<line x1="84.909" y1="246.15" x2="88.049" y2="246.15" stroke-width="0.70588" />
<line x1="84.909" y1="253.28" x2="88.049" y2="253.28" stroke-width="0.70588" />
<line x1="84.909" y1="260.4" x2="88.049" y2="260.4" stroke-width="0.70588" />
<line x1="84.909" y1="60.924" x2="91.19" y2="60.924" stroke-width="0.70588" />
<line x1="84.909" y1="96.545" x2="91.19" y2="96.545" stroke-width="0.70588" />
<line x1="84.909" y1="132.17" x2="91.19" y2="132.17" stroke-width="0.70588" />
<line x1="84.909" y1="167.79" x2="91.19" y2="167.79" stroke-width="0.70588" />
<line x1="84.909" y1="203.41" x2="91.19" y2="203.41" stroke-width="0.70588" />
<line x1="84.909" y1="239.03" x2="91.19" y2="239.03" stroke-width="0.70588" />
<line x1="84.909" y1="51.541" x2="84.909" y2="264.64" stroke-width="0.70588" />
<polygon points="74.439,65.493 73.297,65.112 72.536,63.97 72.155,62.066 72.155,60.924 72.536,59.021 73.297,57.879 74.439,57.498 75.201,57.498 76.343,57.879 77.104,59.021 77.485,60.924 77.485,62.066 77.104,63.97 76.343,65.112 75.201,65.493 " stroke-width="0.54059" stroke-linejoin="round" />
<polyline points="50.456,99.59 51.217,99.971 52.359,101.11 52.359,93.119 " stroke-width="0.54059" stroke-linecap="round" stroke-linejoin="round" />
<polygon points="59.212,101.11 58.07,100.73 57.308,99.59 56.927,97.687 56.927,96.545 57.308,94.641 58.07,93.499 59.212,93.119 59.973,93.119 61.115,93.499 61.876,94.641 62.257,96.545 62.257,97.687 61.876,99.59 61.115,100.73 59.973,101.11 " stroke-width="0.54059" stroke-linejoin="round" />
<polygon points="66.825,101.11 65.683,100.73 64.922,99.59 64.541,97.687 64.541,96.545 64.922,94.641 65.683,93.499 66.825,93.119 67.587,93.119 68.729,93.499 69.49,94.641 69.871,96.545 69.871,97.687 69.49,99.59 68.729,100.73 67.587,101.11 " stroke-width="0.54059" stroke-linejoin="round" />
<polygon points="74.439,101.11 73.297,100.73 72.536,99.59 72.155,97.687 72.155,96.545 72.536,94.641 73.297,93.499 74.439,93.119 75.201,93.119 76.343,93.499 77.104,94.641 77.485,96.545 77.485,97.687 77.104,99.59 76.343,100.73 75.201,101.11 " stroke-width="0.54059" stroke-linejoin="round" />
<polyline points="49.694,134.83 49.694,135.21 50.075,135.97 50.456,136.35 51.217,136.73 52.74,136.73 53.501,136.35 53.882,135.97 54.263,135.21 54.263,134.45 53.882,133.69 53.12,132.55 49.314,128.74 54.643,128.74 " stroke-width="0.54059" stroke-linecap="round" stroke-linejoin="round" />
<polygon points="59.212,136.73 58.07,136.35 57.308,135.21 56.927,133.31 56.927,132.17 57.308,130.26 58.07,129.12 59.212,128.74 59.973,128.74 61.115,129.12 61.876,130.26 62.257,132.17 62.257,133.31 61.876,135.21 61.115,136.35 59.973,136.73 " stroke-width="0.54059" stroke-linejoin="round" />
<polygon points="66.825,136.73 65.683,136.35 64.922,135.21 64.541,133.31 64.541,132.17 64.922,130.26 65.683,129.12 66.825,128.74 67.587,128.74 68.729,129.12 69.49,130.26 69.871,132.17 69.871,133.31 69.49,135.21 68.729,136.35 67.587,136.73 " stroke-width="0.54059" stroke-linejoin="round" />
<polygon points="74.439,136.73 73.297,136.35 72.536,135.21 72.155,133.31 72.155,132.17 72.536,130.26 73.297,129.12 74.439,128.74 75.201,128.74 76.343,129.12 77.104,130.26 77.485,132.17 77.485,133.31 77.104,135.21 76.343,136.35 75.201,136.73 " stroke-width="0.54059" stroke-linejoin="round" />
<polyline points="50.075,172.35 54.263,172.35 51.978,169.31 53.12,169.31 53.882,168.93 54.263,168.55 54.643,167.41 54.643,166.64 54.263,165.5 53.501,164.74 52.359,164.36 51.217,164.36 50.075,164.74 49.694,165.12 49.314,165.88 " stroke-width="0.54059" stroke-linecap="round" stroke-linejoin="round" />
<polygon points="59.212,172.35 58.07,171.97 57.308,170.83 56.927,168.93 56.927,167.79 57.308,165.88 58.07,164.74 59.212,164.36 59.973,164.36 61.115,164.74 61.876,165.88 62.257,167.79 62.257,168.93 61.876,170.83 61.115,171.97 59.973,172.35 " stroke-width="0.54059" stroke-linejoin="round" />
<polygon points="66.825,172.35 65.683,171.97 64.922,170.83 64.541,168.93 64.541,167.79 64.922,165.88 65.683,164.74 66.825,164.36 67.587,164.36 68.729,164.74 69.49,165.88 69.871,167.79 69.871,168.93 69.49,170.83 68.729,171.97 67.587,172.35 " stroke-width="0.54059" stroke-linejoin="round" />
<polygon points="74.439,172.35 73.297,171.97 72.536,170.83 72.155,168.93 72.155,167.79 72.536,165.88 73.297,164.74 74.439,164.36 75.201,164.36 76.343,164.74 77.104,165.88 77.485,167.79 77.485,168.93 77.104,170.83 76.343,171.97 75.201,172.35 " stroke-width="0.54059" stroke-linejoin="round" />
<polyline points="53.12,207.97 49.314,202.64 55.024,202.64 " stroke-width="0.54059" stroke-linecap="round" stroke-linejoin="round" />
<line x1="53.12" y1="207.97" x2="53.12" y2="199.98" stroke-width="0.54059" stroke-linecap="round" />
<polygon points="59.212,207.97 58.07,207.59 57.308,206.45 56.927,204.55 56.927,203.41 57.308,201.5 58.07,200.36 59.212,199.98 59.973,199.98 61.115,200.36 61.876,201.5 62.257,203.41 62.257,204.55 61.876,206.45 61.115,207.59 59.973,207.97 " stroke-width="0.54059" stroke-linejoin="round" />
<polygon points="66.825,207.97 65.683,207.59 64.922,206.45 64.541,204.55 64.541,203.41 64.922,201.5 65.683,200.36 66.825,199.98 67.587,199.98 68.729,200.36 69.49,201.5 69.871,203.41 69.871,204.55 69.49,206.45 68.729,207.59 67.587,207.97 " stroke-width="0.54059" stroke-linejoin="round" />
<polygon points="74.439,207.97 73.297,207.59 72.536,206.45 72.155,204.55 72.155,203.41 72.536,201.5 73.297,200.36 74.439,199.98 75.201,199.98 76.343,200.36 77.104,201.5 77.485,203.41 77.485,204.55 77.104,206.45 76.343,207.59 75.201,207.97 " stroke-width="0.54059" stroke-linejoin="round" />
<polyline points="53.882,243.6 50.075,243.6 49.694,240.17 50.075,240.55 51.217,240.93 52.359,240.93 53.501,240.55 54.263,239.79 54.643,238.65 54.643,237.88 54.263,236.74 53.501,235.98 52.359,235.6 51.217,235.6 50.075,235.98 49.694,236.36 49.314,237.12 " stroke-width="0.54059" stroke-linecap="round" stroke-linejoin="round" />
<polygon points="59.212,243.6 58.07,243.21 57.308,242.07 56.927,240.17 56.927,239.03 57.308,237.12 58.07,235.98 59.212,235.6 59.973,235.6 61.115,235.98 61.876,237.12 62.257,239.03 62.257,240.17 61.876,242.07 61.115,243.21 59.973,243.6 " stroke-width="0.54059" stroke-linejoin="round" />
<polygon points="66.825,243.6 65.683,243.21 64.922,242.07 64.541,240.17 64.541,239.03 64.922,237.12 65.683,235.98 66.825,235.6 67.587,235.6 68.729,235.98 69.49,237.12 69.871,239.03 69.871,240.17 69.49,242.07 68.729,243.21 67.587,243.6 " stroke-width="0.54059" stroke-linejoin="round" />
<polygon points="74.439,243.6 73.297,243.21 72.536,242.07 72.155,240.17 72.155,239.03 72.536,237.12 73.297,235.98 74.439,235.6 75.201,235.6 76.343,235.98 77.104,237.12 77.485,239.03 77.485,240.17 77.104,242.07 76.343,243.21 75.201,243.6 " stroke-width="0.54059" stroke-linejoin="round" />
<line x1="33.134" y1="138.86" x2="41.129" y2="138.86" stroke-width="0.54059" stroke-linecap="round" />
<line x1="33.134" y1="138.86" x2="33.134" y2="143.81" stroke-width="0.54059" stroke-linecap="round" />
<line x1="36.941" y1="138.86" x2="36.941" y2="141.91" stroke-width="0.54059" stroke-linecap="round" />
<polygon points="33.134,145.33 33.515,145.72 33.134,146.1 32.753,145.72 " stroke-width="0.54059" stroke-linejoin="round" />
<line x1="35.799" y1="145.72" x2="41.129" y2="145.72" stroke-width="0.54059" stroke-linecap="round" />
<polyline points="33.134,149.14 39.606,149.14 40.748,149.52 41.129,150.28 41.129,151.05 " stroke-width="0.54059" stroke-linecap="round" stroke-linejoin="round" />
<line x1="35.799" y1="148" x2="35.799" y2="150.66" stroke-width="0.54059" stroke-linecap="round" />
<line x1="35.799" y1="153.33" x2="41.129" y2="153.33" stroke-width="0.54059" stroke-linecap="round" />
<polyline points="37.322,153.33 36.18,154.47 35.799,155.23 35.799,156.37 36.18,157.14 37.322,157.52 41.129,157.52 " stroke-width="0.54059" stroke-linecap="round" stroke-linejoin="round" />
<polyline points="38.083,160.18 38.083,164.75 37.322,164.75 36.56,164.37 36.18,163.99 35.799,163.23 35.799,162.09 36.18,161.32 36.941,160.56 38.083,160.18 38.844,160.18 39.986,160.56 40.748,161.32 41.129,162.09 41.129,163.23 40.748,163.99 39.986,164.75 " stroke-width="0.54059" stroke-linecap="round" stroke-linejoin="round" />
<polyline points="36.941,171.22 36.18,170.84 35.799,169.7 35.799,168.56 36.18,167.41 36.941,167.03 37.702,167.41 38.083,168.18 38.464,170.08 38.844,170.84 39.606,171.22 39.986,171.22 40.748,170.84 41.129,169.7 41.129,168.56 40.748,167.41 39.986,167.03 " stroke-width="0.54059" stroke-linecap="round" stroke-linejoin="round" />
<polyline points="36.941,177.69 36.18,177.31 35.799,176.17 35.799,175.03 36.18,173.89 36.941,173.51 37.702,173.89 38.083,174.65 38.464,176.55 38.844,177.31 39.606,177.69 39.986,177.69 40.748,177.31 41.129,176.17 41.129,175.03 40.748,173.89 39.986,173.51 " stroke-width="0.54059" stroke-linecap="round" stroke-linejoin="round" />
<line x1="106.96" y1="51.541" x2="106.96" y2="54.681" stroke-width="0.70588" />
<line x1="129.03" y1="51.541" x2="129.03" y2="54.681" stroke-width="0.70588" />
<line x1="151.1" y1="51.541" x2="151.1" y2="54.681" stroke-width="0.70588" />
<line x1="173.17" y1="51.541" x2="173.17" y2="54.681" stroke-width="0.70588" />
<line x1="195.24" y1="51.541" x2="195.24" y2="54.681" stroke-width="0.70588" />
<line x1="217.32" y1="51.541" x2="217.32" y2="54.681" stroke-width="0.70588" />
<line x1="239.39" y1="51.541" x2="239.39" y2="54.681" stroke-width="0.70588" />
<line x1="261.46" y1="51.541" x2="261.46" y2="54.681" stroke-width="0.70588" />
<line x1="283.53" y1="51.541" x2="283.53" y2="54.681" stroke-width="0.70588" />
<line x1="305.6" y1="51.541" x2="305.6" y2="54.681" stroke-width="0.70588" />
<line x1="327.67" y1="51.541" x2="327.67" y2="54.681" stroke-width="0.70588" />
<line x1="349.75" y1="51.541" x2="349.75" y2="54.681" stroke-width="0.70588" />
<line x1="371.82" y1="51.541" x2="371.82" y2="54.681" stroke-width="0.70588" />
<line x1="393.89" y1="51.541" x2="393.89" y2="54.681" stroke-width="0.70588" />
<line x1="415.96" y1="51.541" x2="415.96" y2="54.681" stroke-width="0.70588" />
<line x1="438.03" y1="51.541" x2="438.03" y2="54.681" stroke-width="0.70588" />
<line x1="460.11" y1="51.541" x2="460.11" y2="54.681" stroke-width="0.70588" />
<line x1="482.18" y1="51.541" x2="482.18" y2="54.681" stroke-width="0.70588" />
<line x1="504.25" y1="51.541" x2="504.25" y2="54.681" stroke-width="0.70588" />
<line x1="526.32" y1="51.541" x2="526.32" y2="54.681" stroke-width="0.70588" />
<line x1="548.39" y1="51.541" x2="548.39" y2="54.681" stroke-width="0.70588" />
<line x1="106.96" y1="51.541" x2="106.96" y2="57.822" stroke-width="0.70588" />
<line x1="195.24" y1="51.541" x2="195.24" y2="57.822" stroke-width="0.70588" />
<line x1="283.53" y1="51.541" x2="283.53" y2="57.822" stroke-width="0.70588" />
<line x1="371.82" y1="51.541" x2="371.82" y2="57.822" stroke-width="0.70588" />
<line x1="460.11" y1="51.541" x2="460.11" y2="57.822" stroke-width="0.70588" />
<line x1="548.39" y1="51.541" x2="548.39" y2="57.822" stroke-width="0.70588" />
<line x1="84.909" y1="51.541" x2="570" y2="51.541" stroke-width="0.70588" />
<polygon points="106.58,43.546 105.44,43.165 104.67,42.023 104.29,40.12 104.29,38.978 104.67,37.074 105.44,35.932 106.58,35.551 107.34,35.551 108.48,35.932 109.24,37.074 109.62,38.978 109.62,40.12 109.24,42.023 108.48,43.165 107.34,43.546 " stroke-width="0.54059" stroke-linejoin="round" />
<polyline points="185.35,41.642 185.35,42.023 185.73,42.785 186.11,43.165 186.87,43.546 188.39,43.546 189.15,43.165 189.53,42.785 189.92,42.023 189.92,41.262 189.53,40.5 188.77,39.358 184.97,35.551 190.3,35.551 " stroke-width="0.54059" stroke-linecap="round" stroke-linejoin="round" />
<polygon points="194.86,43.546 193.72,43.165 192.96,42.023 192.58,40.12 192.58,38.978 192.96,37.074 193.72,35.932 194.86,35.551 195.63,35.551 196.77,35.932 197.53,37.074 197.91,38.978 197.91,40.12 197.53,42.023 196.77,43.165 195.63,43.546 " stroke-width="0.54059" stroke-linejoin="round" />
<polygon points="202.48,43.546 201.34,43.165 200.57,42.023 200.19,40.12 200.19,38.978 200.57,37.074 201.34,35.932 202.48,35.551 203.24,35.551 204.38,35.932 205.14,37.074 205.52,38.978 205.52,40.12 205.14,42.023 204.38,43.165 203.24,43.546 " stroke-width="0.54059" stroke-linejoin="round" />
<polyline points="277.06,43.546 273.25,38.216 278.96,38.216 " stroke-width="0.54059" stroke-linecap="round" stroke-linejoin="round" />
<line x1="277.06" y1="43.546" x2="277.06" y2="35.551" stroke-width="0.54059" stroke-linecap="round" />
<polygon points="283.15,43.546 282.01,43.165 281.25,42.023 280.87,40.12 280.87,38.978 281.25,37.074 282.01,35.932 283.15,35.551 283.91,35.551 285.05,35.932 285.82,37.074 286.2,38.978 286.2,40.12 285.82,42.023 285.05,43.165 283.91,43.546 " stroke-width="0.54059" stroke-linejoin="round" />
<polygon points="290.76,43.546 289.62,43.165 288.86,42.023 288.48,40.12 288.48,38.978 288.86,37.074 289.62,35.932 290.76,35.551 291.53,35.551 292.67,35.932 293.43,37.074 293.81,38.978 293.81,40.12 293.43,42.023 292.67,43.165 291.53,43.546 " stroke-width="0.54059" stroke-linejoin="round" />
<polyline points="366.49,42.404 366.11,43.165 364.97,43.546 364.2,43.546 363.06,43.165 362.3,42.023 361.92,40.12 361.92,38.216 362.3,36.693 363.06,35.932 364.2,35.551 364.59,35.551 365.73,35.932 366.49,36.693 366.87,37.836 366.87,38.216 366.49,39.358 365.73,40.12 364.59,40.5 364.2,40.5 363.06,40.12 362.3,39.358 361.92,38.216 " stroke-width="0.54059" stroke-linecap="round" stroke-linejoin="round" />
<polyline points="371.44,43.546 370.3,43.165 369.53,42.023 369.15,40.12 369.15,38.978 369.53,37.074 370.3,35.932 371.44,35.551 372.2,35.551 373.34,35.932 374.1,37.074 374.48,38.978 374.48,40.12 374.1,42.023 373.34,43.165 372.2,43.546 371.44,43.546 " stroke-width="0.54059" stroke-linecap="round" stroke-linejoin="round" />
<polygon points="379.05,43.546 377.91,43.165 377.15,42.023 376.77,40.12 376.77,38.978 377.15,37.074 377.91,35.932 379.05,35.551 379.81,35.551 380.96,35.932 381.72,37.074 382.1,38.978 382.1,40.12 381.72,42.023 380.96,43.165 379.81,43.546 " stroke-width="0.54059" stroke-linejoin="round" />
<polygon points="451.73,43.546 450.59,43.165 450.21,42.404 450.21,41.642 450.59,40.881 451.35,40.5 452.87,40.12 454.01,39.739 454.78,38.978 455.16,38.216 455.16,37.074 454.78,36.313 454.39,35.932 453.25,35.551 451.73,35.551 450.59,35.932 450.21,36.313 449.83,37.074 449.83,38.216 450.21,38.978 450.97,39.739 452.11,40.12 453.63,40.5 454.39,40.881 454.78,41.642 454.78,42.404 454.39,43.165 453.25,43.546 " stroke-width="0.54059" stroke-linejoin="round" />
<polygon points="459.72,43.546 458.58,43.165 457.82,42.023 457.44,40.12 457.44,38.978 457.82,37.074 458.58,35.932 459.72,35.551 460.49,35.551 461.63,35.932 462.39,37.074 462.77,38.978 462.77,40.12 462.39,42.023 461.63,43.165 460.49,43.546 " stroke-width="0.54059" stroke-linejoin="round" />
<polygon points="467.34,43.546 466.2,43.165 465.43,42.023 465.05,40.12 465.05,38.978 465.43,37.074 466.2,35.932 467.34,35.551 468.1,35.551 469.24,35.932 470,37.074 470.38,38.978 470.38,40.12 470,42.023 469.24,43.165 468.1,43.546 " stroke-width="0.54059" stroke-linejoin="round" />
<polyline points="535.45,42.023 536.21,42.404 537.35,43.546 537.35,35.551 " stroke-width="0.54059" stroke-linecap="round" stroke-linejoin="round" />
<polygon points="544.2,43.546 543.06,43.165 542.3,42.023 541.92,40.12 541.92,38.978 542.3,37.074 543.06,35.932 544.2,35.551 544.97,35.551 546.11,35.932 546.87,37.074 547.25,38.978 547.25,40.12 546.87,42.023 546.11,43.165 544.97,43.546 " stroke-width="0.54059" stroke-linejoin="round" />
<polygon points="551.82,43.546 550.68,43.165 549.91,42.023 549.53,40.12 549.53,38.978 549.91,37.074 550.68,35.932 551.82,35.551 552.58,35.551 553.72,35.932 554.48,37.074 554.86,38.978 554.86,40.12 554.48,42.023 553.72,43.165 552.58,43.546 " stroke-width="0.54059" stroke-linejoin="round" />
<polygon points="559.43,43.546 558.29,43.165 557.53,42.023 557.15,40.12 557.15,38.978 557.53,37.074 558.29,35.932 559.43,35.551 560.19,35.551 561.34,35.932 562.1,37.074 562.48,38.978 562.48,40.12 562.1,42.023 561.34,43.165 560.19,43.546 " stroke-width="0.54059" stroke-linejoin="round" />
<polyline points="299.47,24.892 299.09,25.653 298.33,26.415 297.57,26.795 296.05,26.795 295.29,26.415 294.52,25.653 294.14,24.892 293.76,23.75 293.76,21.846 294.14,20.704 294.52,19.943 295.29,19.181 296.05,18.801 297.57,18.801 298.33,19.181 299.09,19.943 299.47,20.704 299.47,21.846 " stroke-width="0.54059" stroke-linecap="round" stroke-linejoin="round" />
<line x1="297.57" y1="21.846" x2="299.47" y2="21.846" stroke-width="0.54059" stroke-linecap="round" />
<polyline points="301.76,21.846 306.33,21.846 306.33,22.608 305.94,23.369 305.56,23.75 304.8,24.13 303.66,24.13 302.9,23.75 302.14,22.988 301.76,21.846 301.76,21.085 302.14,19.943 302.9,19.181 303.66,18.801 304.8,18.801 305.56,19.181 306.33,19.943 " stroke-width="0.54059" stroke-linecap="round" stroke-linejoin="round" />
<line x1="308.99" y1="24.13" x2="308.99" y2="18.801" stroke-width="0.54059" stroke-linecap="round" />
<polyline points="308.99,22.608 310.13,23.75 310.89,24.13 312.04,24.13 312.8,23.75 313.18,22.608 313.18,18.801 " stroke-width="0.54059" stroke-linecap="round" stroke-linejoin="round" />
<polyline points="315.84,21.846 320.41,21.846 320.41,22.608 320.03,23.369 319.65,23.75 318.89,24.13 317.75,24.13 316.99,23.75 316.22,22.988 315.84,21.846 315.84,21.085 316.22,19.943 316.99,19.181 317.75,18.801 318.89,18.801 319.65,19.181 320.41,19.943 " stroke-width="0.54059" stroke-linecap="round" stroke-linejoin="round" />
<line x1="323.08" y1="24.13" x2="323.08" y2="18.801" stroke-width="0.54059" stroke-linecap="round" />
<polyline points="323.08,21.846 323.46,22.988 324.22,23.75 324.98,24.13 326.12,24.13 " stroke-width="0.54059" stroke-linecap="round" stroke-linejoin="round" />
<line x1="332.21" y1="24.13" x2="332.21" y2="18.801" stroke-width="0.54059" stroke-linecap="round" />
<polyline points="332.21,22.988 331.45,23.75 330.69,24.13 329.55,24.13 328.79,23.75 328.03,22.988 327.64,21.846 327.64,21.085 328.03,19.943 328.79,19.181 329.55,18.801 330.69,18.801 331.45,19.181 332.21,19.943 " stroke-width="0.54059" stroke-linecap="round" stroke-linejoin="round" />
<polyline points="335.64,26.795 335.64,20.324 336.02,19.181 336.78,18.801 337.54,18.801 " stroke-width="0.54059" stroke-linecap="round" stroke-linejoin="round" />
<line x1="334.5" y1="24.13" x2="337.16" y2="24.13" stroke-width="0.54059" stroke-linecap="round" />
<polygon points="339.45,26.795 339.83,26.415 340.21,26.795 339.83,27.176 " stroke-width="0.54059" stroke-linejoin="round" />
<line x1="339.83" y1="24.13" x2="339.83" y2="18.801" stroke-width="0.54059" stroke-linecap="round" />
<polygon points="344.4,24.13 343.63,23.75 342.87,22.988 342.49,21.846 342.49,21.085 342.87,19.943 343.63,19.181 344.4,18.801 345.54,18.801 346.3,19.181 347.06,19.943 347.44,21.085 347.44,21.846 347.06,22.988 346.3,23.75 345.54,24.13 " stroke-width="0.54059" stroke-linejoin="round" />
<line x1="350.11" y1="24.13" x2="350.11" y2="18.801" stroke-width="0.54059" stroke-linecap="round" />
<polyline points="350.11,22.608 351.25,23.75 352.01,24.13 353.15,24.13 353.91,23.75 354.29,22.608 354.29,18.801 " stroke-width="0.54059" stroke-linecap="round" stroke-linejoin="round" />
<polyline points="361.15,22.988 360.77,23.75 359.62,24.13 358.48,24.13 357.34,23.75 356.96,22.988 357.34,22.227 358.1,21.846 360,21.466 360.77,21.085 361.15,20.324 361.15,19.943 360.77,19.181 359.62,18.801 358.48,18.801 357.34,19.181 356.96,19.943 " stroke-width="0.54059" stroke-linecap="round" stroke-linejoin="round" />
</g>
</svg>
