<?xml version="1.0" encoding="ISO-8859-1" standalone="no"?>
<!DOCTYPE svg PUBLIC "-//W3C//DTD SVG 1.1//EN" "http://www.w3.org/Graphics/SVG/1.1/DTD/svg11.dtd">
<svg version="1.1" baseProfile="full" id="body" width="8in" height="8in" viewBox="0 0 1 1" preserveAspectRatio="none" xmlns="http://www.w3.org/2000/svg" xmlns:xlink="http://www.w3.org/1999/xlink" xmlns:ev="http://www.w3.org/2001/xml-events">
<title>SVG drawing</title>
<desc>This was produced by version 4.4 of GNU libplot, a free library for exporting 2-D vector graphics.</desc>
<rect id="background" x="0" y="0" width="1" height="1" stroke="none" fill="white"/>
<g id="content" transform="translate(0,1) scale(0.0016667,-0.0033333) " xml:space="preserve" stroke="black" stroke-linecap="butt" stroke-linejoin="miter" stroke-miterlimit="10.433" stroke-dasharray="none" stroke-dashoffset="0" stroke-opacity="1" fill="none" fill-rule="evenodd" fill-opacity="1" font-style="normal" font-variant="normal" font-weight="normal" font-stretch="normal" font-size-adjust="none" letter-spacing="normal" word-spacing="normal" text-anchor="start">
<line x1="211.92" y1="279.37" x2="211.92" y2="271.46" stroke-width="0.5347" stroke-linecap="round" />
<polyline points="211.92,279.37 215.3,279.37 216.43,278.99 216.81,278.62 217.19,277.86 217.19,276.73 216.81,275.98 216.43,275.6 215.3,275.23 211.92,275.23 " stroke-width="0.5347" stroke-linecap="round" stroke-linejoin="round" />
<polygon points="221.33,276.73 220.58,276.36 219.82,275.6 219.45,274.47 219.45,273.72 219.82,272.59 220.58,271.84 221.33,271.46 222.46,271.46 223.21,271.84 223.96,272.59 224.34,273.72 224.34,274.47 223.96,275.6 223.21,276.36 222.46,276.73 " stroke-width="0.5347" stroke-linejoin="round" />
<line x1="226.98" y1="276.73" x2="226.98" y2="268.82" stroke-width="0.5347" stroke-linecap="round" />
<polyline points="226.98,275.6 227.73,276.36 228.48,276.73 229.61,276.73 230.37,276.36 231.12,275.6 231.5,274.47 231.5,273.72 231.12,272.59 230.37,271.84 229.61,271.46 228.48,271.46 227.73,271.84 226.98,272.59 " stroke-width="0.5347" stroke-linecap="round" stroke-linejoin="round" />
<polyline points="234.13,276.73 234.13,272.97 234.51,271.84 235.26,271.46 236.39,271.46 237.14,271.84 238.27,272.97 " stroke-width="0.5347" stroke-linecap="round" stroke-linejoin="round" />
<line x1="238.27" y1="276.73" x2="238.27" y2="271.46" stroke-width="0.5347" stroke-linecap="round" />
<line x1="241.29" y1="279.37" x2="241.29" y2="271.46" stroke-width="0.5347" stroke-linecap="round" />
<line x1="248.44" y1="276.73" x2="248.44" y2="271.46" stroke-width="0.5347" stroke-linecap="round" />
<polyline points="248.44,275.6 247.69,276.36 246.93,276.73 245.8,276.73 245.05,276.36 244.3,275.6 243.92,274.47 243.92,273.72 244.3,272.59 245.05,271.84 245.8,271.46 246.93,271.46 247.69,271.84 248.44,272.59 " stroke-width="0.5347" stroke-linecap="round" stroke-linejoin="round" />
<polyline points="251.83,279.37 251.83,272.97 252.21,271.84 252.96,271.46 253.71,271.46 " stroke-width="0.5347" stroke-linecap="round" stroke-linejoin="round" />
<line x1="250.7" y1="276.73" x2="253.34" y2="276.73" stroke-width="0.5347" stroke-linecap="round" />
<polyline points="255.59,279.37 255.97,278.99 256.35,279.37 255.97,279.74 255.59,279.37 " stroke-width="0.5347" stroke-linecap="round" stroke-linejoin="round" />
<line x1="255.97" y1="276.73" x2="255.97" y2="271.46" stroke-width="0.5347" stroke-linecap="round" />
<polygon points="260.49,276.73 259.74,276.36 258.98,275.6 258.61,274.47 258.61,273.72 258.98,272.59 259.74,271.84 260.49,271.46 261.62,271.46 262.37,271.84 263.13,272.59 263.5,273.72 263.5,274.47 263.13,275.6 262.37,276.36 261.62,276.73 " stroke-width="0.5347" stroke-linejoin="round" />
<line x1="266.14" y1="276.73" x2="266.14" y2="271.46" stroke-width="0.5347" stroke-linecap="round" />
<polyline points="266.14,275.23 267.27,276.36 268.02,276.73 269.15,276.73 269.9,276.36 270.28,275.23 270.28,271.46 " stroke-width="0.5347" stroke-linecap="round" stroke-linejoin="round" />
<polyline points="273.67,278.62 273.29,278.99 273.67,279.37 274.05,278.99 274.05,278.24 273.67,277.49 273.29,277.11 " stroke-width="0.5347" stroke-linecap="round" stroke-linejoin="round" />
<polyline points="280.82,275.6 280.45,276.36 279.32,276.73 278.19,276.73 277.06,276.36 276.68,275.6 277.06,274.85 277.81,274.47 279.69,274.1 280.45,273.72 280.82,272.97 280.82,272.59 280.45,271.84 279.32,271.46 278.19,271.46 277.06,271.84 276.68,272.59 " stroke-width="0.5347" stroke-linecap="round" stroke-linejoin="round" />
<line x1="293.63" y1="276.73" x2="293.63" y2="271.46" stroke-width="0.5347" stroke-linecap="round" />
<polyline points="293.63,275.6 292.87,276.36 292.12,276.73 290.99,276.73 290.24,276.36 289.48,275.6 289.11,274.47 289.11,273.72 289.48,272.59 290.24,271.84 290.99,271.46 292.12,271.46 292.87,271.84 293.63,272.59 " stroke-width="0.5347" stroke-linecap="round" stroke-linejoin="round" />
<line x1="295.89" y1="276.73" x2="298.14" y2="271.46" stroke-width="0.5347" stroke-linecap="round" />
<line x1="300.4" y1="276.73" x2="298.14" y2="271.46" stroke-width="0.5347" stroke-linecap="round" />
<polyline points="302.29,274.47 306.81,274.47 306.81,275.23 306.43,275.98 306.05,276.36 305.3,276.73 304.17,276.73 303.42,276.36 302.66,275.6 302.29,274.47 302.29,273.72 302.66,272.59 303.42,271.84 304.17,271.46 305.3,271.46 306.05,271.84 306.81,272.59 " stroke-width="0.5347" stroke-linecap="round" stroke-linejoin="round" />
<line x1="309.44" y1="276.73" x2="309.44" y2="271.46" stroke-width="0.5347" stroke-linecap="round" />
<polyline points="309.44,274.47 309.82,275.6 310.57,276.36 311.32,276.73 312.45,276.73 " stroke-width="0.5347" stroke-linecap="round" stroke-linejoin="round" />
<line x1="318.48" y1="276.73" x2="318.48" y2="271.46" stroke-width="0.5347" stroke-linecap="round" />
<polyline points="318.48,275.6 317.73,276.36 316.97,276.73 315.84,276.73 315.09,276.36 314.34,275.6 313.96,274.47 313.96,273.72 314.34,272.59 315.09,271.84 315.84,271.46 316.97,271.46 317.73,271.84 318.48,272.59 " stroke-width="0.5347" stroke-linecap="round" stroke-linejoin="round" />
<polyline points="325.63,276.73 325.63,270.71 325.26,269.58 324.88,269.2 324.13,268.82 323,268.82 322.24,269.2 " stroke-width="0.5347" stroke-linecap="round" stroke-linejoin="round" />
<polyline points="325.63,275.6 324.88,276.36 324.13,276.73 323,276.73 322.24,276.36 321.49,275.6 321.11,274.47 321.11,273.72 321.49,272.59 322.24,271.84 323,271.46 324.13,271.46 324.88,271.84 325.63,272.59 " stroke-width="0.5347" stroke-linecap="round" stroke-linejoin="round" />
<polyline points="328.27,274.47 332.79,274.47 332.79,275.23 332.41,275.98 332.03,276.36 331.28,276.73 330.15,276.73 329.4,276.36 328.65,275.6 328.27,274.47 328.27,273.72 328.65,272.59 329.4,271.84 330.15,271.46 331.28,271.46 332.03,271.84 332.79,272.59 " stroke-width="0.5347" stroke-linecap="round" stroke-linejoin="round" />
<line x1="345.59" y1="276.73" x2="345.59" y2="271.46" stroke-width="0.5347" stroke-linecap="round" />
<polyline points="345.59,275.6 344.84,276.36 344.08,276.73 342.95,276.73 342.2,276.36 341.45,275.6 341.07,274.47 341.07,273.72 341.45,272.59 342.2,271.84 342.95,271.46 344.08,271.46 344.84,271.84 345.59,272.59 " stroke-width="0.5347" stroke-linecap="round" stroke-linejoin="round" />
<line x1="348.6" y1="276.73" x2="348.6" y2="271.46" stroke-width="0.5347" stroke-linecap="round" />
<polyline points="348.6,275.23 349.73,276.36 350.49,276.73 351.61,276.73 352.37,276.36 352.74,275.23 352.74,271.46 " stroke-width="0.5347" stroke-linecap="round" stroke-linejoin="round" />
<line x1="359.9" y1="279.37" x2="359.9" y2="271.46" stroke-width="0.5347" stroke-linecap="round" />
<polyline points="359.9,275.6 359.15,276.36 358.39,276.73 357.26,276.73 356.51,276.36 355.76,275.6 355.38,274.47 355.38,273.72 355.76,272.59 356.51,271.84 357.26,271.46 358.39,271.46 359.15,271.84 359.9,272.59 " stroke-width="0.5347" stroke-linecap="round" stroke-linejoin="round" />
<line x1="368.94" y1="279.37" x2="368.94" y2="271.46" stroke-width="0.5347" stroke-linecap="round" />
<polyline points="368.94,275.6 369.69,276.36 370.44,276.73 371.57,276.73 372.32,276.36 373.08,275.6 373.45,274.47 373.45,273.72 373.08,272.59 372.32,271.84 371.57,271.46 370.44,271.46 369.69,271.84 368.94,272.59 " stroke-width="0.5347" stroke-linecap="round" stroke-linejoin="round" />
<polyline points="375.71,274.47 380.23,274.47 380.23,275.23 379.86,275.98 379.48,276.36 378.73,276.73 377.6,276.73 376.84,276.36 376.09,275.6 375.71,274.47 375.71,273.72 376.09,272.59 376.84,271.84 377.6,271.46 378.73,271.46 379.48,271.84 380.23,272.59 " stroke-width="0.5347" stroke-linecap="round" stroke-linejoin="round" />
<polyline points="386.63,275.6 386.26,276.36 385.13,276.73 384,276.73 382.87,276.36 382.49,275.6 382.87,274.85 383.62,274.47 385.5,274.1 386.26,273.72 386.63,272.97 386.63,272.59 386.26,271.84 385.13,271.46 384,271.46 382.87,271.84 382.49,272.59 " stroke-width="0.5347" stroke-linecap="round" stroke-linejoin="round" />
<polyline points="389.65,279.37 389.65,272.97 390.02,271.84 390.78,271.46 391.53,271.46 " stroke-width="0.5347" stroke-linecap="round" stroke-linejoin="round" />
<line x1="388.52" y1="276.73" x2="391.15" y2="276.73" stroke-width="0.5347" stroke-linecap="round" />
<polyline points="402.07,279.37 401.32,279.37 400.57,278.99 400.19,277.86 400.19,271.46 " stroke-width="0.5347" stroke-linecap="round" stroke-linejoin="round" />
<line x1="399.06" y1="276.73" x2="401.7" y2="276.73" stroke-width="0.5347" stroke-linecap="round" />
<polygon points="403.96,279.37 404.33,278.99 404.71,279.37 404.33,279.74 " stroke-width="0.5347" stroke-linejoin="round" />
<line x1="404.33" y1="276.73" x2="404.33" y2="271.46" stroke-width="0.5347" stroke-linecap="round" />
<polyline points="407.72,279.37 407.72,272.97 408.1,271.84 408.85,271.46 409.6,271.46 " stroke-width="0.5347" stroke-linecap="round" stroke-linejoin="round" />
<line x1="406.59" y1="276.73" x2="409.23" y2="276.73" stroke-width="0.5347" stroke-linecap="round" />
<line x1="411.86" y1="276.73" x2="411.86" y2="271.46" stroke-width="0.5347" stroke-linecap="round" />
<polyline points="411.86,275.23 412.99,276.36 413.75,276.73 414.87,276.73 415.63,276.36 416,275.23 416,271.46 " stroke-width="0.5347" stroke-linecap="round" stroke-linejoin="round" />
<polyline points="418.64,274.47 423.16,274.47 423.16,275.23 422.78,275.98 422.41,276.36 421.65,276.73 420.52,276.73 419.77,276.36 419.02,275.6 418.64,274.47 418.64,273.72 419.02,272.59 419.77,271.84 420.52,271.46 421.65,271.46 422.41,271.84 423.16,272.59 " stroke-width="0.5347" stroke-linecap="round" stroke-linejoin="round" />
<polyline points="429.56,275.6 429.18,276.36 428.05,276.73 426.92,276.73 425.79,276.36 425.42,275.6 425.79,274.85 426.55,274.47 428.43,274.1 429.18,273.72 429.56,272.97 429.56,272.59 429.18,271.84 428.05,271.46 426.92,271.46 425.79,271.84 425.42,272.59 " stroke-width="0.5347" stroke-linecap="round" stroke-linejoin="round" />
<polyline points="435.96,275.6 435.59,276.36 434.46,276.73 433.33,276.73 432.2,276.36 431.82,275.6 432.2,274.85 432.95,274.47 434.83,274.1 435.59,273.72 435.96,272.97 435.96,272.59 435.59,271.84 434.46,271.46 433.33,271.46 432.2,271.84 431.82,272.59 " stroke-width="0.5347" stroke-linecap="round" stroke-linejoin="round" />
<polyline points="99.887,77.181 102.14,78.677 104.39,77.181 106.64,78.677 108.89,78.677 111.14,77.181 113.39,77.181 115.64,78.677 117.89,75.684 120.14,84.664 122.39,87.658 124.64,101.13 126.89,96.638 129.14,89.154 131.39,90.651 133.64,92.148 135.88,93.644 138.13,104.12 140.38,95.141 142.63,101.13 144.88,137.05 147.13,111.6 149.38,129.57 151.63,99.631 153.88,169.98 156.13,163.99 158.38,132.56 160.63,104.12 162.88,146.03 165.13,171.47 167.38,129.57 169.63,161 171.88,178.96 174.13,135.55 176.38,189.43 178.63,140.04 180.88,159.5 183.13,132.56 185.38,107.11 187.63,125.08 189.88,113.1 192.13,132.56 194.38,122.08 196.63,119.09 198.88,131.06 201.13,187.94 203.38,138.55 205.63,114.6 207.88,131.06 210.13,166.98 212.38,161 214.63,122.08 216.88,132.56 219.13,169.98 221.38,168.48 223.63,178.96 225.88,152.02 228.13,126.57 230.38,172.97 232.63,168.48 234.88,141.54 237.13,181.95 239.38,131.06 241.63,153.51 243.88,156.51 246.13,119.09 248.38,143.04 250.63,146.03 252.88,153.51 255.13,138.55 257.38,159.5 259.63,141.54 261.88,146.03 264.13,126.57 266.38,146.03 268.63,134.06 270.88,123.58 273.13,122.08 275.38,119.09 277.63,146.03 279.88,123.58 282.13,128.07 284.38,211.88 286.63,161 288.88,144.53 291.13,192.43 293.38,111.6 295.63,129.57 297.88,137.05 300.13,196.92 302.38,184.94 304.63,204.4 306.88,190.93 309.13,125.08 311.38,149.02 313.63,134.06 315.88,149.02 318.13,169.98 320.38,163.99 322.63,140.04 324.88,159.5 327.13,138.55 329.37,108.61 331.62,137.05 333.87,143.04 336.12,166.98 338.37,166.98 340.62,105.62 342.87,152.02 345.12,152.02 347.37,132.56 349.62,122.08 351.87,165.49 354.12,126.57 356.37,150.52 358.62,162.49 360.87,123.58 363.12,149.02 365.37,143.04 367.62,161 369.87,117.59 372.12,177.46 374.37,159.5 376.62,152.02 378.87,128.07 381.12,143.04 383.37,147.53 385.62,159.5 387.87,165.49 390.12,129.57 392.37,134.06 394.62,138.55 396.87,140.04 399.12,147.53 401.37,123.58 403.62,165.49 405.87,144.53 408.12,111.6 410.37,165.49 412.62,250.8 414.87,141.54 417.12,165.49 419.37,144.53 421.62,131.06 423.87,162.49 426.12,135.55 428.37,147.53 430.62,126.57 432.87,140.04 435.12,183.45 437.37,135.55 439.62,174.47 441.87,149.02 444.12,146.03 446.37,144.53 448.62,137.05 450.87,152.02 453.12,126.57 455.37,183.45 457.62,165.49 459.87,125.08 462.12,162.49 464.37,134.06 466.62,198.41 468.87,165.49 471.12,146.03 473.37,217.87 475.62,168.48 477.87,146.03 480.12,137.05 482.37,141.54 484.62,168.48 486.87,162.49 489.12,131.06 491.37,222.36 493.62,169.98 495.87,171.47 498.12,152.02 500.37,152.02 502.62,174.47 504.87,174.47 507.12,174.47 509.37,126.57 511.62,126.57 513.87,158 516.12,140.04 518.37,141.54 520.62,123.58 522.86,152.02 525.11,110.11 527.36,131.06 529.61,158 531.86,125.08 534.11,125.08 536.36,134.06 538.61,161 540.86,162.49 543.11,163.99 545.36,143.04 547.61,166.98 " stroke="red" stroke-width="0.4142" />
<polyline points="99.887,61.839 102.14,63.067 104.39,62.767 106.64,62.887 108.89,62.363 111.14,61.331 113.39,62.857 115.64,61.959 117.89,61.884 120.14,61.914 122.39,63.142 124.64,63.486 126.89,62.229 129.14,63.471 131.39,63.621 133.64,64.129 135.88,63.052 138.13,64.519 140.38,64.623 142.63,64.863 144.88,68.23 147.13,63.157 149.38,64.728 151.63,64.968 153.88,67.033 156.13,69.667 158.38,66.883 160.63,64.638 162.88,68.455 165.13,69.203 167.38,67.108 169.63,68.126 171.88,65.312 174.13,70.011 176.38,70.73 178.63,70.73 180.88,68.26 183.13,70.685 185.38,66.823 187.63,69.547 189.88,68.664 192.13,68.081 194.38,68.679 196.63,67.018 198.88,67.347 201.13,67.871 203.38,69.158 205.63,67.976 207.88,68.47 210.13,69.577 212.38,69.981 214.63,69.143 216.88,70.49 219.13,70.326 221.38,71.209 223.63,69.607 225.88,70.625 228.13,66.794 230.38,71.134 232.63,70.685 234.88,68.156 237.13,70.296 239.38,69.069 241.63,68.066 243.88,69.697 246.13,69.667 248.38,71.044 250.63,69.353 252.88,66.509 255.13,68.769 257.38,66.449 259.63,73.918 261.88,72.691 264.13,73.035 266.38,69.922 268.63,69.263 270.88,70.206 273.13,69.937 275.38,67.796 277.63,69.398 279.88,67.721 282.13,70.221 284.38,69.218 286.63,69.996 288.88,67.078 291.13,73.244 293.38,70.086 295.63,74.442 297.88,70.924 300.13,72.107 302.38,72.9 304.63,70.236 306.88,74.472 309.13,70.924 311.38,71.418 313.63,71.254 315.88,72.077 318.13,70.281 320.38,73.888 322.63,72.885 324.88,70.251 327.13,71.568 329.37,68.634 331.62,67.542 333.87,68.2 336.12,72.705 338.37,71.568 340.62,68.44 342.87,73.439 345.12,70.924 347.37,72.586 349.62,68.994 351.87,72.227 354.12,67.736 356.37,72.915 358.62,73.005 360.87,71.927 363.12,72.511 365.37,73.469 367.62,70.715 369.87,69.757 372.12,73.454 374.37,71.837 376.62,73.349 378.87,69.772 381.12,70.46 383.37,69.712 385.62,71.299 387.87,71.763 390.12,68.799 392.37,68.874 394.62,69.996 396.87,72.316 399.12,71.433 401.37,70.969 403.62,73.229 405.87,67.961 408.12,69.323 410.37,73.873 412.62,75.19 414.87,70.131 417.12,73.364 419.37,70.086 421.62,73.214 423.87,70.505 426.12,70.805 428.37,71.897 430.62,68.605 432.87,72.077 435.12,74.696 437.37,71.493 439.62,74.711 441.87,72.137 444.12,71.299 446.37,69.518 448.62,71.373 450.87,73.394 453.12,73.484 455.37,71.239 457.62,70.176 459.87,70.386 462.12,72.346 464.37,72.915 466.62,71.538 468.87,68.515 471.12,68.904 473.37,72.571 475.62,70.595 477.87,71.598 480.12,67.243 482.37,69.203 484.62,73.559 486.87,69.817 489.12,67.452 491.37,74.651 493.62,73.199 495.87,73.349 498.12,70.371 500.37,71.718 502.62,71.852 504.87,72.78 507.12,74.906 509.37,69.413 511.62,71.014 513.87,72.286 516.12,69.922 518.37,68.365 520.62,68.664 522.86,72.316 525.11,68.44 527.36,71.373 529.61,71.044 531.86,70.505 534.11,72.436 536.36,73.424 538.61,71.703 540.86,73.783 543.11,71.433 545.36,71.763 547.61,72.301 " stroke="blue" stroke-width="0.4142" />
<line x1="570" y1="56.227" x2="566.89" y2="56.227" stroke-width="0.70588" />
<line x1="570" y1="63.71" x2="566.89" y2="63.71" stroke-width="0.70588" />
<line x1="570" y1="71.194" x2="566.89" y2="71.194" stroke-width="0.70588" />
<line x1="570" y1="78.677" x2="566.89" y2="78.677" stroke-width="0.70588" />
<line x1="570" y1="86.161" x2="566.89" y2="86.161" stroke-width="0.70588" />
<line x1="570" y1="93.644" x2="566.89" y2="93.644" stroke-width="0.70588" />
<line x1="570" y1="101.13" x2="566.89" y2="101.13" stroke-width="0.70588" />
<line x1="570" y1="108.61" x2="566.89" y2="108.61" stroke-width="0.70588" />
<line x1="570" y1="116.09" x2="566.89" y2="116.09" stroke-width="0.70588" />
<line x1="570" y1="123.58" x2="566.89" y2="123.58" stroke-width="0.70588" />
<line x1="570" y1="131.06" x2="566.89" y2="131.06" stroke-width="0.70588" />
<line x1="570" y1="138.55" x2="566.89" y2="138.55" stroke-width="0.70588" />
<line x1="570" y1="146.03" x2="566.89" y2="146.03" stroke-width="0.70588" />
<line x1="570" y1="153.51" x2="566.89" y2="153.51" stroke-width="0.70588" />
<line x1="570" y1="161" x2="566.89" y2="161" stroke-width="0.70588" />
<line x1="570" y1="168.48" x2="566.89" y2="168.48" stroke-width="0.70588" />
<line x1="570" y1="175.96" x2="566.89" y2="175.96" stroke-width="0.70588" />
<line x1="570" y1="183.45" x2="566.89" y2="183.45" stroke-width="0.70588" />
<line x1="570" y1="190.93" x2="566.89" y2="190.93" stroke-width="0.70588" />
<line x1="570" y1="198.41" x2="566.89" y2="198.41" stroke-width="0.70588" />
<line x1="570" y1="205.9" x2="566.89" y2="205.9" stroke-width="0.70588" />
<line x1="570" y1="213.38" x2="566.89" y2="213.38" stroke-width="0.70588" />
<line x1="570" y1="220.86" x2="566.89" y2="220.86" stroke-width="0.70588" />
<line x1="570" y1="228.35" x2="566.89" y2="228.35" stroke-width="0.70588" />
<line x1="570" y1="235.83" x2="566.89" y2="235.83" stroke-width="0.70588" />
<line x1="570" y1="243.31" x2="566.89" y2="243.31" stroke-width="0.70588" />
<line x1="570" y1="250.8" x2="566.89" y2="250.8" stroke-width="0.70588" />
<line x1="570" y1="258.28" x2="566.89" y2="258.28" stroke-width="0.70588" />
<line x1="570" y1="78.677" x2="563.79" y2="78.677" stroke-width="0.70588" />
<line x1="570" y1="108.61" x2="563.79" y2="108.61" stroke-width="0.70588" />
<line x1="570" y1="138.55" x2="563.79" y2="138.55" stroke-width="0.70588" />
<line x1="570" y1="168.48" x2="563.79" y2="168.48" stroke-width="0.70588" />
<line x1="570" y1="198.41" x2="563.79" y2="198.41" stroke-width="0.70588" />
<line x1="570" y1="228.35" x2="563.79" y2="228.35" stroke-width="0.70588" />
<line x1="570" y1="258.28" x2="563.79" y2="258.28" stroke-width="0.70588" />
<line x1="570" y1="51.857" x2="570" y2="260.27" stroke-width="0.70588" />
<line x1="99.887" y1="260.27" x2="99.887" y2="257.16" stroke-width="0.70588" />
<line x1="122.39" y1="260.27" x2="122.39" y2="257.16" stroke-width="0.70588" />
<line x1="144.88" y1="260.27" x2="144.88" y2="257.16" stroke-width="0.70588" />
<line x1="167.38" y1="260.27" x2="167.38" y2="257.16" stroke-width="0.70588" />
<line x1="189.88" y1="260.27" x2="189.88" y2="257.16" stroke-width="0.70588" />
<line x1="212.38" y1="260.27" x2="212.38" y2="257.16" stroke-width="0.70588" />
<line x1="234.88" y1="260.27" x2="234.88" y2="257.16" stroke-width="0.70588" />
<line x1="257.38" y1="260.27" x2="257.38" y2="257.16" stroke-width="0.70588" />
<line x1="279.88" y1="260.27" x2="279.88" y2="257.16" stroke-width="0.70588" />
<line x1="302.38" y1="260.27" x2="302.38" y2="257.16" stroke-width="0.70588" />
<line x1="324.88" y1="260.27" x2="324.88" y2="257.16" stroke-width="0.70588" />
<line x1="347.37" y1="260.27" x2="347.37" y2="257.16" stroke-width="0.70588" />
<line x1="369.87" y1="260.27" x2="369.87" y2="257.16" stroke-width="0.70588" />
<line x1="392.37" y1="260.27" x2="392.37" y2="257.16" stroke-width="0.70588" />
<line x1="414.87" y1="260.27" x2="414.87" y2="257.16" stroke-width="0.70588" />
<line x1="437.37" y1="260.27" x2="437.37" y2="257.16" stroke-width="0.70588" />
<line x1="459.87" y1="260.27" x2="459.87" y2="257.16" stroke-width="0.70588" />
<line x1="482.37" y1="260.27" x2="482.37" y2="257.16" stroke-width="0.70588" />
<line x1="504.87" y1="260.27" x2="504.87" y2="257.16" stroke-width="0.70588" />
<line x1="527.36" y1="260.27" x2="527.36" y2="257.16" stroke-width="0.70588" />
<line x1="549.86" y1="260.27" x2="549.86" y2="257.16" stroke-width="0.70588" />
<line x1="99.887" y1="260.27" x2="99.887" y2="254.06" stroke-width="0.70588" />
<line x1="212.38" y1="260.27" x2="212.38" y2="254.06" stroke-width="0.70588" />
<line x1="324.88" y1="260.27" x2="324.88" y2="254.06" stroke-width="0.70588" />
<line x1="437.37" y1="260.27" x2="437.37" y2="254.06" stroke-width="0.70588" />
<line x1="549.86" y1="260.27" x2="549.86" y2="254.06" stroke-width="0.70588" />
<line x1="77.5" y1="260.27" x2="570" y2="260.27" stroke-width="0.70588" />
<line x1="77.5" y1="56.227" x2="80.607" y2="56.227" stroke-width="0.70588" />
<line x1="77.5" y1="63.71" x2="80.607" y2="63.71" stroke-width="0.70588" />
<line x1="77.5" y1="71.194" x2="80.607" y2="71.194" stroke-width="0.70588" />
<line x1="77.5" y1="78.677" x2="80.607" y2="78.677" stroke-width="0.70588" />
<line x1="77.5" y1="86.161" x2="80.607" y2="86.161" stroke-width="0.70588" />
<line x1="77.5" y1="93.644" x2="80.607" y2="93.644" stroke-width="0.70588" />
<line x1="77.5" y1="101.13" x2="80.607" y2="101.13" stroke-width="0.70588" />
<line x1="77.5" y1="108.61" x2="80.607" y2="108.61" stroke-width="0.70588" />
<line x1="77.5" y1="116.09" x2="80.607" y2="116.09" stroke-width="0.70588" />
<line x1="77.5" y1="123.58" x2="80.607" y2="123.58" stroke-width="0.70588" />
<line x1="77.5" y1="131.06" x2="80.607" y2="131.06" stroke-width="0.70588" />
<line x1="77.5" y1="138.55" x2="80.607" y2="138.55" stroke-width="0.70588" />
<line x1="77.5" y1="146.03" x2="80.607" y2="146.03" stroke-width="0.70588" />
<line x1="77.5" y1="153.51" x2="80.607" y2="153.51" stroke-width="0.70588" />
<line x1="77.5" y1="161" x2="80.607" y2="161" stroke-width="0.70588" />
<line x1="77.5" y1="168.48" x2="80.607" y2="168.48" stroke-width="0.70588" />
<line x1="77.5" y1="175.96" x2="80.607" y2="175.96" stroke-width="0.70588" />
<line x1="77.5" y1="183.45" x2="80.607" y2="183.45" stroke-width="0.70588" />
<line x1="77.5" y1="190.93" x2="80.607" y2="190.93" stroke-width="0.70588" />
<line x1="77.5" y1="198.41" x2="80.607" y2="198.41" stroke-width="0.70588" />
<line x1="77.5" y1="205.9" x2="80.607" y2="205.9" stroke-width="0.70588" />
<line x1="77.5" y1="213.38" x2="80.607" y2="213.38" stroke-width="0.70588" />
<line x1="77.5" y1="220.86" x2="80.607" y2="220.86" stroke-width="0.70588" />
<line x1="77.5" y1="228.35" x2="80.607" y2="228.35" stroke-width="0.70588" />
<line x1="77.5" y1="235.83" x2="80.607" y2="235.83" stroke-width="0.70588" />
<line x1="77.5" y1="243.31" x2="80.607" y2="243.31" stroke-width="0.70588" />
<line x1="77.5" y1="250.8" x2="80.607" y2="250.8" stroke-width="0.70588" />
<line x1="77.5" y1="258.28" x2="80.607" y2="258.28" stroke-width="0.70588" />
<line x1="77.5" y1="78.677" x2="83.713" y2="78.677" stroke-width="0.70588" />
<line x1="77.5" y1="108.61" x2="83.713" y2="108.61" stroke-width="0.70588" />
<line x1="77.5" y1="138.55" x2="83.713" y2="138.55" stroke-width="0.70588" />
<line x1="77.5" y1="168.48" x2="83.713" y2="168.48" stroke-width="0.70588" />
<line x1="77.5" y1="198.41" x2="83.713" y2="198.41" stroke-width="0.70588" />
<line x1="77.5" y1="228.35" x2="83.713" y2="228.35" stroke-width="0.70588" />
<line x1="77.5" y1="258.28" x2="83.713" y2="258.28" stroke-width="0.70588" />
<line x1="77.5" y1="51.857" x2="77.5" y2="260.27" stroke-width="0.70588" />
<polyline points="57.732,81.313 57.732,81.69 58.108,82.443 58.485,82.819 59.238,83.196 60.744,83.196 61.497,82.819 61.874,82.443 62.25,81.69 62.25,80.937 61.874,80.184 61.121,79.054 57.355,75.288 62.627,75.288 " stroke-width="0.5347" stroke-linecap="round" stroke-linejoin="round" />
<polygon points="67.145,83.196 66.016,82.819 65.263,81.69 64.886,79.807 64.886,78.677 65.263,76.795 66.016,75.665 67.145,75.288 67.898,75.288 69.028,75.665 69.781,76.795 70.158,78.677 70.158,79.807 69.781,81.69 69.028,82.819 67.898,83.196 " stroke-width="0.5347" stroke-linejoin="round" />
<polyline points="61.121,113.13 57.355,107.86 63.003,107.86 " stroke-width="0.5347" stroke-linecap="round" stroke-linejoin="round" />
<line x1="61.121" y1="113.13" x2="61.121" y2="105.22" stroke-width="0.5347" stroke-linecap="round" />
<polygon points="67.145,113.13 66.016,112.75 65.263,111.62 64.886,109.74 64.886,108.61 65.263,106.73 66.016,105.6 67.145,105.22 67.898,105.22 69.028,105.6 69.781,106.73 70.158,108.61 70.158,109.74 69.781,111.62 69.028,112.75 67.898,113.13 " stroke-width="0.5347" stroke-linejoin="round" />
<polyline points="62.25,141.93 61.874,142.69 60.744,143.06 59.991,143.06 58.861,142.69 58.108,141.56 57.732,139.68 57.732,137.79 58.108,136.29 58.861,135.53 59.991,135.16 60.367,135.16 61.497,135.53 62.25,136.29 62.627,137.42 62.627,137.79 62.25,138.92 61.497,139.68 60.367,140.05 59.991,140.05 58.861,139.68 58.108,138.92 57.732,137.79 " stroke-width="0.5347" stroke-linecap="round" stroke-linejoin="round" />
<polygon points="67.145,143.06 66.016,142.69 65.263,141.56 64.886,139.68 64.886,138.55 65.263,136.66 66.016,135.53 67.145,135.16 67.898,135.16 69.028,135.53 69.781,136.66 70.158,138.55 70.158,139.68 69.781,141.56 69.028,142.69 67.898,143.06 " stroke-width="0.5347" stroke-linejoin="round" />
<polygon points="59.238,173 58.108,172.62 57.732,171.87 57.732,171.12 58.108,170.36 58.861,169.99 60.367,169.61 61.497,169.23 62.25,168.48 62.627,167.73 62.627,166.6 62.25,165.84 61.874,165.47 60.744,165.09 59.238,165.09 58.108,165.47 57.732,165.84 57.355,166.6 57.355,167.73 57.732,168.48 58.485,169.23 59.614,169.61 61.121,169.99 61.874,170.36 62.25,171.12 62.25,171.87 61.874,172.62 60.744,173 " stroke-width="0.5347" stroke-linejoin="round" />
<polygon points="67.145,173 66.016,172.62 65.263,171.49 64.886,169.61 64.886,168.48 65.263,166.6 66.016,165.47 67.145,165.09 67.898,165.09 69.028,165.47 69.781,166.6 70.158,168.48 70.158,169.61 69.781,171.49 69.028,172.62 67.898,173 " stroke-width="0.5347" stroke-linejoin="round" />
<polyline points="50.954,201.43 51.707,201.8 52.836,202.93 52.836,195.02 " stroke-width="0.5347" stroke-linecap="round" stroke-linejoin="round" />
<polygon points="59.614,202.93 58.485,202.56 57.732,201.43 57.355,199.54 57.355,198.41 57.732,196.53 58.485,195.4 59.614,195.02 60.367,195.02 61.497,195.4 62.25,196.53 62.627,198.41 62.627,199.54 62.25,201.43 61.497,202.56 60.367,202.93 " stroke-width="0.5347" stroke-linejoin="round" />
<polygon points="67.145,202.93 66.016,202.56 65.263,201.43 64.886,199.54 64.886,198.41 65.263,196.53 66.016,195.4 67.145,195.02 67.898,195.02 69.028,195.4 69.781,196.53 70.158,198.41 70.158,199.54 69.781,201.43 69.028,202.56 67.898,202.93 " stroke-width="0.5347" stroke-linejoin="round" />
<polyline points="50.954,231.36 51.707,231.74 52.836,232.87 52.836,224.96 " stroke-width="0.5347" stroke-linecap="round" stroke-linejoin="round" />
<polyline points="57.732,230.98 57.732,231.36 58.108,232.11 58.485,232.49 59.238,232.87 60.744,232.87 61.497,232.49 61.874,232.11 62.25,231.36 62.25,230.61 61.874,229.85 61.121,228.72 57.355,224.96 62.627,224.96 " stroke-width="0.5347" stroke-linecap="round" stroke-linejoin="round" />
<polygon points="67.145,232.87 66.016,232.49 65.263,231.36 64.886,229.48 64.886,228.35 65.263,226.46 66.016,225.34 67.145,224.96 67.898,224.96 69.028,225.34 69.781,226.46 70.158,228.35 70.158,229.48 69.781,231.36 69.028,232.49 67.898,232.87 " stroke-width="0.5347" stroke-linejoin="round" />
<polyline points="50.954,261.29 51.707,261.67 52.836,262.8 52.836,254.89 " stroke-width="0.5347" stroke-linecap="round" stroke-linejoin="round" />
<polyline points="61.121,262.8 57.355,257.53 63.003,257.53 " stroke-width="0.5347" stroke-linecap="round" stroke-linejoin="round" />
<line x1="61.121" y1="262.8" x2="61.121" y2="254.89" stroke-width="0.5347" stroke-linecap="round" />
<polygon points="67.145,262.8 66.016,262.42 65.263,261.29 64.886,259.41 64.886,258.28 65.263,256.4 66.016,255.27 67.145,254.89 67.898,254.89 69.028,255.27 69.781,256.4 70.158,258.28 70.158,259.41 69.781,261.29 69.028,262.42 67.898,262.8 " stroke-width="0.5347" stroke-linejoin="round" />
<line x1="33.821" y1="139.16" x2="41.728" y2="139.16" stroke-width="0.5347" stroke-linecap="round" />
<line x1="33.821" y1="139.16" x2="33.821" y2="144.06" stroke-width="0.5347" stroke-linecap="round" />
<line x1="37.586" y1="139.16" x2="37.586" y2="142.17" stroke-width="0.5347" stroke-linecap="round" />
<polygon points="33.821,145.56 34.197,145.94 33.821,146.31 33.444,145.94 " stroke-width="0.5347" stroke-linejoin="round" />
<line x1="36.457" y1="145.94" x2="41.728" y2="145.94" stroke-width="0.5347" stroke-linecap="round" />
<polyline points="33.821,149.33 40.222,149.33 41.352,149.7 41.728,150.46 41.728,151.21 " stroke-width="0.5347" stroke-linecap="round" stroke-linejoin="round" />
<line x1="36.457" y1="148.2" x2="36.457" y2="150.83" stroke-width="0.5347" stroke-linecap="round" />
<line x1="36.457" y1="153.47" x2="41.728" y2="153.47" stroke-width="0.5347" stroke-linecap="round" />
<polyline points="37.963,153.47 36.833,154.6 36.457,155.35 36.457,156.48 36.833,157.23 37.963,157.61 41.728,157.61 " stroke-width="0.5347" stroke-linecap="round" stroke-linejoin="round" />
<polyline points="38.716,160.25 38.716,164.77 37.963,164.77 37.21,164.39 36.833,164.01 36.457,163.26 36.457,162.13 36.833,161.38 37.586,160.62 38.716,160.25 39.469,160.25 40.599,160.62 41.352,161.38 41.728,162.13 41.728,163.26 41.352,164.01 40.599,164.77 " stroke-width="0.5347" stroke-linecap="round" stroke-linejoin="round" />
<polyline points="37.586,171.17 36.833,170.79 36.457,169.66 36.457,168.53 36.833,167.4 37.586,167.02 38.339,167.4 38.716,168.15 39.092,170.04 39.469,170.79 40.222,171.17 40.599,171.17 41.352,170.79 41.728,169.66 41.728,168.53 41.352,167.4 40.599,167.02 " stroke-width="0.5347" stroke-linecap="round" stroke-linejoin="round" />
<polyline points="37.586,177.57 36.833,177.19 36.457,176.06 36.457,174.93 36.833,173.8 37.586,173.43 38.339,173.8 38.716,174.56 39.092,176.44 39.469,177.19 40.222,177.57 40.599,177.57 41.352,177.19 41.728,176.06 41.728,174.93 41.352,173.8 40.599,173.43 " stroke-width="0.5347" stroke-linecap="round" stroke-linejoin="round" />
<line x1="99.887" y1="51.857" x2="99.887" y2="54.964" stroke-width="0.70588" />
<line x1="122.39" y1="51.857" x2="122.39" y2="54.964" stroke-width="0.70588" />
<line x1="144.88" y1="51.857" x2="144.88" y2="54.964" stroke-width="0.70588" />
<line x1="167.38" y1="51.857" x2="167.38" y2="54.964" stroke-width="0.70588" />
<line x1="189.88" y1="51.857" x2="189.88" y2="54.964" stroke-width="0.70588" />
<line x1="212.38" y1="51.857" x2="212.38" y2="54.964" stroke-width="0.70588" />
<line x1="234.88" y1="51.857" x2="234.88" y2="54.964" stroke-width="0.70588" />
<line x1="257.38" y1="51.857" x2="257.38" y2="54.964" stroke-width="0.70588" />
<line x1="279.88" y1="51.857" x2="279.88" y2="54.964" stroke-width="0.70588" />
<line x1="302.38" y1="51.857" x2="302.38" y2="54.964" stroke-width="0.70588" />
<line x1="324.88" y1="51.857" x2="324.88" y2="54.964" stroke-width="0.70588" />
<line x1="347.37" y1="51.857" x2="347.37" y2="54.964" stroke-width="0.70588" />
<line x1="369.87" y1="51.857" x2="369.87" y2="54.964" stroke-width="0.70588" />
<line x1="392.37" y1="51.857" x2="392.37" y2="54.964" stroke-width="0.70588" />
<line x1="414.87" y1="51.857" x2="414.87" y2="54.964" stroke-width="0.70588" />
<line x1="437.37" y1="51.857" x2="437.37" y2="54.964" stroke-width="0.70588" />
<line x1="459.87" y1="51.857" x2="459.87" y2="54.964" stroke-width="0.70588" />
<line x1="482.37" y1="51.857" x2="482.37" y2="54.964" stroke-width="0.70588" />
<line x1="504.87" y1="51.857" x2="504.87" y2="54.964" stroke-width="0.70588" />
<line x1="527.36" y1="51.857" x2="527.36" y2="54.964" stroke-width="0.70588" />
<line x1="549.86" y1="51.857" x2="549.86" y2="54.964" stroke-width="0.70588" />
<line x1="99.887" y1="51.857" x2="99.887" y2="58.07" stroke-width="0.70588" />
<line x1="212.38" y1="51.857" x2="212.38" y2="58.07" stroke-width="0.70588" />
<line x1="324.88" y1="51.857" x2="324.88" y2="58.07" stroke-width="0.70588" />
<line x1="437.37" y1="51.857" x2="437.37" y2="58.07" stroke-width="0.70588" />
<line x1="549.86" y1="51.857" x2="549.86" y2="58.07" stroke-width="0.70588" />
<line x1="77.5" y1="51.857" x2="570" y2="51.857" stroke-width="0.70588" />
<polygon points="99.51,43.95 98.381,43.573 97.627,42.443 97.251,40.561 97.251,39.431 97.627,37.548 98.381,36.419 99.51,36.042 100.26,36.042 101.39,36.419 102.15,37.548 102.52,39.431 102.52,40.561 102.15,42.443 101.39,43.573 100.26,43.95 " stroke-width="0.5347" stroke-linejoin="round" />
<polyline points="210.5,43.95 206.73,43.95 206.36,40.561 206.73,40.937 207.86,41.314 208.99,41.314 210.12,40.937 210.87,40.184 211.25,39.055 211.25,38.301 210.87,37.172 210.12,36.419 208.99,36.042 207.86,36.042 206.73,36.419 206.36,36.795 205.98,37.548 " stroke-width="0.5347" stroke-linecap="round" stroke-linejoin="round" />
<polygon points="215.77,43.95 214.64,43.573 213.89,42.443 213.51,40.561 213.51,39.431 213.89,37.548 214.64,36.419 215.77,36.042 216.52,36.042 217.65,36.419 218.41,37.548 218.78,39.431 218.78,40.561 218.41,42.443 217.65,43.573 216.52,43.95 " stroke-width="0.5347" stroke-linejoin="round" />
<polyline points="315.84,42.443 316.59,42.82 317.72,43.95 317.72,36.042 " stroke-width="0.5347" stroke-linecap="round" stroke-linejoin="round" />
<polygon points="324.5,43.95 323.37,43.573 322.62,42.443 322.24,40.561 322.24,39.431 322.62,37.548 323.37,36.419 324.5,36.042 325.25,36.042 326.38,36.419 327.13,37.548 327.51,39.431 327.51,40.561 327.13,42.443 326.38,43.573 325.25,43.95 " stroke-width="0.5347" stroke-linejoin="round" />
<polygon points="332.03,43.95 330.9,43.573 330.15,42.443 329.77,40.561 329.77,39.431 330.15,37.548 330.9,36.419 332.03,36.042 332.78,36.042 333.91,36.419 334.67,37.548 335.04,39.431 335.04,40.561 334.67,42.443 333.91,43.573 332.78,43.95 " stroke-width="0.5347" stroke-linejoin="round" />
<polyline points="428.33,42.443 429.09,42.82 430.21,43.95 430.21,36.042 " stroke-width="0.5347" stroke-linecap="round" stroke-linejoin="round" />
<polyline points="439.25,43.95 435.49,43.95 435.11,40.561 435.49,40.937 436.62,41.314 437.75,41.314 438.88,40.937 439.63,40.184 440.01,39.055 440.01,38.301 439.63,37.172 438.88,36.419 437.75,36.042 436.62,36.042 435.49,36.419 435.11,36.795 434.73,37.548 " stroke-width="0.5347" stroke-linecap="round" stroke-linejoin="round" />
<polygon points="444.52,43.95 443.39,43.573 442.64,42.443 442.26,40.561 442.26,39.431 442.64,37.548 443.39,36.419 444.52,36.042 445.28,36.042 446.41,36.419 447.16,37.548 447.54,39.431 447.54,40.561 447.16,42.443 446.41,43.573 445.28,43.95 " stroke-width="0.5347" stroke-linejoin="round" />
<polyline points="540.07,42.067 540.07,42.443 540.45,43.197 540.83,43.573 541.58,43.95 543.09,43.95 543.84,43.573 544.22,43.197 544.59,42.443 544.59,41.69 544.22,40.937 543.46,39.808 539.7,36.042 544.97,36.042 " stroke-width="0.5347" stroke-linecap="round" stroke-linejoin="round" />
<polygon points="549.49,43.95 548.36,43.573 547.6,42.443 547.23,40.561 547.23,39.431 547.6,37.548 548.36,36.419 549.49,36.042 550.24,36.042 551.37,36.419 552.12,37.548 552.5,39.431 552.5,40.561 552.12,42.443 551.37,43.573 550.24,43.95 " stroke-width="0.5347" stroke-linejoin="round" />
<polygon points="557.02,43.95 555.89,43.573 555.14,42.443 554.76,40.561 554.76,39.431 555.14,37.548 555.89,36.419 557.02,36.042 557.77,36.042 558.9,36.419 559.65,37.548 560.03,39.431 560.03,40.561 559.65,42.443 558.9,43.573 557.77,43.95 " stroke-width="0.5347" stroke-linejoin="round" />
<polyline points="296.07,25.499 295.7,26.252 294.94,27.005 294.19,27.382 292.68,27.382 291.93,27.005 291.18,26.252 290.8,25.499 290.43,24.369 290.43,22.486 290.8,21.357 291.18,20.604 291.93,19.851 292.68,19.474 294.19,19.474 294.94,19.851 295.7,20.604 296.07,21.357 296.07,22.486 " stroke-width="0.5347" stroke-linecap="round" stroke-linejoin="round" />
<line x1="294.19" y1="22.486" x2="296.07" y2="22.486" stroke-width="0.5347" stroke-linecap="round" />
<polyline points="298.33,22.486 302.85,22.486 302.85,23.239 302.48,23.993 302.1,24.369 301.35,24.746 300.22,24.746 299.46,24.369 298.71,23.616 298.33,22.486 298.33,21.733 298.71,20.604 299.46,19.851 300.22,19.474 301.35,19.474 302.1,19.851 302.85,20.604 " stroke-width="0.5347" stroke-linecap="round" stroke-linejoin="round" />
<line x1="305.49" y1="24.746" x2="305.49" y2="19.474" stroke-width="0.5347" stroke-linecap="round" />
<polyline points="305.49,23.239 306.62,24.369 307.37,24.746 308.5,24.746 309.25,24.369 309.63,23.239 309.63,19.474 " stroke-width="0.5347" stroke-linecap="round" stroke-linejoin="round" />
<polyline points="312.27,22.486 316.78,22.486 316.78,23.239 316.41,23.993 316.03,24.369 315.28,24.746 314.15,24.746 313.4,24.369 312.64,23.616 312.27,22.486 312.27,21.733 312.64,20.604 313.4,19.851 314.15,19.474 315.28,19.474 316.03,19.851 316.78,20.604 " stroke-width="0.5347" stroke-linecap="round" stroke-linejoin="round" />
<line x1="319.42" y1="24.746" x2="319.42" y2="19.474" stroke-width="0.5347" stroke-linecap="round" />
<polyline points="319.42,22.486 319.8,23.616 320.55,24.369 321.3,24.746 322.43,24.746 " stroke-width="0.5347" stroke-linecap="round" stroke-linejoin="round" />
<line x1="328.46" y1="24.746" x2="328.46" y2="19.474" stroke-width="0.5347" stroke-linecap="round" />
<polyline points="328.46,23.616 327.7,24.369 326.95,24.746 325.82,24.746 325.07,24.369 324.32,23.616 323.94,22.486 323.94,21.733 324.32,20.604 325.07,19.851 325.82,19.474 326.95,19.474 327.7,19.851 328.46,20.604 " stroke-width="0.5347" stroke-linecap="round" stroke-linejoin="round" />
<polyline points="331.85,27.382 331.85,20.98 332.22,19.851 332.98,19.474 333.73,19.474 " stroke-width="0.5347" stroke-linecap="round" stroke-linejoin="round" />
<line x1="330.72" y1="24.746" x2="333.35" y2="24.746" stroke-width="0.5347" stroke-linecap="round" />
<polygon points="335.61,27.382 335.99,27.005 336.36,27.382 335.99,27.758 " stroke-width="0.5347" stroke-linejoin="round" />
<line x1="335.99" y1="24.746" x2="335.99" y2="19.474" stroke-width="0.5347" stroke-linecap="round" />
<polygon points="340.51,24.746 339.75,24.369 339,23.616 338.62,22.486 338.62,21.733 339,20.604 339.75,19.851 340.51,19.474 341.64,19.474 342.39,19.851 343.14,20.604 343.52,21.733 343.52,22.486 343.14,23.616 342.39,24.369 341.64,24.746 " stroke-width="0.5347" stroke-linejoin="round" />
<line x1="346.15" y1="24.746" x2="346.15" y2="19.474" stroke-width="0.5347" stroke-linecap="round" />
<polyline points="346.15,23.239 347.28,24.369 348.04,24.746 349.17,24.746 349.92,24.369 350.3,23.239 350.3,19.474 " stroke-width="0.5347" stroke-linecap="round" stroke-linejoin="round" />
<polyline points="357.07,23.616 356.7,24.369 355.57,24.746 354.44,24.746 353.31,24.369 352.93,23.616 353.31,22.863 354.06,22.486 355.95,22.11 356.7,21.733 357.07,20.98 357.07,20.604 356.7,19.851 355.57,19.474 354.44,19.474 353.31,19.851 352.93,20.604 " stroke-width="0.5347" stroke-linecap="round" stroke-linejoin="round" />
</g>
</svg>
