<?xml version="1.0" encoding="ISO-8859-1" standalone="no"?>
<!DOCTYPE svg PUBLIC "-//W3C//DTD SVG 1.1//EN" "http://www.w3.org/Graphics/SVG/1.1/DTD/svg11.dtd">
<svg version="1.1" baseProfile="full" id="body" width="8in" height="8in" viewBox="0 0 1 1" preserveAspectRatio="none" xmlns="http://www.w3.org/2000/svg" xmlns:xlink="http://www.w3.org/1999/xlink" xmlns:ev="http://www.w3.org/2001/xml-events">
<title>SVG drawing</title>
<desc>This was produced by version 4.4 of GNU libplot, a free library for exporting 2-D vector graphics.</desc>
<rect id="background" x="0" y="0" width="1" height="1" stroke="none" fill="white"/>
<g id="content" transform="translate(0,1) scale(0.0016667,-0.0033333) " xml:space="preserve" stroke="black" stroke-linecap="butt" stroke-linejoin="miter" stroke-miterlimit="10.433" stroke-dasharray="none" stroke-dashoffset="0" stroke-opacity="1" fill="none" fill-rule="evenodd" fill-opacity="1" font-style="normal" font-variant="normal" font-weight="normal" font-stretch="normal" font-size-adjust="none" letter-spacing="normal" word-spacing="normal" text-anchor="start">
<line x1="210.41" y1="279.72" x2="210.41" y2="271.7" stroke-width="0.54225" stroke-linecap="round" />
<polyline points="210.41,279.72 213.85,279.72 215,279.34 215.38,278.96 215.76,278.19 215.76,277.05 215.38,276.28 215,275.9 213.85,275.52 210.41,275.52 " stroke-width="0.54225" stroke-linecap="round" stroke-linejoin="round" />
<polygon points="219.96,277.05 219.2,276.66 218.43,275.9 218.05,274.75 218.05,273.99 218.43,272.85 219.2,272.08 219.96,271.7 221.11,271.7 221.87,272.08 222.63,272.85 223.01,273.99 223.01,274.75 222.63,275.9 221.87,276.66 221.11,277.05 " stroke-width="0.54225" stroke-linejoin="round" />
<line x1="225.69" y1="277.05" x2="225.69" y2="269.03" stroke-width="0.54225" stroke-linecap="round" />
<polyline points="225.69,275.9 226.45,276.66 227.22,277.05 228.36,277.05 229.12,276.66 229.89,275.9 230.27,274.75 230.27,273.99 229.89,272.85 229.12,272.08 228.36,271.7 227.22,271.7 226.45,272.08 225.69,272.85 " stroke-width="0.54225" stroke-linecap="round" stroke-linejoin="round" />
<polyline points="232.94,277.05 232.94,273.23 233.33,272.08 234.09,271.7 235.23,271.7 236,272.08 237.14,273.23 " stroke-width="0.54225" stroke-linecap="round" stroke-linejoin="round" />
<line x1="237.14" y1="277.05" x2="237.14" y2="271.7" stroke-width="0.54225" stroke-linecap="round" />
<line x1="240.2" y1="279.72" x2="240.2" y2="271.7" stroke-width="0.54225" stroke-linecap="round" />
<line x1="247.45" y1="277.05" x2="247.45" y2="271.7" stroke-width="0.54225" stroke-linecap="round" />
<polyline points="247.45,275.9 246.69,276.66 245.93,277.05 244.78,277.05 244.02,276.66 243.25,275.9 242.87,274.75 242.87,273.99 243.25,272.85 244.02,272.08 244.78,271.7 245.93,271.7 246.69,272.08 247.45,272.85 " stroke-width="0.54225" stroke-linecap="round" stroke-linejoin="round" />
<polyline points="250.89,279.72 250.89,273.23 251.27,272.08 252.04,271.7 252.8,271.7 " stroke-width="0.54225" stroke-linecap="round" stroke-linejoin="round" />
<line x1="249.75" y1="277.05" x2="252.42" y2="277.05" stroke-width="0.54225" stroke-linecap="round" />
<polygon points="254.71,279.72 255.09,279.34 255.47,279.72 255.09,280.1 " stroke-width="0.54225" stroke-linejoin="round" />
<line x1="255.09" y1="277.05" x2="255.09" y2="271.7" stroke-width="0.54225" stroke-linecap="round" />
<polygon points="259.67,277.05 258.91,276.66 258.15,275.9 257.76,274.75 257.76,273.99 258.15,272.85 258.91,272.08 259.67,271.7 260.82,271.7 261.58,272.08 262.35,272.85 262.73,273.99 262.73,274.75 262.35,275.9 261.58,276.66 260.82,277.05 " stroke-width="0.54225" stroke-linejoin="round" />
<line x1="265.4" y1="277.05" x2="265.4" y2="271.7" stroke-width="0.54225" stroke-linecap="round" />
<polyline points="265.4,275.52 266.55,276.66 267.31,277.05 268.46,277.05 269.22,276.66 269.6,275.52 269.6,271.7 " stroke-width="0.54225" stroke-linecap="round" stroke-linejoin="round" />
<polyline points="273.04,278.96 272.66,279.34 273.04,279.72 273.42,279.34 273.42,278.57 273.04,277.81 272.66,277.43 " stroke-width="0.54225" stroke-linecap="round" stroke-linejoin="round" />
<polyline points="280.29,275.9 279.91,276.66 278.77,277.05 277.62,277.05 276.48,276.66 276.09,275.9 276.48,275.14 277.24,274.75 279.15,274.37 279.91,273.99 280.29,273.23 280.29,272.85 279.91,272.08 278.77,271.7 277.62,271.7 276.48,272.08 276.09,272.85 " stroke-width="0.54225" stroke-linecap="round" stroke-linejoin="round" />
<line x1="293.28" y1="277.05" x2="293.28" y2="271.7" stroke-width="0.54225" stroke-linecap="round" />
<polyline points="293.28,275.9 292.51,276.66 291.75,277.05 290.61,277.05 289.84,276.66 289.08,275.9 288.7,274.75 288.7,273.99 289.08,272.85 289.84,272.08 290.61,271.7 291.75,271.7 292.51,272.08 293.28,272.85 " stroke-width="0.54225" stroke-linecap="round" stroke-linejoin="round" />
<line x1="295.57" y1="277.05" x2="297.86" y2="271.7" stroke-width="0.54225" stroke-linecap="round" />
<line x1="300.15" y1="277.05" x2="297.86" y2="271.7" stroke-width="0.54225" stroke-linecap="round" />
<polyline points="302.06,274.75 306.64,274.75 306.64,275.52 306.26,276.28 305.88,276.66 305.12,277.05 303.97,277.05 303.21,276.66 302.44,275.9 302.06,274.75 302.06,273.99 302.44,272.85 303.21,272.08 303.97,271.7 305.12,271.7 305.88,272.08 306.64,272.85 " stroke-width="0.54225" stroke-linecap="round" stroke-linejoin="round" />
<line x1="309.32" y1="277.05" x2="309.32" y2="271.7" stroke-width="0.54225" stroke-linecap="round" />
<polyline points="309.32,274.75 309.7,275.9 310.46,276.66 311.23,277.05 312.37,277.05 " stroke-width="0.54225" stroke-linecap="round" stroke-linejoin="round" />
<line x1="318.48" y1="277.05" x2="318.48" y2="271.7" stroke-width="0.54225" stroke-linecap="round" />
<polyline points="318.48,275.9 317.72,276.66 316.95,277.05 315.81,277.05 315.04,276.66 314.28,275.9 313.9,274.75 313.9,273.99 314.28,272.85 315.04,272.08 315.81,271.7 316.95,271.7 317.72,272.08 318.48,272.85 " stroke-width="0.54225" stroke-linecap="round" stroke-linejoin="round" />
<polyline points="325.74,277.05 325.74,270.94 325.36,269.79 324.97,269.41 324.21,269.03 323.06,269.03 322.3,269.41 " stroke-width="0.54225" stroke-linecap="round" stroke-linejoin="round" />
<polyline points="325.74,275.9 324.97,276.66 324.21,277.05 323.06,277.05 322.3,276.66 321.54,275.9 321.15,274.75 321.15,273.99 321.54,272.85 322.3,272.08 323.06,271.7 324.21,271.7 324.97,272.08 325.74,272.85 " stroke-width="0.54225" stroke-linecap="round" stroke-linejoin="round" />
<polyline points="328.41,274.75 332.99,274.75 332.99,275.52 332.61,276.28 332.23,276.66 331.47,277.05 330.32,277.05 329.56,276.66 328.79,275.9 328.41,274.75 328.41,273.99 328.79,272.85 329.56,272.08 330.32,271.7 331.47,271.7 332.23,272.08 332.99,272.85 " stroke-width="0.54225" stroke-linecap="round" stroke-linejoin="round" />
<line x1="345.98" y1="277.05" x2="345.98" y2="271.7" stroke-width="0.54225" stroke-linecap="round" />
<polyline points="345.98,275.9 345.21,276.66 344.45,277.05 343.3,277.05 342.54,276.66 341.78,275.9 341.39,274.75 341.39,273.99 341.78,272.85 342.54,272.08 343.3,271.7 344.45,271.7 345.21,272.08 345.98,272.85 " stroke-width="0.54225" stroke-linecap="round" stroke-linejoin="round" />
<line x1="349.03" y1="277.05" x2="349.03" y2="271.7" stroke-width="0.54225" stroke-linecap="round" />
<polyline points="349.03,275.52 350.18,276.66 350.94,277.05 352.09,277.05 352.85,276.66 353.23,275.52 353.23,271.7 " stroke-width="0.54225" stroke-linecap="round" stroke-linejoin="round" />
<line x1="360.49" y1="279.72" x2="360.49" y2="271.7" stroke-width="0.54225" stroke-linecap="round" />
<polyline points="360.49,275.9 359.72,276.66 358.96,277.05 357.81,277.05 357.05,276.66 356.29,275.9 355.9,274.75 355.9,273.99 356.29,272.85 357.05,272.08 357.81,271.7 358.96,271.7 359.72,272.08 360.49,272.85 " stroke-width="0.54225" stroke-linecap="round" stroke-linejoin="round" />
<line x1="369.65" y1="279.72" x2="369.65" y2="271.7" stroke-width="0.54225" stroke-linecap="round" />
<polyline points="369.65,275.9 370.42,276.66 371.18,277.05 372.32,277.05 373.09,276.66 373.85,275.9 374.23,274.75 374.23,273.99 373.85,272.85 373.09,272.08 372.32,271.7 371.18,271.7 370.42,272.08 369.65,272.85 " stroke-width="0.54225" stroke-linecap="round" stroke-linejoin="round" />
<polyline points="376.53,274.75 381.11,274.75 381.11,275.52 380.73,276.28 380.34,276.66 379.58,277.05 378.43,277.05 377.67,276.66 376.91,275.9 376.53,274.75 376.53,273.99 376.91,272.85 377.67,272.08 378.43,271.7 379.58,271.7 380.34,272.08 381.11,272.85 " stroke-width="0.54225" stroke-linecap="round" stroke-linejoin="round" />
<polyline points="387.6,275.9 387.22,276.66 386.07,277.05 384.93,277.05 383.78,276.66 383.4,275.9 383.78,275.14 384.54,274.75 386.45,274.37 387.22,273.99 387.6,273.23 387.6,272.85 387.22,272.08 386.07,271.7 384.93,271.7 383.78,272.08 383.4,272.85 " stroke-width="0.54225" stroke-linecap="round" stroke-linejoin="round" />
<polyline points="390.65,279.72 390.65,273.23 391.04,272.08 391.8,271.7 392.56,271.7 " stroke-width="0.54225" stroke-linecap="round" stroke-linejoin="round" />
<line x1="389.51" y1="277.05" x2="392.18" y2="277.05" stroke-width="0.54225" stroke-linecap="round" />
<polyline points="403.26,279.72 402.49,279.72 401.73,279.34 401.35,278.19 401.35,271.7 " stroke-width="0.54225" stroke-linecap="round" stroke-linejoin="round" />
<line x1="400.2" y1="277.05" x2="402.87" y2="277.05" stroke-width="0.54225" stroke-linecap="round" />
<polygon points="405.17,279.72 405.55,279.34 405.93,279.72 405.55,280.1 " stroke-width="0.54225" stroke-linejoin="round" />
<line x1="405.55" y1="277.05" x2="405.55" y2="271.7" stroke-width="0.54225" stroke-linecap="round" />
<polyline points="408.98,279.72 408.98,273.23 409.37,272.08 410.13,271.7 410.89,271.7 " stroke-width="0.54225" stroke-linecap="round" stroke-linejoin="round" />
<line x1="407.84" y1="277.05" x2="410.51" y2="277.05" stroke-width="0.54225" stroke-linecap="round" />
<line x1="413.18" y1="277.05" x2="413.18" y2="271.7" stroke-width="0.54225" stroke-linecap="round" />
<polyline points="413.18,275.52 414.33,276.66 415.09,277.05 416.24,277.05 417,276.66 417.39,275.52 417.39,271.7 " stroke-width="0.54225" stroke-linecap="round" stroke-linejoin="round" />
<polyline points="420.06,274.75 424.64,274.75 424.64,275.52 424.26,276.28 423.88,276.66 423.11,277.05 421.97,277.05 421.2,276.66 420.44,275.9 420.06,274.75 420.06,273.99 420.44,272.85 421.2,272.08 421.97,271.7 423.11,271.7 423.88,272.08 424.64,272.85 " stroke-width="0.54225" stroke-linecap="round" stroke-linejoin="round" />
<polyline points="431.13,275.9 430.75,276.66 429.6,277.05 428.46,277.05 427.31,276.66 426.93,275.9 427.31,275.14 428.08,274.75 429.99,274.37 430.75,273.99 431.13,273.23 431.13,272.85 430.75,272.08 429.6,271.7 428.46,271.7 427.31,272.08 426.93,272.85 " stroke-width="0.54225" stroke-linecap="round" stroke-linejoin="round" />
<polyline points="437.62,275.9 437.24,276.66 436.1,277.05 434.95,277.05 433.81,276.66 433.42,275.9 433.81,275.14 434.57,274.75 436.48,274.37 437.24,273.99 437.62,273.23 437.62,272.85 437.24,272.08 436.1,271.7 434.95,271.7 433.81,272.08 433.42,272.85 " stroke-width="0.54225" stroke-linecap="round" stroke-linejoin="round" />
<polyline points="100.03,63.664 100.48,63.903 100.93,63.903 101.38,64.142 101.83,64.858 102.27,75.606 102.72,72.262 103.17,92.802 103.62,85.159 104.07,73.456 104.51,75.845 104.96,84.681 105.41,82.293 105.86,74.65 106.31,77.039 106.76,86.831 107.2,74.65 107.65,75.128 108.1,76.8 108.55,81.815 109,83.726 109.44,94.474 109.89,95.668 110.34,89.458 110.79,99.25 111.24,95.19 111.68,100.92 112.13,99.489 112.58,86.353 113.03,83.726 113.48,89.697 113.92,108.09 114.37,108.09 114.82,100.68 115.27,89.936 115.72,88.503 116.16,108.8 116.61,97.578 117.06,108.33 117.51,105.46 117.96,102.59 118.4,96.145 118.85,80.144 119.3,91.846 119.75,103.79 120.2,94.951 120.64,87.309 121.09,85.637 121.54,90.175 121.99,88.98 122.44,87.07 122.88,104.74 123.33,105.7 123.78,96.862 124.23,104.5 124.68,83.965 125.12,92.324 125.57,92.085 126.02,118.6 126.47,90.891 126.92,97.817 127.36,116.92 127.81,100.92 128.26,104.03 128.71,103.55 129.16,103.79 129.6,85.159 130.05,101.64 130.5,83.726 130.95,92.563 131.4,107.85 131.85,93.757 132.29,107.61 132.74,96.384 133.19,97.817 133.64,106.18 134.09,121.22 134.53,84.443 134.98,106.18 135.43,95.19 135.88,100.21 136.33,100.92 136.77,100.21 137.22,96.623 137.67,107.85 138.12,106.42 138.57,109.76 139.01,102.59 139.46,88.503 139.91,97.578 140.36,110.95 140.81,89.697 141.25,113.34 141.7,90.652 142.15,106.89 142.6,125.04 143.05,109.28 143.49,108.8 143.94,123.37 144.39,103.55 144.84,107.61 145.29,110.24 145.73,92.085 146.18,102.59 146.63,91.13 147.08,90.652 147.53,93.518 147.97,89.219 148.42,92.085 148.87,95.429 149.32,102.12 149.77,93.041 150.21,88.264 150.66,93.041 151.11,85.637 151.56,91.608 152.01,138.18 152.45,98.534 152.9,97.34 153.35,132.69 153.8,108.8 154.25,98.534 154.69,100.68 155.14,157.53 155.59,106.42 156.04,93.279 156.49,108.56 156.93,104.74 157.38,98.534 157.83,118.12 158.28,99.967 158.73,96.862 159.18,98.056 159.62,110.48 160.07,127.19 160.52,103.79 160.97,92.563 161.42,99.25 161.86,93.757 162.31,101.88 162.76,150.12 163.21,121.22 163.66,100.68 164.1,94.474 164.55,137.46 165,97.101 165.45,106.65 165.9,94.951 166.34,91.846 166.79,94.951 167.24,117.64 167.69,105.94 168.14,109.76 168.58,106.42 169.03,107.37 169.48,114.54 169.93,104.27 170.38,102.59 170.82,97.817 171.27,96.384 171.72,123.13 172.17,103.31 172.62,107.61 173.06,109.28 173.51,101.64 173.96,93.996 174.41,125.28 174.86,120.03 175.3,100.68 175.75,125.04 176.2,116.92 176.65,131.49 177.1,93.041 177.54,94.951 177.99,104.5 178.44,143.43 178.89,95.668 179.34,125.52 179.78,110.95 180.23,148.93 180.68,114.54 181.13,98.534 181.58,111.67 182.02,100.68 182.47,141.28 182.92,103.55 183.37,128.63 183.82,96.623 184.27,110.48 184.71,107.37 185.16,110.71 185.61,134.12 186.06,105.46 186.51,87.786 186.95,145.11 187.4,110.24 187.85,98.295 188.3,126.95 188.75,104.5 189.19,100.21 189.64,108.09 190.09,120.27 190.54,135.55 190.99,116.45 191.43,106.89 191.88,100.44 192.33,110 192.78,111.67 193.23,99.25 193.67,111.67 194.12,100.44 194.57,116.69 195.02,106.42 195.47,102.83 195.91,120.98 196.36,134.12 196.81,107.85 197.26,108.8 197.71,129.34 198.15,119.07 198.6,112.86 199.05,137.94 199.5,103.07 199.95,115.97 200.39,99.489 200.84,97.578 201.29,108.56 201.74,104.27 202.19,102.83 202.63,121.7 203.08,121.7 203.53,120.27 203.98,115.97 204.43,129.1 204.87,136.99 205.32,115.73 205.77,116.69 206.22,123.85 206.67,133.64 207.11,117.16 207.56,119.55 208.01,119.07 208.46,113.82 208.91,125.76 209.35,123.37 209.8,103.31 210.25,133.88 210.7,125.04 211.15,133.16 211.6,163.02 212.04,123.85 212.49,113.34 212.94,101.64 213.39,135.31 213.84,119.79 214.28,110.95 214.73,126.24 215.18,143.2 215.63,122.89 216.08,101.4 216.52,121.94 216.97,120.27 217.42,140.81 217.87,127.91 218.32,167.8 218.76,135.31 219.21,149.41 219.66,127.19 220.11,109.28 220.56,109.28 221,135.79 221.45,139.85 221.9,144.87 222.35,137.7 222.8,134.36 223.24,171.86 223.69,142.72 224.14,125.52 224.59,131.49 225.04,166.12 225.48,136.51 225.93,143.2 226.38,168.99 226.83,134.6 227.28,147.26 227.72,142.48 228.17,111.67 228.62,130.3 229.07,125.04 229.52,117.64 229.96,117.16 230.41,122.42 230.86,117.88 231.31,147.02 231.76,130.54 232.2,126.48 232.65,111.67 233.1,122.42 233.55,146.3 234,108.33 234.44,147.26 234.89,113.58 235.34,120.98 235.79,112.62 236.24,117.16 236.69,122.66 237.13,128.15 237.58,120.03 238.03,130.3 238.48,135.08 238.93,125.28 239.37,132.21 239.82,146.06 240.27,150.84 240.72,139.37 241.17,236.1 241.61,132.93 242.06,128.39 242.51,135.79 242.96,127.43 243.41,143.91 243.85,161.35 244.3,126.72 244.75,130.06 245.2,148.69 245.65,130.06 246.09,173.05 246.54,143.2 246.99,191.92 247.44,111.67 247.89,114.54 248.33,137.7 248.78,135.79 249.23,149.17 249.68,118.83 250.13,115.01 250.57,105.22 251.02,145.11 251.47,160.87 251.92,140.33 252.37,144.63 252.81,135.31 253.26,139.85 253.71,145.34 254.16,165.88 254.61,113.82 255.05,149.64 255.5,154.66 255.95,112.39 256.4,120.27 256.85,162.06 257.29,132.93 257.74,117.88 258.19,155.61 258.64,99.728 259.09,146.06 259.53,111.91 259.98,105.46 260.43,103.79 260.88,137.7 261.33,127.91 261.77,115.73 262.22,133.64 262.67,105.7 263.12,110.71 263.57,123.61 264.02,172.09 264.46,130.54 264.91,115.73 265.36,114.3 265.81,125.28 266.26,99.011 266.7,118.36 267.15,120.27 267.6,133.88 268.05,124.81 268.5,142.24 268.94,168.51 269.39,113.82 269.84,127.91 270.29,123.85 270.74,133.88 271.18,129.1 271.63,133.64 272.08,151.79 272.53,118.6 272.98,142.48 273.42,110 273.87,111.19 274.32,110.95 274.77,139.61 275.22,131.49 275.66,126.24 276.11,124.81 276.56,120.75 277.01,152.51 277.46,115.25 277.9,146.78 278.35,139.14 278.8,168.51 279.25,162.54 279.7,116.69 280.14,152.51 280.59,126.95 281.04,185.23 281.49,134.6 281.94,143.91 282.38,132.69 282.83,118.6 283.28,111.19 283.73,145.34 284.18,121.46 284.62,126.72 285.07,121.94 285.52,127.19 285.97,121.7 286.42,113.34 286.86,117.88 287.31,114.06 287.76,118.36 288.21,136.99 288.66,136.75 289.11,128.39 289.55,142.72 290,113.58 290.45,122.89 290.9,136.99 291.35,152.99 291.79,171.38 292.24,115.49 292.69,117.16 293.14,137.46 293.59,158.96 294.03,136.03 294.48,139.37 294.93,137.7 295.38,121.7 295.83,113.58 296.27,135.31 296.72,105.46 297.17,121.46 297.62,174.48 298.07,137.22 298.51,129.82 298.96,120.75 299.41,101.16 299.86,114.3 300.31,126.95 300.75,133.16 301.2,175.68 301.65,126.95 302.1,136.75 302.55,146.3 302.99,104.98 303.44,123.85 303.89,122.42 304.34,120.03 304.79,124.33 305.23,134.6 305.68,141.05 306.13,120.75 306.58,114.77 307.03,110.48 307.47,132.21 307.92,121.46 308.37,127.91 308.82,134.36 309.27,117.88 309.71,120.03 310.16,110.71 310.61,152.75 311.06,171.86 311.51,140.81 311.95,173.53 312.4,127.67 312.85,165.41 313.3,128.87 313.75,168.99 314.19,127.91 314.64,120.27 315.09,112.15 315.54,127.67 315.99,127.91 316.44,111.67 316.88,155.14 317.33,142 317.78,140.57 318.23,123.13 318.68,120.27 319.12,144.63 319.57,137.46 320.02,167.8 320.47,146.06 320.92,179.98 321.36,159.91 321.81,121.22 322.26,137.94 322.71,114.3 323.16,114.54 323.6,149.17 " stroke="red" stroke-width="0.42005" />
<polyline points="323.6,149.17 324.05,138.42 324.5,129.34 324.95,120.03 325.4,145.58 325.84,142.72 326.29,128.87 326.74,128.87 327.19,126.95 327.64,135.08 328.08,129.1 328.53,133.16 328.98,120.51 329.43,127.19 329.88,135.55 330.32,158 330.77,147.49 331.22,116.21 331.67,136.27 332.12,151.55 332.56,126.95 333.01,126.72 333.46,117.88 333.91,115.97 334.36,131.73 334.8,143.2 335.25,133.88 335.7,158.72 336.15,138.42 336.6,110 337.04,140.09 337.49,132.93 337.94,163.74 338.39,109.28 338.84,215.56 339.28,187.86 339.73,117.64 340.18,132.21 340.63,122.89 341.08,182.36 341.53,138.9 341.97,137.94 342.42,192.63 342.87,133.16 343.32,155.38 343.77,125.04 344.21,148.45 344.66,143.2 345.11,140.09 345.56,142.48 346.01,173.53 346.45,218.67 346.9,148.69 347.35,159.67 347.8,136.75 348.25,126 348.69,122.89 349.14,150.6 349.59,131.73 350.04,120.03 350.49,117.64 350.93,120.27 351.38,132.45 351.83,142.24 352.28,154.18 352.73,122.18 353.17,134.6 353.62,123.85 354.07,143.91 354.52,128.63 354.97,137.7 355.41,149.88 355.86,157.76 356.31,120.03 356.76,122.18 357.21,176.63 357.65,147.49 358.1,134.12 358.55,115.97 359,158 359.45,127.91 359.89,165.17 360.34,129.82 360.79,158.72 361.24,157.05 361.69,195.02 362.13,141.52 362.58,115.97 363.03,159.44 363.48,123.61 363.93,129.82 364.37,184.51 364.82,130.54 365.27,166.12 365.72,160.87 366.17,169.23 366.61,172.57 367.06,157.76 367.51,206.49 367.96,134.36 368.41,138.66 368.86,143.67 369.3,138.9 369.75,126.24 370.2,145.11 370.65,115.97 371.1,138.9 371.54,158.96 371.99,126.95 372.44,143.67 372.89,185.47 373.34,148.45 373.78,135.55 374.23,121.7 374.68,159.2 375.13,184.51 375.58,220.58 376.02,161.35 376.47,126.95 376.92,158.24 377.37,128.15 377.82,158.72 378.26,131.97 378.71,159.91 379.16,156.57 379.61,151.08 380.06,146.78 380.5,134.36 380.95,151.08 381.4,164.21 381.85,148.21 382.3,114.54 382.74,162.3 383.19,146.3 383.64,141.05 384.09,142.24 384.54,173.05 384.98,151.79 385.43,156.57 385.88,161.82 386.33,147.97 386.78,111.67 387.22,134.6 387.67,138.9 388.12,129.58 388.57,145.82 389.02,163.5 389.46,131.97 389.91,136.03 390.36,128.87 390.81,130.3 391.26,145.82 391.7,168.99 392.15,141.28 392.6,152.03 393.05,152.51 393.5,149.41 393.95,157.05 394.39,150.84 394.84,140.33 395.29,158 395.74,150.6 396.19,134.6 396.63,198.37 397.08,162.06 397.53,135.08 397.98,154.66 398.43,145.11 398.87,133.4 399.32,163.26 399.77,129.34 400.22,147.26 400.67,148.93 401.11,153.94 401.56,132.69 402.01,199.56 402.46,172.81 402.91,117.88 403.35,143.91 403.8,207.92 404.25,126.24 404.7,139.37 405.15,133.64 405.59,160.39 406.04,162.54 406.49,203.38 406.94,163.26 407.39,141.76 407.83,130.78 408.28,142.24 408.73,212.93 409.18,136.75 409.63,129.34 410.07,157.05 410.52,181.65 410.97,114.06 411.42,160.87 411.87,145.82 412.31,106.89 412.76,117.16 413.21,148.45 413.66,114.54 414.11,147.02 414.55,136.99 415,132.69 415.45,128.39 415.9,135.79 416.35,191.2 416.79,139.61 417.24,110.48 417.69,169.23 418.14,122.42 418.59,143.43 419.03,229.65 419.48,183.08 419.93,164.21 420.38,168.51 420.83,152.75 421.28,154.18 421.72,177.35 422.17,143.67 422.62,189.53 423.07,112.86 423.52,186.42 423.96,219.86 424.41,139.14 424.86,137.7 425.31,136.03 425.76,122.89 426.2,170.66 426.65,157.05 427.1,141.28 427.55,192.39 428,121.46 428.44,136.51 428.89,163.02 429.34,150.36 429.79,194.54 430.24,179.74 430.68,153.94 431.13,185.47 431.58,139.14 432.03,163.97 432.48,158 432.92,145.58 433.37,160.87 433.82,136.03 434.27,149.64 434.72,138.66 435.16,161.59 435.61,129.34 436.06,186.66 436.51,166.84 436.96,129.34 437.4,139.37 437.85,159.44 438.3,143.67 438.75,131.01 439.2,135.08 439.64,226.07 440.09,162.06 440.54,134.6 440.99,116.21 441.44,170.18 441.88,143.43 442.33,123.13 442.78,107.13 443.23,150.12 443.68,154.66 444.12,128.15 444.57,118.83 445.02,139.14 445.47,113.1 445.92,159.44 446.36,167.8 446.81,129.34 447.26,178.78 447.71,143.2 448.16,131.01 448.61,131.49 449.05,125.52 449.5,162.3 449.95,126.48 450.4,163.26 450.85,137.7 451.29,136.27 451.74,130.06 452.19,128.39 452.64,118.83 453.09,142 453.53,123.37 453.98,130.06 454.43,122.89 454.88,123.13 455.33,141.05 455.77,155.85 456.22,126.72 456.67,132.45 457.12,198.37 457.57,119.07 458.01,155.85 458.46,145.11 458.91,133.16 459.36,135.08 459.81,131.25 460.25,126.72 460.7,102.59 461.15,113.1 461.6,130.3 462.05,120.75 462.49,128.39 462.94,121.46 463.39,129.34 463.84,143.2 464.29,128.15 464.73,134.6 465.18,113.1 465.63,132.69 466.08,123.61 466.53,127.43 466.97,155.14 467.42,120.75 467.87,149.41 468.32,117.16 468.77,137.22 469.21,149.17 469.66,135.55 470.11,118.83 470.56,112.86 471.01,124.09 471.45,152.03 471.9,133.16 472.35,146.3 472.8,168.03 473.25,154.9 473.7,128.39 474.14,133.16 474.59,124.33 475.04,147.97 475.49,146.78 475.94,144.63 476.38,154.18 476.83,141.52 477.28,158.96 477.73,126.72 478.18,130.06 478.62,155.85 479.07,165.41 479.52,131.73 479.97,150.84 480.42,161.59 480.86,123.13 481.31,108.09 481.76,166.12 482.21,126.48 482.66,129.82 483.1,135.31 483.55,197.41 484,168.99 484.45,155.14 484.9,146.3 485.34,112.15 485.79,138.42 486.24,115.01 486.69,160.87 487.14,142 487.58,113.34 488.03,147.97 488.48,140.81 488.93,128.15 489.38,110 489.82,138.18 490.27,123.37 490.72,184.51 491.17,94.712 491.62,128.39 492.06,141.05 492.51,119.07 492.96,115.01 493.41,129.34 493.86,127.91 494.3,121.46 494.75,126 495.2,122.89 495.65,102.83 496.1,124.81 496.54,128.87 496.99,117.88 497.44,126.72 497.89,141.05 498.34,145.58 498.78,128.39 499.23,121.94 499.68,120.27 500.13,121.94 500.58,121.22 501.03,177.83 501.47,144.15 501.92,139.37 502.37,144.63 502.82,163.74 503.27,131.25 503.71,115.01 504.16,130.06 504.61,146.54 505.06,149.17 505.51,139.37 505.95,115.97 506.4,122.42 506.85,112.86 507.3,145.58 507.75,149.64 508.19,132.21 508.64,161.82 509.09,142.72 509.54,190.96 509.99,159.44 510.43,120.51 510.88,119.55 511.33,155.61 511.78,131.73 512.23,111.91 512.67,114.3 513.12,121.7 513.57,188.1 514.02,228.46 514.47,135.31 514.91,157.76 515.36,136.75 515.81,209.11 516.26,146.54 516.71,138.18 517.15,182.6 517.6,143.91 518.05,179.02 518.5,132.21 518.95,164.45 519.39,144.39 519.84,179.26 520.29,133.64 520.74,199.32 521.19,152.75 521.63,176.39 522.08,146.78 522.53,214.13 522.98,171.14 523.43,139.85 523.87,165.88 524.32,147.97 524.77,137.94 525.22,169.94 525.67,175.2 526.12,190.01 526.56,200.99 527.01,138.9 527.46,122.18 527.91,137.7 528.36,144.87 528.8,174.96 529.25,191.2 529.7,137.46 530.15,146.78 530.6,146.54 531.04,162.78 531.49,166.36 531.94,135.08 532.39,170.42 532.84,152.03 533.28,162.06 533.73,179.74 534.18,238.49 534.63,156.33 535.08,176.15 535.52,175.92 535.97,172.33 536.42,164.21 536.87,136.51 537.32,157.29 537.76,155.61 538.21,247.33 538.66,136.99 539.11,198.37 539.56,254.97 540,161.35 540.45,173.05 540.9,125.28 541.35,140.09 541.8,166.6 542.24,171.62 542.69,191.2 543.14,134.12 543.59,145.58 544.04,149.88 544.48,176.39 544.93,156.09 545.38,190.96 545.83,158.24 546.28,127.91 546.72,140.33 547.17,114.3 " stroke="red" stroke-width="0.42005" />
<line x1="547.17" y1="114.3" x2="547.62" y2="175.92" stroke="red" stroke-width="0.42005" />
<polyline points="100.03,61.644 100.48,61.763 100.93,61.789 101.38,61.844 101.83,61.911 102.27,62.145 102.72,62.601 103.17,62.931 103.62,62.523 104.07,63.134 104.51,63.036 104.96,63.115 105.41,62.886 105.86,62.883 106.31,62.917 106.76,62.945 107.2,63.112 107.65,62.532 108.1,63.132 108.55,63.28 109,63.581 109.44,63.332 109.89,63.807 110.34,63.411 110.79,64.173 111.24,64.087 111.68,63.721 112.13,64.28 112.58,63.557 113.03,63.683 113.48,64.159 113.92,65.343 114.37,65.248 114.82,64.727 115.27,64.008 115.72,64.163 116.16,65.503 116.61,66.291 117.06,65.095 117.51,64.87 117.96,65.627 118.4,64.751 118.85,63.37 119.3,63.874 119.75,64.144 120.2,63.984 120.64,64.76 121.09,65.558 121.54,64.605 121.99,65.283 122.44,65.508 122.88,65.154 123.33,65.933 123.78,66.506 124.23,66.11 124.68,65.004 125.12,65.484 125.57,65.68 126.02,65.264 126.47,66.339 126.92,65.061 127.36,65.895 127.81,66.7 128.26,66.936 128.71,67.268 129.16,67.71 129.6,65.427 130.05,67.485 130.5,64.421 130.95,65.186 131.4,66.064 131.85,65.744 132.29,66.313 132.74,66.9 133.19,66.58 133.64,66.547 134.09,65.713 134.53,65.594 134.98,65.84 135.43,65.816 135.88,67.462 136.33,66.485 136.77,68.61 137.22,67.013 137.67,67.125 138.12,67.478 138.57,67.977 139.01,67.691 139.46,67.013 139.91,67.423 140.36,67.421 140.81,67.068 141.25,67.82 141.7,65.912 142.15,69.377 142.6,68.828 143.05,68.391 143.49,68.512 143.94,67.937 144.39,66.181 144.84,67.958 145.29,66.122 145.73,66.506 146.18,66.062 146.63,67.33 147.08,65.568 147.53,66.602 147.97,67.082 148.42,66.413 148.87,66.97 149.32,67.579 149.77,66.685 150.21,66.576 150.66,66.105 151.11,64.651 151.56,66.208 152.01,68.011 152.45,66.442 152.9,67.38 153.35,68.544 153.8,66.408 154.25,66.036 154.69,67.12 155.14,67.791 155.59,66.513 156.04,66.191 156.49,67.896 156.93,68.395 157.38,66.924 157.83,66.038 158.28,66.425 158.73,67.084 159.18,68.575 159.62,67.798 160.07,68.393 160.52,66.79 160.97,67.686 161.42,67.858 161.86,66.031 162.31,67.266 162.76,68.407 163.21,67.189 163.66,68.052 164.1,68.918 164.55,67.063 165,68.214 165.45,67.096 165.9,67.686 166.34,66.279 166.79,67.364 167.24,66.931 167.69,67.698 168.14,67.292 168.58,67.825 169.03,68.343 169.48,68.025 169.93,68.921 170.38,67.882 170.82,67.225 171.27,67.583 171.72,67.712 172.17,67.507 172.62,67.689 173.06,67.091 173.51,67.094 173.96,65.957 174.41,69.506 174.86,67.569 175.3,67.636 175.75,70.581 176.2,68.945 176.65,67.808 177.1,67.38 177.54,66.525 177.99,68.763 178.44,68.202 178.89,66.521 179.34,70.258 179.78,69.265 180.23,69.592 180.68,68.135 181.13,67.703 181.58,68.448 182.02,67.612 182.47,71.34 182.92,67.574 183.37,69.439 183.82,67.249 184.27,69.962 184.71,68.88 185.16,67.361 185.61,68.331 186.06,67.696 186.51,66.743 186.95,67.165 187.4,67.514 187.85,67.447 188.3,68.083 188.75,68.782 189.19,67.232 189.64,66.869 190.09,67.72 190.54,68.281 190.99,69.119 191.43,68.173 191.88,69.881 192.33,67.887 192.78,68.572 193.23,67.65 193.67,69.461 194.12,68.298 194.57,70.707 195.02,67.758 195.47,68.319 195.91,67.987 196.36,69.375 196.81,68.345 197.26,68.121 197.71,69.881 198.15,69.339 198.6,68.262 199.05,70.308 199.5,69.883 199.95,69.934 200.39,69.628 200.84,67.729 201.29,69.456 201.74,68.386 202.19,69.057 202.63,69.807 203.08,69.537 203.53,68.111 203.98,69.843 204.43,69.91 204.87,69.85 205.32,69.929 205.77,70.115 206.22,70.273 206.67,69.012 207.11,69.387 207.56,72.145 208.01,70.922 208.46,69.351 208.91,70.168 209.35,71.049 209.8,68.243 210.25,70.409 210.7,69.365 211.15,71.495 211.6,70.177 212.04,68.219 212.49,69.239 212.94,69.265 213.39,71.185 213.84,71.147 214.28,69.883 214.73,72.035 215.18,69.862 215.63,69.783 216.08,68.221 216.52,68.95 216.97,70.246 217.42,71.39 217.87,70.781 218.32,72.647 218.76,74.459 219.21,73.53 219.66,72.2 220.11,69.387 220.56,74.003 221,76.236 221.45,75.176 221.9,73.855 222.35,76.282 222.8,74.142 223.24,76.817 223.69,76.814 224.14,71.765 224.59,74.302 225.04,71.247 225.48,72.525 225.93,78.082 226.38,76.389 226.83,75.818 227.28,73.97 227.72,71.02 228.17,72.37 228.62,71.999 229.07,69.143 229.52,71.171 229.96,71.579 230.41,71.424 230.86,70.97 231.31,70.062 231.76,70.266 232.2,71.238 232.65,71.149 233.1,71.171 233.55,72.417 234,70.619 234.44,72.608 234.89,69.64 235.34,70.834 235.79,70.402 236.24,72.062 236.69,73.619 237.13,72.907 237.58,71.632 238.03,71.195 238.48,71.894 238.93,73.92 239.37,72.931 239.82,73.475 240.27,72.394 240.72,75.059 241.17,75.03 241.61,74.223 242.06,78.147 242.51,76.454 242.96,73.561 243.41,75.63 243.85,74.161 244.3,73.75 244.75,74.24 245.2,76.196 245.65,73.32 246.09,76.148 246.54,77.247 246.99,76.683 247.44,72.568 247.89,72.995 248.33,74.194 248.78,76.167 249.23,74.077 249.68,71.77 250.13,73.848 250.57,72.809 251.02,74.581 251.47,76.535 251.92,73.631 252.37,75.591 252.81,71.589 253.26,75.508 253.71,73.172 254.16,75.625 254.61,73.194 255.05,72.093 255.5,71.383 255.95,70.514 256.4,71.154 256.85,73.559 257.29,73.413 257.74,71.46 258.19,72.272 258.64,71.648 259.09,71.505 259.53,70.488 259.98,70.559 260.43,68.892 260.88,69.439 261.33,70.846 261.77,69.563 262.22,71.82 262.67,69.083 263.12,72.26 263.57,71.309 264.02,70.557 264.46,69.998 264.91,71.507 265.36,70.363 265.81,69.155 266.26,69.432 266.7,70.698 267.15,70.597 267.6,71.491 268.05,71.768 268.5,71.522 268.94,73.559 269.39,72.093 269.84,70.089 270.29,69.63 270.74,72.558 271.18,71.089 271.63,70.908 272.08,71.233 272.53,72.243 272.98,73.272 273.42,71.567 273.87,70.815 274.32,72.25 274.77,72.365 275.22,73.468 275.66,72.233 276.11,73.597 276.56,72.606 277.01,72.838 277.46,68.376 277.9,73.208 278.35,71.207 278.8,72.754 279.25,76.836 279.7,72.243 280.14,73.017 280.59,70.929 281.04,76.712 281.49,76.721 281.94,75.037 282.38,74.684 282.83,71.906 283.28,71.98 283.73,71.199 284.18,73.518 284.62,72.575 285.07,72.971 285.52,73.086 285.97,73.275 286.42,70.937 286.86,73.473 287.31,72.198 287.76,74.486 288.21,71.178 288.66,72.293 289.11,72.58 289.55,72.038 290,73.791 290.45,73.881 290.9,75.871 291.35,77.574 291.79,76.363 292.24,75.501 292.69,72.214 293.14,71.741 293.59,71.82 294.03,74.548 294.48,73.85 294.93,72.666 295.38,73.786 295.83,70.328 296.27,71.72 296.72,70.223 297.17,69.341 297.62,72.064 298.07,72.145 298.51,72.604 298.96,73.318 299.41,70.667 299.86,71.302 300.31,72.382 300.75,74.693 301.2,69.991 301.65,72.198 302.1,72.522 302.55,73.533 302.99,70.836 303.44,70.982 303.89,71.854 304.34,72.802 304.79,71.245 305.23,76.224 305.68,71.204 306.13,72.489 306.58,70.614 307.03,72.121 307.47,71.952 307.92,68.813 308.37,73.454 308.82,72.859 309.27,71.512 309.71,72.759 310.16,72.625 310.61,72.678 311.06,75.197 311.51,71.476 311.95,74.667 312.4,75.608 312.85,75.978 313.3,72.773 313.75,74.08 314.19,72.329 314.64,74.182 315.09,71.507 315.54,72.778 315.99,74.982 316.44,71.94 316.88,75.701 317.33,75.023 317.78,73.253 318.23,74.662 318.68,77.402 319.12,74.796 319.57,76.329 320.02,77.144 320.47,78.591 320.92,76.955 321.36,75.431 321.81,75.35 322.26,76.542 322.71,73.554 323.16,73.604 323.6,77.891 " stroke="blue" stroke-width="0.42005" />
<polyline points="323.6,77.891 324.05,76.585 324.5,74.139 324.95,74.567 325.4,75.52 325.84,75.009 326.29,75.685 326.74,76.091 327.19,75.666 327.64,73.581 328.08,73.803 328.53,72.742 328.98,73.074 329.43,71.839 329.88,72.308 330.32,74.569 330.77,72.73 331.22,72.241 331.67,72.016 332.12,71.056 332.56,71.512 333.01,73.748 333.46,72.742 333.91,73.129 334.36,72.088 334.8,75.336 335.25,75.195 335.7,73.062 336.15,73.657 336.6,77.33 337.04,75.477 337.49,73.074 337.94,76.893 338.39,75.004 338.84,77.082 339.28,77.65 339.73,74.803 340.18,75.233 340.63,73.12 341.08,74.295 341.53,75.642 341.97,76.091 342.42,76.432 342.87,72.589 343.32,76.764 343.77,74.316 344.21,78.297 344.66,75.212 345.11,77.347 345.56,74.99 346.01,76.069 346.45,76.599 346.9,77.739 347.35,75.458 347.8,73.616 348.25,74.45 348.69,75.111 349.14,73.217 349.59,73.736 350.04,72.272 350.49,73.533 350.93,72.042 351.38,76.184 351.83,76.365 352.28,75.981 352.73,75.209 353.17,76.511 353.62,73.196 354.07,75.362 354.52,76.716 354.97,78.331 355.41,78.412 355.86,77.712 356.31,75.293 356.76,74.951 357.21,80.633 357.65,79.069 358.1,77.175 358.55,74.481 359,76.382 359.45,77.18 359.89,77.863 360.34,75.326 360.79,76.979 361.24,76.179 361.69,76.497 362.13,75.864 362.58,71.88 363.03,75.482 363.48,76.294 363.93,75.133 364.37,75.068 364.82,74.949 365.27,75.393 365.72,77.347 366.17,78.574 366.61,78.178 367.06,75.367 367.51,79.222 367.96,76.093 368.41,76.282 368.86,79.881 369.3,76.072 369.75,75.388 370.2,75.295 370.65,72.924 371.1,76.191 371.54,75.505 371.99,74.357 372.44,75.806 372.89,76.927 373.34,76.365 373.78,77.316 374.23,74.139 374.68,79.859 375.13,80.803 375.58,79.998 376.02,80.225 376.47,75.477 376.92,76.568 377.37,76.685 377.82,76.029 378.26,75.14 378.71,74.287 379.16,78.391 379.61,78.362 380.06,75.649 380.5,78.02 380.95,75.768 381.4,74.307 381.85,77.989 382.3,74.111 382.74,78.971 383.19,76.019 383.64,76.891 384.09,78.142 384.54,78.417 384.98,78.835 385.43,80.136 385.88,80.153 386.33,78.326 386.78,77.497 387.22,77.196 387.67,76.267 388.12,76.525 388.57,74.899 389.02,75.754 389.46,75.212 389.91,76.657 390.36,77.495 390.81,77.168 391.26,79.441 391.7,82.697 392.15,76.358 392.6,79.038 393.05,78.871 393.5,75.744 393.95,76.284 394.39,76.984 394.84,78.157 395.29,75.723 395.74,77.901 396.19,76.413 396.63,80.122 397.08,75.214 397.53,77.168 397.98,80.187 398.43,74.963 398.87,75.197 399.32,76.953 399.77,77.151 400.22,74.667 400.67,77.333 401.11,79.217 401.56,77.624 402.01,80.662 402.46,76.387 402.91,75.644 403.35,76.275 403.8,76.621 404.25,76.74 404.7,78.534 405.15,75.947 405.59,76.138 406.04,78.981 406.49,79.998 406.94,78.942 407.39,78.336 407.83,75.763 408.28,73.793 408.73,79.401 409.18,73.203 409.63,77.82 410.07,79.819 410.52,74.104 410.97,74.151 411.42,75.926 411.87,77.199 412.31,71.902 412.76,75.04 413.21,76.516 413.66,74.256 414.11,77.784 414.55,75.498 415,76.253 415.45,77.586 415.9,75.279 416.35,79.991 416.79,77.655 417.24,75.195 417.69,77.132 418.14,74.321 418.59,76.392 419.03,79.597 419.48,79.069 419.93,80.225 420.38,78.085 420.83,76.645 421.28,75.47 421.72,76.509 422.17,75.575 422.62,73.401 423.07,74.08 423.52,76.838 423.96,78.016 424.41,74.469 424.86,78.204 425.31,79.344 425.76,75.228 426.2,74.006 426.65,74.178 427.1,76.821 427.55,78.24 428,74.796 428.44,76.124 428.89,74.768 429.34,79.468 429.79,76.095 430.24,79.451 430.68,78.281 431.13,77.946 431.58,75.025 432.03,77.266 432.48,77.027 432.92,77.316 433.37,79.078 433.82,77.717 434.27,76.117 434.72,75.766 435.16,74.72 435.61,79.551 436.06,75.436 436.51,77.81 436.96,76.564 437.4,81.698 437.85,78.938 438.3,78.68 438.75,77.392 439.2,72.9 439.64,77.33 440.09,76.599 440.54,75.31 440.99,72.675 441.44,74.13 441.88,73.717 442.33,72.379 442.78,71.156 443.23,73.177 443.68,74.605 444.12,73.435 444.57,71.3 445.02,74.115 445.47,71.985 445.92,77.07 446.36,75.544 446.81,77.872 447.26,76.098 447.71,74.173 448.16,77.559 448.61,75.19 449.05,73.81 449.5,78.004 449.95,76.387 450.4,71.216 450.85,74.28 451.29,72.745 451.74,74.213 452.19,74.596 452.64,73.022 453.09,74.956 453.53,74.318 453.98,74.23 454.43,73.607 454.88,72.823 455.33,73.96 455.77,74.815 456.22,72.157 456.67,76.85 457.12,73.01 457.57,74.276 458.01,73.272 458.46,77.665 458.91,74.285 459.36,73.549 459.81,70.97 460.25,75.066 460.7,70.803 461.15,72.305 461.6,73.803 462.05,74.751 462.49,75.847 462.94,72.883 463.39,74.83 463.84,74.447 464.29,72.396 464.73,73.893 465.18,74.992 465.63,74.018 466.08,74.662 466.53,72.795 466.97,74.039 467.42,70.87 467.87,73.49 468.32,71.992 468.77,73.186 469.21,72.831 469.66,72.764 470.11,71.199 470.56,70.946 471.01,73.263 471.45,74.35 471.9,73.609 472.35,74.916 472.8,74.137 473.25,75.243 473.7,73.652 474.14,75.656 474.59,73.621 475.04,74.732 475.49,76.456 475.94,75.169 476.38,77.067 476.83,72.513 477.28,75.279 477.73,76.948 478.18,73.886 478.62,74.636 479.07,74.092 479.52,73.442 479.97,70.765 480.42,74.256 480.86,71.851 481.31,71.061 481.76,73.077 482.21,72.085 482.66,73.807 483.1,74.662 483.55,70.996 484,78.737 484.45,74.357 484.9,73.473 485.34,73.671 485.79,72.446 486.24,69.575 486.69,75.243 487.14,75.295 487.58,71.663 488.03,74.634 488.48,75.747 488.93,76.494 489.38,73.485 489.82,72.919 490.27,70.827 490.72,75.269 491.17,69.972 491.62,72.05 492.06,73.296 492.51,71.799 492.96,70.898 493.41,71.147 493.86,71.57 494.3,74.008 494.75,70.282 495.2,70.411 495.65,69.628 496.1,70.729 496.54,71.056 496.99,70.356 497.44,72.248 497.89,72.907 498.34,70.485 498.78,71.603 499.23,73.757 499.68,71.087 500.13,73.721 500.58,74.982 501.03,75.768 501.47,75.217 501.92,73.246 502.37,71.648 502.82,73.922 503.27,72.826 503.71,74.361 504.16,73.963 504.61,75.849 505.06,74.703 505.51,73.112 505.95,72.606 506.4,73.143 506.85,71.985 507.3,73.695 507.75,74.963 508.19,75.092 508.64,72.771 509.09,75.085 509.54,75.876 509.99,76.033 510.43,72.651 510.88,74.643 511.33,74.76 511.78,72.871 512.23,72.109 512.67,71.632 513.12,74.225 513.57,72.888 514.02,78.293 514.47,72.974 514.91,72.64 515.36,74.111 515.81,75.79 516.26,76.9 516.71,77.411 517.15,76.881 517.6,74.106 518.05,77.256 518.5,74.209 518.95,78.059 519.39,75.639 519.84,75.226 520.29,76.623 520.74,78.703 521.19,79.637 521.63,79.988 522.08,79.506 522.53,82.286 522.98,77.003 523.43,75.685 523.87,77.282 524.32,76.088 524.77,76.654 525.22,77.376 525.67,78.844 526.12,80.488 526.56,78.887 527.01,76.126 527.46,73.846 527.91,75.525 528.36,75.334 528.8,72.917 529.25,77.079 529.7,76.599 530.15,78.276 530.6,76.217 531.04,78.097 531.49,76.633 531.94,76.628 532.39,76.817 532.84,75.615 533.28,77.946 533.73,78.259 534.18,79.269 534.63,78.57 535.08,78.82 535.52,76.103 535.97,77.822 536.42,75.166 536.87,78.159 537.32,81.309 537.76,80.234 538.21,82.15 538.66,80.122 539.11,79.296 539.56,80.49 540,78.856 540.45,78.792 540.9,79.812 541.35,79.929 541.8,78.62 542.24,75.718 542.69,78.438 543.14,76.368 543.59,75.529 544.04,76.645 544.48,77.98 544.93,75.348 545.38,77.894 545.83,75.945 546.28,75.314 546.72,78.431 547.17,75.661 " stroke="blue" stroke-width="0.42005" />
<line x1="547.17" y1="75.661" x2="547.62" y2="75.467" stroke="blue" stroke-width="0.42005" />
<line x1="570" y1="59.604" x2="566.85" y2="59.604" stroke-width="0.70588" />
<line x1="570" y1="71.546" x2="566.85" y2="71.546" stroke-width="0.70588" />
<line x1="570" y1="83.487" x2="566.85" y2="83.487" stroke-width="0.70588" />
<line x1="570" y1="95.429" x2="566.85" y2="95.429" stroke-width="0.70588" />
<line x1="570" y1="107.37" x2="566.85" y2="107.37" stroke-width="0.70588" />
<line x1="570" y1="119.31" x2="566.85" y2="119.31" stroke-width="0.70588" />
<line x1="570" y1="131.25" x2="566.85" y2="131.25" stroke-width="0.70588" />
<line x1="570" y1="143.2" x2="566.85" y2="143.2" stroke-width="0.70588" />
<line x1="570" y1="155.14" x2="566.85" y2="155.14" stroke-width="0.70588" />
<line x1="570" y1="167.08" x2="566.85" y2="167.08" stroke-width="0.70588" />
<line x1="570" y1="179.02" x2="566.85" y2="179.02" stroke-width="0.70588" />
<line x1="570" y1="190.96" x2="566.85" y2="190.96" stroke-width="0.70588" />
<line x1="570" y1="202.9" x2="566.85" y2="202.9" stroke-width="0.70588" />
<line x1="570" y1="214.85" x2="566.85" y2="214.85" stroke-width="0.70588" />
<line x1="570" y1="226.79" x2="566.85" y2="226.79" stroke-width="0.70588" />
<line x1="570" y1="238.73" x2="566.85" y2="238.73" stroke-width="0.70588" />
<line x1="570" y1="250.67" x2="566.85" y2="250.67" stroke-width="0.70588" />
<line x1="570" y1="262.61" x2="566.85" y2="262.61" stroke-width="0.70588" />
<line x1="570" y1="59.604" x2="563.7" y2="59.604" stroke-width="0.70588" />
<line x1="570" y1="107.37" x2="563.7" y2="107.37" stroke-width="0.70588" />
<line x1="570" y1="155.14" x2="563.7" y2="155.14" stroke-width="0.70588" />
<line x1="570" y1="202.9" x2="563.7" y2="202.9" stroke-width="0.70588" />
<line x1="570" y1="250.67" x2="563.7" y2="250.67" stroke-width="0.70588" />
<line x1="570" y1="51.977" x2="570" y2="264.64" stroke-width="0.70588" />
<line x1="100.03" y1="264.64" x2="100.03" y2="261.48" stroke-width="0.70588" />
<line x1="122.44" y1="264.64" x2="122.44" y2="261.48" stroke-width="0.70588" />
<line x1="144.84" y1="264.64" x2="144.84" y2="261.48" stroke-width="0.70588" />
<line x1="167.24" y1="264.64" x2="167.24" y2="261.48" stroke-width="0.70588" />
<line x1="189.64" y1="264.64" x2="189.64" y2="261.48" stroke-width="0.70588" />
<line x1="212.04" y1="264.64" x2="212.04" y2="261.48" stroke-width="0.70588" />
<line x1="234.44" y1="264.64" x2="234.44" y2="261.48" stroke-width="0.70588" />
<line x1="256.85" y1="264.64" x2="256.85" y2="261.48" stroke-width="0.70588" />
<line x1="279.25" y1="264.64" x2="279.25" y2="261.48" stroke-width="0.70588" />
<line x1="301.65" y1="264.64" x2="301.65" y2="261.48" stroke-width="0.70588" />
<line x1="324.05" y1="264.64" x2="324.05" y2="261.48" stroke-width="0.70588" />
<line x1="346.45" y1="264.64" x2="346.45" y2="261.48" stroke-width="0.70588" />
<line x1="368.86" y1="264.64" x2="368.86" y2="261.48" stroke-width="0.70588" />
<line x1="391.26" y1="264.64" x2="391.26" y2="261.48" stroke-width="0.70588" />
<line x1="413.66" y1="264.64" x2="413.66" y2="261.48" stroke-width="0.70588" />
<line x1="436.06" y1="264.64" x2="436.06" y2="261.48" stroke-width="0.70588" />
<line x1="458.46" y1="264.64" x2="458.46" y2="261.48" stroke-width="0.70588" />
<line x1="480.86" y1="264.64" x2="480.86" y2="261.48" stroke-width="0.70588" />
<line x1="503.27" y1="264.64" x2="503.27" y2="261.48" stroke-width="0.70588" />
<line x1="525.67" y1="264.64" x2="525.67" y2="261.48" stroke-width="0.70588" />
<line x1="548.07" y1="264.64" x2="548.07" y2="261.48" stroke-width="0.70588" />
<line x1="100.03" y1="264.64" x2="100.03" y2="258.33" stroke-width="0.70588" />
<line x1="189.64" y1="264.64" x2="189.64" y2="258.33" stroke-width="0.70588" />
<line x1="279.25" y1="264.64" x2="279.25" y2="258.33" stroke-width="0.70588" />
<line x1="368.86" y1="264.64" x2="368.86" y2="258.33" stroke-width="0.70588" />
<line x1="458.46" y1="264.64" x2="458.46" y2="258.33" stroke-width="0.70588" />
<line x1="548.07" y1="264.64" x2="548.07" y2="258.33" stroke-width="0.70588" />
<line x1="77.655" y1="264.64" x2="570" y2="264.64" stroke-width="0.70588" />
<line x1="77.655" y1="59.604" x2="80.806" y2="59.604" stroke-width="0.70588" />
<line x1="77.655" y1="71.546" x2="80.806" y2="71.546" stroke-width="0.70588" />
<line x1="77.655" y1="83.487" x2="80.806" y2="83.487" stroke-width="0.70588" />
<line x1="77.655" y1="95.429" x2="80.806" y2="95.429" stroke-width="0.70588" />
<line x1="77.655" y1="107.37" x2="80.806" y2="107.37" stroke-width="0.70588" />
<line x1="77.655" y1="119.31" x2="80.806" y2="119.31" stroke-width="0.70588" />
<line x1="77.655" y1="131.25" x2="80.806" y2="131.25" stroke-width="0.70588" />
<line x1="77.655" y1="143.2" x2="80.806" y2="143.2" stroke-width="0.70588" />
<line x1="77.655" y1="155.14" x2="80.806" y2="155.14" stroke-width="0.70588" />
<line x1="77.655" y1="167.08" x2="80.806" y2="167.08" stroke-width="0.70588" />
<line x1="77.655" y1="179.02" x2="80.806" y2="179.02" stroke-width="0.70588" />
<line x1="77.655" y1="190.96" x2="80.806" y2="190.96" stroke-width="0.70588" />
<line x1="77.655" y1="202.9" x2="80.806" y2="202.9" stroke-width="0.70588" />
<line x1="77.655" y1="214.85" x2="80.806" y2="214.85" stroke-width="0.70588" />
<line x1="77.655" y1="226.79" x2="80.806" y2="226.79" stroke-width="0.70588" />
<line x1="77.655" y1="238.73" x2="80.806" y2="238.73" stroke-width="0.70588" />
<line x1="77.655" y1="250.67" x2="80.806" y2="250.67" stroke-width="0.70588" />
<line x1="77.655" y1="262.61" x2="80.806" y2="262.61" stroke-width="0.70588" />
<line x1="77.655" y1="59.604" x2="83.956" y2="59.604" stroke-width="0.70588" />
<line x1="77.655" y1="107.37" x2="83.956" y2="107.37" stroke-width="0.70588" />
<line x1="77.655" y1="155.14" x2="83.956" y2="155.14" stroke-width="0.70588" />
<line x1="77.655" y1="202.9" x2="83.956" y2="202.9" stroke-width="0.70588" />
<line x1="77.655" y1="250.67" x2="83.956" y2="250.67" stroke-width="0.70588" />
<line x1="77.655" y1="51.977" x2="77.655" y2="264.64" stroke-width="0.70588" />
<polygon points="67.154,64.186 66.008,63.805 65.245,62.659 64.863,60.75 64.863,59.604 65.245,57.695 66.008,56.549 67.154,56.167 67.918,56.167 69.063,56.549 69.827,57.695 70.209,59.604 70.209,60.75 69.827,62.659 69.063,63.805 67.918,64.186 " stroke-width="0.54225" stroke-linejoin="round" />
<polyline points="49.97,110.04 49.97,110.43 50.352,111.19 50.734,111.57 51.497,111.95 53.025,111.95 53.789,111.57 54.171,111.19 54.552,110.43 54.552,109.66 54.171,108.9 53.407,107.75 49.588,103.93 54.934,103.93 " stroke-width="0.54225" stroke-linecap="round" stroke-linejoin="round" />
<polyline points="59.517,111.95 58.371,111.57 57.607,110.43 57.225,108.52 57.225,107.37 57.607,105.46 58.371,104.32 59.517,103.93 60.28,103.93 61.426,104.32 62.19,105.46 62.572,107.37 62.572,108.52 62.19,110.43 61.426,111.57 60.28,111.95 59.517,111.95 " stroke-width="0.54225" stroke-linecap="round" stroke-linejoin="round" />
<polygon points="67.154,111.95 66.008,111.57 65.245,110.43 64.863,108.52 64.863,107.37 65.245,105.46 66.008,104.32 67.154,103.93 67.918,103.93 69.063,104.32 69.827,105.46 70.209,107.37 70.209,108.52 69.827,110.43 69.063,111.57 67.918,111.95 " stroke-width="0.54225" stroke-linejoin="round" />
<polyline points="53.407,159.72 49.588,154.37 55.316,154.37 " stroke-width="0.54225" stroke-linecap="round" stroke-linejoin="round" />
<line x1="53.407" y1="159.72" x2="53.407" y2="151.7" stroke-width="0.54225" stroke-linecap="round" />
<polygon points="59.517,159.72 58.371,159.34 57.607,158.19 57.225,156.28 57.225,155.14 57.607,153.23 58.371,152.08 59.517,151.7 60.28,151.7 61.426,152.08 62.19,153.23 62.572,155.14 62.572,156.28 62.19,158.19 61.426,159.34 60.28,159.72 " stroke-width="0.54225" stroke-linejoin="round" />
<polygon points="67.154,159.72 66.008,159.34 65.245,158.19 64.863,156.28 64.863,155.14 65.245,153.23 66.008,152.08 67.154,151.7 67.918,151.7 69.063,152.08 69.827,153.23 70.209,155.14 70.209,156.28 69.827,158.19 69.063,159.34 67.918,159.72 " stroke-width="0.54225" stroke-linejoin="round" />
<polyline points="54.552,206.34 54.171,207.1 53.025,207.49 52.261,207.49 51.116,207.1 50.352,205.96 49.97,204.05 49.97,202.14 50.352,200.61 51.116,199.85 52.261,199.47 52.643,199.47 53.789,199.85 54.552,200.61 54.934,201.76 54.934,202.14 54.552,203.29 53.789,204.05 52.643,204.43 52.261,204.43 51.116,204.05 50.352,203.29 49.97,202.14 " stroke-width="0.54225" stroke-linecap="round" stroke-linejoin="round" />
<polygon points="59.517,207.49 58.371,207.1 57.607,205.96 57.225,204.05 57.225,202.9 57.607,200.99 58.371,199.85 59.517,199.47 60.28,199.47 61.426,199.85 62.19,200.99 62.572,202.9 62.572,204.05 62.19,205.96 61.426,207.1 60.28,207.49 " stroke-width="0.54225" stroke-linejoin="round" />
<polygon points="67.154,207.49 66.008,207.1 65.245,205.96 64.863,204.05 64.863,202.9 65.245,200.99 66.008,199.85 67.154,199.47 67.918,199.47 69.063,199.85 69.827,200.99 70.209,202.9 70.209,204.05 69.827,205.96 69.063,207.1 67.918,207.49 " stroke-width="0.54225" stroke-linejoin="round" />
<polygon points="51.497,255.25 50.352,254.87 49.97,254.11 49.97,253.34 50.352,252.58 51.116,252.2 52.643,251.82 53.789,251.43 54.552,250.67 54.934,249.91 54.934,248.76 54.552,248 54.171,247.62 53.025,247.23 51.497,247.23 50.352,247.62 49.97,248 49.588,248.76 49.588,249.91 49.97,250.67 50.734,251.43 51.879,251.82 53.407,252.2 54.171,252.58 54.552,253.34 54.552,254.11 54.171,254.87 53.025,255.25 " stroke-width="0.54225" stroke-linejoin="round" />
<polyline points="59.517,255.25 58.371,254.87 57.607,253.73 57.225,251.82 57.225,250.67 57.607,248.76 58.371,247.62 59.517,247.23 60.28,247.23 61.426,247.62 62.19,248.76 62.572,250.67 62.572,251.82 62.19,253.73 61.426,254.87 60.28,255.25 59.517,255.25 " stroke-width="0.54225" stroke-linecap="round" stroke-linejoin="round" />
<polygon points="67.154,255.25 66.008,254.87 65.245,253.73 64.863,251.82 64.863,250.67 65.245,248.76 66.008,247.62 67.154,247.23 67.918,247.23 69.063,247.62 69.827,248.76 70.209,250.67 70.209,251.82 69.827,253.73 69.063,254.87 67.918,255.25 " stroke-width="0.54225" stroke-linejoin="round" />
<line x1="33.359" y1="139.02" x2="41.378" y2="139.02" stroke-width="0.54225" stroke-linecap="round" />
<line x1="33.359" y1="139.02" x2="33.359" y2="143.99" stroke-width="0.54225" stroke-linecap="round" />
<line x1="37.177" y1="139.02" x2="37.177" y2="142.08" stroke-width="0.54225" stroke-linecap="round" />
<polygon points="33.359,145.51 33.741,145.9 33.359,146.28 32.977,145.9 " stroke-width="0.54225" stroke-linejoin="round" />
<line x1="36.032" y1="145.9" x2="41.378" y2="145.9" stroke-width="0.54225" stroke-linecap="round" />
<polyline points="33.359,149.33 39.85,149.33 40.996,149.71 41.378,150.48 41.378,151.24 " stroke-width="0.54225" stroke-linecap="round" stroke-linejoin="round" />
<line x1="36.032" y1="148.19" x2="36.032" y2="150.86" stroke-width="0.54225" stroke-linecap="round" />
<line x1="36.032" y1="153.53" x2="41.378" y2="153.53" stroke-width="0.54225" stroke-linecap="round" />
<polyline points="37.559,153.53 36.414,154.68 36.032,155.44 36.032,156.59 36.414,157.35 37.559,157.73 41.378,157.73 " stroke-width="0.54225" stroke-linecap="round" stroke-linejoin="round" />
<polyline points="38.323,160.41 38.323,164.99 37.559,164.99 36.796,164.61 36.414,164.23 36.032,163.46 36.032,162.32 36.414,161.55 37.177,160.79 38.323,160.41 39.087,160.41 40.232,160.79 40.996,161.55 41.378,162.32 41.378,163.46 40.996,164.23 40.232,164.99 " stroke-width="0.54225" stroke-linecap="round" stroke-linejoin="round" />
<polyline points="37.177,171.48 36.414,171.1 36.032,169.95 36.032,168.81 36.414,167.66 37.177,167.28 37.941,167.66 38.323,168.43 38.705,170.34 39.087,171.1 39.85,171.48 40.232,171.48 40.996,171.1 41.378,169.95 41.378,168.81 40.996,167.66 40.232,167.28 " stroke-width="0.54225" stroke-linecap="round" stroke-linejoin="round" />
<polyline points="37.177,177.97 36.414,177.59 36.032,176.45 36.032,175.3 36.414,174.15 37.177,173.77 37.941,174.15 38.323,174.92 38.705,176.83 39.087,177.59 39.85,177.97 40.232,177.97 40.996,177.59 41.378,176.45 41.378,175.3 40.996,174.15 40.232,173.77 " stroke-width="0.54225" stroke-linecap="round" stroke-linejoin="round" />
<line x1="100.03" y1="51.977" x2="100.03" y2="55.128" stroke-width="0.70588" />
<line x1="122.44" y1="51.977" x2="122.44" y2="55.128" stroke-width="0.70588" />
<line x1="144.84" y1="51.977" x2="144.84" y2="55.128" stroke-width="0.70588" />
<line x1="167.24" y1="51.977" x2="167.24" y2="55.128" stroke-width="0.70588" />
<line x1="189.64" y1="51.977" x2="189.64" y2="55.128" stroke-width="0.70588" />
<line x1="212.04" y1="51.977" x2="212.04" y2="55.128" stroke-width="0.70588" />
<line x1="234.44" y1="51.977" x2="234.44" y2="55.128" stroke-width="0.70588" />
<line x1="256.85" y1="51.977" x2="256.85" y2="55.128" stroke-width="0.70588" />
<line x1="279.25" y1="51.977" x2="279.25" y2="55.128" stroke-width="0.70588" />
<line x1="301.65" y1="51.977" x2="301.65" y2="55.128" stroke-width="0.70588" />
<line x1="324.05" y1="51.977" x2="324.05" y2="55.128" stroke-width="0.70588" />
<line x1="346.45" y1="51.977" x2="346.45" y2="55.128" stroke-width="0.70588" />
<line x1="368.86" y1="51.977" x2="368.86" y2="55.128" stroke-width="0.70588" />
<line x1="391.26" y1="51.977" x2="391.26" y2="55.128" stroke-width="0.70588" />
<line x1="413.66" y1="51.977" x2="413.66" y2="55.128" stroke-width="0.70588" />
<line x1="436.06" y1="51.977" x2="436.06" y2="55.128" stroke-width="0.70588" />
<line x1="458.46" y1="51.977" x2="458.46" y2="55.128" stroke-width="0.70588" />
<line x1="480.86" y1="51.977" x2="480.86" y2="55.128" stroke-width="0.70588" />
<line x1="503.27" y1="51.977" x2="503.27" y2="55.128" stroke-width="0.70588" />
<line x1="525.67" y1="51.977" x2="525.67" y2="55.128" stroke-width="0.70588" />
<line x1="548.07" y1="51.977" x2="548.07" y2="55.128" stroke-width="0.70588" />
<line x1="100.03" y1="51.977" x2="100.03" y2="58.278" stroke-width="0.70588" />
<line x1="189.64" y1="51.977" x2="189.64" y2="58.278" stroke-width="0.70588" />
<line x1="279.25" y1="51.977" x2="279.25" y2="58.278" stroke-width="0.70588" />
<line x1="368.86" y1="51.977" x2="368.86" y2="58.278" stroke-width="0.70588" />
<line x1="458.46" y1="51.977" x2="458.46" y2="58.278" stroke-width="0.70588" />
<line x1="548.07" y1="51.977" x2="548.07" y2="58.278" stroke-width="0.70588" />
<line x1="77.655" y1="51.977" x2="570" y2="51.977" stroke-width="0.70588" />
<polygon points="99.653,43.958 98.507,43.576 97.743,42.431 97.362,40.521 97.362,39.376 97.743,37.466 98.507,36.321 99.653,35.939 100.42,35.939 101.56,36.321 102.33,37.466 102.71,39.376 102.71,40.521 102.33,42.431 101.56,43.576 100.42,43.958 " stroke-width="0.54225" stroke-linejoin="round" />
<polyline points="179.71,42.049 179.71,42.431 180.09,43.194 180.48,43.576 181.24,43.958 182.77,43.958 183.53,43.576 183.91,43.194 184.3,42.431 184.3,41.667 183.91,40.903 183.15,39.758 179.33,35.939 184.68,35.939 " stroke-width="0.54225" stroke-linecap="round" stroke-linejoin="round" />
<polygon points="189.26,43.958 188.11,43.576 187.35,42.431 186.97,40.521 186.97,39.376 187.35,37.466 188.11,36.321 189.26,35.939 190.02,35.939 191.17,36.321 191.93,37.466 192.31,39.376 192.31,40.521 191.93,42.431 191.17,43.576 190.02,43.958 " stroke-width="0.54225" stroke-linejoin="round" />
<polygon points="196.9,43.958 195.75,43.576 194.99,42.431 194.61,40.521 194.61,39.376 194.99,37.466 195.75,36.321 196.9,35.939 197.66,35.939 198.81,36.321 199.57,37.466 199.95,39.376 199.95,40.521 199.57,42.431 198.81,43.576 197.66,43.958 " stroke-width="0.54225" stroke-linejoin="round" />
<polyline points="272.76,43.958 268.94,38.612 274.67,38.612 " stroke-width="0.54225" stroke-linecap="round" stroke-linejoin="round" />
<line x1="272.76" y1="43.958" x2="272.76" y2="35.939" stroke-width="0.54225" stroke-linecap="round" />
<polygon points="278.87,43.958 277.72,43.576 276.96,42.431 276.58,40.521 276.58,39.376 276.96,37.466 277.72,36.321 278.87,35.939 279.63,35.939 280.78,36.321 281.54,37.466 281.92,39.376 281.92,40.521 281.54,42.431 280.78,43.576 279.63,43.958 " stroke-width="0.54225" stroke-linejoin="round" />
<polygon points="286.5,43.958 285.36,43.576 284.59,42.431 284.21,40.521 284.21,39.376 284.59,37.466 285.36,36.321 286.5,35.939 287.27,35.939 288.41,36.321 289.18,37.466 289.56,39.376 289.56,40.521 289.18,42.431 288.41,43.576 287.27,43.958 " stroke-width="0.54225" stroke-linejoin="round" />
<polyline points="363.51,42.813 363.13,43.576 361.98,43.958 361.22,43.958 360.07,43.576 359.31,42.431 358.93,40.521 358.93,38.612 359.31,37.085 360.07,36.321 361.22,35.939 361.6,35.939 362.75,36.321 363.51,37.085 363.89,38.23 363.89,38.612 363.51,39.758 362.75,40.521 361.6,40.903 361.22,40.903 360.07,40.521 359.31,39.758 358.93,38.612 " stroke-width="0.54225" stroke-linecap="round" stroke-linejoin="round" />
<polygon points="368.47,43.958 367.33,43.576 366.56,42.431 366.18,40.521 366.18,39.376 366.56,37.466 367.33,36.321 368.47,35.939 369.24,35.939 370.38,36.321 371.15,37.466 371.53,39.376 371.53,40.521 371.15,42.431 370.38,43.576 369.24,43.958 " stroke-width="0.54225" stroke-linejoin="round" />
<polygon points="376.11,43.958 374.96,43.576 374.2,42.431 373.82,40.521 373.82,39.376 374.2,37.466 374.96,36.321 376.11,35.939 376.87,35.939 378.02,36.321 378.78,37.466 379.17,39.376 379.17,40.521 378.78,42.431 378.02,43.576 376.87,43.958 " stroke-width="0.54225" stroke-linejoin="round" />
<polyline points="450.06,43.958 448.92,43.576 448.53,42.813 448.53,42.049 448.92,41.285 449.68,40.903 451.21,40.521 452.35,40.139 453.12,39.376 453.5,38.612 453.5,37.466 453.12,36.703 452.73,36.321 451.59,35.939 450.06,35.939 448.92,36.321 448.53,36.703 448.15,37.466 448.15,38.612 448.53,39.376 449.3,40.139 450.44,40.521 451.97,40.903 452.73,41.285 453.12,42.049 453.12,42.813 452.73,43.576 451.59,43.958 450.06,43.958 " stroke-width="0.54225" stroke-linecap="round" stroke-linejoin="round" />
<polygon points="458.08,43.958 456.93,43.576 456.17,42.431 455.79,40.521 455.79,39.376 456.17,37.466 456.93,36.321 458.08,35.939 458.84,35.939 459.99,36.321 460.75,37.466 461.13,39.376 461.13,40.521 460.75,42.431 459.99,43.576 458.84,43.958 " stroke-width="0.54225" stroke-linejoin="round" />
<polygon points="465.72,43.958 464.57,43.576 463.81,42.431 463.43,40.521 463.43,39.376 463.81,37.466 464.57,36.321 465.72,35.939 466.48,35.939 467.63,36.321 468.39,37.466 468.77,39.376 468.77,40.521 468.39,42.431 467.63,43.576 466.48,43.958 " stroke-width="0.54225" stroke-linejoin="round" />
<polyline points="535.09,42.431 535.85,42.813 536.99,43.958 536.99,35.939 " stroke-width="0.54225" stroke-linecap="round" stroke-linejoin="round" />
<polygon points="543.87,43.958 542.72,43.576 541.96,42.431 541.58,40.521 541.58,39.376 541.96,37.466 542.72,36.321 543.87,35.939 544.63,35.939 545.78,36.321 546.54,37.466 546.92,39.376 546.92,40.521 546.54,42.431 545.78,43.576 544.63,43.958 " stroke-width="0.54225" stroke-linejoin="round" />
<polygon points="551.51,43.958 550.36,43.576 549.6,42.431 549.21,40.521 549.21,39.376 549.6,37.466 550.36,36.321 551.51,35.939 552.27,35.939 553.41,36.321 554.18,37.466 554.56,39.376 554.56,40.521 554.18,42.431 553.41,43.576 552.27,43.958 " stroke-width="0.54225" stroke-linejoin="round" />
<polygon points="559.14,43.958 558,43.576 557.23,42.431 556.85,40.521 556.85,39.376 557.23,37.466 558,36.321 559.14,35.939 559.91,35.939 561.05,36.321 561.82,37.466 562.2,39.376 562.2,40.521 561.82,42.431 561.05,43.576 559.91,43.958 " stroke-width="0.54225" stroke-linejoin="round" />
<polyline points="295.76,25.247 295.38,26.01 294.61,26.774 293.85,27.156 292.32,27.156 291.56,26.774 290.8,26.01 290.41,25.247 290.03,24.101 290.03,22.192 290.41,21.046 290.8,20.282 291.56,19.519 292.32,19.137 293.85,19.137 294.61,19.519 295.38,20.282 295.76,21.046 295.76,22.192 " stroke-width="0.54225" stroke-linecap="round" stroke-linejoin="round" />
<line x1="293.85" y1="22.192" x2="295.76" y2="22.192" stroke-width="0.54225" stroke-linecap="round" />
<polyline points="298.05,22.192 302.63,22.192 302.63,22.955 302.25,23.719 301.87,24.101 301.11,24.483 299.96,24.483 299.2,24.101 298.43,23.337 298.05,22.192 298.05,21.428 298.43,20.282 299.2,19.519 299.96,19.137 301.11,19.137 301.87,19.519 302.63,20.282 " stroke-width="0.54225" stroke-linecap="round" stroke-linejoin="round" />
<line x1="305.31" y1="24.483" x2="305.31" y2="19.137" stroke-width="0.54225" stroke-linecap="round" />
<polyline points="305.31,22.955 306.45,24.101 307.22,24.483 308.36,24.483 309.13,24.101 309.51,22.955 309.51,19.137 " stroke-width="0.54225" stroke-linecap="round" stroke-linejoin="round" />
<polyline points="312.18,22.192 316.76,22.192 316.76,22.955 316.38,23.719 316,24.101 315.24,24.483 314.09,24.483 313.33,24.101 312.56,23.337 312.18,22.192 312.18,21.428 312.56,20.282 313.33,19.519 314.09,19.137 315.24,19.137 316,19.519 316.76,20.282 " stroke-width="0.54225" stroke-linecap="round" stroke-linejoin="round" />
<line x1="319.44" y1="24.483" x2="319.44" y2="19.137" stroke-width="0.54225" stroke-linecap="round" />
<polyline points="319.44,22.192 319.82,23.337 320.58,24.101 321.35,24.483 322.49,24.483 " stroke-width="0.54225" stroke-linecap="round" stroke-linejoin="round" />
<line x1="328.6" y1="24.483" x2="328.6" y2="19.137" stroke-width="0.54225" stroke-linecap="round" />
<polyline points="328.6,23.337 327.84,24.101 327.07,24.483 325.93,24.483 325.16,24.101 324.4,23.337 324.02,22.192 324.02,21.428 324.4,20.282 325.16,19.519 325.93,19.137 327.07,19.137 327.84,19.519 328.6,20.282 " stroke-width="0.54225" stroke-linecap="round" stroke-linejoin="round" />
<polyline points="332.04,27.156 332.04,20.664 332.42,19.519 333.18,19.137 333.95,19.137 " stroke-width="0.54225" stroke-linecap="round" stroke-linejoin="round" />
<line x1="330.89" y1="24.483" x2="333.57" y2="24.483" stroke-width="0.54225" stroke-linecap="round" />
<polygon points="335.86,27.156 336.24,26.774 336.62,27.156 336.24,27.538 " stroke-width="0.54225" stroke-linejoin="round" />
<line x1="336.24" y1="24.483" x2="336.24" y2="19.137" stroke-width="0.54225" stroke-linecap="round" />
<polygon points="340.82,24.483 340.06,24.101 339.29,23.337 338.91,22.192 338.91,21.428 339.29,20.282 340.06,19.519 340.82,19.137 341.97,19.137 342.73,19.519 343.49,20.282 343.88,21.428 343.88,22.192 343.49,23.337 342.73,24.101 341.97,24.483 " stroke-width="0.54225" stroke-linejoin="round" />
<line x1="346.55" y1="24.483" x2="346.55" y2="19.137" stroke-width="0.54225" stroke-linecap="round" />
<polyline points="346.55,22.955 347.69,24.101 348.46,24.483 349.6,24.483 350.37,24.101 350.75,22.955 350.75,19.137 " stroke-width="0.54225" stroke-linecap="round" stroke-linejoin="round" />
<polyline points="357.62,23.337 357.24,24.101 356.1,24.483 354.95,24.483 353.8,24.101 353.42,23.337 353.8,22.574 354.57,22.192 356.48,21.81 357.24,21.428 357.62,20.664 357.62,20.282 357.24,19.519 356.1,19.137 354.95,19.137 353.8,19.519 353.42,20.282 " stroke-width="0.54225" stroke-linecap="round" stroke-linejoin="round" />
</g>
</svg>
