<?xml version="1.0" encoding="UTF-8" standalone="no"?>
<!DOCTYPE svg PUBLIC "-//W3C//DTD SVG 1.1//EN"
 "http://www.w3.org/Graphics/SVG/1.1/DTD/svg11.dtd">
<!-- Generated by graphviz version 2.36.0 (20140111.2315)
 -->
<!-- Title: G Pages: 1 -->
<svg width="890pt" height="462pt"
 viewBox="0.00 0.00 890.27 462.00" xmlns="http://www.w3.org/2000/svg" xmlns:xlink="http://www.w3.org/1999/xlink">
<g id="graph0" class="graph" transform="scale(1 1) rotate(0) translate(4 458)">
<title>G</title>
<polygon fill="white" stroke="none" points="-4,4 -4,-458 886.272,-458 886.272,4 -4,4"/>
<g id="clust1" class="cluster"><title>cluster_inputs</title>
<polygon fill="none" stroke="white" points="359.272,-412 359.272,-446 514.272,-446 514.272,-412 359.272,-412"/>
</g>
<g id="clust2" class="cluster"><title>cluster_outputs</title>
<polygon fill="none" stroke="white" points="459.272,-136 459.272,-256 523.272,-256 523.272,-136 459.272,-136"/>
</g>
<!-- 1 -->
<g id="node1" class="node"><title>1</title>
<polygon fill="lightgrey" stroke="black" points="505.522,-438 485.022,-438 485.022,-420 505.522,-420 505.522,-438"/>
<text text-anchor="middle" x="495.272" y="-426.8" font-family="Times,serif" font-size="9.00">1</text>
</g>
<!-- 5 -->
<g id="node5" class="node"><title>5</title>
<ellipse fill="lightblue" stroke="lightblue" cx="482.272" cy="-233" rx="14.2796" ry="14.7"/>
<text text-anchor="middle" x="482.272" y="-230.8" font-family="Times,serif" font-size="9.00">5</text>
</g>
<!-- 1&#45;&gt;5 -->
<g id="edge26" class="edge"><title>1&#45;&gt;5</title>
<path fill="none" stroke="black" d="M505.682,-427.332C542.903,-424.706 668.441,-413.741 692.272,-384 750.923,-310.805 573.217,-257.012 506.498,-239.837"/>
<polygon fill="black" stroke="black" points="506.998,-236.354 496.447,-237.312 505.293,-243.143 506.998,-236.354"/>
</g>
<!-- 6 -->
<g id="node6" class="node"><title>6</title>
<ellipse fill="lightblue" stroke="lightblue" cx="482.272" cy="-159" rx="14.2796" ry="14.7"/>
<text text-anchor="middle" x="482.272" y="-156.8" font-family="Times,serif" font-size="9.00">6</text>
</g>
<!-- 1&#45;&gt;6 -->
<g id="edge10" class="edge"><title>1&#45;&gt;6</title>
<path fill="none" stroke="black" d="M505.707,-424.821C521.511,-419.375 550.975,-406.604 563.272,-384 569.644,-372.288 568.586,-366.229 563.272,-354 537.831,-295.454 483.713,-314.546 458.272,-256 447.446,-231.085 459.15,-200.323 469.683,-180.442"/>
<polygon fill="black" stroke="black" points="472.789,-182.059 474.655,-171.63 466.693,-178.619 472.789,-182.059"/>
</g>
<!-- 9 -->
<g id="node7" class="node"><title>9</title>
<ellipse fill="none" stroke="black" cx="651.272" cy="-369" rx="14.2796" ry="14.7"/>
<text text-anchor="middle" x="651.272" y="-366.8" font-family="Times,serif" font-size="9.00">9</text>
</g>
<!-- 1&#45;&gt;9 -->
<g id="edge42" class="edge"><title>1&#45;&gt;9</title>
<path fill="none" stroke="black" d="M505.63,-424.862C527.481,-418.144 579.784,-401.546 622.272,-384 624.669,-383.01 627.148,-381.92 629.603,-380.797"/>
<polygon fill="black" stroke="black" points="631.19,-383.918 638.712,-376.457 628.179,-377.599 631.19,-383.918"/>
</g>
<!-- 7 -->
<g id="node8" class="node"><title>7</title>
<ellipse fill="none" stroke="black" cx="423.272" cy="-303" rx="14.2796" ry="14.7"/>
<text text-anchor="middle" x="423.272" y="-300.8" font-family="Times,serif" font-size="9.00">7</text>
</g>
<!-- 1&#45;&gt;7 -->
<g id="edge61" class="edge"><title>1&#45;&gt;7</title>
<path fill="none" stroke="black" d="M505.869,-422.559C518.221,-415.547 537.994,-402.074 546.272,-384 551.824,-371.878 553.716,-365.062 546.272,-354 540.412,-345.291 480.616,-323.661 446.608,-311.907"/>
<polygon fill="black" stroke="black" points="447.564,-308.535 436.969,-308.601 445.293,-315.156 447.564,-308.535"/>
</g>
<!-- 8 -->
<g id="node11" class="node"><title>8</title>
<ellipse fill="none" stroke="black" cx="482.272" cy="-89" rx="14.2796" ry="14.7"/>
<text text-anchor="middle" x="482.272" y="-86.8" font-family="Times,serif" font-size="9.00">8</text>
</g>
<!-- 1&#45;&gt;8 -->
<g id="edge59" class="edge"><title>1&#45;&gt;8</title>
<path fill="none" stroke="black" d="M485.072,-419.717C458.208,-397.049 386.392,-330.687 369.272,-256 357.12,-202.985 358.395,-177.735 393.272,-136 410.273,-115.656 438.582,-103.23 458.705,-96.5059"/>
<polygon fill="black" stroke="black" points="459.87,-99.8092 468.379,-93.4974 457.791,-93.125 459.87,-99.8092"/>
</g>
<!-- 12 -->
<g id="node12" class="node"><title>12</title>
<ellipse fill="none" stroke="black" cx="797.272" cy="-233" rx="18.0791" ry="18.2703"/>
<text text-anchor="middle" x="797.272" y="-230.8" font-family="Times,serif" font-size="9.00">12</text>
</g>
<!-- 1&#45;&gt;12 -->
<g id="edge52" class="edge"><title>1&#45;&gt;12</title>
<path fill="none" stroke="black" d="M505.736,-427.559C537.994,-425.856 638.202,-417.983 712.272,-384 755.744,-364.055 776.241,-360.957 797.272,-318 805.875,-300.428 805.461,-278.205 803.119,-261.031"/>
<polygon fill="black" stroke="black" points="806.557,-260.372 801.474,-251.077 799.651,-261.514 806.557,-260.372"/>
</g>
<!-- 2 -->
<g id="node2" class="node"><title>2</title>
<polygon fill="lightgrey" stroke="black" points="388.522,-438 368.022,-438 368.022,-420 388.522,-420 388.522,-438"/>
<text text-anchor="middle" x="378.272" y="-426.8" font-family="Times,serif" font-size="9.00">2</text>
</g>
<!-- 2&#45;&gt;5 -->
<g id="edge13" class="edge"><title>2&#45;&gt;5</title>
<path fill="none" stroke="black" d="M375.508,-419.961C368.223,-397.235 350.811,-331.364 377.272,-288 394.837,-259.216 433.183,-245.127 458.351,-238.733"/>
<polygon fill="black" stroke="black" points="459.28,-242.11 468.232,-236.443 457.7,-235.291 459.28,-242.11"/>
</g>
<!-- 2&#45;&gt;6 -->
<g id="edge34" class="edge"><title>2&#45;&gt;6</title>
<path fill="none" stroke="black" d="M372.428,-419.668C351.703,-389.009 285.509,-280.778 334.272,-214 363.091,-174.535 423.771,-163.854 457.803,-161.002"/>
<polygon fill="black" stroke="black" points="458.1,-164.49 467.842,-160.325 457.629,-157.506 458.1,-164.49"/>
</g>
<!-- 2&#45;&gt;8 -->
<g id="edge6" class="edge"><title>2&#45;&gt;8</title>
<path fill="none" stroke="black" d="M367.74,-428.18C314.777,-428.874 77.9665,-429.364 24.2722,-384 -4.08364,-360.043 0.272243,-341.121 0.272243,-304 0.272243,-304 0.272243,-304 0.272243,-232 0.272243,-162.654 59.2682,-162.69 123.272,-136 184.103,-110.633 386.303,-95.9512 457.337,-91.4764"/>
<polygon fill="black" stroke="black" points="457.804,-94.9544 467.569,-90.8458 457.373,-87.9676 457.804,-94.9544"/>
</g>
<!-- 3 -->
<g id="node3" class="node"><title>3</title>
<polygon fill="lightgrey" stroke="black" points="466.522,-438 446.022,-438 446.022,-420 466.522,-420 466.522,-438"/>
<text text-anchor="middle" x="456.272" y="-426.8" font-family="Times,serif" font-size="9.00">3</text>
</g>
<!-- 3&#45;&gt;5 -->
<g id="edge30" class="edge"><title>3&#45;&gt;5</title>
<path fill="none" stroke="black" d="M447.96,-419.824C426.625,-397.815 373.372,-335.751 399.272,-288 411.836,-264.837 439.111,-250.053 458.976,-241.917"/>
<polygon fill="black" stroke="black" points="460.473,-245.092 468.571,-238.26 457.98,-238.551 460.473,-245.092"/>
</g>
<!-- 3&#45;&gt;6 -->
<g id="edge28" class="edge"><title>3&#45;&gt;6</title>
<path fill="none" stroke="black" d="M446.159,-419.782C443.012,-417.259 439.517,-414.492 436.272,-412 419.634,-399.223 409.155,-401.935 398.272,-384 358.808,-318.96 338.772,-279.018 378.272,-214 395.556,-185.55 433.233,-171.408 458.172,-164.906"/>
<polygon fill="black" stroke="black" points="459.068,-168.291 467.984,-162.568 457.445,-161.481 459.068,-168.291"/>
</g>
<!-- 3&#45;&gt;9 -->
<g id="edge63" class="edge"><title>3&#45;&gt;9</title>
<path fill="none" stroke="black" d="M464.178,-419.912C467.381,-417.039 471.268,-414.019 475.272,-412 525.385,-386.728 591.275,-376.274 626.511,-372.264"/>
<polygon fill="black" stroke="black" points="627.238,-375.707 636.816,-371.178 626.504,-368.746 627.238,-375.707"/>
</g>
<!-- 3&#45;&gt;7 -->
<g id="edge12" class="edge"><title>3&#45;&gt;7</title>
<path fill="none" stroke="black" d="M454.107,-419.864C449.174,-401.327 436.947,-355.385 429.457,-327.239"/>
<polygon fill="black" stroke="black" points="432.797,-326.181 426.843,-317.418 426.033,-327.981 432.797,-326.181"/>
</g>
<!-- 10 -->
<g id="node9" class="node"><title>10</title>
<ellipse fill="none" stroke="black" cx="741.272" cy="-159" rx="18.0791" ry="18.2703"/>
<text text-anchor="middle" x="741.272" y="-156.8" font-family="Times,serif" font-size="9.00">10</text>
</g>
<!-- 3&#45;&gt;10 -->
<g id="edge65" class="edge"><title>3&#45;&gt;10</title>
<path fill="none" stroke="black" d="M464.07,-419.685C467.261,-416.784 471.166,-413.805 475.272,-412 564.297,-372.872 600.75,-416.864 692.272,-384 744.149,-365.372 761.336,-359.795 797.272,-318 828.407,-281.79 847.041,-255.977 824.272,-214 812.352,-192.024 787.189,-177.589 767.677,-169.22"/>
<polygon fill="black" stroke="black" points="768.946,-165.958 758.362,-165.491 766.344,-172.457 768.946,-165.958"/>
</g>
<!-- 3&#45;&gt;8 -->
<g id="edge58" class="edge"><title>3&#45;&gt;8</title>
<path fill="none" stroke="black" d="M446.833,-419.729C443.599,-417.095 439.884,-414.276 436.272,-412 412.054,-396.741 395.233,-407.058 378.272,-384 312.858,-295.07 299.094,-225.103 364.272,-136 386.047,-106.233 429.945,-95.7254 457.628,-92.0184"/>
<polygon fill="black" stroke="black" points="458.165,-95.48 467.705,-90.8724 457.374,-88.5248 458.165,-95.48"/>
</g>
<!-- 4 -->
<g id="node4" class="node"><title>4</title>
<polygon fill="lightgrey" stroke="black" points="427.522,-438 407.022,-438 407.022,-420 427.522,-420 427.522,-438"/>
<text text-anchor="middle" x="417.272" y="-426.8" font-family="Times,serif" font-size="9.00">4</text>
</g>
<!-- 4&#45;&gt;5 -->
<g id="edge38" class="edge"><title>4&#45;&gt;5</title>
<path fill="none" stroke="black" d="M411.975,-419.793C398.11,-397.177 363.549,-332.681 389.272,-288 404.069,-262.298 436.308,-247.702 458.648,-240.324"/>
<polygon fill="black" stroke="black" points="459.865,-243.612 468.408,-237.347 457.822,-236.917 459.865,-243.612"/>
</g>
<!-- 4&#45;&gt;6 -->
<g id="edge51" class="edge"><title>4&#45;&gt;6</title>
<path fill="none" stroke="black" d="M408.496,-419.975C399.843,-411.671 386.72,-397.978 378.272,-384 338.893,-318.846 313.753,-276.465 357.272,-214 380.399,-180.805 428.467,-167.86 457.795,-162.925"/>
<polygon fill="black" stroke="black" points="458.651,-166.336 468.026,-161.4 457.619,-159.412 458.651,-166.336"/>
</g>
<!-- 4&#45;&gt;9 -->
<g id="edge45" class="edge"><title>4&#45;&gt;9</title>
<path fill="none" stroke="black" d="M425.134,-419.824C428.333,-416.94 432.227,-413.936 436.272,-412 500.22,-381.393 585.036,-373.09 626.423,-370.838"/>
<polygon fill="black" stroke="black" points="626.837,-374.323 636.662,-370.359 626.509,-367.33 626.837,-374.323"/>
</g>
<!-- 4&#45;&gt;7 -->
<g id="edge2" class="edge"><title>4&#45;&gt;7</title>
<path fill="none" stroke="black" d="M417.666,-419.864C418.55,-401.599 420.721,-356.727 422.087,-328.489"/>
<polygon fill="black" stroke="black" points="425.596,-328.382 422.584,-318.224 418.605,-328.044 425.596,-328.382"/>
</g>
<!-- 4&#45;&gt;10 -->
<g id="edge33" class="edge"><title>4&#45;&gt;10</title>
<path fill="none" stroke="black" d="M426.923,-419.843C429.915,-417.322 433.226,-414.541 436.272,-412 542.228,-323.619 669.697,-218.777 719.678,-177.726"/>
<polygon fill="black" stroke="black" points="722.048,-180.308 727.555,-171.257 717.605,-174.898 722.048,-180.308"/>
</g>
<!-- 11 -->
<g id="node10" class="node"><title>11</title>
<ellipse fill="none" stroke="black" cx="695.272" cy="-19" rx="18.0791" ry="18.2703"/>
<text text-anchor="middle" x="695.272" y="-16.8" font-family="Times,serif" font-size="9.00">11</text>
</g>
<!-- 4&#45;&gt;11 -->
<g id="edge47" class="edge"><title>4&#45;&gt;11</title>
<path fill="none" stroke="black" d="M409.415,-419.936C405.984,-416.919 401.728,-413.791 397.272,-412 332.89,-386.116 145.061,-420.864 86.2722,-384 51.143,-361.972 38.2722,-345.465 38.2722,-304 38.2722,-304 38.2722,-304 38.2722,-158 38.2722,-27.4785 541.163,-19.7113 666.995,-19.8107"/>
<polygon fill="black" stroke="black" points="667.006,-23.3106 677.015,-19.8366 667.024,-16.3107 667.006,-23.3106"/>
</g>
<!-- 4&#45;&gt;8 -->
<g id="edge25" class="edge"><title>4&#45;&gt;8</title>
<path fill="none" stroke="black" d="M408.391,-419.79C405.081,-417.038 401.175,-414.13 397.272,-412 265.149,-339.881 76.2722,-454.525 76.2722,-304 76.2722,-304 76.2722,-304 76.2722,-232 76.2722,-150.722 369.848,-104.994 457.716,-93.1279"/>
<polygon fill="black" stroke="black" points="458.368,-96.5722 467.822,-91.791 457.45,-89.6327 458.368,-96.5722"/>
</g>
<!-- 5&#45;&gt;5 -->
<g id="edge19" class="edge"><title>5&#45;&gt;5</title>
<path fill="none" stroke="black" d="M492.761,-243.43C503.011,-249.192 514.272,-245.715 514.272,-233 514.272,-224.457 509.189,-220.085 502.744,-219.882"/>
<polygon fill="black" stroke="black" points="501.507,-216.591 492.761,-222.57 503.327,-223.35 501.507,-216.591"/>
</g>
<!-- 5&#45;&gt;6 -->
<g id="edge5" class="edge"><title>5&#45;&gt;6</title>
<path fill="none" stroke="black" d="M476.956,-219.128C475.506,-209.218 475.156,-195.253 475.905,-183.383"/>
<polygon fill="black" stroke="black" points="479.406,-183.543 476.902,-173.248 472.44,-182.857 479.406,-183.543"/>
</g>
<!-- 5&#45;&gt;9 -->
<g id="edge1" class="edge"><title>5&#45;&gt;9</title>
<path fill="none" stroke="black" d="M495.169,-240.147C513.632,-249.252 548.239,-267.475 574.272,-288 597.819,-306.565 621.179,-332.104 635.885,-349.289"/>
<polygon fill="black" stroke="black" points="633.252,-351.595 642.373,-356.986 638.605,-347.084 633.252,-351.595"/>
</g>
<!-- 5&#45;&gt;7 -->
<g id="edge55" class="edge"><title>5&#45;&gt;7</title>
<path fill="none" stroke="cornflowerblue" stroke-dasharray="1,5" d="M470.741,-242.047C460.311,-251.599 445.593,-267.896 435.131,-281.09"/>
<polygon fill="cornflowerblue" stroke="cornflowerblue" points="432.224,-279.131 428.958,-289.21 437.796,-283.367 432.224,-279.131"/>
</g>
<!-- 5&#45;&gt;10 -->
<g id="edge50" class="edge"><title>5&#45;&gt;10</title>
<path fill="none" stroke="black" d="M496.417,-229.305C532.071,-223.298 626.144,-207.005 700.272,-178 705.192,-176.075 710.28,-173.51 715.217,-170.921"/>
<polygon fill="black" stroke="black" points="717.216,-173.824 724.441,-166.075 713.961,-167.627 717.216,-173.824"/>
</g>
<!-- 5&#45;&gt;11 -->
<g id="edge37" class="edge"><title>5&#45;&gt;11</title>
<path fill="none" stroke="black" d="M495.771,-227.39C517.541,-219.534 561.109,-202.039 592.272,-178 626.702,-151.442 632.666,-140.517 656.272,-104 668.166,-85.6013 678.447,-62.9913 685.463,-45.8653"/>
<polygon fill="black" stroke="black" points="688.749,-47.0738 689.204,-36.4887 682.247,-44.4797 688.749,-47.0738"/>
</g>
<!-- 5&#45;&gt;8 -->
<g id="edge15" class="edge"><title>5&#45;&gt;8</title>
<path fill="none" stroke="black" d="M492.71,-222.444C502.75,-212.481 517.264,-195.85 523.272,-178 529.227,-160.309 529.918,-153.444 523.272,-136 518.723,-124.06 509.495,-113.248 500.943,-105.111"/>
<polygon fill="black" stroke="black" points="503.232,-102.463 493.433,-98.4345 498.581,-107.695 503.232,-102.463"/>
</g>
<!-- 6&#45;&gt;5 -->
<g id="edge27" class="edge"><title>6&#45;&gt;5</title>
<path fill="none" stroke="black" d="M487.642,-173.248C489.065,-183.259 489.387,-197.247 488.611,-209.063"/>
<polygon fill="black" stroke="black" points="485.117,-208.825 487.588,-219.128 492.081,-209.533 485.117,-208.825"/>
</g>
<!-- 6&#45;&gt;6 -->
<g id="edge4" class="edge"><title>6&#45;&gt;6</title>
<path fill="none" stroke="black" d="M492.761,-169.43C503.011,-175.192 514.272,-171.715 514.272,-159 514.272,-150.457 509.189,-146.085 502.744,-145.882"/>
<polygon fill="black" stroke="black" points="501.507,-142.591 492.761,-148.57 503.327,-149.35 501.507,-142.591"/>
</g>
<!-- 6&#45;&gt;7 -->
<g id="edge18" class="edge"><title>6&#45;&gt;7</title>
<path fill="none" stroke="black" d="M468.121,-163.252C446.224,-169.132 404.827,-183.828 387.272,-214 377.885,-230.134 381.188,-238.353 387.272,-256 391.041,-266.929 398.592,-277.247 405.809,-285.33"/>
<polygon fill="black" stroke="black" points="403.324,-287.796 412.763,-292.608 408.386,-282.96 403.324,-287.796"/>
</g>
<!-- 6&#45;&gt;10 -->
<g id="edge24" class="edge"><title>6&#45;&gt;10</title>
<path fill="none" stroke="black" d="M496.942,-159C568.802,-159 640.662,-159 712.521,-159"/>
<polygon fill="black" stroke="black" points="712.661,-162.5 722.661,-159 712.661,-155.5 712.661,-162.5"/>
</g>
<!-- 6&#45;&gt;8 -->
<g id="edge53" class="edge"><title>6&#45;&gt;8</title>
<path fill="none" stroke="black" d="M476.861,-145.21C475.537,-136.207 475.195,-123.901 475.835,-113.192"/>
<polygon fill="black" stroke="black" points="479.323,-113.487 476.802,-103.197 472.355,-112.813 479.323,-113.487"/>
</g>
<!-- 9&#45;&gt;5 -->
<g id="edge62" class="edge"><title>9&#45;&gt;5</title>
<path fill="none" stroke="black" d="M639.119,-360.958C623.585,-351.768 596.091,-334.862 574.272,-318 546.817,-296.782 517.642,-269.169 499.686,-251.509"/>
<polygon fill="black" stroke="black" points="501.835,-248.711 492.271,-244.154 496.906,-253.681 501.835,-248.711"/>
</g>
<!-- 9&#45;&gt;6 -->
<g id="edge11" class="edge"><title>9&#45;&gt;6</title>
<path fill="none" stroke="black" d="M645.09,-355.522C636.799,-339.293 621.152,-310.376 604.272,-288 571.408,-244.434 525.36,-199.654 500.284,-176.351"/>
<polygon fill="black" stroke="black" points="502.648,-173.771 492.922,-169.569 497.905,-178.919 502.648,-173.771"/>
</g>
<!-- 9&#45;&gt;9 -->
<g id="edge56" class="edge"><title>9&#45;&gt;9</title>
<path fill="none" stroke="black" d="M662.755,-378.393C672.725,-382.678 683.272,-379.547 683.272,-369 683.272,-362.079 678.73,-358.351 672.79,-357.817"/>
<polygon fill="black" stroke="black" points="671.985,-354.405 662.755,-359.607 673.215,-361.296 671.985,-354.405"/>
</g>
<!-- 9&#45;&gt;7 -->
<g id="edge32" class="edge"><title>9&#45;&gt;7</title>
<path fill="none" stroke="black" d="M637.166,-364.913C598.713,-355.326 493.254,-325.861 446.204,-311.724"/>
<polygon fill="black" stroke="black" points="447.172,-308.36 436.586,-308.795 445.132,-315.057 447.172,-308.36"/>
</g>
<!-- 9&#45;&gt;12 -->
<g id="edge66" class="edge"><title>9&#45;&gt;12</title>
<path fill="none" stroke="black" d="M665.269,-363.986C687.505,-358.051 729.738,-344.637 755.272,-318 770.844,-301.756 779.33,-277.302 785.369,-258.961"/>
<polygon fill="black" stroke="black" points="788.768,-259.829 788.588,-249.235 782.123,-257.629 788.768,-259.829"/>
</g>
<!-- 7&#45;&gt;5 -->
<g id="edge41" class="edge"><title>7&#45;&gt;5</title>
<path fill="none" stroke="black" d="M434.827,-293.932C445.283,-284.351 460.039,-268.006 470.499,-254.803"/>
<polygon fill="black" stroke="black" points="473.404,-256.764 476.663,-246.683 467.829,-252.531 473.404,-256.764"/>
</g>
<!-- 7&#45;&gt;6 -->
<g id="edge23" class="edge"><title>7&#45;&gt;6</title>
<path fill="none" stroke="black" d="M420.437,-288.179C417.44,-270.225 414.489,-238.305 425.272,-214 432.818,-196.992 448.522,-182.769 461.54,-173.196"/>
<polygon fill="black" stroke="black" points="463.767,-175.911 469.989,-167.335 459.777,-170.159 463.767,-175.911"/>
</g>
<!-- 7&#45;&gt;9 -->
<g id="edge48" class="edge"><title>7&#45;&gt;9</title>
<path fill="none" stroke="black" d="M437.17,-307.035C475.427,-316.562 581.091,-346.081 628.264,-360.253"/>
<polygon fill="black" stroke="black" points="627.323,-363.625 637.909,-363.19 629.362,-356.928 627.323,-363.625"/>
</g>
<!-- 7&#45;&gt;7 -->
<g id="edge8" class="edge"><title>7&#45;&gt;7</title>
<path fill="none" stroke="black" d="M434.092,-313.006C444.251,-318.195 455.272,-314.859 455.272,-303 455.272,-295.032 450.297,-290.912 443.951,-290.639"/>
<polygon fill="black" stroke="black" points="443.005,-287.267 434.092,-292.994 444.631,-294.075 443.005,-287.267"/>
</g>
<!-- 7&#45;&gt;10 -->
<g id="edge35" class="edge"><title>7&#45;&gt;10</title>
<path fill="none" stroke="black" d="M435.712,-295.458C475.47,-277.898 600.171,-227.688 700.272,-178 705.004,-175.651 710.026,-172.937 714.959,-170.34"/>
<polygon fill="black" stroke="black" points="716.914,-173.272 724.238,-165.617 713.738,-167.034 716.914,-173.272"/>
</g>
<!-- 7&#45;&gt;8 -->
<g id="edge64" class="edge"><title>7&#45;&gt;8</title>
<path fill="none" stroke="black" d="M409.865,-297.168C396.028,-289.798 376.866,-274.621 369.272,-256 362.224,-238.715 362.89,-231.542 369.272,-214 387.043,-165.158 433.433,-122.158 461.2,-102.058"/>
<polygon fill="black" stroke="black" points="463.238,-104.904 469.5,-96.3585 459.275,-99.1335 463.238,-104.904"/>
</g>
<!-- 7&#45;&gt;12 -->
<g id="edge36" class="edge"><title>7&#45;&gt;12</title>
<path fill="none" stroke="black" d="M437.429,-299.704C477.19,-293.223 593.244,-274.08 689.272,-256 716.583,-250.858 747.666,-244.47 769.451,-239.904"/>
<polygon fill="black" stroke="black" points="770.277,-243.307 779.341,-237.822 768.835,-236.457 770.277,-243.307"/>
</g>
<!-- 10&#45;&gt;5 -->
<g id="edge49" class="edge"><title>10&#45;&gt;5</title>
<path fill="none" stroke="black" d="M729.207,-172.863C725.727,-174.762 721.953,-176.56 718.272,-178 644.371,-206.916 550.647,-223.198 506.68,-229.25"/>
<polygon fill="black" stroke="black" points="506.076,-225.799 496.616,-230.569 506.986,-232.74 506.076,-225.799"/>
</g>
<!-- 10&#45;&gt;6 -->
<g id="edge7" class="edge"><title>10&#45;&gt;6</title>
<path fill="none" stroke="black" d="M722.661,-159C650.801,-159 578.942,-159 507.082,-159"/>
<polygon fill="black" stroke="black" points="506.942,-155.5 496.942,-159 506.942,-162.5 506.942,-155.5"/>
</g>
<!-- 10&#45;&gt;9 -->
<g id="edge31" class="edge"><title>10&#45;&gt;9</title>
<path fill="none" stroke="black" d="M744.218,-177.617C748.433,-208.483 752.99,-273.299 726.272,-318 714.527,-337.65 691.714,-351.17 674.318,-359.149"/>
<polygon fill="black" stroke="black" points="672.643,-356.059 664.826,-363.211 675.397,-362.494 672.643,-356.059"/>
</g>
<!-- 10&#45;&gt;7 -->
<g id="edge21" class="edge"><title>10&#45;&gt;7</title>
<path fill="none" stroke="black" d="M728.63,-172.507C725.276,-174.407 721.698,-176.3 718.272,-178 619.84,-226.86 497.622,-276.224 446.788,-294.552"/>
<polygon fill="black" stroke="black" points="445.327,-291.356 437.059,-297.981 447.654,-297.958 445.327,-291.356"/>
</g>
<!-- 10&#45;&gt;10 -->
<g id="edge57" class="edge"><title>10&#45;&gt;10</title>
<path fill="none" stroke="black" d="M755.689,-170.574C766.438,-174.616 777.272,-170.758 777.272,-159 777.272,-151.1 772.382,-146.767 765.912,-145.999"/>
<polygon fill="black" stroke="black" points="765.109,-142.577 755.689,-147.426 766.077,-149.51 765.109,-142.577"/>
</g>
<!-- 10&#45;&gt;11 -->
<g id="edge3" class="edge"><title>10&#45;&gt;11</title>
<path fill="none" stroke="black" d="M731.86,-142.969C721.527,-120.073 706.499,-76.1008 698.897,-47.4176"/>
<polygon fill="black" stroke="black" points="702.268,-46.4673 696.455,-37.6092 695.475,-48.1586 702.268,-46.4673"/>
</g>
<!-- 10&#45;&gt;8 -->
<g id="edge16" class="edge"><title>10&#45;&gt;8</title>
<path fill="none" stroke="black" d="M723.876,-153.433C678.662,-141.562 557.39,-109.722 505.908,-96.2054"/>
<polygon fill="black" stroke="black" points="506.595,-92.7672 496.034,-93.613 504.817,-99.5378 506.595,-92.7672"/>
</g>
<!-- 11&#45;&gt;5 -->
<g id="edge20" class="edge"><title>11&#45;&gt;5</title>
<path fill="none" stroke="black" d="M684.783,-34.0506C662.91,-62.8594 610.062,-129.949 557.272,-178 540.113,-193.619 518.406,-208.824 502.766,-219.098"/>
<polygon fill="black" stroke="black" points="500.838,-216.177 494.338,-224.544 504.637,-222.056 500.838,-216.177"/>
</g>
<!-- 11&#45;&gt;9 -->
<g id="edge40" class="edge"><title>11&#45;&gt;9</title>
<path fill="none" stroke="black" d="M712.865,-23.9676C759.416,-35.6127 882.272,-74.277 882.272,-158 882.272,-234 882.272,-234 882.272,-234 882.272,-335.384 783.84,-320.155 688.272,-354 683.706,-355.617 678.847,-357.406 674.204,-359.149"/>
<polygon fill="black" stroke="black" points="672.684,-355.982 664.58,-362.807 675.171,-362.526 672.684,-355.982"/>
</g>
<!-- 11&#45;&gt;10 -->
<g id="edge17" class="edge"><title>11&#45;&gt;10</title>
<path fill="none" stroke="black" d="M704.585,-34.8114C714.934,-57.6728 730.059,-101.917 737.676,-130.69"/>
<polygon fill="black" stroke="black" points="734.311,-131.662 740.119,-140.522 741.104,-129.973 734.311,-131.662"/>
</g>
<!-- 11&#45;&gt;8 -->
<g id="edge54" class="edge"><title>11&#45;&gt;8</title>
<path fill="none" stroke="black" d="M678.573,-26.6784C640.805,-39.8238 549.729,-68.8886 506.086,-81.7118"/>
<polygon fill="black" stroke="black" points="504.95,-78.3966 496.314,-84.5344 506.893,-85.1217 504.95,-78.3966"/>
</g>
<!-- 11&#45;&gt;12 -->
<g id="edge46" class="edge"><title>11&#45;&gt;12</title>
<path fill="none" stroke="black" d="M708.766,-31.9498C729.658,-51.3841 769.199,-92.1064 786.272,-136 794.79,-157.898 797.28,-184.571 797.788,-204.239"/>
<polygon fill="black" stroke="black" points="794.29,-204.407 797.893,-214.37 801.289,-204.335 794.29,-204.407"/>
</g>
<!-- 8&#45;&gt;5 -->
<g id="edge22" class="edge"><title>8&#45;&gt;5</title>
<path fill="none" stroke="black" d="M495.296,-95.9362C509.358,-103.152 530.99,-116.791 540.272,-136 548.394,-152.807 547.722,-160.884 540.272,-178 532.777,-195.219 516.785,-209.428 503.488,-218.942"/>
<polygon fill="black" stroke="black" points="501.191,-216.269 494.851,-224.757 505.101,-222.075 501.191,-216.269"/>
</g>
<!-- 8&#45;&gt;6 -->
<g id="edge29" class="edge"><title>8&#45;&gt;6</title>
<path fill="none" stroke="black" d="M487.742,-103.197C489.023,-112.202 489.343,-124.371 488.701,-134.954"/>
<polygon fill="black" stroke="black" points="485.188,-134.913 487.684,-145.21 492.154,-135.604 485.188,-134.913"/>
</g>
<!-- 8&#45;&gt;9 -->
<g id="edge9" class="edge"><title>8&#45;&gt;9</title>
<path fill="none" stroke="black" d="M495.546,-95.2774C511.934,-102.373 539.775,-116.401 557.272,-136 613.154,-198.594 638.213,-298.741 647.156,-344.188"/>
<polygon fill="black" stroke="black" points="643.762,-345.08 649.047,-354.263 650.642,-343.789 643.762,-345.08"/>
</g>
<!-- 8&#45;&gt;7 -->
<g id="edge43" class="edge"><title>8&#45;&gt;7</title>
<path fill="none" stroke="black" d="M473.415,-101.092C452.955,-120.755 405.333,-164.361 387.272,-214 380.89,-231.542 380.224,-238.715 387.272,-256 391.638,-266.707 399.83,-276.275 407.445,-283.876"/>
<polygon fill="black" stroke="black" points="405.049,-286.427 414.704,-290.789 409.876,-281.358 405.049,-286.427"/>
</g>
<!-- 8&#45;&gt;11 -->
<g id="edge39" class="edge"><title>8&#45;&gt;11</title>
<path fill="none" stroke="black" d="M495.465,-82.5502C529.898,-70.3907 621.674,-41.0381 668,-27.309"/>
<polygon fill="black" stroke="black" points="669.071,-30.6425 677.686,-24.4762 667.106,-23.9238 669.071,-30.6425"/>
</g>
<!-- 8&#45;&gt;8 -->
<g id="edge60" class="edge"><title>8&#45;&gt;8</title>
<path fill="none" stroke="black" d="M492.761,-99.4301C503.011,-105.192 514.272,-101.715 514.272,-89 514.272,-80.4572 509.189,-76.0847 502.744,-75.8824"/>
<polygon fill="black" stroke="black" points="501.507,-72.5906 492.761,-78.5699 503.327,-79.3499 501.507,-72.5906"/>
</g>
<!-- 12&#45;&gt;9 -->
<g id="edge14" class="edge"><title>12&#45;&gt;9</title>
<path fill="none" stroke="black" d="M801.099,-251.222C799.7,-269.837 791.163,-299.337 773.272,-318 747.061,-345.343 703.253,-358.753 675.637,-364.443"/>
<polygon fill="black" stroke="black" points="674.765,-361.045 665.574,-366.315 676.046,-367.927 674.765,-361.045"/>
</g>
<!-- 12&#45;&gt;10 -->
<g id="edge44" class="edge"><title>12&#45;&gt;10</title>
<path fill="none" stroke="black" d="M786.475,-218.118C778.495,-207.858 767.472,-193.686 758.31,-181.905"/>
<polygon fill="black" stroke="black" points="760.939,-179.584 752.036,-173.84 755.413,-183.882 760.939,-179.584"/>
</g>
</g>
</svg>
